<?xml version="1.0" encoding="utf-8"?>
<!-- Generator: Adobe Illustrator 16.0.0, SVG Export Plug-In . SVG Version: 6.00 Build 0)  -->
<!DOCTYPE svg PUBLIC "-//W3C//DTD SVG 1.1//EN" "http://www.w3.org/Graphics/SVG/1.1/DTD/svg11.dtd">
<svg version="1.1" xmlns="http://www.w3.org/2000/svg" xmlns:xlink="http://www.w3.org/1999/xlink" x="0px" y="0px"
	 width="40.669px" height="31.669px" viewBox="0 0 40.669 31.669" enable-background="new 0 0 40.669 31.669" xml:space="preserve">
<g id="Soporte">
</g>
<g id="Vectores">
</g>
<g id="Imagenes">
</g>
<g id="Iconos">
	<g>
		<linearGradient id="SVGID_1_" gradientUnits="userSpaceOnUse" x1="4.0024" y1="16.335" x2="36.0024" y2="16.335">
			<stop  offset="0.0052" style="stop-color:#FCFCFC"/>
			<stop  offset="1" style="stop-color:#E8ECF1"/>
		</linearGradient>
		<path fill="url(#SVGID_1_)" d="M36.002,24.335c0,1.656-1.344,3-3,3h-26c-1.656,0-3-1.344-3-3v-16c0-1.656,1.344-3,3-3h26
			c1.656,0,3,1.344,3,3V24.335z"/>
		<g>
			<g>
				<path fill="#303841" d="M12.046,11.116c0,0.406-0.124,0.731-0.373,0.977c-0.249,0.244-0.558,0.367-0.928,0.367
					c-0.455,0-0.813-0.164-1.077-0.494c-0.263-0.328-0.394-0.759-0.394-1.291c0-0.546,0.078-1.016,0.235-1.407
					c0.156-0.392,0.35-0.721,0.578-0.987c0.229-0.266,0.461-0.475,0.696-0.629s0.439-0.267,0.611-0.336l0.672,1.07
					c-0.242,0.126-0.459,0.314-0.65,0.566c-0.192,0.252-0.302,0.525-0.33,0.82c0.241,0.027,0.462,0.156,0.66,0.388
					C11.947,10.392,12.046,10.71,12.046,11.116z M15.259,11.116c0,0.406-0.124,0.731-0.373,0.977
					c-0.248,0.244-0.558,0.367-0.928,0.367c-0.455,0-0.813-0.164-1.076-0.494c-0.264-0.328-0.395-0.759-0.395-1.291
					c0-0.546,0.078-1.016,0.235-1.407s0.35-0.721,0.578-0.987c0.229-0.266,0.461-0.475,0.696-0.629
					c0.236-0.154,0.439-0.267,0.611-0.336l0.672,1.07c-0.242,0.126-0.459,0.314-0.65,0.566s-0.302,0.525-0.33,0.82
					c0.241,0.027,0.462,0.156,0.66,0.388C15.16,10.392,15.259,10.71,15.259,11.116z"/>
				<path fill="#303841" d="M14.251,22.729c0-0.518,0.137-0.909,0.409-1.176c0.273-0.266,0.634-0.399,1.082-0.399
					c0.49,0,0.868,0.134,1.134,0.399c0.266,0.267,0.399,0.658,0.399,1.176c0,0.505-0.137,0.896-0.41,1.177
					c-0.272,0.279-0.647,0.42-1.123,0.42c-0.462,0-0.826-0.141-1.092-0.42C14.384,23.625,14.251,23.233,14.251,22.729z"/>
				<path fill="#303841" d="M18.998,22.729c0-0.518,0.137-0.909,0.409-1.176c0.273-0.266,0.634-0.399,1.082-0.399
					c0.49,0,0.868,0.134,1.134,0.399c0.266,0.267,0.399,0.658,0.399,1.176c0,0.505-0.137,0.896-0.41,1.177
					c-0.272,0.279-0.647,0.42-1.123,0.42c-0.462,0-0.826-0.141-1.092-0.42C19.13,23.625,18.998,23.233,18.998,22.729z"/>
				<path fill="#303841" d="M23.743,22.729c0-0.518,0.137-0.909,0.409-1.176c0.273-0.266,0.634-0.399,1.082-0.399
					c0.49,0,0.868,0.134,1.134,0.399c0.266,0.267,0.399,0.658,0.399,1.176c0,0.505-0.137,0.896-0.41,1.177
					c-0.272,0.279-0.647,0.42-1.123,0.42c-0.462,0-0.826-0.141-1.092-0.42C23.875,23.625,23.743,23.233,23.743,22.729z"/>
				<path fill="#303841" d="M25.633,10.569c0-0.405,0.124-0.734,0.373-0.986c0.248-0.252,0.558-0.379,0.928-0.379
					c0.454,0,0.813,0.158,1.076,0.473c0.263,0.315,0.395,0.754,0.395,1.313c0,0.547-0.079,1.008-0.235,1.387
					c-0.157,0.378-0.347,0.696-0.568,0.955c-0.222,0.26-0.453,0.466-0.696,0.619c-0.242,0.154-0.449,0.267-0.621,0.336l-0.63-1.049
					c0.241-0.112,0.455-0.28,0.64-0.504c0.185-0.225,0.292-0.498,0.32-0.82c-0.242-0.014-0.466-0.129-0.672-0.346
					S25.633,11.019,25.633,10.569z M28.846,10.569c0-0.405,0.124-0.734,0.373-0.986c0.248-0.252,0.558-0.379,0.928-0.379
					c0.454,0,0.813,0.158,1.076,0.473c0.264,0.315,0.395,0.754,0.395,1.313c0,0.547-0.078,1.008-0.235,1.387
					c-0.157,0.378-0.347,0.696-0.568,0.955c-0.221,0.26-0.453,0.466-0.696,0.619c-0.242,0.154-0.449,0.267-0.621,0.336l-0.63-1.049
					c0.242-0.112,0.455-0.28,0.64-0.504c0.186-0.225,0.292-0.498,0.32-0.82c-0.242-0.014-0.466-0.129-0.672-0.346
					S28.846,11.019,28.846,10.569z"/>
			</g>
		</g>
	</g>
</g>
<g id="TXT">
</g>
<g id="Guia">
</g>
</svg>
