<?xml version="1.0" encoding="utf-8"?>
<!-- Generator: Adobe Illustrator 16.0.0, SVG Export Plug-In . SVG Version: 6.00 Build 0)  -->
<!DOCTYPE svg PUBLIC "-//W3C//DTD SVG 1.1//EN" "http://www.w3.org/Graphics/SVG/1.1/DTD/svg11.dtd">
<svg version="1.1" id="Capa_1" xmlns="http://www.w3.org/2000/svg" xmlns:xlink="http://www.w3.org/1999/xlink" x="0px" y="0px"
	 width="52.667px" height="44.666px" viewBox="0 0 52.667 44.666" enable-background="new 0 0 52.667 44.666" xml:space="preserve">
<g id="Soporte">
	<rect x="-958.334" y="-5393.001" fill="#DBCCBA" width="1600" height="780"/>
	<rect x="-958.334" y="-3569.001" fill="#DBCCBA" width="1600" height="780"/>
	<rect x="-958.334" y="-2789.001" fill="#DBCCBA" width="1600" height="780"/>
	<rect x="-958.334" y="-2009.007" fill="#493E3A" width="1600" height="780"/>
	<rect x="-958.334" y="-120.832" fill="#493E3A" width="1600" height="47.5"/>
	<rect x="-958.334" y="233.167" fill="#493E3A" width="1600" height="234.5"/>
	<path fill="#493E3A" d="M-1079.334-1542.001c0,4.418-3.582,8-8,8h-98c-4.418,0-8-3.582-8-8v-98c0-4.418,3.582-8,8-8h98
		c4.418,0,8,3.582,8,8V-1542.001z"/>
	<polygon fill="#DBCCBA" points="-833.943,-1618.688 -833.943,-1575.388 -871.037,-1597.038 -908.334,-1618.688 -871.139,-1640.339 
		-833.943,-1661.989 	"/>
	<polygon fill="#DBCCBA" points="517.595,-1618.689 517.595,-1661.99 554.688,-1640.34 591.985,-1618.689 554.79,-1597.039 
		517.595,-1575.389 	"/>
</g>
<g id="Vectores">
	<rect x="-658.334" y="-5308.001" fill="#493E3A" width="302" height="360"/>
	<rect x="-310.334" y="-5308.001" fill="#493E3A" width="302" height="360"/>
	<rect x="-643.334" y="-3446.001" fill="#493E3A" width="464" height="488"/>
	<rect x="-142.334" y="-3448.001" fill="#493E3A" width="464" height="488"/>
	<rect x="-658.334" y="-4871.001" fill="#493E3A" width="999" height="167"/>
	<rect x="38.666" y="-5308.001" fill="#493E3A" width="302.001" height="360"/>
	
		<line fill="none" stroke="#DBCCBA" stroke-width="5" stroke-linecap="round" stroke-miterlimit="10" stroke-dasharray="2,20" x1="-834.211" y1="-1618.534" x2="518.722" y2="-1618.001"/>
</g>
<g id="Imagenes">
	<rect x="-659.204" y="-6795.81" fill="none" width="1000.45" height="145.493"/>
	<text transform="matrix(1 0 0 1 -659.2041 -6787.29)" font-family="'MyriadPro-Regular'" font-size="12">fdafdafdasfdsafdsafdasfdafdafda</text>
	<rect x="-958.334" y="-4613.001" opacity="0.3" enable-background="new    " width="1600" height="1045"/>
	<rect x="2580.667" y="-4508.001" opacity="0.3" enable-background="new    " width="533" height="454"/>
	<rect x="1513.667" y="-4054.001" opacity="0.3" enable-background="new    " width="533" height="454"/>
	<rect x="2046.667" y="-4054.001" opacity="0.3" enable-background="new    " width="534" height="454"/>
	<rect x="2580.667" y="-4054.001" opacity="0.3" enable-background="new    " width="533" height="454"/>
</g>
<g id="Iconos">
	<g>
		<path fill="#FFFFFF" d="M253.387-84.407h-9.519c-3.642,0-6.621-2.979-6.621-6.621v-10.143c0-3.642,2.979-6.621,6.621-6.621h9.519
			c3.643,0,6.622,2.979,6.622,6.621v10.143C260.009-87.387,257.029-84.407,253.387-84.407 M253.387-86.156
			c1.294,0,2.516-0.509,3.44-1.433c0.922-0.924,1.432-2.146,1.432-3.439v-10.143c0-1.294-0.51-2.516-1.432-3.439
			c-0.926-0.923-2.146-1.432-3.44-1.432h-9.519c-1.295,0-2.517,0.509-3.439,1.432c-0.924,0.924-1.432,2.146-1.432,3.439v10.143
			c0,1.294,0.508,2.516,1.432,3.439c0.924,0.924,2.146,1.433,3.439,1.433H253.387z"/>
		<path fill="#FFFFFF" d="M254.931-96.189c0,3.461-2.807,6.268-6.268,6.268c-3.463,0-6.269-2.807-6.269-6.268
			c0-3.462,2.806-6.269,6.269-6.269C252.125-102.458,254.931-99.651,254.931-96.189 M248.634-100.29
			c-2.269,0-4.105,1.839-4.105,4.105c0,2.268,1.838,4.104,4.105,4.104c2.267,0,4.104-1.837,4.104-4.104
			C252.737-98.451,250.9-100.29,248.634-100.29"/>
		<path fill="#FFFFFF" d="M256.516-102.555c0,0.818-0.665,1.484-1.484,1.484s-1.483-0.666-1.483-1.484
			c0-0.819,0.664-1.485,1.483-1.485S256.516-103.374,256.516-102.555"/>
	</g>
	<path fill="#FFFFFF" d="M191.901-107.999H176.77c-2.39,0-4.333,1.944-4.333,4.332v15.134c0,2.389,1.943,4.332,4.333,4.332h6.94
		v-9.841h-2.033v-3.394h2.033v-2.036c0-2.768,1.149-4.413,4.414-4.413h2.717v3.394h-1.697c-1.271,0-1.355,0.475-1.355,1.356
		l-0.006,1.699h3.077l-0.358,3.394h-2.719v9.841h4.119c2.389,0,4.334-1.943,4.334-4.332v-15.134
		C196.235-106.055,194.291-107.999,191.901-107.999z"/>
	<path fill="#FFFFFF" d="M224.651-107.999H209.52c-2.39,0-4.333,1.944-4.333,4.332v15.134c0,2.389,1.943,4.332,4.333,4.332h15.132
		c2.389,0,4.334-1.943,4.334-4.332v-15.134C228.985-106.055,227.041-107.999,224.651-107.999z M223.44-99.359
		c0.006,0.141,0.009,0.283,0.009,0.426c0,4.332-3.296,9.328-9.326,9.328c-1.854,0-3.576-0.544-5.026-1.474
		c0.257,0.03,0.518,0.045,0.782,0.045c1.535,0,2.949-0.523,4.072-1.401c-1.437-0.027-2.646-0.975-3.063-2.278
		c0.2,0.038,0.405,0.058,0.616,0.058c0.3,0,0.589-0.038,0.863-0.113c-1.498-0.301-2.631-1.626-2.631-3.216
		c0-0.013,0-0.027,0.001-0.04c0.441,0.246,0.946,0.393,1.484,0.41c-0.88-0.589-1.458-1.592-1.458-2.729
		c0-0.6,0.162-1.163,0.443-1.646c1.615,1.981,4.032,3.29,6.758,3.425c-0.057-0.239-0.086-0.49-0.086-0.747
		c0-1.81,1.469-3.279,3.279-3.279c0.942,0,1.795,0.399,2.394,1.037c0.747-0.147,1.448-0.42,2.083-0.797
		c-0.246,0.769-0.766,1.409-1.443,1.813c0.664-0.077,1.295-0.255,1.885-0.515C224.636-100.398,224.08-99.82,223.44-99.359z"/>
	<path fill="#FFFFFF" d="M289.135-107.999h-15.132c-2.39,0-4.334,1.944-4.334,4.332v15.134c0,2.389,1.944,4.332,4.334,4.332h15.132
		c2.389,0,4.334-1.943,4.334-4.332v-15.134C293.469-106.055,291.523-107.999,289.135-107.999z M278.599-90.16v-11.881l8.939,5.94
		L278.599-90.16z"/>
	<path fill="#FFFFFF" d="M304.587-100.662c0,0-0.016,24.349,0.001,27.317l37.078-0.031c0.03-2.156-0.002-27.286-0.002-27.286
		c0-4.023-3.273-7.298-7.296-7.298h-22.485C307.861-107.96,304.587-104.686,304.587-100.662z M333.629-92.887h-20.009l10.206-9.987
		L333.629-92.887z"/>
	<path fill="#FFFFFF" d="M7.063,11.694c0,0-0.015,24.349,0.001,27.317l37.078-0.031c0.031-2.156-0.001-27.286-0.001-27.286
		c0-4.023-3.274-7.298-7.296-7.298H14.359C10.338,4.396,7.063,7.671,7.063,11.694z M36.105,19.47H16.098l10.206-9.987L36.105,19.47z
		"/>
	<g>
		<g>
			<path fill="#FFFFFF" d="M-560.627-105.329c-0.076-0.096,0.035-0.305,0.248-0.51c0.322-0.311,2.537-2.537,3.422-3.422
				c0.223-0.223,0.975-0.674,1.713,0.35c0.893,1.24,0.088,1.85,0,1.885c-1.18,0.465-4.889,1.682-4.889,1.682
				S-560.527-105.204-560.627-105.329z"/>
			<rect x="-657.648" y="-109.866" fill="#FFFFFF" width="5.109" height="17.102"/>
			<path fill="#FFFFFF" d="M-639.422-100.589c-0.107-2.168-1.435-4.514-6.338-4.574c-3.645-0.047-4.761,1.779-5.104,2.846
				c-0.08,0.182-0.123,0.381-0.141,0.588c-0.014,0.1-0.016,0.158-0.016,0.158c0,1.025,0.817,1.859,1.826,1.859
				c1.008,0,1.825-0.834,1.825-1.859c0-0.439-0.155-0.836-0.405-1.154h0.002c0,0-0.683-0.898,1.563-0.707
				c1.805,0.154,2.033,2.09,2.054,2.844h-0.002v2.287c-0.808-0.668-1.944-1.09-3.211-1.09c-2.446,0-4.429,1.549-4.429,3.463
				c0,1.912,1.982,3.463,4.429,3.463c1.267,0,2.403-0.422,3.211-1.09v0.791h4.745v-7.824L-639.422-100.589L-639.422-100.589z
				 M-647.368-93.493c-1.349,0-2.441-1.018-2.441-2.275s1.093-2.277,2.441-2.277c1.348,0,2.44,1.02,2.44,2.277
				S-646.02-93.493-647.368-93.493z"/>
			<path fill="#FFFFFF" d="M-624.342-104.522c-3.941,0-7.139,2.814-7.139,6.285c0,3.471,3.197,6.285,7.139,6.285
				c3.943,0,7.141-2.814,7.141-6.285C-617.201-101.708-620.398-104.522-624.342-104.522z M-624.342-93.321
				c-1.795,0-3.25-2.201-3.25-4.916c0-2.715,1.455-4.918,3.25-4.918c1.795,0,3.25,2.203,3.25,4.918
				C-621.092-95.522-622.547-93.321-624.342-93.321z"/>
			<path fill="#FFFFFF" d="M-558.139-104.522c-3.943,0-7.141,2.814-7.141,6.285c0,3.471,3.197,6.285,7.141,6.285
				c3.941,0,7.139-2.814,7.139-6.285C-551-101.708-554.197-104.522-558.139-104.522z M-558.139-93.321
				c-1.795,0-3.25-2.201-3.25-4.916c0-2.715,1.455-4.918,3.25-4.918c1.793,0,3.248,2.203,3.248,4.918
				C-554.891-95.522-556.346-93.321-558.139-93.321z"/>
			<path fill="#FFFFFF" d="M-605.938-104.353c-1.654,0-3.172,0.496-4.381,1.32v-2.002h-5.9v22.701h5.9v-10.941
				c1.209,0.826,2.727,1.322,4.381,1.322c3.932,0,7.119-2.775,7.119-6.201C-598.818-101.577-602.006-104.353-605.938-104.353z
				 M-608.139-93.493c-0.82,0-1.57-0.346-2.18-0.908v-7.074c0.609-0.563,1.359-0.908,2.18-0.908c2.008,0,3.635,1.99,3.635,4.445
				S-606.131-93.493-608.139-93.493z"/>
			<rect x="-598.092" y="-104.907" fill="#FFFFFF" width="5.516" height="12.014"/>
			<path fill="#FFFFFF" d="M-592.512-108.626c0.512,1.232-0.707,2.166-2.334,2.76c-1.84,0.67-3.289,0.197-3.523-0.564
				c-0.213-0.693,0.529-1.844,2.229-2.596C-594.557-109.729-592.951-109.685-592.512-108.626z"/>
			<rect x="-571.926" y="-104.907" fill="#FFFFFF" width="5.516" height="12.014"/>
			<path fill="#FFFFFF" d="M-566.348-108.626c0.512,1.232-0.705,2.166-2.334,2.76c-1.84,0.67-3.289,0.197-3.523-0.564
				c-0.213-0.693,0.529-1.844,2.229-2.596C-568.391-109.729-566.785-109.685-566.348-108.626z"/>
			<path fill="#FFFFFF" d="M-574.498-101.599c-0.178-2.236-2.42-2.371-5.125-2.41c-2.262-0.035-4.826,1.146-5.855,1.672v-2.57
				h-5.516v12.014h5.516v-7.396c0.596-0.596,1.711-1.514,3.076-1.668c2.096-0.234,2.367,1.686,2.396,2.418v6.646h5.514v-8.705
				L-574.498-101.599L-574.498-101.599z"/>
			<path fill="#FFFFFF" d="M-533.135-101.599c-0.178-2.236-2.42-2.371-5.125-2.41c-2.262-0.035-4.826,1.146-5.857,1.672v-2.57
				h-5.514v12.014h5.514v-7.396c0.596-0.596,1.713-1.514,3.078-1.668c2.096-0.234,2.367,1.686,2.396,2.418v6.646h5.514v-8.705
				L-533.135-101.599L-533.135-101.599z"/>
		</g>
	</g>
	<g>
		<path fill="#FFFFFF" d="M253.387,269.593h-9.519c-3.642,0-6.621-2.979-6.621-6.621v-10.143c0-3.643,2.979-6.621,6.621-6.621h9.519
			c3.643,0,6.622,2.979,6.622,6.621v10.143C260.009,266.612,257.029,269.593,253.387,269.593 M253.387,267.845
			c1.294,0,2.516-0.51,3.44-1.434c0.922-0.924,1.432-2.146,1.432-3.439v-10.143c0-1.294-0.51-2.516-1.432-3.439
			c-0.926-0.923-2.146-1.432-3.44-1.432h-9.519c-1.295,0-2.517,0.509-3.439,1.432c-0.924,0.924-1.432,2.146-1.432,3.439v10.143
			c0,1.295,0.508,2.516,1.432,3.439s2.146,1.434,3.439,1.434H253.387z"/>
		<path fill="#FFFFFF" d="M254.931,257.812c0,3.461-2.807,6.268-6.268,6.268c-3.463,0-6.269-2.807-6.269-6.268
			c0-3.463,2.806-6.27,6.269-6.27C252.125,251.542,254.931,254.349,254.931,257.812 M248.634,253.71
			c-2.269,0-4.105,1.839-4.105,4.105c0,2.268,1.838,4.104,4.105,4.104c2.267,0,4.104-1.837,4.104-4.104
			C252.737,255.549,250.9,253.71,248.634,253.71"/>
		<path fill="#FFFFFF" d="M256.516,251.444c0,0.818-0.665,1.484-1.484,1.484s-1.483-0.666-1.483-1.484s0.664-1.484,1.483-1.484
			S256.516,250.626,256.516,251.444"/>
	</g>
	<path fill="#FFFFFF" d="M191.901,246.001H176.77c-2.39,0-4.333,1.943-4.333,4.332v15.135c0,2.389,1.943,4.331,4.333,4.331h6.94
		v-9.841h-2.033v-3.395h2.033v-2.035c0-2.768,1.149-4.414,4.414-4.414h2.717v3.394h-1.697c-1.271,0-1.355,0.476-1.355,1.356
		l-0.006,1.699h3.077l-0.358,3.395h-2.719v9.841h4.119c2.389,0,4.334-1.942,4.334-4.331v-15.135
		C196.235,247.944,194.291,246.001,191.901,246.001z"/>
	<path fill="#FFFFFF" d="M224.651,246.001H209.52c-2.39,0-4.333,1.943-4.333,4.332v15.135c0,2.389,1.943,4.331,4.333,4.331h15.132
		c2.389,0,4.334-1.942,4.334-4.331v-15.135C228.985,247.944,227.041,246.001,224.651,246.001z M223.44,254.642
		c0.006,0.141,0.009,0.282,0.009,0.426c0,4.332-3.296,9.328-9.326,9.328c-1.854,0-3.576-0.545-5.026-1.475
		c0.257,0.03,0.518,0.045,0.782,0.045c1.535,0,2.949-0.523,4.072-1.4c-1.437-0.027-2.646-0.976-3.063-2.278
		c0.2,0.038,0.405,0.058,0.616,0.058c0.3,0,0.589-0.037,0.863-0.113c-1.498-0.301-2.631-1.625-2.631-3.215
		c0-0.014,0-0.027,0.001-0.041c0.441,0.246,0.946,0.394,1.484,0.41c-0.88-0.589-1.458-1.592-1.458-2.729
		c0-0.6,0.162-1.163,0.443-1.646c1.615,1.98,4.032,3.289,6.758,3.424c-0.057-0.238-0.086-0.49-0.086-0.746
		c0-1.811,1.469-3.279,3.279-3.279c0.942,0,1.795,0.398,2.394,1.037c0.747-0.147,1.448-0.42,2.083-0.797
		c-0.246,0.769-0.766,1.408-1.443,1.813c0.664-0.076,1.295-0.255,1.885-0.516C224.636,253.603,224.08,254.181,223.44,254.642z"/>
	<path fill="#FFFFFF" d="M289.135,246.001h-15.132c-2.39,0-4.334,1.943-4.334,4.332v15.135c0,2.389,1.944,4.331,4.334,4.331h15.132
		c2.389,0,4.334-1.942,4.334-4.331v-15.135C293.469,247.944,291.523,246.001,289.135,246.001z M278.599,263.84v-11.881l8.939,5.94
		L278.599,263.84z"/>
	<path fill="#FFFFFF" d="M304.587,253.338c0,0-0.016,24.349,0.001,27.317l37.078-0.031c0.03-2.156-0.002-27.286-0.002-27.286
		c0-4.022-3.273-7.298-7.296-7.298h-22.485C307.861,246.04,304.587,249.313,304.587,253.338z M333.629,261.112h-20.009l10.206-9.986
		L333.629,261.112z"/>
	<g>
		<g>
			<path fill="#FFFFFF" d="M-560.627,248.671c-0.076-0.096,0.035-0.305,0.248-0.51c0.322-0.311,2.537-2.537,3.422-3.422
				c0.223-0.223,0.975-0.674,1.713,0.35c0.893,1.24,0.088,1.85,0,1.885c-1.18,0.465-4.889,1.682-4.889,1.682
				S-560.527,248.796-560.627,248.671z"/>
			<rect x="-657.648" y="244.134" fill="#FFFFFF" width="5.109" height="17.102"/>
			<path fill="#FFFFFF" d="M-639.422,253.411c-0.107-2.168-1.435-4.514-6.338-4.574c-3.645-0.047-4.761,1.779-5.104,2.846
				c-0.08,0.182-0.123,0.381-0.141,0.588c-0.014,0.101-0.016,0.158-0.016,0.158c0,1.025,0.817,1.859,1.826,1.859
				c1.008,0,1.825-0.834,1.825-1.859c0-0.439-0.155-0.836-0.405-1.154h0.002c0,0-0.683-0.897,1.563-0.707
				c1.805,0.154,2.033,2.09,2.054,2.845h-0.002v2.286c-0.808-0.668-1.944-1.09-3.211-1.09c-2.446,0-4.429,1.549-4.429,3.463
				c0,1.912,1.982,3.464,4.429,3.464c1.267,0,2.403-0.423,3.211-1.091v0.791h4.745v-7.823L-639.422,253.411L-639.422,253.411z
				 M-647.368,260.507c-1.349,0-2.441-1.018-2.441-2.275c0-1.256,1.093-2.276,2.441-2.276c1.348,0,2.44,1.021,2.44,2.276
				C-644.928,259.489-646.02,260.507-647.368,260.507z"/>
			<path fill="#FFFFFF" d="M-624.342,249.478c-3.941,0-7.139,2.814-7.139,6.285s3.197,6.285,7.139,6.285
				c3.943,0,7.141-2.814,7.141-6.285S-620.398,249.478-624.342,249.478z M-624.342,260.679c-1.795,0-3.25-2.201-3.25-4.916
				s1.455-4.918,3.25-4.918c1.795,0,3.25,2.203,3.25,4.918S-622.547,260.679-624.342,260.679z"/>
			<path fill="#FFFFFF" d="M-558.139,249.478c-3.943,0-7.141,2.814-7.141,6.285s3.197,6.285,7.141,6.285
				c3.941,0,7.139-2.814,7.139-6.285S-554.197,249.478-558.139,249.478z M-558.139,260.679c-1.795,0-3.25-2.201-3.25-4.916
				s1.455-4.918,3.25-4.918c1.793,0,3.248,2.203,3.248,4.918S-556.346,260.679-558.139,260.679z"/>
			<path fill="#FFFFFF" d="M-605.938,249.647c-1.654,0-3.172,0.496-4.381,1.32v-2.003h-5.9v22.701h5.9v-10.94
				c1.209,0.826,2.727,1.321,4.381,1.321c3.932,0,7.119-2.774,7.119-6.2C-598.818,252.423-602.006,249.647-605.938,249.647z
				 M-608.139,260.507c-0.82,0-1.57-0.346-2.18-0.908v-7.074c0.609-0.563,1.359-0.907,2.18-0.907c2.008,0,3.635,1.989,3.635,4.444
				S-606.131,260.507-608.139,260.507z"/>
			<rect x="-598.092" y="249.093" fill="#FFFFFF" width="5.516" height="12.014"/>
			<path fill="#FFFFFF" d="M-592.512,245.374c0.512,1.232-0.707,2.166-2.334,2.76c-1.84,0.67-3.289,0.197-3.523-0.564
				c-0.213-0.692,0.529-1.844,2.229-2.596C-594.557,244.271-592.951,244.315-592.512,245.374z"/>
			<rect x="-571.926" y="249.093" fill="#FFFFFF" width="5.516" height="12.014"/>
			<path fill="#FFFFFF" d="M-566.348,245.374c0.512,1.232-0.705,2.166-2.334,2.76c-1.84,0.67-3.289,0.197-3.523-0.564
				c-0.213-0.692,0.529-1.844,2.229-2.596C-568.391,244.271-566.785,244.315-566.348,245.374z"/>
			<path fill="#FFFFFF" d="M-574.498,252.401c-0.178-2.236-2.42-2.371-5.125-2.41c-2.262-0.035-4.826,1.146-5.855,1.672v-2.57
				h-5.516v12.014h5.516v-7.396c0.596-0.597,1.711-1.515,3.076-1.668c2.096-0.233,2.367,1.687,2.396,2.418v6.646h5.514v-8.705
				H-574.498L-574.498,252.401z"/>
			<path fill="#FFFFFF" d="M-533.135,252.401c-0.178-2.236-2.42-2.371-5.125-2.41c-2.262-0.035-4.826,1.146-5.857,1.672v-2.57
				h-5.514v12.014h5.514v-7.396c0.596-0.597,1.713-1.515,3.078-1.668c2.096-0.233,2.367,1.687,2.396,2.418v6.646h5.514v-8.705
				H-533.135L-533.135,252.401z"/>
		</g>
	</g>
</g>
<g id="TXT">
	<rect x="-643.333" y="-5061.669" fill="none" width="266.667" height="80"/>
	<text transform="matrix(1 0 0 1 -643.333 -5044.6299)" fill="#FFFFFF" font-family="'PTSans-NarrowBold'" font-size="24">El drama de una joven que </text>
	<text transform="matrix(1 0 0 1 -643.333 -5015.8291)" fill="#FFFFFF" font-family="'PTSans-NarrowBold'" font-size="24">tuvo que cambiar su vida </text>
	<text transform="matrix(1 0 0 1 -643.333 -4987.0293)" fill="#FFFFFF" font-family="'PTSans-NarrowBold'" font-size="24">para seguir estudiando en </text>
	<rect x="53.667" y="-5061.669" fill="none" width="266.667" height="86.5"/>
	<text transform="matrix(1 0 0 1 53.6675 -5044.6299)" fill="#FFFFFF" font-family="'PTSans-NarrowBold'" font-size="24">La mujer protagonista de </text>
	<text transform="matrix(1 0 0 1 53.6675 -5015.8291)" fill="#FFFFFF" font-family="'PTSans-NarrowBold'" font-size="24">la foto viral q ha sido </text>
	<text transform="matrix(1 0 0 1 53.6675 -4987.0293)" fill="#FFFFFF" font-family="'PTSans-NarrowBold'" font-size="24">hostigada por la guardia </text>
	<rect x="-621.333" y="-3037.669" fill="none" width="420.667" height="55.5"/>
	<text transform="matrix(1 0 0 1 -621.333 -3020.6299)" fill="#FFFFFF" font-family="'PTSans-NarrowBold'" font-size="24">La mujer protagonista de la foto viral q ha </text>
	<text transform="matrix(1 0 0 1 -621.333 -2991.8291)" fill="#FFFFFF" font-family="'PTSans-NarrowBold'" font-size="24">sido hostigada por la guardia venezolana</text>
	<rect x="-120.445" y="-3041.015" fill="none" width="420.667" height="55.5"/>
	<text transform="matrix(1 0 0 1 -120.4453 -3023.9756)" fill="#FFFFFF" font-family="'PTSans-NarrowBold'" font-size="24">La mujer protagonista de la foto viral q ha </text>
	<text transform="matrix(1 0 0 1 -120.4453 -2995.1748)" fill="#FFFFFF" font-family="'PTSans-NarrowBold'" font-size="24">sido hostigada por la guardia venezolana</text>
	<rect x="-291.333" y="-5221.669" fill="none" width="266.667" height="80"/>
	<text transform="matrix(1 0 0 1 -291.333 -5204.6299)" fill="#FFFFFF" font-family="'PTSans-NarrowBold'" font-size="24">La mujer que le regalaron </text>
	<text transform="matrix(1 0 0 1 -291.333 -5175.8291)" fill="#FFFFFF" font-family="'PTSans-NarrowBold'" font-size="24">la casa por ayudar </text>
	<text transform="matrix(1 0 0 1 -291.333 -5147.0293)" fill="#FFFFFF" font-family="'PTSans-NarrowBold'" font-size="24">voluntariamente a los </text>
	<rect x="-657.314" y="-1677.388" fill="none" width="998.63" height="114.498"/>
	<text transform="matrix(1 0 0 1 -624.792 -1641.8877)" fill="#DBCCBA" font-family="'PTSans-NarrowBold'" font-size="50">“La mujer que le regalaron la casa por ayudar </text>
	<text transform="matrix(1 0 0 1 -518.769 -1581.8877)" fill="#DBCCBA" font-family="'PTSans-NarrowBold'" font-size="50">voluntariamente a los deportados”</text>
	<rect x="-291.333" y="-5116.669" fill="none" width="266.667" height="60"/>
	<text transform="matrix(1 0 0 1 -291.333 -5103.8896)" fill="#FFFFFF" font-family="'PTSans-Narrow'" font-size="18">El drama de una joven que tuvo </text>
	<text transform="matrix(1 0 0 1 -291.333 -5082.2891)" fill="#FFFFFF" font-family="'PTSans-Narrow'" font-size="18">que cambiar su vida para seguir </text>
	<text transform="matrix(1 0 0 1 -291.333 -5060.6904)" fill="#FFFFFF" font-family="'PTSans-Narrow'" font-size="18">estudiando en Cúcuta</text>
	<rect x="-601.333" y="-4846.669" fill="none" width="886.667" height="23"/>
	<text transform="matrix(1 0 0 1 -601.333 -4829.6299)" fill="#FFFFFF" font-family="'PTSans-NarrowBold'" font-size="24">La mujer que le regalaron la casa por ayudar voluntariamente a los deportados </text>
	<rect x="-600.333" y="-4791.669" fill="none" width="884.667" height="60"/>
	<text transform="matrix(1 0 0 1 -600.333 -4778.8896)" fill="#FFFFFF" font-family="'PTSans-Narrow'" font-size="18">El drama de una joven que tuvo que cambiar su vida para seguir estudiando en Cúcuta sumario con texto fálso, el </text>
	<text transform="matrix(1 0 0 1 -600.333 -4757.2891)" fill="#FFFFFF" font-family="'PTSans-Narrow'" font-size="18">drama de una joven que tuvo que cambiar su vida para seguir estudiando en Cúcuta sumario con texto fálso, el drama </text>
	<text transform="matrix(1 0 0 1 -600.333 -4735.6904)" fill="#FFFFFF" font-family="'PTSans-Narrow'" font-size="18">de una joven que tuvo que cambiar su vida para seguir estudiando en Cúcuta sumario con texto fálso el drama de una </text>
	<text transform="matrix(1 0 0 1 227.1753 -1403.5986)" fill="#9E9790" font-family="'PTSans-NarrowBold'" font-size="60">2015</text>
	<text transform="matrix(1 0 0 1 -655.7212 -1403.5986)" fill="#9E9790" font-family="'PTSans-Italic'" font-size="60">Juan Manuel Santos</text>
	<rect x="-526.437" y="-101.997" fill="none" width="251.211" height="11.795"/>
	<text transform="matrix(1 0 0 1 -526.4365 -94.1885)" fill="#9E9790" font-family="'PTSans-Regular'" font-size="11">-  Todos los Derechos Reservados.</text>
	<rect x="303.102" y="-88.661" fill="none" width="39.715" height="8.295"/>
	<text transform="matrix(1 0 0 1 308.6987 -81.5615)" fill="#493E3A" font-family="'PTSans-Caption'" font-size="10">Creditos</text>
	<rect x="7.659" y="25.519" fill="none" width="30.627" height="7.295"/>
	<text transform="matrix(1 0 0 1 8.7129 32.6182)" fill="#303841" font-family="'PTSans-Caption'" font-size="10">Creditos</text>
	<rect x="-526.437" y="252.003" fill="none" width="251.211" height="11.795"/>
	<text transform="matrix(1 0 0 1 -526.4365 259.8115)" fill="#9E9790" font-family="'PTSans-Regular'" font-size="11">-  Todos los Derechos Reservados.</text>
	<rect x="-284.437" y="445.337" fill="none" width="251.211" height="11.795"/>
	<text transform="matrix(1 0 0 1 -199.167 453.1455)" fill="#9E9790" font-family="'PTSans-Regular'" font-size="11">La Opinión - 2016</text>
	<rect x="-526.437" y="311.304" fill="none" width="117.544" height="113.781"/>
	<text transform="matrix(1 0 0 1 -526.4365 322.6631)" fill="#DBCCBA" font-family="'PTSans-Bold'" font-size="16">Coordinación</text>
	<text transform="matrix(1 0 0 1 -526.4365 344.6631)" fill="#9E9790" font-family="'PTSans-Regular'" font-size="14">-  Nombre Apellido</text>
	<text transform="matrix(1 0 0 1 -526.4365 358.6631)" fill="#9E9790" font-family="'PTSans-Regular'" font-size="14">-  Nombre Apellido</text>
	<text transform="matrix(1 0 0 1 -526.4365 383.6631)" fill="#DBCCBA" font-family="'PTSans-Bold'" font-size="16">Concepto</text>
	<text transform="matrix(1 0 0 1 -526.4365 405.6631)" fill="#9E9790" font-family="'PTSans-Regular'" font-size="14">-  Nombre Apellido</text>
	<text transform="matrix(1 0 0 1 -526.4365 419.6631)" fill="#9E9790" font-family="'PTSans-Regular'" font-size="14">-  Nombre Apellido</text>
	<rect x="-217.437" y="311.304" fill="none" width="117.544" height="118.781"/>
	<text transform="matrix(1 0 0 1 -217.4365 322.6631)" fill="#DBCCBA" font-family="'PTSans-Bold'" font-size="16">Reporteros</text>
	<text transform="matrix(1 0 0 1 -217.4365 344.6631)" fill="#9E9790" font-family="'PTSans-Regular'" font-size="14">-  Nombre Apellido</text>
	<text transform="matrix(1 0 0 1 -217.4365 358.6631)" fill="#9E9790" font-family="'PTSans-Regular'" font-size="14">-  Nombre Apellido</text>
	<text transform="matrix(1 0 0 1 -217.4365 372.6631)" fill="#9E9790" font-family="'PTSans-Regular'" font-size="14">-  Nombre Apellido</text>
	<text transform="matrix(1 0 0 1 -217.4365 386.6631)" fill="#9E9790" font-family="'PTSans-Regular'" font-size="14">-  Nombre Apellido</text>
	<text transform="matrix(1 0 0 1 -217.4365 400.6631)" fill="#9E9790" font-family="'PTSans-Regular'" font-size="14">-  Nombre Apellido</text>
	<text transform="matrix(1 0 0 1 -217.4365 414.6631)" fill="#9E9790" font-family="'PTSans-Regular'" font-size="14">-  Nombre Apellido</text>
	<rect x="98.563" y="311.304" fill="none" width="131.544" height="144.781"/>
	<text transform="matrix(1 0 0 1 98.564 322.6631)" fill="#DBCCBA" font-family="'PTSans-Bold'" font-size="16">Desarrollo Web</text>
	<text transform="matrix(1 0 0 1 98.564 344.6631)" fill="#9E9790" font-family="'PTSans-Regular'" font-size="14">-  Jonathan Miranda</text>
	<text transform="matrix(1 0 0 1 98.564 358.6631)" fill="#9E9790" font-family="'PTSans-Regular'" font-size="14">-  John Serrano</text>
	<text transform="matrix(1 0 0 1 98.564 383.6631)" fill="#DBCCBA" font-family="'PTSans-Bold'" font-size="16">Diseño</text>
	<text transform="matrix(1 0 0 1 98.564 405.6631)" fill="#9E9790" font-family="'PTSans-Regular'" font-size="14">-  Roberto Insignares</text>
	<rect x="303.102" y="265.339" fill="none" width="39.715" height="8.295"/>
	<text transform="matrix(1 0 0 1 308.6987 272.4385)" fill="#493E3A" font-family="'PTSans-Caption'" font-size="10">Creditos</text>
	<rect x="-457.334" y="269.999" fill="#9E9790" width="4" height="41"/>
</g>
<g id="Guia">
</g>
</svg>
