<?xml version="1.0" encoding="utf-8"?>
<!-- Generator: Adobe Illustrator 16.0.0, SVG Export Plug-In . SVG Version: 6.00 Build 0)  -->
<!DOCTYPE svg PUBLIC "-//W3C//DTD SVG 1.1//EN" "http://www.w3.org/Graphics/SVG/1.1/DTD/svg11.dtd">
<svg version="1.1" xmlns="http://www.w3.org/2000/svg" xmlns:xlink="http://www.w3.org/1999/xlink" x="0px" y="0px"
	 width="40.669px" height="31.669px" viewBox="0 0 40.669 31.669" enable-background="new 0 0 40.669 31.669" xml:space="preserve">
<g id="Soporte">
</g>
<g id="Vectores">
</g>
<g id="Imagenes">
</g>
<g id="Iconos">
	<g>
		<linearGradient id="SVGID_1_" gradientUnits="userSpaceOnUse" x1="5.0024" y1="16.335" x2="37.0024" y2="16.335">
			<stop  offset="0.0052" style="stop-color:#FCFCFC"/>
			<stop  offset="1" style="stop-color:#E8ECF1"/>
		</linearGradient>
		<path fill="url(#SVGID_1_)" d="M37.002,24.335c0,1.656-1.343,3-3,3h-26c-1.657,0-3-1.344-3-3v-16c0-1.656,1.343-3,3-3h26
			c1.657,0,3,1.344,3,3V24.335z"/>
		<path fill="#303841" d="M35.536,23.598c0,1.475-1.197,2.67-2.674,2.67H9.428c-1.477,0-2.674-1.195-2.674-2.67V9.114
			c0-1.475,1.197-2.671,2.674-2.671h23.434c1.477,0,2.674,1.196,2.674,2.671V23.598z"/>
		<linearGradient id="SVGID_3_" gradientUnits="userSpaceOnUse" x1="18.1206" y1="21.7256" x2="35.3774" y2="21.7256">
			<stop  offset="0.0052" style="stop-color:#FCFCFC"/>
			<stop  offset="1" style="stop-color:#E8ECF1"/>
		</linearGradient>
		<path fill="url(#SVGID_3_)" d="M18.121,26.434c0,0,1.109-10.126,10.828-9.407c2.004,0.148,4.833,2.019,6.429,7.657
			c0,0-0.563,1.727-2.604,1.764C30.73,26.484,18.121,26.434,18.121,26.434z"/>
		<linearGradient id="SVGID_5_" gradientUnits="userSpaceOnUse" x1="6.6626" y1="19.1729" x2="24.0034" y2="19.1729">
			<stop  offset="0.0052" style="stop-color:#FCFCFC"/>
			<stop  offset="1" style="stop-color:#E8ECF1"/>
		</linearGradient>
		<path fill="url(#SVGID_5_)" d="M24.003,17.119c0,0-4.723-5.1-9.217-5.285c-4.492-0.186-8.124,8.237-8.124,9.165v3.412
			c0,0,0.173,2.055,3.255,2.092s7.566-0.037,7.566-0.037S17.728,19.345,24.003,17.119z"/>
		<linearGradient id="SVGID_7_" gradientUnits="userSpaceOnUse" x1="26.7925" y1="11.0908" x2="29.7651" y2="11.0908">
			<stop  offset="0.0052" style="stop-color:#FCFCFC"/>
			<stop  offset="1" style="stop-color:#E8ECF1"/>
		</linearGradient>
		<circle fill="url(#SVGID_7_)" cx="28.279" cy="11.092" r="1.486"/>
	</g>
</g>
<g id="TXT">
</g>
<g id="Guia">
</g>
</svg>
