<?xml version="1.0" encoding="utf-8"?>
<!-- Generator: Adobe Illustrator 16.0.0, SVG Export Plug-In . SVG Version: 6.00 Build 0)  -->
<!DOCTYPE svg PUBLIC "-//W3C//DTD SVG 1.1//EN" "http://www.w3.org/Graphics/SVG/1.1/DTD/svg11.dtd">
<svg version="1.1" id="Capa_1" xmlns="http://www.w3.org/2000/svg" xmlns:xlink="http://www.w3.org/1999/xlink" x="0px" y="0px"
	 width="334px" height="114.611px" viewBox="0 0 334 114.611" enable-background="new 0 0 334 114.611" xml:space="preserve">
<rect x="-1931" y="-3703" fill="#DBCCBA" width="1600" height="780"/>
<rect x="-1931" y="-1879" fill="#DBCCBA" width="1600" height="780"/>
<rect x="-1931" y="-1099" fill="#DBCCBA" width="1600" height="780"/>
<rect x="-1931" y="-319.006" fill="#493E3A" width="1600" height="779.999"/>
<rect x="-1931" y="1569.169" fill="#493E3A" width="1600" height="47.5"/>
<rect x="-1931" y="1923.167" fill="#493E3A" width="1600" height="234.5"/>
<path fill="#493E3A" d="M-2052,148c0,4.418-3.582,8-8,8h-98c-4.418,0-8-3.582-8-8V50c0-4.418,3.582-8,8-8h98c4.418,0,8,3.582,8,8
	V148z"/>
<polygon fill="#DBCCBA" points="-1806.609,71.313 -1806.609,114.613 -1843.703,92.963 -1881,71.313 -1843.805,49.662 
	-1806.609,28.012 "/>
<polygon fill="#FFFFFF" points="115.391,57.5 115.391,100.801 78.297,79.15 41,57.5 78.195,35.85 115.391,14.198 "/>
<polygon fill="#DBCCBA" points="-455.071,71.312 -455.071,28.011 -417.978,49.661 -380.681,71.312 -417.876,92.962 
	-455.071,114.612 "/>
<polygon fill="#FFFFFF" points="209.929,57.5 209.929,14.198 247.022,35.85 284.319,57.5 247.124,79.15 209.929,100.801 "/>
<rect x="-1452" y="13" fill="#493E3A" width="82" height="273"/>
<rect x="-1202" y="-319" fill="#493E3A" width="72" height="309"/>
<rect x="-1228" y="298" fill="#493E3A" width="26" height="162.999"/>
<rect x="-1246" y="115" fill="#493E3A" width="54" height="129"/>
<rect x="-1600" y="0" fill="#493E3A" width="938" height="115"/>
<g id="Vectores">
	<rect x="-1631" y="-3618" fill="#493E3A" width="302" height="360"/>
	<rect x="-1283" y="-3618" fill="#493E3A" width="302" height="360"/>
	<rect x="-1616" y="-1756" fill="#493E3A" width="464" height="488"/>
	<rect x="-1115" y="-1758" fill="#493E3A" width="464" height="488"/>
	<rect x="-1631" y="-3181" fill="#493E3A" width="999" height="167"/>
	<rect x="-934" y="-3618" fill="#493E3A" width="302" height="360"/>
	
		<line fill="none" stroke="#DBCCBA" stroke-width="5" stroke-linecap="round" stroke-miterlimit="10" stroke-dasharray="2,20" x1="-1806.877" y1="71.467" x2="-453.944" y2="72"/>
</g>
<g id="Imagenes">
	<rect x="-1631.87" y="-5105.809" fill="none" width="1000.45" height="145.493"/>
	<text transform="matrix(1 0 0 1 -1631.8708 -5097.29)" font-family="'MyriadPro-Regular'" font-size="12">fdafdafdasfdsafdsafdasfdafdafda</text>
	<rect x="-1931" y="-2923" opacity="0.3" enable-background="new    " width="1600" height="1045"/>
	<rect x="1608" y="-2818" opacity="0.3" enable-background="new    " width="533" height="454"/>
	<rect x="541" y="-2364" opacity="0.3" enable-background="new    " width="533" height="454"/>
	<rect x="1074" y="-2364" opacity="0.3" enable-background="new    " width="534" height="454"/>
	<rect x="1608" y="-2364" opacity="0.3" enable-background="new    " width="533" height="454"/>
</g>
<g id="Iconos">
	<g>
		<path fill="#DBCCBA" d="M-719.279,1605.594h-9.518c-3.643,0-6.622-2.979-6.622-6.621v-10.144c0-3.642,2.979-6.62,6.622-6.62h9.518
			c3.643,0,6.622,2.979,6.622,6.62v10.144C-712.657,1602.614-715.637,1605.594-719.279,1605.594 M-719.279,1603.845
			c1.294,0,2.516-0.51,3.44-1.434c0.923-0.924,1.432-2.146,1.432-3.438v-10.144c0-1.293-0.509-2.516-1.432-3.438
			c-0.926-0.923-2.146-1.432-3.44-1.432h-9.518c-1.295,0-2.518,0.509-3.44,1.432c-0.923,0.924-1.432,2.146-1.432,3.438v10.144
			c0,1.294,0.509,2.516,1.432,3.438c0.924,0.924,2.146,1.434,3.44,1.434H-719.279z"/>
		<path fill="#DBCCBA" d="M-717.735,1593.812c0,3.461-2.806,6.268-6.268,6.268s-6.269-2.807-6.269-6.268
			c0-3.462,2.807-6.27,6.269-6.27S-717.735,1590.35-717.735,1593.812 M-724.032,1589.711c-2.268,0-4.105,1.839-4.105,4.104
			c0,2.268,1.839,4.104,4.105,4.104s4.104-1.837,4.104-4.104C-719.929,1591.55-721.766,1589.711-724.032,1589.711"/>
		<path fill="#DBCCBA" d="M-716.15,1587.446c0,0.818-0.665,1.484-1.484,1.484c-0.818,0-1.482-0.666-1.482-1.484
			s0.664-1.484,1.482-1.484C-716.815,1585.961-716.15,1586.626-716.15,1587.446"/>
	</g>
	<path fill="#DBCCBA" d="M-780.765,1582.001h-15.132c-2.389,0-4.333,1.944-4.333,4.332v15.135c0,2.389,1.944,4.332,4.333,4.332
		h6.941v-9.841h-2.034v-3.395h2.034v-2.036c0-2.768,1.148-4.413,4.413-4.413h2.717v3.394h-1.697c-1.271,0-1.355,0.475-1.355,1.356
		l-0.006,1.699h3.077l-0.358,3.395h-2.719v9.841h4.119c2.39,0,4.334-1.943,4.334-4.332v-15.135
		C-776.431,1583.946-778.376,1582.001-780.765,1582.001z"/>
	<path fill="#DBCCBA" d="M-748.015,1582.001h-15.132c-2.389,0-4.333,1.944-4.333,4.332v15.135c0,2.389,1.944,4.332,4.333,4.332
		h15.132c2.39,0,4.334-1.943,4.334-4.332v-15.135C-743.681,1583.946-745.626,1582.001-748.015,1582.001z M-749.226,1590.642
		c0.006,0.141,0.009,0.283,0.009,0.426c0,4.332-3.296,9.328-9.326,9.328c-1.854,0-3.576-0.544-5.026-1.474
		c0.257,0.029,0.518,0.045,0.782,0.045c1.536,0,2.95-0.523,4.071-1.401c-1.436-0.027-2.646-0.975-3.063-2.277
		c0.2,0.037,0.405,0.058,0.617,0.058c0.299,0,0.588-0.038,0.862-0.113c-1.499-0.301-2.631-1.626-2.631-3.216
		c0-0.013,0-0.027,0.001-0.04c0.441,0.246,0.946,0.393,1.484,0.41c-0.88-0.589-1.458-1.592-1.458-2.729
		c0-0.6,0.162-1.162,0.444-1.646c1.614,1.982,4.031,3.29,6.757,3.425c-0.057-0.239-0.085-0.49-0.085-0.747
		c0-1.81,1.468-3.279,3.277-3.279c0.943,0,1.797,0.399,2.395,1.037c0.747-0.146,1.448-0.42,2.083-0.797
		c-0.246,0.77-0.767,1.409-1.443,1.813c0.664-0.077,1.295-0.255,1.884-0.516C-748.03,1589.603-748.586,1590.181-749.226,1590.642z"
		/>
	<path fill="#DBCCBA" d="M-683.531,1582.001h-15.132c-2.39,0-4.333,1.944-4.333,4.332v15.135c0,2.389,1.943,4.332,4.333,4.332
		h15.132c2.389,0,4.334-1.943,4.334-4.332v-15.135C-679.197,1583.946-681.143,1582.001-683.531,1582.001z M-694.067,1599.841
		v-11.881l8.94,5.939L-694.067,1599.841z"/>
	<path fill="#DBCCBA" d="M-668.079,1589.339c0,0-0.016,24.349,0.001,27.316l37.078-0.031c0.03-2.155-0.001-27.285-0.001-27.285
		c0-4.023-3.274-7.299-7.296-7.299h-22.486C-664.805,1582.04-668.079,1585.315-668.079,1589.339z M-639.037,1597.114h-20.008
		l10.206-9.987L-639.037,1597.114z"/>
	<path fill="#DBCCBA" d="M-965.603,1701.695c0,0-0.015,24.35,0.001,27.317l37.078-0.031c0.031-2.156-0.001-27.286-0.001-27.286
		c0-4.022-3.273-7.298-7.296-7.298h-22.486C-962.328,1694.397-965.603,1697.672-965.603,1701.695z M-936.561,1709.471h-20.008
		l10.206-9.987L-936.561,1709.471z"/>
	<g>
		<g>
			<path fill="#DBCCBA" d="M-1533.293,1584.672c-0.076-0.097,0.035-0.306,0.248-0.511c0.321-0.311,2.537-2.537,3.422-3.422
				c0.223-0.223,0.975-0.674,1.713,0.351c0.893,1.239,0.088,1.85,0,1.885c-1.18,0.465-4.889,1.682-4.889,1.682
				S-1533.193,1584.797-1533.293,1584.672z"/>
			<rect x="-1630.314" y="1580.135" fill="#DBCCBA" width="5.109" height="17.102"/>
			<path fill="#DBCCBA" d="M-1612.088,1589.411c-0.107-2.168-1.436-4.514-6.339-4.573c-3.645-0.048-4.761,1.778-5.104,2.846
				c-0.08,0.182-0.123,0.381-0.141,0.588c-0.015,0.1-0.017,0.158-0.017,0.158c0,1.024,0.817,1.858,1.826,1.858
				c1.008,0,1.825-0.834,1.825-1.858c0-0.439-0.155-0.836-0.405-1.154h0.002c0,0-0.683-0.897,1.563-0.707
				c1.805,0.154,2.032,2.09,2.054,2.844h-0.002v2.287c-0.809-0.668-1.944-1.09-3.211-1.09c-2.446,0-4.43,1.549-4.43,3.463
				c0,1.912,1.982,3.463,4.43,3.463c1.267,0,2.402-0.422,3.211-1.09v0.791h4.745v-7.824L-1612.088,1589.411L-1612.088,1589.411z
				 M-1620.034,1596.508c-1.35,0-2.441-1.019-2.441-2.275s1.093-2.276,2.441-2.276c1.348,0,2.439,1.02,2.439,2.276
				S-1618.686,1596.508-1620.034,1596.508z"/>
			<path fill="#DBCCBA" d="M-1597.009,1585.479c-3.94,0-7.139,2.813-7.139,6.285c0,3.471,3.197,6.285,7.139,6.285
				c3.943,0,7.142-2.814,7.142-6.285C-1589.867,1588.292-1593.064,1585.479-1597.009,1585.479z M-1597.009,1596.68
				c-1.795,0-3.25-2.201-3.25-4.916s1.455-4.918,3.25-4.918c1.796,0,3.25,2.203,3.25,4.918S-1595.213,1596.68-1597.009,1596.68z"/>
			<path fill="#DBCCBA" d="M-1530.805,1585.479c-3.942,0-7.141,2.813-7.141,6.285c0,3.471,3.197,6.285,7.141,6.285
				c3.941,0,7.14-2.814,7.14-6.285C-1523.666,1588.292-1526.863,1585.479-1530.805,1585.479z M-1530.805,1596.68
				c-1.795,0-3.25-2.201-3.25-4.916s1.455-4.918,3.25-4.918c1.793,0,3.248,2.203,3.248,4.918S-1529.012,1596.68-1530.805,1596.68z"
				/>
			<path fill="#DBCCBA" d="M-1578.604,1585.648c-1.654,0-3.172,0.496-4.381,1.32v-2.002h-5.9v22.701h5.9v-10.941
				c1.209,0.826,2.728,1.322,4.381,1.322c3.933,0,7.119-2.775,7.119-6.201C-1571.484,1588.424-1574.672,1585.648-1578.604,1585.648z
				 M-1580.805,1596.508c-0.819,0-1.569-0.347-2.18-0.908v-7.074c0.609-0.563,1.359-0.907,2.18-0.907
				c2.009,0,3.636,1.989,3.636,4.444S-1578.797,1596.508-1580.805,1596.508z"/>
			<rect x="-1570.759" y="1585.094" fill="#DBCCBA" width="5.517" height="12.014"/>
			<path fill="#DBCCBA" d="M-1565.178,1581.374c0.513,1.232-0.707,2.166-2.334,2.761c-1.84,0.67-3.288,0.196-3.522-0.564
				c-0.213-0.692,0.529-1.844,2.229-2.596C-1567.223,1580.271-1565.617,1580.316-1565.178,1581.374z"/>
			<rect x="-1544.593" y="1585.094" fill="#DBCCBA" width="5.517" height="12.014"/>
			<path fill="#DBCCBA" d="M-1539.014,1581.374c0.513,1.232-0.705,2.166-2.334,2.761c-1.84,0.67-3.289,0.196-3.522-0.564
				c-0.213-0.692,0.529-1.844,2.229-2.596C-1541.057,1580.271-1539.451,1580.316-1539.014,1581.374z"/>
			<path fill="#DBCCBA" d="M-1547.164,1588.402c-0.178-2.236-2.42-2.371-5.125-2.41c-2.262-0.035-4.826,1.146-5.855,1.672v-2.569
				h-5.516v12.014h5.516v-7.396c0.597-0.597,1.711-1.515,3.076-1.668c2.096-0.234,2.367,1.686,2.396,2.418v6.646h5.514v-8.705
				L-1547.164,1588.402L-1547.164,1588.402z"/>
			<path fill="#DBCCBA" d="M-1505.802,1588.402c-0.178-2.236-2.42-2.371-5.125-2.41c-2.262-0.035-4.825,1.146-5.856,1.672v-2.569
				h-5.515v12.014h5.515v-7.396c0.596-0.597,1.713-1.515,3.078-1.668c2.096-0.234,2.366,1.686,2.396,2.418v6.646h5.515v-8.705
				L-1505.802,1588.402L-1505.802,1588.402z"/>
		</g>
	</g>
	<g>
		<path fill="#DBCCBA" d="M-719.279,1959.594h-9.518c-3.643,0-6.622-2.979-6.622-6.621v-10.144c0-3.642,2.979-6.62,6.622-6.62h9.518
			c3.643,0,6.622,2.979,6.622,6.62v10.144C-712.657,1956.614-715.637,1959.594-719.279,1959.594 M-719.279,1957.845
			c1.294,0,2.516-0.51,3.44-1.434c0.923-0.924,1.432-2.146,1.432-3.438v-10.144c0-1.293-0.509-2.516-1.432-3.438
			c-0.926-0.923-2.146-1.432-3.44-1.432h-9.518c-1.295,0-2.518,0.509-3.44,1.432c-0.923,0.924-1.432,2.146-1.432,3.438v10.144
			c0,1.294,0.509,2.516,1.432,3.438c0.924,0.924,2.146,1.434,3.44,1.434H-719.279z"/>
		<path fill="#DBCCBA" d="M-717.735,1947.812c0,3.461-2.806,6.268-6.268,6.268s-6.269-2.807-6.269-6.268
			c0-3.462,2.807-6.27,6.269-6.27S-717.735,1944.35-717.735,1947.812 M-724.032,1943.711c-2.268,0-4.105,1.839-4.105,4.104
			c0,2.268,1.839,4.104,4.105,4.104s4.104-1.837,4.104-4.104C-719.929,1945.55-721.766,1943.711-724.032,1943.711"/>
		<path fill="#DBCCBA" d="M-716.15,1941.446c0,0.818-0.665,1.484-1.484,1.484c-0.818,0-1.482-0.666-1.482-1.484
			s0.664-1.484,1.482-1.484C-716.815,1939.961-716.15,1940.626-716.15,1941.446"/>
	</g>
	<path fill="#DBCCBA" d="M-780.765,1936.001h-15.132c-2.389,0-4.333,1.944-4.333,4.332v15.135c0,2.389,1.944,4.332,4.333,4.332
		h6.941v-9.841h-2.034v-3.395h2.034v-2.036c0-2.768,1.148-4.413,4.413-4.413h2.717v3.394h-1.697c-1.271,0-1.355,0.475-1.355,1.356
		l-0.006,1.699h3.077l-0.358,3.395h-2.719v9.841h4.119c2.39,0,4.334-1.943,4.334-4.332v-15.135
		C-776.431,1937.946-778.376,1936.001-780.765,1936.001z"/>
	<path fill="#DBCCBA" d="M-748.015,1936.001h-15.132c-2.389,0-4.333,1.944-4.333,4.332v15.135c0,2.389,1.944,4.332,4.333,4.332
		h15.132c2.39,0,4.334-1.943,4.334-4.332v-15.135C-743.681,1937.946-745.626,1936.001-748.015,1936.001z M-749.226,1944.642
		c0.006,0.141,0.009,0.283,0.009,0.426c0,4.332-3.296,9.328-9.326,9.328c-1.854,0-3.576-0.544-5.026-1.474
		c0.257,0.029,0.518,0.045,0.782,0.045c1.536,0,2.95-0.523,4.071-1.401c-1.436-0.027-2.646-0.975-3.063-2.277
		c0.2,0.037,0.405,0.058,0.617,0.058c0.299,0,0.588-0.038,0.862-0.113c-1.499-0.301-2.631-1.626-2.631-3.216
		c0-0.013,0-0.027,0.001-0.04c0.441,0.246,0.946,0.393,1.484,0.41c-0.88-0.589-1.458-1.592-1.458-2.729
		c0-0.6,0.162-1.162,0.444-1.646c1.614,1.982,4.031,3.29,6.757,3.425c-0.057-0.239-0.085-0.49-0.085-0.747
		c0-1.81,1.468-3.279,3.277-3.279c0.943,0,1.797,0.399,2.395,1.037c0.747-0.146,1.448-0.42,2.083-0.797
		c-0.246,0.77-0.767,1.409-1.443,1.813c0.664-0.077,1.295-0.255,1.884-0.516C-748.03,1943.603-748.586,1944.181-749.226,1944.642z"
		/>
	<path fill="#DBCCBA" d="M-683.531,1936.001h-15.132c-2.39,0-4.333,1.944-4.333,4.332v15.135c0,2.389,1.943,4.332,4.333,4.332
		h15.132c2.389,0,4.334-1.943,4.334-4.332v-15.135C-679.197,1937.946-681.143,1936.001-683.531,1936.001z M-694.067,1953.841
		v-11.881l8.94,5.939L-694.067,1953.841z"/>
	<path fill="#DBCCBA" d="M-668.079,1943.339c0,0-0.016,24.349,0.001,27.316l37.078-0.031c0.03-2.155-0.001-27.285-0.001-27.285
		c0-4.023-3.274-7.299-7.296-7.299h-22.486C-664.805,1936.04-668.079,1939.315-668.079,1943.339z M-639.037,1951.114h-20.008
		l10.206-9.987L-639.037,1951.114z"/>
	<g>
		<g>
			<path fill="#DBCCBA" d="M-1533.293,1938.672c-0.076-0.097,0.035-0.306,0.248-0.511c0.321-0.311,2.537-2.537,3.422-3.422
				c0.223-0.223,0.975-0.674,1.713,0.351c0.893,1.239,0.088,1.85,0,1.885c-1.18,0.465-4.889,1.682-4.889,1.682
				S-1533.193,1938.797-1533.293,1938.672z"/>
			<rect x="-1630.314" y="1934.135" fill="#DBCCBA" width="5.109" height="17.102"/>
			<path fill="#DBCCBA" d="M-1612.088,1943.411c-0.107-2.168-1.436-4.514-6.339-4.573c-3.645-0.048-4.761,1.778-5.104,2.846
				c-0.08,0.182-0.123,0.381-0.141,0.588c-0.015,0.1-0.017,0.158-0.017,0.158c0,1.024,0.817,1.858,1.826,1.858
				c1.008,0,1.825-0.834,1.825-1.858c0-0.439-0.155-0.836-0.405-1.154h0.002c0,0-0.683-0.897,1.563-0.707
				c1.805,0.154,2.032,2.09,2.054,2.844h-0.002v2.287c-0.809-0.668-1.944-1.09-3.211-1.09c-2.446,0-4.43,1.549-4.43,3.463
				c0,1.912,1.982,3.463,4.43,3.463c1.267,0,2.402-0.422,3.211-1.09v0.791h4.745v-7.824L-1612.088,1943.411L-1612.088,1943.411z
				 M-1620.034,1950.508c-1.35,0-2.441-1.019-2.441-2.275s1.093-2.276,2.441-2.276c1.348,0,2.439,1.02,2.439,2.276
				S-1618.686,1950.508-1620.034,1950.508z"/>
			<path fill="#DBCCBA" d="M-1597.009,1939.479c-3.94,0-7.139,2.813-7.139,6.285c0,3.471,3.197,6.285,7.139,6.285
				c3.943,0,7.142-2.814,7.142-6.285C-1589.867,1942.292-1593.064,1939.479-1597.009,1939.479z M-1597.009,1950.68
				c-1.795,0-3.25-2.201-3.25-4.916s1.455-4.918,3.25-4.918c1.796,0,3.25,2.203,3.25,4.918S-1595.213,1950.68-1597.009,1950.68z"/>
			<path fill="#DBCCBA" d="M-1530.805,1939.479c-3.942,0-7.141,2.813-7.141,6.285c0,3.471,3.197,6.285,7.141,6.285
				c3.941,0,7.14-2.814,7.14-6.285C-1523.666,1942.292-1526.863,1939.479-1530.805,1939.479z M-1530.805,1950.68
				c-1.795,0-3.25-2.201-3.25-4.916s1.455-4.918,3.25-4.918c1.793,0,3.248,2.203,3.248,4.918S-1529.012,1950.68-1530.805,1950.68z"
				/>
			<path fill="#DBCCBA" d="M-1578.604,1939.648c-1.654,0-3.172,0.496-4.381,1.32v-2.002h-5.9v22.701h5.9v-10.941
				c1.209,0.826,2.728,1.322,4.381,1.322c3.933,0,7.119-2.775,7.119-6.201C-1571.484,1942.424-1574.672,1939.648-1578.604,1939.648z
				 M-1580.805,1950.508c-0.819,0-1.569-0.347-2.18-0.908v-7.074c0.609-0.563,1.359-0.907,2.18-0.907
				c2.009,0,3.636,1.989,3.636,4.444S-1578.797,1950.508-1580.805,1950.508z"/>
			<rect x="-1570.759" y="1939.094" fill="#DBCCBA" width="5.517" height="12.014"/>
			<path fill="#DBCCBA" d="M-1565.178,1935.374c0.513,1.232-0.707,2.166-2.334,2.761c-1.84,0.67-3.288,0.196-3.522-0.564
				c-0.213-0.692,0.529-1.844,2.229-2.596C-1567.223,1934.271-1565.617,1934.316-1565.178,1935.374z"/>
			<rect x="-1544.593" y="1939.094" fill="#DBCCBA" width="5.517" height="12.014"/>
			<path fill="#DBCCBA" d="M-1539.014,1935.374c0.513,1.232-0.705,2.166-2.334,2.761c-1.84,0.67-3.289,0.196-3.522-0.564
				c-0.213-0.692,0.529-1.844,2.229-2.596C-1541.057,1934.271-1539.451,1934.316-1539.014,1935.374z"/>
			<path fill="#DBCCBA" d="M-1547.164,1942.402c-0.178-2.236-2.42-2.371-5.125-2.41c-2.262-0.035-4.826,1.146-5.855,1.672v-2.569
				h-5.516v12.014h5.516v-7.396c0.597-0.597,1.711-1.515,3.076-1.668c2.096-0.234,2.367,1.686,2.396,2.418v6.646h5.514v-8.705
				L-1547.164,1942.402L-1547.164,1942.402z"/>
			<path fill="#DBCCBA" d="M-1505.802,1942.402c-0.178-2.236-2.42-2.371-5.125-2.41c-2.262-0.035-4.825,1.146-5.856,1.672v-2.569
				h-5.515v12.014h5.515v-7.396c0.596-0.597,1.713-1.515,3.078-1.668c2.096-0.234,2.366,1.686,2.396,2.418v6.646h5.515v-8.705
				L-1505.802,1942.402L-1505.802,1942.402z"/>
		</g>
	</g>
</g>
<g id="TXT">
	<rect x="-1615.999" y="-3371.668" fill="none" width="266.667" height="80"/>
	<text transform="matrix(1 0 0 1 -1615.9998 -3354.6277)" fill="#FFFFFF" font-family="'PTSans-NarrowBold'" font-size="24">El drama de una joven que </text>
	<text transform="matrix(1 0 0 1 -1615.9998 -3325.8289)" fill="#FFFFFF" font-family="'PTSans-NarrowBold'" font-size="24">tuvo que cambiar su vida </text>
	<text transform="matrix(1 0 0 1 -1615.9998 -3297.0281)" fill="#FFFFFF" font-family="'PTSans-NarrowBold'" font-size="24">para seguir estudiando en </text>
	<rect x="-918.999" y="-3371.668" fill="none" width="266.667" height="86.5"/>
	<text transform="matrix(1 0 0 1 -918.9993 -3354.6277)" fill="#FFFFFF" font-family="'PTSans-NarrowBold'" font-size="24">La mujer protagonista de </text>
	<text transform="matrix(1 0 0 1 -918.9993 -3325.8289)" fill="#FFFFFF" font-family="'PTSans-NarrowBold'" font-size="24">la foto viral q ha sido </text>
	<text transform="matrix(1 0 0 1 -918.9993 -3297.0281)" fill="#FFFFFF" font-family="'PTSans-NarrowBold'" font-size="24">hostigada por la guardia </text>
	<rect x="-1593.999" y="-1347.668" fill="none" width="420.667" height="55.5"/>
	<text transform="matrix(1 0 0 1 -1593.9998 -1330.6277)" fill="#FFFFFF" font-family="'PTSans-NarrowBold'" font-size="24">La mujer protagonista de la foto viral q ha </text>
	<text transform="matrix(1 0 0 1 -1593.9998 -1301.8279)" fill="#FFFFFF" font-family="'PTSans-NarrowBold'" font-size="24">sido hostigada por la guardia venezolana</text>
	<rect x="-1093.111" y="-1351.014" fill="none" width="420.667" height="55.5"/>
	<text transform="matrix(1 0 0 1 -1093.1116 -1333.9734)" fill="#FFFFFF" font-family="'PTSans-NarrowBold'" font-size="24">La mujer protagonista de la foto viral q ha </text>
	<text transform="matrix(1 0 0 1 -1093.1116 -1305.1736)" fill="#FFFFFF" font-family="'PTSans-NarrowBold'" font-size="24">sido hostigada por la guardia venezolana</text>
	<rect x="-1263.999" y="-3531.668" fill="none" width="266.667" height="80"/>
	<text transform="matrix(1 0 0 1 -1263.9998 -3514.6277)" fill="#FFFFFF" font-family="'PTSans-NarrowBold'" font-size="24">La mujer que le regalaron </text>
	<text transform="matrix(1 0 0 1 -1263.9998 -3485.8289)" fill="#FFFFFF" font-family="'PTSans-NarrowBold'" font-size="24">la casa por ayudar </text>
	<text transform="matrix(1 0 0 1 -1263.9998 -3457.0281)" fill="#FFFFFF" font-family="'PTSans-NarrowBold'" font-size="24">voluntariamente a los </text>
	<rect x="-1629.98" y="12.613" fill="none" width="998.63" height="114.498"/>
	<text transform="matrix(1 0 0 1 -1597.4587 48.1125)" fill="#DBCCBA" font-family="'PTSans-NarrowBold'" font-size="50">“La mujer que le regalaron la casa por ayudar </text>
	<text transform="matrix(1 0 0 1 -1491.4353 108.1125)" fill="#DBCCBA" font-family="'PTSans-NarrowBold'" font-size="50">voluntariamente a los deportados”</text>
	<rect x="-1263.999" y="-3426.668" fill="none" width="266.667" height="60"/>
	<text transform="matrix(1 0 0 1 -1263.9998 -3413.8875)" fill="#FFFFFF" font-family="'PTSans-Narrow'" font-size="18">El drama de una joven que tuvo </text>
	<text transform="matrix(1 0 0 1 -1263.9998 -3392.2878)" fill="#FFFFFF" font-family="'PTSans-Narrow'" font-size="18">que cambiar su vida para seguir </text>
	<text transform="matrix(1 0 0 1 -1263.9998 -3370.6882)" fill="#FFFFFF" font-family="'PTSans-Narrow'" font-size="18">estudiando en Cúcuta</text>
	<rect x="-1573.999" y="-3156.668" fill="none" width="886.667" height="23"/>
	<text transform="matrix(1 0 0 1 -1573.9998 -3139.6277)" fill="#FFFFFF" font-family="'PTSans-NarrowBold'" font-size="24">La mujer que le regalaron la casa por ayudar voluntariamente a los deportados </text>
	<rect x="-1572.999" y="-3101.668" fill="none" width="884.667" height="60"/>
	<text transform="matrix(1 0 0 1 -1572.9998 -3088.8875)" fill="#FFFFFF" font-family="'PTSans-Narrow'" font-size="18">El drama de una joven que tuvo que cambiar su vida para seguir estudiando en Cúcuta sumario con texto fálso, el </text>
	<text transform="matrix(1 0 0 1 -1572.9998 -3067.2878)" fill="#FFFFFF" font-family="'PTSans-Narrow'" font-size="18">drama de una joven que tuvo que cambiar su vida para seguir estudiando en Cúcuta sumario con texto fálso, el drama </text>
	<text transform="matrix(1 0 0 1 -1572.9998 -3045.6882)" fill="#FFFFFF" font-family="'PTSans-Narrow'" font-size="18">de una joven que tuvo que cambiar su vida para seguir estudiando en Cúcuta sumario con texto fálso el drama de una </text>
	<text transform="matrix(1 0 0 1 -745.4905 286.4016)" fill="#9E9790" font-family="'PTSans-NarrowBold'" font-size="60">2015</text>
	<text transform="matrix(1 0 0 1 -1628.3875 286.4016)" fill="#9E9790" font-family="'PTSans-Italic'" font-size="60">Juan Manuel Santos</text>
	<rect x="-1499.103" y="1588.004" fill="none" width="251.211" height="11.795"/>
	<text transform="matrix(1 0 0 1 -1499.1033 1595.8118)" fill="#9E9790" font-family="'PTSans-Regular'" font-size="11">-  Todos los Derechos Reservados.</text>
	<rect x="-669.564" y="1601.34" fill="none" width="39.715" height="8.295"/>
	<text transform="matrix(1 0 0 1 -663.967 1608.4387)" fill="#493E3A" font-family="'PTSans-Caption'" font-size="10">Creditos</text>
	<rect x="-965.007" y="1715.52" fill="none" width="30.628" height="7.295"/>
	<text transform="matrix(1 0 0 1 -963.9534 1722.6184)" fill="#493E3A" font-family="'PTSans-Caption'" font-size="10">Creditos</text>
	<rect x="-1499.103" y="1942.004" fill="none" width="251.211" height="11.795"/>
	<text transform="matrix(1 0 0 1 -1499.1033 1949.8118)" fill="#9E9790" font-family="'PTSans-Regular'" font-size="11">-  Todos los Derechos Reservados.</text>
	<rect x="-1257.103" y="2135.337" fill="none" width="251.211" height="11.795"/>
	<text transform="matrix(1 0 0 1 -1171.8333 2143.1458)" fill="#9E9790" font-family="'PTSans-Regular'" font-size="11">La Opinión - 2016</text>
	<rect x="-1499.103" y="2001.305" fill="none" width="117.544" height="113.78"/>
	<text transform="matrix(1 0 0 1 -1499.1033 2012.6633)" fill="#DBCCBA" font-family="'PTSans-Bold'" font-size="16">Coordinación</text>
	<text transform="matrix(1 0 0 1 -1499.1033 2034.6633)" fill="#9E9790" font-family="'PTSans-Regular'" font-size="14">-  Nombre Apellido</text>
	<text transform="matrix(1 0 0 1 -1499.1033 2048.6633)" fill="#9E9790" font-family="'PTSans-Regular'" font-size="14">-  Nombre Apellido</text>
	<text transform="matrix(1 0 0 1 -1499.1033 2073.6633)" fill="#DBCCBA" font-family="'PTSans-Bold'" font-size="16">Concepto</text>
	<text transform="matrix(1 0 0 1 -1499.1033 2095.6633)" fill="#9E9790" font-family="'PTSans-Regular'" font-size="14">-  Nombre Apellido</text>
	<text transform="matrix(1 0 0 1 -1499.1033 2109.6633)" fill="#9E9790" font-family="'PTSans-Regular'" font-size="14">-  Nombre Apellido</text>
	<rect x="-1190.103" y="2001.305" fill="none" width="117.544" height="118.78"/>
	<text transform="matrix(1 0 0 1 -1190.1028 2012.6633)" fill="#DBCCBA" font-family="'PTSans-Bold'" font-size="16">Reporteros</text>
	<text transform="matrix(1 0 0 1 -1190.1028 2034.6633)" fill="#9E9790" font-family="'PTSans-Regular'" font-size="14">-  Nombre Apellido</text>
	<text transform="matrix(1 0 0 1 -1190.1028 2048.6633)" fill="#9E9790" font-family="'PTSans-Regular'" font-size="14">-  Nombre Apellido</text>
	<text transform="matrix(1 0 0 1 -1190.1028 2062.6633)" fill="#9E9790" font-family="'PTSans-Regular'" font-size="14">-  Nombre Apellido</text>
	<text transform="matrix(1 0 0 1 -1190.1028 2076.6633)" fill="#9E9790" font-family="'PTSans-Regular'" font-size="14">-  Nombre Apellido</text>
	<text transform="matrix(1 0 0 1 -1190.1028 2090.6633)" fill="#9E9790" font-family="'PTSans-Regular'" font-size="14">-  Nombre Apellido</text>
	<text transform="matrix(1 0 0 1 -1190.1028 2104.6633)" fill="#9E9790" font-family="'PTSans-Regular'" font-size="14">-  Nombre Apellido</text>
	<rect x="-874.103" y="2001.305" fill="none" width="131.544" height="144.78"/>
	<text transform="matrix(1 0 0 1 -874.1028 2012.6633)" fill="#DBCCBA" font-family="'PTSans-Bold'" font-size="16">Desarrollo Web</text>
	<text transform="matrix(1 0 0 1 -874.1028 2034.6633)" fill="#9E9790" font-family="'PTSans-Regular'" font-size="14">-  Jonathan Miranda</text>
	<text transform="matrix(1 0 0 1 -874.1028 2048.6633)" fill="#9E9790" font-family="'PTSans-Regular'" font-size="14">-  John Serrano</text>
	<text transform="matrix(1 0 0 1 -874.1028 2073.6633)" fill="#DBCCBA" font-family="'PTSans-Bold'" font-size="16">Diseño</text>
	<text transform="matrix(1 0 0 1 -874.1028 2095.6633)" fill="#9E9790" font-family="'PTSans-Regular'" font-size="14">-  Roberto Insignares</text>
	<rect x="-669.564" y="1955.34" fill="none" width="39.715" height="8.295"/>
	<text transform="matrix(1 0 0 1 -663.967 1962.4387)" fill="#493E3A" font-family="'PTSans-Caption'" font-size="10">Creditos</text>
	<rect x="-1430" y="1959.999" fill="#9E9790" width="4" height="41"/>
</g>
<g id="Guia" display="none">
</g>
</svg>
