<?xml version="1.0" encoding="utf-8"?>
<!-- Generator: Adobe Illustrator 16.0.0, SVG Export Plug-In . SVG Version: 6.00 Build 0)  -->
<!DOCTYPE svg PUBLIC "-//W3C//DTD SVG 1.1//EN" "http://www.w3.org/Graphics/SVG/1.1/DTD/svg11.dtd">
<svg version="1.1" xmlns="http://www.w3.org/2000/svg" xmlns:xlink="http://www.w3.org/1999/xlink" x="0px" y="0px"
	 width="40.669px" height="31.669px" viewBox="0 0 40.669 31.669" enable-background="new 0 0 40.669 31.669" xml:space="preserve">
<g id="Soporte">
</g>
<g id="Vectores">
</g>
<g id="Imagenes">
</g>
<g id="Iconos">
	<g>
		<linearGradient id="SVGID_1_" gradientUnits="userSpaceOnUse" x1="4.0024" y1="17.335" x2="36.0024" y2="17.335">
			<stop  offset="0.0052" style="stop-color:#FCFCFC"/>
			<stop  offset="1" style="stop-color:#E8ECF1"/>
		</linearGradient>
		<path fill="url(#SVGID_1_)" d="M36.002,25.335c0,1.656-1.344,3-3,3h-26c-1.656,0-3-1.344-3-3v-16c0-1.656,1.344-3,3-3h26
			c1.656,0,3,1.344,3,3V25.335z"/>
		<path fill="#303841" d="M24.308,18.099c0.336-0.73,0.528-1.54,0.528-2.396c0-3.176-2.574-5.75-5.75-5.75s-5.75,2.574-5.75,5.75
			c0,0.932,0.227,1.81,0.62,2.588l5.421,6.787L24.308,18.099z M19.086,13.827c1.035,0,1.875,0.84,1.875,1.875
			s-0.84,1.875-1.875,1.875s-1.875-0.84-1.875-1.875S18.051,13.827,19.086,13.827z"/>
	</g>
</g>
<g id="TXT">
</g>
<g id="Guia">
</g>
</svg>
