<?xml version="1.0" encoding="utf-8"?>
<!-- Generator: Adobe Illustrator 16.0.0, SVG Export Plug-In . SVG Version: 6.00 Build 0)  -->
<!DOCTYPE svg PUBLIC "-//W3C//DTD SVG 1.1//EN" "http://www.w3.org/Graphics/SVG/1.1/DTD/svg11.dtd">
<svg version="1.1" xmlns="http://www.w3.org/2000/svg" xmlns:xlink="http://www.w3.org/1999/xlink" x="0px" y="0px" width="96.67px"
	 height="441.34px" viewBox="0 0 96.67 441.34" enable-background="new 0 0 96.67 441.34" xml:space="preserve">
<g id="Soporte">
</g>
<g id="Vectores">
</g>
<g id="Imagenes">
</g>
<g id="Iconos">
	<g>
		<linearGradient id="SVGID_1_" gradientUnits="userSpaceOnUse" x1="32.0024" y1="108.335" x2="64.0024" y2="108.335">
			<stop  offset="0.0052" style="stop-color:#FCFCFC"/>
			<stop  offset="1" style="stop-color:#E8ECF1"/>
		</linearGradient>
		<path fill="url(#SVGID_1_)" d="M64.002,116.335c0,1.656-1.344,3-3,3h-26c-1.656,0-3-1.344-3-3v-16c0-1.656,1.344-3,3-3h26
			c1.656,0,3,1.344,3,3V116.335z"/>
		<polygon fill="#303841" points="54.986,109.071 49.743,112.166 44.5,115.261 44.5,109.071 44.5,102.884 49.743,105.978 		"/>
	</g>
	<g>
		<linearGradient id="SVGID_3_" gradientUnits="userSpaceOnUse" x1="32.0024" y1="176.335" x2="64.0024" y2="176.335">
			<stop  offset="0.0052" style="stop-color:#FCFCFC"/>
			<stop  offset="1" style="stop-color:#E8ECF1"/>
		</linearGradient>
		<path fill="url(#SVGID_3_)" d="M64.002,184.335c0,1.656-1.343,3-3,3h-26c-1.657,0-3-1.344-3-3v-16c0-1.656,1.343-3,3-3h26
			c1.657,0,3,1.344,3,3V184.335z"/>
		<path fill="#303841" d="M62.536,183.598c0,1.475-1.197,2.67-2.674,2.67H36.428c-1.477,0-2.674-1.195-2.674-2.67v-14.483
			c0-1.475,1.197-2.671,2.674-2.671h23.434c1.477,0,2.674,1.196,2.674,2.671V183.598z"/>
		<linearGradient id="SVGID_5_" gradientUnits="userSpaceOnUse" x1="45.1206" y1="181.7256" x2="62.3774" y2="181.7256">
			<stop  offset="0.0052" style="stop-color:#FCFCFC"/>
			<stop  offset="1" style="stop-color:#E8ECF1"/>
		</linearGradient>
		<path fill="url(#SVGID_5_)" d="M45.121,186.434c0,0,1.109-10.126,10.828-9.407c2.004,0.148,4.833,2.019,6.429,7.657
			c0,0-0.563,1.727-2.604,1.764C57.73,186.484,45.121,186.434,45.121,186.434z"/>
		<linearGradient id="SVGID_7_" gradientUnits="userSpaceOnUse" x1="33.6626" y1="179.1729" x2="51.0034" y2="179.1729">
			<stop  offset="0.0052" style="stop-color:#FCFCFC"/>
			<stop  offset="1" style="stop-color:#E8ECF1"/>
		</linearGradient>
		<path fill="url(#SVGID_7_)" d="M51.003,177.119c0,0-4.723-5.1-9.217-5.285c-4.492-0.186-8.124,8.237-8.124,9.165v3.412
			c0,0,0.173,2.055,3.255,2.092s7.566-0.037,7.566-0.037S44.728,179.345,51.003,177.119z"/>
		<linearGradient id="SVGID_9_" gradientUnits="userSpaceOnUse" x1="53.7925" y1="171.0908" x2="56.7651" y2="171.0908">
			<stop  offset="0.0052" style="stop-color:#FCFCFC"/>
			<stop  offset="1" style="stop-color:#E8ECF1"/>
		</linearGradient>
		<circle fill="url(#SVGID_9_)" cx="55.279" cy="171.092" r="1.486"/>
	</g>
	<g>
		<linearGradient id="SVGID_11_" gradientUnits="userSpaceOnUse" x1="32.0024" y1="244.335" x2="64.0024" y2="244.335">
			<stop  offset="0.0052" style="stop-color:#FCFCFC"/>
			<stop  offset="1" style="stop-color:#E8ECF1"/>
		</linearGradient>
		<path fill="url(#SVGID_11_)" d="M64.002,252.335c0,1.656-1.344,3-3,3h-26c-1.656,0-3-1.344-3-3v-16c0-1.656,1.344-3,3-3h26
			c1.656,0,3,1.344,3,3V252.335z"/>
		<polygon fill="#303841" points="59.669,238.744 52.736,239.544 54.518,241.944 46.745,247.714 45.838,243.511 36.063,249.909 
			36.61,250.745 45.168,245.144 46.094,249.441 55.114,242.747 56.896,245.148 		"/>
	</g>
	<g>
		<linearGradient id="SVGID_13_" gradientUnits="userSpaceOnUse" x1="32.0024" y1="319.335" x2="64.0024" y2="319.335">
			<stop  offset="0.0052" style="stop-color:#FCFCFC"/>
			<stop  offset="1" style="stop-color:#E8ECF1"/>
		</linearGradient>
		<path fill="url(#SVGID_13_)" d="M64.002,327.335c0,1.656-1.344,3-3,3h-26c-1.656,0-3-1.344-3-3v-16c0-1.656,1.344-3,3-3h26
			c1.656,0,3,1.344,3,3V327.335z"/>
		<g>
			<g>
				<path fill="#303841" d="M40.046,314.116c0,0.406-0.124,0.731-0.373,0.977c-0.249,0.244-0.558,0.367-0.928,0.367
					c-0.455,0-0.813-0.164-1.077-0.494c-0.263-0.328-0.394-0.759-0.394-1.291c0-0.546,0.078-1.016,0.235-1.407
					c0.156-0.392,0.35-0.721,0.578-0.987c0.229-0.266,0.461-0.475,0.696-0.629s0.439-0.267,0.611-0.336l0.672,1.07
					c-0.242,0.126-0.459,0.314-0.65,0.566c-0.192,0.252-0.302,0.525-0.33,0.82c0.241,0.027,0.462,0.156,0.66,0.388
					C39.947,313.392,40.046,313.71,40.046,314.116z M43.259,314.116c0,0.406-0.124,0.731-0.373,0.977
					c-0.248,0.244-0.558,0.367-0.928,0.367c-0.455,0-0.813-0.164-1.076-0.494c-0.264-0.328-0.395-0.759-0.395-1.291
					c0-0.546,0.078-1.016,0.235-1.407s0.35-0.721,0.578-0.987c0.229-0.266,0.461-0.475,0.696-0.629
					c0.236-0.154,0.439-0.267,0.611-0.336l0.672,1.07c-0.242,0.126-0.459,0.314-0.65,0.566s-0.302,0.525-0.33,0.82
					c0.241,0.027,0.462,0.156,0.66,0.388C43.16,313.392,43.259,313.71,43.259,314.116z"/>
				<path fill="#303841" d="M42.251,325.729c0-0.518,0.137-0.909,0.409-1.176c0.273-0.266,0.634-0.399,1.082-0.399
					c0.49,0,0.868,0.134,1.134,0.399c0.266,0.267,0.399,0.658,0.399,1.176c0,0.505-0.137,0.896-0.41,1.177
					c-0.272,0.279-0.647,0.42-1.123,0.42c-0.462,0-0.826-0.141-1.092-0.42C42.384,326.625,42.251,326.233,42.251,325.729z"/>
				<path fill="#303841" d="M46.998,325.729c0-0.518,0.137-0.909,0.409-1.176c0.273-0.266,0.634-0.399,1.082-0.399
					c0.49,0,0.868,0.134,1.134,0.399c0.266,0.267,0.399,0.658,0.399,1.176c0,0.505-0.137,0.896-0.41,1.177
					c-0.272,0.279-0.647,0.42-1.123,0.42c-0.462,0-0.826-0.141-1.092-0.42C47.13,326.625,46.998,326.233,46.998,325.729z"/>
				<path fill="#303841" d="M51.743,325.729c0-0.518,0.137-0.909,0.409-1.176c0.273-0.266,0.634-0.399,1.082-0.399
					c0.49,0,0.868,0.134,1.134,0.399c0.266,0.267,0.399,0.658,0.399,1.176c0,0.505-0.137,0.896-0.41,1.177
					c-0.272,0.279-0.647,0.42-1.123,0.42c-0.462,0-0.826-0.141-1.092-0.42C51.875,326.625,51.743,326.233,51.743,325.729z"/>
				<path fill="#303841" d="M53.633,313.569c0-0.405,0.124-0.734,0.373-0.986c0.248-0.252,0.558-0.379,0.928-0.379
					c0.454,0,0.813,0.158,1.076,0.473c0.263,0.315,0.395,0.754,0.395,1.313c0,0.547-0.079,1.008-0.235,1.387
					c-0.157,0.378-0.347,0.696-0.568,0.955c-0.222,0.26-0.453,0.466-0.696,0.619c-0.242,0.154-0.449,0.267-0.621,0.336l-0.63-1.049
					c0.241-0.112,0.455-0.28,0.64-0.504c0.185-0.225,0.292-0.498,0.32-0.82c-0.242-0.014-0.466-0.129-0.672-0.346
					S53.633,314.019,53.633,313.569z M56.846,313.569c0-0.405,0.124-0.734,0.373-0.986c0.248-0.252,0.558-0.379,0.928-0.379
					c0.454,0,0.813,0.158,1.076,0.473c0.264,0.315,0.395,0.754,0.395,1.313c0,0.547-0.078,1.008-0.235,1.387
					c-0.157,0.378-0.347,0.696-0.568,0.955c-0.221,0.26-0.453,0.466-0.696,0.619c-0.242,0.154-0.449,0.267-0.621,0.336l-0.63-1.049
					c0.242-0.112,0.455-0.28,0.64-0.504c0.186-0.225,0.292-0.498,0.32-0.82c-0.242-0.014-0.466-0.129-0.672-0.346
					S56.846,314.019,56.846,313.569z"/>
			</g>
		</g>
	</g>
	<g>
		<linearGradient id="SVGID_15_" gradientUnits="userSpaceOnUse" x1="32.0024" y1="392.335" x2="64.0024" y2="392.335">
			<stop  offset="0.0052" style="stop-color:#FCFCFC"/>
			<stop  offset="1" style="stop-color:#E8ECF1"/>
		</linearGradient>
		<path fill="url(#SVGID_15_)" d="M64.002,400.335c0,1.656-1.344,3-3,3h-26c-1.656,0-3-1.344-3-3v-16c0-1.656,1.344-3,3-3h26
			c1.656,0,3,1.344,3,3V400.335z"/>
		<path fill="#303841" d="M52.308,393.099c0.336-0.73,0.528-1.54,0.528-2.396c0-3.176-2.574-5.75-5.75-5.75s-5.75,2.574-5.75,5.75
			c0,0.932,0.227,1.81,0.62,2.588l5.421,6.787L52.308,393.099z M47.086,388.827c1.035,0,1.875,0.84,1.875,1.875
			s-0.84,1.875-1.875,1.875s-1.875-0.84-1.875-1.875S46.051,388.827,47.086,388.827z"/>
	</g>
	<g>
		<linearGradient id="SVGID_17_" gradientUnits="userSpaceOnUse" x1="32.0024" y1="46.335" x2="64.0024" y2="46.335">
			<stop  offset="0.0052" style="stop-color:#FCFCFC"/>
			<stop  offset="1" style="stop-color:#E8ECF1"/>
		</linearGradient>
		<path fill="url(#SVGID_17_)" d="M64.002,54.335c0,1.656-1.344,3-3,3h-26c-1.656,0-3-1.344-3-3v-16c0-1.656,1.344-3,3-3h26
			c1.656,0,3,1.344,3,3V54.335z"/>
		<path fill="#303841" d="M56.081,38.791c-3.662-2.306-9.169-1.298-16.36,2.974l-1.44-2.217l-2.818,5.525l6.198-0.323l-1.455-2.239
			c6.863-4.073,12.046-5.079,15.401-2.968c5.357,3.37,4.324,13.71,4.313,13.813c-0.026,0.244,0.151,0.463,0.396,0.489
			c0.016,0.001,0.031,0.002,0.047,0.002c0.225,0,0.417-0.169,0.441-0.396C60.851,53.004,61.907,42.459,56.081,38.791z"/>
		<g>
			<g>
				<path fill="#303841" d="M58.502,54.097h-6v-4.996h6V54.097z M52.502,53.098h5V50.1h-5V53.098z"/>
			</g>
		</g>
		<g>
			<g>
				<path fill="#303841" d="M50.502,54.097h-6v-4.996h6V54.097z M44.502,53.098h5V50.1h-5V53.098z"/>
			</g>
		</g>
		<rect x="36.502" y="49.101" fill="#303841" width="6" height="4.996"/>
	</g>
</g>
<g id="TXT">
</g>
<g id="Guia">
</g>
</svg>
