<?xml version="1.0" encoding="utf-8"?>
<!-- Generator: Adobe Illustrator 16.0.0, SVG Export Plug-In . SVG Version: 6.00 Build 0)  -->
<!DOCTYPE svg PUBLIC "-//W3C//DTD SVG 1.1//EN" "http://www.w3.org/Graphics/SVG/1.1/DTD/svg11.dtd">
<svg version="1.1" id="Слой_1" xmlns="http://www.w3.org/2000/svg" xmlns:xlink="http://www.w3.org/1999/xlink" x="0px" y="0px"
	 width="2124.212px" height="841.891px" viewBox="-1425.213 0 2124.212 841.891"
	 enable-background="new -1425.213 0 2124.212 841.891" xml:space="preserve">
<g>
	<path fill="#FFFFFF" d="M250.018,554.883c-4.465,0-7.441-1.488-10.418-4.464c-5.952-5.953-5.952-14.883,0-20.835l108.639-108.639
		L239.6,312.307c-5.952-5.953-5.952-14.882,0-20.835c5.953-5.953,14.883-5.953,20.835,0L379.49,410.527
		c5.953,5.953,5.953,14.883,0,20.835L260.435,550.419C257.458,553.395,252.994,554.883,250.018,554.883z"/>
</g>
<g>
	<path fill="#FFFFFF" d="M297.64,718.585C133.938,718.585,0,584.647,0,420.945s133.938-297.641,297.64-297.641
		c66.969,0,129.474,22.323,183.049,62.505c5.953,4.464,7.44,14.882,2.977,20.834c-4.465,5.953-14.882,7.441-20.835,2.977
		c-47.623-37.205-105.662-56.552-165.19-56.552c-147.332,0-267.876,120.544-267.876,267.876S150.308,688.821,297.64,688.821
		s267.876-120.544,267.876-267.876c0-47.623-13.394-95.245-37.205-136.915c-4.465-7.441-1.488-16.371,4.465-20.835
		c7.441-4.464,16.37-1.488,20.835,4.464c26.787,47.623,41.669,99.709,41.669,153.285C595.28,584.647,461.342,718.585,297.64,718.585
		z"/>
</g>
<g>
	<path fill="#FFFFFF" d="M-961.499,268.79c4.465,0,7.441,1.691,10.418,5.071c5.952,6.763,5.952,16.907,0,23.668l-108.639,123.415
		l108.639,123.414c5.952,6.763,5.952,16.906,0,23.669c-5.953,6.763-14.882,6.763-20.834,0l-119.056-135.248
		c-5.953-6.763-5.953-16.907,0-23.669l119.056-135.249C-968.939,270.481-964.475,268.79-961.499,268.79z"/>
</g>
<g>
	<path fill="#FFFFFF" d="M-1009.121,123.305c163.702,0,297.64,133.938,297.64,297.64s-133.938,297.641-297.64,297.641
		c-66.968,0-129.474-22.323-183.048-62.505c-5.954-4.465-7.441-14.882-2.977-20.834c4.465-5.954,14.882-7.441,20.835-2.978
		c47.623,37.206,105.662,56.552,165.19,56.552c147.332,0,267.876-120.544,267.876-267.876
		c0-147.332-120.544-267.875-267.876-267.875s-267.875,120.544-267.875,267.875c0,47.623,13.393,95.245,37.205,136.915
		c4.465,7.44,1.488,16.37-4.464,20.834c-7.442,4.465-16.371,1.489-20.835-4.464c-26.788-47.623-41.669-99.71-41.669-153.285
		C-1306.76,257.242-1172.823,123.305-1009.121,123.305z"/>
</g>
</svg>
