<?xml version="1.0" encoding="utf-8"?>
<!-- Generator: Adobe Illustrator 16.0.0, SVG Export Plug-In . SVG Version: 6.00 Build 0)  -->
<!DOCTYPE svg PUBLIC "-//W3C//DTD SVG 1.1//EN" "http://www.w3.org/Graphics/SVG/1.1/DTD/svg11.dtd">
<svg version="1.1" id="Слой_1" xmlns="http://www.w3.org/2000/svg" xmlns:xlink="http://www.w3.org/1999/xlink" x="0px" y="0px"
	 width="2124.211px" height="841.891px" viewBox="0 0 2124.211 841.891" enable-background="new 0 0 2124.211 841.891"
	 xml:space="preserve">
<g>
	<path fill="#FFFFFF" d="M1636.156,554.883c-4.465,0-7.44-1.488-10.418-4.464c-5.952-5.953-5.952-14.884,0-20.836l108.639-108.639
		l-108.639-108.638c-5.952-5.953-5.952-14.882,0-20.835c5.953-5.953,14.883-5.953,20.835,0l119.055,119.055
		c5.953,5.953,5.953,14.883,0,20.835l-119.055,119.058C1643.597,553.395,1639.133,554.883,1636.156,554.883z"/>
</g>
<g>
	<path fill="#FFFFFF" d="M1683.779,718.585c-163.702,0-297.64-133.938-297.64-297.641c0-163.701,133.938-297.641,297.64-297.641
		c66.969,0,129.474,22.323,183.049,62.505c5.953,4.464,7.44,14.882,2.978,20.834c-4.466,5.953-14.883,7.441-20.836,2.978
		c-47.623-37.205-105.661-56.553-165.189-56.553c-147.332,0-267.876,120.544-267.876,267.876s120.543,267.877,267.875,267.877
		s267.876-120.544,267.876-267.876c0-47.623-13.395-95.245-37.205-136.915c-4.465-7.44-1.488-16.371,4.465-20.835
		c7.441-4.464,16.37-1.487,20.835,4.464c26.787,47.623,41.669,99.71,41.669,153.285
		C1981.418,584.647,1847.481,718.585,1683.779,718.585z"/>
</g>
<g>
	<path fill="#FFFFFF" d="M424.64,268.79c4.465,0,7.44,1.69,10.418,5.07c5.952,6.764,5.952,16.907,0,23.668l-108.64,123.415
		l108.64,123.414c5.952,6.763,5.952,16.906,0,23.669c-5.953,6.764-14.882,6.764-20.834,0L295.167,432.779
		c-5.952-6.763-5.952-16.906,0-23.669l119.057-135.249C417.199,270.481,421.663,268.79,424.64,268.79z"/>
</g>
<g>
	<path fill="#FFFFFF" d="M377.018,123.305c163.702,0,297.64,133.938,297.64,297.64c0,163.702-133.938,297.642-297.64,297.642
		c-66.968,0-129.475-22.323-183.048-62.506c-5.954-4.465-7.441-14.882-2.978-20.834c4.465-5.953,14.882-7.44,20.835-2.978
		c47.623,37.206,105.662,56.552,165.19,56.552c147.332,0,267.876-120.544,267.876-267.876S524.35,153.07,377.018,153.07
		S109.143,273.614,109.143,420.945c0,47.623,13.393,95.245,37.205,136.915c4.465,7.44,1.487,16.37-4.464,20.834
		c-7.442,4.465-16.371,1.489-20.835-4.464C94.261,526.607,79.38,474.52,79.38,420.945
		C79.378,257.242,213.316,123.305,377.018,123.305z"/>
</g>
</svg>
