<?xml version="1.0" encoding="utf-8"?>
<!-- Generator: Adobe Illustrator 16.0.0, SVG Export Plug-In . SVG Version: 6.00 Build 0)  -->
<!DOCTYPE svg PUBLIC "-//W3C//DTD SVG 1.1//EN" "http://www.w3.org/Graphics/SVG/1.1/DTD/svg11.dtd">
<svg version="1.1" xmlns="http://www.w3.org/2000/svg" xmlns:xlink="http://www.w3.org/1999/xlink" x="0px" y="0px" width="334px"
	 height="114.612px" viewBox="0 0 334 114.612" enable-background="new 0 0 334 114.612" xml:space="preserve">
<g id="Soporte">
	<rect x="-1931" y="-3703" fill="#DBCCBA" width="1600" height="780"/>
	<rect x="-1931" y="-1879" fill="#DBCCBA" width="1600" height="780"/>
	<rect x="-1931" y="-1099" fill="#DBCCBA" width="1600" height="780"/>
	<rect x="-1931" y="-319.006" fill="#493E3A" width="1600" height="780"/>
	<rect x="-1931" y="1569.169" fill="#493E3A" width="1600" height="47.5"/>
	<rect x="-1931" y="1923.168" fill="#493E3A" width="1600" height="234.5"/>
	<path fill="#493E3A" d="M-2052,148c0,4.418-3.582,8-8,8h-98c-4.418,0-8-3.582-8-8V50c0-4.418,3.582-8,8-8h98c4.418,0,8,3.582,8,8
		V148z"/>
	<polygon fill="#DBCCBA" points="-1806.609,71.313 -1806.609,114.613 -1843.703,92.963 -1881,71.313 -1843.805,49.662 
		-1806.609,28.012 	"/>
	<polygon fill="#DBCCBA" points="115.391,57.5 115.391,100.801 78.297,79.15 41,57.5 78.195,35.85 115.391,14.199 	"/>
	<polygon fill="#DBCCBA" points="-455.071,71.312 -455.071,28.011 -417.978,49.661 -380.681,71.312 -417.876,92.962 
		-455.071,114.612 	"/>
	<polygon fill="#DBCCBA" points="209.929,57.5 209.929,14.199 247.022,35.85 284.319,57.5 247.124,79.15 209.929,100.801 	"/>
	<rect x="-1452" y="13" fill="#493E3A" width="82" height="273"/>
	<rect x="-1202" y="-319" fill="#493E3A" width="72" height="309"/>
	<rect x="-1228" y="298" fill="#493E3A" width="26" height="163"/>
	<rect x="-1246" y="115" fill="#493E3A" width="54" height="129"/>
	<rect x="-1600" fill="#493E3A" width="938" height="115"/>
</g>
<g id="Vectores">
	<rect x="-1631" y="-3618" fill="#493E3A" width="302" height="360"/>
	<rect x="-1283" y="-3618" fill="#493E3A" width="302" height="360"/>
	<rect x="-1616" y="-1756" fill="#493E3A" width="464" height="488"/>
	<rect x="-1115" y="-1758" fill="#493E3A" width="464" height="488"/>
	<rect x="-1631" y="-3181" fill="#493E3A" width="999" height="167"/>
	<rect x="-934" y="-3618" fill="#493E3A" width="302" height="360"/>
	
		<line fill="none" stroke="#DBCCBA" stroke-width="5" stroke-linecap="round" stroke-miterlimit="10" stroke-dasharray="2,20" x1="-1806.877" y1="71.467" x2="-453.944" y2="72"/>
</g>
<g id="Imagenes">
	<rect x="-1631.87" y="-5105.809" fill="none" width="1000.45" height="145.493"/>
	<text transform="matrix(1 0 0 1 -1631.8701 -5097.2891)" font-family="'MyriadPro-Regular'" font-size="12">fdafdafdasfdsafdsafdasfdafdafda</text>
	<g>
		<defs>
			<rect id="SVGID_1_" x="-1931" y="-2923" width="1600" height="1045"/>
		</defs>
		<clipPath id="SVGID_2_">
			<use xlink:href="#SVGID_1_"  overflow="visible"/>
		</clipPath>
	</g>
	<g>
		<defs>
			<rect id="SVGID_3_" x="1074" y="-2818" width="534" height="454"/>
		</defs>
		<clipPath id="SVGID_4_">
			<use xlink:href="#SVGID_3_"  overflow="visible"/>
		</clipPath>
	</g>
	<g>
		<defs>
			<rect id="SVGID_5_" x="1608" y="-2818" width="533" height="454"/>
		</defs>
		<clipPath id="SVGID_6_">
			<use xlink:href="#SVGID_5_"  overflow="visible"/>
		</clipPath>
	</g>
	<g>
		<defs>
			<rect id="SVGID_7_" x="541" y="-2364" width="533" height="454"/>
		</defs>
		<clipPath id="SVGID_8_">
			<use xlink:href="#SVGID_7_"  overflow="visible"/>
		</clipPath>
	</g>
	<g>
		<defs>
			<rect id="SVGID_9_" x="1074" y="-2364" width="534" height="454"/>
		</defs>
		<clipPath id="SVGID_10_">
			<use xlink:href="#SVGID_9_"  overflow="visible"/>
		</clipPath>
	</g>
	<g>
		<defs>
			<rect id="SVGID_11_" x="1608" y="-2364" width="533" height="454"/>
		</defs>
		<clipPath id="SVGID_12_">
			<use xlink:href="#SVGID_11_"  overflow="visible"/>
		</clipPath>
	</g>
	<rect x="-1931" y="-2923" opacity="0.3" width="1600" height="1045"/>
	<rect x="1608" y="-2818" opacity="0.3" width="533" height="454"/>
	<rect x="541" y="-2364" opacity="0.3" width="533" height="454"/>
	<rect x="1074" y="-2364" opacity="0.3" width="534" height="454"/>
	<rect x="1608" y="-2364" opacity="0.3" width="533" height="454"/>
	<g>
		<defs>
			<rect id="SVGID_13_" x="-1631" y="-3618.063" width="301.979" height="212.439"/>
		</defs>
		<clipPath id="SVGID_14_">
			<use xlink:href="#SVGID_13_"  overflow="visible"/>
		</clipPath>
	</g>
	<g>
		<defs>
			<rect id="SVGID_15_" x="-934" y="-3618.063" width="301.979" height="212.439"/>
		</defs>
		<clipPath id="SVGID_16_">
			<use xlink:href="#SVGID_15_"  overflow="visible"/>
		</clipPath>
	</g>
	<g>
		<defs>
			<rect id="SVGID_17_" x="-1616" y="-1756" width="232" height="192"/>
		</defs>
		<clipPath id="SVGID_18_">
			<use xlink:href="#SVGID_17_"  overflow="visible"/>
		</clipPath>
	</g>
	<g>
		<defs>
			<rect id="SVGID_19_" x="-1616" y="-1564.155" width="231.886" height="191.841"/>
		</defs>
		<clipPath id="SVGID_20_">
			<use xlink:href="#SVGID_19_"  overflow="visible"/>
		</clipPath>
	</g>
	<g>
		<defs>
			<rect id="SVGID_21_" x="-1384" y="-1756" width="232" height="192"/>
		</defs>
		<clipPath id="SVGID_22_">
			<use xlink:href="#SVGID_21_"  overflow="visible"/>
		</clipPath>
	</g>
	<g>
		<defs>
			<rect id="SVGID_23_" x="-1384.114" y="-1564.155" width="231.887" height="191.841"/>
		</defs>
		<clipPath id="SVGID_24_">
			<use xlink:href="#SVGID_23_"  overflow="visible"/>
		</clipPath>
	</g>
	<g>
		<defs>
			<rect id="SVGID_25_" x="-1115" y="-1758" width="232" height="192"/>
		</defs>
		<clipPath id="SVGID_26_">
			<use xlink:href="#SVGID_25_"  overflow="visible"/>
		</clipPath>
	</g>
	<g>
		<defs>
			<rect id="SVGID_27_" x="-1115" y="-1566.155" width="231.886" height="191.841"/>
		</defs>
		<clipPath id="SVGID_28_">
			<use xlink:href="#SVGID_27_"  overflow="visible"/>
		</clipPath>
	</g>
	<g>
		<defs>
			<rect id="SVGID_29_" x="-883" y="-1758" width="232" height="192"/>
		</defs>
		<clipPath id="SVGID_30_">
			<use xlink:href="#SVGID_29_"  overflow="visible"/>
		</clipPath>
	</g>
	<g>
		<defs>
			<rect id="SVGID_31_" x="-883.114" y="-1566.155" width="231.887" height="191.841"/>
		</defs>
		<clipPath id="SVGID_32_">
			<use xlink:href="#SVGID_31_"  overflow="visible"/>
		</clipPath>
	</g>
	<g>
		<defs>
			<rect id="SVGID_33_" x="-1931" y="-4881" width="1600" height="1180"/>
		</defs>
		<clipPath id="SVGID_34_">
			<use xlink:href="#SVGID_33_"  overflow="visible"/>
		</clipPath>
	</g>
</g>
<g id="Iconos">
	<g>
		<path fill="#DBCCBA" d="M-719.279,1605.594h-9.518c-3.642,0-6.622-2.979-6.622-6.621v-10.143c0-3.642,2.98-6.621,6.622-6.621
			h9.518c3.643,0,6.622,2.979,6.622,6.621v10.143C-712.657,1602.614-715.637,1605.594-719.279,1605.594 M-719.279,1603.845
			c1.294,0,2.516-0.509,3.44-1.433c0.923-0.924,1.432-2.146,1.432-3.439v-10.143c0-1.294-0.509-2.516-1.432-3.439
			c-0.925-0.923-2.146-1.432-3.44-1.432h-9.518c-1.295,0-2.517,0.509-3.44,1.432c-0.923,0.924-1.432,2.146-1.432,3.439v10.143
			c0,1.294,0.509,2.516,1.432,3.439c0.924,0.924,2.146,1.433,3.44,1.433H-719.279z"/>
		<path fill="#DBCCBA" d="M-717.735,1593.812c0,3.461-2.806,6.268-6.268,6.268s-6.268-2.807-6.268-6.268
			c0-3.462,2.806-6.269,6.268-6.269S-717.735,1590.35-717.735,1593.812 M-724.032,1589.711c-2.268,0-4.105,1.839-4.105,4.105
			c0,2.268,1.838,4.104,4.105,4.104c2.267,0,4.104-1.837,4.104-4.104C-719.929,1591.55-721.766,1589.711-724.032,1589.711"/>
		<path fill="#DBCCBA" d="M-716.15,1587.446c0,0.818-0.665,1.484-1.484,1.484s-1.483-0.666-1.483-1.484
			c0-0.819,0.664-1.485,1.483-1.485S-716.15,1586.627-716.15,1587.446"/>
	</g>
	<path fill="#DBCCBA" d="M-780.765,1582.002h-15.132c-2.389,0-4.333,1.944-4.333,4.332v15.134c0,2.389,1.944,4.332,4.333,4.332
		h6.941v-9.841h-2.034v-3.394h2.034v-2.036c0-2.768,1.149-4.413,4.413-4.413h2.717v3.393h-1.697c-1.271,0-1.356,0.475-1.356,1.357
		l-0.005,1.699h3.077l-0.359,3.394h-2.718v9.841h4.119c2.389,0,4.334-1.943,4.334-4.332v-15.134
		C-776.431,1583.946-778.376,1582.002-780.765,1582.002z"/>
	<path fill="#DBCCBA" d="M-748.015,1582.002h-15.132c-2.389,0-4.333,1.944-4.333,4.332v15.134c0,2.389,1.944,4.332,4.333,4.332
		h15.132c2.389,0,4.334-1.943,4.334-4.332v-15.134C-743.681,1583.946-745.626,1582.002-748.015,1582.002z M-749.226,1590.642
		c0.006,0.141,0.009,0.283,0.009,0.426c0,4.332-3.296,9.328-9.327,9.328c-1.853,0-3.576-0.544-5.026-1.474
		c0.257,0.03,0.518,0.045,0.782,0.045c1.536,0,2.95-0.523,4.072-1.401c-1.436-0.027-2.646-0.975-3.063-2.278
		c0.2,0.038,0.405,0.058,0.617,0.058c0.299,0,0.588-0.038,0.863-0.113c-1.499-0.301-2.631-1.626-2.631-3.216
		c0-0.013,0-0.027,0.001-0.04c0.441,0.246,0.946,0.393,1.484,0.41c-0.88-0.589-1.458-1.592-1.458-2.729
		c0-0.6,0.162-1.163,0.444-1.647c1.615,1.982,4.032,3.29,6.757,3.425c-0.056-0.239-0.085-0.49-0.085-0.747
		c0-1.81,1.468-3.279,3.278-3.279c0.943,0,1.796,0.399,2.394,1.037c0.747-0.147,1.448-0.42,2.083-0.797
		c-0.246,0.769-0.766,1.409-1.443,1.813c0.664-0.077,1.295-0.255,1.884-0.515C-748.03,1589.603-748.586,1590.181-749.226,1590.642z"
		/>
	<path fill="#DBCCBA" d="M-683.531,1582.002h-15.132c-2.389,0-4.333,1.944-4.333,4.332v15.134c0,2.389,1.944,4.332,4.333,4.332
		h15.132c2.389,0,4.334-1.943,4.334-4.332v-15.134C-679.197,1583.946-681.143,1582.002-683.531,1582.002z M-694.067,1599.841
		v-11.881l8.94,5.94L-694.067,1599.841z"/>
	<path fill="#DBCCBA" d="M-668.079,1589.339c0,0-0.015,24.349,0.001,27.317l37.078-0.031c0.031-2.156-0.001-27.286-0.001-27.286
		c0-4.023-3.274-7.298-7.296-7.298h-22.486C-664.805,1582.041-668.079,1585.315-668.079,1589.339z M-639.037,1597.114h-20.008
		l10.206-9.987L-639.037,1597.114z"/>
	<path fill="#DBCCBA" d="M-965.603,1701.695c0,0-0.015,24.349,0.001,27.317l37.078-0.031c0.031-2.156-0.001-27.286-0.001-27.286
		c0-4.023-3.274-7.298-7.296-7.298h-22.486C-962.328,1694.397-965.603,1697.672-965.603,1701.695z M-936.561,1709.471h-20.008
		l10.206-9.987L-936.561,1709.471z"/>
	<g>
		<g>
			<path fill="#DBCCBA" d="M-1533.293,1584.672c-0.076-0.096,0.035-0.305,0.248-0.51c0.322-0.311,2.537-2.537,3.422-3.422
				c0.223-0.223,0.975-0.674,1.713,0.35c0.893,1.24,0.088,1.85,0,1.885c-1.18,0.465-4.889,1.682-4.889,1.682
				S-1533.193,1584.797-1533.293,1584.672z"/>
			<rect x="-1630.314" y="1580.135" fill="#DBCCBA" width="5.109" height="17.102"/>
			<path fill="#DBCCBA" d="M-1612.088,1589.412c-0.107-2.168-1.435-4.514-6.338-4.574c-3.645-0.047-4.761,1.779-5.104,2.846
				c-0.08,0.182-0.123,0.381-0.141,0.588c-0.014,0.1-0.016,0.158-0.016,0.158c0,1.025,0.817,1.859,1.826,1.859
				c1.008,0,1.825-0.834,1.825-1.859c0-0.439-0.155-0.836-0.405-1.154h0.002c0,0-0.683-0.898,1.563-0.707
				c1.805,0.154,2.033,2.09,2.054,2.844h-0.002v2.287c-0.808-0.668-1.944-1.09-3.211-1.09c-2.446,0-4.429,1.549-4.429,3.463
				c0,1.912,1.982,3.463,4.429,3.463c1.267,0,2.403-0.422,3.211-1.09v0.791h4.745v-7.824H-1612.088z M-1620.034,1596.508
				c-1.349,0-2.441-1.018-2.441-2.275s1.093-2.277,2.441-2.277s2.44,1.02,2.44,2.277S-1618.686,1596.508-1620.034,1596.508z"/>
			<path fill="#DBCCBA" d="M-1597.008,1585.479c-3.941,0-7.139,2.814-7.139,6.285s3.197,6.285,7.139,6.285
				c3.943,0,7.141-2.814,7.141-6.285S-1593.064,1585.479-1597.008,1585.479z M-1597.008,1596.68c-1.795,0-3.25-2.201-3.25-4.916
				s1.455-4.918,3.25-4.918s3.25,2.203,3.25,4.918S-1595.213,1596.68-1597.008,1596.68z"/>
			<path fill="#DBCCBA" d="M-1530.805,1585.479c-3.943,0-7.141,2.814-7.141,6.285s3.197,6.285,7.141,6.285
				c3.941,0,7.139-2.814,7.139-6.285S-1526.863,1585.479-1530.805,1585.479z M-1530.805,1596.68c-1.795,0-3.25-2.201-3.25-4.916
				s1.455-4.918,3.25-4.918c1.793,0,3.248,2.203,3.248,4.918S-1529.012,1596.68-1530.805,1596.68z"/>
			<path fill="#DBCCBA" d="M-1578.604,1585.648c-1.654,0-3.172,0.496-4.381,1.32v-2.002h-5.9v22.701h5.9v-10.941
				c1.209,0.826,2.727,1.322,4.381,1.322c3.932,0,7.119-2.775,7.119-6.201C-1571.484,1588.424-1574.672,1585.648-1578.604,1585.648z
				 M-1580.805,1596.508c-0.82,0-1.57-0.346-2.18-0.908v-7.074c0.609-0.563,1.359-0.908,2.18-0.908c2.008,0,3.635,1.99,3.635,4.445
				S-1578.797,1596.508-1580.805,1596.508z"/>
			<rect x="-1570.758" y="1585.094" fill="#DBCCBA" width="5.516" height="12.014"/>
			<path fill="#DBCCBA" d="M-1565.178,1581.375c0.512,1.232-0.707,2.166-2.334,2.76c-1.84,0.67-3.289,0.197-3.523-0.564
				c-0.213-0.693,0.529-1.844,2.229-2.596C-1567.223,1580.271-1565.617,1580.316-1565.178,1581.375z"/>
			<rect x="-1544.592" y="1585.094" fill="#DBCCBA" width="5.516" height="12.014"/>
			<path fill="#DBCCBA" d="M-1539.014,1581.375c0.512,1.232-0.705,2.166-2.334,2.76c-1.84,0.67-3.289,0.197-3.523-0.564
				c-0.213-0.693,0.529-1.844,2.229-2.596C-1541.057,1580.271-1539.451,1580.316-1539.014,1581.375z"/>
			<path fill="#DBCCBA" d="M-1547.164,1588.402c-0.178-2.236-2.42-2.371-5.125-2.41c-2.262-0.035-4.826,1.146-5.855,1.672v-2.57
				h-5.516v12.014h5.516v-7.396c0.596-0.596,1.711-1.514,3.076-1.668c2.096-0.234,2.367,1.686,2.396,2.418v6.646h5.514v-8.705
				H-1547.164z"/>
			<path fill="#DBCCBA" d="M-1505.801,1588.402c-0.178-2.236-2.42-2.371-5.125-2.41c-2.262-0.035-4.826,1.146-5.857,1.672v-2.57
				h-5.514v12.014h5.514v-7.396c0.596-0.596,1.713-1.514,3.078-1.668c2.096-0.234,2.367,1.686,2.396,2.418v6.646h5.514v-8.705
				H-1505.801z"/>
		</g>
	</g>
	<g>
		<path fill="#DBCCBA" d="M-719.279,1959.594h-9.518c-3.642,0-6.622-2.979-6.622-6.621v-10.143c0-3.642,2.98-6.621,6.622-6.621
			h9.518c3.643,0,6.622,2.979,6.622,6.621v10.143C-712.657,1956.614-715.637,1959.594-719.279,1959.594 M-719.279,1957.845
			c1.294,0,2.516-0.509,3.44-1.433c0.923-0.924,1.432-2.146,1.432-3.439v-10.143c0-1.294-0.509-2.516-1.432-3.439
			c-0.925-0.923-2.146-1.432-3.44-1.432h-9.518c-1.295,0-2.517,0.509-3.44,1.432c-0.923,0.924-1.432,2.146-1.432,3.439v10.143
			c0,1.294,0.509,2.516,1.432,3.439c0.924,0.924,2.146,1.433,3.44,1.433H-719.279z"/>
		<path fill="#DBCCBA" d="M-717.735,1947.812c0,3.461-2.806,6.268-6.268,6.268s-6.268-2.807-6.268-6.268
			c0-3.462,2.806-6.269,6.268-6.269S-717.735,1944.35-717.735,1947.812 M-724.032,1943.711c-2.268,0-4.105,1.839-4.105,4.105
			c0,2.268,1.838,4.104,4.105,4.104c2.267,0,4.104-1.837,4.104-4.104C-719.929,1945.55-721.766,1943.711-724.032,1943.711"/>
		<path fill="#DBCCBA" d="M-716.15,1941.446c0,0.818-0.665,1.484-1.484,1.484s-1.483-0.666-1.483-1.484
			c0-0.819,0.664-1.485,1.483-1.485S-716.15,1940.627-716.15,1941.446"/>
	</g>
	<path fill="#DBCCBA" d="M-780.765,1936.002h-15.132c-2.389,0-4.333,1.944-4.333,4.332v15.134c0,2.389,1.944,4.332,4.333,4.332
		h6.941v-9.841h-2.034v-3.394h2.034v-2.036c0-2.768,1.149-4.413,4.413-4.413h2.717v3.393h-1.697c-1.271,0-1.356,0.475-1.356,1.357
		l-0.005,1.699h3.077l-0.359,3.394h-2.718v9.841h4.119c2.389,0,4.334-1.943,4.334-4.332v-15.134
		C-776.431,1937.946-778.376,1936.002-780.765,1936.002z"/>
	<path fill="#DBCCBA" d="M-748.015,1936.002h-15.132c-2.389,0-4.333,1.944-4.333,4.332v15.134c0,2.389,1.944,4.332,4.333,4.332
		h15.132c2.389,0,4.334-1.943,4.334-4.332v-15.134C-743.681,1937.946-745.626,1936.002-748.015,1936.002z M-749.226,1944.642
		c0.006,0.141,0.009,0.283,0.009,0.426c0,4.332-3.296,9.328-9.327,9.328c-1.853,0-3.576-0.544-5.026-1.474
		c0.257,0.03,0.518,0.045,0.782,0.045c1.536,0,2.95-0.523,4.072-1.401c-1.436-0.027-2.646-0.975-3.063-2.278
		c0.2,0.038,0.405,0.058,0.617,0.058c0.299,0,0.588-0.038,0.863-0.113c-1.499-0.301-2.631-1.626-2.631-3.216
		c0-0.013,0-0.027,0.001-0.04c0.441,0.246,0.946,0.393,1.484,0.41c-0.88-0.589-1.458-1.592-1.458-2.729
		c0-0.6,0.162-1.163,0.444-1.647c1.615,1.982,4.032,3.29,6.757,3.425c-0.056-0.239-0.085-0.49-0.085-0.747
		c0-1.81,1.468-3.279,3.278-3.279c0.943,0,1.796,0.399,2.394,1.037c0.747-0.147,1.448-0.42,2.083-0.797
		c-0.246,0.769-0.766,1.409-1.443,1.813c0.664-0.077,1.295-0.255,1.884-0.515C-748.03,1943.603-748.586,1944.181-749.226,1944.642z"
		/>
	<path fill="#DBCCBA" d="M-683.531,1936.002h-15.132c-2.389,0-4.333,1.944-4.333,4.332v15.134c0,2.389,1.944,4.332,4.333,4.332
		h15.132c2.389,0,4.334-1.943,4.334-4.332v-15.134C-679.197,1937.946-681.143,1936.002-683.531,1936.002z M-694.067,1953.841
		v-11.881l8.94,5.94L-694.067,1953.841z"/>
	<path fill="#DBCCBA" d="M-668.079,1943.339c0,0-0.015,24.349,0.001,27.317l37.078-0.031c0.031-2.156-0.001-27.286-0.001-27.286
		c0-4.023-3.274-7.298-7.296-7.298h-22.486C-664.805,1936.041-668.079,1939.315-668.079,1943.339z M-639.037,1951.114h-20.008
		l10.206-9.987L-639.037,1951.114z"/>
	<g>
		<g>
			<path fill="#DBCCBA" d="M-1533.293,1938.672c-0.076-0.096,0.035-0.305,0.248-0.51c0.322-0.311,2.537-2.537,3.422-3.422
				c0.223-0.223,0.975-0.674,1.713,0.35c0.893,1.24,0.088,1.85,0,1.885c-1.18,0.465-4.889,1.682-4.889,1.682
				S-1533.193,1938.797-1533.293,1938.672z"/>
			<rect x="-1630.314" y="1934.135" fill="#DBCCBA" width="5.109" height="17.102"/>
			<path fill="#DBCCBA" d="M-1612.088,1943.412c-0.107-2.168-1.435-4.514-6.338-4.574c-3.645-0.047-4.761,1.779-5.104,2.846
				c-0.08,0.182-0.123,0.381-0.141,0.588c-0.014,0.1-0.016,0.158-0.016,0.158c0,1.025,0.817,1.859,1.826,1.859
				c1.008,0,1.825-0.834,1.825-1.859c0-0.439-0.155-0.836-0.405-1.154h0.002c0,0-0.683-0.898,1.563-0.707
				c1.805,0.154,2.033,2.09,2.054,2.844h-0.002v2.287c-0.808-0.668-1.944-1.09-3.211-1.09c-2.446,0-4.429,1.549-4.429,3.463
				c0,1.912,1.982,3.463,4.429,3.463c1.267,0,2.403-0.422,3.211-1.09v0.791h4.745v-7.824H-1612.088z M-1620.034,1950.508
				c-1.349,0-2.441-1.018-2.441-2.275s1.093-2.277,2.441-2.277s2.44,1.02,2.44,2.277S-1618.686,1950.508-1620.034,1950.508z"/>
			<path fill="#DBCCBA" d="M-1597.008,1939.479c-3.941,0-7.139,2.814-7.139,6.285s3.197,6.285,7.139,6.285
				c3.943,0,7.141-2.814,7.141-6.285S-1593.064,1939.479-1597.008,1939.479z M-1597.008,1950.68c-1.795,0-3.25-2.201-3.25-4.916
				s1.455-4.918,3.25-4.918s3.25,2.203,3.25,4.918S-1595.213,1950.68-1597.008,1950.68z"/>
			<path fill="#DBCCBA" d="M-1530.805,1939.479c-3.943,0-7.141,2.814-7.141,6.285s3.197,6.285,7.141,6.285
				c3.941,0,7.139-2.814,7.139-6.285S-1526.863,1939.479-1530.805,1939.479z M-1530.805,1950.68c-1.795,0-3.25-2.201-3.25-4.916
				s1.455-4.918,3.25-4.918c1.793,0,3.248,2.203,3.248,4.918S-1529.012,1950.68-1530.805,1950.68z"/>
			<path fill="#DBCCBA" d="M-1578.604,1939.648c-1.654,0-3.172,0.496-4.381,1.32v-2.002h-5.9v22.701h5.9v-10.941
				c1.209,0.826,2.727,1.322,4.381,1.322c3.932,0,7.119-2.775,7.119-6.201C-1571.484,1942.424-1574.672,1939.648-1578.604,1939.648z
				 M-1580.805,1950.508c-0.82,0-1.57-0.346-2.18-0.908v-7.074c0.609-0.563,1.359-0.908,2.18-0.908c2.008,0,3.635,1.99,3.635,4.445
				S-1578.797,1950.508-1580.805,1950.508z"/>
			<rect x="-1570.758" y="1939.094" fill="#DBCCBA" width="5.516" height="12.014"/>
			<path fill="#DBCCBA" d="M-1565.178,1935.375c0.512,1.232-0.707,2.166-2.334,2.76c-1.84,0.67-3.289,0.197-3.523-0.564
				c-0.213-0.693,0.529-1.844,2.229-2.596C-1567.223,1934.271-1565.617,1934.316-1565.178,1935.375z"/>
			<rect x="-1544.592" y="1939.094" fill="#DBCCBA" width="5.516" height="12.014"/>
			<path fill="#DBCCBA" d="M-1539.014,1935.375c0.512,1.232-0.705,2.166-2.334,2.76c-1.84,0.67-3.289,0.197-3.523-0.564
				c-0.213-0.693,0.529-1.844,2.229-2.596C-1541.057,1934.271-1539.451,1934.316-1539.014,1935.375z"/>
			<path fill="#DBCCBA" d="M-1547.164,1942.402c-0.178-2.236-2.42-2.371-5.125-2.41c-2.262-0.035-4.826,1.146-5.855,1.672v-2.57
				h-5.516v12.014h5.516v-7.396c0.596-0.596,1.711-1.514,3.076-1.668c2.096-0.234,2.367,1.686,2.396,2.418v6.646h5.514v-8.705
				H-1547.164z"/>
			<path fill="#DBCCBA" d="M-1505.801,1942.402c-0.178-2.236-2.42-2.371-5.125-2.41c-2.262-0.035-4.826,1.146-5.857,1.672v-2.57
				h-5.514v12.014h5.514v-7.396c0.596-0.596,1.713-1.514,3.078-1.668c2.096-0.234,2.367,1.686,2.396,2.418v6.646h5.514v-8.705
				H-1505.801z"/>
		</g>
	</g>
</g>
<g id="TXT">
	<rect x="-1615.999" y="-3371.668" fill="none" width="266.667" height="80"/>
	<text transform="matrix(1 0 0 1 -1615.999 -3354.6279)"><tspan x="0" y="0" fill="#FFFFFF" font-family="'PTSans-NarrowBold'" font-size="24">El drama de una joven que </tspan><tspan x="0" y="28.8" fill="#FFFFFF" font-family="'PTSans-NarrowBold'" font-size="24">tuvo que cambiar su vida </tspan><tspan x="0" y="57.6" fill="#FFFFFF" font-family="'PTSans-NarrowBold'" font-size="24">para seguir estudiando en </tspan></text>
	<rect x="-918.999" y="-3371.668" fill="none" width="266.667" height="86.5"/>
	<text transform="matrix(1 0 0 1 -918.999 -3354.6279)"><tspan x="0" y="0" fill="#FFFFFF" font-family="'PTSans-NarrowBold'" font-size="24">La mujer protagonista de </tspan><tspan x="0" y="28.8" fill="#FFFFFF" font-family="'PTSans-NarrowBold'" font-size="24">la foto viral q ha sido </tspan><tspan x="0" y="57.6" fill="#FFFFFF" font-family="'PTSans-NarrowBold'" font-size="24">hostigada por la guardia </tspan></text>
	<rect x="-1593.999" y="-1347.668" fill="none" width="420.667" height="55.5"/>
	<text transform="matrix(1 0 0 1 -1593.999 -1330.6279)"><tspan x="0" y="0" fill="#FFFFFF" font-family="'PTSans-NarrowBold'" font-size="24">La mujer protagonista de la foto viral q ha </tspan><tspan x="0" y="28.8" fill="#FFFFFF" font-family="'PTSans-NarrowBold'" font-size="24">sido hostigada por la guardia venezolana</tspan></text>
	<rect x="-1093.111" y="-1351.014" fill="none" width="420.667" height="55.5"/>
	<text transform="matrix(1 0 0 1 -1093.1113 -1333.9736)"><tspan x="0" y="0" fill="#FFFFFF" font-family="'PTSans-NarrowBold'" font-size="24">La mujer protagonista de la foto viral q ha </tspan><tspan x="0" y="28.8" fill="#FFFFFF" font-family="'PTSans-NarrowBold'" font-size="24">sido hostigada por la guardia venezolana</tspan></text>
	<rect x="-1263.999" y="-3531.668" fill="none" width="266.667" height="80"/>
	<text transform="matrix(1 0 0 1 -1263.999 -3514.6279)"><tspan x="0" y="0" fill="#FFFFFF" font-family="'PTSans-NarrowBold'" font-size="24">La mujer que le regalaron </tspan><tspan x="0" y="28.8" fill="#FFFFFF" font-family="'PTSans-NarrowBold'" font-size="24">la casa por ayudar </tspan><tspan x="0" y="57.6" fill="#FFFFFF" font-family="'PTSans-NarrowBold'" font-size="24">voluntariamente a los </tspan></text>
	<rect x="-1629.98" y="12.613" fill="none" width="998.63" height="114.498"/>
	<text transform="matrix(1 0 0 1 -1597.458 48.1133)"><tspan x="0" y="0" fill="#DBCCBA" font-family="'PTSans-NarrowBold'" font-size="50">“La mujer que le regalaron la casa por ayudar </tspan><tspan x="106.023" y="60" fill="#DBCCBA" font-family="'PTSans-NarrowBold'" font-size="50">voluntariamente a los deportados”</tspan></text>
	<rect x="-1263.999" y="-3426.668" fill="none" width="266.667" height="60"/>
	<text transform="matrix(1 0 0 1 -1263.999 -3413.8877)"><tspan x="0" y="0" fill="#FFFFFF" font-family="'PTSans-Narrow'" font-size="18">El drama de una joven que tuvo </tspan><tspan x="0" y="21.6" fill="#FFFFFF" font-family="'PTSans-Narrow'" font-size="18">que cambiar su vida para seguir </tspan><tspan x="0" y="43.199" fill="#FFFFFF" font-family="'PTSans-Narrow'" font-size="18">estudiando en Cúcuta</tspan></text>
	<rect x="-1573.999" y="-3156.668" fill="none" width="886.667" height="23"/>
	<text transform="matrix(1 0 0 1 -1573.999 -3139.6279)" fill="#FFFFFF" font-family="'PTSans-NarrowBold'" font-size="24">La mujer que le regalaron la casa por ayudar voluntariamente a los deportados </text>
	<rect x="-1572.999" y="-3101.668" fill="none" width="884.667" height="60"/>
	<text transform="matrix(1 0 0 1 -1572.999 -3088.8877)"><tspan x="0" y="0" fill="#FFFFFF" font-family="'PTSans-Narrow'" font-size="18">El drama de una joven que tuvo que cambiar su vida para seguir estudiando en Cúcuta sumario con texto fálso, el </tspan><tspan x="0" y="21.6" fill="#FFFFFF" font-family="'PTSans-Narrow'" font-size="18">drama de una joven que tuvo que cambiar su vida para seguir estudiando en Cúcuta sumario con texto fálso, el drama </tspan><tspan x="0" y="43.199" fill="#FFFFFF" font-family="'PTSans-Narrow'" font-size="18">de una joven que tuvo que cambiar su vida para seguir estudiando en Cúcuta sumario con texto fálso el drama de una </tspan></text>
	<text transform="matrix(1 0 0 1 -745.4902 286.4023)" fill="#9E9790" font-family="'PTSans-NarrowBold'" font-size="60">2015</text>
	<text transform="matrix(1 0 0 1 -1628.3872 286.4023)" fill="#9E9790" font-family="'PTSans-Italic'" font-size="60">Juan Manuel Santos</text>
	<rect x="-1499.103" y="1588.004" fill="none" width="251.211" height="11.795"/>
	<text transform="matrix(1 0 0 1 -1499.1025 1595.8125)" fill="#9E9790" font-family="'PTSans-Regular'" font-size="11">-  Todos los Derechos Reservados.</text>
	<rect x="-669.564" y="1601.34" fill="none" width="39.715" height="8.295"/>
	<text transform="matrix(1 0 0 1 -663.9668 1608.4395)" fill="#493E3A" font-family="'PTSans-Caption'" font-size="10">Creditos</text>
	<rect x="-965.007" y="1715.52" fill="none" width="30.628" height="7.295"/>
	<text transform="matrix(1 0 0 1 -963.9531 1722.6191)" fill="#493E3A" font-family="'PTSans-Caption'" font-size="10">Creditos</text>
	<rect x="-1499.103" y="1942.004" fill="none" width="251.211" height="11.795"/>
	<text transform="matrix(1 0 0 1 -1499.1025 1949.8125)" fill="#9E9790" font-family="'PTSans-Regular'" font-size="11">-  Todos los Derechos Reservados.</text>
	<rect x="-1257.103" y="2135.337" fill="none" width="251.211" height="11.795"/>
	<text transform="matrix(1 0 0 1 -1171.833 2143.1465)" fill="#9E9790" font-family="'PTSans-Regular'" font-size="11">La Opinión - 2016</text>
	<rect x="-1499.103" y="2001.305" fill="none" width="117.544" height="113.781"/>
	<text transform="matrix(1 0 0 1 -1499.1025 2012.6641)"><tspan x="0" y="0" fill="#DBCCBA" font-family="'PTSans-Bold'" font-size="16">Coordinación</tspan><tspan x="0" y="22" fill="#9E9790" font-family="'PTSans-Regular'" font-size="14">-  Nombre Apellido</tspan><tspan x="0" y="36" fill="#9E9790" font-family="'PTSans-Regular'" font-size="14">-  Nombre Apellido</tspan><tspan x="0" y="61" fill="#DBCCBA" font-family="'PTSans-Bold'" font-size="16">Concepto</tspan><tspan x="0" y="83" fill="#9E9790" font-family="'PTSans-Regular'" font-size="14">-  Nombre Apellido</tspan><tspan x="0" y="97" fill="#9E9790" font-family="'PTSans-Regular'" font-size="14">-  Nombre Apellido</tspan></text>
	<rect x="-1190.103" y="2001.305" fill="none" width="117.544" height="118.781"/>
	<text transform="matrix(1 0 0 1 -1190.1025 2012.6641)"><tspan x="0" y="0" fill="#DBCCBA" font-family="'PTSans-Bold'" font-size="16">Reporteros</tspan><tspan x="0" y="22" fill="#9E9790" font-family="'PTSans-Regular'" font-size="14">-  Nombre Apellido</tspan><tspan x="0" y="36" fill="#9E9790" font-family="'PTSans-Regular'" font-size="14">-  Nombre Apellido</tspan><tspan x="0" y="50" fill="#9E9790" font-family="'PTSans-Regular'" font-size="14">-  Nombre Apellido</tspan><tspan x="0" y="64" fill="#9E9790" font-family="'PTSans-Regular'" font-size="14">-  Nombre Apellido</tspan><tspan x="0" y="78" fill="#9E9790" font-family="'PTSans-Regular'" font-size="14">-  Nombre Apellido</tspan><tspan x="0" y="92" fill="#9E9790" font-family="'PTSans-Regular'" font-size="14">-  Nombre Apellido</tspan></text>
	<rect x="-874.103" y="2001.305" fill="none" width="131.544" height="144.781"/>
	<text transform="matrix(1 0 0 1 -874.1025 2012.6641)"><tspan x="0" y="0" fill="#DBCCBA" font-family="'PTSans-Bold'" font-size="16">Desarrollo Web</tspan><tspan x="0" y="22" fill="#9E9790" font-family="'PTSans-Regular'" font-size="14">-  Jonathan Miranda</tspan><tspan x="0" y="36" fill="#9E9790" font-family="'PTSans-Regular'" font-size="14">-  John Serrano</tspan><tspan x="0" y="61" fill="#DBCCBA" font-family="'PTSans-Bold'" font-size="16">Diseño</tspan><tspan x="0" y="83" fill="#9E9790" font-family="'PTSans-Regular'" font-size="14">-  Roberto Insignares</tspan></text>
	<rect x="-669.564" y="1955.34" fill="none" width="39.715" height="8.295"/>
	<text transform="matrix(1 0 0 1 -663.9668 1962.4395)" fill="#493E3A" font-family="'PTSans-Caption'" font-size="10">Creditos</text>
	<rect x="-1430" y="1960" fill="#9E9790" width="4" height="41"/>
</g>
<g id="Guia" display="none">
</g>
</svg>
