<?xml version="1.0" encoding="utf-8"?>
<!-- Generator: Adobe Illustrator 16.0.0, SVG Export Plug-In . SVG Version: 6.00 Build 0)  -->
<!DOCTYPE svg PUBLIC "-//W3C//DTD SVG 1.1//EN" "http://www.w3.org/Graphics/SVG/1.1/DTD/svg11.dtd">
<svg version="1.1" xmlns="http://www.w3.org/2000/svg" xmlns:xlink="http://www.w3.org/1999/xlink" x="0px" y="0px" width="1672px"
	 height="396px" viewBox="0 0 1672 396" enable-background="new 0 0 1672 396" xml:space="preserve">
<g id="Soporte">
</g>
<g id="Vectores">
</g>
<g id="Imagenes">
</g>
<g id="Iconos">
	<path fill="#DBCCBA" d="M213.163,75.824c0,0-0.015,24.349,0.001,27.317l37.078-0.031c0.031-2.156-0.001-27.286-0.001-27.286
		c0-4.023-3.274-7.298-7.296-7.298h-22.486C216.437,68.526,213.163,71.801,213.163,75.824z M222.197,73.611h20.008l-10.206,9.987
		L222.197,73.611z"/>
</g>
<g id="TXT">
	<g>
		<path fill="#493E3A" d="M220.25,94.525c-0.22,0.16-0.5,0.271-0.84,0.334c-0.34,0.064-0.7,0.096-1.08,0.096
			c-0.447,0-0.871-0.072-1.275-0.215c-0.402-0.145-0.758-0.363-1.064-0.66s-0.551-0.674-0.73-1.131s-0.27-0.998-0.27-1.625
			c0-0.652,0.1-1.209,0.3-1.67c0.2-0.459,0.46-0.834,0.78-1.125c0.32-0.289,0.68-0.502,1.08-0.635s0.797-0.199,1.189-0.199
			c0.44,0,0.801,0.023,1.08,0.07c0.28,0.045,0.517,0.105,0.711,0.18l-0.221,0.859c-0.326-0.152-0.823-0.23-1.49-0.23
			c-0.3,0-0.592,0.049-0.875,0.145c-0.283,0.098-0.537,0.254-0.76,0.471c-0.224,0.217-0.402,0.5-0.535,0.85
			c-0.133,0.352-0.199,0.779-0.199,1.285c0,0.453,0.063,0.852,0.189,1.195s0.301,0.631,0.525,0.859
			c0.223,0.23,0.486,0.404,0.789,0.521c0.304,0.115,0.635,0.174,0.996,0.174c0.326,0,0.609-0.029,0.85-0.09s0.443-0.137,0.609-0.23
			L220.25,94.525z"/>
		<path fill="#493E3A" d="M223.2,90.445c-0.114-0.029-0.224-0.055-0.33-0.076c-0.106-0.023-0.206-0.035-0.3-0.035
			c-0.354,0-0.629,0.09-0.825,0.27s-0.318,0.404-0.365,0.678v3.543h-0.92v-5.25h0.64l0.181,0.701h0.09
			c0.153-0.26,0.331-0.463,0.535-0.605c0.203-0.143,0.458-0.215,0.765-0.215c0.094,0,0.203,0.008,0.33,0.025
			c0.127,0.016,0.254,0.045,0.38,0.084L223.2,90.445z"/>
		<path fill="#493E3A" d="M227.629,94.395c-0.233,0.174-0.523,0.313-0.87,0.416c-0.347,0.102-0.723,0.154-1.13,0.154
			c-0.44,0-0.821-0.064-1.146-0.195c-0.322-0.129-0.588-0.314-0.795-0.555c-0.206-0.24-0.359-0.529-0.459-0.871
			c-0.101-0.34-0.15-0.719-0.15-1.139c0-0.9,0.222-1.588,0.665-2.064s1.075-0.717,1.896-0.717c0.26,0,0.52,0.029,0.779,0.086
			s0.493,0.164,0.7,0.32c0.206,0.156,0.375,0.371,0.505,0.645s0.195,0.631,0.195,1.07c0,0.107-0.004,0.23-0.01,0.369
			c-0.008,0.141-0.021,0.277-0.041,0.41h-3.75c0.014,0.613,0.16,1.078,0.44,1.391s0.757,0.471,1.431,0.471
			c0.279,0,0.546-0.049,0.799-0.146c0.254-0.096,0.451-0.211,0.59-0.344L227.629,94.395z M226.939,91.664
			c0.014-0.533-0.094-0.91-0.324-1.129c-0.23-0.221-0.552-0.33-0.965-0.33c-0.467,0-0.837,0.109-1.11,0.33
			c-0.273,0.219-0.434,0.596-0.479,1.129H226.939z"/>
		<path fill="#493E3A" d="M232.939,93.016c0,0.34,0.005,0.658,0.016,0.953c0.01,0.297,0.041,0.59,0.095,0.875h-0.61l-0.23-0.799
			h-0.1c-0.153,0.266-0.379,0.486-0.675,0.66c-0.297,0.174-0.642,0.26-1.035,0.26c-0.753,0-1.315-0.223-1.685-0.67
			c-0.37-0.447-0.555-1.133-0.555-2.061c0-0.893,0.228-1.578,0.685-2.055c0.456-0.477,1.099-0.715,1.925-0.715
			c0.141,0,0.266,0.004,0.375,0.016c0.109,0.01,0.213,0.021,0.311,0.035c0.096,0.012,0.189,0.033,0.279,0.059
			c0.09,0.027,0.186,0.055,0.285,0.08v-1.83h0.92V93.016z M232.019,90.545c-0.154-0.113-0.32-0.191-0.498-0.234
			c-0.178-0.045-0.415-0.066-0.71-0.066c-0.544,0-0.966,0.158-1.265,0.471c-0.298,0.313-0.447,0.824-0.447,1.529
			c0,0.281,0.027,0.539,0.08,0.775c0.055,0.236,0.139,0.441,0.252,0.615c0.114,0.174,0.266,0.309,0.453,0.404
			c0.188,0.098,0.42,0.146,0.695,0.146c0.409,0,0.729-0.102,0.956-0.307c0.229-0.203,0.39-0.504,0.483-0.904V90.545z"/>
		<path fill="#493E3A" d="M233.9,88.324c0-0.152,0.059-0.291,0.18-0.414c0.119-0.123,0.276-0.186,0.47-0.186
			s0.353,0.063,0.479,0.186s0.19,0.262,0.19,0.414c0,0.154-0.063,0.289-0.19,0.406c-0.127,0.115-0.286,0.174-0.479,0.174
			s-0.351-0.059-0.47-0.174C233.958,88.613,233.9,88.479,233.9,88.324z M234.089,89.574h0.92v5.25h-0.92V89.574z"/>
		<path fill="#493E3A" d="M235.459,89.574h0.89v-1.059l0.92-0.24v1.299h1.58v0.781h-1.58v2.68c0,0.42,0.054,0.717,0.16,0.889
			c0.106,0.174,0.29,0.262,0.55,0.262c0.167,0,0.318-0.02,0.455-0.057c0.137-0.035,0.292-0.084,0.466-0.145l0.209,0.65
			c-0.213,0.094-0.441,0.172-0.685,0.234c-0.243,0.064-0.505,0.096-0.785,0.096c-0.467,0-0.798-0.127-0.995-0.381
			c-0.196-0.252-0.295-0.666-0.295-1.24v-2.988h-0.89V89.574z"/>
		<path fill="#493E3A" d="M238.859,92.205c0-0.434,0.057-0.822,0.17-1.166c0.113-0.342,0.28-0.635,0.5-0.875
			c0.221-0.24,0.488-0.422,0.806-0.549c0.316-0.127,0.679-0.191,1.085-0.191c0.426,0,0.8,0.07,1.119,0.211
			c0.32,0.141,0.588,0.334,0.801,0.584s0.371,0.545,0.475,0.881s0.155,0.705,0.155,1.105c0,0.426-0.059,0.811-0.175,1.15
			c-0.117,0.34-0.283,0.629-0.5,0.869s-0.483,0.424-0.801,0.551c-0.316,0.125-0.674,0.189-1.074,0.189
			c-0.439,0-0.82-0.07-1.141-0.211c-0.319-0.139-0.584-0.332-0.795-0.58c-0.209-0.246-0.366-0.537-0.47-0.875
			C238.911,92.963,238.859,92.598,238.859,92.205z M239.859,92.205c0,0.246,0.028,0.488,0.084,0.725
			c0.057,0.236,0.146,0.449,0.271,0.635c0.125,0.188,0.287,0.338,0.484,0.451s0.441,0.17,0.73,0.17c1.027,0,1.54-0.66,1.54-1.98
			c0-0.26-0.028-0.51-0.084-0.75s-0.145-0.451-0.267-0.635c-0.121-0.184-0.281-0.332-0.479-0.445s-0.435-0.17-0.711-0.17
			c-0.514,0-0.903,0.164-1.17,0.494S239.859,91.531,239.859,92.205z"/>
		<path fill="#493E3A" d="M247.199,93.355c0-0.135-0.031-0.246-0.094-0.336c-0.064-0.09-0.148-0.166-0.256-0.23
			c-0.106-0.063-0.229-0.117-0.369-0.164c-0.141-0.047-0.287-0.094-0.44-0.141c-0.193-0.053-0.389-0.111-0.585-0.174
			c-0.197-0.064-0.373-0.15-0.53-0.262c-0.157-0.109-0.284-0.25-0.385-0.424s-0.149-0.395-0.149-0.66c0-0.52,0.154-0.906,0.465-1.16
			c0.31-0.254,0.744-0.381,1.305-0.381c0.42,0,0.773,0.041,1.06,0.121s0.536,0.166,0.75,0.26l-0.22,0.779
			c-0.18-0.086-0.395-0.17-0.645-0.254s-0.525-0.125-0.826-0.125c-0.326,0-0.569,0.053-0.729,0.16
			c-0.159,0.105-0.239,0.299-0.239,0.58c0,0.113,0.029,0.207,0.09,0.285c0.06,0.076,0.14,0.143,0.24,0.199
			c0.1,0.057,0.216,0.107,0.35,0.15c0.133,0.043,0.273,0.084,0.42,0.125c0.199,0.053,0.4,0.115,0.6,0.186
			c0.2,0.068,0.383,0.162,0.551,0.279c0.166,0.117,0.301,0.266,0.404,0.445s0.155,0.406,0.155,0.68c0,0.494-0.167,0.895-0.5,1.205
			s-0.833,0.465-1.5,0.465c-0.427,0-0.799-0.043-1.115-0.131c-0.317-0.086-0.581-0.186-0.795-0.299l0.26-0.801
			c0.187,0.1,0.427,0.201,0.72,0.301c0.294,0.1,0.59,0.15,0.891,0.15c0.326,0,0.595-0.059,0.805-0.176
			S247.199,93.674,247.199,93.355z"/>
	</g>
</g>
<g id="Guia">
</g>
</svg>
