<?xml version="1.0" encoding="utf-8"?>
<!-- Generator: Adobe Illustrator 16.0.0, SVG Export Plug-In . SVG Version: 6.00 Build 0)  -->
<!DOCTYPE svg PUBLIC "-//W3C//DTD SVG 1.1//EN" "http://www.w3.org/Graphics/SVG/1.1/DTD/svg11.dtd">
<svg version="1.1" id="Capa_1" xmlns="http://www.w3.org/2000/svg" xmlns:xlink="http://www.w3.org/1999/xlink" x="0px" y="0px"
	 width="1672px" height="396px" viewBox="0 0 1672 396" enable-background="new 0 0 1672 396" xml:space="preserve">
<g id="Soporte">
</g>
<g id="Vectores">
</g>
<g id="Imagenes">
</g>
<g id="Iconos">
	<path fill="#F9F9F9" d="M213.163,75.824c0,0-0.016,24.349,0.001,27.317l37.078-0.031c0.03-2.156-0.002-27.286-0.002-27.286
		c0-4.022-3.273-7.298-7.296-7.298h-22.485C216.437,68.526,213.163,71.801,213.163,75.824z M222.197,73.611h20.009l-10.206,9.987
		L222.197,73.611z"/>
</g>
<g id="TXT">
	<g>
		<path fill="#303841" d="M220.25,94.525c-0.221,0.16-0.5,0.271-0.84,0.334c-0.341,0.064-0.7,0.096-1.08,0.096
			c-0.447,0-0.871-0.072-1.275-0.215c-0.402-0.145-0.758-0.363-1.063-0.66c-0.307-0.297-0.552-0.674-0.73-1.131
			c-0.179-0.457-0.27-0.998-0.27-1.625c0-0.652,0.1-1.209,0.3-1.67c0.2-0.459,0.46-0.834,0.779-1.125
			c0.32-0.289,0.681-0.502,1.08-0.635c0.4-0.133,0.797-0.199,1.189-0.199c0.439,0,0.801,0.023,1.08,0.07
			c0.28,0.045,0.517,0.105,0.711,0.18l-0.221,0.859c-0.326-0.152-0.823-0.23-1.49-0.23c-0.3,0-0.592,0.049-0.875,0.146
			c-0.283,0.098-0.537,0.254-0.76,0.471c-0.225,0.217-0.402,0.5-0.535,0.85c-0.133,0.352-0.199,0.779-0.199,1.285
			c0,0.453,0.063,0.853,0.188,1.195s0.302,0.631,0.525,0.859c0.223,0.23,0.486,0.404,0.789,0.521
			c0.304,0.115,0.635,0.174,0.996,0.174c0.326,0,0.609-0.029,0.85-0.09c0.241-0.061,0.443-0.137,0.609-0.23L220.25,94.525z"/>
		<path fill="#303841" d="M223.2,90.445c-0.114-0.029-0.225-0.055-0.33-0.076c-0.106-0.023-0.206-0.035-0.301-0.035
			c-0.354,0-0.629,0.09-0.824,0.27c-0.196,0.18-0.318,0.404-0.365,0.678v3.543h-0.92v-5.25h0.64l0.181,0.701h0.091
			c0.152-0.26,0.331-0.463,0.534-0.605c0.203-0.143,0.458-0.215,0.766-0.215c0.094,0,0.203,0.008,0.33,0.025
			c0.127,0.016,0.254,0.045,0.38,0.084L223.2,90.445z"/>
		<path fill="#303841" d="M227.629,94.395c-0.233,0.174-0.523,0.313-0.87,0.416c-0.347,0.102-0.723,0.154-1.13,0.154
			c-0.44,0-0.821-0.064-1.146-0.195c-0.321-0.129-0.588-0.314-0.795-0.555c-0.206-0.24-0.358-0.529-0.459-0.871
			c-0.101-0.34-0.149-0.719-0.149-1.139c0-0.9,0.222-1.588,0.665-2.064c0.442-0.476,1.074-0.717,1.896-0.717
			c0.26,0,0.521,0.029,0.779,0.086c0.259,0.057,0.493,0.164,0.7,0.32c0.206,0.156,0.375,0.371,0.505,0.645
			c0.13,0.274,0.194,0.631,0.194,1.07c0,0.107-0.004,0.23-0.01,0.369c-0.008,0.141-0.021,0.277-0.041,0.41h-3.75
			c0.015,0.613,0.16,1.078,0.44,1.391c0.279,0.313,0.757,0.471,1.431,0.471c0.279,0,0.546-0.049,0.799-0.146
			c0.254-0.096,0.451-0.211,0.59-0.344L227.629,94.395z M226.939,91.664c0.015-0.533-0.094-0.91-0.324-1.129
			c-0.229-0.221-0.552-0.33-0.965-0.33c-0.467,0-0.837,0.109-1.109,0.33c-0.273,0.219-0.435,0.596-0.479,1.129H226.939z"/>
		<path fill="#303841" d="M232.939,93.016c0,0.34,0.005,0.658,0.017,0.953c0.01,0.297,0.041,0.59,0.095,0.875h-0.61l-0.229-0.799
			h-0.101c-0.152,0.266-0.379,0.486-0.675,0.66c-0.297,0.174-0.642,0.26-1.035,0.26c-0.753,0-1.314-0.223-1.685-0.67
			s-0.555-1.133-0.555-2.061c0-0.893,0.228-1.578,0.685-2.055c0.456-0.477,1.099-0.715,1.925-0.715c0.142,0,0.267,0.004,0.375,0.016
			c0.109,0.01,0.213,0.021,0.312,0.035c0.096,0.012,0.188,0.033,0.278,0.059c0.091,0.027,0.187,0.055,0.285,0.08v-1.83h0.92
			L232.939,93.016L232.939,93.016z M232.019,90.545c-0.154-0.113-0.32-0.191-0.498-0.234c-0.178-0.045-0.415-0.066-0.71-0.066
			c-0.544,0-0.966,0.158-1.265,0.471c-0.298,0.313-0.447,0.824-0.447,1.529c0,0.281,0.027,0.539,0.08,0.775
			c0.055,0.236,0.139,0.441,0.252,0.615c0.114,0.174,0.266,0.309,0.453,0.404c0.188,0.098,0.42,0.146,0.695,0.146
			c0.408,0,0.729-0.102,0.956-0.307c0.229-0.203,0.39-0.504,0.482-0.904L232.019,90.545L232.019,90.545z"/>
		<path fill="#303841" d="M233.9,88.324c0-0.152,0.06-0.291,0.181-0.414c0.118-0.123,0.275-0.186,0.47-0.186
			s0.353,0.063,0.479,0.186c0.126,0.123,0.19,0.262,0.19,0.414c0,0.154-0.063,0.289-0.19,0.406
			c-0.127,0.115-0.285,0.174-0.479,0.174s-0.352-0.059-0.47-0.174C233.958,88.613,233.9,88.479,233.9,88.324z M234.089,89.574h0.92
			v5.25h-0.92V89.574z"/>
		<path fill="#303841" d="M235.459,89.574h0.89v-1.059l0.92-0.24v1.299h1.58v0.781h-1.58v2.68c0,0.42,0.054,0.717,0.16,0.889
			c0.106,0.174,0.29,0.262,0.55,0.262c0.167,0,0.318-0.02,0.455-0.057c0.137-0.035,0.292-0.084,0.466-0.145l0.209,0.65
			c-0.213,0.094-0.44,0.172-0.685,0.234c-0.243,0.064-0.505,0.096-0.785,0.096c-0.467,0-0.798-0.127-0.995-0.381
			c-0.196-0.252-0.295-0.666-0.295-1.24v-2.988h-0.89V89.574z"/>
		<path fill="#303841" d="M238.859,92.205c0-0.434,0.058-0.822,0.17-1.166c0.113-0.342,0.28-0.635,0.5-0.875
			c0.222-0.24,0.488-0.422,0.807-0.549c0.315-0.127,0.679-0.191,1.085-0.191c0.426,0,0.8,0.07,1.119,0.211
			c0.319,0.141,0.588,0.334,0.801,0.584s0.371,0.545,0.475,0.881c0.104,0.336,0.155,0.705,0.155,1.105
			c0,0.426-0.059,0.811-0.175,1.15c-0.117,0.34-0.283,0.629-0.5,0.869c-0.217,0.24-0.483,0.424-0.801,0.551
			c-0.316,0.125-0.675,0.189-1.074,0.189c-0.439,0-0.82-0.07-1.142-0.211c-0.318-0.139-0.584-0.332-0.795-0.58
			c-0.209-0.246-0.365-0.537-0.47-0.875C238.911,92.963,238.859,92.598,238.859,92.205z M239.859,92.205
			c0,0.246,0.028,0.488,0.084,0.725c0.058,0.236,0.146,0.449,0.271,0.635c0.125,0.188,0.287,0.338,0.483,0.451
			c0.197,0.113,0.441,0.17,0.73,0.17c1.027,0,1.54-0.66,1.54-1.98c0-0.26-0.028-0.51-0.084-0.75
			c-0.056-0.24-0.146-0.451-0.268-0.635c-0.12-0.184-0.28-0.332-0.479-0.445s-0.435-0.17-0.711-0.17
			c-0.514,0-0.903,0.164-1.17,0.494C239.99,91.03,239.859,91.531,239.859,92.205z"/>
		<path fill="#303841" d="M247.198,93.355c0-0.135-0.03-0.246-0.094-0.336s-0.147-0.166-0.256-0.23
			c-0.105-0.063-0.229-0.117-0.369-0.164s-0.287-0.094-0.439-0.141c-0.193-0.053-0.39-0.111-0.585-0.174
			c-0.197-0.064-0.373-0.15-0.53-0.262c-0.157-0.109-0.284-0.25-0.385-0.424c-0.102-0.174-0.149-0.395-0.149-0.66
			c0-0.52,0.154-0.906,0.465-1.16s0.744-0.381,1.306-0.381c0.42,0,0.772,0.041,1.06,0.121s0.536,0.166,0.75,0.26l-0.22,0.779
			c-0.181-0.086-0.396-0.17-0.646-0.254s-0.524-0.125-0.826-0.125c-0.325,0-0.568,0.053-0.729,0.16
			c-0.159,0.105-0.239,0.299-0.239,0.58c0,0.113,0.029,0.207,0.09,0.285c0.061,0.076,0.141,0.143,0.24,0.199
			c0.101,0.057,0.216,0.107,0.351,0.15c0.133,0.043,0.272,0.084,0.42,0.125c0.198,0.053,0.399,0.115,0.6,0.186
			c0.2,0.068,0.383,0.162,0.551,0.279c0.166,0.117,0.301,0.266,0.404,0.445c0.103,0.179,0.155,0.406,0.155,0.68
			c0,0.494-0.167,0.895-0.5,1.205s-0.833,0.465-1.5,0.465c-0.428,0-0.8-0.043-1.115-0.131c-0.317-0.086-0.581-0.186-0.795-0.299
			l0.26-0.801c0.188,0.1,0.427,0.201,0.72,0.301c0.294,0.101,0.59,0.15,0.892,0.15c0.326,0,0.595-0.059,0.805-0.176
			C247.098,93.89,247.198,93.674,247.198,93.355z"/>
	</g>
</g>
<g id="Guia">
</g>
</svg>
