<?xml version="1.0" encoding="utf-8"?>
<!-- Generator: Adobe Illustrator 16.0.0, SVG Export Plug-In . SVG Version: 6.00 Build 0)  -->
<!DOCTYPE svg PUBLIC "-//W3C//DTD SVG 1.1//EN" "http://www.w3.org/Graphics/SVG/1.1/DTD/svg11.dtd">
<svg version="1.1" id="Capa_1" xmlns="http://www.w3.org/2000/svg" xmlns:xlink="http://www.w3.org/1999/xlink" x="0px" y="0px"
	 width="209.702px" height="147.631px" viewBox="0 0 209.702 147.631" enable-background="new 0 0 209.702 147.631"
	 xml:space="preserve">
<g id="Soporte">
</g>
<g id="Vectores">
</g>
<g id="Imagenes">
</g>
<g id="Iconos">
	<rect x="40.746" y="13.335" fill="#303841" width="146.413" height="36.75"/>
	<path fill="#FFFFFF" d="M46.36,78.861H31.228c-2.389,0-4.333,1.945-4.333,4.332v15.135c0,2.389,1.944,4.331,4.333,4.331h6.941
		v-9.841h-2.034v-3.394h2.034v-2.036c0-2.768,1.149-4.412,4.413-4.412h2.717v3.393h-1.696c-1.271,0-1.356,0.475-1.356,1.357
		l-0.004,1.698h3.076l-0.359,3.394h-2.717v9.841h4.118c2.39,0,4.334-1.942,4.334-4.331V83.193
		C50.694,80.806,48.75,78.861,46.36,78.861z"/>
	<path fill="#FFFFFF" d="M46.044,108.492H30.912c-2.389,0-4.333,1.945-4.333,4.332v15.135c0,2.389,1.944,4.331,4.333,4.331h15.132
		c2.39,0,4.334-1.942,4.334-4.331v-15.135C50.378,110.437,48.434,108.492,46.044,108.492z M44.833,117.132
		c0.006,0.141,0.009,0.283,0.009,0.426c0,4.332-3.296,9.328-9.326,9.328c-1.854,0-3.576-0.544-5.026-1.474
		c0.257,0.029,0.519,0.045,0.782,0.045c1.535,0,2.949-0.523,4.072-1.401c-1.437-0.026-2.646-0.976-3.063-2.277
		c0.2,0.037,0.405,0.058,0.616,0.058c0.3,0,0.589-0.037,0.863-0.113c-1.498-0.301-2.631-1.626-2.631-3.216
		c0-0.014,0-0.027,0.001-0.04c0.441,0.246,0.946,0.394,1.484,0.41c-0.88-0.589-1.458-1.593-1.458-2.729
		c0-0.599,0.162-1.162,0.443-1.646c1.615,1.982,4.033,3.289,6.758,3.425c-0.057-0.239-0.086-0.489-0.086-0.747
		c0-1.811,1.469-3.279,3.279-3.279c0.942,0,1.795,0.4,2.394,1.037c0.747-0.146,1.448-0.42,2.083-0.797
		c-0.246,0.77-0.766,1.41-1.443,1.812c0.664-0.076,1.295-0.254,1.885-0.514C46.028,116.092,45.473,116.671,44.833,117.132z"/>
	<g>
		
			<image overflow="visible" opacity="0.75" enable-background="new    " width="68" height="68" xlink:href="B2807437A3CC7950.png"  transform="matrix(1 0 0 1 5.6675 -2.6641)">
		</image>
		<g>
			<circle fill="#FFFEFD" cx="39.841" cy="31.71" r="18.375"/>
		</g>
	</g>
	<g>
		
			<polyline fill="none" stroke="#303841" stroke-width="3" stroke-linecap="round" stroke-linejoin="round" stroke-miterlimit="10" points="
			45.283,41.664 29.674,31.505 45.283,21.347 		"/>
		<circle fill="#303841" cx="45.225" cy="21.227" r="3.108"/>
		<circle fill="#303841" cx="45.225" cy="41.637" r="3.108"/>
		<circle fill="#303841" cx="30.004" cy="31.549" r="3.109"/>
	</g>
</g>
<g id="TXT">
</g>
<g id="Guia">
</g>
</svg>
