<?xml version="1.0" encoding="utf-8"?>
<!-- Generator: Adobe Illustrator 16.0.0, SVG Export Plug-In . SVG Version: 6.00 Build 0)  -->
<!DOCTYPE svg PUBLIC "-//W3C//DTD SVG 1.1//EN" "http://www.w3.org/Graphics/SVG/1.1/DTD/svg11.dtd">
<svg version="1.1" xmlns="http://www.w3.org/2000/svg" xmlns:xlink="http://www.w3.org/1999/xlink" x="0px" y="0px"
	 width="147.496px" height="34.667px" viewBox="0 0 147.496 34.667" enable-background="new 0 0 147.496 34.667"
	 xml:space="preserve">
<g id="Soporte">
	<rect x="-403.507" y="-5416.332" fill="#DBCCBA" width="1600" height="780"/>
	<rect x="-403.507" y="-3592.332" fill="#DBCCBA" width="1600" height="780"/>
	<rect x="-403.507" y="-2812.332" fill="#DBCCBA" width="1600" height="780"/>
	<rect x="-403.507" y="-2032.338" fill="#493E3A" width="1600" height="780"/>
	<rect x="-403.507" y="-144.163" fill="#493E3A" width="1600" height="47.5"/>
	<rect x="-403.507" y="209.836" fill="#493E3A" width="1600" height="234.5"/>
	<path fill="#493E3A" d="M-524.507-1565.332c0,4.418-3.582,8-8,8h-98c-4.418,0-8-3.582-8-8v-98c0-4.418,3.582-8,8-8h98
		c4.418,0,8,3.582,8,8V-1565.332z"/>
	<polygon fill="#DBCCBA" points="-279.116,-1642.02 -279.116,-1598.719 -316.21,-1620.369 -353.507,-1642.02 -316.312,-1663.67 
		-279.116,-1685.32 	"/>
	<polygon fill="#DBCCBA" points="1072.422,-1642.021 1072.422,-1685.321 1109.516,-1663.671 1146.813,-1642.021 1109.617,-1620.37 
		1072.422,-1598.72 	"/>
</g>
<g id="Vectores">
	<rect x="-103.507" y="-5331.332" fill="#493E3A" width="302" height="360"/>
	<rect x="244.493" y="-5331.332" fill="#493E3A" width="302" height="360"/>
	<rect x="-88.507" y="-3469.332" fill="#493E3A" width="464" height="488"/>
	<rect x="412.493" y="-3471.332" fill="#493E3A" width="464" height="488"/>
	<rect x="-103.507" y="-4894.332" fill="#493E3A" width="999" height="167"/>
	<rect x="593.493" y="-5331.332" fill="#493E3A" width="302" height="360"/>
	
		<line fill="none" stroke="#DBCCBA" stroke-width="5" stroke-linecap="round" stroke-miterlimit="10" stroke-dasharray="2,20" x1="-279.384" y1="-1641.865" x2="1073.549" y2="-1641.332"/>
</g>
<g id="Imagenes">
	<rect x="-104.377" y="-6819.141" fill="none" width="1000.45" height="145.493"/>
	<text transform="matrix(1 0 0 1 -104.377 -6810.6211)" font-family="'MyriadPro-Regular'" font-size="12">fdafdafdasfdsafdsafdasfdafdafda</text>
	<g>
		<defs>
			<rect id="SVGID_1_" x="-403.507" y="-4636.332" width="1600" height="1045"/>
		</defs>
		<clipPath id="SVGID_2_">
			<use xlink:href="#SVGID_1_"  overflow="visible"/>
		</clipPath>
	</g>
	<g>
		<defs>
			<rect id="SVGID_3_" x="2601.493" y="-4531.332" width="534" height="454"/>
		</defs>
		<clipPath id="SVGID_4_">
			<use xlink:href="#SVGID_3_"  overflow="visible"/>
		</clipPath>
	</g>
	<g>
		<defs>
			<rect id="SVGID_5_" x="3135.493" y="-4531.332" width="533" height="454"/>
		</defs>
		<clipPath id="SVGID_6_">
			<use xlink:href="#SVGID_5_"  overflow="visible"/>
		</clipPath>
	</g>
	<g>
		<defs>
			<rect id="SVGID_7_" x="2068.493" y="-4077.332" width="533" height="454"/>
		</defs>
		<clipPath id="SVGID_8_">
			<use xlink:href="#SVGID_7_"  overflow="visible"/>
		</clipPath>
	</g>
	<g>
		<defs>
			<rect id="SVGID_9_" x="2601.493" y="-4077.332" width="534" height="454"/>
		</defs>
		<clipPath id="SVGID_10_">
			<use xlink:href="#SVGID_9_"  overflow="visible"/>
		</clipPath>
	</g>
	<g>
		<defs>
			<rect id="SVGID_11_" x="3135.493" y="-4077.332" width="533" height="454"/>
		</defs>
		<clipPath id="SVGID_12_">
			<use xlink:href="#SVGID_11_"  overflow="visible"/>
		</clipPath>
	</g>
	<rect x="-403.507" y="-4636.332" opacity="0.3" width="1600" height="1045"/>
	<rect x="3135.493" y="-4531.332" opacity="0.3" width="533" height="454"/>
	<rect x="2068.493" y="-4077.332" opacity="0.3" width="533" height="454"/>
	<rect x="2601.493" y="-4077.332" opacity="0.3" width="534" height="454"/>
	<rect x="3135.493" y="-4077.332" opacity="0.3" width="533" height="454"/>
	<g>
		<defs>
			<rect id="SVGID_13_" x="-103.507" y="-5331.396" width="301.979" height="212.439"/>
		</defs>
		<clipPath id="SVGID_14_">
			<use xlink:href="#SVGID_13_"  overflow="visible"/>
		</clipPath>
	</g>
	<g>
		<defs>
			<rect id="SVGID_15_" x="593.493" y="-5331.396" width="301.979" height="212.439"/>
		</defs>
		<clipPath id="SVGID_16_">
			<use xlink:href="#SVGID_15_"  overflow="visible"/>
		</clipPath>
	</g>
	<g>
		<defs>
			<rect id="SVGID_17_" x="-88.507" y="-3469.332" width="232" height="192"/>
		</defs>
		<clipPath id="SVGID_18_">
			<use xlink:href="#SVGID_17_"  overflow="visible"/>
		</clipPath>
	</g>
	<g>
		<defs>
			<rect id="SVGID_19_" x="-88.507" y="-3277.487" width="231.886" height="191.841"/>
		</defs>
		<clipPath id="SVGID_20_">
			<use xlink:href="#SVGID_19_"  overflow="visible"/>
		</clipPath>
	</g>
	<g>
		<defs>
			<rect id="SVGID_21_" x="143.493" y="-3469.332" width="232" height="192"/>
		</defs>
		<clipPath id="SVGID_22_">
			<use xlink:href="#SVGID_21_"  overflow="visible"/>
		</clipPath>
	</g>
	<g>
		<defs>
			<rect id="SVGID_23_" x="143.379" y="-3277.487" width="231.887" height="191.841"/>
		</defs>
		<clipPath id="SVGID_24_">
			<use xlink:href="#SVGID_23_"  overflow="visible"/>
		</clipPath>
	</g>
	<g>
		<defs>
			<rect id="SVGID_25_" x="412.493" y="-3471.332" width="232" height="192"/>
		</defs>
		<clipPath id="SVGID_26_">
			<use xlink:href="#SVGID_25_"  overflow="visible"/>
		</clipPath>
	</g>
	<g>
		<defs>
			<rect id="SVGID_27_" x="412.493" y="-3279.487" width="231.886" height="191.841"/>
		</defs>
		<clipPath id="SVGID_28_">
			<use xlink:href="#SVGID_27_"  overflow="visible"/>
		</clipPath>
	</g>
	<g>
		<defs>
			<rect id="SVGID_29_" x="644.493" y="-3471.332" width="232" height="192"/>
		</defs>
		<clipPath id="SVGID_30_">
			<use xlink:href="#SVGID_29_"  overflow="visible"/>
		</clipPath>
	</g>
	<g>
		<defs>
			<rect id="SVGID_31_" x="644.379" y="-3279.487" width="231.887" height="191.841"/>
		</defs>
		<clipPath id="SVGID_32_">
			<use xlink:href="#SVGID_31_"  overflow="visible"/>
		</clipPath>
	</g>
	<g>
		<defs>
			<rect id="SVGID_33_" x="-403.507" y="-6594.332" width="1600" height="1180"/>
		</defs>
		<clipPath id="SVGID_34_">
			<use xlink:href="#SVGID_33_"  overflow="visible"/>
		</clipPath>
	</g>
</g>
<g id="Iconos">
	<g>
		<path fill="#DBCCBA" d="M808.214-107.738h-9.518c-3.642,0-6.622-2.979-6.622-6.621v-10.143c0-3.642,2.98-6.621,6.622-6.621h9.518
			c3.643,0,6.622,2.979,6.622,6.621v10.143C814.836-110.718,811.856-107.738,808.214-107.738 M808.214-109.487
			c1.294,0,2.516-0.509,3.44-1.433c0.923-0.924,1.432-2.146,1.432-3.439v-10.143c0-1.294-0.509-2.516-1.432-3.439
			c-0.925-0.923-2.146-1.432-3.44-1.432h-9.518c-1.295,0-2.517,0.509-3.44,1.432c-0.923,0.924-1.432,2.146-1.432,3.439v10.143
			c0,1.294,0.509,2.516,1.432,3.439c0.924,0.924,2.146,1.433,3.44,1.433H808.214z"/>
		<path fill="#DBCCBA" d="M809.758-119.521c0,3.461-2.806,6.268-6.268,6.268s-6.268-2.807-6.268-6.268
			c0-3.462,2.806-6.269,6.268-6.269S809.758-122.982,809.758-119.521 M803.461-123.621c-2.268,0-4.105,1.839-4.105,4.105
			c0,2.268,1.838,4.104,4.105,4.104c2.267,0,4.104-1.837,4.104-4.104C807.564-121.782,805.728-123.621,803.461-123.621"/>
		<path fill="#DBCCBA" d="M811.343-125.886c0,0.818-0.665,1.484-1.484,1.484s-1.483-0.666-1.483-1.484
			c0-0.819,0.664-1.485,1.483-1.485S811.343-126.705,811.343-125.886"/>
	</g>
	<path fill="#DBCCBA" d="M746.729-131.33h-15.132c-2.389,0-4.333,1.944-4.333,4.332v15.134c0,2.389,1.944,4.332,4.333,4.332h6.941
		v-9.841h-2.034v-3.394h2.034v-2.036c0-2.768,1.149-4.413,4.413-4.413h2.717v3.393h-1.697c-1.271,0-1.356,0.475-1.356,1.357
		l-0.005,1.699h3.077l-0.359,3.394h-2.718v9.841h4.119c2.389,0,4.334-1.943,4.334-4.332v-15.134
		C751.063-129.386,749.117-131.33,746.729-131.33z"/>
	<path fill="#DBCCBA" d="M779.479-131.33h-15.132c-2.389,0-4.333,1.944-4.333,4.332v15.134c0,2.389,1.944,4.332,4.333,4.332h15.132
		c2.389,0,4.334-1.943,4.334-4.332v-15.134C783.813-129.386,781.867-131.33,779.479-131.33z M778.268-122.69
		c0.006,0.141,0.009,0.283,0.009,0.426c0,4.332-3.296,9.328-9.327,9.328c-1.853,0-3.576-0.544-5.026-1.474
		c0.257,0.03,0.518,0.045,0.782,0.045c1.536,0,2.95-0.523,4.072-1.401c-1.436-0.027-2.646-0.975-3.063-2.278
		c0.2,0.038,0.405,0.058,0.617,0.058c0.299,0,0.588-0.038,0.863-0.113c-1.499-0.301-2.631-1.626-2.631-3.216
		c0-0.013,0-0.027,0.001-0.04c0.441,0.246,0.946,0.393,1.484,0.41c-0.88-0.589-1.458-1.592-1.458-2.729
		c0-0.6,0.162-1.163,0.444-1.647c1.615,1.982,4.032,3.29,6.757,3.425c-0.056-0.239-0.085-0.49-0.085-0.747
		c0-1.81,1.468-3.279,3.278-3.279c0.943,0,1.796,0.399,2.394,1.037c0.747-0.147,1.448-0.42,2.083-0.797
		c-0.246,0.769-0.766,1.409-1.443,1.813c0.664-0.077,1.295-0.255,1.884-0.515C779.463-123.729,778.907-123.151,778.268-122.69z"/>
	<path fill="#DBCCBA" d="M843.962-131.33H828.83c-2.389,0-4.333,1.944-4.333,4.332v15.134c0,2.389,1.944,4.332,4.333,4.332h15.132
		c2.389,0,4.334-1.943,4.334-4.332v-15.134C848.296-129.386,846.351-131.33,843.962-131.33z M833.426-113.491v-11.881l8.94,5.94
		L833.426-113.491z"/>
	<path fill="#DBCCBA" d="M859.414-123.993c0,0-0.015,24.349,0.001,27.317l37.078-0.031c0.031-2.156-0.001-27.286-0.001-27.286
		c0-4.023-3.274-7.298-7.296-7.298H866.71C862.688-131.291,859.414-128.017,859.414-123.993z M888.456-116.218h-20.008l10.206-9.987
		L888.456-116.218z"/>
	<g>
		<g>
			<path fill="#DBCCBA" d="M-5.8-128.66c-0.076-0.096,0.035-0.305,0.248-0.51c0.322-0.311,2.537-2.537,3.422-3.422
				c0.223-0.223,0.975-0.674,1.713,0.35c0.893,1.24,0.088,1.85,0,1.885c-1.18,0.465-4.889,1.682-4.889,1.682
				S-5.7-128.535-5.8-128.66z"/>
			<rect x="-102.821" y="-133.197" fill="#DBCCBA" width="5.109" height="17.102"/>
			<path fill="#DBCCBA" d="M-84.595-123.92c-0.107-2.168-1.435-4.514-6.338-4.574c-3.645-0.047-4.761,1.779-5.104,2.846
				c-0.08,0.182-0.123,0.381-0.141,0.588c-0.014,0.1-0.016,0.158-0.016,0.158c0,1.025,0.817,1.859,1.826,1.859
				c1.008,0,1.825-0.834,1.825-1.859c0-0.439-0.155-0.836-0.405-1.154h0.002c0,0-0.683-0.898,1.563-0.707
				c1.805,0.154,2.033,2.09,2.054,2.844h-0.002v2.287c-0.808-0.668-1.944-1.09-3.211-1.09c-2.446,0-4.429,1.549-4.429,3.463
				c0,1.912,1.982,3.463,4.429,3.463c1.267,0,2.403-0.422,3.211-1.09v0.791h4.745v-7.824H-84.595z M-92.541-116.824
				c-1.349,0-2.441-1.018-2.441-2.275s1.093-2.277,2.441-2.277s2.44,1.02,2.44,2.277S-91.192-116.824-92.541-116.824z"/>
			<path fill="#DBCCBA" d="M-69.515-127.854c-3.941,0-7.139,2.814-7.139,6.285s3.197,6.285,7.139,6.285
				c3.943,0,7.141-2.814,7.141-6.285S-65.571-127.854-69.515-127.854z M-69.515-116.652c-1.795,0-3.25-2.201-3.25-4.916
				s1.455-4.918,3.25-4.918s3.25,2.203,3.25,4.918S-67.72-116.652-69.515-116.652z"/>
			<path fill="#DBCCBA" d="M-3.312-127.854c-3.943,0-7.141,2.814-7.141,6.285s3.197,6.285,7.141,6.285
				c3.941,0,7.139-2.814,7.139-6.285S0.63-127.854-3.312-127.854z M-3.312-116.652c-1.795,0-3.25-2.201-3.25-4.916
				s1.455-4.918,3.25-4.918c1.793,0,3.248,2.203,3.248,4.918S-1.519-116.652-3.312-116.652z"/>
			<path fill="#DBCCBA" d="M-51.11-127.684c-1.654,0-3.172,0.496-4.381,1.32v-2.002h-5.9v22.701h5.9v-10.941
				c1.209,0.826,2.727,1.322,4.381,1.322c3.932,0,7.119-2.775,7.119-6.201C-43.991-124.908-47.179-127.684-51.11-127.684z
				 M-53.312-116.824c-0.82,0-1.57-0.346-2.18-0.908v-7.074c0.609-0.563,1.359-0.908,2.18-0.908c2.008,0,3.635,1.99,3.635,4.445
				S-51.304-116.824-53.312-116.824z"/>
			<rect x="-43.265" y="-128.238" fill="#DBCCBA" width="5.516" height="12.014"/>
			<path fill="#DBCCBA" d="M-37.685-131.957c0.512,1.232-0.707,2.166-2.334,2.76c-1.84,0.67-3.289,0.197-3.523-0.564
				c-0.213-0.693,0.529-1.844,2.229-2.596C-39.729-133.061-38.124-133.016-37.685-131.957z"/>
			<rect x="-17.099" y="-128.238" fill="#DBCCBA" width="5.516" height="12.014"/>
			<path fill="#DBCCBA" d="M-11.521-131.957c0.512,1.232-0.705,2.166-2.334,2.76c-1.84,0.67-3.289,0.197-3.523-0.564
				c-0.213-0.693,0.529-1.844,2.229-2.596C-13.563-133.061-11.958-133.016-11.521-131.957z"/>
			<path fill="#DBCCBA" d="M-19.671-124.93c-0.178-2.236-2.42-2.371-5.125-2.41c-2.262-0.035-4.826,1.146-5.855,1.672v-2.57h-5.516
				v12.014h5.516v-7.396c0.596-0.596,1.711-1.514,3.076-1.668c2.096-0.234,2.367,1.686,2.396,2.418v6.646h5.514v-8.705H-19.671z"/>
			<path fill="#DBCCBA" d="M21.692-124.93c-0.178-2.236-2.42-2.371-5.125-2.41c-2.262-0.035-4.826,1.146-5.857,1.672v-2.57H5.196
				v12.014h5.514v-7.396c0.596-0.596,1.713-1.514,3.078-1.668c2.096-0.234,2.367,1.686,2.396,2.418v6.646h5.514v-8.705H21.692z"/>
		</g>
	</g>
	<g>
		<g>
			<path fill="#DBCCBA" d="M108.469,9.006c-0.076-0.096,0.035-0.305,0.248-0.51c0.322-0.311,2.537-2.537,3.422-3.422
				c0.223-0.223,0.975-0.674,1.713,0.35c0.893,1.24,0.088,1.85,0,1.885c-1.18,0.465-4.889,1.682-4.889,1.682
				S108.568,9.131,108.469,9.006z"/>
			<rect x="11.447" y="4.469" fill="#DBCCBA" width="5.109" height="17.102"/>
			<path fill="#DBCCBA" d="M29.674,13.746c-0.107-2.168-1.435-4.514-6.338-4.574c-3.645-0.047-4.761,1.779-5.104,2.846
				c-0.08,0.182-0.123,0.381-0.141,0.588c-0.014,0.1-0.016,0.158-0.016,0.158c0,1.025,0.817,1.859,1.826,1.859
				c1.008,0,1.825-0.834,1.825-1.859c0-0.439-0.155-0.836-0.405-1.154h0.002c0,0-0.683-0.898,1.563-0.707
				c1.805,0.154,2.033,2.09,2.054,2.844h-0.002v2.287c-0.808-0.668-1.944-1.09-3.211-1.09c-2.446,0-4.429,1.549-4.429,3.463
				c0,1.912,1.982,3.463,4.429,3.463c1.267,0,2.403-0.422,3.211-1.09v0.791h4.745v-7.824H29.674z M21.728,20.842
				c-1.349,0-2.441-1.018-2.441-2.275s1.093-2.277,2.441-2.277s2.44,1.02,2.44,2.277S23.076,20.842,21.728,20.842z"/>
			<path fill="#DBCCBA" d="M44.754,9.813c-3.941,0-7.139,2.814-7.139,6.285s3.197,6.285,7.139,6.285
				c3.943,0,7.141-2.814,7.141-6.285S48.697,9.813,44.754,9.813z M44.754,21.014c-1.795,0-3.25-2.201-3.25-4.916
				s1.455-4.918,3.25-4.918s3.25,2.203,3.25,4.918S46.549,21.014,44.754,21.014z"/>
			<path fill="#DBCCBA" d="M110.957,9.813c-3.943,0-7.141,2.814-7.141,6.285s3.197,6.285,7.141,6.285
				c3.941,0,7.139-2.814,7.139-6.285S114.898,9.813,110.957,9.813z M110.957,21.014c-1.795,0-3.25-2.201-3.25-4.916
				s1.455-4.918,3.25-4.918c1.793,0,3.248,2.203,3.248,4.918S112.75,21.014,110.957,21.014z"/>
			<path fill="#DBCCBA" d="M63.158,9.982c-1.654,0-3.172,0.496-4.381,1.32V9.301h-5.9v22.701h5.9V21.061
				c1.209,0.826,2.727,1.322,4.381,1.322c3.932,0,7.119-2.775,7.119-6.201C70.277,12.758,67.09,9.982,63.158,9.982z M60.957,20.842
				c-0.82,0-1.57-0.346-2.18-0.908v-7.074c0.609-0.563,1.359-0.908,2.18-0.908c2.008,0,3.635,1.99,3.635,4.445
				S62.965,20.842,60.957,20.842z"/>
			<rect x="71.004" y="9.428" fill="#DBCCBA" width="5.516" height="12.014"/>
			<path fill="#DBCCBA" d="M76.584,5.709c0.512,1.232-0.707,2.166-2.334,2.76c-1.84,0.67-3.289,0.197-3.523-0.564
				c-0.213-0.693,0.529-1.844,2.229-2.596C74.539,4.605,76.145,4.65,76.584,5.709z"/>
			<rect x="97.17" y="9.428" fill="#DBCCBA" width="5.516" height="12.014"/>
			<path fill="#DBCCBA" d="M102.748,5.709c0.512,1.232-0.705,2.166-2.334,2.76c-1.84,0.67-3.289,0.197-3.523-0.564
				c-0.213-0.693,0.529-1.844,2.229-2.596C100.705,4.605,102.311,4.65,102.748,5.709z"/>
			<path fill="#DBCCBA" d="M94.598,12.736c-0.178-2.236-2.42-2.371-5.125-2.41c-2.262-0.035-4.826,1.146-5.855,1.672v-2.57h-5.516
				v12.014h5.516v-7.396c0.596-0.596,1.711-1.514,3.076-1.668c2.096-0.234,2.367,1.686,2.396,2.418v6.646h5.514v-8.705H94.598z"/>
			<path fill="#DBCCBA" d="M135.961,12.736c-0.178-2.236-2.42-2.371-5.125-2.41c-2.262-0.035-4.826,1.146-5.857,1.672v-2.57h-5.514
				v12.014h5.514v-7.396c0.596-0.596,1.713-1.514,3.078-1.668c2.096-0.234,2.367,1.686,2.396,2.418v6.646h5.514v-8.705H135.961z"/>
		</g>
	</g>
	<g>
		<path fill="#DBCCBA" d="M808.214,246.262h-9.518c-3.642,0-6.622-2.979-6.622-6.621v-10.143c0-3.642,2.98-6.621,6.622-6.621h9.518
			c3.643,0,6.622,2.979,6.622,6.621v10.143C814.836,243.282,811.856,246.262,808.214,246.262 M808.214,244.513
			c1.294,0,2.516-0.509,3.44-1.433c0.923-0.924,1.432-2.146,1.432-3.439v-10.143c0-1.294-0.509-2.516-1.432-3.439
			c-0.925-0.923-2.146-1.432-3.44-1.432h-9.518c-1.295,0-2.517,0.509-3.44,1.432c-0.923,0.924-1.432,2.146-1.432,3.439v10.143
			c0,1.294,0.509,2.516,1.432,3.439c0.924,0.924,2.146,1.433,3.44,1.433H808.214z"/>
		<path fill="#DBCCBA" d="M809.758,234.479c0,3.461-2.806,6.268-6.268,6.268s-6.268-2.807-6.268-6.268
			c0-3.462,2.806-6.269,6.268-6.269S809.758,231.018,809.758,234.479 M803.461,230.379c-2.268,0-4.105,1.839-4.105,4.105
			c0,2.268,1.838,4.104,4.105,4.104c2.267,0,4.104-1.837,4.104-4.104C807.564,232.218,805.728,230.379,803.461,230.379"/>
		<path fill="#DBCCBA" d="M811.343,228.114c0,0.818-0.665,1.484-1.484,1.484s-1.483-0.666-1.483-1.484
			c0-0.819,0.664-1.485,1.483-1.485S811.343,227.295,811.343,228.114"/>
	</g>
	<path fill="#DBCCBA" d="M746.729,222.67h-15.132c-2.389,0-4.333,1.944-4.333,4.332v15.134c0,2.389,1.944,4.332,4.333,4.332h6.941
		v-9.841h-2.034v-3.394h2.034v-2.036c0-2.768,1.149-4.413,4.413-4.413h2.717v3.393h-1.697c-1.271,0-1.356,0.475-1.356,1.357
		l-0.005,1.699h3.077l-0.359,3.394h-2.718v9.841h4.119c2.389,0,4.334-1.943,4.334-4.332v-15.134
		C751.063,224.614,749.117,222.67,746.729,222.67z"/>
	<path fill="#DBCCBA" d="M779.479,222.67h-15.132c-2.389,0-4.333,1.944-4.333,4.332v15.134c0,2.389,1.944,4.332,4.333,4.332h15.132
		c2.389,0,4.334-1.943,4.334-4.332v-15.134C783.813,224.614,781.867,222.67,779.479,222.67z M778.268,231.31
		c0.006,0.141,0.009,0.283,0.009,0.426c0,4.332-3.296,9.328-9.327,9.328c-1.853,0-3.576-0.544-5.026-1.474
		c0.257,0.03,0.518,0.045,0.782,0.045c1.536,0,2.95-0.523,4.072-1.401c-1.436-0.027-2.646-0.975-3.063-2.278
		c0.2,0.038,0.405,0.058,0.617,0.058c0.299,0,0.588-0.038,0.863-0.113c-1.499-0.301-2.631-1.626-2.631-3.216
		c0-0.013,0-0.027,0.001-0.04c0.441,0.246,0.946,0.393,1.484,0.41c-0.88-0.589-1.458-1.592-1.458-2.729
		c0-0.6,0.162-1.163,0.444-1.647c1.615,1.982,4.032,3.29,6.757,3.425c-0.056-0.239-0.085-0.49-0.085-0.747
		c0-1.81,1.468-3.279,3.278-3.279c0.943,0,1.796,0.399,2.394,1.037c0.747-0.147,1.448-0.42,2.083-0.797
		c-0.246,0.769-0.766,1.409-1.443,1.813c0.664-0.077,1.295-0.255,1.884-0.515C779.463,230.271,778.907,230.849,778.268,231.31z"/>
	<path fill="#DBCCBA" d="M843.962,222.67H828.83c-2.389,0-4.333,1.944-4.333,4.332v15.134c0,2.389,1.944,4.332,4.333,4.332h15.132
		c2.389,0,4.334-1.943,4.334-4.332v-15.134C848.296,224.614,846.351,222.67,843.962,222.67z M833.426,240.509v-11.881l8.94,5.94
		L833.426,240.509z"/>
	<path fill="#DBCCBA" d="M859.414,230.007c0,0-0.015,24.349,0.001,27.317l37.078-0.031c0.031-2.156-0.001-27.286-0.001-27.286
		c0-4.023-3.274-7.298-7.296-7.298H866.71C862.688,222.709,859.414,225.983,859.414,230.007z M888.456,237.782h-20.008l10.206-9.987
		L888.456,237.782z"/>
	<g>
		<g>
			<path fill="#DBCCBA" d="M-5.8,225.34c-0.076-0.096,0.035-0.305,0.248-0.51c0.322-0.311,2.537-2.537,3.422-3.422
				c0.223-0.223,0.975-0.674,1.713,0.35c0.893,1.24,0.088,1.85,0,1.885c-1.18,0.465-4.889,1.682-4.889,1.682
				S-5.7,225.465-5.8,225.34z"/>
			<rect x="-102.821" y="220.803" fill="#DBCCBA" width="5.109" height="17.102"/>
			<path fill="#DBCCBA" d="M-84.595,230.08c-0.107-2.168-1.435-4.514-6.338-4.574c-3.645-0.047-4.761,1.779-5.104,2.846
				c-0.08,0.182-0.123,0.381-0.141,0.588c-0.014,0.1-0.016,0.158-0.016,0.158c0,1.025,0.817,1.859,1.826,1.859
				c1.008,0,1.825-0.834,1.825-1.859c0-0.439-0.155-0.836-0.405-1.154h0.002c0,0-0.683-0.898,1.563-0.707
				c1.805,0.154,2.033,2.09,2.054,2.844h-0.002v2.287c-0.808-0.668-1.944-1.09-3.211-1.09c-2.446,0-4.429,1.549-4.429,3.463
				c0,1.912,1.982,3.463,4.429,3.463c1.267,0,2.403-0.422,3.211-1.09v0.791h4.745v-7.824H-84.595z M-92.541,237.176
				c-1.349,0-2.441-1.018-2.441-2.275s1.093-2.277,2.441-2.277s2.44,1.02,2.44,2.277S-91.192,237.176-92.541,237.176z"/>
			<path fill="#DBCCBA" d="M-69.515,226.146c-3.941,0-7.139,2.814-7.139,6.285s3.197,6.285,7.139,6.285
				c3.943,0,7.141-2.814,7.141-6.285S-65.571,226.146-69.515,226.146z M-69.515,237.348c-1.795,0-3.25-2.201-3.25-4.916
				s1.455-4.918,3.25-4.918s3.25,2.203,3.25,4.918S-67.72,237.348-69.515,237.348z"/>
			<path fill="#DBCCBA" d="M-3.312,226.146c-3.943,0-7.141,2.814-7.141,6.285s3.197,6.285,7.141,6.285
				c3.941,0,7.139-2.814,7.139-6.285S0.63,226.146-3.312,226.146z M-3.312,237.348c-1.795,0-3.25-2.201-3.25-4.916
				s1.455-4.918,3.25-4.918c1.793,0,3.248,2.203,3.248,4.918S-1.519,237.348-3.312,237.348z"/>
			<path fill="#DBCCBA" d="M-51.11,226.316c-1.654,0-3.172,0.496-4.381,1.32v-2.002h-5.9v22.701h5.9v-10.941
				c1.209,0.826,2.727,1.322,4.381,1.322c3.932,0,7.119-2.775,7.119-6.201C-43.991,229.092-47.179,226.316-51.11,226.316z
				 M-53.312,237.176c-0.82,0-1.57-0.346-2.18-0.908v-7.074c0.609-0.563,1.359-0.908,2.18-0.908c2.008,0,3.635,1.99,3.635,4.445
				S-51.304,237.176-53.312,237.176z"/>
			<rect x="-43.265" y="225.762" fill="#DBCCBA" width="5.516" height="12.014"/>
			<path fill="#DBCCBA" d="M-37.685,222.043c0.512,1.232-0.707,2.166-2.334,2.76c-1.84,0.67-3.289,0.197-3.523-0.564
				c-0.213-0.693,0.529-1.844,2.229-2.596C-39.729,220.939-38.124,220.984-37.685,222.043z"/>
			<rect x="-17.099" y="225.762" fill="#DBCCBA" width="5.516" height="12.014"/>
			<path fill="#DBCCBA" d="M-11.521,222.043c0.512,1.232-0.705,2.166-2.334,2.76c-1.84,0.67-3.289,0.197-3.523-0.564
				c-0.213-0.693,0.529-1.844,2.229-2.596C-13.563,220.939-11.958,220.984-11.521,222.043z"/>
			<path fill="#DBCCBA" d="M-19.671,229.07c-0.178-2.236-2.42-2.371-5.125-2.41c-2.262-0.035-4.826,1.146-5.855,1.672v-2.57h-5.516
				v12.014h5.516v-7.396c0.596-0.596,1.711-1.514,3.076-1.668c2.096-0.234,2.367,1.686,2.396,2.418v6.646h5.514v-8.705H-19.671z"/>
			<path fill="#DBCCBA" d="M21.692,229.07c-0.178-2.236-2.42-2.371-5.125-2.41c-2.262-0.035-4.826,1.146-5.857,1.672v-2.57H5.196
				v12.014h5.514v-7.396c0.596-0.596,1.713-1.514,3.078-1.668c2.096-0.234,2.367,1.686,2.396,2.418v6.646h5.514v-8.705H21.692z"/>
		</g>
	</g>
</g>
<g id="TXT">
	<rect x="-88.506" y="-5085" fill="none" width="266.667" height="80"/>
	<text transform="matrix(1 0 0 1 -88.5059 -5067.96)"><tspan x="0" y="0" fill="#FFFFFF" font-family="'PTSans-NarrowBold'" font-size="24">El drama de una joven que </tspan><tspan x="0" y="28.8" fill="#FFFFFF" font-family="'PTSans-NarrowBold'" font-size="24">tuvo que cambiar su vida </tspan><tspan x="0" y="57.6" fill="#FFFFFF" font-family="'PTSans-NarrowBold'" font-size="24">para seguir estudiando en </tspan></text>
	<rect x="608.494" y="-5085" fill="none" width="266.667" height="86.5"/>
	<text transform="matrix(1 0 0 1 608.4941 -5067.96)"><tspan x="0" y="0" fill="#FFFFFF" font-family="'PTSans-NarrowBold'" font-size="24">La mujer protagonista de </tspan><tspan x="0" y="28.8" fill="#FFFFFF" font-family="'PTSans-NarrowBold'" font-size="24">la foto viral q ha sido </tspan><tspan x="0" y="57.6" fill="#FFFFFF" font-family="'PTSans-NarrowBold'" font-size="24">hostigada por la guardia </tspan></text>
	<rect x="-66.506" y="-3061" fill="none" width="420.667" height="55.5"/>
	<text transform="matrix(1 0 0 1 -66.5059 -3043.96)"><tspan x="0" y="0" fill="#FFFFFF" font-family="'PTSans-NarrowBold'" font-size="24">La mujer protagonista de la foto viral q ha </tspan><tspan x="0" y="28.8" fill="#FFFFFF" font-family="'PTSans-NarrowBold'" font-size="24">sido hostigada por la guardia venezolana</tspan></text>
	<rect x="434.382" y="-3064.346" fill="none" width="420.667" height="55.5"/>
	<text transform="matrix(1 0 0 1 434.3818 -3047.3057)"><tspan x="0" y="0" fill="#FFFFFF" font-family="'PTSans-NarrowBold'" font-size="24">La mujer protagonista de la foto viral q ha </tspan><tspan x="0" y="28.8" fill="#FFFFFF" font-family="'PTSans-NarrowBold'" font-size="24">sido hostigada por la guardia venezolana</tspan></text>
	<rect x="263.494" y="-5245" fill="none" width="266.667" height="80"/>
	<text transform="matrix(1 0 0 1 263.4941 -5227.96)"><tspan x="0" y="0" fill="#FFFFFF" font-family="'PTSans-NarrowBold'" font-size="24">La mujer que le regalaron </tspan><tspan x="0" y="28.8" fill="#FFFFFF" font-family="'PTSans-NarrowBold'" font-size="24">la casa por ayudar </tspan><tspan x="0" y="57.6" fill="#FFFFFF" font-family="'PTSans-NarrowBold'" font-size="24">voluntariamente a los </tspan></text>
	<rect x="-102.487" y="-1700.719" fill="none" width="998.63" height="114.498"/>
	<text transform="matrix(1 0 0 1 -69.9648 -1665.2188)"><tspan x="0" y="0" fill="#DBCCBA" font-family="'PTSans-NarrowBold'" font-size="50">“La mujer que le regalaron la casa por ayudar </tspan><tspan x="106.023" y="60" fill="#DBCCBA" font-family="'PTSans-NarrowBold'" font-size="50">voluntariamente a los deportados”</tspan></text>
	<rect x="263.494" y="-5140" fill="none" width="266.667" height="60"/>
	<text transform="matrix(1 0 0 1 263.4941 -5127.2197)"><tspan x="0" y="0" fill="#FFFFFF" font-family="'PTSans-Narrow'" font-size="18">El drama de una joven que tuvo </tspan><tspan x="0" y="21.6" fill="#FFFFFF" font-family="'PTSans-Narrow'" font-size="18">que cambiar su vida para seguir </tspan><tspan x="0" y="43.199" fill="#FFFFFF" font-family="'PTSans-Narrow'" font-size="18">estudiando en Cúcuta</tspan></text>
	<rect x="-46.506" y="-4870" fill="none" width="886.667" height="23"/>
	<text transform="matrix(1 0 0 1 -46.5059 -4852.96)" fill="#FFFFFF" font-family="'PTSans-NarrowBold'" font-size="24">La mujer que le regalaron la casa por ayudar voluntariamente a los deportados </text>
	<rect x="-45.506" y="-4815" fill="none" width="884.667" height="60"/>
	<text transform="matrix(1 0 0 1 -45.5059 -4802.2197)"><tspan x="0" y="0" fill="#FFFFFF" font-family="'PTSans-Narrow'" font-size="18">El drama de una joven que tuvo que cambiar su vida para seguir estudiando en Cúcuta sumario con texto fálso, el </tspan><tspan x="0" y="21.6" fill="#FFFFFF" font-family="'PTSans-Narrow'" font-size="18">drama de una joven que tuvo que cambiar su vida para seguir estudiando en Cúcuta sumario con texto fálso, el drama </tspan><tspan x="0" y="43.199" fill="#FFFFFF" font-family="'PTSans-Narrow'" font-size="18">de una joven que tuvo que cambiar su vida para seguir estudiando en Cúcuta sumario con texto fálso el drama de una </tspan></text>
	<text transform="matrix(1 0 0 1 782.0029 -1426.9297)" fill="#9E9790" font-family="'PTSans-NarrowBold'" font-size="60">2015</text>
	<text transform="matrix(1 0 0 1 -100.894 -1426.9297)" fill="#9E9790" font-family="'PTSans-Italic'" font-size="60">Juan Manuel Santos</text>
	<rect x="28.391" y="-125.328" fill="none" width="251.211" height="11.795"/>
	<text transform="matrix(1 0 0 1 28.3906 -117.5195)" fill="#9E9790" font-family="'PTSans-Regular'" font-size="11">-  Todos los Derechos Reservados.</text>
	<rect x="857.929" y="-111.992" fill="none" width="39.715" height="8.295"/>
	<text transform="matrix(1 0 0 1 863.5264 -104.8926)" fill="#493E3A" font-family="'PTSans-Caption'" font-size="10">Creditos</text>
	<rect x="28.391" y="228.672" fill="none" width="251.211" height="11.795"/>
	<text transform="matrix(1 0 0 1 28.3906 236.4805)" fill="#9E9790" font-family="'PTSans-Regular'" font-size="11">-  Todos los Derechos Reservados.</text>
	<rect x="270.391" y="422.005" fill="none" width="251.211" height="11.795"/>
	<text transform="matrix(1 0 0 1 355.6602 429.8145)" fill="#9E9790" font-family="'PTSans-Regular'" font-size="11">La Opinión - 2016</text>
	<rect x="28.391" y="287.973" fill="none" width="117.544" height="113.781"/>
	<text transform="matrix(1 0 0 1 28.3906 299.332)"><tspan x="0" y="0" fill="#DBCCBA" font-family="'PTSans-Bold'" font-size="16">Coordinación</tspan><tspan x="0" y="22" fill="#9E9790" font-family="'PTSans-Regular'" font-size="14">-  Nombre Apellido</tspan><tspan x="0" y="36" fill="#9E9790" font-family="'PTSans-Regular'" font-size="14">-  Nombre Apellido</tspan><tspan x="0" y="61" fill="#DBCCBA" font-family="'PTSans-Bold'" font-size="16">Concepto</tspan><tspan x="0" y="83" fill="#9E9790" font-family="'PTSans-Regular'" font-size="14">-  Nombre Apellido</tspan><tspan x="0" y="97" fill="#9E9790" font-family="'PTSans-Regular'" font-size="14">-  Nombre Apellido</tspan></text>
	<rect x="337.391" y="287.973" fill="none" width="117.544" height="118.781"/>
	<text transform="matrix(1 0 0 1 337.3906 299.332)"><tspan x="0" y="0" fill="#DBCCBA" font-family="'PTSans-Bold'" font-size="16">Reporteros</tspan><tspan x="0" y="22" fill="#9E9790" font-family="'PTSans-Regular'" font-size="14">-  Nombre Apellido</tspan><tspan x="0" y="36" fill="#9E9790" font-family="'PTSans-Regular'" font-size="14">-  Nombre Apellido</tspan><tspan x="0" y="50" fill="#9E9790" font-family="'PTSans-Regular'" font-size="14">-  Nombre Apellido</tspan><tspan x="0" y="64" fill="#9E9790" font-family="'PTSans-Regular'" font-size="14">-  Nombre Apellido</tspan><tspan x="0" y="78" fill="#9E9790" font-family="'PTSans-Regular'" font-size="14">-  Nombre Apellido</tspan><tspan x="0" y="92" fill="#9E9790" font-family="'PTSans-Regular'" font-size="14">-  Nombre Apellido</tspan></text>
	<rect x="653.391" y="287.973" fill="none" width="131.544" height="144.781"/>
	<text transform="matrix(1 0 0 1 653.3906 299.332)"><tspan x="0" y="0" fill="#DBCCBA" font-family="'PTSans-Bold'" font-size="16">Desarrollo Web</tspan><tspan x="0" y="22" fill="#9E9790" font-family="'PTSans-Regular'" font-size="14">-  Jonathan Miranda</tspan><tspan x="0" y="36" fill="#9E9790" font-family="'PTSans-Regular'" font-size="14">-  John Serrano</tspan><tspan x="0" y="61" fill="#DBCCBA" font-family="'PTSans-Bold'" font-size="16">Diseño</tspan><tspan x="0" y="83" fill="#9E9790" font-family="'PTSans-Regular'" font-size="14">-  Roberto Insignares</tspan></text>
	<rect x="857.929" y="242.008" fill="none" width="39.715" height="8.295"/>
	<text transform="matrix(1 0 0 1 863.5264 249.1074)" fill="#493E3A" font-family="'PTSans-Caption'" font-size="10">Creditos</text>
</g>
<g id="Guia">
</g>
</svg>
