<?xml version="1.0" encoding="utf-8"?>
<!-- Generator: Adobe Illustrator 16.0.0, SVG Export Plug-In . SVG Version: 6.00 Build 0)  -->
<!DOCTYPE svg PUBLIC "-//W3C//DTD SVG 1.1//EN" "http://www.w3.org/Graphics/SVG/1.1/DTD/svg11.dtd">
<svg version="1.1" xmlns="http://www.w3.org/2000/svg" xmlns:xlink="http://www.w3.org/1999/xlink" x="0px" y="0px" width="246px"
	 height="45px" viewBox="0 0 246 45" enable-background="new 0 0 246 45" xml:space="preserve">
<g id="Soporte">
	<rect x="-1030" y="-5398" fill="#DBCCBA" width="1600" height="780"/>
	<rect x="-1030" y="-3574" fill="#DBCCBA" width="1600" height="780"/>
	<rect x="-1030" y="-2794" fill="#DBCCBA" width="1600" height="780"/>
	<rect x="-1030" y="-2014.006" fill="#493E3A" width="1600" height="780"/>
	<rect x="-1030" y="-125.831" fill="#493E3A" width="1600" height="47.5"/>
	<rect x="-1030" y="228.168" fill="#493E3A" width="1600" height="234.5"/>
	<path fill="#493E3A" d="M-1151-1547c0,4.418-3.582,8-8,8h-98c-4.418,0-8-3.582-8-8v-98c0-4.418,3.582-8,8-8h98c4.418,0,8,3.582,8,8
		V-1547z"/>
	<polygon fill="#DBCCBA" points="-905.609,-1623.688 -905.609,-1580.387 -942.703,-1602.037 -980,-1623.688 -942.805,-1645.338 
		-905.609,-1666.988 	"/>
	<polygon fill="#DBCCBA" points="445.929,-1623.688 445.929,-1666.989 483.022,-1645.339 520.319,-1623.688 483.124,-1602.038 
		445.929,-1580.388 	"/>
</g>
<g id="Vectores">
	<rect x="-730" y="-5313" fill="#493E3A" width="302" height="360"/>
	<rect x="-382" y="-5313" fill="#493E3A" width="302" height="360"/>
	<rect x="-715" y="-3451" fill="#493E3A" width="464" height="488"/>
	<rect x="-214" y="-3453" fill="#493E3A" width="464" height="488"/>
	<rect x="-730" y="-4876" fill="#493E3A" width="999" height="167"/>
	<rect x="-33" y="-5313" fill="#493E3A" width="302" height="360"/>
	
		<line fill="none" stroke="#DBCCBA" stroke-width="5" stroke-linecap="round" stroke-miterlimit="10" stroke-dasharray="2,20" x1="-905.877" y1="-1623.533" x2="447.056" y2="-1623"/>
</g>
<g id="Imagenes">
	<rect x="-730.87" y="-6800.809" fill="none" width="1000.45" height="145.493"/>
	<text transform="matrix(1 0 0 1 -730.8701 -6792.2891)" font-family="'MyriadPro-Regular'" font-size="12">fdafdafdasfdsafdsafdasfdafdafda</text>
	<g>
		<defs>
			<rect id="SVGID_1_" x="-1030" y="-4618" width="1600" height="1045"/>
		</defs>
		<clipPath id="SVGID_2_">
			<use xlink:href="#SVGID_1_"  overflow="visible"/>
		</clipPath>
	</g>
	<g>
		<defs>
			<rect id="SVGID_3_" x="1975" y="-4513" width="534" height="454"/>
		</defs>
		<clipPath id="SVGID_4_">
			<use xlink:href="#SVGID_3_"  overflow="visible"/>
		</clipPath>
	</g>
	<g>
		<defs>
			<rect id="SVGID_5_" x="2509" y="-4513" width="533" height="454"/>
		</defs>
		<clipPath id="SVGID_6_">
			<use xlink:href="#SVGID_5_"  overflow="visible"/>
		</clipPath>
	</g>
	<g>
		<defs>
			<rect id="SVGID_7_" x="1442" y="-4059" width="533" height="454"/>
		</defs>
		<clipPath id="SVGID_8_">
			<use xlink:href="#SVGID_7_"  overflow="visible"/>
		</clipPath>
	</g>
	<g>
		<defs>
			<rect id="SVGID_9_" x="1975" y="-4059" width="534" height="454"/>
		</defs>
		<clipPath id="SVGID_10_">
			<use xlink:href="#SVGID_9_"  overflow="visible"/>
		</clipPath>
	</g>
	<g>
		<defs>
			<rect id="SVGID_11_" x="2509" y="-4059" width="533" height="454"/>
		</defs>
		<clipPath id="SVGID_12_">
			<use xlink:href="#SVGID_11_"  overflow="visible"/>
		</clipPath>
	</g>
	<rect x="-1030" y="-4618" opacity="0.3" width="1600" height="1045"/>
	<rect x="2509" y="-4513" opacity="0.3" width="533" height="454"/>
	<rect x="1442" y="-4059" opacity="0.3" width="533" height="454"/>
	<rect x="1975" y="-4059" opacity="0.3" width="534" height="454"/>
	<rect x="2509" y="-4059" opacity="0.3" width="533" height="454"/>
	<g>
		<defs>
			<rect id="SVGID_13_" x="-730" y="-5313.063" width="301.979" height="212.439"/>
		</defs>
		<clipPath id="SVGID_14_">
			<use xlink:href="#SVGID_13_"  overflow="visible"/>
		</clipPath>
	</g>
	<g>
		<defs>
			<rect id="SVGID_15_" x="-33" y="-5313.063" width="301.979" height="212.439"/>
		</defs>
		<clipPath id="SVGID_16_">
			<use xlink:href="#SVGID_15_"  overflow="visible"/>
		</clipPath>
	</g>
	<g>
		<defs>
			<rect id="SVGID_17_" x="-715" y="-3451" width="232" height="192"/>
		</defs>
		<clipPath id="SVGID_18_">
			<use xlink:href="#SVGID_17_"  overflow="visible"/>
		</clipPath>
	</g>
	<g>
		<defs>
			<rect id="SVGID_19_" x="-715" y="-3259.155" width="231.886" height="191.841"/>
		</defs>
		<clipPath id="SVGID_20_">
			<use xlink:href="#SVGID_19_"  overflow="visible"/>
		</clipPath>
	</g>
	<g>
		<defs>
			<rect id="SVGID_21_" x="-483" y="-3451" width="232" height="192"/>
		</defs>
		<clipPath id="SVGID_22_">
			<use xlink:href="#SVGID_21_"  overflow="visible"/>
		</clipPath>
	</g>
	<g>
		<defs>
			<rect id="SVGID_23_" x="-483.114" y="-3259.155" width="231.887" height="191.841"/>
		</defs>
		<clipPath id="SVGID_24_">
			<use xlink:href="#SVGID_23_"  overflow="visible"/>
		</clipPath>
	</g>
	<g>
		<defs>
			<rect id="SVGID_25_" x="-214" y="-3453" width="232" height="192"/>
		</defs>
		<clipPath id="SVGID_26_">
			<use xlink:href="#SVGID_25_"  overflow="visible"/>
		</clipPath>
	</g>
	<g>
		<defs>
			<rect id="SVGID_27_" x="-214" y="-3261.155" width="231.886" height="191.841"/>
		</defs>
		<clipPath id="SVGID_28_">
			<use xlink:href="#SVGID_27_"  overflow="visible"/>
		</clipPath>
	</g>
	<g>
		<defs>
			<rect id="SVGID_29_" x="18" y="-3453" width="232" height="192"/>
		</defs>
		<clipPath id="SVGID_30_">
			<use xlink:href="#SVGID_29_"  overflow="visible"/>
		</clipPath>
	</g>
	<g>
		<defs>
			<rect id="SVGID_31_" x="17.886" y="-3261.155" width="231.887" height="191.841"/>
		</defs>
		<clipPath id="SVGID_32_">
			<use xlink:href="#SVGID_31_"  overflow="visible"/>
		</clipPath>
	</g>
	<g>
		<defs>
			<rect id="SVGID_33_" x="-1030" y="-6576" width="1600" height="1180"/>
		</defs>
		<clipPath id="SVGID_34_">
			<use xlink:href="#SVGID_33_"  overflow="visible"/>
		</clipPath>
	</g>
</g>
<g id="Iconos">
	<g>
		<path fill="#DBCCBA" d="M181.721-89.406h-9.518c-3.642,0-6.622-2.979-6.622-6.621v-10.143c0-3.642,2.98-6.621,6.622-6.621h9.518
			c3.643,0,6.622,2.979,6.622,6.621v10.143C188.343-92.386,185.363-89.406,181.721-89.406 M181.721-91.155
			c1.294,0,2.516-0.509,3.44-1.433c0.923-0.924,1.432-2.146,1.432-3.439v-10.143c0-1.294-0.509-2.516-1.432-3.439
			c-0.925-0.923-2.146-1.432-3.44-1.432h-9.518c-1.295,0-2.517,0.509-3.44,1.432c-0.923,0.924-1.432,2.146-1.432,3.439v10.143
			c0,1.294,0.509,2.516,1.432,3.439c0.924,0.924,2.146,1.433,3.44,1.433H181.721z"/>
		<path fill="#DBCCBA" d="M183.265-101.188c0,3.461-2.806,6.268-6.268,6.268s-6.268-2.807-6.268-6.268
			c0-3.462,2.806-6.269,6.268-6.269S183.265-104.65,183.265-101.188 M176.968-105.289c-2.268,0-4.105,1.839-4.105,4.105
			c0,2.268,1.838,4.104,4.105,4.104c2.267,0,4.104-1.837,4.104-4.104C181.071-103.45,179.234-105.289,176.968-105.289"/>
		<path fill="#DBCCBA" d="M184.85-107.554c0,0.818-0.665,1.484-1.484,1.484s-1.483-0.666-1.483-1.484
			c0-0.819,0.664-1.485,1.483-1.485S184.85-108.373,184.85-107.554"/>
	</g>
	<path fill="#DBCCBA" d="M120.235-112.998h-15.132c-2.389,0-4.333,1.944-4.333,4.332v15.134c0,2.389,1.944,4.332,4.333,4.332h6.941
		v-9.841h-2.034v-3.394h2.034v-2.036c0-2.768,1.149-4.413,4.413-4.413h2.717v3.393h-1.697c-1.271,0-1.356,0.475-1.356,1.357
		l-0.005,1.699h3.077l-0.359,3.394h-2.718v9.841h4.119c2.389,0,4.334-1.943,4.334-4.332v-15.134
		C124.569-111.054,122.624-112.998,120.235-112.998z"/>
	<path fill="#DBCCBA" d="M152.985-112.998h-15.132c-2.389,0-4.333,1.944-4.333,4.332v15.134c0,2.389,1.944,4.332,4.333,4.332h15.132
		c2.389,0,4.334-1.943,4.334-4.332v-15.134C157.319-111.054,155.374-112.998,152.985-112.998z M151.774-104.358
		c0.006,0.141,0.009,0.283,0.009,0.426c0,4.332-3.296,9.328-9.327,9.328c-1.853,0-3.576-0.544-5.026-1.474
		c0.257,0.03,0.518,0.045,0.782,0.045c1.536,0,2.95-0.523,4.072-1.401c-1.436-0.027-2.646-0.975-3.063-2.278
		c0.2,0.038,0.405,0.058,0.617,0.058c0.299,0,0.588-0.038,0.863-0.113c-1.499-0.301-2.631-1.626-2.631-3.216
		c0-0.013,0-0.027,0.001-0.04c0.441,0.246,0.946,0.393,1.484,0.41c-0.88-0.589-1.458-1.592-1.458-2.729
		c0-0.6,0.162-1.163,0.444-1.647c1.615,1.982,4.032,3.29,6.757,3.425c-0.056-0.239-0.085-0.49-0.085-0.747
		c0-1.81,1.468-3.279,3.278-3.279c0.943,0,1.796,0.399,2.394,1.037c0.747-0.147,1.448-0.42,2.083-0.797
		c-0.246,0.769-0.766,1.409-1.443,1.813c0.664-0.077,1.295-0.255,1.884-0.515C152.97-105.397,152.414-104.819,151.774-104.358z"/>
	<path fill="#DBCCBA" d="M217.469-112.998h-15.132c-2.389,0-4.333,1.944-4.333,4.332v15.134c0,2.389,1.944,4.332,4.333,4.332h15.132
		c2.389,0,4.334-1.943,4.334-4.332v-15.134C221.803-111.054,219.857-112.998,217.469-112.998z M206.933-95.159v-11.881l8.94,5.94
		L206.933-95.159z"/>
	<g>
		<path fill="#DBCCBA" d="M158.004,34.594h-9.518c-3.642,0-6.622-2.979-6.622-6.621V17.83c0-3.642,2.98-6.621,6.622-6.621h9.518
			c3.643,0,6.622,2.979,6.622,6.621v10.143C164.626,31.614,161.646,34.594,158.004,34.594 M158.004,32.845
			c1.294,0,2.516-0.509,3.44-1.433c0.923-0.924,1.432-2.146,1.432-3.439V17.83c0-1.294-0.509-2.516-1.432-3.439
			c-0.925-0.923-2.146-1.432-3.44-1.432h-9.518c-1.295,0-2.517,0.509-3.44,1.432c-0.923,0.924-1.432,2.146-1.432,3.439v10.143
			c0,1.294,0.509,2.516,1.432,3.439c0.924,0.924,2.146,1.433,3.44,1.433H158.004z"/>
		<path fill="#DBCCBA" d="M159.548,22.812c0,3.461-2.806,6.268-6.268,6.268s-6.268-2.807-6.268-6.268
			c0-3.462,2.806-6.269,6.268-6.269S159.548,19.35,159.548,22.812 M153.251,18.711c-2.268,0-4.105,1.839-4.105,4.105
			c0,2.268,1.838,4.104,4.105,4.104c2.267,0,4.104-1.837,4.104-4.104C157.354,20.55,155.518,18.711,153.251,18.711"/>
		<path fill="#DBCCBA" d="M161.133,16.446c0,0.818-0.665,1.484-1.484,1.484s-1.483-0.666-1.483-1.484
			c0-0.819,0.664-1.485,1.483-1.485S161.133,15.627,161.133,16.446"/>
	</g>
	<path fill="#DBCCBA" d="M42.519,11.002H27.387c-2.389,0-4.333,1.944-4.333,4.332v15.134c0,2.389,1.944,4.332,4.333,4.332h6.941
		v-9.841h-2.034v-3.394h2.034v-2.036c0-2.768,1.149-4.413,4.413-4.413h2.717v3.393h-1.697c-1.271,0-1.356,0.475-1.356,1.357
		l-0.005,1.699h3.077l-0.359,3.394h-2.718V34.8h4.119c2.389,0,4.334-1.943,4.334-4.332V15.334
		C46.853,12.946,44.907,11.002,42.519,11.002z"/>
	<path fill="#DBCCBA" d="M102.269,11.002H87.137c-2.389,0-4.333,1.944-4.333,4.332v15.134c0,2.389,1.944,4.332,4.333,4.332h15.132
		c2.389,0,4.334-1.943,4.334-4.332V15.334C106.603,12.946,104.657,11.002,102.269,11.002z M101.058,19.642
		c0.006,0.141,0.009,0.283,0.009,0.426c0,4.332-3.296,9.328-9.327,9.328c-1.853,0-3.576-0.544-5.026-1.474
		c0.257,0.03,0.518,0.045,0.782,0.045c1.536,0,2.95-0.523,4.072-1.401c-1.436-0.027-2.646-0.975-3.063-2.278
		c0.2,0.038,0.405,0.058,0.617,0.058c0.299,0,0.588-0.038,0.863-0.113c-1.499-0.301-2.631-1.626-2.631-3.216
		c0-0.013,0-0.027,0.001-0.04c0.441,0.246,0.946,0.393,1.484,0.41c-0.88-0.589-1.458-1.592-1.458-2.729
		c0-0.6,0.162-1.163,0.444-1.647c1.615,1.982,4.032,3.29,6.757,3.425c-0.056-0.239-0.085-0.49-0.085-0.747
		c0-1.81,1.468-3.279,3.278-3.279c0.943,0,1.796,0.399,2.394,1.037c0.747-0.147,1.448-0.42,2.083-0.797
		c-0.246,0.769-0.766,1.409-1.443,1.813c0.664-0.077,1.295-0.255,1.884-0.515C102.253,18.603,101.697,19.181,101.058,19.642z"/>
	<path fill="#DBCCBA" d="M221.752,11.002H206.62c-2.389,0-4.333,1.944-4.333,4.332v15.134c0,2.389,1.944,4.332,4.333,4.332h15.132
		c2.389,0,4.334-1.943,4.334-4.332V15.334C226.086,12.946,224.141,11.002,221.752,11.002z M211.216,28.841V16.96l8.94,5.94
		L211.216,28.841z"/>
	<path fill="#DBCCBA" d="M232.921-105.661c0,0-0.015,24.349,0.001,27.317L270-78.375c0.031-2.156-0.001-27.286-0.001-27.286
		c0-4.023-3.274-7.298-7.296-7.298h-22.486C236.195-112.959,232.921-109.685,232.921-105.661z M261.963-97.886h-20.008l10.206-9.987
		L261.963-97.886z"/>
	<g>
		<g>
			<path fill="#DBCCBA" d="M-632.293-110.328c-0.076-0.096,0.035-0.305,0.248-0.51c0.322-0.311,2.537-2.537,3.422-3.422
				c0.223-0.223,0.975-0.674,1.713,0.35c0.893,1.24,0.088,1.85,0,1.885c-1.18,0.465-4.889,1.682-4.889,1.682
				S-632.193-110.203-632.293-110.328z"/>
			<rect x="-729.314" y="-114.865" fill="#DBCCBA" width="5.109" height="17.102"/>
			<path fill="#DBCCBA" d="M-711.088-105.588c-0.107-2.168-1.435-4.514-6.338-4.574c-3.645-0.047-4.761,1.779-5.104,2.846
				c-0.08,0.182-0.123,0.381-0.141,0.588c-0.014,0.1-0.016,0.158-0.016,0.158c0,1.025,0.817,1.859,1.826,1.859
				c1.008,0,1.825-0.834,1.825-1.859c0-0.439-0.155-0.836-0.405-1.154h0.002c0,0-0.683-0.898,1.563-0.707
				c1.805,0.154,2.033,2.09,2.054,2.844h-0.002v2.287c-0.808-0.668-1.944-1.09-3.211-1.09c-2.446,0-4.429,1.549-4.429,3.463
				c0,1.912,1.982,3.463,4.429,3.463c1.267,0,2.403-0.422,3.211-1.09v0.791h4.745v-7.824H-711.088z M-719.034-98.492
				c-1.349,0-2.441-1.018-2.441-2.275s1.093-2.277,2.441-2.277s2.44,1.02,2.44,2.277S-717.686-98.492-719.034-98.492z"/>
			<path fill="#DBCCBA" d="M-696.008-109.521c-3.941,0-7.139,2.814-7.139,6.285s3.197,6.285,7.139,6.285
				c3.943,0,7.141-2.814,7.141-6.285S-692.064-109.521-696.008-109.521z M-696.008-98.32c-1.795,0-3.25-2.201-3.25-4.916
				s1.455-4.918,3.25-4.918s3.25,2.203,3.25,4.918S-694.213-98.32-696.008-98.32z"/>
			<path fill="#DBCCBA" d="M-629.805-109.521c-3.943,0-7.141,2.814-7.141,6.285s3.197,6.285,7.141,6.285
				c3.941,0,7.139-2.814,7.139-6.285S-625.863-109.521-629.805-109.521z M-629.805-98.32c-1.795,0-3.25-2.201-3.25-4.916
				s1.455-4.918,3.25-4.918c1.793,0,3.248,2.203,3.248,4.918S-628.012-98.32-629.805-98.32z"/>
			<path fill="#DBCCBA" d="M-677.604-109.352c-1.654,0-3.172,0.496-4.381,1.32v-2.002h-5.9v22.701h5.9v-10.941
				c1.209,0.826,2.727,1.322,4.381,1.322c3.932,0,7.119-2.775,7.119-6.201C-670.484-106.576-673.672-109.352-677.604-109.352z
				 M-679.805-98.492c-0.82,0-1.57-0.346-2.18-0.908v-7.074c0.609-0.563,1.359-0.908,2.18-0.908c2.008,0,3.635,1.99,3.635,4.445
				S-677.797-98.492-679.805-98.492z"/>
			<rect x="-669.758" y="-109.906" fill="#DBCCBA" width="5.516" height="12.014"/>
			<path fill="#DBCCBA" d="M-664.178-113.625c0.512,1.232-0.707,2.166-2.334,2.76c-1.84,0.67-3.289,0.197-3.523-0.564
				c-0.213-0.693,0.529-1.844,2.229-2.596C-666.223-114.729-664.617-114.684-664.178-113.625z"/>
			<rect x="-643.592" y="-109.906" fill="#DBCCBA" width="5.516" height="12.014"/>
			<path fill="#DBCCBA" d="M-638.014-113.625c0.512,1.232-0.705,2.166-2.334,2.76c-1.84,0.67-3.289,0.197-3.523-0.564
				c-0.213-0.693,0.529-1.844,2.229-2.596C-640.057-114.729-638.451-114.684-638.014-113.625z"/>
			<path fill="#DBCCBA" d="M-646.164-106.598c-0.178-2.236-2.42-2.371-5.125-2.41c-2.262-0.035-4.826,1.146-5.855,1.672v-2.57
				h-5.516v12.014h5.516v-7.396c0.596-0.596,1.711-1.514,3.076-1.668c2.096-0.234,2.367,1.686,2.396,2.418v6.646h5.514v-8.705
				H-646.164z"/>
			<path fill="#DBCCBA" d="M-604.801-106.598c-0.178-2.236-2.42-2.371-5.125-2.41c-2.262-0.035-4.826,1.146-5.857,1.672v-2.57
				h-5.514v12.014h5.514v-7.396c0.596-0.596,1.713-1.514,3.078-1.668c2.096-0.234,2.367,1.686,2.396,2.418v6.646h5.514v-8.705
				H-604.801z"/>
		</g>
	</g>
	<g>
		<g>
			<path fill="#DBCCBA" d="M-518.024,27.338c-0.076-0.096,0.035-0.305,0.248-0.51c0.322-0.311,2.537-2.537,3.422-3.422
				c0.223-0.223,0.975-0.674,1.713,0.35c0.893,1.24,0.088,1.85,0,1.885c-1.18,0.465-4.889,1.682-4.889,1.682
				S-517.925,27.463-518.024,27.338z"/>
			<rect x="-615.046" y="22.801" fill="#DBCCBA" width="5.109" height="17.102"/>
			<path fill="#DBCCBA" d="M-596.819,32.078c-0.107-2.168-1.435-4.514-6.338-4.574c-3.645-0.047-4.761,1.779-5.104,2.846
				c-0.08,0.182-0.123,0.381-0.141,0.588c-0.014,0.1-0.016,0.158-0.016,0.158c0,1.025,0.817,1.859,1.826,1.859
				c1.008,0,1.825-0.834,1.825-1.859c0-0.439-0.155-0.836-0.405-1.154h0.002c0,0-0.683-0.898,1.563-0.707
				c1.805,0.154,2.033,2.09,2.054,2.844h-0.002v2.287c-0.808-0.668-1.944-1.09-3.211-1.09c-2.446,0-4.429,1.549-4.429,3.463
				c0,1.912,1.982,3.463,4.429,3.463c1.267,0,2.403-0.422,3.211-1.09v0.791h4.745v-7.824H-596.819z M-604.766,39.174
				c-1.349,0-2.441-1.018-2.441-2.275s1.093-2.277,2.441-2.277s2.44,1.02,2.44,2.277S-603.417,39.174-604.766,39.174z"/>
			<path fill="#DBCCBA" d="M-581.739,28.145c-3.941,0-7.139,2.814-7.139,6.285s3.197,6.285,7.139,6.285
				c3.943,0,7.141-2.814,7.141-6.285S-577.796,28.145-581.739,28.145z M-581.739,39.346c-1.795,0-3.25-2.201-3.25-4.916
				s1.455-4.918,3.25-4.918s3.25,2.203,3.25,4.918S-579.944,39.346-581.739,39.346z"/>
			<path fill="#DBCCBA" d="M-515.536,28.145c-3.943,0-7.141,2.814-7.141,6.285s3.197,6.285,7.141,6.285
				c3.941,0,7.139-2.814,7.139-6.285S-511.595,28.145-515.536,28.145z M-515.536,39.346c-1.795,0-3.25-2.201-3.25-4.916
				s1.455-4.918,3.25-4.918c1.793,0,3.248,2.203,3.248,4.918S-513.743,39.346-515.536,39.346z"/>
			<path fill="#DBCCBA" d="M-563.335,28.314c-1.654,0-3.172,0.496-4.381,1.32v-2.002h-5.9v22.701h5.9V39.393
				c1.209,0.826,2.727,1.322,4.381,1.322c3.932,0,7.119-2.775,7.119-6.201C-556.216,31.09-559.403,28.314-563.335,28.314z
				 M-565.536,39.174c-0.82,0-1.57-0.346-2.18-0.908v-7.074c0.609-0.563,1.359-0.908,2.18-0.908c2.008,0,3.635,1.99,3.635,4.445
				S-563.528,39.174-565.536,39.174z"/>
			<rect x="-555.489" y="27.76" fill="#DBCCBA" width="5.516" height="12.014"/>
			<path fill="#DBCCBA" d="M-549.909,24.041c0.512,1.232-0.707,2.166-2.334,2.76c-1.84,0.67-3.289,0.197-3.523-0.564
				c-0.213-0.693,0.529-1.844,2.229-2.596C-551.954,22.938-550.349,22.982-549.909,24.041z"/>
			<rect x="-529.323" y="27.76" fill="#DBCCBA" width="5.516" height="12.014"/>
			<path fill="#DBCCBA" d="M-523.745,24.041c0.512,1.232-0.705,2.166-2.334,2.76c-1.84,0.67-3.289,0.197-3.523-0.564
				c-0.213-0.693,0.529-1.844,2.229-2.596C-525.788,22.938-524.183,22.982-523.745,24.041z"/>
			<path fill="#DBCCBA" d="M-531.896,31.068c-0.178-2.236-2.42-2.371-5.125-2.41c-2.262-0.035-4.826,1.146-5.855,1.672v-2.57h-5.516
				v12.014h5.516v-7.396c0.596-0.596,1.711-1.514,3.076-1.668c2.096-0.234,2.367,1.686,2.396,2.418v6.646h5.514v-8.705H-531.896z"/>
			<path fill="#DBCCBA" d="M-490.532,31.068c-0.178-2.236-2.42-2.371-5.125-2.41c-2.262-0.035-4.826,1.146-5.857,1.672v-2.57h-5.514
				v12.014h5.514v-7.396c0.596-0.596,1.713-1.514,3.078-1.668c2.096-0.234,2.367,1.686,2.396,2.418v6.646h5.514v-8.705H-490.532z"/>
		</g>
	</g>
	<g>
		<path fill="#DBCCBA" d="M181.721,264.594h-9.518c-3.642,0-6.622-2.979-6.622-6.621V247.83c0-3.642,2.98-6.621,6.622-6.621h9.518
			c3.643,0,6.622,2.979,6.622,6.621v10.143C188.343,261.614,185.363,264.594,181.721,264.594 M181.721,262.845
			c1.294,0,2.516-0.509,3.44-1.433c0.923-0.924,1.432-2.146,1.432-3.439V247.83c0-1.294-0.509-2.516-1.432-3.439
			c-0.925-0.923-2.146-1.432-3.44-1.432h-9.518c-1.295,0-2.517,0.509-3.44,1.432c-0.923,0.924-1.432,2.146-1.432,3.439v10.143
			c0,1.294,0.509,2.516,1.432,3.439c0.924,0.924,2.146,1.433,3.44,1.433H181.721z"/>
		<path fill="#DBCCBA" d="M183.265,252.812c0,3.461-2.806,6.268-6.268,6.268s-6.268-2.807-6.268-6.268
			c0-3.462,2.806-6.269,6.268-6.269S183.265,249.35,183.265,252.812 M176.968,248.711c-2.268,0-4.105,1.839-4.105,4.105
			c0,2.268,1.838,4.104,4.105,4.104c2.267,0,4.104-1.837,4.104-4.104C181.071,250.55,179.234,248.711,176.968,248.711"/>
		<path fill="#DBCCBA" d="M184.85,246.446c0,0.818-0.665,1.484-1.484,1.484s-1.483-0.666-1.483-1.484
			c0-0.819,0.664-1.485,1.483-1.485S184.85,245.627,184.85,246.446"/>
	</g>
	<path fill="#DBCCBA" d="M120.235,241.002h-15.132c-2.389,0-4.333,1.944-4.333,4.332v15.134c0,2.389,1.944,4.332,4.333,4.332h6.941
		v-9.841h-2.034v-3.394h2.034v-2.036c0-2.768,1.149-4.413,4.413-4.413h2.717v3.393h-1.697c-1.271,0-1.356,0.475-1.356,1.357
		l-0.005,1.699h3.077l-0.359,3.394h-2.718v9.841h4.119c2.389,0,4.334-1.943,4.334-4.332v-15.134
		C124.569,242.946,122.624,241.002,120.235,241.002z"/>
	<path fill="#DBCCBA" d="M152.985,241.002h-15.132c-2.389,0-4.333,1.944-4.333,4.332v15.134c0,2.389,1.944,4.332,4.333,4.332h15.132
		c2.389,0,4.334-1.943,4.334-4.332v-15.134C157.319,242.946,155.374,241.002,152.985,241.002z M151.774,249.642
		c0.006,0.141,0.009,0.283,0.009,0.426c0,4.332-3.296,9.328-9.327,9.328c-1.853,0-3.576-0.544-5.026-1.474
		c0.257,0.03,0.518,0.045,0.782,0.045c1.536,0,2.95-0.523,4.072-1.401c-1.436-0.027-2.646-0.975-3.063-2.278
		c0.2,0.038,0.405,0.058,0.617,0.058c0.299,0,0.588-0.038,0.863-0.113c-1.499-0.301-2.631-1.626-2.631-3.216
		c0-0.013,0-0.027,0.001-0.04c0.441,0.246,0.946,0.393,1.484,0.41c-0.88-0.589-1.458-1.592-1.458-2.729
		c0-0.6,0.162-1.163,0.444-1.647c1.615,1.982,4.032,3.29,6.757,3.425c-0.056-0.239-0.085-0.49-0.085-0.747
		c0-1.81,1.468-3.279,3.278-3.279c0.943,0,1.796,0.399,2.394,1.037c0.747-0.147,1.448-0.42,2.083-0.797
		c-0.246,0.769-0.766,1.409-1.443,1.813c0.664-0.077,1.295-0.255,1.884-0.515C152.97,248.603,152.414,249.181,151.774,249.642z"/>
	<path fill="#DBCCBA" d="M217.469,241.002h-15.132c-2.389,0-4.333,1.944-4.333,4.332v15.134c0,2.389,1.944,4.332,4.333,4.332h15.132
		c2.389,0,4.334-1.943,4.334-4.332v-15.134C221.803,242.946,219.857,241.002,217.469,241.002z M206.933,258.841V246.96l8.94,5.94
		L206.933,258.841z"/>
	<path fill="#DBCCBA" d="M232.921,248.339c0,0-0.015,24.349,0.001,27.317L270,275.625c0.031-2.156-0.001-27.286-0.001-27.286
		c0-4.023-3.274-7.298-7.296-7.298h-22.486C236.195,241.041,232.921,244.315,232.921,248.339z M261.963,256.114h-20.008
		l10.206-9.987L261.963,256.114z"/>
	<g>
		<g>
			<path fill="#DBCCBA" d="M-632.293,243.672c-0.076-0.096,0.035-0.305,0.248-0.51c0.322-0.311,2.537-2.537,3.422-3.422
				c0.223-0.223,0.975-0.674,1.713,0.35c0.893,1.24,0.088,1.85,0,1.885c-1.18,0.465-4.889,1.682-4.889,1.682
				S-632.193,243.797-632.293,243.672z"/>
			<rect x="-729.314" y="239.135" fill="#DBCCBA" width="5.109" height="17.102"/>
			<path fill="#DBCCBA" d="M-711.088,248.412c-0.107-2.168-1.435-4.514-6.338-4.574c-3.645-0.047-4.761,1.779-5.104,2.846
				c-0.08,0.182-0.123,0.381-0.141,0.588c-0.014,0.1-0.016,0.158-0.016,0.158c0,1.025,0.817,1.859,1.826,1.859
				c1.008,0,1.825-0.834,1.825-1.859c0-0.439-0.155-0.836-0.405-1.154h0.002c0,0-0.683-0.898,1.563-0.707
				c1.805,0.154,2.033,2.09,2.054,2.844h-0.002v2.287c-0.808-0.668-1.944-1.09-3.211-1.09c-2.446,0-4.429,1.549-4.429,3.463
				c0,1.912,1.982,3.463,4.429,3.463c1.267,0,2.403-0.422,3.211-1.09v0.791h4.745v-7.824H-711.088z M-719.034,255.508
				c-1.349,0-2.441-1.018-2.441-2.275s1.093-2.277,2.441-2.277s2.44,1.02,2.44,2.277S-717.686,255.508-719.034,255.508z"/>
			<path fill="#DBCCBA" d="M-696.008,244.479c-3.941,0-7.139,2.814-7.139,6.285s3.197,6.285,7.139,6.285
				c3.943,0,7.141-2.814,7.141-6.285S-692.064,244.479-696.008,244.479z M-696.008,255.68c-1.795,0-3.25-2.201-3.25-4.916
				s1.455-4.918,3.25-4.918s3.25,2.203,3.25,4.918S-694.213,255.68-696.008,255.68z"/>
			<path fill="#DBCCBA" d="M-629.805,244.479c-3.943,0-7.141,2.814-7.141,6.285s3.197,6.285,7.141,6.285
				c3.941,0,7.139-2.814,7.139-6.285S-625.863,244.479-629.805,244.479z M-629.805,255.68c-1.795,0-3.25-2.201-3.25-4.916
				s1.455-4.918,3.25-4.918c1.793,0,3.248,2.203,3.248,4.918S-628.012,255.68-629.805,255.68z"/>
			<path fill="#DBCCBA" d="M-677.604,244.648c-1.654,0-3.172,0.496-4.381,1.32v-2.002h-5.9v22.701h5.9v-10.941
				c1.209,0.826,2.727,1.322,4.381,1.322c3.932,0,7.119-2.775,7.119-6.201C-670.484,247.424-673.672,244.648-677.604,244.648z
				 M-679.805,255.508c-0.82,0-1.57-0.346-2.18-0.908v-7.074c0.609-0.563,1.359-0.908,2.18-0.908c2.008,0,3.635,1.99,3.635,4.445
				S-677.797,255.508-679.805,255.508z"/>
			<rect x="-669.758" y="244.094" fill="#DBCCBA" width="5.516" height="12.014"/>
			<path fill="#DBCCBA" d="M-664.178,240.375c0.512,1.232-0.707,2.166-2.334,2.76c-1.84,0.67-3.289,0.197-3.523-0.564
				c-0.213-0.693,0.529-1.844,2.229-2.596C-666.223,239.271-664.617,239.316-664.178,240.375z"/>
			<rect x="-643.592" y="244.094" fill="#DBCCBA" width="5.516" height="12.014"/>
			<path fill="#DBCCBA" d="M-638.014,240.375c0.512,1.232-0.705,2.166-2.334,2.76c-1.84,0.67-3.289,0.197-3.523-0.564
				c-0.213-0.693,0.529-1.844,2.229-2.596C-640.057,239.271-638.451,239.316-638.014,240.375z"/>
			<path fill="#DBCCBA" d="M-646.164,247.402c-0.178-2.236-2.42-2.371-5.125-2.41c-2.262-0.035-4.826,1.146-5.855,1.672v-2.57
				h-5.516v12.014h5.516v-7.396c0.596-0.596,1.711-1.514,3.076-1.668c2.096-0.234,2.367,1.686,2.396,2.418v6.646h5.514v-8.705
				H-646.164z"/>
			<path fill="#DBCCBA" d="M-604.801,247.402c-0.178-2.236-2.42-2.371-5.125-2.41c-2.262-0.035-4.826,1.146-5.857,1.672v-2.57
				h-5.514v12.014h5.514v-7.396c0.596-0.596,1.713-1.514,3.078-1.668c2.096-0.234,2.367,1.686,2.396,2.418v6.646h5.514v-8.705
				H-604.801z"/>
		</g>
	</g>
</g>
<g id="TXT">
	<rect x="-714.999" y="-5066.668" fill="none" width="266.667" height="80"/>
	<text transform="matrix(1 0 0 1 -714.999 -5049.6279)"><tspan x="0" y="0" fill="#FFFFFF" font-family="'PTSans-NarrowBold'" font-size="24">El drama de una joven que </tspan><tspan x="0" y="28.8" fill="#FFFFFF" font-family="'PTSans-NarrowBold'" font-size="24">tuvo que cambiar su vida </tspan><tspan x="0" y="57.6" fill="#FFFFFF" font-family="'PTSans-NarrowBold'" font-size="24">para seguir estudiando en </tspan></text>
	<rect x="-17.999" y="-5066.668" fill="none" width="266.667" height="86.5"/>
	<text transform="matrix(1 0 0 1 -17.999 -5049.6279)"><tspan x="0" y="0" fill="#FFFFFF" font-family="'PTSans-NarrowBold'" font-size="24">La mujer protagonista de </tspan><tspan x="0" y="28.8" fill="#FFFFFF" font-family="'PTSans-NarrowBold'" font-size="24">la foto viral q ha sido </tspan><tspan x="0" y="57.6" fill="#FFFFFF" font-family="'PTSans-NarrowBold'" font-size="24">hostigada por la guardia </tspan></text>
	<rect x="-692.999" y="-3042.668" fill="none" width="420.667" height="55.5"/>
	<text transform="matrix(1 0 0 1 -692.999 -3025.6279)"><tspan x="0" y="0" fill="#FFFFFF" font-family="'PTSans-NarrowBold'" font-size="24">La mujer protagonista de la foto viral q ha </tspan><tspan x="0" y="28.8" fill="#FFFFFF" font-family="'PTSans-NarrowBold'" font-size="24">sido hostigada por la guardia venezolana</tspan></text>
	<rect x="-192.111" y="-3046.014" fill="none" width="420.667" height="55.5"/>
	<text transform="matrix(1 0 0 1 -192.1113 -3028.9736)"><tspan x="0" y="0" fill="#FFFFFF" font-family="'PTSans-NarrowBold'" font-size="24">La mujer protagonista de la foto viral q ha </tspan><tspan x="0" y="28.8" fill="#FFFFFF" font-family="'PTSans-NarrowBold'" font-size="24">sido hostigada por la guardia venezolana</tspan></text>
	<rect x="-362.999" y="-5226.668" fill="none" width="266.667" height="80"/>
	<text transform="matrix(1 0 0 1 -362.999 -5209.6279)"><tspan x="0" y="0" fill="#FFFFFF" font-family="'PTSans-NarrowBold'" font-size="24">La mujer que le regalaron </tspan><tspan x="0" y="28.8" fill="#FFFFFF" font-family="'PTSans-NarrowBold'" font-size="24">la casa por ayudar </tspan><tspan x="0" y="57.6" fill="#FFFFFF" font-family="'PTSans-NarrowBold'" font-size="24">voluntariamente a los </tspan></text>
	<rect x="-728.98" y="-1682.387" fill="none" width="998.63" height="114.498"/>
	<text transform="matrix(1 0 0 1 -696.458 -1646.8867)"><tspan x="0" y="0" fill="#DBCCBA" font-family="'PTSans-NarrowBold'" font-size="50">“La mujer que le regalaron la casa por ayudar </tspan><tspan x="106.023" y="60" fill="#DBCCBA" font-family="'PTSans-NarrowBold'" font-size="50">voluntariamente a los deportados”</tspan></text>
	<rect x="-362.999" y="-5121.668" fill="none" width="266.667" height="60"/>
	<text transform="matrix(1 0 0 1 -362.999 -5108.8877)"><tspan x="0" y="0" fill="#FFFFFF" font-family="'PTSans-Narrow'" font-size="18">El drama de una joven que tuvo </tspan><tspan x="0" y="21.6" fill="#FFFFFF" font-family="'PTSans-Narrow'" font-size="18">que cambiar su vida para seguir </tspan><tspan x="0" y="43.199" fill="#FFFFFF" font-family="'PTSans-Narrow'" font-size="18">estudiando en Cúcuta</tspan></text>
	<rect x="-672.999" y="-4851.668" fill="none" width="886.667" height="23"/>
	<text transform="matrix(1 0 0 1 -672.999 -4834.6279)" fill="#FFFFFF" font-family="'PTSans-NarrowBold'" font-size="24">La mujer que le regalaron la casa por ayudar voluntariamente a los deportados </text>
	<rect x="-671.999" y="-4796.668" fill="none" width="884.667" height="60"/>
	<text transform="matrix(1 0 0 1 -671.999 -4783.8877)"><tspan x="0" y="0" fill="#FFFFFF" font-family="'PTSans-Narrow'" font-size="18">El drama de una joven que tuvo que cambiar su vida para seguir estudiando en Cúcuta sumario con texto fálso, el </tspan><tspan x="0" y="21.6" fill="#FFFFFF" font-family="'PTSans-Narrow'" font-size="18">drama de una joven que tuvo que cambiar su vida para seguir estudiando en Cúcuta sumario con texto fálso, el drama </tspan><tspan x="0" y="43.199" fill="#FFFFFF" font-family="'PTSans-Narrow'" font-size="18">de una joven que tuvo que cambiar su vida para seguir estudiando en Cúcuta sumario con texto fálso el drama de una </tspan></text>
	<text transform="matrix(1 0 0 1 155.5098 -1408.5977)" fill="#9E9790" font-family="'PTSans-NarrowBold'" font-size="60">2015</text>
	<text transform="matrix(1 0 0 1 -727.3872 -1408.5977)" fill="#9E9790" font-family="'PTSans-Italic'" font-size="60">Juan Manuel Santos</text>
	<rect x="-598.103" y="-106.996" fill="none" width="251.211" height="11.795"/>
	<text transform="matrix(1 0 0 1 -598.1025 -99.1875)" fill="#9E9790" font-family="'PTSans-Regular'" font-size="11">-  Todos los Derechos Reservados.</text>
	<rect x="231.436" y="-93.66" fill="none" width="39.715" height="8.295"/>
	<text transform="matrix(1 0 0 1 237.0332 -86.5605)" fill="#493E3A" font-family="'PTSans-Caption'" font-size="10">Creditos</text>
	<rect x="-598.103" y="247.004" fill="none" width="251.211" height="11.795"/>
	<text transform="matrix(1 0 0 1 -598.1025 254.8125)" fill="#9E9790" font-family="'PTSans-Regular'" font-size="11">-  Todos los Derechos Reservados.</text>
	<rect x="-356.103" y="440.337" fill="none" width="251.211" height="11.795"/>
	<text transform="matrix(1 0 0 1 -270.833 448.1465)" fill="#9E9790" font-family="'PTSans-Regular'" font-size="11">La Opinión - 2016</text>
	<rect x="-598.103" y="306.305" fill="none" width="117.544" height="113.781"/>
	<text transform="matrix(1 0 0 1 -598.1025 317.6641)"><tspan x="0" y="0" fill="#DBCCBA" font-family="'PTSans-Bold'" font-size="16">Coordinación</tspan><tspan x="0" y="22" fill="#9E9790" font-family="'PTSans-Regular'" font-size="14">-  Nombre Apellido</tspan><tspan x="0" y="36" fill="#9E9790" font-family="'PTSans-Regular'" font-size="14">-  Nombre Apellido</tspan><tspan x="0" y="61" fill="#DBCCBA" font-family="'PTSans-Bold'" font-size="16">Concepto</tspan><tspan x="0" y="83" fill="#9E9790" font-family="'PTSans-Regular'" font-size="14">-  Nombre Apellido</tspan><tspan x="0" y="97" fill="#9E9790" font-family="'PTSans-Regular'" font-size="14">-  Nombre Apellido</tspan></text>
	<rect x="-289.103" y="306.305" fill="none" width="117.544" height="118.781"/>
	<text transform="matrix(1 0 0 1 -289.1025 317.6641)"><tspan x="0" y="0" fill="#DBCCBA" font-family="'PTSans-Bold'" font-size="16">Reporteros</tspan><tspan x="0" y="22" fill="#9E9790" font-family="'PTSans-Regular'" font-size="14">-  Nombre Apellido</tspan><tspan x="0" y="36" fill="#9E9790" font-family="'PTSans-Regular'" font-size="14">-  Nombre Apellido</tspan><tspan x="0" y="50" fill="#9E9790" font-family="'PTSans-Regular'" font-size="14">-  Nombre Apellido</tspan><tspan x="0" y="64" fill="#9E9790" font-family="'PTSans-Regular'" font-size="14">-  Nombre Apellido</tspan><tspan x="0" y="78" fill="#9E9790" font-family="'PTSans-Regular'" font-size="14">-  Nombre Apellido</tspan><tspan x="0" y="92" fill="#9E9790" font-family="'PTSans-Regular'" font-size="14">-  Nombre Apellido</tspan></text>
	<rect x="26.897" y="306.305" fill="none" width="131.544" height="144.781"/>
	<text transform="matrix(1 0 0 1 26.8975 317.6641)"><tspan x="0" y="0" fill="#DBCCBA" font-family="'PTSans-Bold'" font-size="16">Desarrollo Web</tspan><tspan x="0" y="22" fill="#9E9790" font-family="'PTSans-Regular'" font-size="14">-  Jonathan Miranda</tspan><tspan x="0" y="36" fill="#9E9790" font-family="'PTSans-Regular'" font-size="14">-  John Serrano</tspan><tspan x="0" y="61" fill="#DBCCBA" font-family="'PTSans-Bold'" font-size="16">Diseño</tspan><tspan x="0" y="83" fill="#9E9790" font-family="'PTSans-Regular'" font-size="14">-  Roberto Insignares</tspan></text>
	<rect x="231.436" y="260.34" fill="none" width="39.715" height="8.295"/>
	<text transform="matrix(1 0 0 1 237.0332 267.4395)" fill="#493E3A" font-family="'PTSans-Caption'" font-size="10">Creditos</text>
</g>
<g id="Guia">
</g>
</svg>
