<?xml version="1.0" encoding="utf-8"?>
<!-- Generator: Adobe Illustrator 16.0.0, SVG Export Plug-In . SVG Version: 6.00 Build 0)  -->
<!DOCTYPE svg PUBLIC "-//W3C//DTD SVG 1.1//EN" "http://www.w3.org/Graphics/SVG/1.1/DTD/svg11.dtd">
<svg version="1.1" id="Capa_1" xmlns="http://www.w3.org/2000/svg" xmlns:xlink="http://www.w3.org/1999/xlink" x="0px" y="0px"
	 width="595.28px" height="256px" viewBox="0 0 595.28 256" enable-background="new 0 0 595.28 256" xml:space="preserve">
<g>
	<g>
		<g>
			<g>
				<path fill="#211915" d="M289.765,165.735c0.926,0.615-1.547,5.248-3.711,8.031c-5.869,6.793-9.573,9.569-16.986,13.898
					c-6.797,3.703-24.716,12.973-28.424,0c-3.701-13.898,16.375-43.553,29.656-49.736c4.631-2.471,10.812-2.471,12.977,3.398
					c7.414,20.699-19.153,31.201-32.743,37.688c-1.24,0.313-2.166,0.619-3.404,0.925c-1.23,3.396-1.54,6.49-0.925,8.957
					c1.857,4.017,15.139-1.231,21.01-4.94c8.338-5.256,10.187-7.099,15.757-12.667C284.819,168.509,288.526,165.116,289.765,165.735
					z M249.293,174.999c14.214-5.867,33.983-16.062,30.272-30.887c-0.925-1.855-4.322,0-7.413,2.471
					C263.195,152.759,254.547,164.19,249.293,174.999z"/>
				<path fill="#211915" d="M285.124,187.665c0,2.161,1.233,2.471,2.473,2.471c5.557,0,22.241-13.278,22.241-13.906
					c0.306-0.305,2.16-0.607,2.16,0.314c0.307,1.852-2.16,3.709-2.16,3.709c-16.993,14.824-22.241,13.898-22.86,13.898
					c-7.414,0.31-6.797-6.799-6.797-6.799c0-23.781,53.75-88.037,55.606-88.037c1.236-1.232,2.161-1.543,2.772-1.543
					c2.167,0,2.789,3.091,2.789,4.326c0,2.778-1.547,5.252-1.547,5.252l-21.933,26.871
					C285.743,177.163,285.124,185.194,285.124,187.665z"/>
				<path fill="#211915" d="M356.171,165.735c0.931,0.615-1.545,5.248-3.709,8.031c-5.867,6.793-9.574,9.569-16.988,13.898
					c-6.796,3.703-24.711,12.973-28.421,0c-3.705-13.898,16.373-43.553,29.656-49.736c4.64-2.471,10.811-2.471,12.979,3.398
					c7.413,20.699-19.158,31.201-32.749,37.688c-1.231,0.313-2.165,0.619-3.399,0.925c-1.235,3.396-1.542,6.49-0.926,8.957
					c1.851,4.017,15.138-1.231,21.001-4.94c8.345-5.256,10.203-7.099,15.76-12.667C351.226,168.509,354.938,165.116,356.171,165.735
					z M315.708,174.999c14.209-5.867,33.98-16.062,30.272-30.887c-0.931-1.855-4.331,0-7.421,2.471
					C329.61,152.759,320.955,164.19,315.708,174.999z M334.237,128.972c-1.545,0-2.471-0.309-2.471-0.309
					c0-0.309,0-0.309,0.312-0.309c8.96-2.469,8.96-12.974,18.225-12.974c1.854,0,2.773,0.927,2.773,2.47
					C353.076,125.265,337.948,128.972,334.237,128.972z"/>
				<path fill="#211915" d="M377.791,136.692c1.537,0,2.164,0.619,2.164,1.859c0,1.234-0.928,2.775-1.233,3.09
					c-24.715,33.98-26.879,43.859-26.879,43.859c-0.312,0.929-0.312,1.545-0.312,2.164c0,2.161,1.542,2.471,2.476,2.471
					c4.631,0.619,22.242-13.278,22.242-13.906c0.611-0.305,1.236-0.305,1.542-0.305c0.312,0,0.619,0.305,0.619,0.619
					c0,1.235-2.161,3.709-2.161,3.709c-16.069,14.208-22.242,13.898-22.861,13.898c-7.107-0.306-6.796-6.799-6.796-6.799
					c0-11.123,8.651-27.491,21.312-45.711C369.759,139.477,374.388,136.692,377.791,136.692z M378.103,126.501
					c0-4.32,4.939-11.12,8.34-11.12c1.23,0,2.156,0.927,2.156,2.778c0,4.945-4.938,11.121-8.026,11.121
					c-0.617,0-0.931,0-1.244-0.309C378.41,128.663,378.103,127.737,378.103,126.501z"/>
				<path fill="#211915" d="M433.08,102.099c0,2.778-1.544,5.252-1.544,5.252l-19.148,23.476h2.159c1.548,0,4.331,0,4.331,1.858
					c0,2.156-2.783,2.156-4.331,2.156h-5.251c-31.513,42.322-32.436,50.044-32.436,52.824c0,2.161,1.548,2.471,2.468,2.471
					c5.867,0.619,22.245-13.278,22.245-13.906c0.619-0.305,1.238-0.305,1.544-0.305c0.309,0,0.614,0.305,0.614,0.619
					c0,1.852-2.158,3.709-2.158,3.709c-18.226,16.057-22.245,13.898-22.852,13.898c-7.418,0-6.801-6.799-6.801-6.799
					c0-12.354,11.74-32.738,26.565-52.512h-13.291c-1.848,0-4.009,0-4.009-2.156c0-1.858,2.161-1.858,4.009-1.858h16.378
					c22.55-29.655,26.871-33.361,28.109-33.361C431.847,97.465,433.08,99.626,433.08,102.099z"/>
				<path fill="#211915" d="M447.905,165.735c0.925,0.615-1.545,5.248-3.706,8.031c-5.873,6.793-9.577,9.569-16.989,13.898
					c-6.79,3.703-24.712,12.973-28.426,0c-3.698-13.898,16.377-43.553,29.66-49.736c4.634-2.471,10.814-2.471,12.974,3.398
					c7.412,20.699-19.155,31.201-32.744,37.688c-1.236,0.313-2.161,0.619-3.4,0.925c-1.236,3.396-1.544,6.49-0.925,8.957
					c1.851,4.017,15.133-1.231,21.009-4.94c8.34-5.256,10.188-7.099,15.755-12.667C442.958,168.509,446.674,165.116,447.905,165.735
					z M407.438,174.999c14.208-5.867,33.98-16.062,30.274-30.887c-0.926-1.855-4.328,0-7.41,2.471
					C421.34,152.759,412.688,164.19,407.438,174.999z"/>
				<path fill="#211915" d="M429.675,177.469c0-5.561,4.634-11.118,11.124-11.118c1.236,0,3.084,0.311,4.631,0.922
					c4.018-5.246,8.651-9.572,19.771-27.796c0.313-0.313-1.858-4.636,4.631-3.396c7.415,1.541,10.51,33.67,2.17,46.33
					c4.623,0.312,12.041-3.396,12.969-3.396c0.313,0,0.313,0,0.313,0.313c0,1.231-6.187,6.792-13.597,6.792
					c-0.619,0-1.544,0-2.161-0.313c-7.721,8.345-12.972,7.726-19.153,8.039c-7.414,0.306-14.827-3.091-18.844-9.89
					C430.294,181.798,429.675,179.939,429.675,177.469z M441.109,170.058c-3.4,0-7.412,4.325-7.412,8.643
					c0,0.628,0,0.934,0.304,1.553c2.166-2.784,5.559-6.486,8.653-9.891C442.035,170.362,441.724,170.058,441.109,170.058z
					 M434.62,182.104c2.467,4.325,9.882,7.722,16.061,7.722c5.873,0,9.885-2.78,12.363-6.49
					c-5.876-3.083-12.052-7.714-16.994-11.114C442.035,176.229,437.709,179.939,434.62,182.104z M448.822,169.132
					c5.572,3.709,11.435,8.337,16.691,10.808c5.554-9.577,4.012-34.282,1.542-34.596c-5.251,7.726-10.815,16.063-16.684,22.243
					C449.756,168.202,449.447,168.822,448.822,169.132z"/>
				<path fill="#211915" d="M529.141,165.735c0.931,0.615-1.545,5.248-3.709,8.031c-5.867,6.793-9.568,9.569-16.983,13.898
					c-6.801,3.703-24.715,12.973-28.429,0c-3.698-13.898,16.377-43.553,29.662-49.736c4.632-2.471,10.812-2.471,12.969,3.398
					c7.421,20.699-19.152,31.201-32.743,37.688c-1.231,0.313-2.159,0.619-3.393,0.925c-1.236,3.396-1.545,6.49-0.931,8.957
					c1.855,4.017,15.138-1.231,21.009-4.94c8.337-5.256,10.19-7.099,15.752-12.667C524.195,168.509,527.909,165.116,529.141,165.735
					z M488.676,174.999c14.21-5.867,33.975-16.062,30.274-30.887c-0.926-1.855-4.323,0-7.418,2.471
					C502.575,152.759,493.921,164.19,488.676,174.999z"/>
			</g>
			<g>
				<path fill="#FE8702" d="M215.726,199.646c-3.28,2.541-6.597,4.788-9.798,6.732c-12.283,7.471-26.95,13.092-42.04,16.34h364.259
					v-23.072H215.726z"/>
			</g>
			<g>
				<g>
					<g>
						<path fill="#211915" d="M280.916,78.427c0.313-2.423,0.369-4.873,0.135-7.326c-0.116-1.219-0.317-2.433-0.587-3.642
							c-0.279-1.202-0.624-2.396-1.067-3.546c-0.451-1.164-0.975-2.295-1.592-3.385c-0.312-0.541-0.642-1.062-0.996-1.586
							c-0.16-0.229-0.357-0.504-0.539-0.756c-0.188-0.25-0.371-0.492-0.565-0.739c-1.563-1.923-3.398-3.635-5.476-5.011
							c-1.038-0.686-2.134-1.273-3.271-1.76c-0.553-0.24-1.121-0.441-1.7-0.626c-3.65-1.153-6.464-1.524-10.205-0.794
							c-5.234,1.031-3.035,2.641-5.742-2.634c-1.161-2.262-2.513-4.443-4.161-6.38c-3.319-3.879-7.859-6.541-12.708-8.043
							c-2.133-0.666-4.374-1.108-6.61-1.27c-7.183-0.518-14.458,1.805-20.344,5.967c-6.032,4.264-2.095,4.037-7.899-0.442
							c-1.396-1.073-2.839-2.03-4.422-2.8c-2.516-1.199-5.515-1.967-8.286-2.154c-8.842-0.596-17.571,3.408-23.629,9.589
							c-3.944,4.019-6.607,9.456-7.584,14.874c-0.492,2.708-0.563,5.506-0.174,8.305c0.371,2.766,1.137,5.469,2.228,8.033
							c0.566,1.281,1.209,2.527,1.939,3.719c0.639,1.051,1.366,2.076,2.138,3.034c2.942,3.614,6.75,6.253,11.124,7.819
							c6.176,2.211,13.889,1.658,19.78-1.182c3.652-1.754,5.296-3.109,6.023-3.561c0.826-0.52,1.26-0.055,1.801,0.629
							c1.064,1.353,2.168,2.465,3.467,3.59c2.125,1.848,4.575,3.336,7.155,4.453c2.574,1.115,5.278,1.945,8.064,2.467
							c2.774,0.513,5.197,0.615,8.061,0.463c1.445-0.092,3.327-0.327,4.714-0.659c0.719-0.183,1.107-0.296,1.892-0.526
							c0.561-0.15,0.885-0.178,1.308,0.23c0.28,0.262,1.634,1.996,1.917,2.326c0.293,0.318,0.603,0.642,0.917,0.949
							c1.08,1.077,2.202,2.062,3.361,3.055c1.426,1.241,0.153,0.36,1.722,11.402c0.162,1.162,0.843,4.65,0.924,5.149
							c0.083,0.512-0.034,0.798-0.575,0.444c-0.267-0.172-1.756-1.412-2.191-1.75c-0.917-0.715-1.856-1.434-2.789-2.122
							c-0.945-0.694-1.895-1.374-2.855-2.041c-4.107-2.841-8.447-5.384-12.991-7.513c-2.275-1.069-4.597-2.025-6.972-2.883
							c-2.378-0.85-4.753-1.602-7.166-2.275c-2.415-0.666-4.877-1.226-7.393-1.571c-2.516-0.349-5.085-0.485-7.661-0.181
							c-1.291,0.146-2.579,0.404-3.824,0.814c-0.312,0.107-0.62,0.216-0.94,0.349c-0.286,0.113-0.609,0.242-0.909,0.394
							c-0.62,0.313-1.204,0.685-1.746,1.125c-1.081,0.883,5.723-2.42,14.734-0.219c3.023,0.732,6.099,1.291,9.067,2.186
							c2.622,0.791,5.221,1.682,7.794,2.672c8.949,3.436,17.534,8.18,24.622,14.673c3.217,2.96,4.873,5.112,5.707,4.346
							c0.358-0.306,0.2-0.798,0.053-1.19c-0.186-0.478-0.355-0.946-0.524-1.439c-0.505-1.438-1.042-2.865-1.492-4.322
							c-0.508-1.628-0.989-3.273-1.396-4.939c-0.396-1.662-0.752-3.348-0.993-5.05c-0.066-0.435-0.091-0.871-0.123-1.312
							c-0.062-0.693-0.413-4.021,1.144-3.104c0.304,0.183,0.611,0.344,0.932,0.504c2.138,1.057,4.468,1.766,6.855,2.082
							c2.39,0.323,4.828,0.254,7.192-0.146c4.763-0.835,9.252-2.975,13.012-6.022c1.879-1.521,3.577-3.288,5.037-5.235
							c1.447-1.956,2.644-4.13,3.51-6.418C280.023,83.234,280.604,80.847,280.916,78.427z M276.937,84.704
							c-1.438,4.244-4.121,8.037-7.56,10.999c-3.421,2.952-7.59,5.118-12.049,6.04c-2.225,0.471-4.524,0.622-6.798,0.413
							c-2.264-0.211-4.344-0.929-6.444-1.862c-1.051-0.465-2.062-1.026-3.036-1.648c-0.974-0.617-1.923-1.287-2.839-2.004
							c-0.915-0.711-1.717-1.428-2.494-2.273c-0.571-0.632-2.272-2.347-1.248-2.912c0.584-0.311,1.078-0.431,1.662-0.742
							c0.608-0.316,1.217-0.582,1.805-0.936c1.195-0.703,2.343-1.451,3.425-2.312c0.334-0.261,0.645-0.541,0.953-0.819
							c0.804-0.754,1.522-1.59,2.169-2.49c0.67-0.923,1.213-1.865,1.585-3.13c0.162-0.575-0.09-0.614-0.322-0.131
							c-0.132,0.291-0.298,0.597-0.44,0.877c-0.374,0.663-0.78,1.287-1.233,1.887c-1.784,2.381-4.202,3.954-6.899,5.146
							c-1.208,0.543-2.459,1.023-3.733,1.378c-1.661,0.471-3.363,0.817-5.067,1.077c-2.972,0.463-6.028,0.517-9.035,0.23
							c-3.028-0.298-6.072-1.023-8.931-2.104c-2.496-0.914-5.368-2.671-7.475-4.287c-1.054-0.809-2.037-1.694-2.944-2.68
							c-0.908-0.979-1.782-2.018-2.598-3.098c-0.817-1.078-1.443-2.178-2.12-3.348c-0.165-0.281-0.323-0.562-0.471-0.854
							c-0.333-0.61-0.621-1.237-0.864-1.897c-0.07-0.194-0.197-0.743-0.38-0.861c-0.231-0.148-0.37,0.092-0.352,0.312
							c0.03,0.32,0.125,0.631,0.242,0.932c0.128,0.367,0.218,0.615,0.379,0.977c0.576,1.34,1.305,2.604,1.95,3.916
							c0.367,0.734,0.542,1.619,0.041,2.349c-0.502,0.733-1.134,1.192-1.886,1.659c-1.465,0.902-3.048,1.59-4.683,2.125
							c-1.023,0.334-2.062,0.571-3.107,0.764c-3.672,0.662-7.527,0.562-11.175-0.196c-2.458-0.513-4.787-1.468-6.89-2.819
							c-4.213-2.674-7.53-6.714-9.699-11.275c-1.086-2.289-1.879-4.727-2.314-7.232c-1.78-10.42,3.573-19.752,11.699-25.896
							c8.757-6.622,21.792-6.898,30.378,0.569c1.292,1.125,1.829,1.71,2.607,2.528c0.974,1.016,1.438,0.137,3.188-1.322
							c5.713-4.771,13.538-7.33,20.905-7.09c9.774,0.314,18.552,4.955,23.459,14.634c2.604,5.132,1.294,4.394,5.358,3.67
							c4.266-0.769,8.494-0.103,12.299,1.851c0.968,0.497,1.903,1.092,2.784,1.753c1.759,1.315,3.317,2.915,4.629,4.69
							c2.658,3.511,4.185,7.754,4.796,12.178C278.779,75.853,278.392,80.47,276.937,84.704z"/>
					</g>
					<g>
						<path fill="#211915" d="M280.916,78.427c0.66-5.283,0.119-10.789-2.053-15.678c-2.167-4.857-5.99-8.994-10.729-11.412
							c-1.18-0.608-2.428-1.068-3.714-1.43c-1.276-0.366-2.577-0.664-3.898-0.799c-2.629-0.276-5.333,0.076-7.825,0.934
							l-0.946,0.353c-0.164,0.039-0.349,0.112-0.587,0.042c-0.226-0.091-0.333-0.266-0.416-0.416
							c-0.33-0.615-0.558-1.228-0.847-1.828c-0.565-1.201-1.189-2.385-1.865-3.525c-1.347-2.282-2.947-4.441-4.903-6.23
							c-3.898-3.607-8.951-5.811-14.132-6.785c-5.211-0.974-10.631-0.336-15.554,1.531c-2.469,0.927-4.82,2.15-6.99,3.633
							c-1.089,0.746-2.136,1.549-3.118,2.409l-0.742,0.671c-0.135,0.11-0.263,0.23-0.436,0.35c-0.089,0.063-0.186,0.134-0.345,0.193
							c-0.148,0.055-0.399,0.077-0.588,0.008c-0.352-0.138-0.466-0.302-0.607-0.428l-0.361-0.378
							c-0.222-0.247-0.441-0.479-0.669-0.71c-0.92-0.914-1.936-1.738-3.01-2.506c-1.059-0.765-2.166-1.47-3.322-2.045
							c-2.318-1.137-4.88-1.822-7.444-2.119c-5.18-0.532-10.465,0.639-15.113,2.97c-2.325,1.161-4.506,2.61-6.498,4.294
							c-1.986,1.7-3.76,3.594-5.183,5.742c-2.859,4.295-4.582,9.397-4.712,14.523c-0.122,5.107,1.311,10.295,3.814,14.741
							c2.502,4.488,6.329,8.156,10.967,10.291c4.589,2.212,9.891,2.648,14.909,1.725c2.521-0.472,4.899-1.29,7.184-2.514
							c1.15-0.589,2.262-1.237,3.328-1.948l0.801-0.549c0.285-0.188,0.514-0.392,0.958-0.625c0.336-0.174,0.642-0.273,1.086-0.291
							c0.433-0.009,0.887,0.152,1.173,0.344c0.571,0.388,0.791,0.736,1.012,0.992c0.819,1.03,1.645,1.909,2.603,2.777l0.699,0.621
							l0.771,0.641c0.49,0.386,0.981,0.746,1.515,1.102c2.103,1.432,4.43,2.523,6.855,3.377c2.445,0.854,4.919,1.479,7.487,1.8
							c2.525,0.302,5.119,0.274,7.671-0.028c0.636-0.074,1.274-0.167,1.888-0.285c0.605-0.119,1.197-0.275,1.844-0.459
							c0.327-0.095,0.598-0.184,1.063-0.281c0.271-0.053,0.631-0.1,1.052,0.015c0.414,0.095,0.762,0.325,0.954,0.506
							c0.455,0.419,0.584,0.644,0.824,0.918l0.627,0.789c0.798,1.062,1.646,1.839,2.631,2.776l1.452,1.307l0.746,0.664
							c0.137,0.115,0.277,0.239,0.458,0.426c0.178,0.181,0.419,0.513,0.537,0.846c0.205,0.664,0.172,0.996,0.204,1.355l0.04,1.01
							c0.026,0.655,0.069,1.309,0.122,1.956c0.095,1.304,0.227,2.618,0.384,3.928c0.285,2.671,0.775,5.104,1.266,7.905
							c0.023,0.173,0.033,0.308,0.004,0.543c-0.017,0.113-0.041,0.26-0.123,0.453c-0.065,0.18-0.259,0.472-0.554,0.644
							c-0.289,0.181-0.624,0.216-0.808,0.198c-0.218-0.016-0.339-0.059-0.454-0.09c-0.218-0.084-0.344-0.16-0.462-0.234
							c-0.235-0.152-0.383-0.277-0.509-0.379l-0.398-0.32l-1.53-1.238c-1.06-0.829-2.102-1.62-3.169-2.402
							c-2.138-1.572-4.314-3.057-6.547-4.445c-4.469-2.765-9.21-5.191-14.114-7.09c-2.442-0.947-4.973-1.79-7.495-2.538
							c-2.544-0.759-5.083-1.383-7.668-1.789c-2.592-0.403-5.183-0.585-7.755-0.321c-1.277,0.125-2.534,0.375-3.75,0.756
							c-1.202,0.381-2.354,0.883-3.3,1.646l-0.075,0.062c-0.047,0.024-0.031,0.051,0.068-0.101c0.443-0.95-1.107-1.452-0.65-1.173
							c-0.028,0.011,0.009,0,0.029,0l0.439-0.094l0.985-0.229c0.67-0.148,1.338-0.275,2.015-0.388
							c1.355-0.208,2.719-0.33,4.09-0.354c2.725-0.065,5.503,0.297,8.102,1c2.576,0.627,5.208,1.159,7.802,1.934
							c2.569,0.775,5.11,1.65,7.615,2.611c5.009,1.925,9.886,4.228,14.468,7.026c4.587,2.79,8.884,6.074,12.674,9.87
							c0.955,0.916,1.865,1.957,2.898,2.647c0.268,0.163,0.528,0.235,0.663,0.13c0.183-0.117,0.205-0.326,0.132-0.627l-0.651-1.867
							c-0.89-2.516-1.728-5.061-2.415-7.65c-0.667-2.589-1.282-5.197-1.492-7.889c-0.059-0.662-0.108-1.344-0.055-2.025
							c0.034-0.344,0.077-0.693,0.243-1.027c0.086-0.171,0.243-0.349,0.461-0.408c0.228-0.063,0.43,0.008,0.593,0.078
							c1.179,0.67,2.373,1.219,3.629,1.649c5.021,1.766,10.627,1.557,15.635-0.205c5.023-1.749,9.562-4.905,12.951-9.015
							C278.203,88.874,280.223,83.71,280.916,78.427z M280.916,78.427c-0.661,5.291-2.647,10.473-6.078,14.601
							c-3.383,4.146-7.914,7.349-12.957,9.146c-5.041,1.795-10.699,2.053-15.802,0.293c-1.269-0.424-2.517-0.994-3.665-1.639
							c-0.592-0.348-0.802,0.489-0.835,1.09c-0.045,0.651,0,1.305,0.063,1.977c0.225,2.635,0.856,5.249,1.529,7.816
							c0.699,2.57,1.551,5.088,2.492,7.59c0.218,0.64,0.458,1.229,0.688,1.898c0.049,0.188,0.081,0.383,0.049,0.607
							c-0.046,0.238-0.188,0.449-0.375,0.574c-0.198,0.151-0.476,0.176-0.681,0.129c-0.209-0.043-0.387-0.129-0.543-0.221
							c-1.201-0.775-2.069-1.768-3.054-2.678c-3.815-3.711-8.113-6.887-12.689-9.568c-4.574-2.694-9.426-4.906-14.416-6.73
							c-2.495-0.909-5.021-1.737-7.57-2.465c-2.538-0.711-5.152-1.196-7.771-1.791c-2.573-0.648-5.146-0.939-7.751-0.848
							c-1.303,0.046-2.598,0.189-3.88,0.406c-0.643,0.112-1.282,0.248-1.92,0.397l-0.958,0.235
							c-0.167,0.043-0.328,0.088-0.534,0.125c-0.064,0.01-0.114,0.02-0.225,0.023c0.388,0.299-1.308-0.216-0.794-1.264
							c0.149-0.219,0.228-0.247,0.243-0.28l0.123-0.091c1.129-0.938,2.46-1.531,3.782-1.978c1.331-0.44,2.711-0.735,4.081-0.888
							c2.749-0.332,5.525-0.182,8.212,0.197c2.687,0.381,5.359,0.993,7.941,1.727c2.606,0.724,5.158,1.532,7.701,2.48
							c5.097,1.881,9.958,4.245,14.571,7.09c2.305,1.414,4.554,2.921,6.734,4.498c1.086,0.785,2.176,1.61,3.227,2.418l1.585,1.271
							l0.383,0.307l0.292,0.216c0.018,0.014,0.05,0.028-0.017-0.004c-0.044,0.004-0.265-0.152-0.78,0.111
							c-0.223,0.133-0.358,0.367-0.398,0.454c-0.056,0.129-0.056,0.176-0.062,0.208c-0.007,0.078-0.007,0.041-0.007,0.041
							c-0.452-2.438-1.023-5.25-1.311-7.895c-0.164-1.336-0.314-2.681-0.427-4.043c-0.052-0.672-0.098-1.348-0.132-2.031
							l-0.051-0.992c-0.005-0.303-0.048-0.645-0.05-0.623c0,0.02,0.039,0.075-0.017,0.012c-0.052-0.053-0.157-0.144-0.274-0.252
							l-0.763-0.656l-1.53-1.363c-0.95-0.885-2.071-1.942-2.875-3.024l-0.628-0.769c-0.195-0.236-0.46-0.549-0.502-0.58
							c-0.051-0.045,0,0.017,0.085,0.031c0.11,0.015,0.127,0.004,0.068,0.015c-0.186,0.037-0.547,0.147-0.864,0.243
							c-0.644,0.181-1.334,0.379-2.042,0.515c-0.694,0.142-1.38,0.249-2.069,0.334c-2.747,0.342-5.528,0.384-8.308,0.079
							c-2.73-0.33-5.479-0.984-8.062-1.902c-2.6-0.929-5.144-2.141-7.453-3.723c-0.572-0.394-1.139-0.824-1.709-1.272l-0.767-0.644
							l-0.791-0.707c-1.015-0.93-2.015-2.009-2.856-3.084c-0.191-0.253-0.384-0.449-0.375-0.428c0,0,0.13,0.059,0.227,0.055
							c0.113-0.013,0.092-0.013,0.135-0.031c-0.162,0.07-0.452,0.289-0.719,0.471l-0.858,0.578c-1.155,0.766-2.36,1.453-3.586,2.074
							c-2.439,1.293-5.16,2.216-7.894,2.709c-5.458,0.976-11.32,0.46-16.378-2.016c-2.521-1.197-4.867-2.786-6.887-4.729
							c-0.508-0.483-0.985-0.971-1.463-1.516c-0.249-0.269-0.454-0.52-0.669-0.774c-0.233-0.282-0.43-0.55-0.654-0.827
							c-0.417-0.549-0.818-1.125-1.219-1.724c-0.35-0.546-0.725-1.17-1.06-1.762c-1.379-2.444-2.366-5.007-3.032-7.704
							c-0.667-2.702-0.985-5.451-0.866-8.241c0.242-5.562,2.163-10.944,5.284-15.481c1.562-2.275,3.503-4.293,5.605-6.022
							c2.114-1.735,4.434-3.225,6.897-4.411c4.92-2.364,10.488-3.51,15.96-2.87c2.722,0.354,5.386,1.12,7.841,2.368
							c1.227,0.633,2.369,1.383,3.464,2.2c1.077,0.808,2.137,1.685,3.092,2.672c0.239,0.244,0.475,0.499,0.697,0.747l0.323,0.357
							c0.09,0.102,0.22,0.19,0.178,0.166c-0.026-0.009-0.096-0.007-0.092,0c0,0,0.046-0.017,0.092-0.055
							c0.102-0.07,0.222-0.17,0.345-0.271l0.754-0.661c1.038-0.886,2.126-1.688,3.255-2.437c2.261-1.488,4.694-2.715,7.238-3.621
							c5.072-1.836,10.669-2.402,15.959-1.326c5.268,1.069,10.331,3.415,14.291,7.088c1.977,1.834,3.578,4.024,4.929,6.342
							c0.674,1.156,1.294,2.34,1.849,3.561c0.286,0.61,0.532,1.247,0.829,1.812c0.153,0.313,0.315,0.359,0.653,0.234l0.933-0.336
							c2.548-0.861,5.273-1.201,7.955-0.908c1.338,0.154,2.647,0.461,3.93,0.842c1.285,0.367,2.55,0.848,3.741,1.465
							c4.771,2.463,8.581,6.648,10.729,11.549C281.104,67.629,281.604,73.148,280.916,78.427z"/>
						<path fill="#211915" d="M276.937,84.704c-2.531,7.473-8.78,13.412-16.142,16.101c-3.689,1.321-7.701,1.911-11.612,1.278
							c-3.884-0.734-7.492-2.578-10.639-4.944c-1.593-1.175-3.045-2.509-4.254-4.14c-0.14-0.208-0.274-0.451-0.343-0.729
							c-0.09-0.26-0.047-0.696,0.243-0.922c0.486-0.336,0.949-0.465,1.387-0.667c0.848-0.415,1.758-0.853,2.565-1.37
							c1.641-1.02,3.252-2.144,4.557-3.555c1.267-1.41,2.461-2.996,2.946-4.801c0.03-0.103,0.052-0.213,0.052-0.235
							c0,0-0.009-0.004,0.004,0.038c0,0,0.081,0.197,0.278,0.22c0.201,0.017,0.21-0.038,0.241-0.042
							c0.012-0.002,0.012-0.012,0.006-0.002c-0.051,0.055-0.189,0.365-0.286,0.559c-0.233,0.459-0.458,0.887-0.734,1.325
							c-0.532,0.875-1.133,1.661-1.833,2.421c-1.396,1.478-3.083,2.636-4.868,3.551c-3.553,1.854-7.522,2.801-11.438,3.317
							c-4,0.472-7.991,0.344-11.952-0.494c-1.968-0.405-3.884-0.985-5.762-1.718c-1.909-0.791-3.647-1.777-5.329-2.887
							c-0.828-0.543-1.685-1.169-2.438-1.77c-0.808-0.663-1.554-1.352-2.264-2.09c-1.361-1.475-2.679-2.968-3.808-4.723
							c-0.55-0.871-1.038-1.689-1.543-2.58c-0.479-0.811-1.012-1.983-1.251-2.775c0,0-0.023-0.052,0.005,0.014
							c0.011-0.004,0.094,0.164,0.353,0.28c-0.009-0.022-0.153-0.043,0.168,0.05c0.235,0.034,0.406,0,0.566-0.072
							c0.307-0.143,0.414-0.36,0.451-0.447c0.097-0.199,0.031-0.456,0.069-0.221c0.023,0.152,0.034,0.108,0.05,0.205
							c0.029,0.082,0.06,0.176,0.099,0.278l0.125,0.337l0.253,0.625c0.383,0.857,0.814,1.671,1.282,2.548l0.694,1.351
							c0.252,0.53,0.493,1.195,0.461,1.971c-0.016,0.387-0.114,0.805-0.299,1.174c-0.048,0.092-0.101,0.186-0.153,0.272
							l-0.097,0.147l-0.054,0.072c-0.072,0.092-0.146,0.199-0.271,0.336c-0.43,0.516-0.887,0.87-1.351,1.188
							c-0.23,0.158-0.443,0.299-0.679,0.438c-0.21,0.129-0.408,0.255-0.648,0.383c-0.482,0.271-0.933,0.5-1.403,0.721
							c-0.949,0.438-1.882,0.809-2.891,1.131c-3.924,1.229-8.101,1.533-12.159,1.041c-2.01-0.254-4.077-0.66-6.021-1.431
							c-1.942-0.737-3.791-1.812-5.43-3.024c-3.336-2.473-5.997-5.729-7.955-9.319c-1.917-3.596-3.202-7.616-3.441-11.755
							c-0.26-4.139,0.601-8.331,2.329-12.058c1.717-3.747,4.268-7.038,7.242-9.797c1.514-1.37,3.045-2.63,4.828-3.735
							c1.751-1.081,3.633-1.953,5.584-2.587c7.763-2.583,16.837-1.321,23.276,3.805c0.812,0.643,1.545,1.312,2.274,2.019
							c0.362,0.357,0.715,0.725,1.047,1.092c0.168,0.166,0.357,0.374,0.456,0.477c0.114,0.094,0.123,0.064,0.037,0.064
							c-0.066,0.02,0.06-0.008,0.209-0.121c0.149-0.105,0.322-0.258,0.506-0.406c0.362-0.318,0.74-0.656,1.133-0.979
							c0.763-0.622,1.604-1.248,2.437-1.793c3.372-2.205,7.148-3.743,11.063-4.58c3.925-0.846,7.965-0.953,11.918-0.286
							c3.935,0.661,7.76,2.118,11.039,4.401c3.292,2.262,5.982,5.336,7.926,8.779c0.49,0.867,0.925,1.751,1.345,2.64
							c0.431,0.877,0.781,1.839,1.26,2.61c0.135,0.184,0.263,0.293,0.435,0.325c0.183,0.033,0.417,0.005,0.651-0.034l1.434-0.293
							c0.966-0.197,1.954-0.338,2.939-0.398c3.953-0.243,7.968,0.773,11.326,2.84c3.362,2.07,6.062,5.116,7.986,8.527
							c1.908,3.446,2.919,7.33,3.249,11.239C278.681,77.019,278.214,80.997,276.937,84.704z M276.937,84.704
							c1.267-3.715,1.71-7.686,1.387-11.587c-0.341-3.9-1.376-7.772-3.284-11.198c-1.915-3.4-4.666-6.361-8.017-8.373
							c-3.345-2-7.303-2.956-11.185-2.662c-0.964,0.072-1.927,0.218-2.877,0.429l-1.439,0.321c-0.246,0.046-0.508,0.094-0.812,0.052
							c-0.322-0.047-0.587-0.284-0.733-0.499c-0.575-0.887-0.906-1.777-1.359-2.654c-0.438-0.871-0.886-1.741-1.387-2.572
							c-1.976-3.336-4.658-6.26-7.884-8.377c-3.211-2.141-6.921-3.461-10.729-4.012c-3.793-0.57-7.723-0.38-11.45,0.508
							c-3.742,0.881-7.32,2.434-10.463,4.598c-0.797,0.546-1.525,1.104-2.266,1.738c-0.362,0.308-0.705,0.627-1.078,0.965
							c-0.185,0.168-0.383,0.344-0.629,0.525c-0.24,0.178-0.55,0.411-1.112,0.467c-0.596,0.037-1.037-0.271-1.29-0.488
							c-0.255-0.234-0.396-0.393-0.575-0.572c-0.335-0.351-0.673-0.686-1.017-1.009c-0.692-0.642-1.418-1.284-2.164-1.848
							c-2.995-2.265-6.601-3.685-10.313-4.178c-3.731-0.506-7.556-0.091-11.099,1.114c-1.765,0.602-3.469,1.41-5.035,2.412
							c-1.543,0.977-3.049,2.229-4.413,3.51c-2.747,2.598-5.031,5.678-6.577,9.071c-1.555,3.386-2.292,7.121-2.05,10.819
							c0.023,0.469,0.076,0.918,0.126,1.36c0.059,0.437,0.136,1.011,0.222,1.391c0.162,0.918,0.39,1.823,0.66,2.719
							c0.537,1.78,1.274,3.509,2.168,5.163c1.77,3.297,4.191,6.265,7.151,8.484c2.978,2.271,6.441,3.585,10.201,4.003
							c3.719,0.457,7.543,0.256,11.125-0.826c1.76-0.543,3.466-1.296,4.998-2.288c0.353-0.231,0.665-0.493,0.87-0.733
							c0.333-0.401,0.305-0.369,0.346-0.606c0.016-0.203-0.055-0.5-0.221-0.856l-0.643-1.271c-0.444-0.857-0.917-1.782-1.317-2.732
							c-0.102-0.233-0.202-0.492-0.287-0.735l-0.121-0.353c-0.047-0.133-0.091-0.271-0.134-0.428
							c-0.036-0.134-0.104-0.414-0.108-0.513c0,0-0.109-0.508,0.083-0.937c0.081-0.209,0.271-0.524,0.688-0.728
							c0.214-0.092,0.447-0.144,0.744-0.092c0.384,0.09,0.294,0.099,0.343,0.108c0.362,0.17,0.537,0.433,0.603,0.539
							c0.107,0.159,0.127,0.229,0.178,0.334c0.341,1.075,0.616,1.703,1.099,2.612c0.444,0.821,0.942,1.7,1.423,2.497
							c0.474,0.807,1.027,1.534,1.628,2.301c0.585,0.746,1.201,1.478,1.843,2.194c0.639,0.69,1.32,1.337,2.017,1.94
							c0.77,0.633,1.48,1.182,2.283,1.739c1.57,1.079,3.236,2.069,4.948,2.815c1.755,0.725,3.59,1.32,5.458,1.754
							c3.694,0.872,7.649,1.092,11.446,0.719c3.848-0.429,7.649-1.25,11.111-2.965c1.719-0.836,3.334-1.895,4.659-3.248
							c0.655-0.672,1.255-1.441,1.766-2.223c0.26-0.389,0.494-0.823,0.72-1.238c0.135-0.229,0.166-0.39,0.413-0.73
							c0.031-0.037,0.074-0.082,0.134-0.127c0.08-0.039,0.153-0.131,0.412-0.11c0.256,0.037,0.384,0.299,0.392,0.358
							c0.036,0.1,0.036,0.154,0.036,0.22c-0.009,0.218-0.056,0.351-0.088,0.479c-1.358,3.963-4.631,6.675-8.022,8.628
							c-0.86,0.52-1.738,0.916-2.649,1.346c-0.458,0.194-0.95,0.357-1.277,0.567c-0.236,0.149-0.071,0.638,0.17,1.022
							c1.098,1.535,2.542,2.919,4.093,4.081c3.082,2.384,6.621,4.245,10.454,5.024c3.847,0.663,7.855,0.161,11.533-1.152
							C268.104,98.06,274.37,92.161,276.937,84.704z"/>
					</g>
				</g>
			</g>
			<g>
				<path fill="#211915" d="M57.938,189.599c0-1.284,0.644-1.934,1.932-2.255c9.018-2.253,9.662,14.817,10.952,15.459
					c13.206,10.958,41.224,16.101,62.479,16.101c42.513,0,99.2-24.146,99.2-72.463c0-21.252-11.918-37.68-34.139-39.613
					c-10.308,0-18.358,0.324-27.055,8.056c-4.186,3.542-5.149,13.524-6.443,21.574c9.021-14.169,16.427-24.799,16.427-24.799
					c0.966-1.93,1.931-2.255,2.898-2.255c2.254,0,3.542,3.869,3.542,5.479c0,2.575-1.287,4.829-1.287,4.829l-20.286,29.953
					c-29.313,41.866-30.277,57.324-30.277,59.255c0,2.578-1.612,3.228-2.58,3.228c-2.571,0-2.896-1.291-2.896-2.576
					c0-13.852,15.139-43.156,30.595-66.994c0-6.441,0.645-24.476,8.375-30.919c9.336-8.048,19.647-9.338,30.273-8.694
					c22.547,1.285,42.194,16.429,42.194,43.477c0,51.533-62.48,77.299-106.923,77.299c-13.208,0-26.412-1.933-38.651-5.479
					C84.992,216.327,57.938,205.061,57.938,189.599z"/>
			</g>
		</g>
	</g>
	<g>
		<path fill="#FFFFFF" d="M212.02,207.554h2.322c0.221,0,0.407,0.051,0.557,0.153c0.15,0.104,0.245,0.233,0.284,0.392l1.741,6.492
			c0.095,0.355,0.172,0.702,0.231,1.042c0.059,0.34,0.116,0.68,0.171,1.019c0.087-0.339,0.18-0.679,0.279-1.019
			c0.099-0.34,0.203-0.687,0.314-1.042l2.014-6.517c0.047-0.157,0.142-0.288,0.284-0.391c0.143-0.103,0.308-0.154,0.498-0.154h1.292
			c0.213,0,0.391,0.052,0.533,0.154s0.237,0.233,0.284,0.391l1.99,6.635c0.103,0.34,0.196,0.669,0.278,0.989
			c0.083,0.319,0.164,0.642,0.243,0.966c0.055-0.34,0.116-0.68,0.184-1.02c0.067-0.339,0.152-0.69,0.254-1.054l1.801-6.492
			c0.04-0.158,0.134-0.288,0.285-0.392c0.15-0.103,0.324-0.153,0.521-0.153h2.215l-3.85,12.154h-2.357
			c-0.253,0-0.435-0.174-0.545-0.521l-2.192-7.024c-0.071-0.229-0.136-0.46-0.195-0.693c-0.059-0.232-0.109-0.464-0.148-0.693
			c-0.048,0.237-0.099,0.473-0.154,0.705c-0.055,0.233-0.118,0.468-0.189,0.705l-2.215,7.001c-0.111,0.348-0.324,0.521-0.64,0.521
			h-2.239L212.02,207.554z"/>
		<path fill="#FFFFFF" d="M238.817,207.554h2.322c0.221,0,0.407,0.051,0.557,0.153c0.15,0.104,0.245,0.233,0.284,0.392l1.741,6.492
			c0.095,0.355,0.172,0.702,0.231,1.042c0.059,0.34,0.116,0.68,0.171,1.019c0.087-0.339,0.18-0.679,0.279-1.019
			c0.099-0.34,0.203-0.687,0.314-1.042l2.014-6.517c0.047-0.157,0.142-0.288,0.284-0.391c0.143-0.103,0.308-0.154,0.498-0.154h1.292
			c0.213,0,0.391,0.052,0.533,0.154s0.237,0.233,0.284,0.391l1.99,6.635c0.103,0.34,0.196,0.669,0.278,0.989
			c0.083,0.319,0.164,0.642,0.243,0.966c0.055-0.34,0.116-0.68,0.184-1.02c0.067-0.339,0.152-0.69,0.254-1.054l1.801-6.492
			c0.04-0.158,0.134-0.288,0.285-0.392c0.15-0.103,0.324-0.153,0.521-0.153h2.215l-3.85,12.154h-2.357
			c-0.253,0-0.435-0.174-0.545-0.521l-2.192-7.024c-0.071-0.229-0.136-0.46-0.195-0.693c-0.059-0.232-0.109-0.464-0.148-0.693
			c-0.048,0.237-0.099,0.473-0.154,0.705c-0.055,0.233-0.118,0.468-0.189,0.705l-2.215,7.001c-0.111,0.348-0.324,0.521-0.64,0.521
			h-2.239L238.817,207.554z"/>
		<path fill="#FFFFFF" d="M265.614,207.554h2.322c0.221,0,0.407,0.051,0.557,0.153c0.15,0.104,0.245,0.233,0.284,0.392l1.741,6.492
			c0.095,0.355,0.172,0.702,0.231,1.042c0.059,0.34,0.116,0.68,0.171,1.019c0.087-0.339,0.18-0.679,0.279-1.019
			c0.099-0.34,0.203-0.687,0.314-1.042l2.014-6.517c0.047-0.157,0.142-0.288,0.284-0.391c0.143-0.103,0.308-0.154,0.498-0.154h1.292
			c0.213,0,0.391,0.052,0.533,0.154s0.237,0.233,0.284,0.391l1.99,6.635c0.103,0.34,0.196,0.669,0.278,0.989
			c0.083,0.319,0.164,0.642,0.243,0.966c0.055-0.34,0.116-0.68,0.184-1.02c0.067-0.339,0.152-0.69,0.254-1.054l1.801-6.492
			c0.04-0.158,0.134-0.288,0.285-0.392c0.15-0.103,0.324-0.153,0.521-0.153h2.215l-3.85,12.154h-2.357
			c-0.253,0-0.435-0.174-0.545-0.521l-2.192-7.024c-0.071-0.229-0.136-0.46-0.195-0.693c-0.059-0.232-0.109-0.464-0.148-0.693
			c-0.048,0.237-0.099,0.473-0.154,0.705c-0.055,0.233-0.118,0.468-0.189,0.705l-2.215,7.001c-0.111,0.348-0.324,0.521-0.64,0.521
			h-2.239L265.614,207.554z"/>
		<path fill="#FFFFFF" d="M292.352,218.097c0-0.244,0.045-0.478,0.136-0.698c0.091-0.222,0.217-0.411,0.379-0.569
			c0.162-0.157,0.353-0.284,0.574-0.379s0.458-0.142,0.711-0.142c0.244,0,0.477,0.047,0.699,0.142
			c0.221,0.095,0.41,0.222,0.568,0.379c0.157,0.158,0.283,0.348,0.379,0.569c0.095,0.221,0.143,0.454,0.143,0.698
			c0,0.253-0.048,0.488-0.143,0.705c-0.096,0.218-0.222,0.405-0.379,0.562c-0.158,0.158-0.348,0.283-0.568,0.374
			c-0.223,0.09-0.455,0.136-0.699,0.136c-0.254,0-0.49-0.046-0.711-0.136c-0.221-0.091-0.413-0.216-0.574-0.374
			c-0.162-0.157-0.289-0.345-0.379-0.562C292.397,218.585,292.352,218.35,292.352,218.097z"/>
		<path fill="#FFFFFF" d="M314.991,219.708c-0.379,0-0.628-0.178-0.746-0.533l-0.237-1.173c-0.253,0.285-0.518,0.541-0.794,0.771
			s-0.574,0.427-0.895,0.592c-0.319,0.166-0.663,0.295-1.03,0.386s-0.764,0.136-1.19,0.136c-0.663,0-1.271-0.138-1.824-0.414
			c-0.554-0.276-1.029-0.678-1.428-1.203c-0.399-0.524-0.707-1.175-0.924-1.948c-0.218-0.774-0.326-1.659-0.326-2.654
			c0-0.9,0.122-1.737,0.367-2.511c0.245-0.774,0.597-1.445,1.055-2.015c0.458-0.568,1.007-1.013,1.646-1.333
			c0.64-0.319,1.358-0.479,2.156-0.479c0.679,0,1.26,0.108,1.741,0.326c0.481,0.217,0.912,0.508,1.291,0.87v-6.421h2.927v17.604
			H314.991z M311.094,217.564c0.608,0,1.125-0.127,1.552-0.38c0.427-0.252,0.829-0.611,1.208-1.078v-5.449
			c-0.331-0.402-0.692-0.688-1.084-0.853c-0.391-0.166-0.812-0.249-1.262-0.249c-0.442,0-0.843,0.083-1.202,0.249
			c-0.359,0.165-0.663,0.416-0.912,0.752s-0.44,0.762-0.574,1.279c-0.135,0.518-0.202,1.128-0.202,1.83
			c0,0.711,0.058,1.313,0.172,1.807c0.115,0.494,0.278,0.896,0.492,1.209c0.213,0.312,0.474,0.537,0.781,0.675
			C310.371,217.495,310.715,217.564,311.094,217.564z"/>
		<path fill="#FFFFFF" d="M333.022,207.364c0.766,0,1.471,0.122,2.114,0.367c0.644,0.244,1.199,0.602,1.665,1.071
			c0.466,0.471,0.829,1.047,1.09,1.73c0.261,0.683,0.391,1.463,0.391,2.34c0,0.221-0.01,0.404-0.029,0.551
			c-0.02,0.146-0.056,0.261-0.106,0.343c-0.052,0.083-0.121,0.143-0.208,0.178c-0.087,0.036-0.197,0.054-0.331,0.054h-7.511
			c0.086,1.248,0.422,2.164,1.007,2.748c0.584,0.585,1.358,0.877,2.321,0.877c0.475,0,0.883-0.055,1.227-0.166
			c0.344-0.11,0.644-0.232,0.9-0.367c0.257-0.134,0.481-0.256,0.675-0.367c0.194-0.11,0.382-0.166,0.563-0.166
			c0.118,0,0.221,0.024,0.308,0.071c0.087,0.048,0.162,0.114,0.226,0.201l0.853,1.066c-0.324,0.379-0.688,0.697-1.09,0.954
			c-0.403,0.257-0.823,0.462-1.262,0.616c-0.438,0.153-0.885,0.262-1.339,0.325s-0.895,0.095-1.32,0.095
			c-0.846,0-1.632-0.14-2.358-0.42s-1.358-0.695-1.896-1.244s-0.959-1.229-1.268-2.038c-0.308-0.81-0.462-1.747-0.462-2.813
			c0-0.829,0.135-1.609,0.403-2.34s0.653-1.366,1.155-1.907c0.501-0.541,1.113-0.97,1.836-1.285
			C331.299,207.521,332.114,207.364,333.022,207.364z M333.082,209.461c-0.854,0-1.521,0.241-2.003,0.723
			c-0.481,0.481-0.789,1.165-0.924,2.049h5.497c0-0.379-0.052-0.736-0.154-1.071c-0.103-0.336-0.261-0.63-0.474-0.883
			s-0.481-0.452-0.806-0.599C333.895,209.534,333.516,209.461,333.082,209.461z"/>
		<path fill="#FFFFFF" d="M351.835,202.104v17.604h-2.927v-17.604H351.835z"/>
		<path fill="#FFFFFF" d="M368.219,207.364c0.766,0,1.471,0.122,2.114,0.367c0.644,0.244,1.199,0.602,1.665,1.071
			c0.466,0.471,0.829,1.047,1.09,1.73c0.261,0.683,0.391,1.463,0.391,2.34c0,0.221-0.01,0.404-0.029,0.551
			c-0.02,0.146-0.056,0.261-0.106,0.343c-0.052,0.083-0.121,0.143-0.208,0.178c-0.087,0.036-0.197,0.054-0.331,0.054h-7.511
			c0.086,1.248,0.422,2.164,1.007,2.748c0.584,0.585,1.358,0.877,2.321,0.877c0.475,0,0.883-0.055,1.227-0.166
			c0.344-0.11,0.644-0.232,0.9-0.367c0.257-0.134,0.481-0.256,0.675-0.367c0.194-0.11,0.382-0.166,0.563-0.166
			c0.118,0,0.221,0.024,0.308,0.071c0.087,0.048,0.162,0.114,0.226,0.201l0.853,1.066c-0.324,0.379-0.688,0.697-1.09,0.954
			c-0.403,0.257-0.823,0.462-1.262,0.616c-0.438,0.153-0.885,0.262-1.339,0.325s-0.895,0.095-1.32,0.095
			c-0.846,0-1.632-0.14-2.358-0.42s-1.358-0.695-1.896-1.244s-0.959-1.229-1.268-2.038c-0.308-0.81-0.462-1.747-0.462-2.813
			c0-0.829,0.135-1.609,0.403-2.34s0.653-1.366,1.155-1.907c0.501-0.541,1.113-0.97,1.836-1.285
			C366.495,207.521,367.311,207.364,368.219,207.364z M368.278,209.461c-0.854,0-1.521,0.241-2.003,0.723
			c-0.481,0.481-0.789,1.165-0.924,2.049h5.497c0-0.379-0.052-0.736-0.154-1.071c-0.103-0.336-0.261-0.63-0.474-0.883
			s-0.481-0.452-0.806-0.599C369.091,209.534,368.712,209.461,368.278,209.461z"/>
		<path fill="#FFFFFF" d="M387.47,204.011c0,0.253-0.052,0.49-0.154,0.711c-0.103,0.222-0.239,0.415-0.409,0.581
			s-0.369,0.298-0.598,0.396c-0.229,0.099-0.474,0.148-0.734,0.148c-0.253,0-0.492-0.05-0.717-0.148
			c-0.226-0.099-0.421-0.23-0.587-0.396s-0.298-0.359-0.396-0.581c-0.099-0.221-0.148-0.458-0.148-0.711
			c0-0.26,0.05-0.505,0.148-0.734c0.099-0.229,0.23-0.426,0.396-0.592s0.361-0.298,0.587-0.397c0.225-0.099,0.464-0.147,0.717-0.147
			c0.261,0,0.505,0.049,0.734,0.147c0.229,0.1,0.428,0.231,0.598,0.397s0.307,0.363,0.409,0.592
			C387.418,203.506,387.47,203.751,387.47,204.011z M387.031,207.554v12.154h-2.927v-12.154H387.031z"/>
		<path fill="#FFFFFF" d="M402.385,219.897c-1.051,0-1.86-0.298-2.429-0.895c-0.569-0.596-0.854-1.419-0.854-2.47v-6.788h-1.231
			c-0.158,0-0.295-0.052-0.409-0.154s-0.172-0.257-0.172-0.462v-1.161l1.955-0.319l0.616-3.317c0.031-0.158,0.104-0.28,0.219-0.367
			s0.259-0.131,0.433-0.131h1.517v3.827h3.198v2.085h-3.198v6.587c0,0.379,0.095,0.675,0.284,0.889
			c0.189,0.213,0.442,0.319,0.758,0.319c0.182,0,0.334-0.021,0.456-0.064c0.122-0.044,0.229-0.089,0.32-0.137
			s0.172-0.093,0.242-0.136c0.071-0.044,0.143-0.065,0.214-0.065c0.087,0,0.157,0.021,0.213,0.065
			c0.056,0.043,0.114,0.108,0.178,0.195l0.877,1.421c-0.427,0.355-0.916,0.624-1.469,0.806
			C403.549,219.807,402.977,219.897,402.385,219.897z"/>
		<path fill="#FFFFFF" d="M420.641,207.364c0.766,0,1.471,0.122,2.114,0.367c0.644,0.244,1.199,0.602,1.665,1.071
			c0.466,0.471,0.829,1.047,1.09,1.73c0.261,0.683,0.391,1.463,0.391,2.34c0,0.221-0.01,0.404-0.029,0.551
			c-0.02,0.146-0.056,0.261-0.106,0.343c-0.052,0.083-0.121,0.143-0.208,0.178c-0.087,0.036-0.197,0.054-0.331,0.054h-7.511
			c0.086,1.248,0.422,2.164,1.007,2.748c0.584,0.585,1.358,0.877,2.321,0.877c0.475,0,0.883-0.055,1.227-0.166
			c0.344-0.11,0.644-0.232,0.9-0.367c0.257-0.134,0.481-0.256,0.675-0.367c0.194-0.11,0.382-0.166,0.563-0.166
			c0.118,0,0.221,0.024,0.308,0.071c0.087,0.048,0.162,0.114,0.226,0.201l0.853,1.066c-0.324,0.379-0.688,0.697-1.09,0.954
			c-0.403,0.257-0.823,0.462-1.262,0.616c-0.438,0.153-0.885,0.262-1.339,0.325s-0.895,0.095-1.32,0.095
			c-0.846,0-1.632-0.14-2.358-0.42s-1.358-0.695-1.896-1.244s-0.959-1.229-1.268-2.038c-0.308-0.81-0.462-1.747-0.462-2.813
			c0-0.829,0.135-1.609,0.403-2.34s0.653-1.366,1.155-1.907c0.501-0.541,1.113-0.97,1.836-1.285
			C418.917,207.521,419.732,207.364,420.641,207.364z M420.7,209.461c-0.854,0-1.521,0.241-2.003,0.723
			c-0.481,0.481-0.789,1.165-0.924,2.049h5.497c0-0.379-0.052-0.736-0.154-1.071c-0.103-0.336-0.261-0.63-0.474-0.883
			s-0.481-0.452-0.806-0.599C421.513,209.534,421.134,209.461,420.7,209.461z"/>
		<path fill="#FFFFFF" d="M443.552,209.923c-0.079,0.126-0.162,0.215-0.249,0.267s-0.197,0.077-0.331,0.077
			c-0.143,0-0.295-0.04-0.456-0.119c-0.162-0.078-0.35-0.167-0.562-0.267c-0.214-0.099-0.457-0.188-0.729-0.267
			c-0.272-0.078-0.594-0.118-0.965-0.118c-0.577,0-1.031,0.123-1.362,0.367c-0.332,0.245-0.498,0.565-0.498,0.96
			c0,0.261,0.085,0.479,0.255,0.657s0.395,0.334,0.675,0.468c0.28,0.135,0.599,0.255,0.954,0.361c0.355,0.107,0.719,0.224,1.09,0.35
			c0.371,0.127,0.734,0.271,1.09,0.433s0.674,0.367,0.954,0.616s0.505,0.547,0.675,0.895s0.255,0.766,0.255,1.256
			c0,0.584-0.106,1.123-0.32,1.617c-0.213,0.493-0.524,0.92-0.936,1.279s-0.918,0.64-1.522,0.841
			c-0.604,0.201-1.297,0.302-2.079,0.302c-0.419,0-0.827-0.037-1.226-0.112c-0.399-0.075-0.782-0.18-1.149-0.313
			c-0.367-0.135-0.707-0.292-1.019-0.475c-0.312-0.182-0.587-0.379-0.823-0.592l0.675-1.114c0.087-0.134,0.189-0.236,0.308-0.308
			c0.119-0.071,0.269-0.106,0.45-0.106s0.354,0.052,0.516,0.154s0.35,0.213,0.562,0.331c0.214,0.119,0.464,0.229,0.753,0.332
			c0.288,0.103,0.653,0.154,1.096,0.154c0.348,0,0.646-0.042,0.895-0.125c0.248-0.083,0.454-0.191,0.616-0.325
			c0.161-0.135,0.279-0.291,0.354-0.469c0.075-0.177,0.113-0.361,0.113-0.551c0-0.284-0.085-0.517-0.255-0.698
			s-0.396-0.34-0.676-0.475c-0.28-0.134-0.6-0.254-0.959-0.361c-0.359-0.106-0.727-0.223-1.102-0.349
			c-0.376-0.127-0.743-0.274-1.103-0.444s-0.679-0.386-0.959-0.646c-0.28-0.26-0.506-0.58-0.676-0.959s-0.255-0.837-0.255-1.374
			c0-0.498,0.099-0.972,0.297-1.422c0.197-0.45,0.487-0.843,0.87-1.179c0.384-0.336,0.861-0.604,1.434-0.806
			c0.573-0.201,1.234-0.302,1.984-0.302c0.837,0,1.6,0.138,2.287,0.414c0.687,0.276,1.259,0.64,1.718,1.09L443.552,209.923z"/>
		<path fill="#FFFFFF" d="M459.771,207.364c0.766,0,1.471,0.122,2.114,0.367c0.644,0.244,1.199,0.602,1.665,1.071
			c0.466,0.471,0.829,1.047,1.09,1.73c0.261,0.683,0.391,1.463,0.391,2.34c0,0.221-0.01,0.404-0.029,0.551
			c-0.02,0.146-0.056,0.261-0.106,0.343c-0.052,0.083-0.121,0.143-0.208,0.178c-0.087,0.036-0.197,0.054-0.331,0.054h-7.511
			c0.086,1.248,0.422,2.164,1.007,2.748c0.584,0.585,1.358,0.877,2.321,0.877c0.475,0,0.883-0.055,1.227-0.166
			c0.344-0.11,0.644-0.232,0.9-0.367c0.257-0.134,0.481-0.256,0.675-0.367c0.194-0.11,0.382-0.166,0.563-0.166
			c0.118,0,0.221,0.024,0.308,0.071c0.087,0.048,0.162,0.114,0.226,0.201l0.853,1.066c-0.324,0.379-0.688,0.697-1.09,0.954
			c-0.403,0.257-0.823,0.462-1.262,0.616c-0.438,0.153-0.885,0.262-1.339,0.325s-0.895,0.095-1.32,0.095
			c-0.846,0-1.632-0.14-2.358-0.42s-1.358-0.695-1.896-1.244s-0.959-1.229-1.268-2.038c-0.308-0.81-0.462-1.747-0.462-2.813
			c0-0.829,0.135-1.609,0.403-2.34s0.653-1.366,1.155-1.907c0.501-0.541,1.113-0.97,1.836-1.285
			C458.047,207.521,458.862,207.364,459.771,207.364z M459.83,209.461c-0.854,0-1.521,0.241-2.003,0.723
			c-0.481,0.481-0.789,1.165-0.924,2.049h5.497c0-0.379-0.052-0.736-0.154-1.071c-0.103-0.336-0.261-0.63-0.474-0.883
			s-0.481-0.452-0.806-0.599C460.643,209.534,460.264,209.461,459.83,209.461z"/>
		<path fill="#FFFFFF" d="M474.769,218.097c0-0.244,0.045-0.478,0.136-0.698c0.091-0.222,0.217-0.411,0.379-0.569
			c0.162-0.157,0.354-0.284,0.575-0.379c0.221-0.095,0.458-0.142,0.711-0.142c0.244,0,0.478,0.047,0.698,0.142
			c0.222,0.095,0.411,0.222,0.569,0.379c0.157,0.158,0.284,0.348,0.379,0.569c0.095,0.221,0.142,0.454,0.142,0.698
			c0,0.253-0.047,0.488-0.142,0.705c-0.095,0.218-0.222,0.405-0.379,0.562c-0.158,0.158-0.348,0.283-0.569,0.374
			c-0.221,0.09-0.454,0.136-0.698,0.136c-0.253,0-0.49-0.046-0.711-0.136c-0.222-0.091-0.413-0.216-0.575-0.374
			c-0.162-0.157-0.288-0.345-0.379-0.562C474.813,218.585,474.769,218.35,474.769,218.097z"/>
		<path fill="#FFFFFF" d="M497.396,210.124c-0.087,0.11-0.172,0.197-0.255,0.261s-0.203,0.095-0.361,0.095
			c-0.15,0-0.296-0.045-0.438-0.136c-0.142-0.091-0.312-0.194-0.509-0.309c-0.198-0.114-0.433-0.217-0.705-0.308
			s-0.61-0.137-1.013-0.137c-0.514,0-0.964,0.093-1.351,0.278c-0.388,0.186-0.709,0.452-0.966,0.8s-0.448,0.769-0.574,1.262
			c-0.127,0.494-0.19,1.053-0.19,1.677c0,0.647,0.069,1.224,0.208,1.729c0.138,0.506,0.337,0.93,0.598,1.273
			s0.577,0.604,0.948,0.782s0.789,0.267,1.256,0.267c0.466,0,0.843-0.058,1.131-0.172s0.531-0.241,0.729-0.38
			c0.197-0.138,0.369-0.264,0.516-0.379c0.146-0.114,0.31-0.172,0.492-0.172c0.236,0,0.414,0.091,0.532,0.272l0.842,1.066
			c-0.324,0.379-0.676,0.697-1.055,0.954s-0.772,0.462-1.179,0.616c-0.407,0.153-0.827,0.262-1.262,0.325s-0.865,0.095-1.291,0.095
			c-0.751,0-1.457-0.14-2.121-0.42c-0.663-0.28-1.242-0.689-1.735-1.227s-0.885-1.194-1.173-1.973
			c-0.288-0.777-0.433-1.664-0.433-2.659c0-0.893,0.129-1.72,0.386-2.482c0.256-0.762,0.634-1.422,1.131-1.979
			c0.498-0.557,1.113-0.993,1.849-1.309c0.734-0.316,1.579-0.474,2.535-0.474c0.908,0,1.703,0.146,2.387,0.438
			c0.683,0.293,1.297,0.711,1.842,1.256L497.396,210.124z"/>
		<path fill="#FFFFFF" d="M513.4,207.364c0.908,0,1.731,0.146,2.47,0.438c0.738,0.293,1.368,0.707,1.89,1.244
			s0.924,1.192,1.208,1.967c0.285,0.774,0.427,1.639,0.427,2.595c0,0.963-0.142,1.832-0.427,2.606
			c-0.284,0.773-0.687,1.433-1.208,1.978s-1.151,0.964-1.89,1.256s-1.562,0.438-2.47,0.438s-1.734-0.146-2.477-0.438
			s-1.376-0.711-1.901-1.256s-0.932-1.204-1.22-1.978c-0.289-0.774-0.433-1.644-0.433-2.606c0-0.956,0.144-1.82,0.433-2.595
			c0.288-0.774,0.694-1.43,1.22-1.967s1.159-0.951,1.901-1.244C511.666,207.51,512.492,207.364,513.4,207.364z M513.4,217.635
			c1.011,0,1.759-0.339,2.245-1.019c0.485-0.679,0.729-1.674,0.729-2.985c0-1.311-0.243-2.311-0.729-2.997
			c-0.486-0.688-1.234-1.031-2.245-1.031c-1.027,0-1.785,0.346-2.274,1.037c-0.49,0.691-0.735,1.688-0.735,2.991
			s0.245,2.297,0.735,2.979C511.615,217.294,512.373,217.635,513.4,217.635z"/>
	</g>
</g>
</svg>
