<?xml version="1.0" encoding="utf-8"?>
<!-- Generator: Adobe Illustrator 16.0.0, SVG Export Plug-In . SVG Version: 6.00 Build 0)  -->
<!DOCTYPE svg PUBLIC "-//W3C//DTD SVG 1.1//EN" "http://www.w3.org/Graphics/SVG/1.1/DTD/svg11.dtd">
<svg version="1.1" xmlns="http://www.w3.org/2000/svg" xmlns:xlink="http://www.w3.org/1999/xlink" x="0px" y="0px"
	 width="61.123px" height="61.492px" viewBox="0 0 61.123 61.492" enable-background="new 0 0 61.123 61.492" xml:space="preserve">
<g id="Marcos">
</g>
<g id="Imagenes">
</g>
<g id="Marcos_cintillos">
</g>
<g id="Publicidad">
</g>
<g id="Logo">
</g>
<g id="Botones">
	<g>
		<circle fill="#B92025" cx="30.629" cy="30.721" r="28.711"/>
		<g>
			<defs>
				<circle id="SVGID_185_" cx="30.629" cy="30.721" r="28.711"/>
			</defs>
			<clipPath id="SVGID_2_">
				<use xlink:href="#SVGID_185_"  overflow="visible"/>
			</clipPath>
			<polygon clip-path="url(#SVGID_2_)" fill="#A81822" points="8.992,47.097 20.034,59.722 40.492,62.722 65.742,39.889 
				61.533,33.972 53.783,23.389 48.397,25.219 50.7,28.639 51.367,37.556 11.117,39.972 			"/>
		</g>
		<g>
			<path fill="#FFFFFF" d="M8.336,38.17c0,0-0.789,8.77,0.865,8.976c1.658,0.202,3.85,0.202,4.283-0.181
				c0.436-0.382,0.611-0.408,0.816-4.132L8.336,38.17z"/>
			<path fill="#FFFFFF" d="M52.266,38.17c0,0,0.791,8.77-0.865,8.976c-1.658,0.202-3.85,0.202-4.283-0.181
				c-0.436-0.382-0.613-0.408-0.816-4.132L52.266,38.17z"/>
			<path fill="#FFFFFF" d="M12.258,23.806c0,0,3.807-9.189,6.146-9.151c0,0,0.311,0.016,0.484,0.016
				c0.176,0,14.219-1.25,22.996,0.164c0,0,0.498-0.05,0.629-0.08c0.133-0.023,1.963-0.599,6.135,9.41c0,0,0.627,0.236,0.652-0.156
				s0.053-1.338,0.471-1.494s4.428-0.316,4.271,1.31c-0.156,1.624-1.598,1.599-3.83,1.624c0,0-0.572-0.34-1.041-0.13
				c0,0,2.016,1.702,3.17,4.743c0.439,1.168,0.768,9.714-0.605,13.075c0,0-3.797,0.947-3.879,0.947
				c-0.074,0-0.311,0.036-3.617,0.036c-3.301,0-28.537,0-28.537,0s-1.492-0.819-2.645-0.299c0,0-3.852-0.45-4.09-0.667
				c-0.391-0.358-1.174-6.884-0.34-13.137c0.107-0.787,0.682-1.953,3.041-4.907l-0.629-0.064c0,0-3.615,0.686-3.799-1.488
				c0,0-0.238-0.745,0.602-0.983c0.838-0.234,3.75-0.974,3.773,0.154c0.027,1.13-0.08,1.1-0.08,1.1S12.037,23.998,12.258,23.806z"/>
			<path fill="#A81822" d="M18.553,32.54l-1.693-0.347l-0.158-0.475l-0.297-0.19l-0.016-0.524l0.262-0.088l0.068-0.385l1.434,0.263
				l-0.176-0.297c0,0-5.154-1.206-5.746-1.45c-0.598-0.244-1.574-0.507-1.59,0.16c-0.018,0.663-0.084,1.656,0.436,1.814
				c0.525,0.158,2.885,0.855,2.885,0.855l4.646,0.926L18.553,32.54z M15.166,32.033c-0.588,0-1.066-0.477-1.066-1.063
				c0-0.589,0.479-1.067,1.066-1.067s1.064,0.479,1.064,1.067C16.23,31.557,15.754,32.033,15.166,32.033z"/>
			<path fill="#A81822" d="M40.42,21.65c0,0-0.08-2.279-0.867-2.7c-0.787-0.419-2.803-0.579-3.252,0.208
				c-0.443,0.785-0.652,1.783-0.865,2.592c0,0-1.65,0.11-2.33-0.128c-0.678-0.234-2.881-1.102-5.713,0.08c0,0-1.699,0.234-2.227,0
				c0,0-0.156-2.099-0.838-2.647c-0.682-0.551-2.988-0.629-3.59,0.366c-0.6,0.997-0.498,2.229-0.498,2.229s-1.73-0.028-1.756-0.527
				c0,0-0.209-3.431,4.063-3.589c4.27-0.156,5.025-0.21,5.025-0.21s-0.492,1.153,0.658,1.102c1.156-0.055,4.037-0.104,4.826-0.08
				c0.783,0.025,0.336-1.021,0.336-1.021s4.668,0.238,6.16,0.603c1.492,0.366,2.068,1.231,2.096,3.383
				C41.648,21.31,40.863,21.65,40.42,21.65z"/>
			<path fill="#A81822" d="M42.219,32.803l4.646-0.926c0,0,2.355-0.697,2.883-0.855c0.525-0.158,0.453-1.151,0.438-1.814
				c-0.018-0.667-0.998-0.404-1.59-0.16c-0.596,0.244-5.75,1.45-5.75,1.45l-0.174,0.297l1.434-0.263l0.068,0.385l0.262,0.088
				l-0.016,0.524l-0.299,0.19l-0.154,0.475L42.27,32.54L42.219,32.803z M44.594,30.97c0-0.589,0.479-1.067,1.068-1.067
				c0.586,0,1.064,0.479,1.064,1.067c0,0.587-0.479,1.063-1.064,1.063C45.072,32.033,44.594,31.557,44.594,30.97z"/>
			<path fill="#A81822" d="M19.078,30.349c0,0,0.115,2.127,1.061,3.07c0,0,3.846,1.232,7.057,1.406c0,0,0.705,0.015,1.018,0.015
				c0.316,0,4.371,0,4.371,0l1.078,0.046c0,0,6.047-0.615,7.063-1.136c1.01-0.527,1.188-3.017,1.188-3.017s-4.264-0.564-7.758-0.318
				l-1.365,0.398l-4.783-0.08l-1.158-0.423C26.848,30.311,19.234,30.356,19.078,30.349z"/>
		</g>
	</g>
</g>
<g id="TXT">
</g>
<g id="Pico_y_Placa">
</g>
<g id="Guia">
</g>
</svg>
