<?xml version="1.0" encoding="utf-8"?>
<!-- Generator: Adobe Illustrator 16.0.0, SVG Export Plug-In . SVG Version: 6.00 Build 0)  -->
<!DOCTYPE svg PUBLIC "-//W3C//DTD SVG 1.1//EN" "http://www.w3.org/Graphics/SVG/1.1/DTD/svg11.dtd">
<svg version="1.1" xmlns="http://www.w3.org/2000/svg" xmlns:xlink="http://www.w3.org/1999/xlink" x="0px" y="0px" width="157px"
	 height="80px" viewBox="0 0 157 80" enable-background="new 0 0 157 80" xml:space="preserve">
<g id="Marcos">
</g>
<g id="Imagenes">
</g>
<g id="Marcos_cintillos">
</g>
<g id="Publicidad">
</g>
<g id="Logo">
</g>
<g id="Botones">
</g>
<g id="TXT">
</g>
<g id="Pico_y_Placa">
	<g>
		<g>
			<path d="M103.729,56.702c0,0,1.732,19.217-1.898,19.666c-3.629,0.444-8.434,0.444-9.385-0.393
				c-0.957-0.839-1.336-0.895-1.785-9.055L103.729,56.702z"/>
			<path d="M7.457,56.702c0,0-1.732,19.217,1.898,19.666c3.629,0.444,8.434,0.444,9.387-0.393c0.955-0.839,1.342-0.895,1.789-9.055
				L7.457,56.702z"/>
			<path fill="#57AA9A" d="M95.131,25.216c0,0-8.336-20.134-13.467-20.055c0,0-0.678,0.037-1.061,0.037
				c-0.385,0-31.158-2.736-50.398,0.36c0,0-1.09-0.11-1.375-0.175c-0.293-0.051-4.305-1.314-13.443,20.619
				c0,0-1.375,0.521-1.428-0.342c-0.061-0.861-0.121-2.931-1.035-3.272c-0.922-0.345-9.705-0.694-9.363,2.868
				c0.344,3.562,3.506,3.503,8.391,3.562c0,0,1.256-0.746,2.287-0.285c0,0-4.416,3.732-6.943,10.393
				c-0.967,2.562-1.689,21.291,1.32,28.657c0,0,8.324,2.073,8.498,2.073c0.172,0,0.684,0.079,7.93,0.079c7.234,0,62.539,0,62.539,0
				s3.271-1.795,5.797-0.652c0,0,8.439-0.986,8.959-1.46c0.859-0.785,2.574-15.087,0.748-28.792
				c-0.232-1.725-1.492-4.282-6.66-10.755l1.373-0.139c0,0,7.928,1.501,8.326-3.265c0,0,0.523-1.633-1.32-2.152
				c-1.834-0.517-8.215-2.133-8.264,0.338c-0.064,2.474,0.172,2.41,0.172,2.41S95.621,25.642,95.131,25.216z"/>
			<path d="M81.221,44.935l10.184-2.024c0,0,5.172-1.53,6.32-1.875c1.143-0.351,0.992-2.526,0.953-3.979
				c-0.033-1.463-2.178-0.887-3.479-0.351c-1.303,0.535-12.596,3.178-12.596,3.178l-0.389,0.651l3.143-0.576l0.152,0.842
				l0.574,0.194l-0.035,1.148l-0.65,0.42l-0.348,1.037l-3.713,0.762L81.221,44.935z M86.432,40.919c0-1.291,1.043-2.339,2.328-2.339
				c1.293,0,2.342,1.048,2.342,2.339c0,1.287-1.049,2.332-2.342,2.332C87.475,43.251,86.432,42.206,86.432,40.919z"/>
			<path d="M18.061,24.252c0,0,5.025,0.838,8.584,0.895c0,0,2.074-1.323,3.736-1.439c1.666-0.114,12.52-0.342,12.52-0.342
				l0.281-0.289c0,0,11.033-0.521,16.314,0.571c0,0,14.869,1.383,20.098-0.229c5.223-1.604,10.393-0.397,10.393-0.397l-0.225,1.088
				c0,0,1.949,0.172,2.811-0.916c0,0-4.133-11.371-7.459-14.588c0,0,0.229-1.604-29.926-1.838C25.043,6.535,25.27,8.876,24.977,9.12
				C24.453,9.573,18.98,17.017,18.061,24.252z M30.723,19.748c0.061-4.714,1.324-6.608,4.596-7.41s13.494-1.322,13.494-1.322
				s-0.977,2.295,0.744,2.239c1.725-0.056,8.043,0.056,10.574,0.176c2.523,0.115,1.439-2.415,1.439-2.415s1.66,0.12,11.018,0.46
				c9.363,0.346,8.902,7.867,8.902,7.867c-0.055,1.093-3.848,1.152-3.848,1.152s0.225-2.701-1.092-4.886
				c-1.318-2.179-6.375-2.009-7.867-0.802c-1.49,1.203-1.836,5.803-1.836,5.803c-1.156,0.512-4.883,0-4.883,0
				c-6.199-2.59-11.031-0.691-12.518-0.175c-1.492,0.52-5.109,0.282-5.109,0.282c-0.465-1.775-0.922-3.96-1.896-5.684
				c-0.979-1.724-5.398-1.374-7.123-0.457c-1.725,0.922-1.9,5.918-1.9,5.918C32.441,20.495,30.723,19.748,30.723,19.748z"/>
			<g>
				<path fill="#0D332C" d="M79.936,45.665c-0.01-0.02-0.018,0.314-0.002,0.286c1.922-3.213,1.881-6.99,1.881-7.025
					c0-0.034,0.033-0.071,0.064-0.079c6.768-1.172,10.469-2.736,12.764-5.377c0.199-0.231,0.354-0.645,0.516-1.065
					c0.221-0.567,0.447-1.17,0.809-1.501c0.162-0.143,0.502-0.428,1.002-0.428c0.805,0,2.033,0.516,3.367,3.414
					c1.957,4.237,1.369,5.481-0.766,7.253c-2.004,1.66-18.848,4.192-19.559,4.192c-0.008,0-0.008,0-0.016,0
					C79.971,45.335,79.949,45.685,79.936,45.665z M96.072,31.054c-0.35,0.311-0.564,0.875-0.775,1.424
					c-0.168,0.436-0.33,0.853-0.543,1.099c-2.314,2.662-6.021,4.23-12.789,5.409c0,0.506-0.094,3.912-1.826,6.911
					c1.732-0.29,17.463-2.947,19.34-4.501c1.828-1.512,2.799-2.763,0.723-7.264c-1.301-2.822-2.473-3.414-3.232-3.414
					C96.516,30.718,96.207,30.924,96.072,31.054z"/>
			</g>
			<g>
				<path fill="#FFFFFF" d="M92.863,39.232c0-1.351,1.1-2.446,2.445-2.446c1.352,0,2.451,1.096,2.451,2.446
					c0,1.35-1.1,2.45-2.451,2.45C93.963,41.683,92.863,40.582,92.863,39.232z M93.096,39.232c0,1.228,0.992,2.224,2.213,2.224
					c1.225,0,2.225-0.996,2.225-2.224c0-1.224-1-2.221-2.225-2.221C94.088,37.012,93.096,38.009,93.096,39.232z"/>
			</g>
			<path d="M88.145,40.919c0,0.338,0.279,0.612,0.615,0.612c0.344,0,0.621-0.274,0.621-0.612c0-0.342-0.277-0.616-0.621-0.616
				C88.424,40.303,88.145,40.577,88.145,40.919z"/>
			<path fill="#FFFFFF" d="M93.461,39.208c0,1.004,0.818,1.823,1.818,1.823c1.008,0,1.822-0.819,1.822-1.823
				c0-1.009-0.814-1.823-1.822-1.823C94.279,37.385,93.461,38.199,93.461,39.208z"/>
			<path d="M29.363,44.362l-3.719-0.762l-0.342-1.037l-0.65-0.42l-0.035-1.148l0.574-0.194l0.146-0.842l3.143,0.576l-0.377-0.651
				c0,0-11.299-2.643-12.602-3.178c-1.299-0.536-3.447-1.112-3.486,0.351c-0.035,1.452-0.191,3.628,0.961,3.979
				c1.15,0.345,6.313,1.875,6.313,1.875l10.189,2.024L29.363,44.362z M21.932,43.251c-1.285,0-2.336-1.045-2.336-2.332
				c0-1.291,1.051-2.339,2.336-2.339c1.293,0,2.338,1.048,2.338,2.339C24.27,42.206,23.225,43.251,21.932,43.251z"/>
			<g>
				<path fill="#0D332C" d="M30.689,45.335c-0.717,0-17.555-2.557-19.564-4.217c-2.133-1.775-2.717-2.859-0.762-7.093
					c1.334-2.898,2.564-3.563,3.369-3.563c0.5,0,0.84,0.133,0.992,0.274c0.371,0.338,0.596,0.716,0.813,1.271
					c0.164,0.43,0.318,0.417,0.518,0.645c2.299,2.639,5.994,4.551,12.758,4.551c0.041,0,0.064,0,0.064,0s-0.031,4.555,1.881,7.771
					c0.016,0.023,0.016,0.672,0,0.688c-0.014,0.022-0.035-0.327-0.059-0.327C30.697,45.335,30.697,45.335,30.689,45.335z
					 M15.938,33.576c-0.203-0.246-0.365-0.663-0.535-1.099c-0.209-0.549-0.434-1.113-0.773-1.424
					c-0.141-0.13-0.445-0.336-0.896-0.336c-0.764,0-1.932,0.592-3.24,3.414c-2.068,4.501-1.105,5.752,0.73,7.264
					c1.871,1.554,17.607,4.211,19.34,4.501c-1.732-2.999-1.824-6.405-1.826-6.911C21.967,37.807,18.258,36.238,15.938,33.576z"/>
			</g>
			<g>
				<path fill="#FFFFFF" d="M15.387,41.683c-1.35,0-2.451-1.101-2.451-2.45c0-1.351,1.102-2.446,2.451-2.446
					c1.354,0,2.449,1.096,2.449,2.446C17.836,40.582,16.74,41.683,15.387,41.683z M15.387,37.012c-1.225,0-2.219,0.997-2.219,2.221
					c0,1.228,0.994,2.224,2.219,2.224c1.227,0,2.225-0.996,2.225-2.224C17.611,38.009,16.613,37.012,15.387,37.012z"/>
			</g>
			<path d="M22.547,40.919c0,0.338-0.273,0.612-0.615,0.612c-0.338,0-0.615-0.274-0.615-0.612c0-0.342,0.277-0.616,0.615-0.616
				C22.273,40.303,22.547,40.577,22.547,40.919z"/>
			<path fill="#FFFFFF" d="M17.236,39.208c0,1.004-0.814,1.823-1.822,1.823c-1.004,0-1.818-0.819-1.818-1.823
				c0-1.009,0.814-1.823,1.818-1.823C16.422,37.385,17.236,38.199,17.236,39.208z"/>
			<path d="M80.188,39.558c0,0-0.244,4.663-2.32,6.731c0,0-8.426,2.7-15.469,3.081c0,0-1.545,0.031-2.229,0.031
				c-0.697,0-9.576,0-9.576,0l-2.367,0.1c0,0-13.25-1.345-15.475-2.489c-2.213-1.151-2.605-6.609-2.605-6.609
				s9.348-1.238,16.998-0.698l2.996,0.873l10.482-0.175l2.535-0.925C63.158,39.478,79.846,39.577,80.188,39.558z"/>
			<path d="M82.678,57.46c0,0,1.844,4.359,2.99,4.746c1.143,0.386,8.498,0.075,8.498,0.075s-2.299-3.677-3.756-4.134
				C88.957,57.687,85.279,57.381,82.678,57.46z"/>
			<path d="M27.777,58.147c0,0-1.84,4.364-2.984,4.746c-1.15,0.385-8.496,0.075-8.496,0.075s2.291-3.677,3.75-4.135
				C21.498,58.378,25.176,58.072,27.777,58.147z"/>
			<path d="M80.107,57.786c0,0,3.338,7.884,5.02,7.884H26.244c0,0,2.609-1.792,4.137-7.003L80.107,57.786z"/>
			<path d="M101.133,53.017c0,0,0.303,5.897-0.311,9.11c0,0-1.523,0.079-1.604-4.825C99.137,52.404,100.902,53.095,101.133,53.017z"
				/>
			<g>
				<path fill="#0D332C" d="M98.193,64.291c1.135,0,2.725-0.267,3.16-1.685c0.605-1.949,1.281-8.609,0.301-10.416
					c-0.143-0.254-0.309-0.413-0.502-0.47c-1.609-0.46-10.975,2.257-11.377,2.372l0.037,0.144c0.105-0.028,9.73-2.825,11.305-2.376
					c0.152,0.044,0.287,0.179,0.416,0.4c0.957,1.776,0.285,8.369-0.316,10.307c-0.664,2.133-4.168,1.485-4.207,1.478l-0.033,0.147
					C96.994,64.192,97.51,64.291,98.193,64.291z"/>
			</g>
			<path d="M9.664,53.473c0,0-0.309,5.897,0.309,9.119c0,0,1.527,0.07,1.604-4.829C11.658,52.861,9.896,53.553,9.664,53.473z"/>
			<g>
				<path fill="#0D332C" d="M12.602,64.753c0.676,0,1.201-0.1,1.209-0.105l-0.025-0.143c-0.039,0.008-3.543,0.651-4.209-1.477
					c-0.598-1.938-1.271-8.526-0.318-10.31c0.129-0.215,0.264-0.35,0.422-0.398c1.572-0.448,11.199,2.349,11.295,2.372l0.043-0.139
					c-0.402-0.115-9.766-2.833-11.371-2.371c-0.197,0.055-0.373,0.211-0.516,0.469c-0.967,1.807-0.297,8.463,0.311,10.417
					C9.879,64.48,11.467,64.753,12.602,64.753z"/>
			</g>
			<g>
				<path fill="#0D332C" d="M57.174,51.054c1.682,0,2.73-0.106,7.793-0.631c3.146-0.326,7.898-0.818,15.348-1.544
					c15.035-1.471,19.371-4.282,20.355-6.383c0.541-1.155,0.01-1.966-0.016-2.002l-0.119,0.081c0,0.007,0.51,0.785,0,1.865
					c-0.973,2.061-5.277,4.833-20.238,6.292c-7.441,0.726-12.197,1.223-15.346,1.548c-6.375,0.663-6.375,0.663-9.316,0.611
					c-0.357-0.008-0.752-0.012-1.209-0.016c-6.152-0.075-20.291-1.108-24.189-1.684c-0.365-0.057-0.865-0.111-1.498-0.184
					c-5.121-0.588-18.721-2.152-19.266-9.781l-0.15,0.008c0.24,3.328,2.908,5.896,7.926,7.646c4.1,1.426,8.721,1.958,11.48,2.271
					c0.627,0.072,1.119,0.132,1.484,0.184c3.906,0.572,18.057,1.608,24.209,1.684c0.461,0.008,0.855,0.012,1.213,0.02
					C56.252,51.047,56.732,51.054,57.174,51.054z"/>
			</g>
			<g>
				<path fill="#0D332C" d="M88.369,37.425c2.51-3.646,4.26-14.113,4.275-14.221l-0.141-0.024
					c-0.014,0.103-1.766,10.548-4.246,14.166L88.369,37.425z"/>
			</g>
			<g>
				<path fill="#0D332C" d="M22.223,37.425l0.121-0.079c-2.488-3.622-4.197-13.122-4.213-13.222l-0.143,0.028
					C18.004,24.243,19.715,33.779,22.223,37.425z"/>
			</g>
		</g>
		<g>
			<polygon fill="#CAD4D8" points="141.059,52.494 146.045,52.431 146.494,50.886 142.834,50.882 142.703,51.353 141.27,51.353 			
				"/>
			<polygon fill="#CAD4D8" points="128.738,52.494 123.701,52.431 123.246,50.886 126.906,50.882 127.037,51.353 128.473,51.353 			
				"/>
			<path d="M142.086,33.804l0.359-0.264l3.336,2.149c0,0,0.932,0.903-0.531,5.437l-0.715,0.477c0,0-0.398,6.705-1.168,7.185
				l-0.373-0.449l-1.244,0.571l-0.998,5.309h-11.566l-1.645-5.751l-0.662-0.066l-0.158,0.434c0,0-0.982-0.025-1.352-7.207
				l-0.557-0.545c0,0-1.725-4.404-0.475-5.675l2.541-1.806l0.795,0.052L142.086,33.804z"/>
			<path fill="#CAD4D8" d="M138.141,62.651c0,0.086,0.072,0.158,0.16,0.158h1.592c0.088,0,0.158-0.072,0.158-0.158v-1.593
				c0-0.088-0.07-0.159-0.158-0.159h-1.592c-0.088,0-0.16,0.071-0.16,0.159V62.651z"/>
			<path fill="#CAD4D8" d="M129.551,61.059c0-0.088,0.072-0.159,0.158-0.159h1.594c0.088,0,0.158,0.071,0.158,0.159v1.593
				c0,0.084-0.07,0.158-0.158,0.158h-1.594c-0.086,0-0.158-0.074-0.158-0.158V61.059z"/>
			<path fill="#28639E" d="M115.488,18.185c0,0,0.934,3.063,1.51,3.299c0.578,0.241,1.811,0.518,1.811,0.518l2.859-0.715
				l1.475,0.317l0.277-0.12l0.123,0.241l1.287,0.1l2.426,0.952c0,0,0.441,0.379,0.541,1.036c0.1,0.653,0.113,0.772,0.113,0.772
				l-0.254,0.238l0.199,1.272c0,0-0.363-0.535-0.6-0.614c-0.234-0.079-1.869-0.042-1.869-0.042s-0.639,0.299-0.732,0.815l-4.59,0.14
				c0,0-0.521,0.019-0.717,0.121c0,0-0.896-0.079-0.975,0.199c-0.082,0.276-0.121,1.132,0.395,1.132c0.518,0,1.016-0.04,1.016-0.04
				l0.158,0.139l-0.498,0.12l0.121,0.339c0,0,2.902-0.199,3.676-0.399l1.098-0.039l0.531-0.021c0,0,0,0.994,0.441,0.935
				c0.43-0.059,2.281-0.158,2.281-0.158l1.033-0.103l0.818,0.38c0,0-0.221,0.299-0.16,0.637l-0.811,0.199l-0.775,0.318l-0.08,0.557
				l0.02,1.729c0,0,1.236,0.774,2.307,3.737c1.072,2.959,2.869,4.076,2.869,4.076l0.381,0.912l1.828,0.418l1.984-0.576l0.301-0.953
				c0,0,2.186-0.496,3.258-4.136c1.07-3.638,2.352-3.46,2.352-3.46v-2.386l-1.418-0.368l-1.021-0.052l1.898-0.777l0.436,0.155
				l1.824-0.041c0,0,0.1-0.545,0.219-0.545h2.143l4.076,0.148l0.143-0.559l-1.414-0.546h1.49c0,0,0.457-0.636-0.141-1.094
				l-1.17,0.081c0,0-0.125-0.191-0.441-0.11l-4.449-0.064c0,0,0-0.501-0.301-0.601c0,0-0.055-0.318-1.246-0.297l0.039-1.136
				l-0.104-0.278l0.104-1.352c0,0-0.182-0.22,2.582-1.409l1.508-0.221l1.793-0.139l2.639,0.974l2.09-0.419
				c0,0,1.652-2.464,1.633-3.1c-0.021-0.637-3.678-0.955-3.678-0.955l-4.35,1.711l-0.342,0.675l-0.408,0.101l-0.861,0.873
				l-2.279,0.976c0,0-0.93,0.1-0.891,2.186l-0.102,0.317v1.371h-2.865v0.835l-1.299,0.22l-0.742-0.22c0,0-0.465-0.615-0.939-0.693
				c-0.479-0.08-1.199-0.28-1.916-0.28c-0.715,0-1.912,0.26-2.309,0.421c0,0-0.52,0.097-0.771,0.477l-0.721,0.317l-1.313-0.359
				l-1.113-0.078l-0.303-1.593l-0.234-0.197c0,0-0.139-1.592-0.377-1.729c-0.242-0.137-2.984-1.335-2.984-1.335l-0.934-0.893
				l-0.236,0.04l-0.158-0.476c0,0-0.242-0.697-4.178-2.427C119.523,17.608,116.164,17.567,115.488,18.185z M140.602,28.74
				l0.215-0.745l0.436-0.232l0.383,0.044v0.516L140.602,28.74z M139.146,28.205l0.092-0.737l0.5-0.1l0.18,0.299l0.59,0.02v0.479
				l-0.65,0.398L139.146,28.205z M128.928,28.362l0.039-0.874c0,0,1.232-0.179,2.049,0.637l-0.199,0.22l-0.381,0.595L128.928,28.362
				z"/>
			<path fill="#CAD4D8" d="M139.102,32.158c0,0,0.605,1.354,0.58,1.673c-0.018,0.316-0.457,2.725-1.492,4.987l-1.352,0.898
				l-0.199,1.012l-1.668,0.636l-1.707-0.377l-0.168-1.412l-1.443-0.916l-1.553-5.105l0.576-1.571l4.313,2.106L139.102,32.158z"/>
			<g>
				<path fill="#283D21" d="M136.154,33.031l0.334-2.114c0.225-0.188,1.619-1.423,2.074-3.186l-0.182-0.046
					c-0.467,1.813-2.027,3.097-2.039,3.109c-0.014,0.015-0.027,0.036-0.037,0.058l-0.332,2.148L136.154,33.031z"/>
			</g>
			<g>
				<path fill="#283D21" d="M133.764,33.031l0.184-0.03l-0.334-2.148c-0.008-0.021-0.018-0.043-0.035-0.058
					c-0.012-0.013-1.574-1.296-2.037-3.109l-0.18,0.046c0.449,1.763,1.848,2.997,2.068,3.186L133.764,33.031z"/>
			</g>
			<g>
				<path fill="#283D21" d="M138.982,28.247l0.166-0.085c-0.016-0.024-0.301-0.558-1.334-0.794c-0.016-0.043-0.043-0.1-0.102-0.161
					c-0.232-0.242-0.885-0.519-2.725-0.47c-2.721,0.078-3.279,0.653-3.52,0.896l-0.025,0.029l-0.484,0.388l0.113,0.146l0.531-0.434
					c0.207-0.207,0.742-0.764,3.389-0.837c2.557-0.072,2.646,0.514,2.646,0.519c-0.002,0.047,0.025,0.085,0.074,0.095
					C138.705,27.746,138.975,28.243,138.982,28.247z"/>
			</g>
			<g>
				<path fill="#283D21" d="M138.381,39.378c0.102-0.27,2.527-6.994,2.787-8.676l0.117-0.996l-0.191-0.021l-0.111,0.993
					c-0.256,1.66-2.844,8.86-2.875,8.924L138.381,39.378z"/>
			</g>
			<g>
				<path fill="#283D21" d="M131.406,39.012l0.172-0.064c-0.02-0.064-2.385-6.609-2.637-8.273l-0.117-0.922l-0.178,0.04l0.105,0.906
					C129.01,32.384,131.303,38.741,131.406,39.012z"/>
			</g>
			<path fill="#28639E" d="M142.041,32.539c0,0,0.055,1.59-0.107,1.881c-0.156,0.293-0.824,1.035-0.824,1.035
				s-0.395,0.662,0.273,3.073l-1.65,1.327l-0.844,1.084l-0.398-0.052c0,0,1.406-2.226,1.406-2.492c0-0.266-0.271-0.793-0.271-0.793
				S141.033,32.858,142.041,32.539z"/>
			<path fill="#28639E" d="M127.68,32.539c0,0-0.049,1.59,0.111,1.881c0.156,0.293,0.818,1.035,0.818,1.035s0.4,0.662-0.262,3.073
				l1.645,1.327l0.846,1.084l0.396-0.052c0,0-1.4-2.226-1.4-2.492c0-0.266,0.582-1.068,0.582-1.068S128.891,32.83,127.68,32.539z"/>
			<path fill="#CAD4D8" d="M140.811,38.909L140.5,41.71l-1.691,0.026l-0.078-0.849l0.158,0.052c0,0,0.377-0.574,0.863-1.075
				C140.076,39.534,140.492,39.06,140.811,38.909z"/>
			<path fill="#3A3A3A" d="M138.141,60.076c0,0.541,0.408,1.776,0.533,1.776h1.818c0.123,0,0.516-1.235,0.516-1.776V42.532
				c0-0.539-0.393-0.725-0.516-0.725h-1.818c-0.125,0-0.533,0.186-0.533,0.725V60.076z"/>
			<path fill="#CAD4D8" d="M129.105,39.113l0.268,2.597l1.695,0.026l0.08-0.849l-0.164,0.052c0,0-0.373-0.574-0.857-1.075
				C129.801,39.534,129.424,39.26,129.105,39.113z"/>
			<path fill="#3A3A3A" d="M131.461,60.076c0,0.541-0.135,1.776-0.262,1.776h-1.814c-0.125,0,0.166-1.235,0.166-1.776V42.532
				c0-0.539-0.291-0.725-0.166-0.725h1.814c0.127,0,0.262,0.186,0.262,0.725V60.076z"/>
			<path fill="#3A3A3A" d="M137.855,49.437l-0.082,25.287c0,0-0.594,1.948-2.785,1.948c-2.186,0-2.742-2.267-2.742-2.267
				l0.121-24.771c0,0,0.199-1.948,2.701-1.948C137.578,47.687,137.855,49.437,137.855,49.437z"/>
			<g>
				<rect x="135.281" y="48.489" width="0" height="27.684"/>
			</g>
			<g>
				<path d="M135.631,75.479l0.551-1.18l1.348-1.501l-0.143-0.125l-1.355,1.512c-0.002,0.005-0.01,0.014-0.01,0.022l-0.559,1.192
					L135.631,75.479z"/>
			</g>
			<g>
				<path d="M135.631,72.774l0.551-1.181l1.348-1.498l-0.143-0.126l-1.355,1.512c-0.002,0.005-0.01,0.013-0.01,0.021l-0.559,1.193
					L135.631,72.774z"/>
			</g>
			<g>
				<path d="M135.631,69.593l0.551-1.179l1.348-1.5l-0.143-0.125l-1.355,1.512c-0.002,0.006-0.01,0.014-0.01,0.021l-0.559,1.193
					L135.631,69.593z"/>
			</g>
			<g>
				<path d="M135.631,65.776l0.551-1.18l1.348-1.498l-0.143-0.127l-1.355,1.509c-0.002,0.008-0.01,0.017-0.01,0.024l-0.559,1.194
					L135.631,65.776z"/>
			</g>
			<g>
				<path d="M135.631,61.96l0.551-1.18l1.348-1.501l-0.143-0.125l-1.355,1.511c-0.002,0.01-0.01,0.014-0.01,0.023l-0.559,1.193
					L135.631,61.96z"/>
			</g>
			<g>
				<path d="M135.631,57.983l0.551-1.178l1.348-1.502l-0.143-0.126l-1.355,1.512c-0.002,0.006-0.01,0.014-0.01,0.024l-0.559,1.191
					L135.631,57.983z"/>
			</g>
			<g>
				<path d="M135.631,54.169l0.551-1.183l1.348-1.499l-0.143-0.127l-1.355,1.512c-0.002,0.008-0.01,0.015-0.01,0.024l-0.559,1.191
					L135.631,54.169z"/>
			</g>
			<g>
				<path d="M135.631,51.623l0.551-1.181l1.348-1.501l-0.143-0.123l-1.355,1.509c-0.002,0.008-0.01,0.014-0.01,0.024l-0.559,1.191
					L135.631,51.623z"/>
			</g>
			<g>
				<path d="M134.502,75.479l0.176-0.079l-0.557-1.192c-0.002-0.009-0.008-0.018-0.016-0.022l-1.352-1.512l-0.137,0.125l1.336,1.501
					L134.502,75.479z"/>
			</g>
			<g>
				<path d="M134.502,72.774l0.176-0.078l-0.557-1.193c-0.002-0.009-0.008-0.017-0.016-0.021l-1.352-1.512l-0.137,0.126l1.336,1.498
					L134.502,72.774z"/>
			</g>
			<g>
				<path d="M134.502,69.593l0.176-0.077l-0.557-1.193c-0.002-0.008-0.008-0.016-0.016-0.021l-1.352-1.512l-0.137,0.125l1.336,1.5
					L134.502,69.593z"/>
			</g>
			<g>
				<path d="M134.502,65.776l0.176-0.077l-0.557-1.194c-0.002-0.008-0.008-0.017-0.016-0.024l-1.352-1.509l-0.137,0.127l1.336,1.498
					L134.502,65.776z"/>
			</g>
			<g>
				<path d="M134.502,61.96l0.176-0.078l-0.557-1.193c-0.002-0.01-0.008-0.014-0.016-0.023l-1.352-1.511l-0.137,0.125l1.336,1.501
					L134.502,61.96z"/>
			</g>
			<g>
				<path d="M134.502,57.983l0.176-0.078l-0.557-1.191c-0.002-0.011-0.008-0.019-0.016-0.024l-1.352-1.512l-0.137,0.126l1.336,1.502
					L134.502,57.983z"/>
			</g>
			<g>
				<path d="M134.502,54.169l0.176-0.081l-0.557-1.191c-0.002-0.01-0.008-0.017-0.016-0.024l-1.352-1.512l-0.137,0.127l1.336,1.499
					L134.502,54.169z"/>
			</g>
			<g>
				<path d="M134.502,51.623l0.176-0.08l-0.557-1.191c-0.002-0.011-0.008-0.017-0.016-0.024l-1.352-1.509l-0.137,0.123l1.336,1.501
					L134.502,51.623z"/>
			</g>
			<path fill="#28639E" d="M139.365,56.493c0,0,0.275,0.209,0.516-0.248c0.238-0.456,0.834-2.183,0.871-2.38
				c0.041-0.199-0.494-0.972-0.434-1.905c0.064-0.938,0.117-3.419-0.18-3.678c-0.299-0.258-1.791-0.457-2.031-0.596
				c-0.236-0.139-1.447-1.293-2.918-1.293s-3.496,1.332-3.496,1.332s-1.971,0.299-2.053,0.656c-0.076,0.359-0.018,4.157-0.256,4.651
				c-0.238,0.5-0.238,0.637-0.238,0.637l0.895,2.585c0,0,0.236,0.257,0.459,0.257c0,0,0.553-5.027,0.676-6.399
				c0,0,0.117-0.616,0.557-0.795l0.055,0.34c0,0,2.018,0.694,3.15,0.694s3.203-0.737,3.203-0.737v-0.456
				c0,0,0.453,0.159,0.592,1.034C138.873,51.067,139.365,56.493,139.365,56.493z"/>
		</g>
	</g>
</g>
<g id="Guia">
</g>
</svg>
