<?xml version="1.0" encoding="utf-8"?>
<!-- Generator: Adobe Illustrator 16.0.0, SVG Export Plug-In . SVG Version: 6.00 Build 0)  -->
<!DOCTYPE svg PUBLIC "-//W3C//DTD SVG 1.1//EN" "http://www.w3.org/Graphics/SVG/1.1/DTD/svg11.dtd">
<svg version="1.1" xmlns="http://www.w3.org/2000/svg" xmlns:xlink="http://www.w3.org/1999/xlink" x="0px" y="0px" width="157px"
	 height="80px" viewBox="0 0 157 80" enable-background="new 0 0 157 80" xml:space="preserve">
<g id="Marcos">
</g>
<g id="Imagenes">
</g>
<g id="Marcos_cintillos">
</g>
<g id="Publicidad">
</g>
<g id="Logo">
</g>
<g id="Botones">
</g>
<g id="TXT">
</g>
<g id="Pico_y_Placa">
	<g>
		<g>
			<path d="M55.149,57.536c0,0-1.732,19.217,1.898,19.666c3.629,0.444,8.434,0.444,9.385-0.393c0.957-0.839,1.336-0.895,1.785-9.055
				L55.149,57.536z"/>
			<path d="M151.421,57.536c0,0,1.732,19.217-1.898,19.666c-3.629,0.444-8.434,0.444-9.387-0.393
				c-0.955-0.839-1.342-0.895-1.789-9.055L151.421,57.536z"/>
			<path fill="#49C5E2" d="M63.747,26.05c0,0,8.336-20.134,13.467-20.055c0,0,0.678,0.037,1.061,0.037
				c0.385,0,31.158-2.736,50.398,0.36c0,0,1.09-0.11,1.375-0.175c0.293-0.051,4.305-1.314,13.443,20.619
				c0,0,1.375,0.521,1.428-0.342c0.061-0.861,0.121-2.931,1.035-3.272c0.922-0.345,9.705-0.694,9.363,2.868
				c-0.344,3.562-3.506,3.503-8.391,3.562c0,0-1.256-0.746-2.287-0.285c0,0,4.416,3.732,6.943,10.393
				c0.967,2.562,1.689,21.291-1.32,28.657c0,0-8.324,2.073-8.498,2.073c-0.172,0-0.684,0.079-7.93,0.079c-7.234,0-62.539,0-62.539,0
				s-3.271-1.795-5.797-0.652c0,0-8.439-0.986-8.959-1.46c-0.859-0.785-2.574-15.087-0.748-28.792
				c0.232-1.725,1.492-4.282,6.66-10.755l-1.373-0.139c0,0-7.928,1.501-8.326-3.265c0,0-0.523-1.633,1.32-2.152
				c1.834-0.517,8.215-2.133,8.264,0.338c0.064,2.474-0.172,2.41-0.172,2.41S63.257,26.476,63.747,26.05z"/>
			<path d="M77.54,45.196l-3.713-0.762l-0.348-1.037l-0.65-0.42l-0.035-1.148l0.574-0.194l0.152-0.842l3.143,0.576l-0.389-0.651
				c0,0-11.293-2.643-12.596-3.178c-1.301-0.536-3.445-1.112-3.479,0.351c-0.039,1.452-0.189,3.628,0.953,3.979
				c1.148,0.345,6.32,1.875,6.32,1.875l10.184,2.024L77.54,45.196z M70.118,44.085c-1.293,0-2.342-1.045-2.342-2.332
				c0-1.291,1.049-2.339,2.342-2.339c1.285,0,2.328,1.048,2.328,2.339C72.446,43.04,71.403,44.085,70.118,44.085z"/>
			<path d="M133.901,9.954c-0.293-0.244-0.066-2.585-30.211-2.354C73.536,7.835,73.765,9.438,73.765,9.438
				c-3.326,3.217-7.459,14.588-7.459,14.588c0.861,1.088,2.811,0.916,2.811,0.916l-0.225-1.088c0,0,5.17-1.207,10.393,0.397
				c5.229,1.612,20.098,0.229,20.098,0.229c5.281-1.092,16.314-0.571,16.314-0.571l0.281,0.289c0,0,10.854,0.228,12.52,0.342
				c1.662,0.116,3.736,1.439,3.736,1.439c3.559-0.057,8.584-0.895,8.584-0.895C139.897,17.851,134.425,10.407,133.901,9.954z
				 M125.46,21.329c0,0-0.176-4.996-1.9-5.918c-1.725-0.917-6.145-1.267-7.123,0.457c-0.975,1.724-1.432,3.908-1.896,5.684
				c0,0-3.617,0.237-5.109-0.282c-1.486-0.517-6.318-2.415-12.518,0.175c0,0-3.727,0.512-4.883,0c0,0-0.346-4.6-1.836-5.803
				c-1.492-1.207-6.549-1.377-7.867,0.802c-1.316,2.185-1.092,4.886-1.092,4.886s-3.793-0.06-3.848-1.152
				c0,0-0.461-7.521,8.902-7.867c9.357-0.34,11.018-0.46,11.018-0.46s-1.084,2.53,1.439,2.415c2.531-0.12,8.85-0.231,10.574-0.176
				c1.721,0.056,0.744-2.239,0.744-2.239s10.223,0.521,13.494,1.322s4.535,2.696,4.596,7.41
				C128.155,20.582,126.437,21.329,125.46,21.329z"/>
			<g>
				<path fill="#585E60" d="M78.882,46.169c-0.008,0-0.008,0-0.016,0c-0.711,0-17.555-2.532-19.559-4.192
					c-2.135-1.771-2.723-3.016-0.766-7.253c1.334-2.898,2.563-3.414,3.367-3.414c0.5,0,0.84,0.285,1.002,0.428
					c0.361,0.331,0.588,0.934,0.809,1.501c0.162,0.421,0.316,0.834,0.516,1.065c2.295,2.641,5.996,4.205,12.764,5.377
					c0.031,0.008,0.064,0.045,0.064,0.079c0,0.035-0.041,3.813,1.881,7.025c0.016,0.028,0.008-0.306-0.002-0.286
					C78.929,46.519,78.907,46.169,78.882,46.169z M61.909,31.552c-0.76,0-1.932,0.592-3.232,3.414
					c-2.076,4.501-1.105,5.752,0.723,7.264c1.877,1.554,17.607,4.211,19.34,4.501c-1.732-2.999-1.826-6.405-1.826-6.911
					c-6.768-1.179-10.475-2.747-12.789-5.409c-0.213-0.246-0.375-0.663-0.543-1.099c-0.211-0.549-0.426-1.113-0.775-1.424
					C62.671,31.758,62.362,31.552,61.909,31.552z"/>
			</g>
			<g>
				<path fill="#CAD4D8" d="M63.569,42.517c-1.352,0-2.451-1.101-2.451-2.45c0-1.351,1.1-2.446,2.451-2.446
					c1.346,0,2.445,1.096,2.445,2.446C66.015,41.416,64.915,42.517,63.569,42.517z M63.569,37.846c-1.225,0-2.225,0.997-2.225,2.221
					c0,1.228,1,2.224,2.225,2.224c1.221,0,2.213-0.996,2.213-2.224C65.782,38.843,64.79,37.846,63.569,37.846z"/>
			</g>
			<path d="M70.733,41.753c0,0.338-0.279,0.612-0.615,0.612c-0.344,0-0.621-0.274-0.621-0.612c0-0.342,0.277-0.616,0.621-0.616
				C70.454,41.137,70.733,41.411,70.733,41.753z"/>
			<path fill="#CAD4D8" d="M65.417,40.042c0,1.004-0.818,1.823-1.818,1.823c-1.008,0-1.822-0.819-1.822-1.823
				c0-1.009,0.814-1.823,1.822-1.823C64.599,38.219,65.417,39.033,65.417,40.042z"/>
			<path d="M129.399,45.769l10.189-2.024c0,0,5.162-1.53,6.313-1.875c1.152-0.351,0.996-2.526,0.961-3.979
				c-0.039-1.463-2.188-0.887-3.486-0.351c-1.303,0.535-12.602,3.178-12.602,3.178l-0.377,0.651l3.143-0.576l0.146,0.842
				l0.574,0.194l-0.035,1.148l-0.65,0.42l-0.342,1.037l-3.719,0.762L129.399,45.769z M134.608,41.753
				c0-1.291,1.045-2.339,2.338-2.339c1.285,0,2.336,1.048,2.336,2.339c0,1.287-1.051,2.332-2.336,2.332
				C135.653,44.085,134.608,43.04,134.608,41.753z"/>
			<g>
				<path fill="#585E60" d="M128.179,46.169c-0.023,0-0.045,0.35-0.059,0.327c-0.016-0.017-0.016-0.665,0-0.688
					c1.912-3.216,1.881-7.771,1.881-7.771s0.023,0,0.064,0c6.764,0,10.459-1.912,12.758-4.551c0.199-0.228,0.354-0.215,0.518-0.645
					c0.217-0.556,0.441-0.934,0.813-1.271c0.152-0.142,0.492-0.274,0.992-0.274c0.805,0,2.035,0.665,3.369,3.563
					c1.955,4.233,1.371,5.317-0.762,7.093c-2.01,1.66-18.848,4.217-19.564,4.217C128.181,46.169,128.181,46.169,128.179,46.169z
					 M130.142,39.819c-0.002,0.506-0.094,3.912-1.826,6.911c1.732-0.29,17.469-2.947,19.34-4.501
					c1.836-1.512,2.799-2.763,0.73-7.264c-1.309-2.822-2.477-3.414-3.24-3.414c-0.451,0-0.756,0.206-0.896,0.336
					c-0.34,0.311-0.564,0.875-0.773,1.424c-0.17,0.436-0.332,0.853-0.535,1.099C140.62,37.072,136.911,38.641,130.142,39.819z"/>
			</g>
			<g>
				<path fill="#CAD4D8" d="M141.042,40.066c0-1.351,1.096-2.446,2.449-2.446c1.35,0,2.451,1.096,2.451,2.446
					c0,1.35-1.102,2.45-2.451,2.45C142.138,42.517,141.042,41.416,141.042,40.066z M141.267,40.066c0,1.228,0.998,2.224,2.225,2.224
					c1.225,0,2.219-0.996,2.219-2.224c0-1.224-0.994-2.221-2.219-2.221C142.265,37.846,141.267,38.843,141.267,40.066z"/>
			</g>
			<path d="M136.331,41.753c0,0.338,0.273,0.612,0.615,0.612c0.338,0,0.615-0.274,0.615-0.612c0-0.342-0.277-0.616-0.615-0.616
				C136.604,41.137,136.331,41.411,136.331,41.753z"/>
			<path fill="#CAD4D8" d="M141.642,40.042c0,1.004,0.814,1.823,1.822,1.823c1.004,0,1.818-0.819,1.818-1.823
				c0-1.009-0.814-1.823-1.818-1.823C142.456,38.219,141.642,39.033,141.642,40.042z"/>
			<path d="M78.69,40.392c0,0,0.244,4.663,2.32,6.731c0,0,8.426,2.7,15.469,3.081c0,0,1.545,0.031,2.229,0.031
				c0.697,0,9.576,0,9.576,0l2.367,0.1c0,0,13.25-1.345,15.475-2.489c2.213-1.151,2.605-6.609,2.605-6.609
				s-9.348-1.238-16.998-0.698l-2.996,0.873l-10.482-0.175l-2.535-0.925C95.72,40.312,79.032,40.411,78.69,40.392z"/>
			<path d="M76.2,58.294c0,0-1.844,4.359-2.99,4.746c-1.143,0.386-8.498,0.075-8.498,0.075s2.299-3.677,3.756-4.134
				C69.921,58.521,73.599,58.215,76.2,58.294z"/>
			<path d="M131.101,58.981c0,0,1.84,4.364,2.984,4.746c1.15,0.385,8.496,0.075,8.496,0.075s-2.291-3.677-3.75-4.135
				C137.38,59.212,133.702,58.906,131.101,58.981z"/>
			<path d="M78.771,58.62c0,0-3.338,7.884-5.02,7.884h58.883c0,0-2.609-1.792-4.137-7.003L78.771,58.62z"/>
			<path d="M57.745,53.851c0,0-0.303,5.897,0.311,9.11c0,0,1.523,0.079,1.604-4.825C59.741,53.238,57.976,53.929,57.745,53.851z"/>
			<g>
				<path fill="#585E60" d="M60.685,65.125c-1.135,0-2.725-0.267-3.16-1.685c-0.605-1.949-1.281-8.609-0.301-10.416
					c0.143-0.254,0.309-0.413,0.502-0.47c1.609-0.46,10.975,2.257,11.377,2.372l-0.037,0.144c-0.105-0.028-9.73-2.825-11.305-2.376
					c-0.152,0.044-0.287,0.179-0.416,0.4c-0.957,1.776-0.285,8.369,0.316,10.307c0.664,2.133,4.168,1.485,4.207,1.478l0.033,0.147
					C61.884,65.026,61.368,65.125,60.685,65.125z"/>
			</g>
			<path d="M149.214,54.307c0,0,0.309,5.897-0.309,9.119c0,0-1.527,0.07-1.604-4.829C147.22,53.695,148.981,54.387,149.214,54.307z"
				/>
			<g>
				<path fill="#585E60" d="M146.276,65.587c-0.676,0-1.201-0.1-1.209-0.105l0.025-0.143c0.039,0.008,3.543,0.651,4.209-1.477
					c0.598-1.938,1.271-8.526,0.318-10.31c-0.129-0.215-0.264-0.35-0.422-0.398c-1.572-0.448-11.199,2.349-11.295,2.372
					l-0.043-0.139c0.402-0.115,9.766-2.833,11.371-2.371c0.197,0.055,0.373,0.211,0.516,0.469c0.967,1.807,0.297,8.463-0.311,10.417
					C148.999,65.314,147.411,65.587,146.276,65.587z"/>
			</g>
			<g>
				<path fill="#585E60" d="M101.704,51.888c-1.682,0-2.73-0.106-7.793-0.631c-3.146-0.326-7.898-0.818-15.348-1.544
					c-15.035-1.471-19.371-4.282-20.355-6.383c-0.541-1.155-0.01-1.966,0.016-2.002l0.119,0.081c0,0.007-0.51,0.785,0,1.865
					c0.973,2.061,5.277,4.833,20.238,6.292c7.441,0.726,12.197,1.223,15.346,1.548c6.375,0.663,6.375,0.663,9.316,0.611
					c0.357-0.008,0.752-0.012,1.209-0.016c6.152-0.075,20.291-1.108,24.189-1.684c0.365-0.057,0.865-0.111,1.498-0.184
					c5.121-0.588,18.721-2.152,19.266-9.781l0.15,0.008c-0.24,3.328-2.908,5.896-7.926,7.646c-4.1,1.426-8.721,1.958-11.48,2.271
					c-0.627,0.072-1.119,0.132-1.484,0.184c-3.906,0.572-18.057,1.608-24.209,1.684c-0.461,0.008-0.855,0.012-1.213,0.02
					C102.626,51.881,102.146,51.888,101.704,51.888z"/>
			</g>
			<g>
				<path fill="#585E60" d="M70.509,38.259c-2.51-3.646-4.26-14.113-4.275-14.221l0.141-0.024
					c0.014,0.103,1.766,10.548,4.246,14.166L70.509,38.259z"/>
			</g>
			<g>
				<path fill="#585E60" d="M136.655,38.259l-0.121-0.079c2.488-3.622,4.197-13.122,4.213-13.222l0.143,0.028
					C140.874,25.077,139.163,34.613,136.655,38.259z"/>
			</g>
		</g>
		<g>
			<polygon fill="#CAD4D8" points="17.819,53.328 12.833,53.265 12.384,51.72 16.044,51.716 16.175,52.187 17.608,52.187 			"/>
			<polygon fill="#CAD4D8" points="30.14,53.328 35.177,53.265 35.632,51.72 31.972,51.716 31.841,52.187 30.405,52.187 			"/>
			<path d="M16.792,34.638l-0.359-0.264l-3.336,2.149c0,0-0.932,0.903,0.531,5.437l0.715,0.477c0,0,0.398,6.705,1.168,7.185
				l0.373-0.449l1.244,0.571l0.998,5.309h11.566l1.645-5.751l0.662-0.066l0.158,0.434c0,0,0.982-0.025,1.352-7.207l0.557-0.545
				c0,0,1.725-4.404,0.475-5.675l-2.541-1.806l-0.795,0.052L16.792,34.638z"/>
			<path fill="#CAD4D8" d="M20.737,63.485c0,0.086-0.072,0.158-0.16,0.158h-1.592c-0.088,0-0.158-0.072-0.158-0.158v-1.593
				c0-0.088,0.07-0.159,0.158-0.159h1.592c0.088,0,0.16,0.071,0.16,0.159V63.485z"/>
			<path fill="#CAD4D8" d="M29.327,61.893c0-0.088-0.072-0.159-0.158-0.159h-1.594c-0.088,0-0.158,0.071-0.158,0.159v1.593
				c0,0.084,0.07,0.158,0.158,0.158h1.594c0.086,0,0.158-0.074,0.158-0.158V61.893z"/>
			<path fill="#83A579" d="M39.354,18.442c-3.936,1.729-4.178,2.427-4.178,2.427l-0.158,0.476l-0.236-0.04l-0.934,0.893
				c0,0-2.742,1.198-2.984,1.335c-0.238,0.137-0.377,1.729-0.377,1.729l-0.234,0.197l-0.303,1.593l-1.113,0.078l-1.313,0.359
				l-0.721-0.317c-0.252-0.38-0.771-0.477-0.771-0.477c-0.396-0.161-1.594-0.421-2.309-0.421c-0.717,0-1.438,0.2-1.916,0.28
				c-0.475,0.078-0.939,0.693-0.939,0.693l-0.742,0.22l-1.299-0.22v-0.835h-2.865v-1.371l-0.102-0.317
				c0.039-2.086-0.891-2.186-0.891-2.186l-2.279-0.976l-0.861-0.873l-0.408-0.101l-0.342-0.675l-4.35-1.711
				c0,0-3.656,0.318-3.678,0.955c-0.02,0.636,1.633,3.1,1.633,3.1l2.09,0.419l2.639-0.974l1.793,0.139l1.508,0.221
				c2.764,1.189,2.582,1.409,2.582,1.409l0.104,1.352l-0.104,0.278l0.039,1.136c-1.191-0.021-1.246,0.297-1.246,0.297
				c-0.301,0.1-0.301,0.601-0.301,0.601l-4.449,0.064c-0.316-0.081-0.441,0.11-0.441,0.11l-1.17-0.081
				c-0.598,0.458-0.141,1.094-0.141,1.094h1.49l-1.414,0.546l0.143,0.559l4.076-0.148h2.143c0.119,0,0.219,0.545,0.219,0.545
				l1.824,0.041l0.436-0.155l1.898,0.777l-1.021,0.052l-1.418,0.368v2.386c0,0,1.281-0.178,2.352,3.46
				c1.072,3.64,3.258,4.136,3.258,4.136l0.301,0.953l1.984,0.576l1.828-0.418l0.381-0.912c0,0,1.797-1.117,2.869-4.076
				c1.07-2.963,2.307-3.737,2.307-3.737l0.02-1.729l-0.08-0.557l-0.775-0.318l-0.811-0.199c0.061-0.338-0.16-0.637-0.16-0.637
				l0.818-0.38l1.033,0.103c0,0,1.852,0.1,2.281,0.158c0.441,0.06,0.441-0.935,0.441-0.935L34.54,28.8l1.098,0.039
				c0.773,0.2,3.676,0.399,3.676,0.399l0.121-0.339l-0.498-0.12l0.158-0.139c0,0,0.498,0.04,1.016,0.04
				c0.516,0,0.477-0.855,0.395-1.132c-0.078-0.278-0.975-0.199-0.975-0.199c-0.195-0.103-0.717-0.121-0.717-0.121l-4.59-0.14
				c-0.094-0.517-0.732-0.815-0.732-0.815s-1.635-0.037-1.869,0.042c-0.236,0.079-0.6,0.614-0.6,0.614l0.199-1.272l-0.254-0.238
				c0,0,0.014-0.119,0.113-0.772c0.1-0.657,0.541-1.036,0.541-1.036l2.426-0.952l1.287-0.1l0.123-0.241l0.277,0.12l1.475-0.317
				l2.859,0.715c0,0,1.232-0.276,1.811-0.518c0.576-0.235,1.51-3.299,1.51-3.299C42.714,18.401,39.354,18.442,39.354,18.442z
				 M17.243,29.156v-0.516l0.383-0.044l0.436,0.232l0.215,0.745L17.243,29.156z M19.021,29.397l-0.65-0.398v-0.479l0.59-0.02
				l0.18-0.299l0.5,0.1l0.092,0.737L19.021,29.397z M28.442,29.773l-0.381-0.595l-0.199-0.22c0.816-0.815,2.049-0.637,2.049-0.637
				l0.039,0.874L28.442,29.773z"/>
			<path fill="#CAD4D8" d="M19.776,32.992c0,0-0.605,1.354-0.58,1.673c0.018,0.316,0.457,2.725,1.492,4.987l1.352,0.898l0.199,1.012
				l1.668,0.636l1.707-0.377l0.168-1.412l1.443-0.916l1.553-5.105l-0.576-1.571l-4.313,2.106L19.776,32.992z"/>
			<g>
				<path fill="#283D21" d="M22.724,33.865l-0.334-2.114c-0.225-0.188-1.619-1.423-2.074-3.186l0.182-0.046
					c0.467,1.813,2.027,3.097,2.039,3.109c0.014,0.015,0.027,0.036,0.037,0.058l0.332,2.148L22.724,33.865z"/>
			</g>
			<g>
				<path fill="#283D21" d="M25.114,33.865l-0.184-0.03l0.334-2.148c0.008-0.021,0.018-0.043,0.035-0.058
					c0.012-0.013,1.574-1.296,2.037-3.109l0.18,0.046c-0.449,1.763-1.848,2.997-2.068,3.186L25.114,33.865z"/>
			</g>
			<g>
				<path fill="#283D21" d="M19.896,29.081l-0.166-0.085c0.016-0.024,0.301-0.558,1.334-0.794c0.016-0.043,0.043-0.1,0.102-0.161
					c0.232-0.242,0.885-0.519,2.725-0.47c2.721,0.078,3.279,0.653,3.52,0.896l0.025,0.029l0.484,0.388l-0.113,0.146l-0.531-0.434
					c-0.207-0.207-0.742-0.764-3.389-0.837c-2.557-0.072-2.646,0.514-2.646,0.519c0.002,0.047-0.025,0.085-0.074,0.095
					C20.173,28.58,19.903,29.077,19.896,29.081z"/>
			</g>
			<g>
				<path fill="#283D21" d="M20.497,40.212c-0.102-0.27-2.527-6.994-2.787-8.676l-0.117-0.996l0.191-0.021l0.111,0.993
					c0.256,1.66,2.844,8.86,2.875,8.924L20.497,40.212z"/>
			</g>
			<g>
				<path fill="#283D21" d="M27.472,39.846L27.3,39.781c0.02-0.064,2.385-6.609,2.637-8.273l0.117-0.922l0.178,0.04l-0.105,0.906
					C29.868,33.218,27.575,39.575,27.472,39.846z"/>
			</g>
			<path fill="#83A579" d="M16.837,33.373c0,0-0.055,1.59,0.107,1.881c0.156,0.293,0.824,1.035,0.824,1.035s0.395,0.662-0.273,3.073
				l1.65,1.327l0.844,1.084l0.398-0.052c0,0-1.406-2.226-1.406-2.492c0-0.266,0.271-0.793,0.271-0.793S17.845,33.692,16.837,33.373z
				"/>
			<path fill="#83A579" d="M31.198,33.373c0,0,0.049,1.59-0.111,1.881c-0.156,0.293-0.818,1.035-0.818,1.035s-0.4,0.662,0.262,3.073
				l-1.645,1.327l-0.846,1.084l-0.396-0.052c0,0,1.4-2.226,1.4-2.492c0-0.266-0.582-1.068-0.582-1.068S29.987,33.664,31.198,33.373z
				"/>
			<path fill="#CAD4D8" d="M18.067,39.743l0.311,2.801l1.691,0.026l0.078-0.849l-0.158,0.052c0,0-0.377-0.574-0.863-1.075
				C18.802,40.368,18.386,39.894,18.067,39.743z"/>
			<path fill="#3A3A3A" d="M20.737,60.91c0,0.541-0.408,1.776-0.533,1.776h-1.818c-0.123,0-0.516-1.235-0.516-1.776V43.366
				c0-0.539,0.393-0.725,0.516-0.725h1.818c0.125,0,0.533,0.186,0.533,0.725V60.91z"/>
			<path fill="#CAD4D8" d="M29.772,39.947l-0.268,2.597L27.81,42.57l-0.08-0.849l0.164,0.052c0,0,0.373-0.574,0.857-1.075
				C29.077,40.368,29.454,40.094,29.772,39.947z"/>
			<path fill="#3A3A3A" d="M27.417,60.91c0,0.541,0.135,1.776,0.262,1.776h1.814c0.125,0-0.166-1.235-0.166-1.776V43.366
				c0-0.539,0.291-0.725,0.166-0.725h-1.814c-0.127,0-0.262,0.186-0.262,0.725V60.91z"/>
			<path fill="#3A3A3A" d="M21.022,50.271l0.082,25.287c0,0,0.594,1.948,2.785,1.948c2.186,0,2.742-2.267,2.742-2.267l-0.121-24.771
				c0,0-0.199-1.948-2.701-1.948C21.3,48.521,21.022,50.271,21.022,50.271z"/>
			<g>
				<rect x="23.597" y="49.323" width="0" height="27.684"/>
			</g>
			<g>
				<path d="M23.247,76.313l-0.551-1.18l-1.348-1.501l0.143-0.125l1.355,1.512c0.002,0.005,0.01,0.014,0.01,0.022l0.559,1.192
					L23.247,76.313z"/>
			</g>
			<g>
				<path d="M23.247,73.608l-0.551-1.181l-1.348-1.498l0.143-0.126l1.355,1.512c0.002,0.005,0.01,0.013,0.01,0.021l0.559,1.193
					L23.247,73.608z"/>
			</g>
			<g>
				<path d="M23.247,70.427l-0.551-1.179l-1.348-1.5l0.143-0.125l1.355,1.512c0.002,0.006,0.01,0.014,0.01,0.021l0.559,1.193
					L23.247,70.427z"/>
			</g>
			<g>
				<path d="M23.247,66.61l-0.551-1.18l-1.348-1.498l0.143-0.127l1.355,1.509c0.002,0.008,0.01,0.017,0.01,0.024l0.559,1.194
					L23.247,66.61z"/>
			</g>
			<g>
				<path d="M23.247,62.794l-0.551-1.18l-1.348-1.501l0.143-0.125l1.355,1.511c0.002,0.01,0.01,0.014,0.01,0.023l0.559,1.193
					L23.247,62.794z"/>
			</g>
			<g>
				<path d="M23.247,58.817l-0.551-1.178l-1.348-1.502l0.143-0.126l1.355,1.512c0.002,0.006,0.01,0.014,0.01,0.024l0.559,1.191
					L23.247,58.817z"/>
			</g>
			<g>
				<path d="M23.247,55.003l-0.551-1.183l-1.348-1.499l0.143-0.127l1.355,1.512c0.002,0.008,0.01,0.015,0.01,0.024l0.559,1.191
					L23.247,55.003z"/>
			</g>
			<g>
				<path d="M23.247,52.457l-0.551-1.181l-1.348-1.501l0.143-0.123l1.355,1.509c0.002,0.008,0.01,0.014,0.01,0.024l0.559,1.191
					L23.247,52.457z"/>
			</g>
			<g>
				<path d="M24.376,76.313L24.2,76.233l0.557-1.192c0.002-0.009,0.008-0.018,0.016-0.022l1.352-1.512l0.137,0.125l-1.336,1.501
					L24.376,76.313z"/>
			</g>
			<g>
				<path d="M24.376,73.608L24.2,73.53l0.557-1.193c0.002-0.009,0.008-0.017,0.016-0.021l1.352-1.512l0.137,0.126l-1.336,1.498
					L24.376,73.608z"/>
			</g>
			<g>
				<path d="M24.376,70.427L24.2,70.35l0.557-1.193c0.002-0.008,0.008-0.016,0.016-0.021l1.352-1.512l0.137,0.125l-1.336,1.5
					L24.376,70.427z"/>
			</g>
			<g>
				<path d="M24.376,66.61L24.2,66.533l0.557-1.194c0.002-0.008,0.008-0.017,0.016-0.024l1.352-1.509l0.137,0.127l-1.336,1.498
					L24.376,66.61z"/>
			</g>
			<g>
				<path d="M24.376,62.794L24.2,62.716l0.557-1.193c0.002-0.01,0.008-0.014,0.016-0.023l1.352-1.511l0.137,0.125l-1.336,1.501
					L24.376,62.794z"/>
			</g>
			<g>
				<path d="M24.376,58.817L24.2,58.739l0.557-1.191c0.002-0.011,0.008-0.019,0.016-0.024l1.352-1.512l0.137,0.126l-1.336,1.502
					L24.376,58.817z"/>
			</g>
			<g>
				<path d="M24.376,55.003L24.2,54.922l0.557-1.191c0.002-0.01,0.008-0.017,0.016-0.024l1.352-1.512l0.137,0.127l-1.336,1.499
					L24.376,55.003z"/>
			</g>
			<g>
				<path d="M24.376,52.457l-0.176-0.08l0.557-1.191c0.002-0.011,0.008-0.017,0.016-0.024l1.352-1.509l0.137,0.123l-1.336,1.501
					L24.376,52.457z"/>
			</g>
			<path fill="#83A579" d="M19.513,57.327c0,0-0.275,0.209-0.516-0.248c-0.238-0.456-0.834-2.183-0.871-2.38
				c-0.041-0.199,0.494-0.972,0.434-1.905c-0.064-0.938-0.117-3.419,0.18-3.678c0.299-0.258,1.791-0.457,2.031-0.596
				c0.236-0.139,1.447-1.293,2.918-1.293s3.496,1.332,3.496,1.332s1.971,0.299,2.053,0.656c0.076,0.359,0.018,4.157,0.256,4.651
				c0.238,0.5,0.238,0.637,0.238,0.637l-0.895,2.585c0,0-0.236,0.257-0.459,0.257c0,0-0.553-5.027-0.676-6.399
				c0,0-0.117-0.616-0.557-0.795l-0.055,0.34c0,0-2.018,0.694-3.15,0.694s-3.203-0.737-3.203-0.737v-0.456
				c0,0-0.453,0.159-0.592,1.034C20.005,51.901,19.513,57.327,19.513,57.327z"/>
		</g>
	</g>
</g>
<g id="Guia">
</g>
</svg>
