<?xml version="1.0" encoding="utf-8"?>
<!-- Generator: Adobe Illustrator 15.0.0, SVG Export Plug-In . SVG Version: 6.00 Build 0)  -->
<!DOCTYPE svg PUBLIC "-//W3C//DTD SVG 1.1//EN" "http://www.w3.org/Graphics/SVG/1.1/DTD/svg11.dtd">
<svg version="1.1" id="Capa_1" xmlns="http://www.w3.org/2000/svg" xmlns:xlink="http://www.w3.org/1999/xlink" x="0px" y="0px"
	 width="44.585px" height="38px" viewBox="0 0 44.585 38" enable-background="new 0 0 44.585 38" xml:space="preserve">
<g>
	<g>
		<g>
			<path fill="#FFFFFF" d="M29.823,20.178h-3.936c-0.498,0-0.904,0.384-0.904,0.818s-0.404,0.805-0.904,0.81l-3.561,0.038
				c-0.5,0.004-0.906-0.382-0.906-0.828c0-0.448-0.404-0.838-0.904-0.838h-3.975c-0.5,0-1.041,0.465-1.041,0.966v4.081
				c0,0.47,0.521,0.838,0.992,0.838h15.187c0.471,0,1.022-0.368,1.022-0.838v-4.083C30.893,20.643,30.323,20.178,29.823,20.178z"/>
			<path fill="#FFFFFF" d="M29.871,14.748H25.69v-1.026c0-0.983-0.801-1.784-1.785-1.784h-3.248c-0.983,0-1.783,0.801-1.783,1.784
				v1.026h-4.189c-0.471,0-0.992,0.572-0.992,1.043v2.483c0,0.552,0.447,1,1,1h3.885c0.553,0,1-0.448,1-1v-0.139
				c0-0.371,0.301-0.672,0.672-0.672h4.088c0.371,0,0.671,0.301,0.671,0.672v0.139c0,0.552,0.447,1,1,1h3.886c0.553,0,1-0.448,1-1
				v-2.483C30.893,15.32,30.341,14.748,29.871,14.748z M20.323,13.721c0-0.185,0.15-0.336,0.334-0.336h3.248
				c0.186,0,0.336,0.151,0.336,0.336v0.954h-3.918V13.721z"/>
			<path fill="#FFFFFF" d="M23.727,20.985c0.25,0,0.451-0.203,0.451-0.451v-1.805c0-0.249-0.203-0.451-0.451-0.451h-2.811
				c-0.293,0-0.532,0.238-0.532,0.532v1.724c0,0.248,0.202,0.451,0.45,0.451H23.727L23.727,20.985z"/>
		</g>
	</g>
</g>
</svg>
