<?xml version="1.0" encoding="utf-8"?>
<!-- Generator: Adobe Illustrator 16.0.0, SVG Export Plug-In . SVG Version: 6.00 Build 0)  -->
<!DOCTYPE svg PUBLIC "-//W3C//DTD SVG 1.1//EN" "http://www.w3.org/Graphics/SVG/1.1/DTD/svg11.dtd">
<svg version="1.1" xmlns="http://www.w3.org/2000/svg" xmlns:xlink="http://www.w3.org/1999/xlink" x="0px" y="0px"
	 width="89.334px" height="46px" viewBox="0 0 89.334 46" enable-background="new 0 0 89.334 46" xml:space="preserve">
<g id="IMG">
</g>
<g id="Marcos" display="none">
	<circle display="inline" opacity="0.7" fill="#F9F9F9" cx="41.929" cy="24.533" r="11.021"/>
	<rect x="13.188" y="-752.291" display="inline" fill="#8E9398" width="673.309" height="810"/>
</g>
<g id="Capa_10">
	<circle opacity="0.7" fill="#686868" cx="26.553" cy="24.533" r="11.333"/>
	<circle opacity="0.7" fill="#686868" cx="65.078" cy="24.533" r="11.333"/>
</g>
<g id="Imagenes" display="none">
	
		<image display="inline" overflow="visible" width="1040" height="1300" xlink:href="480A2113.jpg"  transform="matrix(0.5913 0 0 0.5913 42 -733.1406)">
	</image>
</g>
<g id="Marcos_cintillos" display="none">
</g>
<g id="Publicidad" display="none">
</g>
<g id="Logo" display="none">
</g>
<g id="Botones">
	<g>
		<circle opacity="0.7" fill="#F9F9F9" cx="65.078" cy="24.533" r="11.021"/>
		<g>
			<path fill="#65686B" d="M63.618,14.803c0.241,0,0.474,0.129,0.597,0.355l5.151,9.469l-5.153,9.285
				c-0.182,0.328-0.596,0.447-0.924,0.266c-0.328-0.184-0.447-0.596-0.265-0.926l4.791-8.631l-4.794-8.813
				c-0.18-0.33-0.058-0.742,0.272-0.922C63.396,14.83,63.508,14.803,63.618,14.803z"/>
		</g>
	</g>
	<g>
		<circle opacity="0.7" fill="#F9F9F9" cx="26.553" cy="24.533" r="11.021"/>
		<g>
			<path fill="#65686B" d="M28.014,34.264c-0.242,0-0.475-0.129-0.598-0.355l-5.15-9.469l5.152-9.285
				c0.182-0.328,0.596-0.447,0.924-0.266c0.328,0.184,0.447,0.596,0.266,0.926l-4.791,8.631l4.793,8.813
				c0.18,0.33,0.059,0.742-0.271,0.922C28.234,34.236,28.123,34.264,28.014,34.264z"/>
		</g>
	</g>
</g>
<g id="TXT" display="none">
</g>
<g id="Guia" display="none">
</g>
</svg>
