<?xml version="1.0" encoding="utf-8"?>
<!-- Generator: Adobe Illustrator 16.0.0, SVG Export Plug-In . SVG Version: 6.00 Build 0)  -->
<!DOCTYPE svg PUBLIC "-//W3C//DTD SVG 1.1//EN" "http://www.w3.org/Graphics/SVG/1.1/DTD/svg11.dtd">
<svg version="1.1" xmlns="http://www.w3.org/2000/svg" xmlns:xlink="http://www.w3.org/1999/xlink" x="0px" y="0px"
	 width="22.043px" height="55.667px" viewBox="0 0 22.043 55.667" enable-background="new 0 0 22.043 55.667" xml:space="preserve">
<g id="IMG" display="none">
</g>
<g id="Marcos">
	<rect x="-646.225" y="-6.031" fill="#8E9398" width="673.309" height="463"/>
</g>
<g id="Imagenes" display="none">
</g>
<g id="Marcos_cintillos" display="none">
</g>
<g id="Publicidad" display="none">
</g>
<g id="Logo" display="none">
</g>
<g id="Botones">
	<g>
		<circle opacity="0.7" fill="#F9F9F9" cx="11.021" cy="13.948" r="11.021"/>
		<g>
			<path fill="#65686B" d="M20.751,15.408c0-0.24-0.128-0.475-0.354-0.598l-9.469-5.15l-9.286,5.154
				c-0.328,0.182-0.446,0.594-0.265,0.924c0.184,0.328,0.596,0.445,0.925,0.263l8.632-4.791l8.813,4.794
				c0.33,0.178,0.742,0.058,0.922-0.273C20.725,15.63,20.751,15.518,20.751,15.408z"/>
		</g>
	</g>
	<g>
		<circle opacity="0.7" fill="#F9F9F9" cx="11.021" cy="41.801" r="11.021"/>
		<g>
			<path fill="#65686B" d="M20.751,40.341c0,0.24-0.128,0.474-0.354,0.597l-9.469,5.151l-9.286-5.154
				c-0.328-0.182-0.446-0.595-0.265-0.924c0.184-0.328,0.596-0.447,0.925-0.265l8.632,4.791l8.813-4.793
				c0.33-0.18,0.742-0.058,0.922,0.272C20.725,40.12,20.751,40.231,20.751,40.341z"/>
		</g>
	</g>
</g>
<g id="TXT" display="none">
</g>
<g id="Guia" display="none">
</g>
</svg>
