<?xml version="1.0" encoding="utf-8"?>
<!-- Generator: Adobe Illustrator 15.0.0, SVG Export Plug-In . SVG Version: 6.00 Build 0)  -->
<!DOCTYPE svg PUBLIC "-//W3C//DTD SVG 1.1//EN" "http://www.w3.org/Graphics/SVG/1.1/DTD/svg11.dtd">
<svg version="1.1" id="Capa_1" xmlns="http://www.w3.org/2000/svg" xmlns:xlink="http://www.w3.org/1999/xlink" x="0px" y="0px"
	 width="19.625px" height="30.875px" viewBox="0 0 19.625 30.875" enable-background="new 0 0 19.625 30.875" xml:space="preserve">
<g>
	<g>
		<path fill="#B92025" d="M8.642,3.476v21.888l-5.225-5.223c-0.457-0.458-1.197-0.458-1.656,0c-0.457,0.458-0.457,1.199,0,1.656
			l7.223,7.222c0.457,0.458,1.199,0.458,1.658,0l7.221-7.222c0.23-0.229,0.344-0.529,0.344-0.828c0-0.3-0.113-0.599-0.344-0.828
			c-0.457-0.458-1.199-0.458-1.654,0l-5.225,5.223V3.476c0-0.646-0.525-1.171-1.172-1.171S8.642,2.83,8.642,3.476z"/>
	</g>
</g>
</svg>
