<?xml version="1.0" encoding="utf-8"?>
<!-- Generator: Adobe Illustrator 15.0.0, SVG Export Plug-In . SVG Version: 6.00 Build 0)  -->
<!DOCTYPE svg PUBLIC "-//W3C//DTD SVG 1.1//EN" "http://www.w3.org/Graphics/SVG/1.1/DTD/svg11.dtd">
<svg version="1.1" id="Capa_1" xmlns="http://www.w3.org/2000/svg" xmlns:xlink="http://www.w3.org/1999/xlink" x="0px" y="0px"
	 width="52px" height="38px" viewBox="0 0 52 38" enable-background="new 0 0 52 38" xml:space="preserve">
<g>
	<rect x="7" y="4.443" fill="#BB0411" width="38.001" height="29.557"/>
	<g>
		<path fill="#FFFFFF" d="M25.243,16.093c-2.431,0-4.408,1.976-4.408,4.405c0,2.434,1.977,4.412,4.408,4.412
			c2.43,0,4.407-1.979,4.407-4.412C29.65,18.068,27.673,16.093,25.243,16.093z M25.771,17.811c-1.729,0-3.129,1.401-3.129,3.13
			c0,0.844,0.336,1.608,0.881,2.17c-0.849-0.559-1.411-1.518-1.411-2.612c0-1.729,1.401-3.131,3.132-3.131
			c0.881,0,1.678,0.372,2.249,0.96C26.997,18.003,26.406,17.811,25.771,17.811z M16.117,25.128h-3.184V14.547h3.184V25.128z
			 M35.701,11.638h-6.358v-0.264c0-0.777-0.634-1.412-1.41-1.412h-5.82c-0.776,0-1.411,0.635-1.411,1.412v0.264h-1.46
			c-0.157-0.606-0.706-1.061-1.361-1.061h-2.116c-0.656,0-1.203,0.454-1.36,1.061h-0.059c-0.779,0-1.411,0.631-1.411,1.411v0.439
			h3.712c0.293,0,0.528,0.237,0.528,0.531v11.638c0,0.293-0.235,0.528-0.528,0.528h-3.712v0.445c0,0.775,0.632,1.408,1.411,1.408
			h1.419h2.116h4.232h5.82h7.769c0.777,0,1.407-0.633,1.407-1.408V13.049C37.108,12.269,36.478,11.638,35.701,11.638z
			 M25.243,26.318c-3.209,0-5.819-2.612-5.819-5.82s2.61-5.819,5.819-5.819c3.208,0,5.818,2.611,5.818,5.819
			S28.451,26.318,25.243,26.318z"/>
	</g>
</g>
</svg>
