<?xml version="1.0" encoding="utf-8"?>
<!-- Generator: Adobe Illustrator 15.0.0, SVG Export Plug-In . SVG Version: 6.00 Build 0)  -->
<!DOCTYPE svg PUBLIC "-//W3C//DTD SVG 1.1//EN" "http://www.w3.org/Graphics/SVG/1.1/DTD/svg11.dtd">
<svg version="1.1" id="Capa_1" xmlns="http://www.w3.org/2000/svg" xmlns:xlink="http://www.w3.org/1999/xlink" x="0px" y="0px"
	 width="269.796px" height="47.782px" viewBox="0 0 269.796 47.782" enable-background="new 0 0 269.796 47.782"
	 xml:space="preserve">
<rect x="7" y="6.816" fill-rule="evenodd" clip-rule="evenodd" fill="#CCCCCC" width="8" height="15"/>
<rect x="18" y="6.816" fill-rule="evenodd" clip-rule="evenodd" fill="#CCCCCC" width="8" height="15"/>
<rect x="30" y="6.816" fill-rule="evenodd" clip-rule="evenodd" fill="#CCCCCC" width="8" height="15"/>
<rect x="41" y="6.816" fill-rule="evenodd" clip-rule="evenodd" fill="#CCCCCC" width="8" height="15"/>
<rect x="52" y="6.816" fill-rule="evenodd" clip-rule="evenodd" fill="#CCCCCC" width="8" height="15"/>
<rect x="64" y="6.816" fill-rule="evenodd" clip-rule="evenodd" fill="#CCCCCC" width="8" height="15"/>
<rect x="75" y="6.816" fill-rule="evenodd" clip-rule="evenodd" fill="#CCCCCC" width="8" height="15"/>
<rect x="86" y="6.816" fill-rule="evenodd" clip-rule="evenodd" fill="#CCCCCC" width="8" height="15"/>
<rect x="98" y="6.816" fill-rule="evenodd" clip-rule="evenodd" fill="#CCCCCC" width="8" height="15"/>
<rect x="109" y="6.816" fill-rule="evenodd" clip-rule="evenodd" fill="#CCCCCC" width="8" height="15"/>
<rect x="120" y="6.816" fill-rule="evenodd" clip-rule="evenodd" fill="#CCCCCC" width="8" height="15"/>
<rect x="131" y="6.816" fill-rule="evenodd" clip-rule="evenodd" fill="#CCCCCC" width="8" height="15"/>
<rect x="143" y="6.816" fill-rule="evenodd" clip-rule="evenodd" fill="#CCCCCC" width="8" height="15"/>
<rect x="154" y="6.816" fill-rule="evenodd" clip-rule="evenodd" fill="#CCCCCC" width="8" height="15"/>
<rect x="165" y="6.816" fill-rule="evenodd" clip-rule="evenodd" fill="#CCCCCC" width="8" height="15"/>
<rect x="177" y="6.816" fill-rule="evenodd" clip-rule="evenodd" fill="#CCCCCC" width="8" height="15"/>
<rect x="188" y="6.816" fill-rule="evenodd" clip-rule="evenodd" fill="#CCCCCC" width="8" height="15"/>
<rect x="199" y="6.816" fill-rule="evenodd" clip-rule="evenodd" fill="#CCCCCC" width="8" height="15"/>
<rect x="211" y="6.816" fill-rule="evenodd" clip-rule="evenodd" fill="#CCCCCC" width="8" height="15"/>
<rect x="222" y="6.816" fill-rule="evenodd" clip-rule="evenodd" fill="#CCCCCC" width="8" height="15"/>
<rect x="233" y="6.816" fill-rule="evenodd" clip-rule="evenodd" fill="#CCCCCC" width="8" height="15"/>
<rect x="245" y="6.816" fill-rule="evenodd" clip-rule="evenodd" fill="#CCCCCC" width="8" height="15"/>
<rect x="256" y="6.816" fill-rule="evenodd" clip-rule="evenodd" fill="#CCCCCC" width="8" height="15"/>
<g>
	<rect x="11" y="26.816" fill="#4D4D4D" width="249" height="1"/>
</g>
<g>
	<circle fill="#4D4D4D" cx="10.749" cy="27.604" r="3.28"/>
</g>
<g>
	<circle fill="#4D4D4D" cx="260.749" cy="27.604" r="3.28"/>
</g>
<g>
	<path d="M8.873,42.394h1.819v-6.292l0.13-0.768l-0.52,0.611l-1.43,1.027L8.379,36.31l2.859-2.21h0.469v8.294h1.78v0.962H8.873
		V42.394z"/>
</g>
<g>
	<path d="M259.518,36.322c0,0.459-0.084,0.93-0.254,1.41c-0.168,0.481-0.391,0.965-0.662,1.45c-0.273,0.485-0.58,0.96-0.918,1.423
		c-0.338,0.465-0.676,0.904-1.014,1.32l-0.637,0.559v0.053l0.832-0.144h2.834v0.962h-5.174v-0.377
		c0.189-0.199,0.42-0.446,0.689-0.741c0.268-0.294,0.547-0.622,0.838-0.981s0.576-0.74,0.857-1.145
		c0.281-0.402,0.537-0.813,0.768-1.229s0.414-0.826,0.553-1.234c0.139-0.407,0.207-0.793,0.207-1.156
		c0-0.426-0.121-0.778-0.363-1.061c-0.242-0.281-0.611-0.422-1.105-0.422c-0.328,0-0.65,0.066-0.961,0.201
		c-0.313,0.135-0.582,0.288-0.807,0.461l-0.43-0.74c0.305-0.26,0.664-0.464,1.08-0.611c0.416-0.146,0.861-0.221,1.338-0.221
		c0.373,0,0.703,0.055,0.988,0.162c0.287,0.109,0.529,0.263,0.729,0.462s0.352,0.436,0.455,0.708
		C259.465,35.705,259.518,36.002,259.518,36.322z"/>
	<path d="M263.846,42.602c0.295,0,0.568-0.043,0.82-0.13c0.25-0.087,0.467-0.215,0.648-0.384c0.184-0.169,0.326-0.371,0.43-0.604
		s0.156-0.489,0.156-0.767c0-0.607-0.18-1.058-0.539-1.353c-0.361-0.294-0.857-0.442-1.488-0.442h-0.963v-0.377l1.871-2.885
		l0.6-0.572l-0.846,0.129h-2.574v-0.961h4.641v0.377l-2.066,3.106l-0.455,0.378v0.025l0.441-0.092
		c0.348,0.01,0.668,0.072,0.963,0.189s0.551,0.285,0.768,0.507c0.215,0.221,0.385,0.485,0.506,0.793s0.182,0.656,0.182,1.046
		c0,0.469-0.082,0.885-0.246,1.248c-0.164,0.364-0.389,0.67-0.67,0.917s-0.613,0.436-0.994,0.565s-0.785,0.195-1.209,0.195
		c-0.391,0-0.74-0.031-1.053-0.092s-0.586-0.139-0.82-0.233l0.273-0.923c0.199,0.096,0.436,0.176,0.709,0.24
		S263.508,42.602,263.846,42.602z"/>
</g>
</svg>
