<?xml version="1.0" encoding="utf-8"?>
<!-- Generator: Adobe Illustrator 16.0.0, SVG Export Plug-In . SVG Version: 6.00 Build 0)  -->
<!DOCTYPE svg PUBLIC "-//W3C//DTD SVG 1.1//EN" "http://www.w3.org/Graphics/SVG/1.1/DTD/svg11.dtd">
<svg version="1.1" id="Capa_1" xmlns="http://www.w3.org/2000/svg" xmlns:xlink="http://www.w3.org/1999/xlink" x="0px" y="0px"
	 width="116px" height="47.333px" viewBox="0 0 116 47.333" enable-background="new 0 0 116 47.333" xml:space="preserve">
<g>
	<path fill-rule="evenodd" clip-rule="evenodd" fill="#E30613" d="M33.37,17.819c2.363,2.122,3.861,5.151,3.861,8.722
		c0,3.817-1.912,6.624-4.674,8.385h77.1V17.819H33.37z"/>
	<g>
		<path fill-rule="evenodd" clip-rule="evenodd" fill="#E30613" d="M25.364,9.733l-8.135,2.774l-0.432-0.53l5.904-5.906
			c0.953-0.952,2.865-0.717,3.545,0.44C26.866,7.55,26.624,9.301,25.364,9.733"/>
		<path fill-rule="evenodd" clip-rule="evenodd" fill="#E30613" d="M20.682,14.556c6.826,0,12.619,4.952,12.619,11.985
			c0,6.947-6.307,10.57-12.619,10.57c-6.488,0-12.299-4.303-12.299-11.117C8.383,19.377,14.319,14.556,20.682,14.556 M20.682,16.929
			c3.773,0,6.475,4.215,6.475,9.065c0,4.86-2.701,9.068-6.475,9.068c-3.342,0-6.359-4.208-6.359-9.068
			C14.323,21.144,17.34,16.929,20.682,16.929"/>
	</g>
	<g>
		<path fill="#FFFFFF" d="M40.846,29.084h1.232v2.27h-1.232V29.084z"/>
		<path fill="#FFFFFF" d="M53.622,24.936h-1.365c-0.754-1.332-1.744-1.997-2.969-1.997c-1.113,0-2.016,0.383-2.707,1.153
			c-0.641,0.714-0.961,1.577-0.961,2.59c0,1.062,0.33,1.959,0.994,2.688c0.664,0.731,1.496,1.098,2.496,1.098
			c0.697,0,1.307-0.162,1.83-0.481c0.557-0.343,0.994-0.854,1.316-1.534h1.33c-0.395,1.016-0.988,1.804-1.785,2.361
			c-0.768,0.535-1.629,0.803-2.59,0.803c-0.754,0-1.48-0.172-2.184-0.516c-0.793-0.381-1.42-0.921-1.879-1.611
			c-0.531-0.787-0.795-1.71-0.795-2.767c0-0.759,0.178-1.501,0.531-2.226c0.395-0.803,0.928-1.438,1.604-1.905
			c0.77-0.535,1.66-0.802,2.672-0.802c0.904,0,1.676,0.186,2.311,0.557C52.313,22.842,53.032,23.705,53.622,24.936z"/>
		<path fill="#FFFFFF" d="M54.776,26.723c0-0.736,0.172-1.467,0.516-2.191c0.385-0.815,0.914-1.459,1.582-1.932
			c0.781-0.55,1.695-0.827,2.742-0.827c1.176,0,2.236,0.434,3.188,1.3c1.045,0.956,1.566,2.143,1.566,3.559
			c0,1.359-0.455,2.518-1.363,3.474c-0.957,1.007-2.172,1.512-3.645,1.512c-1.141,0-2.18-0.477-3.117-1.427
			C55.264,29.199,54.776,28.044,54.776,26.723z M56.04,26.682c0,1.189,0.365,2.133,1.098,2.823c0.664,0.63,1.482,0.947,2.463,0.947
			c0.959,0,1.766-0.308,2.42-0.922c0.736-0.69,1.104-1.642,1.104-2.849c0-1.047-0.307-1.921-0.92-2.623
			c-0.652-0.748-1.523-1.12-2.623-1.12c-0.904,0-1.688,0.285-2.352,0.858C56.436,24.482,56.04,25.444,56.04,26.682z"/>
		<path fill="#FFFFFF" d="M66.893,31.354h-1.139v-9.285h1.139v1.038c0.787-0.805,1.754-1.205,2.9-1.205h0.279
			c0.68,0,1.281,0.15,1.803,0.453c0.471,0.276,0.861,0.665,1.174,1.164c0.342-0.476,0.787-0.865,1.338-1.164
			c0.631-0.342,1.297-0.515,2-0.515c1.012,0,1.834,0.317,2.471,0.945c0.736,0.731,1.102,1.809,1.102,3.23v5.338h-1.137v-5.231
			c0-1.023-0.221-1.794-0.666-2.313c-0.443-0.519-1.092-0.778-1.947-0.778c-0.893,0-1.545,0.23-1.955,0.69
			c-0.518,0.584-0.777,1.62-0.777,3.109v4.523h-1.139v-5.2c0-0.965-0.158-1.689-0.48-2.171c-0.422-0.635-1.143-0.952-2.166-0.952
			c-0.455,0-0.844,0.059-1.164,0.178c-0.482,0.179-0.859,0.493-1.129,0.941c-0.338,0.563-0.506,1.341-0.506,2.334v0.347V31.354z"/>
		<path fill="#FFFFFF" d="M82.727,29.084h1.23v2.27h-1.23V29.084z"/>
		<path fill="#FFFFFF" d="M95.502,24.936h-1.367c-0.752-1.332-1.742-1.997-2.969-1.997c-1.111,0-2.016,0.383-2.707,1.153
			c-0.639,0.714-0.959,1.577-0.959,2.59c0,1.062,0.33,1.959,0.994,2.688c0.662,0.731,1.498,1.098,2.496,1.098
			c0.695,0,1.307-0.162,1.828-0.481c0.557-0.343,0.996-0.854,1.316-1.534h1.332c-0.393,1.016-0.988,1.804-1.787,2.361
			c-0.764,0.535-1.627,0.803-2.588,0.803c-0.756,0-1.48-0.172-2.186-0.516c-0.791-0.381-1.418-0.921-1.879-1.611
			c-0.527-0.787-0.793-1.71-0.793-2.767c0-0.759,0.178-1.501,0.531-2.226c0.393-0.803,0.928-1.438,1.602-1.905
			c0.77-0.535,1.66-0.802,2.674-0.802c0.904,0,1.676,0.186,2.311,0.557C94.194,22.842,94.913,23.705,95.502,24.936z"/>
		<path fill="#FFFFFF" d="M96.655,26.723c0-0.736,0.172-1.467,0.516-2.191c0.387-0.815,0.918-1.459,1.586-1.932
			c0.779-0.55,1.693-0.827,2.738-0.827c1.176,0,2.238,0.434,3.189,1.3c1.045,0.956,1.568,2.143,1.568,3.559
			c0,1.359-0.455,2.518-1.367,3.474c-0.955,1.007-2.17,1.512-3.643,1.512c-1.141,0-2.18-0.477-3.119-1.427
			C97.147,29.199,96.655,28.044,96.655,26.723z M97.92,26.682c0,1.189,0.367,2.133,1.098,2.823c0.662,0.63,1.482,0.947,2.463,0.947
			c0.959,0,1.766-0.308,2.42-0.922c0.734-0.69,1.102-1.642,1.102-2.849c0-1.047-0.307-1.921-0.918-2.623
			c-0.652-0.748-1.525-1.12-2.621-1.12c-0.906,0-1.691,0.285-2.354,0.858C98.319,24.482,97.92,25.444,97.92,26.682z"/>
	</g>
	<text transform="matrix(1 0 0 1 46.2979 41.3862)" font-family="'Swiss721BT-LightCondensed'" font-size="6.3858">www.laopinion.com.co</text>
	<circle fill="#E30613" cx="44.327" cy="39.625" r="0.697"/>
	<circle fill="#E30613" cx="97.354" cy="39.625" r="0.699"/>
	
		<line fill="none" stroke="#D51317" stroke-width="0.5" stroke-linecap="round" stroke-miterlimit="10" x1="44.327" y1="39.625" x2="26.866" y2="39.625"/>
	
		<line fill="none" stroke="#D51317" stroke-width="0.5" stroke-linecap="round" stroke-miterlimit="10" x1="109.657" y1="39.625" x2="97.254" y2="39.625"/>
</g>
</svg>
