<?xml version="1.0" encoding="utf-8"?>
<!-- Generator: Adobe Illustrator 16.0.0, SVG Export Plug-In . SVG Version: 6.00 Build 0)  -->
<!DOCTYPE svg PUBLIC "-//W3C//DTD SVG 1.1//EN" "http://www.w3.org/Graphics/SVG/1.1/DTD/svg11.dtd">
<svg version="1.1" id="Capa_1" xmlns="http://www.w3.org/2000/svg" xmlns:xlink="http://www.w3.org/1999/xlink" x="0px" y="0px"
	 width="361px" height="166px" viewBox="0 0 361 166" enable-background="new 0 0 361 166" xml:space="preserve">
<rect x="26.537" y="27" fill="#78BAC6" width="298.615" height="33.781"/>
<g>
	<path fill="#FFFFFF" d="M161.541,55.323V32.898h2.576c0.455,0,0.811,0.119,1.066,0.356c0.256,0.237,0.465,0.622,0.623,1.155
		c0.078,0.276,0.148,0.588,0.207,0.933c0.059,0.346,0.104,0.741,0.133,1.185c0.029,0.444,0.055,0.958,0.074,1.54
		c0.02,0.583,0.029,1.259,0.029,2.029c0,1.265-0.025,2.346-0.074,3.244s-0.143,1.644-0.281,2.236
		c-0.158,0.691-0.375,1.195-0.65,1.511c-0.277,0.316-0.672,0.474-1.186,0.474h-1.926v7.762H161.541z M164.059,46.969
		c0.336,0,0.596-0.117,0.785-0.355c0.188-0.236,0.34-0.621,0.459-1.154c0.137-0.592,0.232-1.329,0.281-2.208
		c0.049-0.878,0.074-1.93,0.074-3.155c0-1.521-0.035-2.69-0.104-3.51c-0.07-0.819-0.174-1.486-0.311-2
		c-0.119-0.395-0.264-0.676-0.43-0.844c-0.168-0.168-0.4-0.252-0.697-0.252h-1.984v13.478H164.059z"/>
	<path fill="#FFFFFF" d="M173.42,55.323c-0.021-0.197-0.041-0.396-0.061-0.592c-0.02-0.198-0.039-0.46-0.059-0.786
		s-0.045-0.764-0.074-1.318c-0.029-0.552-0.064-1.293-0.104-2.221c-0.059-1.264-0.119-2.242-0.178-2.934
		c-0.061-0.691-0.119-1.204-0.178-1.54c-0.039-0.276-0.158-0.489-0.355-0.638c-0.197-0.147-0.523-0.222-0.979-0.222h-1.748v10.25
		h-0.592V32.898h2.695c0.711,0,1.225,0.366,1.541,1.096c0.197,0.474,0.33,1.116,0.4,1.926c0.068,0.81,0.104,1.817,0.104,3.021
		c0,0.948-0.02,1.729-0.059,2.34c-0.041,0.612-0.09,1.116-0.148,1.511c-0.061,0.396-0.133,0.707-0.223,0.933
		c-0.09,0.228-0.184,0.41-0.281,0.548c-0.1,0.139-0.193,0.237-0.281,0.296c-0.09,0.06-0.174,0.109-0.252,0.148v0.119
		c0.158,0.04,0.311,0.144,0.459,0.311c0.148,0.168,0.252,0.409,0.311,0.726c0.061,0.316,0.119,0.82,0.178,1.511
		c0.059,0.691,0.119,1.689,0.178,2.992c0.039,0.929,0.074,1.664,0.104,2.208c0.029,0.543,0.055,0.981,0.074,1.317
		s0.039,0.593,0.061,0.771c0.02,0.178,0.039,0.355,0.059,0.533v0.118H173.42z M171.404,44.481c0.336,0,0.598-0.04,0.785-0.119
		c0.188-0.078,0.359-0.227,0.52-0.444c0.098-0.138,0.182-0.306,0.252-0.504c0.068-0.197,0.121-0.474,0.162-0.829
		c0.039-0.356,0.068-0.825,0.088-1.407s0.031-1.328,0.031-2.237c0-1.165-0.031-2.123-0.09-2.874
		c-0.059-0.75-0.168-1.333-0.326-1.748c-0.236-0.553-0.582-0.83-1.037-0.83h-2.104v10.99H171.404z"/>
	<path fill="#FFFFFF" d="M176.943,53.871c-0.078-0.336-0.146-0.705-0.207-1.109c-0.059-0.405-0.104-0.953-0.133-1.645
		s-0.055-1.596-0.074-2.711s-0.029-2.552-0.029-4.311c0-1.757,0.01-3.189,0.029-4.295c0.02-1.105,0.045-2.004,0.074-2.695
		s0.074-1.234,0.133-1.629c0.061-0.395,0.129-0.771,0.207-1.125c0.158-0.691,0.387-1.17,0.682-1.437c0.297-0.267,0.73-0.4,1.305-0.4
		c0.572,0,1.006,0.133,1.303,0.4s0.523,0.746,0.682,1.437c0.078,0.355,0.143,0.731,0.191,1.125c0.051,0.395,0.09,0.938,0.119,1.629
		s0.055,1.59,0.074,2.695c0.02,1.106,0.029,2.538,0.029,4.295c0,1.759-0.01,3.195-0.029,4.311s-0.045,2.02-0.074,2.711
		s-0.068,1.239-0.119,1.645c-0.049,0.404-0.113,0.773-0.191,1.109c-0.158,0.692-0.385,1.171-0.682,1.438s-0.73,0.399-1.303,0.399
		c-0.574,0-1.008-0.133-1.305-0.399C177.33,55.042,177.102,54.563,176.943,53.871z M180.32,53.754
		c0.08-0.336,0.145-0.707,0.193-1.111c0.049-0.405,0.09-0.949,0.119-1.629c0.029-0.682,0.053-1.57,0.074-2.666
		c0.02-1.097,0.029-2.514,0.029-4.252c0-1.737-0.006-3.149-0.016-4.236c-0.01-1.085-0.029-1.969-0.059-2.651
		c-0.029-0.681-0.07-1.219-0.119-1.614s-0.113-0.76-0.191-1.096c-0.1-0.513-0.262-0.874-0.49-1.081
		c-0.227-0.208-0.537-0.311-0.932-0.311c-0.396,0-0.697,0.099-0.904,0.296c-0.207,0.198-0.371,0.553-0.488,1.066
		c-0.08,0.336-0.145,0.696-0.193,1.081c-0.049,0.386-0.094,0.918-0.133,1.6c-0.039,0.681-0.07,1.57-0.09,2.666
		c-0.02,1.096-0.029,2.523-0.029,4.28c0,1.759,0.01,3.189,0.029,4.296c0.02,1.105,0.045,2.004,0.074,2.696
		c0.031,0.691,0.07,1.229,0.119,1.613c0.049,0.386,0.113,0.736,0.193,1.053c0.117,0.514,0.285,0.869,0.502,1.066
		c0.219,0.197,0.523,0.295,0.92,0.295c0.395,0,0.701-0.098,0.918-0.295S180.223,54.268,180.32,53.754z"/>
	<path fill="#FFFFFF" d="M188.822,46.732c0.02,0.336,0.031,0.662,0.031,0.978c0,0.316,0,0.661,0,1.037
		c0,1.303-0.031,2.409-0.09,3.317c-0.059,0.909-0.197,1.649-0.414,2.222c-0.178,0.474-0.41,0.829-0.697,1.067
		c-0.285,0.236-0.656,0.354-1.111,0.354c-0.592,0-1.041-0.133-1.348-0.399c-0.305-0.267-0.537-0.745-0.695-1.438
		c-0.08-0.315-0.143-0.689-0.193-1.125c-0.049-0.435-0.094-1.017-0.133-1.748c-0.039-0.73-0.068-1.658-0.088-2.785
		c-0.021-1.125-0.031-2.557-0.031-4.294s0.01-3.15,0.031-4.236c0.02-1.086,0.043-1.975,0.074-2.666
		c0.029-0.691,0.072-1.234,0.133-1.629c0.059-0.395,0.127-0.76,0.207-1.096c0.158-0.671,0.385-1.136,0.682-1.393
		c0.295-0.256,0.73-0.385,1.303-0.385c0.988,0,1.639,0.533,1.955,1.6c0.158,0.533,0.262,1.205,0.311,2.014
		c0.051,0.81,0.074,1.807,0.074,2.992c0,0.474,0,0.84,0,1.096c0,0.257-0.01,0.553-0.029,0.889h-0.592
		c0.02-0.335,0.029-0.632,0.029-0.889c0-0.256,0-0.622,0-1.096c0-1.165-0.02-2.137-0.059-2.918c-0.041-0.78-0.139-1.407-0.297-1.881
		c-0.258-0.81-0.721-1.214-1.393-1.214c-0.395,0-0.701,0.094-0.918,0.281s-0.385,0.539-0.504,1.052
		c-0.078,0.316-0.143,0.666-0.191,1.051c-0.051,0.385-0.09,0.914-0.119,1.585c-0.029,0.672-0.055,1.551-0.074,2.636
		c-0.02,1.086-0.029,2.489-0.029,4.207c0,1.738,0.01,3.169,0.029,4.294c0.02,1.127,0.045,2.05,0.074,2.771
		c0.029,0.722,0.074,1.288,0.133,1.704c0.061,0.414,0.119,0.77,0.178,1.066c0.119,0.514,0.287,0.869,0.504,1.066
		s0.543,0.295,0.977,0.295c0.336,0,0.604-0.092,0.801-0.281c0.197-0.187,0.365-0.479,0.504-0.874
		c0.158-0.513,0.266-1.198,0.326-2.058c0.059-0.859,0.088-1.911,0.088-3.155c0-0.396,0-0.745,0-1.052s-0.01-0.627-0.029-0.963
		H188.822z"/>
	<path fill="#FFFFFF" d="M191.814,55.323V32.898h3.969v0.593h-3.377v10.131h3.318v0.592h-3.318v10.517h3.348v0.592H191.814z"/>
	<path fill="#FFFFFF" d="M198.865,47.829c-0.039,0.276-0.064,0.632-0.074,1.065c-0.01,0.436-0.014,0.979-0.014,1.629
		c0,0.85,0.023,1.541,0.072,2.074c0.051,0.533,0.135,0.998,0.252,1.393c0.139,0.395,0.297,0.682,0.475,0.859s0.424,0.266,0.74,0.266
		c0.633,0,1.076-0.344,1.334-1.036c0.158-0.415,0.271-0.952,0.34-1.615c0.07-0.661,0.104-1.584,0.104-2.769
		c0-0.771-0.01-1.408-0.029-1.912c-0.02-0.502-0.049-0.918-0.088-1.244c-0.041-0.325-0.105-0.592-0.193-0.799
		s-0.193-0.4-0.311-0.578c-0.238-0.355-0.549-0.676-0.934-0.962c-0.385-0.286-0.746-0.597-1.082-0.933
		c-0.178-0.178-0.346-0.36-0.502-0.548c-0.16-0.188-0.297-0.42-0.416-0.696c-0.078-0.178-0.143-0.37-0.193-0.578
		c-0.049-0.207-0.088-0.479-0.117-0.814c-0.029-0.336-0.049-0.765-0.059-1.289c-0.012-0.523-0.016-1.2-0.016-2.029
		c0-0.948,0.035-1.713,0.104-2.296c0.068-0.582,0.193-1.061,0.371-1.437c0.334-0.711,0.908-1.066,1.717-1.066
		c0.436,0,0.785,0.084,1.053,0.252c0.266,0.167,0.498,0.419,0.695,0.755c0.197,0.356,0.336,0.8,0.416,1.333
		c0.078,0.533,0.117,1.293,0.117,2.281c0,0.672-0.01,1.235-0.029,1.689c-0.02,0.455-0.049,0.799-0.088,1.036h-0.594
		c0.039-0.237,0.07-0.582,0.09-1.036c0.02-0.454,0.029-1.017,0.029-1.689c0-0.888-0.041-1.585-0.119-2.088
		c-0.078-0.504-0.197-0.913-0.355-1.229c-0.256-0.474-0.662-0.711-1.215-0.711c-0.572,0-0.967,0.237-1.184,0.711
		c-0.158,0.336-0.268,0.77-0.326,1.303s-0.09,1.264-0.09,2.192c0,0.83,0.006,1.496,0.016,2c0.01,0.504,0.025,0.914,0.045,1.229
		c0.02,0.316,0.055,0.563,0.104,0.741s0.104,0.346,0.162,0.503c0.1,0.198,0.223,0.39,0.371,0.578
		c0.148,0.188,0.291,0.351,0.43,0.489c0.334,0.336,0.695,0.652,1.08,0.948c0.385,0.296,0.717,0.633,0.994,1.007
		c0.137,0.217,0.256,0.434,0.354,0.652c0.1,0.218,0.178,0.504,0.238,0.858c0.059,0.356,0.098,0.8,0.117,1.333
		s0.031,1.215,0.031,2.045c0,1.204-0.035,2.158-0.105,2.858c-0.068,0.701-0.201,1.288-0.398,1.763
		c-0.197,0.455-0.445,0.799-0.74,1.037c-0.297,0.236-0.672,0.354-1.127,0.354c-0.494,0-0.879-0.118-1.154-0.354
		c-0.277-0.238-0.494-0.633-0.652-1.186c-0.119-0.395-0.203-0.869-0.252-1.422s-0.074-1.293-0.074-2.223
		c0-0.67,0.006-1.214,0.016-1.629c0.01-0.414,0.033-0.77,0.074-1.065H198.865z"/>
	<path fill="#FFFFFF" d="M205.855,53.871c-0.078-0.336-0.148-0.705-0.207-1.109c-0.059-0.405-0.104-0.953-0.133-1.645
		s-0.055-1.596-0.074-2.711s-0.029-2.552-0.029-4.311c0-1.757,0.01-3.189,0.029-4.295c0.02-1.105,0.045-2.004,0.074-2.695
		s0.074-1.234,0.133-1.629c0.059-0.395,0.129-0.771,0.207-1.125c0.158-0.691,0.387-1.17,0.682-1.437c0.297-0.267,0.73-0.4,1.303-0.4
		c0.574,0,1.008,0.133,1.305,0.4s0.523,0.746,0.682,1.437c0.078,0.355,0.143,0.731,0.191,1.125c0.049,0.395,0.09,0.938,0.119,1.629
		s0.055,1.59,0.074,2.695c0.02,1.106,0.029,2.538,0.029,4.295c0,1.759-0.01,3.195-0.029,4.311s-0.045,2.02-0.074,2.711
		s-0.07,1.239-0.119,1.645c-0.049,0.404-0.113,0.773-0.191,1.109c-0.158,0.692-0.385,1.171-0.682,1.438s-0.73,0.399-1.305,0.399
		c-0.572,0-1.006-0.133-1.303-0.399C206.242,55.042,206.014,54.563,205.855,53.871z M209.232,53.754
		c0.08-0.336,0.143-0.707,0.193-1.111c0.049-0.405,0.088-0.949,0.117-1.629c0.031-0.682,0.055-1.57,0.074-2.666
		c0.021-1.097,0.031-2.514,0.031-4.252c0-1.737-0.006-3.149-0.016-4.236c-0.01-1.085-0.029-1.969-0.059-2.651
		c-0.031-0.681-0.07-1.219-0.119-1.614s-0.113-0.76-0.193-1.096c-0.098-0.513-0.262-0.874-0.488-1.081
		c-0.227-0.208-0.537-0.311-0.934-0.311c-0.395,0-0.695,0.099-0.902,0.296c-0.207,0.198-0.371,0.553-0.488,1.066
		c-0.08,0.336-0.145,0.696-0.193,1.081c-0.049,0.386-0.094,0.918-0.133,1.6c-0.041,0.681-0.07,1.57-0.09,2.666
		c-0.02,1.096-0.029,2.523-0.029,4.28c0,1.759,0.01,3.189,0.029,4.296c0.02,1.105,0.045,2.004,0.074,2.696
		c0.029,0.691,0.068,1.229,0.119,1.613c0.049,0.386,0.113,0.736,0.191,1.053c0.119,0.514,0.287,0.869,0.504,1.066
		s0.523,0.295,0.918,0.295c0.396,0,0.701-0.098,0.92-0.295C208.977,54.623,209.135,54.268,209.232,53.754z"/>
	<path fill="#FFFFFF" d="M218.477,55.323V32.898h4.354c1.008,0,1.768,0.129,2.281,0.385c0.514,0.257,0.918,0.721,1.215,1.393
		c0.137,0.336,0.256,0.696,0.355,1.081c0.098,0.385,0.178,0.914,0.236,1.585c0.061,0.671,0.1,1.541,0.119,2.606
		c0.02,1.067,0.029,2.449,0.029,4.147c0,1.759-0.016,3.18-0.045,4.266s-0.074,1.961-0.133,2.622
		c-0.059,0.662-0.133,1.181-0.223,1.556c-0.088,0.375-0.203,0.721-0.34,1.037c-0.277,0.671-0.672,1.13-1.186,1.377
		c-0.514,0.246-1.283,0.37-2.311,0.37H218.477z M222.771,52.568c0.395,0,0.686-0.063,0.873-0.193c0.188-0.127,0.33-0.359,0.43-0.695
		c0.059-0.217,0.113-0.465,0.164-0.74c0.049-0.276,0.084-0.682,0.104-1.215s0.033-1.244,0.043-2.133s0.016-2.063,0.016-3.525
		c0-1.422-0.006-2.572-0.016-3.451c-0.01-0.878-0.023-1.589-0.043-2.133c-0.02-0.543-0.051-0.958-0.09-1.244
		c-0.039-0.286-0.1-0.538-0.178-0.755c-0.117-0.336-0.271-0.573-0.459-0.711s-0.469-0.208-0.844-0.208h-1.689v17.004H222.771z"/>
	<path fill="#FFFFFF" d="M228.754,55.323V32.898h6.932v2.667h-4.324v7.05h4.266v2.547h-4.266v7.377h4.295v2.784H228.754z"/>
	<path fill="#FFFFFF" d="M241.848,55.323V32.898h4.65c0.711,0,1.293,0.119,1.748,0.356c0.455,0.237,0.82,0.642,1.096,1.214
		c0.277,0.573,0.469,1.338,0.578,2.296c0.107,0.958,0.162,2.158,0.162,3.599c0,1.422-0.055,2.622-0.162,3.6
		c-0.109,0.978-0.297,1.768-0.562,2.37c-0.268,0.603-0.637,1.042-1.111,1.317c-0.475,0.277-1.066,0.415-1.777,0.415h-2.014v7.258
		H241.848z M246.055,45.459c0.236,0,0.439-0.078,0.607-0.237c0.166-0.158,0.311-0.43,0.43-0.814c0.117-0.386,0.207-0.908,0.266-1.57
		c0.059-0.662,0.088-1.506,0.088-2.533c0-1.007-0.029-1.827-0.088-2.459c-0.059-0.631-0.148-1.115-0.266-1.451
		c-0.119-0.336-0.268-0.563-0.445-0.682c-0.178-0.118-0.385-0.177-0.623-0.177h-1.568v9.924H246.055z"/>
	<path fill="#FFFFFF" d="M256.008,55.323l-0.504-6.103h-2.4l-0.502,6.103h-2.637l2.221-22.425h4.443l2.074,22.425H256.008z
		 M254.674,38.23c-0.039-0.454-0.078-0.898-0.117-1.333c-0.041-0.435-0.08-0.878-0.119-1.333h-0.207
		c-0.041,0.455-0.08,0.898-0.119,1.333s-0.078,0.879-0.117,1.333l-0.771,8.413h2.162L254.674,38.23z"/>
	<path fill="#FFFFFF" d="M259.857,55.323v-3.081l5.512-16.47l-0.09-0.178h-5.244v-2.696h8.502v1.452l-6.043,18.011l0.09,0.178h5.807
		v2.784H259.857z"/>
</g>
<g opacity="0.5">
	<path fill-rule="evenodd" clip-rule="evenodd" fill="#FFFFFF" d="M280.186,27.451c1.764-0.221,1.711,1.048,1.564,2.986
		c-0.24,3.198,0.389,6.884,1.395,9.449c0.359,0.917,1.135,1.675,0.926,2.762c-0.17,0.892-1.055,1.252-1.752,1.12
		c-1.025-0.195-1.533-1.826-2.002-3.036c-0.949-2.458-1.473-4.859-1.562-7.997C278.701,30.939,278.492,27.664,280.186,27.451z"/>
	<path fill-rule="evenodd" clip-rule="evenodd" fill="#FFFFFF" d="M310.344,31.076c2.236-0.065,1.408,3.31,0.82,5.551
		c-0.744,2.839-1.949,5.285-3.377,7.413c-0.635,0.945-1.547,2.563-2.588,2.572c-0.924,0.007-1.637-0.723-1.582-1.588
		c0.043-0.685,0.502-0.938,0.906-1.44c2.033-2.519,3.412-5.742,4.18-9.826C308.975,32.3,308.846,31.12,310.344,31.076z"/>
	<path fill-rule="evenodd" clip-rule="evenodd" fill="#FFFFFF" d="M275.654,30.897c2.354-0.341,1.678,3.029,1.875,4.717
		c0.359,3.08,1.271,6.031,2.693,8.424c0.268,0.449,0.701,0.82,0.619,1.621c-0.092,0.908-0.988,1.421-1.633,1.356
		c-1.135-0.117-1.889-1.842-2.391-2.862c-1.209-2.458-1.799-4.659-2.18-7.774C274.438,34.723,273.77,31.171,275.654,30.897z"/>
	<path fill-rule="evenodd" clip-rule="evenodd" fill="#FFFFFF" d="M315.504,36.695c-0.637,4.306-2.646,8.389-5.02,11.348
		c-0.588,0.732-1.906,2.539-3.016,2.446c-0.803-0.067-1.367-0.824-1.381-1.416c-0.025-0.99,0.699-1.356,0.924-1.587
		c2.295-2.355,4.139-5.582,5.18-9.56c0.334-1.284,0.424-2.578,1.842-2.51C314.934,35.459,315.25,36.131,315.504,36.695z"/>
	<path fill-rule="evenodd" clip-rule="evenodd" fill="#FFFFFF" d="M316.432,41.964c-1.543-0.121-1.754,1.968-2.391,3.403
		c-2.434,5.482-6.209,9.016-11.225,10.838c-2.066,0.752-3.977,1.452-7.119,1.005c2.107-1.627,3.316-5.911,2.477-9.142
		c2.943-2.139,5.859-5.633,7.629-9.715c0.664-1.53,2.432-5.54,0.346-6.075c-1.756-0.453-1.807,1.014-2.188,2.32
		c-1.365,4.667-3.738,7.913-6.746,10.335c-0.137-0.813-0.814-1.771-0.91-2.908c-0.096-1.144,0.006-2.444-0.396-3.51
		c-0.348-0.921-1.119-2.205-2.258-2.108c-0.711,0.06-1.029,0.741-1.225,1.624c-0.51,0.188-1.307,0.014-1.475,0.637
		c0.32,0.398,1.09,0.033,1.348,0.454c0.061,2.279-1.025,3.669-1.916,5.006c-2.031-2.556-3.416-5.876-4.002-9.831
		c-0.264-1.78,0.383-4.628-1.658-4.691c-1.705-0.051-1.588,1.948-1.455,3.587c0.322,3.983,1.514,7.586,3.125,10.391
		c0.713,1.24,1.668,2.237,2.33,3.371c-1.631,2.783-1.354,7.441,0.004,9.36c-2.963-0.496-4.857-1.438-6.547-2.614
		c-4.354-3.032-7.217-7.279-8.264-13.06c-0.312-1.727,0.131-4.08-1.963-3.989c-1.535,0.067-1.383,1.822-1.119,3.258
		c1.43,7.822,5.51,13.593,12.051,17.191c1.912,1.052,3.943,1.853,6.625,1.958c0.789,0.031,1.668-0.186,2.369-0.089
		c0.732,0.101,1.43,0.599,2.119,0.765c2.652,0.643,5.186,0.31,7.172-0.188c6.688-1.671,11.977-5.963,15.139-12.146
		C317.002,46.043,319.158,42.176,316.432,41.964z M292.383,55.936c-1.816-0.96-0.752-4.066,0.637-4.789
		C294.373,52.082,294.307,55.584,292.383,55.936z"/>
</g>
<g>
	<path fill="#FFFFFF" d="M161.541,135.323v-22.425h2.576c0.455,0,0.811,0.119,1.066,0.356c0.256,0.237,0.465,0.622,0.623,1.155
		c0.078,0.276,0.148,0.588,0.207,0.933c0.059,0.346,0.104,0.741,0.133,1.185c0.029,0.444,0.055,0.958,0.074,1.54
		c0.02,0.583,0.029,1.259,0.029,2.029c0,1.265-0.025,2.346-0.074,3.244s-0.143,1.644-0.281,2.236
		c-0.158,0.691-0.375,1.195-0.65,1.511c-0.277,0.316-0.672,0.474-1.186,0.474h-1.926v7.762H161.541z M164.059,126.969
		c0.336,0,0.596-0.117,0.785-0.355c0.188-0.236,0.34-0.621,0.459-1.154c0.137-0.592,0.232-1.329,0.281-2.208
		c0.049-0.878,0.074-1.93,0.074-3.155c0-1.521-0.035-2.69-0.104-3.51c-0.07-0.819-0.174-1.486-0.311-2
		c-0.119-0.395-0.264-0.676-0.43-0.844c-0.168-0.168-0.4-0.252-0.697-0.252h-1.984v13.478H164.059z"/>
	<path fill="#FFFFFF" d="M173.42,135.323c-0.021-0.197-0.041-0.396-0.061-0.592c-0.02-0.198-0.039-0.46-0.059-0.786
		s-0.045-0.764-0.074-1.318c-0.029-0.552-0.064-1.293-0.104-2.221c-0.059-1.264-0.119-2.242-0.178-2.934
		c-0.061-0.691-0.119-1.204-0.178-1.54c-0.039-0.276-0.158-0.489-0.355-0.638c-0.197-0.147-0.523-0.222-0.979-0.222h-1.748v10.25
		h-0.592v-22.425h2.695c0.711,0,1.225,0.366,1.541,1.096c0.197,0.474,0.33,1.116,0.4,1.926c0.068,0.81,0.104,1.817,0.104,3.021
		c0,0.948-0.02,1.729-0.059,2.34c-0.041,0.612-0.09,1.116-0.148,1.511c-0.061,0.396-0.133,0.707-0.223,0.933
		c-0.09,0.228-0.184,0.41-0.281,0.548c-0.1,0.139-0.193,0.237-0.281,0.296c-0.09,0.06-0.174,0.109-0.252,0.148v0.119
		c0.158,0.04,0.311,0.144,0.459,0.311c0.148,0.168,0.252,0.409,0.311,0.726c0.061,0.316,0.119,0.82,0.178,1.511
		c0.059,0.691,0.119,1.689,0.178,2.992c0.039,0.929,0.074,1.664,0.104,2.208c0.029,0.543,0.055,0.981,0.074,1.317
		s0.039,0.593,0.061,0.771c0.02,0.178,0.039,0.355,0.059,0.533v0.118H173.42z M171.404,124.481c0.336,0,0.598-0.04,0.785-0.119
		c0.188-0.078,0.359-0.227,0.52-0.444c0.098-0.138,0.182-0.306,0.252-0.504c0.068-0.197,0.121-0.474,0.162-0.829
		c0.039-0.356,0.068-0.825,0.088-1.407s0.031-1.328,0.031-2.237c0-1.165-0.031-2.123-0.09-2.874
		c-0.059-0.75-0.168-1.333-0.326-1.748c-0.236-0.553-0.582-0.83-1.037-0.83h-2.104v10.99H171.404z"/>
	<path fill="#FFFFFF" d="M176.943,133.871c-0.078-0.336-0.146-0.705-0.207-1.109c-0.059-0.405-0.104-0.953-0.133-1.645
		s-0.055-1.596-0.074-2.711s-0.029-2.552-0.029-4.311c0-1.757,0.01-3.189,0.029-4.295c0.02-1.105,0.045-2.004,0.074-2.695
		s0.074-1.234,0.133-1.629c0.061-0.395,0.129-0.771,0.207-1.125c0.158-0.691,0.387-1.17,0.682-1.437c0.297-0.267,0.73-0.4,1.305-0.4
		c0.572,0,1.006,0.133,1.303,0.4s0.523,0.746,0.682,1.437c0.078,0.355,0.143,0.731,0.191,1.125c0.051,0.395,0.09,0.938,0.119,1.629
		s0.055,1.59,0.074,2.695c0.02,1.106,0.029,2.538,0.029,4.295c0,1.759-0.01,3.195-0.029,4.311s-0.045,2.02-0.074,2.711
		s-0.068,1.239-0.119,1.645c-0.049,0.404-0.113,0.773-0.191,1.109c-0.158,0.692-0.385,1.171-0.682,1.438s-0.73,0.399-1.303,0.399
		c-0.574,0-1.008-0.133-1.305-0.399C177.33,135.042,177.102,134.563,176.943,133.871z M180.32,133.754
		c0.08-0.336,0.145-0.707,0.193-1.111c0.049-0.405,0.09-0.949,0.119-1.629c0.029-0.682,0.053-1.57,0.074-2.666
		c0.02-1.097,0.029-2.514,0.029-4.252c0-1.737-0.006-3.149-0.016-4.236c-0.01-1.085-0.029-1.969-0.059-2.651
		c-0.029-0.681-0.07-1.219-0.119-1.614s-0.113-0.76-0.191-1.096c-0.1-0.513-0.262-0.874-0.49-1.081
		c-0.227-0.208-0.537-0.311-0.932-0.311c-0.396,0-0.697,0.099-0.904,0.296c-0.207,0.198-0.371,0.553-0.488,1.066
		c-0.08,0.336-0.145,0.696-0.193,1.081c-0.049,0.386-0.094,0.918-0.133,1.6c-0.039,0.681-0.07,1.57-0.09,2.666
		c-0.02,1.096-0.029,2.523-0.029,4.28c0,1.759,0.01,3.189,0.029,4.296c0.02,1.105,0.045,2.004,0.074,2.696
		c0.031,0.691,0.07,1.229,0.119,1.613c0.049,0.386,0.113,0.736,0.193,1.053c0.117,0.514,0.285,0.869,0.502,1.066
		c0.219,0.197,0.523,0.295,0.92,0.295c0.395,0,0.701-0.098,0.918-0.295S180.223,134.268,180.32,133.754z"/>
	<path fill="#FFFFFF" d="M188.822,126.732c0.02,0.336,0.031,0.662,0.031,0.978c0,0.316,0,0.661,0,1.037
		c0,1.303-0.031,2.409-0.09,3.317c-0.059,0.909-0.197,1.649-0.414,2.222c-0.178,0.474-0.41,0.829-0.697,1.067
		c-0.285,0.236-0.656,0.354-1.111,0.354c-0.592,0-1.041-0.133-1.348-0.399c-0.305-0.267-0.537-0.745-0.695-1.438
		c-0.08-0.315-0.143-0.689-0.193-1.125c-0.049-0.435-0.094-1.017-0.133-1.748c-0.039-0.73-0.068-1.658-0.088-2.785
		c-0.021-1.125-0.031-2.557-0.031-4.294s0.01-3.15,0.031-4.236c0.02-1.086,0.043-1.975,0.074-2.666
		c0.029-0.691,0.072-1.234,0.133-1.629c0.059-0.395,0.127-0.76,0.207-1.096c0.158-0.671,0.385-1.136,0.682-1.393
		c0.295-0.256,0.73-0.385,1.303-0.385c0.988,0,1.639,0.533,1.955,1.6c0.158,0.533,0.262,1.205,0.311,2.014
		c0.051,0.81,0.074,1.807,0.074,2.992c0,0.474,0,0.84,0,1.096c0,0.257-0.01,0.553-0.029,0.889h-0.592
		c0.02-0.335,0.029-0.632,0.029-0.889c0-0.256,0-0.622,0-1.096c0-1.165-0.02-2.137-0.059-2.918c-0.041-0.78-0.139-1.407-0.297-1.881
		c-0.258-0.81-0.721-1.214-1.393-1.214c-0.395,0-0.701,0.094-0.918,0.281s-0.385,0.539-0.504,1.052
		c-0.078,0.316-0.143,0.666-0.191,1.051c-0.051,0.385-0.09,0.914-0.119,1.585c-0.029,0.672-0.055,1.551-0.074,2.636
		c-0.02,1.086-0.029,2.489-0.029,4.207c0,1.738,0.01,3.169,0.029,4.294c0.02,1.127,0.045,2.05,0.074,2.771
		c0.029,0.722,0.074,1.288,0.133,1.704c0.061,0.414,0.119,0.77,0.178,1.066c0.119,0.514,0.287,0.869,0.504,1.066
		s0.543,0.295,0.977,0.295c0.336,0,0.604-0.092,0.801-0.281c0.197-0.187,0.365-0.479,0.504-0.874
		c0.158-0.513,0.266-1.198,0.326-2.058c0.059-0.859,0.088-1.911,0.088-3.155c0-0.396,0-0.745,0-1.052s-0.01-0.627-0.029-0.963
		H188.822z"/>
	<path fill="#FFFFFF" d="M191.814,135.323v-22.425h3.969v0.593h-3.377v10.131h3.318v0.592h-3.318v10.517h3.348v0.592H191.814z"/>
	<path fill="#FFFFFF" d="M198.865,127.829c-0.039,0.276-0.064,0.632-0.074,1.065c-0.01,0.436-0.014,0.979-0.014,1.629
		c0,0.85,0.023,1.541,0.072,2.074c0.051,0.533,0.135,0.998,0.252,1.393c0.139,0.395,0.297,0.682,0.475,0.859s0.424,0.266,0.74,0.266
		c0.633,0,1.076-0.344,1.334-1.036c0.158-0.415,0.271-0.952,0.34-1.615c0.07-0.661,0.104-1.584,0.104-2.769
		c0-0.771-0.01-1.408-0.029-1.912c-0.02-0.502-0.049-0.918-0.088-1.244c-0.041-0.325-0.105-0.592-0.193-0.799
		s-0.193-0.4-0.311-0.578c-0.238-0.355-0.549-0.676-0.934-0.962c-0.385-0.286-0.746-0.597-1.082-0.933
		c-0.178-0.178-0.346-0.36-0.502-0.548c-0.16-0.188-0.297-0.42-0.416-0.696c-0.078-0.178-0.143-0.37-0.193-0.578
		c-0.049-0.207-0.088-0.479-0.117-0.814c-0.029-0.336-0.049-0.765-0.059-1.289c-0.012-0.523-0.016-1.2-0.016-2.029
		c0-0.948,0.035-1.713,0.104-2.296c0.068-0.582,0.193-1.061,0.371-1.437c0.334-0.711,0.908-1.066,1.717-1.066
		c0.436,0,0.785,0.084,1.053,0.252c0.266,0.167,0.498,0.419,0.695,0.755c0.197,0.356,0.336,0.8,0.416,1.333
		c0.078,0.533,0.117,1.293,0.117,2.281c0,0.672-0.01,1.235-0.029,1.689c-0.02,0.455-0.049,0.799-0.088,1.036h-0.594
		c0.039-0.237,0.07-0.582,0.09-1.036c0.02-0.454,0.029-1.017,0.029-1.689c0-0.888-0.041-1.585-0.119-2.088
		c-0.078-0.504-0.197-0.913-0.355-1.229c-0.256-0.474-0.662-0.711-1.215-0.711c-0.572,0-0.967,0.237-1.184,0.711
		c-0.158,0.336-0.268,0.77-0.326,1.303s-0.09,1.264-0.09,2.192c0,0.83,0.006,1.496,0.016,2c0.01,0.504,0.025,0.914,0.045,1.229
		c0.02,0.316,0.055,0.563,0.104,0.741s0.104,0.346,0.162,0.503c0.1,0.198,0.223,0.39,0.371,0.578
		c0.148,0.188,0.291,0.351,0.43,0.489c0.334,0.336,0.695,0.652,1.08,0.948c0.385,0.296,0.717,0.633,0.994,1.007
		c0.137,0.217,0.256,0.434,0.354,0.652c0.1,0.218,0.178,0.504,0.238,0.858c0.059,0.356,0.098,0.8,0.117,1.333
		s0.031,1.215,0.031,2.045c0,1.204-0.035,2.158-0.105,2.858c-0.068,0.701-0.201,1.288-0.398,1.763
		c-0.197,0.455-0.445,0.799-0.74,1.037c-0.297,0.236-0.672,0.354-1.127,0.354c-0.494,0-0.879-0.118-1.154-0.354
		c-0.277-0.238-0.494-0.633-0.652-1.186c-0.119-0.395-0.203-0.869-0.252-1.422s-0.074-1.293-0.074-2.223
		c0-0.67,0.006-1.214,0.016-1.629c0.01-0.414,0.033-0.77,0.074-1.065H198.865z"/>
	<path fill="#FFFFFF" d="M205.855,133.871c-0.078-0.336-0.148-0.705-0.207-1.109c-0.059-0.405-0.104-0.953-0.133-1.645
		s-0.055-1.596-0.074-2.711s-0.029-2.552-0.029-4.311c0-1.757,0.01-3.189,0.029-4.295c0.02-1.105,0.045-2.004,0.074-2.695
		s0.074-1.234,0.133-1.629c0.059-0.395,0.129-0.771,0.207-1.125c0.158-0.691,0.387-1.17,0.682-1.437c0.297-0.267,0.73-0.4,1.303-0.4
		c0.574,0,1.008,0.133,1.305,0.4s0.523,0.746,0.682,1.437c0.078,0.355,0.143,0.731,0.191,1.125c0.049,0.395,0.09,0.938,0.119,1.629
		s0.055,1.59,0.074,2.695c0.02,1.106,0.029,2.538,0.029,4.295c0,1.759-0.01,3.195-0.029,4.311s-0.045,2.02-0.074,2.711
		s-0.07,1.239-0.119,1.645c-0.049,0.404-0.113,0.773-0.191,1.109c-0.158,0.692-0.385,1.171-0.682,1.438s-0.73,0.399-1.305,0.399
		c-0.572,0-1.006-0.133-1.303-0.399C206.242,135.042,206.014,134.563,205.855,133.871z M209.232,133.754
		c0.08-0.336,0.143-0.707,0.193-1.111c0.049-0.405,0.088-0.949,0.117-1.629c0.031-0.682,0.055-1.57,0.074-2.666
		c0.021-1.097,0.031-2.514,0.031-4.252c0-1.737-0.006-3.149-0.016-4.236c-0.01-1.085-0.029-1.969-0.059-2.651
		c-0.031-0.681-0.07-1.219-0.119-1.614s-0.113-0.76-0.193-1.096c-0.098-0.513-0.262-0.874-0.488-1.081
		c-0.227-0.208-0.537-0.311-0.934-0.311c-0.395,0-0.695,0.099-0.902,0.296c-0.207,0.198-0.371,0.553-0.488,1.066
		c-0.08,0.336-0.145,0.696-0.193,1.081c-0.049,0.386-0.094,0.918-0.133,1.6c-0.041,0.681-0.07,1.57-0.09,2.666
		c-0.02,1.096-0.029,2.523-0.029,4.28c0,1.759,0.01,3.189,0.029,4.296c0.02,1.105,0.045,2.004,0.074,2.696
		c0.029,0.691,0.068,1.229,0.119,1.613c0.049,0.386,0.113,0.736,0.191,1.053c0.119,0.514,0.287,0.869,0.504,1.066
		s0.523,0.295,0.918,0.295c0.396,0,0.701-0.098,0.92-0.295C208.977,134.623,209.135,134.268,209.232,133.754z"/>
	<path fill="#FFFFFF" d="M218.477,135.323v-22.425h4.354c1.008,0,1.768,0.129,2.281,0.385c0.514,0.257,0.918,0.721,1.215,1.393
		c0.137,0.336,0.256,0.696,0.355,1.081c0.098,0.385,0.178,0.914,0.236,1.585c0.061,0.671,0.1,1.541,0.119,2.606
		c0.02,1.067,0.029,2.449,0.029,4.147c0,1.759-0.016,3.18-0.045,4.266s-0.074,1.961-0.133,2.622
		c-0.059,0.662-0.133,1.181-0.223,1.556c-0.088,0.375-0.203,0.721-0.34,1.037c-0.277,0.671-0.672,1.13-1.186,1.377
		c-0.514,0.246-1.283,0.37-2.311,0.37H218.477z M222.771,132.568c0.395,0,0.686-0.063,0.873-0.193
		c0.188-0.127,0.33-0.359,0.43-0.695c0.059-0.217,0.113-0.465,0.164-0.74c0.049-0.276,0.084-0.682,0.104-1.215
		s0.033-1.244,0.043-2.133s0.016-2.063,0.016-3.525c0-1.422-0.006-2.572-0.016-3.451c-0.01-0.878-0.023-1.589-0.043-2.133
		c-0.02-0.543-0.051-0.958-0.09-1.244c-0.039-0.286-0.1-0.538-0.178-0.755c-0.117-0.336-0.271-0.573-0.459-0.711
		s-0.469-0.208-0.844-0.208h-1.689v17.004H222.771z"/>
	<path fill="#FFFFFF" d="M228.754,135.323v-22.425h6.932v2.667h-4.324v7.05h4.266v2.547h-4.266v7.377h4.295v2.784H228.754z"/>
	<path fill="#FFFFFF" d="M241.848,135.323v-22.425h4.65c0.711,0,1.293,0.119,1.748,0.356c0.455,0.237,0.82,0.642,1.096,1.214
		c0.277,0.573,0.469,1.338,0.578,2.296c0.107,0.958,0.162,2.158,0.162,3.599c0,1.422-0.055,2.622-0.162,3.6
		c-0.109,0.978-0.297,1.768-0.562,2.37c-0.268,0.603-0.637,1.042-1.111,1.317c-0.475,0.277-1.066,0.415-1.777,0.415h-2.014v7.258
		H241.848z M246.055,125.459c0.236,0,0.439-0.078,0.607-0.237c0.166-0.158,0.311-0.43,0.43-0.814
		c0.117-0.386,0.207-0.908,0.266-1.57c0.059-0.662,0.088-1.506,0.088-2.533c0-1.007-0.029-1.827-0.088-2.459
		c-0.059-0.631-0.148-1.115-0.266-1.451c-0.119-0.336-0.268-0.563-0.445-0.682c-0.178-0.118-0.385-0.177-0.623-0.177h-1.568v9.924
		H246.055z"/>
	<path fill="#FFFFFF" d="M256.008,135.323l-0.504-6.103h-2.4l-0.502,6.103h-2.637l2.221-22.425h4.443l2.074,22.425H256.008z
		 M254.674,118.23c-0.039-0.454-0.078-0.898-0.117-1.333c-0.041-0.435-0.08-0.878-0.119-1.333h-0.207
		c-0.041,0.455-0.08,0.898-0.119,1.333s-0.078,0.879-0.117,1.333l-0.771,8.413h2.162L254.674,118.23z"/>
	<path fill="#FFFFFF" d="M259.857,135.323v-3.081l5.512-16.47l-0.09-0.178h-5.244v-2.696h8.502v1.452l-6.043,18.011l0.09,0.178
		h5.807v2.784H259.857z"/>
</g>
<g opacity="0.5">
	<path fill-rule="evenodd" clip-rule="evenodd" fill="#FFFFFF" d="M280.186,107.451c1.764-0.221,1.711,1.048,1.564,2.986
		c-0.24,3.198,0.389,6.884,1.395,9.449c0.359,0.917,1.135,1.675,0.926,2.762c-0.17,0.892-1.055,1.252-1.752,1.12
		c-1.025-0.195-1.533-1.826-2.002-3.036c-0.949-2.458-1.473-4.859-1.562-7.997C278.701,110.939,278.492,107.664,280.186,107.451z"/>
	<path fill-rule="evenodd" clip-rule="evenodd" fill="#FFFFFF" d="M310.344,111.076c2.236-0.065,1.408,3.31,0.82,5.551
		c-0.744,2.839-1.949,5.285-3.377,7.413c-0.635,0.945-1.547,2.563-2.588,2.572c-0.924,0.007-1.637-0.723-1.582-1.588
		c0.043-0.685,0.502-0.938,0.906-1.44c2.033-2.519,3.412-5.742,4.18-9.826C308.975,112.3,308.846,111.12,310.344,111.076z"/>
	<path fill-rule="evenodd" clip-rule="evenodd" fill="#FFFFFF" d="M275.654,110.897c2.354-0.341,1.678,3.029,1.875,4.717
		c0.359,3.08,1.271,6.031,2.693,8.424c0.268,0.449,0.701,0.82,0.619,1.621c-0.092,0.908-0.988,1.421-1.633,1.356
		c-1.135-0.117-1.889-1.842-2.391-2.862c-1.209-2.458-1.799-4.659-2.18-7.774C274.438,114.723,273.77,111.171,275.654,110.897z"/>
	<path fill-rule="evenodd" clip-rule="evenodd" fill="#FFFFFF" d="M315.504,116.695c-0.637,4.306-2.646,8.389-5.02,11.348
		c-0.588,0.732-1.906,2.539-3.016,2.446c-0.803-0.067-1.367-0.824-1.381-1.416c-0.025-0.99,0.699-1.356,0.924-1.587
		c2.295-2.355,4.139-5.582,5.18-9.56c0.334-1.284,0.424-2.578,1.842-2.51C314.934,115.459,315.25,116.131,315.504,116.695z"/>
	<path fill-rule="evenodd" clip-rule="evenodd" fill="#FFFFFF" d="M316.432,121.964c-1.543-0.121-1.754,1.968-2.391,3.403
		c-2.434,5.482-6.209,9.016-11.225,10.838c-2.066,0.752-3.977,1.452-7.119,1.005c2.107-1.627,3.316-5.911,2.477-9.142
		c2.943-2.139,5.859-5.633,7.629-9.715c0.664-1.53,2.432-5.54,0.346-6.075c-1.756-0.453-1.807,1.014-2.188,2.32
		c-1.365,4.667-3.738,7.913-6.746,10.335c-0.137-0.813-0.814-1.771-0.91-2.908c-0.096-1.144,0.006-2.444-0.396-3.51
		c-0.348-0.921-1.119-2.205-2.258-2.108c-0.711,0.06-1.029,0.741-1.225,1.624c-0.51,0.188-1.307,0.014-1.475,0.637
		c0.32,0.398,1.09,0.033,1.348,0.454c0.061,2.279-1.025,3.669-1.916,5.006c-2.031-2.556-3.416-5.876-4.002-9.831
		c-0.264-1.78,0.383-4.628-1.658-4.691c-1.705-0.051-1.588,1.948-1.455,3.587c0.322,3.983,1.514,7.586,3.125,10.391
		c0.713,1.24,1.668,2.237,2.33,3.371c-1.631,2.783-1.354,7.441,0.004,9.36c-2.963-0.496-4.857-1.438-6.547-2.614
		c-4.354-3.032-7.217-7.279-8.264-13.06c-0.312-1.727,0.131-4.08-1.963-3.989c-1.535,0.067-1.383,1.822-1.119,3.258
		c1.43,7.822,5.51,13.593,12.051,17.191c1.912,1.052,3.943,1.853,6.625,1.958c0.789,0.031,1.668-0.186,2.369-0.089
		c0.732,0.101,1.43,0.599,2.119,0.765c2.652,0.643,5.186,0.31,7.172-0.188c6.688-1.671,11.977-5.963,15.139-12.146
		C317.002,126.043,319.158,122.176,316.432,121.964z M292.383,135.936c-1.816-0.96-0.752-4.066,0.637-4.789
		C294.373,132.082,294.307,135.584,292.383,135.936z"/>
</g>
</svg>
