<?xml version="1.0" encoding="utf-8"?>
<!-- Generator: Adobe Illustrator 16.0.0, SVG Export Plug-In . SVG Version: 6.00 Build 0)  -->
<!DOCTYPE svg PUBLIC "-//W3C//DTD SVG 1.1//EN" "http://www.w3.org/Graphics/SVG/1.1/DTD/svg11.dtd">
<svg version="1.1" xmlns="http://www.w3.org/2000/svg" xmlns:xlink="http://www.w3.org/1999/xlink" x="0px" y="0px" width="119px"
	 height="119.5px" viewBox="0 0 119 119.5" enable-background="new 0 0 119 119.5" xml:space="preserve">
<g id="Marcos">
</g>
<g id="Imagenes">
</g>
<g id="Marcos_cintillos">
</g>
<g id="Publicidad">
</g>
<g id="Logo">
</g>
<g id="Botones">
</g>
<g id="TXT">
</g>
<g id="Pico_y_Placa">
	<g>
		<defs>
			<circle id="SVGID_252_" cx="59.721" cy="59.667" r="57.334"/>
		</defs>
		<clipPath id="SVGID_2_">
			<use xlink:href="#SVGID_252_"  overflow="visible"/>
		</clipPath>
		
			<rect x="64.45" y="79.108" transform="matrix(0.9875 -0.1574 0.1574 0.9875 -14.3759 14.2113)" clip-path="url(#SVGID_2_)" fill="#E0E0E0" width="36.132" height="37.482"/>
		
			<rect x="103.006" y="73.122" transform="matrix(0.9875 -0.1574 0.1574 0.9875 -12.9526 20.2066)" clip-path="url(#SVGID_2_)" fill="#E0E0E0" width="36.132" height="37.482"/>
		
			<rect x="58.326" y="39.373" transform="matrix(0.9875 -0.1574 0.1574 0.9875 -8.1954 12.7492)" clip-path="url(#SVGID_2_)" fill="#E0E0E0" width="36.132" height="37.483"/>
		
			<rect x="96.881" y="33.387" transform="matrix(0.9875 -0.1574 0.1574 0.9875 -6.7719 18.7418)" clip-path="url(#SVGID_2_)" fill="#E0E0E0" width="36.136" height="37.482"/>
		
			<rect x="51.962" y="-1.182" transform="matrix(0.9875 -0.1574 0.1574 0.9875 -1.8907 11.2396)" clip-path="url(#SVGID_2_)" fill="#E0E0E0" width="36.134" height="37.483"/>
		
			<rect x="26.347" y="85.019" transform="matrix(0.9875 -0.1574 0.1574 0.9875 -15.7792 8.2845)" clip-path="url(#SVGID_2_)" fill="#E0E0E0" width="36.132" height="37.484"/>
		
			<rect x="20.223" y="45.286" transform="matrix(0.9875 -0.1574 0.1574 0.9875 -9.6005 6.825)" clip-path="url(#SVGID_2_)" fill="#B3E2C1" width="36.134" height="37.481"/>
		
			<rect x="13.86" y="4.73" transform="matrix(0.9875 -0.1574 0.1574 0.9875 -3.2971 5.3189)" clip-path="url(#SVGID_2_)" fill="#E0E0E0" width="36.132" height="37.483"/>
		
			<rect x="-11.754" y="90.842" transform="matrix(0.9875 -0.1574 0.1574 0.9875 -17.1698 2.3597)" clip-path="url(#SVGID_2_)" fill="#E0E0E0" width="36.134" height="37.483"/>
		
			<rect x="-17.879" y="51.109" transform="matrix(0.9875 -0.1574 0.1574 0.9875 -10.9938 0.9006)" clip-path="url(#SVGID_2_)" fill="#E0E0E0" width="36.134" height="37.482"/>
		
			<rect x="-24.242" y="10.553" transform="matrix(0.9875 -0.1574 0.1574 0.9875 -4.6873 -0.6069)" clip-path="url(#SVGID_2_)" fill="#E0E0E0" width="36.132" height="37.482"/>
		
			<rect x="90.518" y="-7.169" transform="matrix(0.9875 -0.1574 0.1574 0.9875 -0.4679 17.2385)" clip-path="url(#SVGID_2_)" fill="#E0E0E0" width="36.134" height="37.483"/>
	</g>
</g>
<g id="Guia">
</g>
</svg>
