<?xml version="1.0" encoding="utf-8"?>
<!-- Generator: Adobe Illustrator 16.0.0, SVG Export Plug-In . SVG Version: 6.00 Build 0)  -->
<!DOCTYPE svg PUBLIC "-//W3C//DTD SVG 1.1//EN" "http://www.w3.org/Graphics/SVG/1.1/DTD/svg11.dtd">
<svg version="1.1" xmlns="http://www.w3.org/2000/svg" xmlns:xlink="http://www.w3.org/1999/xlink" x="0px" y="0px"
	 width="87.831px" height="18.469px" viewBox="0 0 87.831 18.469" enable-background="new 0 0 87.831 18.469" xml:space="preserve">
<g id="Marcos">
</g>
<g id="Imagenes">
</g>
<g id="Marcos_cintillos">
</g>
<g id="Publicidad">
</g>
<g id="Logo">
</g>
<g id="Botones">
	<g>
		<path id="Facebook__x28_alt_x29__1_" fill="#B92025" d="M17.813,3.23c0-1.514-1.368-2.883-2.884-2.883H3.394
			c-1.516,0-2.884,1.369-2.884,2.883v11.535c0,1.516,1.368,2.885,2.884,2.885h5.768v-6.537H7.047V8.23h2.114V7.105
			c0-1.938,1.455-3.682,3.244-3.682h2.331v2.883h-2.331c-0.255,0-0.553,0.311-0.553,0.773v1.15h2.884v2.883h-2.884v6.537h3.076
			c1.516,0,2.884-1.369,2.884-2.885V3.23z"/>
	</g>
	<g>
		<g>
			<path fill="#B92025" d="M37.748,0.348H26.934c-1.791,0-3.244,1.451-3.244,3.244v10.814c0,1.791,1.453,3.244,3.244,3.244h10.814
				c1.793,0,3.244-1.453,3.244-3.244V3.592C40.992,1.799,39.541,0.348,37.748,0.348z M36.645,7.057l0.008,0.275
				c0,2.816-2.143,6.061-6.061,6.061c-1.203,0-2.322-0.354-3.266-0.957c0.168,0.02,0.338,0.029,0.51,0.029
				c0.998,0,1.916-0.34,2.645-0.91c-0.932-0.018-1.719-0.635-1.99-1.48c0.131,0.023,0.264,0.037,0.402,0.037
				c0.193,0,0.383-0.025,0.561-0.074c-0.975-0.195-1.709-1.057-1.709-2.088V7.922c0.287,0.16,0.615,0.256,0.965,0.268
				c-0.57-0.381-0.947-1.033-0.947-1.771c0-0.391,0.105-0.756,0.287-1.07c1.051,1.287,2.621,2.137,4.391,2.225
				c-0.037-0.156-0.055-0.318-0.055-0.486c0-1.174,0.953-2.129,2.131-2.129c0.611,0,1.164,0.26,1.555,0.674
				c0.484-0.098,0.941-0.275,1.352-0.518c-0.158,0.498-0.496,0.914-0.936,1.178c0.43-0.051,0.842-0.166,1.223-0.334
				C37.424,6.383,37.061,6.758,36.645,7.057z"/>
		</g>
	</g>
	<g>
		<g>
			<path fill="#B92025" d="M59.006,17.703h-7.087c-2.711,0-4.933-2.219-4.933-4.931V5.221c0-2.712,2.222-4.93,4.933-4.93h7.087
				c2.712,0,4.931,2.218,4.931,4.93v7.552C63.937,15.484,61.718,17.703,59.006,17.703 M59.006,16.401
				c0.963,0,1.872-0.38,2.562-1.068c0.688-0.688,1.066-1.598,1.066-2.561V5.221c0-0.963-0.378-1.873-1.066-2.562
				c-0.689-0.687-1.599-1.066-2.562-1.066h-7.087c-0.965,0-1.874,0.38-2.563,1.066c-0.684,0.688-1.063,1.599-1.063,2.562v7.552
				c0,0.963,0.38,1.873,1.063,2.561c0.689,0.688,1.599,1.068,2.563,1.068H59.006z"/>
			<path fill="#B92025" d="M60.154,8.93c0,2.577-2.088,4.667-4.668,4.667c-2.575,0-4.665-2.09-4.665-4.667
				c0-2.576,2.09-4.668,4.665-4.668C58.066,4.262,60.154,6.354,60.154,8.93 M55.468,5.876c-1.689,0-3.058,1.369-3.058,3.058
				c0,1.688,1.368,3.056,3.058,3.056c1.687,0,3.054-1.368,3.054-3.056C58.521,7.245,57.154,5.876,55.468,5.876"/>
			<path fill="#B92025" d="M61.335,4.19c0,0.609-0.495,1.105-1.104,1.105c-0.611,0-1.104-0.496-1.104-1.105
				c0-0.611,0.493-1.106,1.104-1.106C60.84,3.084,61.335,3.579,61.335,4.19"/>
		</g>
	</g>
	<path fill="#B92025" d="M84.348,0.305H73.294c-1.744,0-3.163,1.421-3.163,3.164v11.056c0,1.744,1.419,3.164,3.163,3.164h11.054
		c1.746,0,3.167-1.42,3.167-3.164V3.469C87.515,1.726,86.094,0.305,84.348,0.305z M76.652,13.335V4.656l6.53,4.341L76.652,13.335z"
		/>
</g>
<g id="TXT">
</g>
<g id="Pico_y_Placa">
</g>
<g id="Guia">
</g>
</svg>
