<?xml version="1.0" encoding="utf-8"?>
<!-- Generator: Adobe Illustrator 16.0.0, SVG Export Plug-In . SVG Version: 6.00 Build 0)  -->
<!DOCTYPE svg PUBLIC "-//W3C//DTD SVG 1.1//EN" "http://www.w3.org/Graphics/SVG/1.1/DTD/svg11.dtd">
<svg version="1.1" xmlns="http://www.w3.org/2000/svg" xmlns:xlink="http://www.w3.org/1999/xlink" x="0px" y="0px" width="271.5px"
	 height="51px" viewBox="0 0 271.5 51" enable-background="new 0 0 271.5 51" xml:space="preserve">
<g id="Marcos">
	<rect x="302.663" y="937.687" fill="#F2F2F2" width="1500" height="404.376"/>
	<rect x="1263.571" y="-460.03" fill="#FFFFFF" width="300" height="180.5"/>
	<rect x="1263.571" y="-460.032" fill="#BB2026" width="300" height="29"/>
	<rect x="1263.976" y="-261.697" fill="#FFFFFF" width="300" height="180.5"/>
	<rect x="1263.976" y="-261.699" fill="#BB2026" width="300" height="29"/>
	<rect x="1263.878" y="-60.286" fill="#1E459E" width="300" height="29.078"/>
</g>
<g id="Imagenes">
	
		<image overflow="visible" width="300" height="181" xlink:href="T:\MERCADEO-WEB\WEB NUEVA\Banner periodico portada.png"  transform="matrix(0.9999 0 0 0.9999 1263.417 -460.5273)">
	</image>
</g>
<g id="Marcos_cintillos">
	<rect x="302.663" y="902.462" fill="#B92025" width="1500" height="35.224"/>
	<line fill="none" stroke="#8E9398" stroke-miterlimit="10" x1="716.164" y1="960.727" x2="716.164" y2="1048.898"/>
	<line fill="none" stroke="#FFFFFF" stroke-miterlimit="10" x1="739.331" y1="908.144" x2="739.331" y2="933.713"/>
	<line fill="none" stroke="#FFFFFF" stroke-miterlimit="10" x1="798.913" y1="908.144" x2="798.913" y2="933.713"/>
	<line fill="none" stroke="#FFFFFF" stroke-miterlimit="10" x1="863.288" y1="908.144" x2="863.288" y2="933.713"/>
	<line fill="none" stroke="#FFFFFF" stroke-miterlimit="10" x1="936.163" y1="908.144" x2="936.163" y2="933.713"/>
	<line fill="none" stroke="#FFFFFF" stroke-miterlimit="10" x1="1025.163" y1="908.144" x2="1025.163" y2="933.713"/>
	<line fill="none" stroke="#FFFFFF" stroke-miterlimit="10" x1="1093.163" y1="908.144" x2="1093.163" y2="933.713"/>
	<line fill="none" stroke="#FFFFFF" stroke-miterlimit="10" x1="1168.038" y1="908.144" x2="1168.038" y2="933.713"/>
	<line fill="none" stroke="#FFFFFF" stroke-miterlimit="10" x1="1292.163" y1="908.144" x2="1292.163" y2="933.713"/>
	<line fill="none" stroke="#FFFFFF" stroke-miterlimit="10" x1="1364.163" y1="908.144" x2="1364.163" y2="933.713"/>
	<line fill="none" stroke="#8E9398" stroke-miterlimit="10" x1="934.33" y1="960.727" x2="934.33" y2="1048.898"/>
	<line fill="none" stroke="#8E9398" stroke-miterlimit="10" x1="1131.996" y1="962.727" x2="1131.996" y2="1050.898"/>
	<line fill="none" stroke="#8E9398" stroke-miterlimit="10" x1="1329.662" y1="964.727" x2="1329.662" y2="1052.898"/>
	<line fill="none" stroke="#8E9398" stroke-miterlimit="10" x1="1357.663" y1="1107.962" x2="1357.663" y2="1164.898"/>
	<line fill="none" stroke="#8E9398" stroke-miterlimit="10" x1="761.163" y1="1107.962" x2="761.163" y2="1164.898"/>
	<rect x="583.652" y="1087.462" fill="none" stroke="#8E9398" stroke-miterlimit="10" width="935.511" height="90"/>
	<rect x="302.663" y="-595.717" fill="#B92025" width="1500" height="35.225"/>
	<rect x="548.489" y="1.719" fill="#CCCCCC" width="692.982" height="70.558"/>
	<line fill="none" stroke="#FFFFFF" stroke-miterlimit="10" x1="592.778" y1="-590.035" x2="592.778" y2="-564.467"/>
	<line fill="none" stroke="#FFFFFF" stroke-miterlimit="10" x1="533.11" y1="-590.035" x2="533.11" y2="-564.467"/>
	<line fill="none" stroke="#FFFFFF" stroke-miterlimit="10" x1="660.36" y1="-590.035" x2="660.36" y2="-564.467"/>
	<line fill="none" stroke="#FFFFFF" stroke-miterlimit="10" x1="724.735" y1="-590.035" x2="724.735" y2="-564.467"/>
	<line fill="none" stroke="#FFFFFF" stroke-miterlimit="10" x1="797.61" y1="-590.035" x2="797.61" y2="-564.467"/>
	<line fill="none" stroke="#FFFFFF" stroke-miterlimit="10" x1="893.61" y1="-590.035" x2="893.61" y2="-564.467"/>
	<line fill="none" stroke="#FFFFFF" stroke-miterlimit="10" x1="967.61" y1="-590.035" x2="967.61" y2="-564.467"/>
	<line fill="none" stroke="#FFFFFF" stroke-miterlimit="10" x1="1050.485" y1="-590.035" x2="1050.485" y2="-564.467"/>
	<line fill="none" stroke="#FFFFFF" stroke-miterlimit="10" x1="1182.61" y1="-590.035" x2="1182.61" y2="-564.467"/>
	<line fill="none" stroke="#FFFFFF" stroke-miterlimit="10" x1="1254.61" y1="-590.035" x2="1254.61" y2="-564.467"/>
	<rect x="1263.888" y="-31.257" fill="#BB2026" width="300" height="151.935"/>
	<line fill="none" stroke="#8E9398" stroke-miterlimit="10" x1="549.25" y1="-459.694" x2="1242" y2="-459.694"/>
</g>
<g id="Publicidad">
</g>
<g id="Logo">
	<g>
		<defs>
			<path id="SVGID_1_" d="M856.843-138.115c-68.119,25.587-184.533,28.397-260.017,6.278
				c-75.484-22.121-81.454-60.793-13.335-86.382c68.12-25.585,184.533-28.396,260.018-6.276
				C918.993-202.376,924.962-163.702,856.843-138.115z"/>
		</defs>
		<clipPath id="SVGID_2_">
			<use xlink:href="#SVGID_1_"  overflow="visible"/>
		</clipPath>
		<polygon opacity="0.3" clip-path="url(#SVGID_2_)" fill="#CCCCCC" stroke="#FFFFFF" stroke-miterlimit="10" points="
			737.973,-156.121 536.022,-173.974 685.744,-209.815 887.695,-191.962 		"/>
		<polygon opacity="0.3" clip-path="url(#SVGID_2_)" fill="#CCCCCC" stroke="#FFFFFF" stroke-miterlimit="10" points="
			519.854,-175.42 317.9,-193.272 467.623,-229.114 669.572,-211.261 		"/>
		<polygon opacity="0.3" clip-path="url(#SVGID_2_)" fill="#CCCCCC" stroke="#FFFFFF" stroke-miterlimit="10" points="
			953.067,-136.52 751.115,-154.372 900.84,-190.213 1102.786,-172.361 		"/>
		<polygon opacity="0.3" clip-path="url(#SVGID_2_)" fill="#CCCCCC" stroke="#FFFFFF" stroke-miterlimit="10" points="
			902.178,-194.865 700.228,-212.717 849.95,-248.558 1051.898,-230.706 		"/>
		<polygon opacity="0.3" clip-path="url(#SVGID_2_)" fill="#CCCCCC" stroke="#FFFFFF" stroke-miterlimit="10" points="
			684.056,-214.164 482.104,-232.016 631.827,-267.857 833.773,-250.005 		"/>
		<polygon opacity="0.3" clip-path="url(#SVGID_2_)" fill="#CCCCCC" stroke="#FFFFFF" stroke-miterlimit="10" points="
			1117.272,-175.263 915.319,-193.116 1065.043,-228.958 1266.991,-211.104 		"/>
		<polygon opacity="0.3" clip-path="url(#SVGID_2_)" fill="#CCCCCC" stroke="#FFFFFF" stroke-miterlimit="10" points="
			580.439,-117.646 378.487,-135.499 528.211,-171.34 730.16,-153.487 		"/>
		<polygon opacity="0.3" clip-path="url(#SVGID_2_)" fill="#CCCCCC" stroke="#FFFFFF" stroke-miterlimit="10" points="
			362.316,-136.945 160.364,-154.797 310.088,-190.639 512.037,-172.786 		"/>
		<polygon opacity="0.3" clip-path="url(#SVGID_2_)" fill="#CCCCCC" stroke="#FFFFFF" stroke-miterlimit="10" points="
			795.532,-98.044 593.58,-115.897 743.305,-151.738 945.253,-133.885 		"/>
	</g>
	
		<radialGradient id="SVGID_3_" cx="184.4365" cy="-200.3145" r="82.2352" gradientTransform="matrix(1.662 0.487 -4.1712 1.5668 -421.9255 45.8696)" gradientUnits="userSpaceOnUse">
		<stop  offset="0" style="stop-color:#FFFFFF;stop-opacity:0"/>
		<stop  offset="0.8796" style="stop-color:#FFFFFF"/>
	</radialGradient>
	<path fill="url(#SVGID_3_)" d="M856.843-138.115c-68.119,25.587-184.533,28.397-260.017,6.278
		c-75.484-22.121-81.454-60.793-13.335-86.382c68.12-25.585,184.533-28.396,260.018-6.276
		C918.993-202.376,924.962-163.702,856.843-138.115z"/>
	<g>
		<image overflow="visible" width="239" height="184" xlink:href="FB7F689C.png"  transform="matrix(1 0 0 1 558.5 -324)">
		</image>
	</g>
	<path fill="#B92025" d="M790.374-271.549c6.274-8.914,9.97-19.771,9.97-31.499c0-30.27-24.539-54.808-54.808-54.808
		c-30.271,0-54.808,24.538-54.808,54.808c0,11.482,3.537,22.135,9.572,30.941l44.783,97.189L790.374-271.549z"/>
	<polygon fill="#7DA4AD" points="1365.562,140.658 1563.109,140.658 1563.109,249.091 1291.531,249.091 1301.135,231.34 
		1327.279,212.84 1376.446,189.175 	"/>
	<g>
		<path fill="#FFFFFF" d="M642.509,913.052c-0.074-0.094,0.034-0.298,0.242-0.497c0.314-0.302,2.474-2.474,3.336-3.336
			c0.217-0.217,0.949-0.656,1.668,0.34c0.872,1.21,0.087,1.805,0,1.839c-1.149,0.453-4.764,1.638-4.764,1.638
			S642.607,913.172,642.509,913.052z"/>
		<rect x="547.951" y="908.629" fill="#FFFFFF" width="4.98" height="16.667"/>
		<path fill="#FFFFFF" d="M565.715,917.67c-0.104-2.111-1.397-4.398-6.177-4.457c-3.551-0.046-4.64,1.735-4.974,2.773
			c-0.077,0.178-0.119,0.373-0.137,0.575c-0.013,0.096-0.015,0.152-0.015,0.152c0,1,0.796,1.813,1.779,1.813
			c0.982,0,1.778-0.813,1.778-1.813c0-0.429-0.15-0.815-0.394-1.126h0.001c0,0-0.665-0.874,1.522-0.688
			c1.759,0.15,1.981,2.036,2.002,2.771h-0.002v2.229c-0.787-0.652-1.894-1.063-3.13-1.063c-2.383,0-4.316,1.512-4.316,3.376
			c0,1.863,1.934,3.374,4.316,3.374c1.236,0,2.343-0.41,3.13-1.061v0.77h4.625v-7.626H565.715z M557.971,924.587
			c-1.313,0-2.379-0.993-2.379-2.219s1.065-2.218,2.379-2.218c1.314,0,2.38,0.992,2.38,2.218S559.285,924.587,557.971,924.587z"/>
		<path fill="#FFFFFF" d="M580.414,913.837c-3.844,0-6.959,2.743-6.959,6.125c0,3.383,3.115,6.125,6.959,6.125
			c3.842,0,6.957-2.741,6.957-6.125C587.371,916.58,584.256,913.837,580.414,913.837z M580.414,924.754
			c-1.75,0-3.168-2.144-3.168-4.792c0-2.647,1.418-4.792,3.168-4.792c1.748,0,3.166,2.146,3.166,4.792
			C583.58,922.61,582.162,924.754,580.414,924.754z"/>
		<path fill="#FFFFFF" d="M644.935,913.837c-3.843,0-6.958,2.743-6.958,6.125c0,3.383,3.115,6.125,6.958,6.125
			s6.958-2.741,6.958-6.125C651.893,916.58,648.777,913.837,644.935,913.837z M644.935,924.754c-1.749,0-3.167-2.144-3.167-4.792
			c0-2.647,1.418-4.792,3.167-4.792s3.167,2.146,3.167,4.792C648.102,922.61,646.684,924.754,644.935,924.754z"/>
		<path fill="#FFFFFF" d="M598.351,914.003c-1.612,0-3.093,0.484-4.271,1.288v-1.954h-5.75v22.125h5.75v-10.662
			c1.178,0.803,2.658,1.286,4.271,1.286c3.831,0,6.938-2.705,6.938-6.042C605.288,916.708,602.182,914.003,598.351,914.003z
			 M596.205,924.587c-0.801,0-1.531-0.338-2.125-0.887v-6.894c0.594-0.549,1.324-0.886,2.125-0.886c1.955,0,3.541,1.939,3.541,4.332
			C599.746,922.648,598.16,924.587,596.205,924.587z"/>
		<rect x="605.996" y="913.463" fill="#FFFFFF" width="5.375" height="11.708"/>
		<path fill="#FFFFFF" d="M611.435,909.837c0.499,1.201-0.688,2.111-2.275,2.69c-1.793,0.654-3.206,0.191-3.434-0.549
			c-0.208-0.677,0.516-1.797,2.172-2.532C609.441,908.762,611.007,908.807,611.435,909.837z"/>
		<rect x="631.496" y="913.463" fill="#FFFFFF" width="5.375" height="11.708"/>
		<path fill="#FFFFFF" d="M636.935,909.837c0.499,1.201-0.688,2.111-2.275,2.69c-1.793,0.654-3.206,0.191-3.434-0.549
			c-0.208-0.677,0.516-1.797,2.172-2.532C634.941,908.762,636.507,908.807,636.935,909.837z"/>
		<path fill="#FFFFFF" d="M628.99,916.687c-0.173-2.178-2.359-2.31-4.994-2.35c-2.203-0.033-4.703,1.117-5.707,1.632v-2.506h-5.375
			v11.708h5.375v-7.209c0.58-0.579,1.666-1.474,2.999-1.624c2.042-0.227,2.307,1.643,2.334,2.357v6.476h5.375v-8.483H628.99z"/>
		<path fill="#FFFFFF" d="M669.303,916.687c-0.173-2.178-2.359-2.31-4.994-2.35c-2.203-0.033-4.703,1.117-5.707,1.632v-2.506h-5.375
			v11.708h5.375v-7.209c0.58-0.579,1.666-1.474,2.999-1.624c2.042-0.227,2.307,1.643,2.334,2.357v6.476h5.375v-8.483H669.303z"/>
	</g>
	<g>
		<g>
			<path fill="#333333" d="M1455.328,1154.75h-9.518c-3.642,0-6.622-2.979-6.622-6.62v-10.143c0-3.642,2.98-6.62,6.622-6.62h9.518
				c3.643,0,6.622,2.979,6.622,6.62v10.143C1461.95,1151.771,1458.971,1154.75,1455.328,1154.75 M1455.328,1153.002
				c1.294,0,2.516-0.509,3.44-1.433c0.923-0.923,1.432-2.145,1.432-3.439v-10.143c0-1.293-0.509-2.516-1.432-3.439
				c-0.925-0.924-2.146-1.432-3.44-1.432h-9.518c-1.295,0-2.517,0.508-3.44,1.432c-0.923,0.923-1.432,2.146-1.432,3.439v10.143
				c0,1.294,0.509,2.516,1.432,3.439c0.924,0.924,2.146,1.433,3.44,1.433H1455.328z"/>
			<path fill="#333333" d="M1456.872,1142.97c0,3.46-2.806,6.267-6.268,6.267s-6.268-2.807-6.268-6.267
				c0-3.461,2.806-6.27,6.268-6.27S1456.872,1139.509,1456.872,1142.97 M1450.575,1138.868c-2.268,0-4.105,1.838-4.105,4.106
				c0,2.266,1.838,4.104,4.105,4.104c2.267,0,4.104-1.838,4.104-4.104C1454.679,1140.707,1452.842,1138.868,1450.575,1138.868"/>
			<path fill="#333333" d="M1458.457,1136.604c0,0.819-0.665,1.485-1.484,1.485s-1.483-0.666-1.483-1.485
				c0-0.819,0.664-1.484,1.483-1.484S1458.457,1135.784,1458.457,1136.604"/>
		</g>
	</g>
	<path fill="#333333" d="M1393.843,1131.599h-15.132c-2.389,0-4.333,1.943-4.333,4.331v15.134c0,2.389,1.944,4.332,4.333,4.332
		h6.941v-9.842h-2.034v-3.393h2.034v-2.037c0-2.766,1.149-4.412,4.413-4.412h2.717v3.392h-1.697c-1.271,0-1.356,0.475-1.356,1.357
		l-0.005,1.699h3.077l-0.359,3.393h-2.718v9.842h4.119c2.389,0,4.334-1.943,4.334-4.332v-15.134
		C1398.177,1133.542,1396.231,1131.599,1393.843,1131.599z"/>
	<path fill="#333333" d="M1426.593,1131.099h-15.132c-2.389,0-4.333,1.943-4.333,4.331v15.134c0,2.389,1.944,4.332,4.333,4.332
		h15.132c2.389,0,4.334-1.943,4.334-4.332v-15.134C1430.927,1133.042,1428.981,1131.099,1426.593,1131.099z M1425.382,1139.737
		c0.006,0.141,0.009,0.283,0.009,0.426c0,4.332-3.296,9.329-9.327,9.329c-1.853,0-3.576-0.544-5.026-1.474
		c0.257,0.03,0.518,0.044,0.782,0.044c1.536,0,2.95-0.523,4.072-1.401c-1.436-0.027-2.646-0.975-3.063-2.276
		c0.2,0.036,0.405,0.058,0.617,0.058c0.299,0,0.588-0.039,0.863-0.115c-1.499-0.3-2.631-1.625-2.631-3.216
		c0-0.013,0-0.027,0.001-0.04c0.441,0.247,0.946,0.393,1.484,0.411c-0.88-0.588-1.458-1.591-1.458-2.729
		c0-0.601,0.162-1.164,0.444-1.648c1.615,1.982,4.032,3.29,6.757,3.425c-0.056-0.239-0.085-0.49-0.085-0.747
		c0-1.811,1.468-3.28,3.278-3.28c0.943,0,1.796,0.4,2.394,1.038c0.747-0.147,1.448-0.42,2.083-0.797
		c-0.246,0.768-0.766,1.409-1.443,1.814c0.664-0.077,1.295-0.255,1.884-0.516
		C1426.577,1138.699,1426.021,1139.276,1425.382,1139.737z"/>
	<path fill="#333333" d="M1491.076,1131.129h-15.132c-2.389,0-4.333,1.946-4.333,4.332v15.134c0,2.389,1.944,4.332,4.333,4.332
		h15.132c2.389,0,4.334-1.943,4.334-4.332v-15.134C1495.41,1133.075,1493.465,1131.129,1491.076,1131.129z M1480.54,1148.969
		v-11.882l8.94,5.94L1480.54,1148.969z"/>
	<g>
		<path fill="#8E9398" d="M624.413,1124.13c-9.597,0-17.375,7.014-17.375,15.668c0,8.65,7.778,15.665,17.375,15.665
			s17.375-7.015,17.375-15.665C641.788,1131.145,634.01,1124.13,624.413,1124.13z M624.351,1152.506
			c-5.005,0-9.063-5.691-9.063-12.708c0-7.021,4.058-12.711,9.063-12.711s9.063,5.69,9.063,12.711
			C633.413,1146.815,629.355,1152.506,624.351,1152.506z"/>
		<path fill="#8E9398" d="M618.904,1121.094c-0.183-0.227,0.085-0.727,0.592-1.215c0.771-0.738,6.057-6.056,8.167-8.166
			c0.531-0.532,2.324-1.61,4.083,0.832c2.136,2.965,0.214,4.416,0,4.5c-2.813,1.107-11.661,4.011-11.661,4.011
			S619.144,1121.391,618.904,1121.094z"/>
		<path fill="#8E9398" d="M747.996,1127.963H641.214c3.893,3.178,6.282,7.456,6.282,12.166c0,4.793-2.476,9.14-6.492,12.334h106.992
			V1127.963z"/>
		<g>
			<path fill="#FFFFFF" d="M655.105,1147.963h-2.706v-2.603h2.706V1147.963z"/>
			<path fill="#FFFFFF" d="M670.791,1143.304c-0.308,1.718-1.012,2.979-2.111,3.778c-1.102,0.8-2.346,1.199-3.736,1.199
				c-2.034,0-3.605-0.642-4.715-1.922c-1.108-1.283-1.663-2.982-1.663-5.098c0-1.752,0.319-3.155,0.958-4.208
				c0.637-1.055,1.436-1.794,2.396-2.221c0.96-0.428,1.968-0.643,3.024-0.643c1.443,0,2.678,0.36,3.703,1.08
				c1.025,0.719,1.656,1.776,1.895,3.174l-2.297,0.342c-0.238-0.905-0.623-1.585-1.156-2.044c-0.532-0.456-1.213-0.685-2.039-0.685
				c-1.33,0-2.338,0.454-3.023,1.358c-0.688,0.906-1.03,2.171-1.03,3.795c0,1.66,0.337,2.942,1.01,3.841
				c0.673,0.901,1.644,1.353,2.911,1.353c1.021,0,1.824-0.282,2.41-0.845c0.585-0.563,0.952-1.406,1.102-2.531L670.791,1143.304z"/>
			<path fill="#FFFFFF" d="M678.542,1134.188c1.892,0,3.461,0.594,4.707,1.777c1.245,1.186,1.868,2.869,1.868,5.053
				c0,2.65-0.674,4.522-2.02,5.619c-1.348,1.097-2.865,1.643-4.556,1.643c-1.77,0-3.306-0.563-4.608-1.688
				c-1.303-1.127-1.953-2.912-1.953-5.357c0-2.371,0.629-4.137,1.888-5.301S676.685,1134.188,678.542,1134.188z M678.542,1146.402
				c1.355,0,2.386-0.483,3.089-1.448c0.705-0.963,1.057-2.234,1.057-3.808c0-1.686-0.398-2.955-1.195-3.81
				c-0.796-0.854-1.779-1.282-2.95-1.282c-1.206,0-2.196,0.434-2.971,1.3c-0.774,0.87-1.162,2.162-1.162,3.88
				c0,1.709,0.394,2.999,1.182,3.866S677.362,1146.402,678.542,1146.402z"/>
			<path fill="#FFFFFF" d="M706.862,1147.963h-2.376v-8.506c0-0.625-0.045-1.162-0.133-1.605c-0.088-0.445-0.314-0.837-0.68-1.182
				c-0.365-0.342-0.936-0.514-1.71-0.514c-0.933,0-1.738,0.313-2.416,0.939s-1.017,1.642-1.017,3.047v7.82h-2.377v-8.76
				c0-1.168-0.213-1.968-0.641-2.399c-0.426-0.432-1.031-0.647-1.814-0.647c-1.021,0-1.859,0.339-2.516,1.016
				c-0.656,0.677-0.983,1.942-0.983,3.796v6.994h-2.377v-13.47h2.14v1.879h0.053c0.95-1.456,2.346-2.184,4.186-2.184
				c1.029,0,1.877,0.197,2.541,0.591c0.664,0.393,1.146,0.984,1.445,1.771c1.039-1.572,2.479-2.361,4.318-2.361
				c1.451,0,2.541,0.377,3.268,1.131c0.726,0.752,1.089,1.883,1.089,3.389V1147.963z"/>
			<path fill="#FFFFFF" d="M713.701,1147.963h-2.707v-2.603h2.707V1147.963z"/>
			<path fill="#FFFFFF" d="M729.387,1143.304c-0.309,1.718-1.012,2.979-2.112,3.778c-1.101,0.8-2.346,1.199-3.736,1.199
				c-2.034,0-3.604-0.642-4.714-1.922c-1.109-1.283-1.664-2.982-1.664-5.098c0-1.752,0.319-3.155,0.958-4.208
				c0.638-1.055,1.437-1.794,2.396-2.221c0.96-0.428,1.968-0.643,3.024-0.643c1.443,0,2.678,0.36,3.703,1.08
				c1.025,0.719,1.657,1.776,1.895,3.174l-2.297,0.342c-0.237-0.905-0.623-1.585-1.155-2.044c-0.533-0.456-1.213-0.685-2.04-0.685
				c-1.329,0-2.337,0.454-3.023,1.358c-0.687,0.906-1.03,2.171-1.03,3.795c0,1.66,0.337,2.942,1.01,3.841
				c0.674,0.901,1.645,1.353,2.912,1.353c1.021,0,1.824-0.282,2.409-0.845s0.952-1.406,1.103-2.531L729.387,1143.304z"/>
			<path fill="#FFFFFF" d="M737.137,1134.188c1.893,0,3.461,0.594,4.707,1.777c1.246,1.186,1.869,2.869,1.869,5.053
				c0,2.65-0.674,4.522-2.021,5.619c-1.347,1.097-2.865,1.643-4.556,1.643c-1.77,0-3.305-0.563-4.607-1.688
				c-1.303-1.127-1.954-2.912-1.954-5.357c0-2.371,0.63-4.137,1.888-5.301C733.722,1134.771,735.279,1134.188,737.137,1134.188z
				 M737.137,1146.402c1.355,0,2.386-0.483,3.09-1.448c0.704-0.963,1.057-2.234,1.057-3.808c0-1.686-0.398-2.955-1.195-3.81
				c-0.797-0.854-1.78-1.282-2.951-1.282c-1.205,0-2.195,0.434-2.971,1.3c-0.774,0.87-1.162,2.162-1.162,3.88
				c0,1.709,0.395,2.999,1.182,3.866C734.974,1145.969,735.957,1146.402,737.137,1146.402z"/>
		</g>
	</g>
	<g>
		<circle fill="#B92025" cx="1293.203" cy="185.894" r="5.431"/>
		<g>
			<path fill="#666768" d="M1280.055,225.812c2.623,12.349,1.677,11.253,8.06,20.565c6.381,9.312,17.092,5.746,17.092,5.746
				s10.063-25.674,11.634-28.795c1.571-3.121,5.169-4.908,5.169-4.908l39.811-19.581c0,0,3.832-1.711,5.863-1.939
				c2.032-0.229,31.537,8.517,31.537,8.517c11.82-9.577,5.053-20.845,1.4-28.196L1280.055,225.812z"/>
			<path fill="#B92025" d="M1399.838,175.118c-3.652-7.353-34.12-36.486-37.397-38.372c-3.274-1.884-16.093,0.583-21.4,1.678
				c-5.309,1.093-5.646,5.518-5.646,5.518l-4.805,15.454l-21.431,10.648c0,0-14.358-6.129-17.715-6.607
				c-3.357-0.479-16.521,13.856-16.521,13.856l-1.492,4.063c-0.785,1.562,1.651,26.098,4.278,38.446
				c2.623,12.348,3.24,15.162,9.623,24.473c6.381,9.313,17.092,5.747,17.092,5.747s10.063-25.675,11.634-28.796
				c1.571-3.12,5.17-4.906,5.17-4.906l39.81-19.582c0,0,3.833-1.711,5.864-1.939c2.032-0.228,31.536,8.518,31.536,8.518
				C1410.258,193.736,1403.49,182.469,1399.838,175.118z M1296.524,192.507c-3.628,1.803-8.031,0.322-9.833-3.306
				c-1.804-3.629-0.322-8.031,3.306-9.834c3.629-1.802,8.031-0.322,9.834,3.308C1301.634,186.302,1300.153,190.704,1296.524,192.507
				z M1327.946,195.296c0.345,0.692,0.063,1.529-0.63,1.873l-4.47,2.222l2.222,4.469c0.343,0.692,0.062,1.53-0.63,1.874
				l-3.576,1.777c-0.691,0.342-1.529,0.06-1.873-0.631l-2.221-4.469l-4.469,2.222c-0.691,0.342-1.53,0.06-1.874-0.631l-1.775-3.574
				c-0.345-0.691-0.063-1.532,0.63-1.875l4.469-2.222l-2.221-4.469c-0.343-0.69-0.062-1.53,0.63-1.872l3.575-1.778
				c0.691-0.342,1.53-0.06,1.874,0.631l2.22,4.469l4.47-2.221c0.69-0.344,1.53-0.06,1.874,0.63L1327.946,195.296z M1351.711,188.431
				c-3.628,1.801-8.03,0.32-9.833-3.306c-1.803-3.628-0.323-8.032,3.306-9.836c3.629-1.801,8.032-0.321,9.834,3.307
				C1356.82,182.226,1355.339,186.627,1351.711,188.431z M1348.403,163.711c-2.132,1.059-4.72,0.191-5.775-1.941
				c-1.061-2.13-0.191-4.719,1.94-5.776c2.132-1.058,4.717-0.189,5.776,1.942C1351.402,160.066,1350.534,162.654,1348.403,163.711z
				 M1360.097,167.883c-2.132,1.058-4.719,0.188-5.775-1.942c-1.06-2.13-0.189-4.718,1.941-5.776
				c2.13-1.058,4.716-0.188,5.776,1.944C1363.097,164.237,1362.228,166.824,1360.097,167.883z M1352.356,151.946
				c-2.131,1.058-4.716,0.189-5.773-1.942c-1.06-2.131-0.19-4.718,1.94-5.776c2.132-1.06,4.718-0.189,5.776,1.942
				C1355.359,148.3,1354.489,150.886,1352.356,151.946z M1364.124,155.901c-2.13,1.059-4.716,0.19-5.775-1.942
				c-1.059-2.131-0.189-4.717,1.941-5.776c2.131-1.06,4.718-0.189,5.775,1.942C1367.125,152.256,1366.257,154.843,1364.124,155.901z
				"/>
			<path fill="#8E131C" d="M1368.652,187.83l-64.049,29.973c-5.144,7.297-1.333,32.505-1.333,32.512c0,0,0.001,0,0.001-0.002
				l1.287-0.633c1.185-3.02,10.034-25.543,11.499-28.455c1.571-3.12,5.17-4.906,5.17-4.906l39.81-19.582
				c0,0,3.833-1.711,5.864-1.939c2.032-0.228,31.536,8.518,31.536,8.518C1392.516,180.227,1368.652,187.83,1368.652,187.83z"/>
		</g>
	</g>
	<g>
		<path fill="#FFFFFF" d="M1323.847,168.379c-2.635,1.332-3.796,4.336-2.596,6.712c1.201,2.375,4.309,3.22,6.942,1.889
			c2.634-1.333,3.797-4.337,2.596-6.712S1326.48,167.048,1323.847,168.379z M1327.767,176.177c-1.374,0.695-3.278-0.304-4.251-2.232
			c-0.974-1.926-0.649-4.051,0.724-4.745c1.374-0.694,3.276,0.304,4.251,2.232C1329.465,173.358,1329.14,175.483,1327.767,176.177z"
			/>
		<path fill="#FFFFFF" d="M1321.913,168.311c-0.082-0.038-0.077-0.211-0.007-0.416c0.109-0.31,0.822-2.502,1.109-3.375
			c0.072-0.219,0.414-0.765,1.236-0.339c0.997,0.518,0.671,1.184,0.624,1.236c-0.619,0.695-2.645,2.719-2.645,2.719
			S1322.02,168.358,1321.913,168.311z"/>
	</g>
	<g>
		<g>
			<circle fill="#FFFFFF" cx="1306.947" cy="81.247" r="31.417"/>
			<g>
				<polygon fill="#BB2026" points="1309.462,60.65 1314.93,102.567 1306.839,108.253 1306.839,60.669 				"/>
				<path fill="#BB2026" d="M1306.874,54.239v5.722h2.662c0,0,1.056-2.258,3.023-2.441v-3.272L1306.874,54.239z"/>
				<polygon fill="#660000" points="1304.433,60.65 1298.966,102.567 1307.058,108.253 1307.058,60.669 				"/>
				<path fill="#660000" d="M1307.021,54.239v5.722h-2.66c0,0-1.058-2.258-3.026-2.441v-3.272L1307.021,54.239z"/>
			</g>
		</g>
		<g>
			<circle fill="#FFFFFF" cx="1520.828" cy="81.247" r="31.417"/>
			<g>
				<circle fill="#660000" cx="1511.292" cy="94.996" r="3.28"/>
				<circle fill="#660000" cx="1528.896" cy="94.996" r="3.28"/>
				<path fill="#BB2026" d="M1538.062,71.098c-0.125-0.168-0.319-0.266-0.528-0.266h-27.88c0.016-0.071,0.045-0.138,0.045-0.214
					c0-0.604-0.49-1.094-1.094-1.094h-11.262c-0.604,0-1.093,0.49-1.093,1.094c0,0.604,0.488,1.094,1.093,1.094h9.834l4.541,14.273
					l-1.076,8.932c-0.022,0.187,0.035,0.374,0.16,0.514s0.303,0.221,0.49,0.221h17.604c0.362,0,0.656-0.293,0.656-0.656
					c0-0.363-0.294-0.655-0.656-0.655h-16.863l0.935-7.764h20.193c0.288,0,0.545-0.189,0.629-0.466l4.373-14.433
					C1538.222,71.479,1538.185,71.264,1538.062,71.098z M1529.914,81.875h-3.176l0.682-4.702h3.562L1529.914,81.875z
					 M1531.879,77.173h3.246l-1.425,4.702h-2.889L1531.879,77.173z M1522.882,77.173h3.654l-0.684,4.702h-2.971V77.173z
					 M1522.008,81.875h-3.182l-0.144-4.702h3.325V81.875z M1522.882,76.299v-4.156h4.384l-0.603,4.156H1522.882z M1522.008,76.299
					h-3.353l-0.126-4.156h3.479V76.299z M1517.78,76.299h-3.671l-0.438-4.156h3.982L1517.78,76.299z M1517.808,77.173l0.145,4.702
					h-3.257l-0.493-4.702H1517.808z M1513.817,81.875h-2.029l-1.497-4.702h3.03L1513.817,81.875z M1512.866,85.265l-0.8-2.517h1.842
					l0.265,2.517H1512.866z M1514.788,82.749h3.189l0.076,2.517h-3.001L1514.788,82.749z M1518.854,82.749h3.154v2.517h-3.077
					L1518.854,82.749z M1522.882,82.749h2.845l-0.364,2.517h-2.48V82.749z M1526.611,82.749h3.104l-0.572,2.517h-2.897
					L1526.611,82.749z M1527.548,76.299l0.602-4.156h3.976l-0.943,4.156H1527.548z M1512.792,72.144l0.438,4.156h-3.217
					l-1.322-4.156H1512.792z M1532.673,85.265h-2.633l0.571-2.517h2.823L1532.673,85.265z M1535.392,76.299h-3.313l0.942-4.156
					h3.629L1535.392,76.299z"/>
				<g>
					<circle fill="#660000" cx="1537.752" cy="71.871" r="7.654"/>
					<path fill="#FFFFFF" d="M1542.782,70.778h-3.937v-3.937c0-0.604-0.489-1.093-1.094-1.093c-0.603,0-1.093,0.489-1.093,1.093
						v3.937h-3.937c-0.603,0-1.094,0.489-1.094,1.093s0.491,1.094,1.094,1.094h3.937v3.935c0,0.605,0.49,1.094,1.093,1.094
						c0.604,0,1.094-0.489,1.094-1.094v-3.935h3.937c0.604,0,1.093-0.49,1.093-1.094S1543.387,70.778,1542.782,70.778z"/>
				</g>
			</g>
		</g>
		<g>
			<circle fill="#FFFFFF" cx="1451.668" cy="81.247" r="31.417"/>
			<g>
				<g>
					<path fill="#BB2026" d="M1467.999,60.167h-17.965v7.683h3.509v10.305l13.47,10.261h-3.484l0.1,8.165h4.371V60.167z
						 M1458.32,74.684h-3.75v-3.75h3.75V74.684z M1464.49,66.519h-3.75v-3.75h3.75V66.519z"/>
					<g>
						<g>
							<path fill="#660000" d="M1450.034,77.568l1.32-1.081l1.221,0.928v-8.598h-2.541h-14.697v30.301h4.597V88.837h-3.651
								L1450.034,77.568z M1442.122,71.126h3.75v3.75h-3.75V71.126z M1437.041,71.126h3.75v3.75h-3.75V71.126z"/>
						</g>
					</g>
					<path fill="#BB2026" d="M1453.905,79.646v-0.003l-2.529-1.923l-1.342,1.099l-11.045,9.05h1.912v12.218v0.363v1.875h21.828
						l-0.07-5.746l-0.11-9.133h1.597L1453.905,79.646z M1453.251,85.522h-3.75v-3.75h3.75V85.522z"/>
				</g>
			</g>
		</g>
		<g>
			<circle fill="#FFFFFF" cx="1380.668" cy="81.247" r="31.417"/>
			<g>
				<path fill="#BB2026" d="M1363.378,74.947c0,0,2.877-7.694,5.664-8.906c0,0,1.605-0.696,11.51-0.696
					c9.905,0,11.813,0.665,11.813,0.665s2.028,0.545,5.633,8.753l0.516,0.031c0,0-0.121-1.97,0.303-2.182
					c0.423-0.212,2.998,0.242,3.21,0.697c0.213,0.455,0.485,1.696-0.483,1.848c-0.969,0.15-3.394,0.089-3.394,0.089
					s0.031,0.305,1.454,1.243c0,0,0.606,0.575,0.971,1.272c0,0,1.09,0.817,1.542,2.786c0.455,1.969,0.396,3.06,0.426,8.845
					c0,0,0.241,7.724-0.971,7.724c-1.211,0-4.694,0.03-4.694,0.03s-1.119-0.121-1.09-2.332l-3.513,0.03c0,0-1.758,0.455-3.212,0.455
					s-16.476,0-16.476,0s-2.213-0.333-2.998-0.697h-3.818c0,0,0.063,2.514-1.03,2.514c-1.089,0-4.239,0-4.239,0
					s-1.667,0.547-1.605-7.936c0,0-0.576-6.543,0.787-10.146c0,0,0.971-1.454,1.576-1.999c0,0,0.787-0.91,1.544-1.302l0.454-0.455
					l-2.848-0.09c0,0-2.211,0.059-0.606-2.513c0,0,2.483-0.516,2.848-0.243s0.364,2.149,0.152,2.332L1363.378,74.947z"/>
				<path fill="#FFFFFF" d="M1364.53,73.695c0,0,2.463-6.422,4.643-7.512c0,0,15.185-1.414,23.423,0.242c0,0,2.384,2.181,4.16,7.23
					C1396.756,73.655,1372.404,73.412,1364.53,73.695z"/>
				<path fill="#660000" d="M1360.742,78.156c0,0,5.452,0.515,6.998,1.577c1.544,1.059,2.482,2.089,2.482,2.089
					s1.272-0.97,10.39-0.97s10.721,1.091,10.721,1.091s2.031-1.938,2.546-2.209c0.515-0.274,4.423-1.395,6.876-1.395
					c0,0,0.938,2.514,0.271,2.939c-0.666,0.423-5.18,0.817-5.665,0.666c-0.481-0.152-1.604-0.726-2.36-1.211l-1.637,1.424h-8.541
					l-2.12,1.756l-1.681-1.681l-8.8-0.197l-1.604-1.393l-2.453,1.21c0,0-5.664-0.242-5.875-0.788
					C1360.077,80.519,1360.228,79.278,1360.742,78.156z"/>
				<path fill="#660000" d="M1363.378,88.152l-0.092-1.303l-3.059-0.637c0,0-0.09,3.514,0.758,4.119
					c0.849,0.607,2.697,0.546,2.697,0.546l-0.121-1.303c0,0-2.182-0.061-2.455-0.515c-0.273-0.455-0.334-1.181-0.15-1.394
					C1360.956,87.667,1361.894,87.788,1363.378,88.152z"/>
				<path fill="#FFFFFF" d="M1362.47,88.243v0.97c0,0-1.273,0.119-1.302-0.849C1361.168,88.364,1361.046,87.788,1362.47,88.243z"/>
				<path fill="#660000" d="M1398.026,88.152l0.09-1.303l3.059-0.637c0,0,0.093,3.514-0.756,4.119
					c-0.85,0.607-2.696,0.546-2.696,0.546l0.121-1.303c0,0,2.181-0.061,2.454-0.515c0.271-0.455,0.332-1.181,0.151-1.394
					C1400.449,87.667,1399.51,87.788,1398.026,88.152z"/>
				<path fill="#FFFFFF" d="M1398.936,88.243v0.97c0,0,1.271,0.119,1.302-0.849C1400.237,88.364,1400.357,87.788,1398.936,88.243z"
					/>
				<polygon fill="#660000" points="1367.255,92.665 1369.405,90.636 1391.939,90.636 1394.075,92.771 				"/>
				<path fill="#FFFFFF" d="M1393.323,80.49c0,0,0.364-0.516,0.818-0.698c0.455-0.182,5.33-1.362,6.482-1.15
					c0,0,0.878,2.21-0.668,2.394c-1.545,0.182-4.755,0.394-4.755,0.394L1393.323,80.49z"/>
				<path fill="#FFFFFF" d="M1368.201,80.398c0,0-0.364-0.515-0.818-0.697c-0.454-0.182-5.33-1.363-6.483-1.151
					c0,0-0.877,2.212,0.668,2.394c1.545,0.181,4.755,0.394,4.755,0.394L1368.201,80.398z"/>
			</g>
		</g>
	</g>
	<g>
		<path fill="#FFFFFF" d="M733.152-328.527c-0.378-0.473,0.182-1.516,1.238-2.533c1.605-1.546,12.63-12.63,17.031-17.032
			c1.107-1.108,4.849-3.356,8.52,1.734c4.447,6.178,0.441,9.21,0,9.385c-5.869,2.313-24.326,8.371-24.326,8.371
			S733.65-327.909,733.152-328.527z"/>
		<path fill="#FFFFFF" d="M745.539-324.511c-19.621,0-35.533,14-35.533,31.274c0,17.274,15.912,31.273,35.533,31.273
			c19.617,0,35.526-13.999,35.526-31.273C781.065-310.511,765.156-324.511,745.539-324.511z M745.539-268.77
			c-8.931,0-16.171-10.957-16.171-24.468c0-13.512,7.24-24.468,16.171-24.468c8.923,0,16.163,10.956,16.163,24.468
			C761.702-279.726,754.462-268.77,745.539-268.77z"/>
	</g>
	<g>
		<defs>
			<path id="SVGID_4_" d="M439.339-756.684c-68.119,25.587-184.533,28.397-260.017,6.278
				c-75.484-22.121-81.454-60.793-13.335-86.382c68.12-25.585,184.533-28.396,260.018-6.276
				C501.489-820.945,507.458-782.271,439.339-756.684z"/>
		</defs>
		<clipPath id="SVGID_5_">
			<use xlink:href="#SVGID_4_"  overflow="visible"/>
		</clipPath>
		<polygon opacity="0.3" clip-path="url(#SVGID_5_)" fill="#CCCCCC" stroke="#FFFFFF" stroke-miterlimit="10" points="
			320.469,-774.689 118.519,-792.542 268.24,-828.383 470.191,-810.531 		"/>
		<polygon opacity="0.3" clip-path="url(#SVGID_5_)" fill="#CCCCCC" stroke="#FFFFFF" stroke-miterlimit="10" points="
			102.351,-793.989 -99.604,-811.841 50.119,-847.683 252.068,-829.83 		"/>
		<polygon opacity="0.3" clip-path="url(#SVGID_5_)" fill="#CCCCCC" stroke="#FFFFFF" stroke-miterlimit="10" points="
			535.563,-755.088 333.611,-772.94 483.336,-808.782 685.282,-790.929 		"/>
		<polygon opacity="0.3" clip-path="url(#SVGID_5_)" fill="#CCCCCC" stroke="#FFFFFF" stroke-miterlimit="10" points="
			484.674,-813.433 282.724,-831.286 432.446,-867.126 634.395,-849.274 		"/>
		<polygon opacity="0.3" clip-path="url(#SVGID_5_)" fill="#CCCCCC" stroke="#FFFFFF" stroke-miterlimit="10" points="
			266.552,-832.732 64.601,-850.584 214.323,-886.426 416.27,-868.574 		"/>
		<polygon opacity="0.3" clip-path="url(#SVGID_5_)" fill="#CCCCCC" stroke="#FFFFFF" stroke-miterlimit="10" points="
			699.769,-793.832 497.815,-811.684 647.539,-847.526 849.487,-829.673 		"/>
		<polygon opacity="0.3" clip-path="url(#SVGID_5_)" fill="#CCCCCC" stroke="#FFFFFF" stroke-miterlimit="10" points="
			162.936,-736.214 -39.017,-754.067 110.707,-789.908 312.656,-772.055 		"/>
		<polygon opacity="0.3" clip-path="url(#SVGID_5_)" fill="#CCCCCC" stroke="#FFFFFF" stroke-miterlimit="10" points="
			-55.188,-755.513 -257.14,-773.366 -107.416,-809.208 94.533,-791.354 		"/>
		<polygon opacity="0.3" clip-path="url(#SVGID_5_)" fill="#CCCCCC" stroke="#FFFFFF" stroke-miterlimit="10" points="
			378.028,-716.613 176.076,-734.466 325.801,-770.307 527.749,-752.454 		"/>
	</g>
	
		<radialGradient id="SVGID_6_" cx="-513.3057" cy="-695.1099" r="82.2352" gradientTransform="matrix(1.662 0.487 -4.1712 1.5668 -1743.6892 542.3584)" gradientUnits="userSpaceOnUse">
		<stop  offset="0" style="stop-color:#FFFFFF;stop-opacity:0"/>
		<stop  offset="0.8796" style="stop-color:#FFFFFF"/>
	</radialGradient>
	<path fill="url(#SVGID_6_)" d="M439.339-756.684c-68.119,25.587-184.533,28.397-260.017,6.278
		c-75.484-22.121-81.454-60.793-13.335-86.382c68.12-25.585,184.533-28.396,260.018-6.276
		C501.489-820.945,507.458-782.271,439.339-756.684z"/>
	<g>
		<image overflow="visible" width="240" height="184" xlink:href="FB7F689B.png"  transform="matrix(1 0 0 1 140.5 -943)">
		</image>
	</g>
	<path fill="#B92025" d="M372.87-890.117c6.274-8.914,9.97-19.771,9.97-31.499c0-30.27-24.539-54.808-54.808-54.808
		c-30.271,0-54.808,24.538-54.808,54.808c0,11.482,3.537,22.135,9.572,30.941l44.783,97.189L372.87-890.117z"/>
	<g>
		<path fill="#FFFFFF" d="M315.648-947.096c-0.378-0.473,0.182-1.516,1.238-2.532c1.605-1.546,12.63-12.63,17.031-17.032
			c1.107-1.107,4.849-3.355,8.52,1.734c4.447,6.178,0.441,9.21,0,9.385c-5.869,2.313-24.326,8.371-24.326,8.371
			S316.146-946.477,315.648-947.096z"/>
		<path fill="#FFFFFF" d="M328.035-943.08c-19.621,0-35.533,14-35.533,31.274s15.912,31.273,35.533,31.273
			c19.617,0,35.526-13.999,35.526-31.273S347.652-943.08,328.035-943.08z M328.035-887.338c-8.931,0-16.171-10.957-16.171-24.468
			c0-13.513,7.24-24.468,16.171-24.468c8.923,0,16.163,10.955,16.163,24.468C344.198-898.294,336.958-887.338,328.035-887.338z"/>
	</g>
</g>
<g id="Botones">
	<text transform="matrix(1 0 0 1 687.4023 926.9434)" fill="#FFFFFF" font-family="'PTSans-Regular'" font-size="13">CÚCUTA</text>
	<text transform="matrix(1 0 0 1 745.9023 926.9434)" fill="#FFFFFF" font-family="'PTSans-Regular'" font-size="13">REGIÓN</text>
	<text transform="matrix(1 0 0 1 806.1523 926.9434)" fill="#FFFFFF" font-family="'PTSans-Regular'" font-size="13">JUDICIAL</text>
	<text transform="matrix(1 0 0 1 869.9023 926.9434)" fill="#FFFFFF" font-family="'PTSans-Regular'" font-size="13">FRONTERA</text>
	<text transform="matrix(1 0 0 1 943.6523 926.9434)" fill="#FFFFFF" font-family="'PTSans-Regular'" font-size="13">ACTUALIDAD</text>
	<text transform="matrix(1 0 0 1 1033.4023 926.9434)" fill="#FFFFFF" font-family="'PTSans-Regular'" font-size="13">OPINIÓN</text>
	<text transform="matrix(1 0 0 1 1100.6523 926.9434)" fill="#FFFFFF" font-family="'PTSans-Regular'" font-size="13">DEPORTES</text>
	<text transform="matrix(1 0 0 1 1177.1523 926.9434)" fill="#FFFFFF" font-family="'PTSans-Regular'" font-size="13">ENTRETENIMIENTO</text>
	<text transform="matrix(1 0 0 1 1298.6523 926.9434)" fill="#FFFFFF" font-family="'PTSans-Regular'" font-size="13">SERVICIOS</text>
	<text transform="matrix(1 0 0 1 1371.6523 926.9434)" fill="#FFFFFF" font-family="'PTSans-Regular'" font-size="13">PARTICIPACIÓN</text>
	<g>
		<text transform="matrix(1 0 0 1 583.6523 994.9434)"><tspan x="0" y="0" fill="#3F3F3F" font-family="'PTSans-Regular'" font-size="13">Galerias</tspan><tspan x="0" y="14" fill="#3F3F3F" font-family="'PTSans-Regular'" font-size="13">Videos</tspan><tspan x="0" y="28" fill="#3F3F3F" font-family="'PTSans-Regular'" font-size="13">Especiales</tspan><tspan x="0" y="42" fill="#3F3F3F" font-family="'PTSans-Regular'" font-size="13">Infografias</tspan></text>
	</g>
	<g>
		<text transform="matrix(1 0 0 1 765.4023 994.9434)"><tspan x="0" y="0" fill="#343434" font-family="'PTSans-Regular'" font-size="13">Anuncie con nosotros</tspan><tspan x="0" y="14" fill="#343434" font-family="'PTSans-Regular'" font-size="13">Suscripciones</tspan><tspan x="0" y="28" fill="#343434" font-family="'PTSans-Regular'" font-size="13">Facebook</tspan><tspan x="0" y="42" fill="#343434" font-family="'PTSans-Regular'" font-size="13">Twitter</tspan><tspan x="0" y="56" fill="#343434" font-family="'PTSans-Regular'" font-size="13">Instagram</tspan><tspan x="0" y="70" fill="#343434" font-family="'PTSans-Regular'" font-size="13">Youtube</tspan></text>
	</g>
	<g>
		<text transform="matrix(1 0 0 1 977.1523 994.9434)"><tspan x="0" y="0" fill="#343434" font-family="'PTSans-Regular'" font-size="13">Contactenos</tspan><tspan x="0" y="14" fill="#343434" font-family="'PTSans-Regular'" font-size="13">Preguntas frecuentes</tspan><tspan x="0" y="28" fill="#343434" font-family="'PTSans-Regular'" font-size="13">Puntos de venta</tspan></text>
	</g>
	<g>
		<text transform="matrix(1 0 0 1 1174.4023 994.9434)"><tspan x="0" y="0" fill="#343434" font-family="'PTSans-Regular'" font-size="13">Empleo</tspan><tspan x="0" y="14" fill="#343434" font-family="'PTSans-Regular'" font-size="13">Vehículos</tspan><tspan x="0" y="28" fill="#343434" font-family="'PTSans-Regular'" font-size="13">Fincas Raíz</tspan><tspan x="0" y="42" fill="#343434" font-family="'PTSans-Regular'" font-size="13">Varios</tspan></text>
	</g>
	<g>
		<text transform="matrix(1 0 0 1 1366.6523 994.9434)"><tspan x="0" y="0" fill="#343434" font-family="'PTSans-Regular'" font-size="13">Condiciones y Políticas</tspan><tspan x="0" y="14" fill="#343434" font-family="'PTSans-Regular'" font-size="13">de Publicidad</tspan><tspan x="0" y="28" fill="#343434" font-family="'PTSans-Regular'" font-size="13">Superintendencia de Industrias</tspan><tspan x="0" y="42" fill="#343434" font-family="'PTSans-Regular'" font-size="13">y Comercio: </tspan><tspan x="66.61" y="42" fill="#343434" font-family="'PTSans-Bold'" font-size="13" text-decoration=" underline">www.sic.gov.co</tspan></text>
	</g>
	<text transform="matrix(1 0 0 1 599.3496 -571.2363)" fill="#FFFFFF" font-family="'PTSans-Regular'" font-size="13">REGIÓN</text>
	<text transform="matrix(1 0 0 1 667.5996 -571.2363)" fill="#FFFFFF" font-family="'PTSans-Regular'" font-size="13">JUDICIAL</text>
	<text transform="matrix(1 0 0 1 731.3496 -571.2363)" fill="#FFFFFF" font-family="'PTSans-Regular'" font-size="13">FRONTERA</text>
	<text transform="matrix(1 0 0 1 901.8496 -571.2363)" fill="#FFFFFF" font-family="'PTSans-Regular'" font-size="13">OPINIÓN</text>
	<text transform="matrix(1 0 0 1 975.0996 -571.2363)" fill="#FFFFFF" font-family="'PTSans-Regular'" font-size="13">DEPORTES</text>
	<text transform="matrix(1 0 0 1 1059.5996 -571.2363)" fill="#FFFFFF" font-family="'PTSans-Regular'" font-size="13">ENTRETENIMIENTO</text>
	<text transform="matrix(1 0 0 1 1189.0996 -571.2363)" fill="#FFFFFF" font-family="'PTSans-Regular'" font-size="13">SERVICIOS</text>
	<text transform="matrix(1 0 0 1 1262.0996 -571.2363)" fill="#FFFFFF" font-family="'PTSans-Regular'" font-size="13">PARTICIPACIÓN</text>
	<polyline fill="none" stroke="#FFFFFF" stroke-miterlimit="10" points="647.784,-576.418 650.452,-574.084 652.784,-576.418 	"/>
	<polyline fill="none" stroke="#FFFFFF" stroke-miterlimit="10" points="954.786,-576.418 957.454,-574.084 959.786,-576.418 	"/>
	<polyline fill="none" stroke="#FFFFFF" stroke-miterlimit="10" points="1038.128,-576.418 1040.794,-574.084 1043.128,-576.418 	
		"/>
	<polyline fill="none" stroke="#FFFFFF" stroke-miterlimit="10" points="1171.349,-576.418 1174.017,-574.084 1176.349,-576.418 	
		"/>
	<path fill="#FFFFFF" d="M1544.126-573.085c0,2.209-1.791,4-4,4h-95.666c-2.209,0-4-1.791-4-4v-8.333c0-2.209,1.791-4,4-4h95.666
		c2.209,0,4,1.791,4,4V-573.085z"/>
	<path fill="#B92025" d="M1542.284-571.687l-4.602-4.682c-0.016-0.015-0.035-0.021-0.051-0.035c0.693-0.798,1.129-1.826,1.129-2.964
		c0-2.506-2.039-4.544-4.545-4.544c-2.504,0-4.543,2.038-4.543,4.544c0,2.506,2.039,4.544,4.543,4.544
		c1.041,0,1.986-0.365,2.754-0.954c0.016,0.022,0.023,0.047,0.043,0.067l4.602,4.685c0.092,0.094,0.213,0.14,0.334,0.14
		c0.119,0,0.238-0.045,0.33-0.135C1542.464-571.202,1542.466-571.5,1542.284-571.687z M1534.216-575.764
		c-1.986,0-3.602-1.617-3.602-3.604c0-1.988,1.615-3.604,3.602-3.604c1.988,0,3.604,1.616,3.604,3.604
		C1537.819-577.38,1536.204-575.764,1534.216-575.764z"/>
	<g>
		<text transform="matrix(1 0 0 1 540.8496 -571.2363)" fill="#FFFFFF" font-family="'PTSans-Regular'" font-size="13">CÚCUTA</text>
	</g>
	<g>
		<text transform="matrix(1 0 0 1 805.0996 -571.2363)" fill="#FFFFFF" font-family="'PTSans-Regular'" font-size="13">ACTUALIDAD</text>
	</g>
	<polyline fill="none" stroke="#FFFFFF" stroke-miterlimit="10" points="881.61,-576.418 884.278,-574.084 886.61,-576.418 	"/>
</g>
<g id="TXT">
	<g>
		<text transform="matrix(1 0 0 1 581.6523 975.1934)" fill="#343434" font-family="'PTSans-Bold'" font-size="16">MULTIMEDIA</text>
	</g>
	<g>
		<text transform="matrix(1 0 0 1 765.4023 975.1934)" fill="#343434" font-family="'PTSans-Bold'" font-size="16">MULTIMEDIA</text>
	</g>
	<g>
		<text transform="matrix(1 0 0 1 977.1523 975.1934)" fill="#343434" font-family="'PTSans-Bold'" font-size="16">AYUDA</text>
	</g>
	<g>
		<text transform="matrix(1 0 0 1 1174.4023 975.1934)" fill="#343434" font-family="'PTSans-Bold'" font-size="16">CLASIFICADOS</text>
	</g>
	<g>
		<text transform="matrix(1 0 0 1 1366.6523 975.1934)" fill="#343434" font-family="'PTSans-Bold'" font-size="16">TÉRMINOS LEGALES</text>
	</g>
	<g>
		<text transform="matrix(1 0 0 1 1374.3789 1125.1934)" fill="#343434" font-family="'PTSans-Bold'" font-size="16">SIGANOS</text>
	</g>
	<rect x="772.953" y="1100.333" fill="none" width="569.71" height="72.628"/>
	<text transform="matrix(1 0 0 1 772.9531 1108.1426)"><tspan x="0" y="0" font-family="'PTSans-Bold'" font-size="11">DIARIO LA OPINIÓN</tspan><tspan x="90.144" y="0" font-family="'PTSans-Regular'" font-size="11"> - Av. 4 Nro. 16 - 12. Teléfono 09 7 5829999 - Fax 09 7 5717859 - Cúcuta - Colombia</tspan><tspan x="0" y="14" font-family="'PTSans-Regular'" font-size="11">Copyright   2001 - 2015 La Opinión S.A. - Todos los Derechos Reservados</tspan><tspan x="0" y="28" font-family="'PTSans-Regular'" font-size="11">Reservados todos los derechos; queda prohibida la reproducción, distribución,  comunicación. Incluida en particular su mera </tspan><tspan x="0" y="42" font-family="'PTSans-Regular'" font-size="11">reproducción y/o puesta a disposición como resúmenes, reseñas o revistas de prensa con fines comerciales e indirectamente </tspan><tspan x="0" y="56" font-family="'PTSans-Regular'" font-size="11">lucrativos, a lo que se manifiesta oposición rotunda.</tspan></text>
	<circle fill="none" cx="1345.095" cy="156.897" r="5.51"/>
	<circle fill="none" cx="1277.025" cy="190.255" r="9.382"/>
	<path fill="none" d="M1319.113,197.652c-0.439-0.884-1.513-1.246-2.396-0.805l-5.716,2.838l-2.84-5.714
		c-0.439-0.885-1.513-1.246-2.396-0.807l-4.572,2.271c-0.884,0.44-1.245,1.513-0.806,2.396l2.839,5.716l-5.715,2.842
		c-0.885,0.438-1.245,1.511-0.806,2.396l2.271,4.571c0.439,0.885,1.512,1.245,2.396,0.807l5.717-2.842l2.84,5.716
		c0.439,0.886,1.511,1.246,2.396,0.807l4.573-2.271c0.884-0.439,1.243-1.511,0.806-2.396l-2.841-5.714l5.716-2.843
		c0.885-0.438,1.245-1.51,0.806-2.394L1319.113,197.652z"/>
	<circle fill="none" cx="1347.604" cy="185.042" r="9.382"/>
	<path fill="none" d="M1352.604,146.784c2.727-1.356,3.84-4.662,2.484-7.388c-1.353-2.725-4.661-3.838-7.387-2.482
		c-2.726,1.352-3.838,4.66-2.482,7.386C1346.571,147.026,1349.878,148.138,1352.604,146.784z"/>
	<path fill="none" d="M1357.599,157.295c-2.726,1.353-3.838,4.661-2.483,7.387c1.353,2.724,4.66,3.836,7.387,2.482
		c2.725-1.354,3.837-4.661,2.483-7.384C1363.63,157.052,1360.322,155.942,1357.599,157.295z"/>
	<circle fill="none" cx="1365.201" cy="146.907" r="5.511"/>
	<g>
		<g>
			<path fill="#FFFFFF" d="M1524.396,163.707c-0.09-0.113,0.043-0.359,0.294-0.602c0.38-0.365,2.995-2.996,4.041-4.04
				c0.262-0.262,1.149-0.796,2.021,0.411c1.055,1.466,0.105,2.184,0,2.227c-1.393,0.549-5.771,1.985-5.771,1.985
				S1524.514,163.853,1524.396,163.707z"/>
			<rect x="1409.859" y="158.348" fill="#FFFFFF" width="6.031" height="20.19"/>
			<path fill="#FFFFFF" d="M1431.376,169.302c-0.128-2.56-1.693-5.329-7.482-5.401c-4.302-0.053-5.619,2.103-6.025,3.36
				c-0.093,0.215-0.145,0.45-0.163,0.696c-0.018,0.117-0.02,0.184-0.02,0.184c0,1.212,0.966,2.195,2.155,2.195
				s2.155-0.983,2.155-2.195c0-0.518-0.184-0.986-0.479-1.362h0.003c0,0-0.807-1.059,1.843-0.833
				c2.131,0.182,2.401,2.467,2.425,3.357h-0.002V172c-0.953-0.786-2.295-1.285-3.79-1.285c-2.889,0-5.229,1.829-5.229,4.087
				c0,2.258,2.341,4.089,5.229,4.089c1.495,0,2.837-0.498,3.79-1.287v0.934h5.602v-9.237H1431.376z M1421.996,177.68
				c-1.592,0-2.883-1.203-2.883-2.688c0-1.483,1.291-2.688,2.883-2.688c1.591,0,2.881,1.205,2.881,2.688
				C1424.877,176.478,1423.587,177.68,1421.996,177.68z"/>
			<path fill="#FFFFFF" d="M1449.18,164.658c-4.654,0-8.429,3.323-8.429,7.42c0,4.098,3.774,7.42,8.429,7.42s8.429-3.322,8.429-7.42
				C1457.608,167.98,1453.834,164.658,1449.18,164.658z M1449.18,177.883c-2.118,0-3.835-2.599-3.835-5.806
				c0-3.206,1.717-5.805,3.835-5.805s3.835,2.599,3.835,5.805C1453.015,175.284,1451.298,177.883,1449.18,177.883z"/>
			<path fill="#FFFFFF" d="M1527.334,164.658c-4.654,0-8.429,3.323-8.429,7.42c0,4.098,3.774,7.42,8.429,7.42
				c4.653,0,8.428-3.322,8.428-7.42C1535.762,167.98,1531.987,164.658,1527.334,164.658z M1527.334,177.883
				c-2.119,0-3.836-2.599-3.836-5.806c0-3.206,1.717-5.805,3.836-5.805c2.118,0,3.835,2.599,3.835,5.805
				C1531.169,175.284,1529.452,177.883,1527.334,177.883z"/>
			<path fill="#FFFFFF" d="M1470.907,164.859c-1.953,0-3.745,0.585-5.174,1.559v-2.366h-6.965v26.8h6.965v-12.916
				c1.429,0.976,3.221,1.561,5.174,1.561c4.64,0,8.402-3.277,8.402-7.318C1479.31,168.136,1475.547,164.859,1470.907,164.859z
				 M1468.308,177.68c-0.97,0-1.855-0.41-2.574-1.076v-8.35c0.719-0.664,1.604-1.073,2.574-1.073c2.369,0,4.291,2.351,4.291,5.251
				C1472.599,175.33,1470.677,177.68,1468.308,177.68z"/>
			<rect x="1480.169" y="164.206" fill="#FFFFFF" width="6.511" height="14.182"/>
			<path fill="#FFFFFF" d="M1486.755,159.813c0.604,1.456-0.832,2.557-2.756,3.258c-2.171,0.794-3.883,0.232-4.159-0.664
				c-0.251-0.821,0.625-2.176,2.631-3.067C1484.342,158.511,1486.237,158.563,1486.755,159.813z"/>
			<rect x="1511.058" y="164.206" fill="#FFFFFF" width="6.511" height="14.182"/>
			<path fill="#FFFFFF" d="M1517.644,159.813c0.604,1.456-0.833,2.557-2.756,3.258c-2.172,0.794-3.884,0.232-4.159-0.664
				c-0.251-0.821,0.624-2.176,2.631-3.067C1515.23,158.511,1517.125,158.563,1517.644,159.813z"/>
			<path fill="#FFFFFF" d="M1508.021,168.11c-0.21-2.639-2.857-2.8-6.048-2.847c-2.671-0.039-5.698,1.354-6.916,1.976v-3.034h-6.51
				v14.182h6.51v-8.733c0.704-0.703,2.021-1.787,3.635-1.968c2.472-0.276,2.794,1.99,2.827,2.854v7.847h6.511V168.11H1508.021z"/>
			<path fill="#FFFFFF" d="M1556.851,168.11c-0.209-2.639-2.855-2.8-6.048-2.847c-2.671-0.039-5.697,1.354-6.915,1.976v-3.034
				h-6.511v14.182h6.511v-8.733c0.703-0.703,2.021-1.787,3.634-1.968c2.472-0.276,2.794,1.99,2.827,2.854v7.847h6.511V168.11
				H1556.851z"/>
		</g>
	</g>
	<g>
		<text transform="matrix(1 0 0 1 1430.3613 210.252)" fill="#264147" font-family="'PTSans-Regular'" font-size="22.1958">pasatiempos</text>
	</g>
	<g>
		<text transform="matrix(1 0 0 1 1364.7188 237.9648)" fill="#264147" font-family="'PTSans-Bold'" font-size="16">Ingresar a la zona de juegos</text>
	</g>
	<g>
		<rect x="584.405" y="-122.327" fill="none" width="291.912" height="40.739"/>
		<text transform="matrix(1 0 0 1 684.0566 -112.3877)"><tspan x="0" y="0" fill="#333333" font-family="'PTSans-CaptionBold'" font-size="14">Diario La Opinión</tspan><tspan x="-15.521" y="14" fill="#666666" font-family="'PTSans-Caption'" font-size="13">Av. 4 Nro. 16 - 12 La Playa</tspan><tspan x="0.383" y="28" fill="#666666" font-family="'PTSans-Caption'" font-size="13">Cúcuta - Colombia</tspan></text>
	</g>
	<g>
		<rect x="924.405" y="-122.327" fill="none" width="291.912" height="40.739"/>
		<text transform="matrix(1 0 0 1 1044.084 -112.3877)"><tspan x="0" y="0" fill="#333333" font-family="'PTSans-CaptionBold'" font-size="14">Teléfonos</tspan><tspan x="-14.834" y="14" fill="#666666" font-family="'PTSans-Caption'" font-size="13">(+57) 7 582.9999</tspan><tspan x="-24.48" y="28" fill="#666666" font-family="'PTSans-Caption'" font-size="13">Fax (+57) 7 583.1502</tspan></text>
	</g>
	<g>
		<rect x="1438.386" y="-409.911" fill="none" width="109.994" height="73.738"/>
		<text transform="matrix(1 0 0 1 1450.5117 -398.5518)"><tspan x="0" y="0" fill="#666666" font-family="'PTSans-Regular'" font-size="16">Descargue la </tspan><tspan x="-1.2" y="19.2" fill="#666666" font-family="'PTSans-Regular'" font-size="16">portada de la </tspan><tspan x="-10.248" y="38.4" fill="#666666" font-family="'PTSans-Regular'" font-size="16">edición impresa </tspan><tspan x="17.6" y="57.601" fill="#666666" font-family="'PTSans-Regular'" font-size="16">de </tspan><tspan x="38.031" y="57.601" fill="#333333" font-family="'PTSans-Bold'" font-size="16">HOY</tspan></text>
	</g>
	<text transform="matrix(1 0 0 1.2 1354.2168 -439.333)" fill="#FFFFFF" font-family="'PTSans-Bold'" font-size="18">Edición impresa</text>
	<rect x="1263.545" y="-317.039" fill="#BB2026" width="300" height="37.529"/>
	<text transform="matrix(1 0 0 1.2 1366.9521 -292.043)" fill="#FFFFFF" font-family="'PTSans-Bold'" font-size="18">DESCARGAR</text>
	<g>
		<rect x="1305.789" y="-228.243" fill="none" width="219.995" height="33.405"/>
		<text transform="matrix(1 0 0 1 1316.54 -216.8848)"><tspan x="0" y="0" fill="#666666" font-family="'PTSans-Regular'" font-size="16">La información que necesita a</tspan><tspan x="-7.088" y="19.2" fill="#333333" font-family="'PTSans-Bold'" font-size="16">PRIMERA HORA DE LA MAÑANA</tspan></text>
	</g>
	<text transform="matrix(1 0 0 1.2 1362.9902 -241)" fill="#FFFFFF" font-family="'PTSans-Bold'" font-size="18">Suscripciones</text>
	<rect x="1263.949" y="-118.706" fill="#BB2026" width="300" height="37.529"/>
	<text transform="matrix(1 0 0 1.2 1367.7891 -93.7109)" fill="#FFFFFF" font-family="'PTSans-Bold'" font-size="18">SUSCRÍBASE</text>
	<g>
		<rect x="1305.421" y="-23.83" fill="none" width="219.995" height="33.405"/>
		<text transform="matrix(1 0 0 1 1336.5313 -12.4717)"><tspan x="0" y="0" fill="#FFFFFF" font-family="'PTSans-Regular'" font-size="16">Clasificados </tspan><tspan x="81.646" y="0" fill="#FFFFFF" font-family="'PTSans-Bold'" font-size="16">La Opinión, </tspan><tspan x="-5.063" y="19.2" fill="#FFFFFF" font-family="'PTSans-Regular'" font-size="16">más efectivos que nunca.</tspan></text>
	</g>
	<text transform="matrix(1 0 0 1.2 1370.1836 -39.5869)" fill="#FFFFFF" font-family="'PTSans-Bold'" font-size="18">Clasificados</text>
	<text transform="matrix(1 0 0 1.2 1304.0615 36.0352)" fill="#FFFFFF" font-family="'PTSans-Bold'" font-size="18">clasificados.laopinion.com.co</text>
	<text transform="matrix(1 0 0 1 549.251 -472.1689)" fill="#B3B3B3" font-family="'PTSans-Bold'" font-size="18">CONTÁCTENOS</text>
	<path fill="#B92025" d="M1137.111-272.773c-0.107-33.676-27.593-60.992-61.272-60.886c-33.679,0.105-60.997,27.595-60.893,61.27
		c0.104,33.681,27.597,61,61.276,60.895c2.671-0.012,5.291-0.25,7.874-0.596c-0.403-2.7-0.934-5.607-1.648-8.443
		c-2.053,0.25-4.13,0.42-6.254,0.428c-28.936,0.089-52.547-23.375-52.639-52.312c-0.092-28.925,23.376-52.542,52.312-52.632
		c28.927-0.091,52.543,23.379,52.635,52.302c0.04,13.487-5.096,25.766-13.457,35.097l-4.74-0.906c0,0-0.271-1.477-1.214-2.149
		c-0.615-0.441-4.608-1.718-7.312-2.566c1.577-0.806,3.022-1.791,4.117-2.973c3.889-4.228,2.979-8.613,2.898-10.08
		c-0.071-1.461-1.394-1.683-1.394-1.683s-10.794-5.184-13.006-6.192c-2.22-1.01-3.347,0.652-3.347,0.652s-3.258,4.135-4.305,5.496
		c-1.046,1.352-1.641,2.559-4.384,1.664c-2.744-0.895-8.25-3.84-12.759-7.847c-4.509-4.014-7.95-9.329-8.933-10.934
		c-0.982-1.618,0.144-2.631,0.144-2.631s2.827-3.287,4.188-5.043c1.35-1.766,0.499-3.721,0.172-4.508
		c-0.327-0.794-4.731-11.513-5.375-12.96c-0.643-1.443-2.028-2.156-2.028-2.156s-4.265,0.014-5.191,0.016
		c-0.918,0.003-2.691,1.613-2.691,1.613c-5.319,3.428-6.193,11.623-6.345,13.332c-0.148,1.727-0.292,5.477,2.531,11.615
		c2.831,6.123,9.728,14.489,18.233,22.373c8.51,7.884,21.527,11.264,25.457,12.361c1.334,0.365,3.183,0.365,5.175,0.07
		c2.345,0.877,8.37,3.202,13.365,5.625l1.881-0.139c0,0,0.887,0.324,2.181,0.746c3.146,1.025,8.757,2.641,10.282,1.641
		c0.036-0.028,0.088-0.039,0.124-0.07l0.415-0.539c0.164-0.192,0.304-0.391,0.46-0.584l1.07-1.367l-0.048-0.011
		C1132.476-246.084,1137.155-258.883,1137.111-272.773z"/>
	<path fill="#B92025" d="M714.111-880.773c-0.107-33.676-27.593-60.992-61.272-60.887c-33.679,0.105-60.997,27.596-60.893,61.27
		c0.104,33.681,27.597,61,61.276,60.895c2.671-0.012,5.291-0.25,7.874-0.596c-0.403-2.7-0.934-5.607-1.648-8.443
		c-2.053,0.25-4.13,0.42-6.254,0.428c-28.936,0.089-52.547-23.375-52.639-52.312c-0.092-28.925,23.376-52.542,52.312-52.632
		c28.927-0.092,52.543,23.379,52.635,52.302c0.04,13.487-5.096,25.766-13.457,35.097l-4.74-0.906c0,0-0.271-1.477-1.214-2.149
		c-0.615-0.441-4.608-1.718-7.312-2.566c1.577-0.806,3.022-1.791,4.117-2.973c3.889-4.228,2.979-8.613,2.898-10.08
		c-0.071-1.461-1.394-1.683-1.394-1.683s-10.794-5.184-13.006-6.192c-2.22-1.01-3.347,0.652-3.347,0.652s-3.258,4.135-4.305,5.496
		c-1.046,1.352-1.641,2.559-4.384,1.664c-2.744-0.895-8.25-3.84-12.759-7.847c-4.509-4.014-7.95-9.329-8.933-10.934
		c-0.982-1.618,0.144-2.631,0.144-2.631s2.827-3.287,4.188-5.043c1.35-1.766,0.499-3.721,0.172-4.508
		c-0.327-0.794-4.731-11.513-5.375-12.96c-0.643-1.443-2.028-2.156-2.028-2.156s-4.265,0.014-5.191,0.016
		c-0.918,0.003-2.691,1.613-2.691,1.613c-5.319,3.428-6.193,11.623-6.345,13.332c-0.148,1.727-0.292,5.477,2.531,11.615
		c2.831,6.123,9.728,14.489,18.233,22.373c8.51,7.884,21.527,11.264,25.457,12.361c1.334,0.365,3.183,0.365,5.175,0.07
		c2.345,0.877,8.37,3.202,13.365,5.625l1.881-0.139c0,0,0.887,0.324,2.181,0.746c3.146,1.025,8.757,2.641,10.282,1.641
		c0.036-0.028,0.088-0.039,0.124-0.07l0.415-0.539c0.164-0.192,0.304-0.391,0.46-0.584l1.07-1.367l-0.048-0.011
		C709.476-854.084,714.155-866.883,714.111-880.773z"/>
	<g>
		<g>
			<path fill="#333333" d="M943.397,57.843h-12.899c-4.935,0-8.975-4.038-8.975-8.974V35.124c0-4.935,4.04-8.972,8.975-8.972h12.899
				c4.937,0,8.975,4.037,8.975,8.972V48.87C952.372,53.805,948.334,57.843,943.397,57.843 M943.397,55.473
				c1.754,0,3.409-0.689,4.662-1.941c1.251-1.251,1.941-2.908,1.941-4.663V35.124c0-1.753-0.69-3.409-1.941-4.66
				c-1.253-1.252-2.908-1.942-4.662-1.942h-12.899c-1.755,0-3.41,0.69-4.662,1.942c-1.251,1.251-1.94,2.907-1.94,4.66V48.87
				c0,1.755,0.689,3.411,1.94,4.663c1.252,1.252,2.907,1.941,4.662,1.941H943.397z"/>
			<path fill="#333333" d="M945.489,41.876c0,4.689-3.802,8.493-8.494,8.493c-4.691,0-8.494-3.804-8.494-8.493
				c0-4.691,3.803-8.497,8.494-8.497C941.688,33.379,945.489,37.185,945.489,41.876 M936.956,36.318
				c-3.073,0-5.564,2.491-5.564,5.565c0,3.07,2.491,5.562,5.564,5.562c3.071,0,5.562-2.491,5.562-5.562
				C942.518,38.809,940.027,36.318,936.956,36.318"/>
			<path fill="#333333" d="M947.638,33.249c0,1.109-0.901,2.012-2.012,2.012s-2.01-0.902-2.01-2.012c0-1.11,0.899-2.012,2.01-2.012
				S947.638,32.139,947.638,33.249"/>
		</g>
	</g>
	<g>
		<g>
			<path fill="#333333" d="M171.497,41.998h-12.899c-4.935,0-8.975-4.038-8.975-8.974V19.278c0-4.935,4.04-8.972,8.975-8.972h12.899
				c4.937,0,8.975,4.037,8.975,8.972v13.746C180.472,37.959,176.434,41.998,171.497,41.998 M171.497,39.627
				c1.754,0,3.409-0.689,4.662-1.941c1.251-1.251,1.941-2.908,1.941-4.663V19.278c0-1.753-0.69-3.409-1.941-4.66
				c-1.253-1.252-2.908-1.942-4.662-1.942h-12.899c-1.755,0-3.41,0.69-4.662,1.942c-1.251,1.251-1.94,2.907-1.94,4.66v13.746
				c0,1.755,0.689,3.411,1.94,4.663c1.252,1.252,2.907,1.941,4.662,1.941H171.497z"/>
			<path fill="#333333" d="M173.589,26.031c0,4.689-3.802,8.493-8.494,8.493c-4.691,0-8.494-3.804-8.494-8.493
				c0-4.691,3.803-8.497,8.494-8.497C169.787,17.534,173.589,21.339,173.589,26.031 M165.056,20.472
				c-3.073,0-5.564,2.491-5.564,5.565c0,3.07,2.491,5.562,5.564,5.562c3.071,0,5.562-2.491,5.562-5.562
				C170.617,22.963,168.127,20.472,165.056,20.472"/>
			<path fill="#333333" d="M175.737,17.403c0,1.109-0.901,2.012-2.012,2.012s-2.01-0.902-2.01-2.012c0-1.11,0.899-2.012,2.01-2.012
				S175.737,16.293,175.737,17.403"/>
		</g>
	</g>
	<path fill="#333333" d="M592.258,25.872H571.75c-3.237,0-5.872,2.633-5.872,5.87V52.25c0,3.239,2.635,5.872,5.872,5.872h9.408
		V44.784H578.4v-4.598h2.758v-2.759c0-3.75,1.558-5.98,5.98-5.98h3.682v4.597h-2.3c-1.724,0-1.839,0.643-1.839,1.84l-0.006,2.302
		h4.17l-0.486,4.598h-3.684v13.338h5.582c3.237,0,5.874-2.633,5.874-5.872V31.741C598.132,28.505,595.495,25.872,592.258,25.872z"/>
	<path fill="#333333" d="M48.16,9.745H27.652c-3.237,0-5.872,2.633-5.872,5.87v20.509c0,3.239,2.635,5.872,5.872,5.872h9.408V28.658
		h-2.758V24.06h2.758v-2.759c0-3.75,1.558-5.98,5.98-5.98h3.682v4.597h-2.3c-1.724,0-1.839,0.643-1.839,1.84l-0.006,2.302h4.17
		l-0.486,4.598h-3.684v13.338h5.582c3.237,0,5.874-2.633,5.874-5.872V15.615C54.034,12.378,51.397,9.745,48.16,9.745z"/>
	<path fill="#333333" d="M757.144,25.872h-20.508c-3.237,0-5.872,2.633-5.872,5.87v20.51c0,3.238,2.635,5.871,5.872,5.871h20.508
		c3.237,0,5.874-2.633,5.874-5.871v-20.51C763.018,28.505,760.381,25.872,757.144,25.872z M755.502,37.58
		c0.008,0.19,0.012,0.384,0.012,0.577c0,5.871-4.467,12.644-12.641,12.644c-2.511,0-4.847-0.738-6.812-1.998
		c0.348,0.041,0.701,0.06,1.06,0.06c2.082,0,3.998-0.709,5.52-1.899c-1.945-0.038-3.587-1.322-4.15-3.087
		c0.271,0.05,0.549,0.079,0.836,0.079c0.405,0,0.797-0.052,1.17-0.155c-2.031-0.407-3.565-2.203-3.565-4.358
		c0-0.018,0-0.036,0.001-0.055c0.599,0.335,1.283,0.534,2.012,0.557c-1.192-0.797-1.976-2.156-1.976-3.698
		c0-0.814,0.22-1.579,0.603-2.234c2.188,2.687,5.465,4.459,9.157,4.642c-0.075-0.323-0.115-0.664-0.115-1.011
		c0-2.455,1.989-4.446,4.442-4.446c1.279,0,2.435,0.543,3.244,1.407c1.013-0.2,1.963-0.57,2.823-1.081
		c-0.333,1.04-1.037,1.909-1.956,2.458c0.9-0.106,1.755-0.346,2.553-0.698C757.122,36.172,756.369,36.955,755.502,37.58z"/>
	<path fill="#333333" d="M113.589,9.745H93.081c-3.237,0-5.872,2.633-5.872,5.87v20.51c0,3.238,2.635,5.871,5.872,5.871h20.508
		c3.237,0,5.874-2.633,5.874-5.871v-20.51C119.463,12.378,116.826,9.745,113.589,9.745z M111.947,21.453
		c0.008,0.19,0.012,0.384,0.012,0.577c0,5.871-4.467,12.644-12.641,12.644c-2.511,0-4.847-0.738-6.812-1.998
		c0.348,0.041,0.701,0.06,1.06,0.06c2.082,0,3.998-0.709,5.52-1.899c-1.945-0.038-3.587-1.322-4.15-3.087
		c0.271,0.05,0.549,0.079,0.836,0.079c0.405,0,0.797-0.052,1.17-0.155c-2.031-0.407-3.565-2.203-3.565-4.358
		c0-0.018,0-0.036,0.001-0.055c0.599,0.335,1.283,0.534,2.012,0.557c-1.192-0.797-1.976-2.156-1.976-3.698
		c0-0.814,0.22-1.579,0.603-2.234c2.188,2.687,5.465,4.459,9.157,4.642c-0.075-0.323-0.115-0.664-0.115-1.011
		c0-2.455,1.989-4.446,4.442-4.446c1.279,0,2.435,0.543,3.244,1.407c1.013-0.2,1.963-0.57,2.823-1.081
		c-0.333,1.04-1.037,1.909-1.956,2.458c0.9-0.106,1.755-0.346,2.553-0.698C113.567,20.046,112.814,20.828,111.947,21.453z"/>
	<path fill="#333333" d="M1110.536,25.871h-20.508c-3.237,0-5.872,2.638-5.872,5.871v20.511c0,3.237,2.635,5.871,5.872,5.871h20.508
		c3.237,0,5.874-2.634,5.874-5.871V31.742C1116.41,28.508,1113.773,25.871,1110.536,25.871z M1096.257,50.048V33.946l12.117,8.051
		L1096.257,50.048z"/>
	<path fill="#333333" d="M242.332,9.744h-20.508c-3.237,0-5.872,2.638-5.872,5.871v20.511c0,3.237,2.635,5.871,5.872,5.871h20.508
		c3.237,0,5.874-2.634,5.874-5.871V15.615C248.206,12.382,245.569,9.744,242.332,9.744z M228.053,33.922V17.819l12.117,8.051
		L228.053,33.922z"/>
	<text transform="matrix(1 0 0 1 874.1826 16.5264)" fill="#333333" font-family="'PTSans-CaptionBold'" font-size="14">Siganos</text>
	<text transform="matrix(1 0 0 1 616.668 45.8906)" fill="#333333" font-family="'PTSans-Caption'" font-size="13">laopinioncucuta</text>
	<text transform="matrix(1 0 0 1 784.8037 45.8906)" fill="#333333" font-family="'PTSans-Caption'" font-size="13">@laopinioncucuta</text>
	<text transform="matrix(1 0 0 1 974.3037 45.8906)" fill="#333333" font-family="'PTSans-Caption'" font-size="13">@laopinioncucuta</text>
	<text transform="matrix(1 0 0 1 1135.334 45.8906)" fill="#333333" font-family="'PTSans-Caption'" font-size="13">laopinioncucuta</text>
	<text transform="matrix(1 0 0 1.2 858.9072 166.6309)" fill="#BB2026" font-family="'PTSans-CaptionBold'" font-size="18">Escríbanos</text>
	<g>
		<rect x="613.5" y="245" fill="#E8E8E8" width="250" height="20"/>
		<text transform="matrix(1 0 0 1.2 717.6523 238.3389)" fill="#BB2026" font-family="'PTSans-Caption'" font-size="12">Nombres</text>
	</g>
	<g>
		<rect x="928.5" y="245" fill="#E8E8E8" width="250" height="20"/>
		<text transform="matrix(1 0 0 1.2 1032.1123 238.3389)" fill="#BB2026" font-family="'PTSans-Caption'" font-size="12">Apellidos</text>
	</g>
	<g>
		<rect x="613.5" y="314" fill="#E8E8E8" width="250" height="20"/>
		<text transform="matrix(1 0 0 1.2 718.8281 307.1729)" fill="#BB2026" font-family="'PTSans-Caption'" font-size="12">Teléfono</text>
	</g>
	<g>
		<rect x="613.5" y="456" fill="#E8E8E8" width="566" height="99"/>
		<text transform="matrix(1 0 0 1.2 875.7637 449.1729)" fill="#BB2026" font-family="'PTSans-Caption'" font-size="12">Mensaje</text>
	</g>
	<g>
		<rect x="613.5" y="386" fill="#E8E8E8" width="250" height="20"/>
		<text transform="matrix(1 0 0 1.2 694.7686 379.3389)" fill="#BB2026" font-family="'PTSans-Caption'" font-size="12">Correo Electrónico*</text>
	</g>
	<g>
		<rect x="928.5" y="314" fill="#E8E8E8" width="250" height="20"/>
		<text transform="matrix(1 0 0 1.2 1031.6982 307.1729)" fill="#BB2026" font-family="'PTSans-Caption'" font-size="12">Dirección</text>
	</g>
	<g>
		<rect x="928.5" y="386" fill="#E8E8E8" width="250" height="20"/>
		<text transform="matrix(1 0 0 1.2 1036.9004 380.6729)" fill="#BB2026" font-family="'PTSans-Caption'" font-size="12">Ciudad</text>
	</g>
	<g>
		<rect x="771.5" y="607" fill="#BB2026" width="250" height="39"/>
		<text transform="matrix(1 0 0 1.2 875.3594 631.9639)" fill="#FFFFFF" font-family="'PTSans-CaptionBold'" font-size="18">Enviar</text>
	</g>
</g>
<g id="Guia" display="none">
</g>
</svg>
