<?xml version="1.0" encoding="utf-8"?>
<!-- Generator: Adobe Illustrator 16.0.0, SVG Export Plug-In . SVG Version: 6.00 Build 0)  -->
<!DOCTYPE svg PUBLIC "-//W3C//DTD SVG 1.1//EN" "http://www.w3.org/Graphics/SVG/1.1/DTD/svg11.dtd">
<svg version="1.1" xmlns="http://www.w3.org/2000/svg" xmlns:xlink="http://www.w3.org/1999/xlink" x="0px" y="0px" width="26.25px"
	 height="26.84px" viewBox="0 0 26.25 26.84" enable-background="new 0 0 26.25 26.84" xml:space="preserve">
<g id="Marcos">
</g>
<g id="Imagenes">
</g>
<g id="Marcos_cintillos">
</g>
<g id="Publicidad">
</g>
<g id="Logo">
</g>
<g id="Botones">
</g>
<g id="TXT">
</g>
<g id="Pico_y_Placa">
	<g>
		<path fill="#00485B" d="M20.221,9.364l0.341-0.198c-0.674-1.04-1.559-1.928-2.602-2.6l-0.196,0.342
			c-0.076,0.133-0.216,0.206-0.359,0.206c-0.069,0-0.14-0.019-0.206-0.057c-0.194-0.114-0.264-0.366-0.149-0.563l0.196-0.342
			c-1.073-0.557-2.276-0.89-3.554-0.948v0.391c0,0.229-0.182,0.412-0.41,0.412c-0.227,0-0.413-0.184-0.413-0.412V5.205l-0.925,0.152
			C11.186,5.484,10.446,5.69,9.734,5.98L9.313,6.153l0.2,0.342c0.112,0.196,0.043,0.448-0.152,0.563
			C9.294,7.096,9.225,7.114,9.154,7.114c-0.143,0-0.281-0.073-0.357-0.206L8.6,6.566c-1.043,0.672-1.928,1.56-2.601,2.6l0.34,0.198
			c0.2,0.113,0.267,0.366,0.152,0.563c-0.077,0.133-0.214,0.206-0.358,0.206c-0.067,0-0.141-0.017-0.205-0.057L5.586,9.881
			c-0.558,1.074-0.889,2.277-0.95,3.555h0.391c0.23,0,0.413,0.184,0.413,0.414c0,0.227-0.183,0.409-0.413,0.409H4.636
			c0.062,1.275,0.393,2.481,0.95,3.554l0.342-0.197c0.197-0.115,0.449-0.045,0.563,0.151c0.114,0.197,0.045,0.448-0.152,0.563
			l-0.34,0.197c0.673,1.042,1.558,1.929,2.601,2.602l0.197-0.342c0.113-0.198,0.364-0.267,0.564-0.15
			c0.195,0.114,0.265,0.364,0.152,0.563l-0.2,0.342c1.071,0.557,2.276,0.89,3.551,0.948V22.1c0-0.229,0.19-0.413,0.413-0.413
			c0.23,0,0.414,0.185,0.414,0.413v0.39c1.277-0.059,2.479-0.392,3.554-0.948l-0.199-0.342c-0.112-0.198-0.042-0.448,0.152-0.563
			c0.199-0.116,0.453-0.047,0.565,0.15l0.196,0.342c1.04-0.673,1.928-1.56,2.599-2.602l-0.341-0.197
			c-0.196-0.115-0.264-0.366-0.149-0.563c0.115-0.196,0.365-0.267,0.563-0.151l0.345,0.197c0.552-1.072,0.888-2.278,0.945-3.554
			h-0.391c-0.228,0-0.411-0.183-0.411-0.409c0-0.23,0.184-0.414,0.411-0.414h0.391c-0.058-1.277-0.394-2.48-0.945-3.555
			l-0.345,0.196c-0.065,0.04-0.137,0.057-0.205,0.057c-0.145,0-0.282-0.073-0.358-0.206C19.954,9.73,20.024,9.478,20.221,9.364z
			 M17.818,14.261h-2.947c-0.182,0.708-0.826,1.237-1.594,1.237c-0.908,0-1.648-0.74-1.648-1.648c0-0.769,0.529-1.408,1.239-1.594
			V8.071c0-0.228,0.187-0.413,0.409-0.413c0.23,0,0.414,0.186,0.414,0.413v4.185c0.581,0.15,1.032,0.602,1.18,1.18h2.947
			c0.23,0,0.413,0.184,0.413,0.414C18.231,14.076,18.049,14.261,17.818,14.261z"/>
		<path fill="#00485B" d="M13.277,13.023c0.458,0,0.827,0.368,0.827,0.826c0,0.454-0.369,0.825-0.827,0.825
			c-0.453,0-0.822-0.371-0.822-0.825C12.455,13.392,12.824,13.023,13.277,13.023z"/>
		<path fill="#00485B" d="M21.991,5.436l1.688,1.691c0.08,0.077,0.184,0.118,0.293,0.118c0.11,0,0.215-0.041,0.291-0.118
			c1.307-1.309,1.307-3.434,0-4.742c-0.632-0.631-1.475-0.981-2.368-0.981s-1.737,0.351-2.371,0.981
			c-0.075,0.078-0.12,0.183-0.12,0.293c0,0.109,0.045,0.214,0.12,0.291l1.883,1.882l-0.701,0.702
			c-1.973-1.769-4.576-2.845-7.425-2.845c-2.854,0-5.457,1.076-7.429,2.845l-0.7-0.702l1.882-1.882
			c0.077-0.077,0.121-0.182,0.121-0.291c0-0.11-0.044-0.215-0.121-0.293C6.402,1.754,5.561,1.403,4.667,1.403
			c-0.896,0-1.736,0.351-2.371,0.981c-1.308,1.309-1.308,3.434,0,4.742c0.076,0.077,0.183,0.118,0.291,0.118
			c0.109,0,0.214-0.041,0.293-0.118l1.691-1.691l0.689,0.691c-1.93,2.005-3.122,4.725-3.122,7.723c0,4.083,2.21,7.658,5.496,9.599
			l-1.248,1.249c-0.162,0.162-0.162,0.422,0,0.582C6.466,25.361,6.573,25.4,6.68,25.4c0.104,0,0.21-0.039,0.291-0.121l1.424-1.425
			c1.477,0.725,3.133,1.134,4.883,1.134c1.753,0,3.412-0.409,4.891-1.134l1.424,1.425c0.079,0.082,0.185,0.121,0.291,0.121
			s0.211-0.039,0.291-0.121c0.161-0.16,0.161-0.42,0-0.582l-1.249-1.249c3.286-1.94,5.495-5.516,5.495-9.599
			c0-2.998-1.191-5.718-3.121-7.723L21.991,5.436z M21.482,9.085c0.006,0.008,0.013,0.011,0.016,0.019
			c0.006,0.005,0.006,0.016,0.008,0.023c0.803,1.392,1.267,3.003,1.267,4.723c0,1.718-0.464,3.329-1.267,4.721
			c-0.002,0.008-0.002,0.016-0.008,0.022c-0.006,0.01-0.015,0.019-0.02,0.028c-0.832,1.419-2.015,2.604-3.435,3.43
			c-0.008,0.005-0.011,0.013-0.02,0.017c-0.011,0.005-0.021,0.009-0.031,0.013c-1.391,0.799-2.999,1.259-4.716,1.259
			c-1.71,0-3.32-0.46-4.71-1.259c-0.01-0.004-0.021-0.008-0.032-0.013c-0.009-0.004-0.012-0.012-0.019-0.017
			c-1.418-0.826-2.606-2.011-3.435-3.43c-0.005-0.01-0.018-0.019-0.021-0.028c-0.004-0.007-0.004-0.015-0.008-0.022
			c-0.803-1.392-1.265-3.003-1.265-4.721c0-1.72,0.462-3.333,1.265-4.723c0.004-0.008,0.004-0.019,0.008-0.023
			c0.003-0.008,0.012-0.011,0.016-0.019c0.828-1.422,2.018-2.61,3.439-3.438c0.007-0.006,0.01-0.014,0.019-0.018
			c0.009-0.005,0.014-0.005,0.022-0.007c1.393-0.802,3.005-1.263,4.72-1.263c1.721,0,3.332,0.461,4.726,1.263
			c0.006,0.002,0.015,0.002,0.021,0.007c0.009,0.004,0.012,0.012,0.02,0.018C19.468,6.475,20.655,7.663,21.482,9.085z"/>
	</g>
</g>
<g id="Guia">
</g>
</svg>
