<?xml version="1.0" encoding="utf-8"?>
<!-- Generator: Adobe Illustrator 15.0.0, SVG Export Plug-In . SVG Version: 6.00 Build 0)  -->
<!DOCTYPE svg PUBLIC "-//W3C//DTD SVG 1.1//EN" "http://www.w3.org/Graphics/SVG/1.1/DTD/svg11.dtd">
<svg version="1.1" id="Capa_1" xmlns="http://www.w3.org/2000/svg" xmlns:xlink="http://www.w3.org/1999/xlink" x="0px" y="0px"
	 width="65.204px" height="62.667px" viewBox="0 0 65.204 62.667" enable-background="new 0 0 65.204 62.667" xml:space="preserve">
<g>
	<g>
		<path fill="#FFFFFF" d="M269.539,5555.004l2.408,22.028l30.841-3.37l-2.408-22.029L269.539,5555.004z M300.183,5570.232
			l-5.208-6.862l-4.539,4.706l-4.514-5.947l-12.013,12.46l-1.926-17.623l26.434-2.889L300.183,5570.232z M274.788,5562.232
			c0.198,1.824,1.841,3.143,3.666,2.942c1.824-0.198,3.143-1.84,2.942-3.665c-0.199-1.824-1.84-3.143-3.665-2.943
			C275.906,5558.767,274.588,5560.406,274.788,5562.232z M295.492,5547.709l-30.84,3.371l2.408,22.029l2.203-0.24l-2.167-19.828
			l28.636-3.127L295.492,5547.709L295.492,5547.709z"/>
	</g>
</g>
<g>
	<g>
		<g>
			<path fill="#314799" d="M47.026,16.17c-3.406-1.194-7.097,0.218-8.895,3.188l13.841,4.861
				C52.428,20.777,50.433,17.364,47.026,16.17z"/>
			<path fill="#314799" d="M42.063,30.316c3.402,1.193,7.094-0.215,8.892-3.188L37.11,22.267
				C36.657,25.71,38.653,29.121,42.063,30.316z"/>
			<path fill="#314799" d="M33.383,14.001c-1.435-1.411-3.714-1.671-5.455-0.503c-1.738,1.163-2.369,3.37-1.611,5.237L33.383,14.001
				z"/>
			<path fill="#314799" d="M32.766,20.72c1.741-1.162,2.369-3.367,1.615-5.235l-7.074,4.733
				C28.75,21.628,31.029,21.886,32.766,20.72z"/>
			<path fill="#314799" d="M54.826,33.597c-1.775-2.387-5.165-2.884-7.551-1.109l-9.313,6.932c-0.211,0.153-0.387,0.338-0.566,0.516
				c-0.199-1.316-0.673-2.612-1.506-3.759L24.962,21.115c-2.796-3.859-8.22-4.727-12.084-1.926
				c-3.858,2.801-4.722,8.227-1.923,12.086l10.923,15.061c2.798,3.861,8.228,4.725,12.089,1.926c0.933-0.679,1.68-1.512,2.253-2.432
				c0.163,0.395,0.364,0.785,0.632,1.145c1.779,2.387,5.172,2.885,7.557,1.107l9.31-6.934
				C56.103,39.375,56.606,35.986,54.826,33.597z M24.551,44.396l-10.92-15.063c-1.731-2.383-1.198-5.737,1.19-7.469l17.202,23.721
				C29.635,47.317,26.292,46.785,24.551,44.396z M38.506,45.739c-1.097-1.474-0.789-3.568,0.686-4.667l9.313-6.932
				c1.477-1.096,3.571-0.788,4.667,0.686L38.506,45.739z"/>
		</g>
	</g>
</g>
</svg>
