<?xml version="1.0" encoding="utf-8"?>
<!-- Generator: Adobe Illustrator 15.0.0, SVG Export Plug-In . SVG Version: 6.00 Build 0)  -->
<!DOCTYPE svg PUBLIC "-//W3C//DTD SVG 1.1//EN" "http://www.w3.org/Graphics/SVG/1.1/DTD/svg11.dtd">
<svg version="1.1" id="Capa_1" xmlns="http://www.w3.org/2000/svg" xmlns:xlink="http://www.w3.org/1999/xlink" x="0px" y="0px"
	 width="65.204px" height="62.667px" viewBox="0 0 65.204 62.667" enable-background="new 0 0 65.204 62.667" xml:space="preserve">
<g>
	<g>
		<path fill="#FFFFFF" d="M269.539,5555.004l2.408,22.028l30.841-3.37l-2.408-22.029L269.539,5555.004z M300.183,5570.232
			l-5.208-6.862l-4.539,4.706l-4.514-5.947l-12.013,12.46l-1.926-17.623l26.434-2.889L300.183,5570.232z M274.788,5562.232
			c0.198,1.824,1.841,3.143,3.666,2.942c1.824-0.198,3.143-1.84,2.942-3.665c-0.199-1.824-1.84-3.143-3.665-2.943
			C275.906,5558.767,274.588,5560.406,274.788,5562.232z M295.492,5547.709l-30.84,3.371l2.408,22.029l2.203-0.24l-2.167-19.828
			l28.636-3.127L295.492,5547.709L295.492,5547.709z"/>
	</g>
</g>
<g>
	<g>
		<g>
			<rect x="16.316" y="22.101" fill="#314799" width="9.773" height="15.604"/>
			<polygon fill="#314799" points="8.792,12.896 8.792,46.224 30.947,46.224 30.824,44.22 10.798,44.22 10.798,14.901 
				54.406,14.901 54.406,44.22 50.947,44.22 52.375,46.224 56.412,46.224 56.412,12.896 			"/>
			<polygon fill="#314799" points="51.189,41.301 48.876,41.301 49.587,42.304 52.191,42.304 52.191,17.261 13.011,17.261 
				13.011,42.304 25.142,42.304 26.253,41.301 14.011,41.301 14.011,18.26 51.189,18.26 			"/>
			<rect x="32.361" y="22.059" fill="#314799" width="11.963" height="1.524"/>
			<rect x="27.906" y="25.971" fill="#314799" width="20.867" height="1.682"/>
			<polygon fill="#314799" points="27.906,31.172 35.695,31.172 48.773,31.172 48.773,29.489 27.906,29.489 			"/>
			<circle fill="#314799" cx="39.521" cy="38.354" r="4.517"/>
			<polygon fill="#314799" points="39.521,45.144 43.179,49.771 44.919,45.187 49.783,44.55 46.123,39.927 			"/>
			<polygon fill="#314799" points="27.906,42.011 32.492,43.755 33.126,48.615 37.75,44.954 32.533,38.351 			"/>
		</g>
	</g>
</g>
</svg>
