<?xml version="1.0" encoding="utf-8"?>
<!-- Generator: Adobe Illustrator 16.0.0, SVG Export Plug-In . SVG Version: 6.00 Build 0)  -->
<!DOCTYPE svg PUBLIC "-//W3C//DTD SVG 1.1//EN" "http://www.w3.org/Graphics/SVG/1.1/DTD/svg11.dtd">
<svg version="1.1" xmlns="http://www.w3.org/2000/svg" xmlns:xlink="http://www.w3.org/1999/xlink" x="0px" y="0px" width="96.7px"
	 height="80px" viewBox="0 0 96.7 80" enable-background="new 0 0 96.7 80" xml:space="preserve">
<g id="Marcos">
</g>
<g id="Imagenes">
</g>
<g id="Marcos_cintillos">
</g>
<g id="Publicidad">
</g>
<g id="Logo">
</g>
<g id="Botones">
</g>
<g id="TXT">
</g>
<g id="Pico_y_Placa">
	<g>
		<path d="M4.972,58.541c0,0-1.644,17.545,1.965,19.672c0,0,2.605,0.957,9.575,0.319c0,0,1.008-0.533,2.281-4.254L4.972,58.541z"/>
		<g>
			<path d="M91.041,58.541c0,0,1.646,17.545-1.971,19.672c0,0-2.604,0.957-9.57,0.319c0,0-1.007-0.533-2.281-4.254L91.041,58.541z"
				/>
			<path fill="#F9E462" d="M13.209,26.424c0,0,7.892-22.531,13.822-21.48c0,0,10.047-1.675,21.813-1.675
				c11.768,0,22.631,1.866,22.631,1.866s3.534-5.212,12.819,21.719l0.862-0.191l-0.049-3.3c0,0-0.288-2.967,2.729-2.583
				c3.012,0.383,6.409,0.575,6.885,3.588c0.479,3.013-1.768,3.013-2.725,3.253c-0.955,0.238-7.129,1.338-7.129,1.338
				s1.197,2.153,1.681,2.775c0.469,0.622,1.335,4.688,1.862,5.646c0.526,0.956,5.379,6.289,1.865,30.83c0,0-1.793,4.163-2.799,4.522
				c-1.005,0.358-12.774,2.512-15.144,2.225c0,0-2.151-0.862-5.023-0.862c-2.868,0-27.194,0.287-38.891-0.072
				c0,0-2.438,0-4.521,0.503C21.818,75.028,9.623,73.09,8.469,72.3c0,0-2.294-3.73-2.51-4.593
				c-0.217-0.86-3.445-22.243,2.371-30.566c0,0,1.648-5.313,3.226-6.818l0.79-1.65l-7.033-1.724c0,0-1.79-0.212-1.435-3.013
				c0.36-2.798,3.157-2.94,6.817-3.444c0,0,2.514-0.286,2.008,2.942l-0.283,2.869L13.209,26.424z"/>
			<path d="M85.563,33.408c0,0-0.861,3.301-2.154,4.376c-1.29,1.077-12.123,5.31-13.273,6.171l4.375,4.736
				c0,0,10.268,0.861,14.499-3.084c0,0,1.509-3.805-1.292-8.182C87.717,37.426,86.928,32.689,85.563,33.408z"/>
			<path fill="#FFFFFF" d="M88.006,45.392c0,0,1.503-3.876,0.145-6.315C86.784,36.639,85.135,38,85.135,38l-7.752,3.73
				c0,0,1.651,4.306,3.012,5.238C81.759,47.902,85.42,47.688,88.006,45.392z"/>
			<path fill="#FFFFFF" d="M76.736,42.02l-4.879,2.296c0,0,1.293,5.382,8.537,3.372C80.395,47.688,78.463,46.897,76.736,42.02z"/>
			<path d="M10.84,33.408c0,0,0.859,3.301,2.15,4.376c1.293,1.077,12.127,5.31,13.274,6.171l-4.374,4.736
				c0,0-10.267,0.861-14.496-3.084c0,0-1.508-3.805,1.291-8.182C8.686,37.426,9.473,32.689,10.84,33.408z"/>
			<path fill="#FFFFFF" d="M8.396,45.392c0,0-1.506-3.876-0.141-6.315C9.623,36.639,11.268,38,11.268,38l7.751,3.73
				c0,0-1.649,4.306-3.012,5.238C14.641,47.902,10.983,47.688,8.396,45.392z"/>
			<path fill="#FFFFFF" d="M19.664,42.02l4.881,2.296c0,0-1.293,5.382-8.538,3.372C16.007,47.688,17.939,46.897,19.664,42.02z"/>
			<path d="M14.964,25.693c0,0,5.794-14.226,8.376-17.6c0,0,24.174-1.873,51.229,0.064c0,0,4.086,4.875,7.891,17.505
				c0,0-0.649,2.815-7.827,3.317L71.9,29.5H24.686l-2.082-0.411C22.604,29.089,15.072,27.093,14.964,25.693z"/>
			<path d="M14.785,42.162c0,1.268-1.026,2.296-2.299,2.296c-1.268,0-2.291-1.028-2.291-2.296s1.023-2.296,2.291-2.296
				C13.759,39.866,14.785,40.895,14.785,42.162z"/>
			<circle cx="20.525" cy="44.746" r="1.219"/>
			<circle cx="83.914" cy="42.162" r="2.298"/>
			<circle cx="75.876" cy="44.746" r="1.219"/>
			<path d="M24.758,47.186c0,0,2.301-3.23,4.234-3.373c1.937-0.145,19.087-0.217,19.087-0.217s18.37-0.428,20.095,0.79
				c1.723,1.222,3.012,3.157,3.012,3.157S36.457,49.194,24.758,47.186z"/>
			<path d="M22.463,55.078c0,0,1.65-3.013,2.869-3.013c1.221,0,19.16,0.573,22.532,0.501c3.376-0.072,21.816-0.359,22.249-0.359
				c0.428,0,3.08,2.012,3.08,3.16c0,1.146-1.574,8.178-6.6,13.06c0,0-6.098,2.226-18.802,2.081c-12.7-0.145-18.8-2.37-18.8-2.37
				S24.041,61.249,22.463,55.078z"/>
			<path d="M15.719,57.95c0,0-4.668-1.651-5.889-1.581c-1.217,0.074-2.58,7.895-2.58,7.895s1.006,2.727,2.297,3.229
				c1.293,0.503,9.185,2.441,10.545,2.441c1.366,0,2.588-1.077,2.588-1.077s-1.794-1.077-2.227-1.651
				c-0.43-0.574-1.146-1.867-1.146-1.867l0.93,0.074l-1.936-1.579L15.719,57.95z"/>
			<path fill="#FFFFFF" d="M14.928,63.688c0,1.309-1.059,2.37-2.369,2.37c-1.31,0-2.363-1.062-2.363-2.37
				c0-1.308,1.054-2.364,2.363-2.364C13.869,61.324,14.928,62.381,14.928,63.688z"/>
			<path d="M80.803,57.95c0,0,4.666-1.651,5.881-1.581c1.227,0.074,2.587,7.895,2.587,7.895s-1.005,2.727-2.299,3.229
				c-1.29,0.503-9.181,2.441-10.546,2.441c-1.363,0-2.582-1.077-2.582-1.077s1.793-1.077,2.223-1.651
				c0.432-0.574,1.147-1.867,1.147-1.867l-0.933,0.074l1.938-1.579L80.803,57.95z"/>
			<path fill="#FFFFFF" d="M81.593,63.688c0,1.309,1.062,2.37,2.366,2.37c1.306,0,2.369-1.062,2.369-2.37
				c0-1.308-1.063-2.364-2.369-2.364C82.654,61.324,81.593,62.381,81.593,63.688z"/>
			<path fill="#FFFFFF" d="M30.856,13.172c0,0,6.173-2.369,13.567-1.651c0,0-1.511,3.589,3.44,3.087
				c4.949-0.502,6.534-1.004,6.534-1.004s1.648-1.221,0.139-2.225c0,0,8.543-0.717,10.842,1.723c0,0-6.176-0.145-7.182,0.357
				c-1.001,0.501-2.082,3.875-0.073,6.1l-0.14,1.147l-18.014,0.358c0,0,0.5-0.285,0.433-1.436c-0.072-1.146-0.288-6.098-1.575-6.457
				C37.529,12.813,32.94,13.172,30.856,13.172z"/>
			<g>
				<path fill="#514500" d="M28.042,42.491c-0.051-0.103-4.894-10.392-5.534-14.449l0.199-0.03
					c0.488,3.111,3.483,9.941,4.846,12.938c-1.171-4.215-2.941-13.443-2.965-13.551l0.201-0.039
					c0.02,0.125,2.376,12.367,3.436,15.055L28.042,42.491z"/>
			</g>
			<g>
				<path fill="#514500" d="M68.908,42.491l-0.182-0.077c1.059-2.688,3.414-14.93,3.436-15.055l0.199,0.039
					c-0.021,0.107-1.793,9.336-2.961,13.551c1.357-2.997,4.353-9.826,4.844-12.938l0.2,0.03
					C73.802,32.1,68.959,42.389,68.908,42.491z"/>
			</g>
			<g>
				<rect x="43.084" y="1.748" fill="#FFFFFF" width="14.372" height="4.7"/>
				<path d="M57.563,6.549H42.98v-4.9h14.582V6.549z M43.186,6.348h14.172V1.85H43.186V6.348z"/>
			</g>
			<g>
				<path d="M45.633,2.843h-1.038V2.108h2.976v0.734H46.51v3.136h-0.877V2.843z"/>
				<path d="M48.525,4.986l-0.278,0.992h-0.904l1.183-3.87h1.148l1.2,3.87h-0.938l-0.299-0.992H48.525z M49.503,4.33l-0.24-0.821
					c-0.067-0.229-0.132-0.517-0.192-0.747h-0.012c-0.056,0.23-0.111,0.523-0.178,0.747L48.652,4.33H49.503z"/>
				<path d="M53.293,5.979l-0.35-0.699c-0.145-0.271-0.238-0.472-0.35-0.696h-0.012c-0.077,0.225-0.171,0.426-0.293,0.696
					l-0.322,0.699h-0.999l1.115-1.957l-1.077-1.913h1.005l0.339,0.705c0.117,0.234,0.201,0.427,0.295,0.644h0.01
					c0.094-0.246,0.166-0.417,0.268-0.644l0.326-0.705h0.994l-1.088,1.89l1.15,1.98H53.293z"/>
				<path d="M55.652,2.108v3.87h-0.877v-3.87H55.652z"/>
			</g>
		</g>
	</g>
</g>
<g id="Guia">
</g>
</svg>
