<?xml version="1.0" encoding="utf-8"?>
<!-- Generator: Adobe Illustrator 16.0.0, SVG Export Plug-In . SVG Version: 6.00 Build 0)  -->
<!DOCTYPE svg PUBLIC "-//W3C//DTD SVG 1.1//EN" "http://www.w3.org/Graphics/SVG/1.1/DTD/svg11.dtd">
<svg version="1.1" xmlns="http://www.w3.org/2000/svg" xmlns:xlink="http://www.w3.org/1999/xlink" x="0px" y="0px"
	 width="187.333px" height="79.333px" viewBox="0 0 187.333 79.333" enable-background="new 0 0 187.333 79.333"
	 xml:space="preserve">
<g id="Marcos_y_Cintillos">
</g>
<g id="Imagenes">
	<g id="Capa_2">
	</g>
</g>
<g id="Botones">
</g>
<g id="Logo">
	<g>
		<g>
			<path fill-rule="evenodd" clip-rule="evenodd" fill="#FFFFFF" d="M77.102,53.986c-1.15,3.252-3.596,5.485-7.341,6.7
				c-2.016-1.978-4.984-4.734-8.908-8.268c-3.606-3.202-7.524-3.841-11.751-1.917c-1.137-1.703-2.255-3.63-3.36-5.78
				c-0.083-0.154-0.168-0.305-0.254-0.455c1.479-2.814,2.606-5.066,3.491-7.789c1.475-4.542,3.18-12.981,0.647-17.151
				c-1.815-2.995-4.87-2.087-7.563-0.677c1.535-1.256,3.016-2.074,4.441-2.454c1.247-0.346,2.447-0.392,3.658,0.016
				c2.749,1.743,4.031,6.495,3.848,14.254c0.835-0.568,1.137-1.162,1.464-1.701c2.007-3.298,5.649-0.411,3.525,3.27
				c10.359-0.17,20.93,1.856,23.094,12.615c-3.383-9.685-21.708-12.425-24.427-5.141C54.234,48.701,70.423,53.667,77.102,53.986
				L77.102,53.986z M46.125,52.246c-1.103-0.958-2.229-2.006-3.381-3.146c-4.874,7.848-9.114,10.571-12.723,8.168l0.01,0.015
				c0.738,1.136,1.723,1.893,2.879,2.284c1.198,0.404,2.664,0.437,4.402-0.04C41.092,57.212,44.029,54.785,46.125,52.246
				L46.125,52.246z"/>
			<path fill-rule="evenodd" clip-rule="evenodd" fill="#FFFFFF" d="M45.741,44.721c4.264,8.305,8.771,13.276,13.524,14.913
				c-4.961-0.812-10.887-4.361-17.319-11.332c-0.638-0.738-1.265-1.371-1.884-1.899c-1.919-1.638-3.813-2.283-6.326-1.498
				c-7.418,2.32-6.684,17.437,3.576,14.622c-10.576,6.132-16.155-4.333-15.01-13.92c1.297-10.821,9.379-22.96,17.157-27.729
				c3.106-1.903,7.229-3.78,10.702-1.667c-3.335-0.984-7.005,0.774-11.013,5.273c-3.706,4.352-5.568,7.809-5.596,10.371
				c1.823-1.949,3.356-2.199,4.597-0.75c0.555,1.286,0.293,2.736-0.782,4.349C40.69,37.507,43.479,40.596,45.741,44.721z"/>
			<path fill-rule="evenodd" clip-rule="evenodd" fill="#FFFFFF" d="M59.266,59.634c-0.097-0.034-0.195-0.071-0.294-0.107
				C59.07,59.564,59.169,59.601,59.266,59.634L59.266,59.634z M43.721,50.2c4.896,4.258,11.679,8.769,15.545,9.435
				c3.152,1.338,6.65,1.688,10.495,1.052c3.745-1.214,6.19-3.448,7.341-6.7c-0.146-1.655-0.497-5.104,0.508-6.545
				c0.903-1.297,2.609-1.158,3.983,0.486c0.596-0.735,0.813-1.797,0.5-3.279c-0.212-0.956-0.51-1.868-0.893-2.735
				c-1.358-3.243-3.514-5.47-6.182-6.975c6.435,3.26,10.526,8.113,12.276,14.557c2.442,12.75-11.747,19.842-22.745,16.446
				c-7.017-2.167-15.509-9.428-20.405-15.371L43.721,50.2z"/>
		</g>
		<path fill-rule="evenodd" clip-rule="evenodd" fill="#FFFFFF" d="M103.663,39.947c-1.704,1.956-2.031,5.104-0.981,9.444
			c0.494,1.154,0.276,2.062-0.658,2.726c-1.031,0.628-1.667,0.284-1.907-1.032c-0.608-3.513-0.801-7.541,0.896-10.787
			c1.85-3.539,4.741-5.105,8.675-4.699c2.888,0.494,4.159,2.157,3.812,4.989c-0.718,2.964-2.963,4.877-6.735,5.738
			c1.66,4.239,3.488,5.166,5.489,2.779c1.539-1.722,2.858-3.35,3.955-4.882c1.292-0.313,1.838,0.091,1.64,1.211
			c-0.567,4.709,0.026,6.099,1.782,4.169c1.377-2.24,2.552-4.166,3.527-5.78c0.596-0.984,0.699-1.254,1.739-1.872
			c4.858-2.891,9.803,3.698,5.923,8.899c-2.631,2.799-5.149,2.608-7.556-0.57c-0.315-0.508-0.67-1.256-1.069-2.245
			c-4.07,6.426-6.423,6.403-7.056-0.071c-4.204,6.248-7.565,6.462-10.085,0.641c-1.246-2.667-0.996-4.151,0.748-4.455
			c2.146-0.266,3.671-0.745,4.57-1.438c1.919-1.474,0.906-3.541-1.008-4.441C107.375,37.337,105.475,37.895,103.663,39.947
			L103.663,39.947z M156.514,51.885c-0.047-5.535-0.071-8.303-0.071-8.303c-0.881,0.459-1.369,0.376-1.461-0.25
			c-0.112-0.507,0.136-0.934,0.747-1.283c1.234-0.831,1.855-1.247,1.855-1.247c0.877-0.441,1.305-0.204,1.281,0.713
			c0,5.084,0,7.627,0,7.627c1.1-1.37,2.097-2.461,2.994-3.279c0.248-3.888,2.685-7.119,7.306-9.693
			c1.015-0.534,1.675,0.862,0.551,1.497c-3.545,2.337-5.118,4.25-5.54,6.664c3.682-2.048,6.211-1.763,7.59,0.855
			c1.016,2.521,0.47,4.683-1.638,6.486c-3.084,2.477-7.062,1.028-8.305-3.492c-2.66,2.731-3.991,4.098-3.991,4.098
			C156.941,52.78,156.504,52.649,156.514,51.885L156.514,51.885z M164.051,46.256c0.828,3.183,2.674,4.64,4.403,4.018
			c1.282-0.46,2.252-1.798,1.54-3.141C169.201,45.639,166.564,44.803,164.051,46.256L164.051,46.256z M149.02,41.124
			c-2.86,0-5.379,2.671-5.621,5.968c-0.006,0.067-0.01,0.135-0.013,0.203c-0.748,1.407-2.272,2.524-3.896,2.893
			c-2.115,0.479-4.406-0.256-2.258-2.542c2.686-1.998,4.622-3.779,5.667-6.13c1.261-2.4,0.372-4.729-2.21-5.667
			c-2.687-0.824-6.297,0.792-6.877,2.921c-0.167,0.93,1.069,1.048,2.101,0.144c1.183-1.036,2.489-1.191,3.923-0.463
			c1.408,1.282,1.29,2.954-0.359,5.015c-1.769,2.21-5.637,3.706-5.736,6.603c0,3.571,6.046,3.809,9.908-0.463l0.029-0.049
			c0.661,2.065,2.365,3.502,4.462,3.502c2.861,0,5.382-2.672,5.622-5.967C154.006,43.794,151.883,41.124,149.02,41.124
			L149.02,41.124z M148.066,43.721c1.697,0,3.315,1.509,3.611,3.37c0.297,1.86-0.841,3.369-2.54,3.369
			c-1.697,0-3.314-1.509-3.61-3.369C145.232,45.23,146.367,43.721,148.066,43.721L148.066,43.721z M117.634,39.342
			c-0.926,0-1.677,0.75-1.677,1.675s0.751,1.674,1.677,1.674c0.924,0,1.672-0.749,1.672-1.674S118.558,39.342,117.634,39.342
			L117.634,39.342z M126.061,43.582c-1.308,0-1.891,1.492-1.299,3.332c0.591,1.84,2.131,3.333,3.44,3.333s1.89-1.493,1.299-3.333
			S127.37,43.582,126.061,43.582z"/>
	</g>
</g>
<g id="Iconos">
</g>
<g id="TXT">
</g>
<g id="Guias">
</g>
</svg>
