<?xml version="1.0" encoding="utf-8"?>
<!-- Generator: Adobe Illustrator 16.0.0, SVG Export Plug-In . SVG Version: 6.00 Build 0)  -->
<!DOCTYPE svg PUBLIC "-//W3C//DTD SVG 1.1//EN" "http://www.w3.org/Graphics/SVG/1.1/DTD/svg11.dtd">
<svg version="1.1" xmlns="http://www.w3.org/2000/svg" xmlns:xlink="http://www.w3.org/1999/xlink" x="0px" y="0px"
	 width="66.814px" height="70.497px" viewBox="0 0 66.814 70.497" enable-background="new 0 0 66.814 70.497" xml:space="preserve">
<g id="Marcos_y_Cintillos">
</g>
<g id="Imagenes">
	<g id="Capa_2">
	</g>
</g>
<g id="Botones">
</g>
<g id="Logo">
</g>
<g id="Iconos">
	<g>
		<rect x="19.814" y="31.833" fill="#0E65AB" width="6" height="5"/>
		<rect x="26.814" y="31.833" fill="#0E65AB" width="6" height="5"/>
		<rect x="33.814" y="31.833" fill="#0E65AB" width="6" height="5"/>
		<rect x="40.814" y="31.833" fill="#0E65AB" width="6" height="5"/>
		<rect x="19.814" y="37.833" fill="#0E65AB" width="6" height="5"/>
		<rect x="26.814" y="37.833" fill="#0E65AB" width="6" height="5"/>
		<rect x="40.814" y="37.833" fill="#0E65AB" width="6" height="5"/>
		<rect x="19.814" y="43.833" fill="#0E65AB" width="6" height="5"/>
		<rect x="26.814" y="43.833" fill="#0E65AB" width="6" height="5"/>
		<rect x="33.814" y="43.833" fill="#0E65AB" width="6" height="5"/>
		<rect x="40.814" y="43.833" fill="#0E65AB" width="6" height="5"/>
		<g>
			<polygon fill="#0E65AB" points="36.283,43.401 33.64,40.988 34.988,39.511 36.179,40.599 38.421,38.229 39.875,39.604 			"/>
		</g>
		<g>
			<path fill="#0E65AB" d="M24.773,23.75c-0.853,0-1.543-0.746-1.543-1.667V16.75c0-0.921,0.69-1.667,1.543-1.667
				c0.852,0,1.541,0.746,1.541,1.667v5.333C26.314,23.004,25.625,23.75,24.773,23.75z"/>
		</g>
		<g>
			<path fill="#0E65AB" d="M43.835,23.75c-0.818,0-1.48-0.746-1.48-1.667V16.75c0-0.921,0.662-1.667,1.48-1.667
				c0.816,0,1.479,0.746,1.479,1.667v5.333C45.314,23.004,44.652,23.75,43.835,23.75z"/>
		</g>
		<path fill="none" d="M47.734,29.833H19.041c-1.105,0-2.227,0.501-2.227,1.278v19.504c0,0.777,1.121,1.218,2.227,1.218h28.693
			c1.105,0,2.08-0.44,2.08-1.218V31.111C49.814,30.334,48.839,29.833,47.734,29.833z"/>
		<path fill="#0E65AB" d="M49.705,18.833h-3.891v3.25c0,1.197-0.804,2.167-2,2.167s-2-0.97-2-2.167v-3.25h-15v3.25
			c0,1.197-0.804,2.167-2,2.167s-2-0.97-2-2.167v-3.25h-5.723c-1.258,0-2.277,1.4-2.277,2.613v30.44c0,1.213,1.02,1.946,2.277,1.946
			h32.613c1.256,0,2.109-0.733,2.109-1.946v-30.44C51.814,20.233,50.96,18.833,49.705,18.833z M49.814,50.615
			c0,0.777-0.975,1.218-2.08,1.218H19.041c-1.105,0-2.227-0.44-2.227-1.218V31.111c0-0.777,1.121-1.278,2.227-1.278h28.693
			c1.105,0,2.08,0.501,2.08,1.278V50.615z"/>
	</g>
</g>
<g id="TXT">
</g>
<g id="Guias">
</g>
</svg>
