<?xml version="1.0" encoding="utf-8"?>
<!-- Generator: Adobe Illustrator 15.0.0, SVG Export Plug-In . SVG Version: 6.00 Build 0)  -->
<!DOCTYPE svg PUBLIC "-//W3C//DTD SVG 1.1//EN" "http://www.w3.org/Graphics/SVG/1.1/DTD/svg11.dtd">
<svg version="1.1" id="Capa_1" xmlns="http://www.w3.org/2000/svg" xmlns:xlink="http://www.w3.org/1999/xlink" x="0px" y="0px"
	 width="40.68px" height="36.629px" viewBox="0 0 40.68 36.629" enable-background="new 0 0 40.68 36.629" xml:space="preserve">
<g>
	<path fill="#666666" d="M35.961,10.949l-5.352-4.9c-0.217-0.162-0.478-0.248-0.748-0.248H10.805c-0.27,0-0.53,0.086-0.745,0.248
		l-5.481,5.004c0,0-0.504,0.322-0.504,1.006v2.502c0,0.689,0.561,1.252,1.25,1.252h30.03c0.689,0,1.252-0.563,1.252-1.252v-2.502
		C36.606,11.393,35.961,10.949,35.961,10.949z"/>
	<path fill="#666666" d="M6.576,30.828c-0.688,0-1.252-0.563-1.252-1.252V14.561h3.755v15.016c0,0.689-0.563,1.252-1.253,1.252
		H6.576z"/>
	<path fill="#666666" d="M32.852,30.828c-0.688,0-1.25-0.563-1.25-1.252V14.561h3.753v15.016c0,0.689-0.561,1.252-1.25,1.252H32.852
		z"/>
	<path fill="#666666" d="M29.1,24.57c-0.689,0-1.252-0.563-1.252-1.25v-6.256h2.502v6.256C30.35,24.008,29.789,24.57,29.1,24.57
		L29.1,24.57z"/>
	<path fill="#666666" d="M11.581,24.57c-0.688,0-1.252-0.563-1.252-1.25v-6.256h2.503v6.256
		C12.832,24.008,12.271,24.57,11.581,24.57L11.581,24.57z"/>
</g>
</svg>
