<?xml version="1.0" encoding="utf-8"?>
<!-- Generator: Adobe Illustrator 15.0.0, SVG Export Plug-In . SVG Version: 6.00 Build 0)  -->
<!DOCTYPE svg PUBLIC "-//W3C//DTD SVG 1.1//EN" "http://www.w3.org/Graphics/SVG/1.1/DTD/svg11.dtd">
<svg version="1.1" id="Capa_1" xmlns="http://www.w3.org/2000/svg" xmlns:xlink="http://www.w3.org/1999/xlink" x="0px" y="0px"
	 width="66.5px" height="55.75px" viewBox="0 0 66.5 55.75" enable-background="new 0 0 66.5 55.75" xml:space="preserve">
<g>
	<path fill="#FFFFFF" d="M8.298,28.408l-4.86,4.148l6.381-0.252c-0.354-0.593-0.666-1.224-0.923-1.886
		C8.636,29.758,8.437,29.088,8.298,28.408z"/>
	<path fill="#FFFFFF" d="M30.361,22.016c0.079,0.197,0.136,0.396,0.201,0.59c0.302-0.893,0.691-1.75,1.152-2.562l-2.279,0.091
		C29.79,20.727,30.101,21.354,30.361,22.016z"/>
	<path fill="#FFFFFF" d="M28.343,18.66l2.132-6.022l-5.397,3.412c0.604,0.332,1.185,0.721,1.744,1.164
		C27.377,17.658,27.886,18.145,28.343,18.66z"/>
	<path fill="#FFFFFF" d="M23.394,15.311l-1.162-6.277l-2.969,5.653c0.691-0.014,1.388,0.029,2.091,0.136
		C22.058,14.933,22.741,15.094,23.394,15.311z"/>
	<path fill="#FFFFFF" d="M15.424,15.487c0.662-0.26,1.336-0.458,2.012-0.597l-4.149-4.854l0.254,6.376
		C14.131,16.061,14.762,15.743,15.424,15.487z"/>
	<path fill="#FFFFFF" d="M10.621,19.027c0.447-0.558,0.928-1.065,1.443-1.523l-6.02-2.134l3.412,5.401
		C9.788,20.165,10.177,19.582,10.621,19.027z"/>
	<path fill="#FFFFFF" d="M8.232,24.494c0.104-0.707,0.273-1.387,0.486-2.037l-6.277,1.158l5.653,2.972
		C8.081,25.896,8.125,25.195,8.232,24.494z"/>
	<path fill="#FFFFFF" d="M16.043,32.372c1.466,0,1.4,0.343,1.4,0c0-4.495,3.646-8.137,8.146-8.137c1.127,0,2.192,0.237,3.167,0.652
		c-0.569-3.917-3.632-7.166-7.75-7.79c-5.038-0.759-9.739,2.705-10.502,7.743c-0.465,3.067,0.644,6.002,2.719,8.014
		C14.107,32.546,15.056,32.372,16.043,32.372z"/>
	<path fill="#FFFFFF" d="M54.825,28.952C54.637,22.315,49.203,16.99,42.52,16.99c-6.313,0-11.513,4.747-12.231,10.866
		c-1.072-0.673-2.341-1.063-3.694-1.063c-3.85,0-6.97,3.113-6.97,6.96c0,0.292,0.053,0-1.197,0c-4.129,0-7.481,3.353-7.481,7.481
		c0,3.766,2.782,6.879,6.4,7.402c0.281,0.055,0.573,0.077,0.877,0.077h35.292c0.127,0,0.166-0.01,0.17-0.022
		c0.162,0.006,0.313,0.022,0.475,0.022c5.468,0,9.896-4.433,9.896-9.896C64.059,33.572,59.982,29.297,54.825,28.952z"/>
</g>
</svg>
