<?xml version="1.0" encoding="utf-8"?>
<!-- Generator: Adobe Illustrator 15.0.0, SVG Export Plug-In . SVG Version: 6.00 Build 0)  -->
<!DOCTYPE svg PUBLIC "-//W3C//DTD SVG 1.1//EN" "http://www.w3.org/Graphics/SVG/1.1/DTD/svg11.dtd">
<svg version="1.1" id="Capa_1" xmlns="http://www.w3.org/2000/svg" xmlns:xlink="http://www.w3.org/1999/xlink" x="0px" y="0px"
	 width="37.823px" height="40.462px" viewBox="0 0 37.823 40.462" enable-background="new 0 0 37.823 40.462" xml:space="preserve">
<g>
	<path fill="#FFFFFF" d="M25.169,20.642c-1.722-1.629-2.994-2.851-3.83-3.615c-0.59-0.54-0.98-0.596-1.183-0.596
		c-0.193,0-5.134,0-5.709,0c-0.576,0-0.891,0.107-1.186,0.596c-0.292,0.489-1.903,2.406-2.266,3.048
		c-2.391,0.499-2.74,0.954-2.74,1.665c0,0.404,0,3.064,0,3.064c0,0.385,0.964,1.395,1.332,1.395h0.597
		c0.367,1.035,1.352,1.776,2.512,1.776c1.159,0,2.143-0.741,2.507-1.776h8.303c0.365,1.035,1.35,1.776,2.51,1.776
		c1.214,0,2.236-0.813,2.557-1.923c0.43-0.295,0.995-0.953,0.995-1.248c0,0,0-2.1,0-2.503C29.567,21.62,28.167,21.232,25.169,20.642
		z M12.636,20.093c0.343-0.477,1.156-1.525,1.346-1.791c0.248-0.346,0.409-0.459,0.847-0.459c0.183,0,1.105,0,2.116,0v3.027
		c-2.045,0-3.875,0-4.106,0C12.433,20.87,12.242,20.64,12.636,20.093z M12.695,26.642c-0.735,0-1.332-0.598-1.332-1.331
		c0-0.735,0.597-1.332,1.332-1.332c0.733,0,1.331,0.597,1.331,1.332C14.026,26.044,13.429,26.642,12.695,26.642z M17.326,20.87
		v-3.027c1.297,0,2.61,0,2.61,0c0.341,0,0.707,0.154,0.952,0.372c0.339,0.302,1.7,1.585,2.234,2.101
		c0.478,0.458,0.258,0.554-0.095,0.554C23.028,20.87,20.061,20.87,17.326,20.87z M26.016,26.642c-0.735,0-1.332-0.598-1.332-1.331
		c0-0.735,0.597-1.332,1.332-1.332s1.332,0.597,1.332,1.332C27.348,26.044,26.751,26.642,26.016,26.642z"/>
</g>
</svg>
