<?xml version="1.0" encoding="utf-8"?>
<!-- Generator: Adobe Illustrator 15.0.0, SVG Export Plug-In . SVG Version: 6.00 Build 0)  -->
<!DOCTYPE svg PUBLIC "-//W3C//DTD SVG 1.1//EN" "http://www.w3.org/Graphics/SVG/1.1/DTD/svg11.dtd">
<svg version="1.1" id="Capa_1" xmlns="http://www.w3.org/2000/svg" xmlns:xlink="http://www.w3.org/1999/xlink" x="0px" y="0px"
	 width="37.823px" height="40.462px" viewBox="0 0 37.823 40.462" enable-background="new 0 0 37.823 40.462" xml:space="preserve">
<g>
	<g>
		<path fill="#FFFFFF" d="M30.556,34.675H7.435c-1.896,0-3.439-1.544-3.439-3.441V8.116c0-1.898,1.543-3.441,3.439-3.441h23.121
			c1.896,0,3.439,1.543,3.439,3.441v23.118C33.995,33.131,32.451,34.675,30.556,34.675z M7.435,6.175
			c-1.069,0-1.939,0.872-1.939,1.941v23.118c0,1.07,0.87,1.941,1.939,1.941h23.121c1.069,0,1.939-0.871,1.939-1.941V8.116
			c0-1.069-0.87-1.941-1.939-1.941H7.435z"/>
	</g>
</g>
<g>
	<path fill="#FFFFFF" d="M11.299,19.675l8.045,8.045c0.578,0.578,0.578,1.516,0,2.094s-1.516,0.578-2.094,0l-9.093-9.092
		c-0.289-0.289-0.433-0.668-0.433-1.047c0-0.379,0.145-0.758,0.433-1.047l9.093-9.092c0.578-0.578,1.516-0.578,2.094,0
		c0.578,0.579,0.578,1.516,0,2.094L11.299,19.675z M28.562,11.63c0.578-0.578,0.578-1.516,0-2.094c-0.579-0.578-1.516-0.578-2.095,0
		l-9.092,9.092c-0.29,0.289-0.434,0.668-0.434,1.047c0,0.378,0.145,0.758,0.434,1.047l9.092,9.092c0.579,0.578,1.516,0.578,2.095,0
		c0.578-0.578,0.578-1.516,0-2.094l-8.046-8.045L28.562,11.63z"/>
</g>
</svg>
