<?xml version="1.0" encoding="utf-8"?>
<!-- Generator: Adobe Illustrator 15.0.0, SVG Export Plug-In . SVG Version: 6.00 Build 0)  -->
<!DOCTYPE svg PUBLIC "-//W3C//DTD SVG 1.1//EN" "http://www.w3.org/Graphics/SVG/1.1/DTD/svg11.dtd">
<svg version="1.1" id="Capa_1" xmlns="http://www.w3.org/2000/svg" xmlns:xlink="http://www.w3.org/1999/xlink" x="0px" y="0px"
	 width="30px" height="26px" viewBox="0 0 30 26" enable-background="new 0 0 30 26" xml:space="preserve">
<g>
	<path fill="#FFFFFF" d="M22.363,8.572V6.358H6.866v12.177c0,0.611,0.496,1.107,1.107,1.107h14.944c0.917,0,1.66-0.744,1.66-1.661
		v-9.41H22.363z M21.258,18.535H7.974V7.465h13.284V18.535z M9.08,9.679h11.07v1.107H9.08V9.679z M15.722,11.893h4.429V13h-4.429
		V11.893z M15.722,14.107h4.429v1.107h-4.429V14.107z M15.722,16.321h3.321v1.107h-3.321V16.321z M9.08,11.893h5.535v5.535H9.08
		V11.893z"/>
</g>
</svg>
