<?xml version="1.0" encoding="utf-8"?>
<!-- Generator: Adobe Illustrator 15.0.0, SVG Export Plug-In . SVG Version: 6.00 Build 0)  -->
<!DOCTYPE svg PUBLIC "-//W3C//DTD SVG 1.1//EN" "http://www.w3.org/Graphics/SVG/1.1/DTD/svg11.dtd">
<svg version="1.1" id="Capa_1" xmlns="http://www.w3.org/2000/svg" xmlns:xlink="http://www.w3.org/1999/xlink" x="0px" y="0px"
	 width="40.68px" height="36.629px" viewBox="0 0 40.68 36.629" enable-background="new 0 0 40.68 36.629" xml:space="preserve">
<path fill="#666666" d="M13.328,8.051c0-2.201,1.783-3.984,3.985-3.984c2.2,0,3.984,1.783,3.984,3.984s-1.784,3.986-3.984,3.986
	C15.111,12.037,13.328,10.252,13.328,8.051z M19.229,14.752c0.04-0.869,0.339-1.672,0.819-2.336
	c-0.337-0.07-0.687-0.107-1.044-0.107h-3.382c-0.356,0-0.704,0.037-1.039,0.107c0.511,0.709,0.816,1.576,0.821,2.514
	c0.622-0.342,1.335-0.537,2.094-0.537C18.111,14.393,18.697,14.521,19.229,14.752z M19.902,15.109
	c1.158,0.725,1.971,1.953,2.118,3.379c0.472,0.221,0.996,0.348,1.552,0.348c2.028,0,3.672-1.645,3.672-3.672
	s-1.644-3.672-3.672-3.672C21.563,11.492,19.934,13.107,19.902,15.109z M17.498,22.629c2.026,0,3.671-1.646,3.671-3.674
	s-1.645-3.672-3.671-3.672c-2.029,0-3.674,1.645-3.674,3.672S15.469,22.629,17.498,22.629z M19.055,22.877h-3.115
	c-2.592,0-4.701,2.109-4.701,4.703v3.811l0.009,0.059l0.264,0.082c2.473,0.773,4.622,1.031,6.392,1.031
	c3.455,0,5.458-0.986,5.581-1.049l0.246-0.123h0.026V27.58C23.756,24.986,21.647,22.877,19.055,22.877z M25.131,19.088h-3.094
	c-0.032,1.236-0.561,2.35-1.395,3.15c2.304,0.686,3.989,2.822,3.989,5.346v1.176c3.053-0.113,4.812-0.977,4.928-1.035l0.245-0.125
	h0.026v-3.813C29.831,21.197,27.722,19.088,25.131,19.088z M25.957,11.416c1.157,0.725,1.969,1.953,2.117,3.379
	c0.472,0.221,0.995,0.348,1.551,0.348c2.028,0,3.672-1.645,3.672-3.672s-1.644-3.672-3.672-3.672
	C27.615,7.799,25.987,9.414,25.957,11.416z M31.183,15.393h-3.091c-0.033,1.236-0.562,2.352-1.396,3.152
	c2.305,0.684,3.99,2.822,3.99,5.346v1.174c3.052-0.111,4.811-0.977,4.928-1.035l0.245-0.123h0.026v-3.814
	C35.885,17.502,33.775,15.393,31.183,15.393z M11.055,18.836c0.719,0,1.386-0.209,1.953-0.566c0.18-1.174,0.81-2.199,1.707-2.898
	c0.005-0.068,0.011-0.137,0.011-0.207c0-2.027-1.644-3.672-3.671-3.672c-2.028,0-3.672,1.645-3.672,3.672
	C7.383,17.193,9.026,18.836,11.055,18.836z M14.352,22.238c-0.83-0.797-1.356-1.904-1.396-3.133
	c-0.114-0.01-0.228-0.018-0.345-0.018H9.497c-2.594,0-4.702,2.109-4.702,4.701V27.6l0.01,0.059l0.262,0.082
	c1.985,0.619,3.757,0.906,5.295,0.994v-1.15C10.361,25.061,12.047,22.924,14.352,22.238z"/>
</svg>
