<?xml version="1.0" encoding="utf-8"?>
<!-- Generator: Adobe Illustrator 15.0.0, SVG Export Plug-In . SVG Version: 6.00 Build 0)  -->
<!DOCTYPE svg PUBLIC "-//W3C//DTD SVG 1.1//EN" "http://www.w3.org/Graphics/SVG/1.1/DTD/svg11.dtd">
<svg version="1.1" id="Capa_1" xmlns="http://www.w3.org/2000/svg" xmlns:xlink="http://www.w3.org/1999/xlink" x="0px" y="0px"
	 width="800px" height="74.26px" viewBox="0 0 800 74.26" enable-background="new 0 0 800 74.26" xml:space="preserve">
<g>
	<polygon fill="#E31B21" points="27.071,35.364 27.021,35.625 27.173,35.467 	"/>
	<polygon fill="#21B9E9" points="44.799,42.733 42.606,32.124 55.169,20.036 61.617,27.35 	"/>
	<linearGradient id="SVGID_1_" gradientUnits="userSpaceOnUse" x1="54.6777" y1="25.2925" x2="77.3945" y2="25.2925">
		<stop  offset="0.2822" style="stop-color:#038562"/>
		<stop  offset="0.7914" style="stop-color:#00A79E"/>
	</linearGradient>
	<polygon fill="url(#SVGID_1_)" points="77.395,30.356 70.781,36.846 54.678,20.228 61.292,13.739 	"/>
	<linearGradient id="SVGID_2_" gradientUnits="userSpaceOnUse" x1="21.9473" y1="10.7114" x2="34.5791" y2="10.7114">
		<stop  offset="0" style="stop-color:#008AC1"/>
		<stop  offset="1" style="stop-color:#8BF8FF"/>
	</linearGradient>
	<polygon fill="url(#SVGID_2_)" points="34.579,10.712 28.264,17.067 21.947,10.712 28.264,4.356 	"/>
	<linearGradient id="SVGID_3_" gradientUnits="userSpaceOnUse" x1="55.4614" y1="10.7114" x2="41.3635" y2="10.7114">
		<stop  offset="0" style="stop-color:#008AC1"/>
		<stop  offset="1" style="stop-color:#8BF8FF"/>
	</linearGradient>
	<polygon fill="url(#SVGID_3_)" points="57.582,10.712 51.266,17.067 44.95,10.712 51.266,4.356 	"/>
	<polygon fill="#01B0E4" points="19.742,36.434 13.426,42.79 7.11,36.434 13.426,30.079 	"/>
	<polygon fill="#F1931C" points="35.708,38.018 30.237,64.872 20.408,64.872 26.923,36.129 	"/>
	<g>
		<polygon fill="#FBD800" points="17.636,53.563 15.119,51.451 13.703,51.451 14.102,61.465 20.4,55.229 17.636,57.594 		"/>
		<rect x="22.673" y="44.991" fill="#FBD800" width="1.221" height="1.23"/>
		<polygon fill="#FBD800" points="21.757,41.131 18.929,44.069 21.757,44.069 		"/>
		<polygon fill="#FBD800" points="24.811,46.221 25.012,46.221 25.249,44.991 24.811,44.991 		"/>
		<path fill="#FBD800" d="M23.894,47.143h-1.221v3.569h-0.916v-3.569h-3.548v-0.922h3.548v-1.23h-3.548v-0.17l-3.474,3.61
			c0,0.009,0.001,0.017,0.001,0.024c0,0.508-0.408,0.919-0.91,0.922l-0.196,0.203l0.031,0.795h1.838l1.908,1.459v-3.379h3.282v2.228
			h-0.916v-1.151h-1.106v5.451l2.022-1.612v1.573l3.265-3.23l0.192-1.001h-0.253V47.143z M16.797,48.264
			c-0.358,0-0.648-0.291-0.648-0.652c0-0.36,0.29-0.652,0.648-0.652c0.357,0,0.648,0.293,0.648,0.652
			C17.445,47.973,17.154,48.265,16.797,48.264z"/>
		<polygon fill="#FBD800" points="22.673,44.069 23.894,44.069 23.894,40.5 24.811,40.5 24.811,44.069 25.426,44.069 27.051,35.625 
			22.363,40.5 22.673,40.5 		"/>
		<polygon fill="#FBD800" points="24.811,47.268 24.833,47.143 24.811,47.143 		"/>
		<polygon fill="#F8D100" points="24.833,47.143 28.358,47.143 28.358,46.221 25.012,46.221 		"/>
		<polygon fill="#F8D100" points="24.811,46.221 24.811,47.143 24.833,47.143 25.012,46.221 		"/>
		<rect x="22.673" y="46.221" fill="#F8D100" width="1.221" height="0.922"/>
		<rect x="18.209" y="46.221" fill="#F8D100" width="3.548" height="0.922"/>
		<polygon fill="#F8D100" points="28.358,44.991 28.358,44.069 25.426,44.069 25.249,44.991 		"/>
		<polygon fill="#F8D100" points="21.757,44.991 21.757,44.069 18.929,44.069 18.209,44.821 18.209,44.991 		"/>
		<rect x="22.673" y="44.069" fill="#F8D100" width="1.221" height="0.922"/>
		<polygon fill="#F8D100" points="24.811,44.991 25.249,44.991 25.426,44.069 24.811,44.069 		"/>
		<polygon fill="#F8D100" points="24.811,50.712 24.811,47.268 24.146,50.712 		"/>
		<rect x="23.894" y="40.5" fill="#F8D100" width="0.917" height="3.568"/>
		<rect x="23.894" y="44.991" fill="#F8D100" width="0.917" height="1.23"/>
		<polygon fill="#F8D100" points="23.894,47.143 23.894,50.712 24.146,50.712 24.811,47.268 24.811,47.143 		"/>
		<rect x="23.894" y="46.221" fill="#F8D100" width="0.917" height="0.922"/>
		<rect x="23.894" y="44.069" fill="#F8D100" width="0.917" height="0.922"/>
		<rect x="21.757" y="44.991" fill="#F8D100" width="0.916" height="1.23"/>
		<polygon fill="#F8D100" points="22.673,44.069 22.673,40.5 22.363,40.5 21.757,41.131 21.757,44.069 		"/>
		<rect x="21.757" y="47.143" fill="#F8D100" width="0.916" height="3.569"/>
		<rect x="21.757" y="46.221" fill="#F8D100" width="0.916" height="0.922"/>
		<rect x="21.757" y="44.069" fill="#F8D100" width="0.916" height="0.922"/>
		<path fill="#F8D100" d="M14.736,48.456c0-0.008-0.001-0.016-0.001-0.024l-0.909,0.946C14.328,49.375,14.736,48.963,14.736,48.456z
			"/>
		<circle fill="#F8D100" cx="16.797" cy="47.612" r="0.652"/>
		<polygon fill="#F8D100" points="20.689,54.983 20.689,54.944 20.4,55.229 		"/>
		<polygon fill="#F8D100" points="18.667,54.983 18.667,49.532 19.773,49.532 19.773,50.683 20.689,50.683 20.689,48.456 
			17.407,48.456 17.407,51.834 15.499,50.375 13.661,50.375 13.703,51.451 15.119,51.451 17.636,53.563 17.636,57.594 20.4,55.229 
			20.689,54.944 20.689,53.371 		"/>
	</g>
	<polygon fill="#E31B21" points="33.687,41.965 27.176,35.467 27.023,35.625 23.927,51.713 31.188,44.526 	"/>
	<g>
		<polygon fill="#D2108D" points="43.795,38.018 49.266,64.872 59.094,64.872 52.58,36.129 		"/>
		<g>
			<g>
				<polygon fill="#E01B23" points="79.755,64.127 68.861,65.342 55.548,51.713 52.452,35.625 				"/>
			</g>
			<polygon fill="#F68C1F" points="45.815,41.965 52.326,35.467 52.479,35.625 55.576,51.713 48.314,44.526 			"/>
		</g>
	</g>
	<linearGradient id="SVGID_4_" gradientUnits="userSpaceOnUse" x1="39.874" y1="71.7544" x2="39.874" y2="56.2323">
		<stop  offset="0.3374" style="stop-color:#B84616"/>
		<stop  offset="0.8282" style="stop-color:#EE781E"/>
	</linearGradient>
	<ellipse fill="url(#SVGID_4_)" cx="39.874" cy="64.209" rx="7.16" ry="7.051"/>
	<g>
		<linearGradient id="SVGID_5_" gradientUnits="userSpaceOnUse" x1="16.6787" y1="27.4722" x2="28.0915" y2="45.5792">
			<stop  offset="0" style="stop-color:#D0DA1E"/>
			<stop  offset="0.546" style="stop-color:#7AAC37"/>
		</linearGradient>
		<polygon fill="url(#SVGID_5_)" points="12.315,20.983 12.758,21.417 12.632,20.62 		"/>
		<linearGradient id="SVGID_6_" gradientUnits="userSpaceOnUse" x1="23.0522" y1="23.4761" x2="34.5211" y2="41.672">
			<stop  offset="0" style="stop-color:#D0DA1E"/>
			<stop  offset="0.546" style="stop-color:#7AAC37"/>
		</linearGradient>
		<polygon fill="url(#SVGID_6_)" points="36.863,32.291 28.058,23.325 14.701,23.325 34.715,42.891 		"/>
		<polygon fill="#88BB3C" points="18.644,13.739 12.632,20.62 12.758,21.417 14.701,23.325 28.058,23.325 		"/>
	</g>
	<polygon opacity="0.56" fill="#21367D" points="39.837,27.534 41.798,33.598 48.123,33.598 43.007,37.34 44.959,43.399 
		39.837,39.659 34.712,43.399 36.674,37.34 31.547,33.598 37.879,33.598 	"/>
	<g>
		<g>
			<path fill="#B91419" d="M71.647,60.013c-1.13-0.032-2.07,0.864-2.103,2.001c-0.03,1.136,0.859,2.082,1.989,2.113
				c1.128,0.033,2.069-0.863,2.101-2C73.667,60.991,72.776,60.045,71.647,60.013z M71.547,63.635
				c-0.859-0.023-1.537-0.744-1.512-1.607c0.023-0.865,0.738-1.547,1.598-1.521c0.859,0.023,1.535,0.744,1.512,1.607
				C73.122,62.979,72.406,63.66,71.547,63.635z"/>
			<circle fill="#B91419" cx="71.609" cy="62.133" r="0.471"/>
			<polygon fill="#B91419" points="69.184,64.729 68.901,64.433 74.036,59.415 74.322,59.709 			"/>
		</g>
		<g>
			
				<rect x="64.754" y="53.208" transform="matrix(0.9996 0.0278 -0.0278 0.9996 1.5817 -1.7868)" fill="#B91419" width="0.491" height="5.476"/>
			
				<rect x="65.9" y="53.241" transform="matrix(0.9996 0.0278 -0.0278 0.9996 1.583 -1.8186)" fill="#B91419" width="0.491" height="5.475"/>
			
				<rect x="65.309" y="53.818" transform="matrix(0.0257 -0.9997 0.9997 0.0257 7.353 120.6215)" fill="#B91419" width="0.494" height="5.442"/>
			
				<rect x="65.342" y="52.665" transform="matrix(0.0296 -0.9996 0.9996 0.0296 8.2844 119.3051)" fill="#B91419" width="0.494" height="5.441"/>
			<g>
				<circle fill="#B91419" cx="70.683" cy="57.649" r="0.49"/>
				<circle fill="#B91419" cx="69.1" cy="57.153" r="0.348"/>
				<polygon fill="#B91419" points="66.969,58.741 67.459,58.754 67.477,58.137 68.071,58.153 67.99,61.075 66.93,60.18 
					66.905,61.044 68.502,62.489 68.563,60.329 69.944,59.235 71.538,59.28 71.553,58.704 69.755,58.653 68.709,59.407 
					68.76,57.596 67.002,57.547 				"/>
			</g>
			<g>
				<circle fill="#B91419" cx="64.196" cy="50.817" r="0.494"/>
				<circle fill="#B91419" cx="64.601" cy="52.434" r="0.35"/>
				<polygon fill="#B91419" points="62.909,54.488 62.92,53.995 63.536,54.01 63.551,53.415 60.648,53.333 61.476,54.448 
					60.618,54.424 59.273,52.739 61.419,52.798 62.583,51.472 62.625,49.868 63.2,49.883 63.149,51.694 62.343,52.702 64.143,52.75 
					64.094,54.52 				"/>
			</g>
			<g>
				<path fill="#B91419" d="M59.749,47.5c-1.129-0.031-2.069,0.865-2.103,2c-0.03,1.137,0.86,2.084,1.99,2.115
					c1.128,0.031,2.069-0.863,2.1-2C61.768,48.479,60.878,47.532,59.749,47.5z M59.649,51.124c-0.859-0.025-1.536-0.744-1.512-1.609
					c0.023-0.863,0.74-1.545,1.598-1.521c0.859,0.024,1.535,0.743,1.512,1.608C61.223,50.465,60.507,51.147,59.649,51.124z"/>
				<circle fill="#B91419" cx="59.71" cy="49.621" r="0.471"/>
				<polygon fill="#B91419" points="57.288,52.215 57.002,51.92 62.138,46.901 62.423,47.198 				"/>
			</g>
			<polygon fill="#B91419" points="73.776,58.858 73.394,59.229 62.944,48.323 63.327,47.951 			"/>
			<polygon fill="#B91419" points="68.575,63.592 68.192,63.963 57.743,53.056 58.125,52.686 			"/>
		</g>
	</g>
	<g>
		<polygon fill="#00539F" points="37.759,33.422 39.82,27.161 41.722,33.262 39.939,35.137 		"/>
		<polygon fill="#4C9138" points="31.219,33.461 36.65,33.461 35.936,36.932 		"/>
		<polygon fill="#17428E" points="39.939,35.137 35.817,39.245 36.452,37.411 35.936,36.932 36.65,33.461 37.759,33.422 		"/>
		<polygon fill="#243A85" points="39.74,39.803 34.589,43.631 35.817,39.245 39.939,35.137 43.744,39.245 45.052,43.631 		"/>
		<polygon fill="#0168A9" points="42.912,33.307 43.744,36.932 43.189,37.33 43.744,39.245 39.939,35.137 41.722,33.262 		"/>
		<polygon fill="#008FC6" points="48.382,33.461 43.744,36.932 42.912,33.307 		"/>
	</g>
	<polygon fill="#C4178D" points="65.567,42.124 59.99,36.512 65.271,31.198 70.849,36.809 	"/>
</g>
<g>
	<polygon fill="#E31B21" points="764.887,35.364 764.938,35.625 764.785,35.467 	"/>
	<polygon fill="#21B9E9" points="747.159,42.733 749.352,32.124 736.789,20.036 730.341,27.35 	"/>
	
		<linearGradient id="SVGID_7_" gradientUnits="userSpaceOnUse" x1="8625.4863" y1="25.2925" x2="8648.2031" y2="25.2925" gradientTransform="matrix(-1 0 0 1 9362.7656 0)">
		<stop  offset="0.2822" style="stop-color:#038562"/>
		<stop  offset="0.7914" style="stop-color:#00A79E"/>
	</linearGradient>
	<polygon fill="url(#SVGID_7_)" points="714.563,30.356 721.177,36.846 737.28,20.228 730.666,13.739 	"/>
	
		<linearGradient id="SVGID_8_" gradientUnits="userSpaceOnUse" x1="8592.7549" y1="10.7114" x2="8605.3867" y2="10.7114" gradientTransform="matrix(-1 0 0 1 9362.7656 0)">
		<stop  offset="0" style="stop-color:#008AC1"/>
		<stop  offset="1" style="stop-color:#8BF8FF"/>
	</linearGradient>
	<polygon fill="url(#SVGID_8_)" points="757.379,10.712 763.694,17.067 770.011,10.712 763.694,4.356 	"/>
	
		<linearGradient id="SVGID_9_" gradientUnits="userSpaceOnUse" x1="8626.2695" y1="10.71" x2="8612.1709" y2="10.71" gradientTransform="matrix(-1 0 0 1 9362.7656 0)">
		<stop  offset="0" style="stop-color:#008AC1"/>
		<stop  offset="1" style="stop-color:#8BF8FF"/>
	</linearGradient>
	<polygon fill="url(#SVGID_9_)" points="734.376,10.712 740.692,17.067 747.008,10.712 740.692,4.356 	"/>
	<polygon fill="#01B0E4" points="772.216,36.434 778.532,42.79 784.848,36.434 778.532,30.079 	"/>
	<polygon fill="#F1931C" points="756.25,38.018 761.721,64.872 771.55,64.872 765.035,36.129 	"/>
	<g>
		<polygon fill="#FBD800" points="774.322,53.563 776.839,51.451 778.255,51.451 777.856,61.465 771.558,55.229 774.322,57.594 		
			"/>
		<rect x="768.064" y="44.991" fill="#FBD800" width="1.221" height="1.23"/>
		<polygon fill="#FBD800" points="770.201,41.131 773.029,44.069 770.201,44.069 		"/>
		<polygon fill="#FBD800" points="767.147,46.221 766.946,46.221 766.709,44.991 767.147,44.991 		"/>
		<path fill="#FBD800" d="M768.064,50.712h-0.253l0.192,1.001l3.265,3.23v-1.573l2.022,1.612v-5.451h-1.106v1.151h-0.916v-2.228
			h3.282v3.379l1.908-1.459h1.838l0.031-0.795l-0.196-0.203c-0.502-0.003-0.91-0.414-0.91-0.922c0-0.008,0.001-0.016,0.001-0.024
			l-3.474-3.61v0.17h-3.548v1.23h3.548v0.922h-3.548v3.569h-0.916v-3.569h-1.221V50.712z M774.513,47.612
			c0-0.359,0.291-0.652,0.648-0.652c0.358,0,0.648,0.292,0.648,0.652c0,0.361-0.29,0.652-0.648,0.652
			C774.804,48.265,774.513,47.973,774.513,47.612z"/>
		<polygon fill="#FBD800" points="769.285,44.069 768.064,44.069 768.064,40.5 767.147,40.5 767.147,44.069 766.532,44.069 
			764.907,35.625 769.595,40.5 769.285,40.5 		"/>
		<polygon fill="#FBD800" points="767.147,47.268 767.125,47.143 767.147,47.143 		"/>
		<polygon fill="#F8D100" points="767.125,47.143 763.6,47.143 763.6,46.221 766.946,46.221 		"/>
		<polygon fill="#F8D100" points="767.147,46.221 767.147,47.143 767.125,47.143 766.946,46.221 		"/>
		<rect x="768.064" y="46.221" fill="#F8D100" width="1.221" height="0.922"/>
		<rect x="770.201" y="46.221" fill="#F8D100" width="3.548" height="0.922"/>
		<polygon fill="#F8D100" points="763.6,44.991 763.6,44.069 766.532,44.069 766.709,44.991 		"/>
		<polygon fill="#F8D100" points="770.201,44.991 770.201,44.069 773.029,44.069 773.749,44.821 773.749,44.991 		"/>
		<rect x="768.064" y="44.069" fill="#F8D100" width="1.221" height="0.922"/>
		<polygon fill="#F8D100" points="767.147,44.991 766.709,44.991 766.532,44.069 767.147,44.069 		"/>
		<polygon fill="#F8D100" points="767.147,50.712 767.147,47.268 767.812,50.712 		"/>
		<rect x="767.147" y="40.5" fill="#F8D100" width="0.917" height="3.568"/>
		<rect x="767.147" y="44.991" fill="#F8D100" width="0.917" height="1.23"/>
		<polygon fill="#F8D100" points="768.064,47.143 768.064,50.712 767.812,50.712 767.147,47.268 767.147,47.143 		"/>
		<rect x="767.147" y="46.221" fill="#F8D100" width="0.917" height="0.922"/>
		<rect x="767.147" y="44.069" fill="#F8D100" width="0.917" height="0.922"/>
		<rect x="769.285" y="44.991" fill="#F8D100" width="0.916" height="1.23"/>
		<polygon fill="#F8D100" points="769.285,44.069 769.285,40.5 769.595,40.5 770.201,41.131 770.201,44.069 		"/>
		<rect x="769.285" y="47.143" fill="#F8D100" width="0.916" height="3.569"/>
		<rect x="769.285" y="46.221" fill="#F8D100" width="0.916" height="0.922"/>
		<rect x="769.285" y="44.069" fill="#F8D100" width="0.916" height="0.922"/>
		<path fill="#F8D100" d="M777.222,48.456c0-0.008,0.001-0.016,0.001-0.024l0.909,0.946
			C777.63,49.375,777.222,48.963,777.222,48.456z"/>
		<circle fill="#F8D100" cx="775.161" cy="47.612" r="0.652"/>
		<polygon fill="#F8D100" points="771.269,54.983 771.269,54.944 771.558,55.229 		"/>
		<polygon fill="#F8D100" points="773.291,54.983 773.291,49.532 772.185,49.532 772.185,50.683 771.269,50.683 771.269,48.456 
			774.551,48.456 774.551,51.834 776.459,50.375 778.297,50.375 778.255,51.451 776.839,51.451 774.322,53.563 774.322,57.594 
			771.558,55.229 771.269,54.944 771.269,53.371 		"/>
	</g>
	<polygon fill="#E31B21" points="758.271,41.965 764.782,35.467 764.935,35.625 768.031,51.713 760.77,44.526 	"/>
	<g>
		<polygon fill="#D2108D" points="748.163,38.018 742.692,64.872 732.864,64.872 739.378,36.129 		"/>
		<g>
			<g>
				<polygon fill="#E01B23" points="712.203,64.127 723.097,65.342 736.41,51.713 739.506,35.625 				"/>
			</g>
			<polygon fill="#F68C1F" points="746.143,41.965 739.632,35.467 739.479,35.625 736.382,51.713 743.644,44.526 			"/>
		</g>
	</g>
	
		<linearGradient id="SVGID_10_" gradientUnits="userSpaceOnUse" x1="8610.6816" y1="71.7544" x2="8610.6816" y2="56.2323" gradientTransform="matrix(-1 0 0 1 9362.7656 0)">
		<stop  offset="0.3374" style="stop-color:#B84616"/>
		<stop  offset="0.8282" style="stop-color:#EE781E"/>
	</linearGradient>
	<ellipse fill="url(#SVGID_10_)" cx="752.084" cy="64.209" rx="7.16" ry="7.051"/>
	<g>
		
			<linearGradient id="SVGID_11_" gradientUnits="userSpaceOnUse" x1="8587.4863" y1="27.4727" x2="8598.8994" y2="45.5797" gradientTransform="matrix(-1 0 0 1 9362.7656 0)">
			<stop  offset="0" style="stop-color:#D0DA1E"/>
			<stop  offset="0.546" style="stop-color:#7AAC37"/>
		</linearGradient>
		<polygon fill="url(#SVGID_11_)" points="779.643,20.983 779.2,21.417 779.326,20.62 		"/>
		
			<linearGradient id="SVGID_12_" gradientUnits="userSpaceOnUse" x1="8593.8594" y1="23.4761" x2="8605.3281" y2="41.672" gradientTransform="matrix(-1 0 0 1 9362.7656 0)">
			<stop  offset="0" style="stop-color:#D0DA1E"/>
			<stop  offset="0.546" style="stop-color:#7AAC37"/>
		</linearGradient>
		<polygon fill="url(#SVGID_12_)" points="755.095,32.291 763.9,23.325 777.257,23.325 757.243,42.891 		"/>
		<polygon fill="#88BB3C" points="773.314,13.739 779.326,20.62 779.2,21.417 777.257,23.325 763.9,23.325 		"/>
	</g>
	<polygon opacity="0.56" fill="#21367D" points="752.121,27.534 750.16,33.598 743.835,33.598 748.951,37.34 746.999,43.399 
		752.121,39.659 757.246,43.399 755.284,37.34 760.411,33.598 754.079,33.598 	"/>
	<g>
		<g>
			<path fill="#B91419" d="M718.925,61.542c0.031,1.137,0.973,2.033,2.101,2c1.13-0.031,2.02-0.978,1.989-2.113
				c-0.032-1.137-0.973-2.033-2.103-2.001C719.783,59.459,718.893,60.405,718.925,61.542z M719.414,61.528
				c-0.023-0.863,0.652-1.584,1.512-1.607c0.859-0.025,1.574,0.656,1.598,1.521c0.025,0.863-0.652,1.584-1.512,1.607
				C720.153,63.074,719.438,62.393,719.414,61.528z"/>
			<circle fill="#B91419" cx="720.95" cy="61.547" r="0.471"/>
			<polygon fill="#B91419" points="723.375,64.143 723.658,63.847 718.523,58.829 718.237,59.124 			"/>
		</g>
		<g>
			
				<rect x="727.313" y="52.622" transform="matrix(-0.9996 0.0278 -0.0278 -0.9996 1456.3767 90.457)" fill="#B91419" width="0.491" height="5.476"/>
			
				<rect x="726.168" y="52.655" transform="matrix(-0.9996 0.0278 -0.0278 -0.9996 1454.087 90.5523)" fill="#B91419" width="0.491" height="5.475"/>
			
				<rect x="726.755" y="53.232" transform="matrix(-0.0257 -0.9997 0.9997 -0.0257 689.7401 784.1523)" fill="#B91419" width="0.494" height="5.442"/>
			
				<rect x="726.723" y="52.079" transform="matrix(-0.0296 -0.9996 0.9996 -0.0296 693.735 783.0741)" fill="#B91419" width="0.494" height="5.441"/>
			<g>
				<circle fill="#B91419" cx="721.876" cy="57.063" r="0.49"/>
				<circle fill="#B91419" cx="723.459" cy="56.567" r="0.348"/>
				<polygon fill="#B91419" points="725.59,58.155 725.1,58.168 725.082,57.551 724.488,57.567 724.569,60.489 725.629,59.594 
					725.654,60.458 724.057,61.903 723.996,59.743 722.615,58.649 721.021,58.694 721.006,58.118 722.804,58.067 723.85,58.821 
					723.799,57.01 725.557,56.961 				"/>
			</g>
			<g>
				<circle fill="#B91419" cx="728.363" cy="50.231" r="0.494"/>
				<circle fill="#B91419" cx="727.958" cy="51.848" r="0.35"/>
				<polygon fill="#B91419" points="729.65,53.902 729.639,53.409 729.023,53.424 729.008,52.829 731.911,52.747 731.083,53.862 
					731.941,53.838 733.286,52.153 731.14,52.212 729.977,50.886 729.934,49.282 729.359,49.297 729.41,51.108 730.216,52.116 
					728.416,52.165 728.465,53.934 				"/>
			</g>
			<g>
				<path fill="#B91419" d="M730.823,49.03c0.03,1.137,0.972,2.031,2.1,2c1.13-0.031,2.021-0.979,1.99-2.115
					c-0.033-1.135-0.974-2.031-2.103-2C731.681,46.946,730.791,47.893,730.823,49.03z M731.313,49.016
					c-0.023-0.865,0.652-1.584,1.512-1.608c0.857-0.024,1.574,0.657,1.598,1.521c0.024,0.865-0.652,1.584-1.512,1.609
					C732.052,50.561,731.336,49.879,731.313,49.016z"/>
				<circle fill="#B91419" cx="732.849" cy="49.035" r="0.471"/>
				<polygon fill="#B91419" points="735.271,51.629 735.557,51.334 730.421,46.315 730.136,46.612 				"/>
			</g>
			<polygon fill="#B91419" points="718.783,58.272 719.165,58.643 729.615,47.737 729.232,47.365 			"/>
			<polygon fill="#B91419" points="723.984,63.006 724.367,63.377 734.816,52.47 734.434,52.1 			"/>
		</g>
	</g>
	<g>
		<polygon fill="#00539F" points="754.199,33.422 752.138,27.161 750.236,33.262 752.019,35.137 		"/>
		<polygon fill="#4C9138" points="760.739,33.461 755.308,33.461 756.022,36.932 		"/>
		<polygon fill="#17428E" points="752.019,35.137 756.141,39.245 755.506,37.411 756.022,36.932 755.308,33.461 754.199,33.422 		
			"/>
		<polygon fill="#243A85" points="752.218,39.803 757.369,43.631 756.141,39.245 752.019,35.137 748.214,39.245 746.906,43.631 		
			"/>
		<polygon fill="#0168A9" points="749.046,33.307 748.214,36.932 748.769,37.33 748.214,39.245 752.019,35.137 750.236,33.262 		"/>
		<polygon fill="#008FC6" points="743.576,33.461 748.214,36.932 749.046,33.307 		"/>
	</g>
	<polygon fill="#C4178D" points="726.391,42.124 731.968,36.512 726.688,31.198 721.109,36.809 	"/>
</g>
</svg>
