<?xml version="1.0" encoding="utf-8"?>
<!-- Generator: Adobe Illustrator 16.0.0, SVG Export Plug-In . SVG Version: 6.00 Build 0)  -->
<!DOCTYPE svg PUBLIC "-//W3C//DTD SVG 1.1//EN" "http://www.w3.org/Graphics/SVG/1.1/DTD/svg11.dtd">
<svg version="1.1" xmlns="http://www.w3.org/2000/svg" xmlns:xlink="http://www.w3.org/1999/xlink" x="0px" y="0px" width="50px"
	 height="320.875px" viewBox="0 0 50 320.875" enable-background="new 0 0 50 320.875" xml:space="preserve">
<g id="Marcos">
</g>
<g id="Imagenes">
</g>
<g id="Marcos_cintillos">
</g>
<g id="Publicidad">
</g>
<g id="Logo">
</g>
<g id="Botones">
	<path fill="#ADADAD" d="M34.117,29.284l-6.725-6.845c-0.024-0.021-0.055-0.034-0.072-0.051c1.011-1.166,1.646-2.669,1.646-4.333
		c0-3.662-2.978-6.639-6.643-6.639c-3.658,0-6.638,2.977-6.638,6.639c0,3.666,2.979,6.642,6.638,6.642
		c1.519,0,2.9-0.532,4.026-1.394c0.021,0.034,0.032,0.069,0.061,0.099l6.724,6.846c0.135,0.14,0.316,0.208,0.492,0.208
		c0.175,0,0.346-0.068,0.481-0.201C34.379,29.99,34.383,29.556,34.117,29.284z M22.323,23.324c-2.9,0-5.264-2.362-5.264-5.269
		c0-2.904,2.363-5.267,5.264-5.267c2.909,0,5.268,2.363,5.268,5.267C27.591,20.961,25.232,23.324,22.323,23.324z"/>
	<g>
		<circle fill="#ADADAD" cx="25" cy="60.932" r="8.708"/>
		<g>
			<path fill="#2C2D2C" d="M26.919,65.945v-1.337h1.354l-1.094-3.143h-4.375l-1.162,3.42v1.06H18.62v-1.337h1.58l3.472-10.035
				l0.313-0.972h3.819v1.337H26.45l3.385,9.669h1.546v1.337H26.919z M25.009,55.094l-1.736,5.035h3.455L25.009,55.094z"/>
		</g>
	</g>
	<g>
		<path fill="#2C2D2C" d="M34.917,107.346c0,0.551-0.447,1-1,1H16.083c-0.553,0-1-0.449-1-1V94.511c0-0.553,0.447-1,1-1h17.833
			c0.553,0,1,0.447,1,1V107.346z"/>
		<rect x="15.917" y="94.261" fill="#ADADAD" width="18.313" height="13.126"/>
		<path fill="#2C2D2C" d="M16.208,107.011H25.5c0,0-2.25-5.583-4.458-5.583S16.458,106.053,16.208,107.011z"/>
		<path fill="#2C2D2C" d="M25.805,107.011h8.069c0,0,0.226-2.721-0.054-4.624c-0.323-2.195-2.116-3.539-4.589-3.525
			C26.19,98.88,23.5,102.72,23.5,102.72S25.239,105.332,25.805,107.011z"/>
		<circle fill="#2C2D2C" cx="21.916" cy="96.887" r="1.292"/>
	</g>
	<g>
		<path fill="#2C2D2C" d="M24.839,147.173c0,0,0-10.732,0-12.102c0-1.371-0.964-0.494-0.964-0.494l-3.662,3.663
			c-0.02-0.011-0.041-0.02-0.065-0.02h-3.213c-0.071,0-0.128,0.058-0.128,0.128v5.183c0,0.07,0.057,0.129,0.128,0.129h3.213
			c0,0,2.484,2.271,3.642,3.534C24.946,148.458,24.839,147.173,24.839,147.173z"/>
		<path fill="#2C2D2C" d="M27.988,140.918c0-1.536-1.084-2.823-2.527-3.139v1.065c0.87,0.289,1.5,1.108,1.5,2.074
			c0,0.965-0.63,1.785-1.5,2.073v1.065C26.904,143.742,27.988,142.454,27.988,140.918z"/>
		<path fill="#2C2D2C" d="M30.516,140.918c0-2.933-2.212-5.357-5.055-5.698v1.037c2.274,0.333,4.027,2.296,4.027,4.662
			c0,2.365-1.752,4.328-4.027,4.662v1.036C28.304,146.277,30.516,143.852,30.516,140.918z"/>
		<path fill="#2C2D2C" d="M25.46,132.531v1.03c3.754,0.347,6.704,3.514,6.704,7.357s-2.95,7.009-6.704,7.357v1.031
			c4.322-0.352,7.732-3.978,7.732-8.388C33.193,136.507,29.782,132.881,25.46,132.531z"/>
	</g>
	<g>
		<circle fill="#ADADAD" cx="25" cy="180.907" r="8.708"/>
		<polygon fill="#2C2D2C" points="22.652,177.119 29.377,181 22.652,184.883 		"/>
	</g>
	<g>
		<path fill="#2C2D2C" d="M24.436,222.921c0.837-0.747,1.367-1.757,1.367-2.966c0-2.254-1.827-4.043-4.081-4.043
			c-2.254,0-4.082,1.845-4.082,4.099c0,1.21,0.53,2.155,1.367,2.901c-2.607,0.943-4.583,3.321-5.125,5.836H29.56
			C29.018,226.231,27.042,223.863,24.436,222.921z"/>
		<path fill="#ADADAD" d="M36.117,216.915c0-2.14-2.351-3.875-5.25-3.875s-5.25,1.735-5.25,3.875c0,1.114,0.646,2.112,1.667,2.819
			c0.026,0.587-0.145,1.409-1.23,1.681c0,0,3.889-0.301,5.342-0.665C34.044,220.551,36.117,218.921,36.117,216.915z"/>
	</g>
	<g>
		<rect x="15.844" y="254.336" fill="#ADADAD" width="18.313" height="13.125"/>
		<g>
			<polygon fill="#2C2D2C" points="33.137,260.275 30.254,256.656 27.372,260.275 28.012,260.275 28.012,262.522 29.642,262.522 
				29.642,260.847 30.867,260.847 30.867,262.522 32.497,262.522 32.497,260.275 			"/>
			<rect x="16.863" y="256.116" fill="#2C2D2C" width="8.817" height="1.065"/>
			<rect x="16.863" y="258.949" fill="#2C2D2C" width="8.817" height="1.065"/>
			<rect x="16.863" y="261.782" fill="#2C2D2C" width="8.817" height="1.065"/>
			<rect x="16.863" y="264.615" fill="#2C2D2C" width="16.011" height="1.065"/>
		</g>
	</g>
	<path fill="#2C2D2C" d="M35.345,305.139c-1.987-6.021-9.007-6.158-11.769-5.966v-3.99l-8.978,5.183l8.978,5.183v-4.187
		c2.159-0.163,8.168-0.178,9.7,4.46c0.151,0.458,0.577,0.748,1.034,0.748c0.113,0,0.229-0.018,0.342-0.055
		C35.224,306.326,35.535,305.71,35.345,305.139z"/>
</g>
<g id="TXT">
</g>
<g id="Guia" display="none">
</g>
</svg>
