<?xml version="1.0" encoding="utf-8"?>
<!-- Generator: Adobe Illustrator 16.0.0, SVG Export Plug-In . SVG Version: 6.00 Build 0)  -->
<!DOCTYPE svg PUBLIC "-//W3C//DTD SVG 1.1//EN" "http://www.w3.org/Graphics/SVG/1.1/DTD/svg11.dtd">
<svg version="1.1" xmlns="http://www.w3.org/2000/svg" xmlns:xlink="http://www.w3.org/1999/xlink" x="0px" y="0px" width="36.5px"
	 height="1117.046px" viewBox="0 0 36.5 1117.046" enable-background="new 0 0 36.5 1117.046" xml:space="preserve">
<g id="Marcos">
</g>
<g id="Imagenes">
</g>
<g id="Marcos_cintillos">
</g>
<g id="Publicidad">
</g>
<g id="Logo">
	<g>
		<path fill="#606060" d="M22.878,348.441l-0.484-10.451c-0.061-0.848-0.114-1.2-1.087-1.306l-13.411-3.19
			c-0.93,0-1.441,0.435-1.441,1.269l0.072,14.414c0,0.835,0.512,1.269,1.442,1.269l14.014-0.809
			C22.913,349.636,22.878,349.274,22.878,348.441z M7.711,349.273V334.63l13.813,2.948l0.653,10.921L7.711,349.273z"/>
		<path fill="#606060" d="M16.616,342.309c0,0-0.121-0.677-0.555-0.967c-0.435-0.29-0.762-0.483-2.09-0.472
			s-1.836-0.023-2.139-0.241c0,0,0.701,2.537,2.972,3.384c0,0,1.172,0.337,1.668-0.568l2.973,0.857c0,0,1.247,0.643,4.086,1.09
			c2.838,0.445,3.954,0.648,6.382,0.479l1.027,0.181c0,0,0.64,0.205,0.773-0.459c0.132-0.664-0.448-0.761-0.448-0.761l-1.22-0.23
			c0,0-2.655-1.005-5.856-1.487c-3.202-0.483-4.432-0.516-4.432-0.516L16.616,342.309z"/>
	</g>
</g>
<g id="Botones">
	<polygon fill="#ADADAD" points="26.116,16.514 18.98,7.554 11.844,16.514 13.431,16.514 13.431,22.076 17.464,22.076 
		17.464,17.927 20.496,17.927 20.496,22.076 24.53,22.076 24.53,16.514 	"/>
	<path fill="#ADADAD" d="M25.82,177.399c-0.18-1-0.593-1.991-1.187-2.813l0.722-0.719l-1.593-1.591l-0.416,0.729
		c-0.823-0.583-1.505-0.984-2.504-1.156v-0.843h-2.497v0.843c-1.498,0.172-2.18,0.574-3.003,1.156l-0.822-0.728l-1.64,1.592
		l0.698,0.715c-0.595,0.822-1.03,1.815-1.21,2.814h-1.017v2.497h1.004c0.167,1.499,0.572,1.908,1.163,2.742l-0.686,0.628
		l1.593,1.563l0.868-0.693c0.833,0.601,1.553,1.002,3.051,1.178v1.076h2.497v-1.076c0.999-0.176,1.719-0.591,2.552-1.193l0.523,0.68
		l1.516-1.593l-0.725-0.57c0.59-0.834,0.955-1.242,1.123-2.741h1.004v-2.497H25.82z M19.229,180.51
		c-1.165,0-2.111-0.946-2.111-2.112c0-1.166,0.946-2.112,2.111-2.112c1.167,0,2.112,0.946,2.112,2.112
		C21.341,179.564,20.396,180.51,19.229,180.51z"/>
	<g>
		<rect x="11.978" y="222.915" fill="#ADADAD" width="14.231" height="19.081"/>
		<rect x="13.073" y="223.97" fill="#606060" width="11.964" height="2.171"/>
		<rect x="13.073" y="226.961" fill="#606060" width="7.976" height="2.17"/>
		<rect x="13.073" y="230.011" fill="#606060" width="11.494" height="2.169"/>
		<rect x="13.073" y="232.855" fill="#606060" width="9.559" height="2.171"/>
		<rect x="13.073" y="235.847" fill="#606060" width="4.398" height="2.169"/>
		<rect x="13.073" y="238.603" fill="#606060" width="11.494" height="2.17"/>
	</g>
	<g>
		<g>
			<path fill="#606060" d="M18.572,294.362l-6.926-3.96l-0.013-0.71l6.925-4.314l0.398-0.021l7.614,3.663l0.034,0.728l-7.614,4.609
				L18.572,294.362z M12.657,290.028l6.114,3.495l6.754-4.09l-6.723-3.233L12.657,290.028z"/>
		</g>
		<g>
			<path fill="#606060" d="M18.572,287.544l-6.926-3.96l-0.013-0.709l6.925-4.313l0.398-0.022l7.614,3.664l0.034,0.727l-7.614,4.609
				L18.572,287.544z M12.657,283.211l6.114,3.495l6.754-4.089l-6.723-3.234L12.657,283.211z"/>
		</g>
		<g>
			<rect x="18.364" y="278.918" fill="#606060" width="0.826" height="6.81"/>
		</g>
		<g>
			<rect x="18.364" y="287.194" fill="#606060" width="0.826" height="6.809"/>
		</g>
		<g>
			<rect x="25.98" y="282.576" fill="#606060" width="0.827" height="6.818"/>
		</g>
		<g>
			<rect x="11.442" y="283.224" fill="#606060" width="0.827" height="6.818"/>
		</g>
		<circle fill="#606060" cx="18.784" cy="278.961" r="1.307"/>
		<circle fill="#606060" cx="18.784" cy="286.634" r="1.307"/>
		<circle fill="#606060" cx="18.784" cy="293.695" r="1.307"/>
		<circle fill="#606060" cx="26.221" cy="289.183" r="1.308"/>
		<circle fill="#606060" cx="26.256" cy="282.606" r="1.308"/>
		<circle fill="#606060" cx="11.966" cy="283.33" r="1.307"/>
		<circle fill="#606060" cx="11.931" cy="289.769" r="1.308"/>
	</g>
	<g>
		<path fill="#606060" d="M13.724,398.872c0.624-0.557,1.019-1.225,1.019-2.126c0-1.68-1.362-2.972-3.042-2.972
			S8.66,395.17,8.66,396.85c0,0.901,0.394,1.448,1.018,2.004c-1.942,0.703-3.415,3.192-3.818,4.192h11.682
			C17.137,402.046,15.665,399.574,13.724,398.872z"/>
		<path fill="#606060" d="M28.282,398.872c0.623-0.557,1.018-1.225,1.018-2.126c0-1.68-1.361-2.972-3.041-2.972
			s-3.041,1.396-3.041,3.076c0,0.901,0.395,1.448,1.018,2.004c-1.942,0.703-3.415,3.192-3.818,4.192H32.1
			C31.696,402.046,30.224,399.574,28.282,398.872z"/>
		<path fill="#ADADAD" d="M21.497,399.38c0.807-0.721,1.318-1.694,1.318-2.86c0-2.174-1.762-3.9-3.936-3.9
			c-2.174,0-3.936,1.78-3.936,3.954c0,1.167,0.511,2.078,1.318,2.797c-2.514,0.91-4.42,3.203-4.942,5.63h15.119
			C25.915,402.573,24.01,400.289,21.497,399.38z"/>
	</g>
	<g>
		<rect x="8.288" y="604.31" fill="#606060" width="21.611" height="14.994"/>
		<rect x="8.779" y="606.485" fill="#ADADAD" width="20.63" height="12.398"/>
		<rect x="10.251" y="607.466" fill="#606060" width="17.685" height="0.896"/>
		<rect x="10.251" y="609.64" fill="#606060" width="17.685" height="0.896"/>
		<rect x="10.251" y="611.814" fill="#606060" width="16.001" height="0.896"/>
		<rect x="10.251" y="613.988" fill="#606060" width="13.108" height="0.896"/>
		<rect x="10.251" y="616.162" fill="#606060" width="17.685" height="0.896"/>
	</g>
	<g>
		<rect x="10.064" y="446.656" fill="#606060" width="8.801" height="15.034"/>
		<rect x="20.056" y="446.733" fill="#606060" width="8.067" height="6.914"/>
		<rect x="20.056" y="454.773" fill="#606060" width="8.067" height="6.914"/>
	</g>
	<g>
		<rect x="8.499" y="500.231" fill="#606060" width="21.19" height="14.701"/>
		<rect x="9.117" y="510.6" fill="#ADADAD" width="6.08" height="3.817"/>
		<rect x="16.004" y="510.6" fill="#ADADAD" width="6.08" height="3.817"/>
		<rect x="22.999" y="510.6" fill="#ADADAD" width="6.079" height="3.817"/>
	</g>
	<g>
		<g>
			<g>
				<path fill="#ADADAD" d="M25.083,554.448H14.332c-0.757,0-1.372-0.532-1.372-1.186c0-0.655,0.615-1.187,1.372-1.187h10.751
					c0.758,0,1.372,0.531,1.372,1.187C26.455,553.917,25.84,554.448,25.083,554.448z"/>
			</g>
		</g>
		<circle fill="#606060" cx="14.294" cy="553.262" r="2.675"/>
		<g>
			<g>
				<path fill="#ADADAD" d="M25.083,565.708H14.332c-0.757,0-1.372-0.532-1.372-1.186c0-0.655,0.615-1.187,1.372-1.187h10.751
					c0.758,0,1.372,0.531,1.372,1.187C26.455,565.177,25.84,565.708,25.083,565.708z"/>
			</g>
		</g>
		<circle fill="#606060" cx="14.294" cy="564.522" r="2.675"/>
		<g>
			<g>
				<path fill="#ADADAD" d="M13.105,560.078h10.751c0.757,0,1.372-0.531,1.372-1.186c0-0.655-0.615-1.187-1.372-1.187H13.105
					c-0.758,0-1.372,0.532-1.372,1.187C11.733,559.547,12.347,560.078,13.105,560.078z"/>
			</g>
		</g>
		<circle fill="#606060" cx="23.666" cy="558.892" r="2.675"/>
	</g>
	<path fill="#ADADAD" d="M32,657.007l-10.689,0.633l2.165,3.284l-2.067,1.636l-3.011-4.683c-0.21-0.328-0.553-0.548-0.939-0.603
		c-0.387-0.055-0.776,0.06-1.07,0.316l-9.741,8.47c-0.559,0.486-0.618,1.334-0.132,1.894c0.266,0.305,0.639,0.461,1.014,0.461
		c0.312,0,0.626-0.108,0.88-0.329l8.57-7.452l2.973,4.624c0.204,0.319,0.534,0.536,0.909,0.598c0.375,0.063,0.755-0.036,1.053-0.271
		l3.045-2.411l2.246,3.407L32,657.007z"/>
	<g>
		<path fill="#ADADAD" d="M22.559,717.309c1.068-0.954,1.745-2.242,1.745-3.786c0-2.877-2.333-5.162-5.209-5.162
			c-2.877,0-5.209,2.355-5.209,5.232c0,1.544,0.676,2.75,1.745,3.703c-3.327,1.204-5.85,4.239-6.541,7.45h20.011
			C28.407,721.536,25.884,718.512,22.559,717.309z"/>
		<path fill="#2C2D2C" d="M25.66,711.838c-0.811-2.776-3.437-4.821-6.521-4.821c-3.083,0-5.837,2.04-6.65,4.813
			c-0.458,0.068-0.977,0.445-0.977,0.921v1.784c0,0.511,0.553,0.921,1.059,0.941c0.141,0.248,0.425,0.527,0.747,0.79
			c0.821,0.673,2.077,1.011,3.672,1.011c0.085,0,0.205,0.254,0.291,0.251c0.113,0.307,0.42,0.796,0.766,0.796h0.647
			c0.444,0,0.803-0.627,0.803-1.071c0-0.443-0.359-1.07-0.803-1.07h-0.647c-0.353,0-0.643,0.231-0.751,0.548
			c-1.942,0.041-2.999-0.422-3.549-0.866c-0.231-0.187-0.4-0.373-0.513-0.548c0.261-0.169,0.419-0.448,0.419-0.782v-1.784
			c0-0.379-0.202-0.7-0.522-0.852c0.775-2.51,3.154-4.346,5.963-4.346c2.801,0,5.113,1.826,5.895,4.323
			c-0.342,0.144-0.631,0.481-0.631,0.875v1.784c0,0.523,0.546,0.948,1.07,0.948c0.523,0,1.07-0.425,1.07-0.948v-1.784
			C26.498,712.29,26.096,711.923,25.66,711.838z"/>
	</g>
	<path fill="#ADADAD" d="M22.559,74.046c1.068-0.954,1.745-2.242,1.745-3.786c0-2.877-2.333-5.162-5.209-5.162
		c-2.877,0-5.209,2.355-5.209,5.232c0,1.544,0.676,2.75,1.745,3.703c-3.327,1.204-5.85,4.239-6.541,7.45h20.011
		C28.407,78.272,25.884,75.249,22.559,74.046z"/>
	<g>
		<circle fill="#ADADAD" cx="19.094" cy="770.203" r="8.708"/>
		<g>
			<path fill="#2C2D2C" d="M21.013,775.215v-1.337h1.354l-1.094-3.143h-4.375l-1.162,3.421v1.059h-3.021v-1.337h1.58l3.472-10.034
				l0.313-0.972h3.819v1.337h-1.354l3.385,9.669h1.546v1.337H21.013z M19.103,764.365l-1.736,5.034h3.455L19.103,764.365z"/>
		</g>
	</g>
	<g>
		<path fill="#2C2D2C" d="M29.01,830.397c0,0.552-0.447,1-1,1H10.177c-0.553,0-1-0.448-1-1v-12.834c0-0.553,0.447-1,1-1H28.01
			c0.553,0,1,0.447,1,1V830.397z"/>
		<rect x="10.01" y="817.313" fill="#ADADAD" width="18.313" height="13.125"/>
		<path fill="#2C2D2C" d="M10.302,830.063h9.291c0,0-2.25-5.583-4.458-5.583S10.552,829.105,10.302,830.063z"/>
		<path fill="#2C2D2C" d="M19.899,830.063h8.069c0,0,0.226-2.721-0.054-4.624c-0.323-2.196-2.116-3.54-4.589-3.525
			c-3.042,0.018-5.732,3.858-5.732,3.858S19.333,828.383,19.899,830.063z"/>
		<circle fill="#2C2D2C" cx="16.01" cy="819.938" r="1.292"/>
	</g>
	<g>
		<path fill="#2C2D2C" d="M18.933,882.575c0,0,0-10.731,0-12.101c0-1.372-0.964-0.494-0.964-0.494l-3.662,3.662
			c-0.02-0.011-0.041-0.02-0.065-0.02h-3.213c-0.071,0-0.128,0.058-0.128,0.128v5.184c0,0.071,0.057,0.128,0.128,0.128h3.213
			c0,0,2.484,2.271,3.642,3.535C19.04,883.861,18.933,882.575,18.933,882.575z"/>
		<path fill="#2C2D2C" d="M22.082,876.321c0-1.536-1.084-2.823-2.527-3.139v1.065c0.87,0.289,1.5,1.108,1.5,2.073
			s-0.63,1.785-1.5,2.073v1.065C20.998,879.145,22.082,877.857,22.082,876.321z"/>
		<path fill="#2C2D2C" d="M24.609,876.321c0-2.933-2.212-5.357-5.055-5.698v1.036c2.274,0.333,4.027,2.296,4.027,4.662
			s-1.752,4.329-4.027,4.662v1.037C22.397,881.679,24.609,879.254,24.609,876.321z"/>
		<path fill="#2C2D2C" d="M19.554,867.934v1.031c3.754,0.347,6.704,3.513,6.704,7.356c0,3.844-2.95,7.009-6.704,7.357v1.031
			c4.322-0.351,7.732-3.978,7.732-8.388S23.876,868.284,19.554,867.934z"/>
	</g>
	<g>
		<circle fill="#ADADAD" cx="19.094" cy="928.411" r="8.708"/>
		<polygon fill="#2C2D2C" points="16.746,924.622 23.471,928.504 16.746,932.386 		"/>
	</g>
	<g>
		<path fill="#2C2D2C" d="M18.53,983.58c0.837-0.747,1.367-1.757,1.367-2.966c0-2.254-1.827-4.044-4.081-4.044
			c-2.254,0-4.082,1.845-4.082,4.099c0,1.21,0.53,2.155,1.367,2.9c-2.607,0.943-4.583,3.321-5.125,5.837h15.677
			C23.111,986.891,21.135,984.522,18.53,983.58z"/>
		<path fill="#ADADAD" d="M30.211,977.574c0-2.14-2.351-3.875-5.25-3.875s-5.25,1.735-5.25,3.875c0,1.115,0.646,2.112,1.667,2.819
			c0.026,0.587-0.145,1.409-1.23,1.681c0,0,3.889-0.3,5.342-0.665C28.138,981.211,30.211,979.58,30.211,977.574z"/>
	</g>
	<g>
		<rect x="9.938" y="1029.542" fill="#ADADAD" width="18.313" height="13.125"/>
		<g>
			<polygon fill="#2C2D2C" points="27.231,1035.483 24.348,1031.863 21.465,1035.483 22.106,1035.483 22.106,1037.729 
				23.736,1037.729 23.736,1036.054 24.96,1036.054 24.96,1037.729 26.59,1037.729 26.59,1035.483 			"/>
			<rect x="10.957" y="1031.322" fill="#2C2D2C" width="8.817" height="1.065"/>
			<rect x="10.957" y="1034.156" fill="#2C2D2C" width="8.817" height="1.065"/>
			<rect x="10.957" y="1036.989" fill="#2C2D2C" width="8.817" height="1.065"/>
			<rect x="10.957" y="1039.822" fill="#2C2D2C" width="16.011" height="1.065"/>
		</g>
	</g>
	<path fill="#2C2D2C" d="M29.439,1097.646c-1.987-6.021-9.007-6.157-11.769-5.966v-3.99l-8.978,5.183l8.978,5.183v-4.187
		c2.159-0.163,8.168-0.178,9.7,4.46c0.151,0.458,0.577,0.748,1.034,0.748c0.113,0,0.229-0.018,0.342-0.055
		C29.318,1098.833,29.628,1098.217,29.439,1097.646z"/>
	<polygon fill="#ADADAD" points="28.591,126.746 18.34,118.409 18.34,123.506 9.597,123.506 9.597,129.985 18.34,129.985 
		18.34,135.083 	"/>
</g>
<g id="TXT">
</g>
<g id="Guia" display="none">
</g>
</svg>
