<?xml version="1.0" encoding="utf-8"?>
<!-- Generator: Adobe Illustrator 15.0.0, SVG Export Plug-In . SVG Version: 6.00 Build 0)  -->
<!DOCTYPE svg PUBLIC "-//W3C//DTD SVG 1.1//EN" "http://www.w3.org/Graphics/SVG/1.1/DTD/svg11.dtd">
<svg version="1.1" id="Capa_1" xmlns="http://www.w3.org/2000/svg" xmlns:xlink="http://www.w3.org/1999/xlink" x="0px" y="0px"
	 width="37.823px" height="40.462px" viewBox="0 0 37.823 40.462" enable-background="new 0 0 37.823 40.462" xml:space="preserve">
<g>
	<g>
		<g>
			<g>
				<path fill="#808080" d="M31,30.015C31,31.664,29.664,33,28.016,33H8.984C7.336,33,6,31.664,6,30.015v-19.03
					C6,9.336,7.336,8,8.984,8h19.031C29.664,8,31,9.336,31,10.985V30.015z"/>
			</g>
		</g>
	</g>
	<g opacity="0.9">
		<g>
			<g>
				<path fill="#333333" d="M10.556,17.193c0,3.409,2.815,6.221,6.224,6.221c1.305,0,2.534-0.396,3.524-1.11l5.787,5.788
					c0.198,0.197,0.476,0.276,0.716,0.276c0.236,0,0.474-0.08,0.673-0.276c0.395-0.398,0.395-0.991,0-1.389l-5.749-5.747
					c0.793-1.031,1.229-2.339,1.229-3.764c0-3.41-2.774-6.184-6.18-6.184C13.371,11.009,10.556,13.783,10.556,17.193z
					 M12.298,17.193c0-2.459,2.021-4.48,4.481-4.48c2.457,0,4.477,2.021,4.477,4.48c0,2.457-2.02,4.477-4.477,4.477
					C14.319,21.669,12.298,19.65,12.298,17.193z"/>
			</g>
		</g>
	</g>
</g>
</svg>
