<?xml version="1.0" encoding="utf-8"?>
<!-- Generator: Adobe Illustrator 15.0.0, SVG Export Plug-In . SVG Version: 6.00 Build 0)  -->
<!DOCTYPE svg PUBLIC "-//W3C//DTD SVG 1.1//EN" "http://www.w3.org/Graphics/SVG/1.1/DTD/svg11.dtd">
<svg version="1.1" id="Capa_1" xmlns="http://www.w3.org/2000/svg" xmlns:xlink="http://www.w3.org/1999/xlink" x="0px" y="0px"
	 width="37.823px" height="40.462px" viewBox="0 0 37.823 40.462" enable-background="new 0 0 37.823 40.462" xml:space="preserve">
<g>
	<g>
		<g>
			<path fill="#FFFFFF" d="M26.442,21.739h-3.936c-0.498,0-0.904,0.383-0.904,0.818s-0.404,0.805-0.904,0.81l-3.561,0.038
				c-0.5,0.004-0.906-0.381-0.906-0.828c0-0.448-0.404-0.837-0.904-0.837h-3.975c-0.5,0-1.041,0.464-1.041,0.965v4.081
				c0,0.47,0.521,0.838,0.992,0.838H26.49c0.471,0,1.022-0.368,1.022-0.838v-4.083C27.513,22.204,26.942,21.739,26.442,21.739z"/>
			<path fill="#FFFFFF" d="M26.49,16.308H22.31v-1.027c0-0.983-0.801-1.784-1.785-1.784h-3.248c-0.983,0-1.783,0.801-1.783,1.784
				v1.027h-4.189c-0.471,0-0.992,0.573-0.992,1.043v2.483c0,0.551,0.447,1,1,1h3.885c0.553,0,1-0.449,1-1v-0.14
				c0-0.371,0.301-0.671,0.672-0.671h4.088c0.371,0,0.671,0.3,0.671,0.671v0.14c0,0.551,0.447,1,1,1h3.886c0.553,0,1-0.449,1-1
				v-2.483C27.513,16.881,26.961,16.308,26.49,16.308z M16.942,15.281c0-0.184,0.15-0.336,0.334-0.336h3.248
				c0.186,0,0.336,0.152,0.336,0.336v0.954h-3.918V15.281z"/>
			<path fill="#FFFFFF" d="M20.347,22.545c0.25,0,0.451-0.203,0.451-0.451V20.29c0-0.249-0.203-0.451-0.451-0.451h-2.811
				c-0.293,0-0.532,0.238-0.532,0.532v1.724c0,0.248,0.202,0.451,0.45,0.451H20.347L20.347,22.545z"/>
		</g>
	</g>
</g>
</svg>
