<?xml version="1.0" encoding="utf-8"?>
<!-- Generator: Adobe Illustrator 15.0.0, SVG Export Plug-In . SVG Version: 6.00 Build 0)  -->
<!DOCTYPE svg PUBLIC "-//W3C//DTD SVG 1.1//EN" "http://www.w3.org/Graphics/SVG/1.1/DTD/svg11.dtd">
<svg version="1.1" id="Capa_1" xmlns="http://www.w3.org/2000/svg" xmlns:xlink="http://www.w3.org/1999/xlink" x="0px" y="0px"
	 width="66.5px" height="55.75px" viewBox="0 0 66.5 55.75" enable-background="new 0 0 66.5 55.75" xml:space="preserve">
<g>
	<g>
		<path fill="#FFFFFF" d="M49.667,21.068c-1.47-3.908-5.242-6.687-9.662-6.687c-1.017,0-2.001,0.147-2.93,0.423
			c-2.519-4.066-7.019-6.773-12.151-6.773c-7.784,0-14.119,6.228-14.285,13.974c-2.85,1.65-4.765,4.731-4.765,8.251
			c0,5.258,4.268,9.525,9.524,9.525h5.918l5.195-14.287h14.287l-4.762,9.523h7.938l-4.766,4.764h7.938
			c5.26,0,9.524-4.276,9.524-9.525C56.674,25.866,53.705,22.171,49.667,21.068z"/>
		<polygon fill="#FFFFFF" points="36.037,28.668 29.233,28.668 24.924,39.781 28.781,39.781 26.512,47.719 37.623,36.605 
			32.149,36.605 		"/>
	</g>
</g>
</svg>
