<?xml version="1.0" encoding="utf-8"?>
<!-- Generator: Adobe Illustrator 15.0.0, SVG Export Plug-In . SVG Version: 6.00 Build 0)  -->
<!DOCTYPE svg PUBLIC "-//W3C//DTD SVG 1.1//EN" "http://www.w3.org/Graphics/SVG/1.1/DTD/svg11.dtd">
<svg version="1.1" id="Capa_1" xmlns="http://www.w3.org/2000/svg" xmlns:xlink="http://www.w3.org/1999/xlink" x="0px" y="0px"
	 width="50.5px" height="50.484px" viewBox="0 0 50.5 50.484" enable-background="new 0 0 50.5 50.484" xml:space="preserve">
<g>
	<g>
		<path fill="#FFFFFF" d="M25.084,15.75c-5.844,0-10.599,4.755-10.599,10.6s4.755,10.603,10.599,10.603
			c5.846,0,10.602-4.757,10.602-10.603C35.686,20.505,30.93,15.75,25.084,15.75z"/>
		<path fill="#FFFFFF" d="M22.933,13.58h4.303c0.341,0,0.633-0.144,0.803-0.392c0.17-0.247,0.197-0.571,0.072-0.89l-2.367-6.097
			c-0.19-0.486-0.495-0.56-0.661-0.56c-0.165,0-0.471,0.072-0.659,0.56L22.057,12.3c-0.123,0.317-0.096,0.643,0.073,0.89
			C22.3,13.438,22.592,13.58,22.933,13.58z"/>
		<path fill="#FFFFFF" d="M27.236,39.119h-4.303c-0.341,0-0.633,0.143-0.804,0.392c-0.168,0.246-0.195,0.571-0.073,0.889
			l2.369,6.098c0.188,0.485,0.495,0.56,0.659,0.56c0.166,0,0.471-0.073,0.661-0.56l2.368-6.098c0.123-0.316,0.097-0.643-0.073-0.889
			C27.87,39.26,27.577,39.119,27.236,39.119z"/>
		<path fill="#FFFFFF" d="M13.01,18.556c0.163,0.371,0.475,0.592,0.834,0.592c0.248,0,0.492-0.107,0.688-0.308l3.044-3.043
			c0.241-0.239,0.347-0.548,0.292-0.843c-0.056-0.295-0.266-0.542-0.578-0.681l-5.986-2.638c-0.152-0.066-0.293-0.101-0.423-0.101
			c-0.216,0-0.403,0.096-0.511,0.263c-0.093,0.142-0.167,0.389,0.001,0.771L13.01,18.556z"/>
		<path fill="#FFFFFF" d="M37.16,34.143c-0.163-0.371-0.475-0.592-0.836-0.592c-0.246,0-0.49,0.107-0.688,0.305l-3.045,3.045
			c-0.238,0.24-0.347,0.548-0.289,0.844c0.055,0.295,0.266,0.542,0.576,0.68l5.986,2.639c0.148,0.065,0.292,0.101,0.423,0.101
			c0.216,0,0.401-0.097,0.512-0.264c0.093-0.141,0.166-0.389-0.001-0.771L37.16,34.143z"/>
		<path fill="#FFFFFF" d="M35.637,18.841c0.197,0.198,0.441,0.308,0.688,0.308c0.36,0,0.673-0.221,0.836-0.592l2.638-5.986
			c0.167-0.382,0.096-0.629,0.001-0.771c-0.106-0.167-0.295-0.263-0.512-0.263c-0.129,0-0.271,0.033-0.425,0.101l-5.984,2.638
			c-0.313,0.139-0.521,0.386-0.578,0.681c-0.056,0.295,0.053,0.604,0.292,0.843L35.637,18.841z"/>
		<path fill="#FFFFFF" d="M14.533,33.856c-0.197-0.196-0.441-0.305-0.688-0.305c-0.359,0-0.671,0.221-0.834,0.592l-2.638,5.985
			c-0.168,0.382-0.094,0.629-0.001,0.771c0.108,0.167,0.295,0.264,0.511,0.264c0.129,0,0.271-0.034,0.423-0.101l5.986-2.639
			c0.312-0.138,0.521-0.385,0.578-0.68c0.055-0.296-0.051-0.604-0.292-0.845L14.533,33.856z"/>
		<path fill="#FFFFFF" d="M45.23,25.689l-6.098-2.367c-0.132-0.052-0.264-0.077-0.393-0.077c-0.514,0-0.889,0.399-0.889,0.952v4.305
			c0,0.553,0.375,0.953,0.889,0.953c0.129,0,0.261-0.024,0.393-0.077l6.098-2.367c0.485-0.188,0.56-0.495,0.56-0.661
			C45.791,26.184,45.717,25.878,45.23,25.689z"/>
		<path fill="#FFFFFF" d="M11.428,29.454c0.514,0,0.888-0.399,0.888-0.953v-4.305c0-0.552-0.374-0.952-0.888-0.952
			c-0.129,0-0.262,0.024-0.392,0.077l-6.097,2.367c-0.486,0.188-0.559,0.495-0.559,0.659c0,0.166,0.073,0.472,0.559,0.66
			l6.097,2.368C11.167,29.427,11.299,29.454,11.428,29.454z"/>
	</g>
</g>
</svg>
