<?xml version="1.0" encoding="utf-8"?>
<!-- Generator: Adobe Illustrator 15.0.0, SVG Export Plug-In . SVG Version: 6.00 Build 0)  -->
<!DOCTYPE svg PUBLIC "-//W3C//DTD SVG 1.1//EN" "http://www.w3.org/Graphics/SVG/1.1/DTD/svg11.dtd">
<svg version="1.1" id="Capa_1" xmlns="http://www.w3.org/2000/svg" xmlns:xlink="http://www.w3.org/1999/xlink" x="0px" y="0px"
	 width="30px" height="26px" viewBox="0 0 30 26" enable-background="new 0 0 30 26" xml:space="preserve">
<g>
	<path fill="#FFFFFF" d="M13.237,14.788c1.355,1.349,2.93,2.636,3.547,2.015c0.883-0.891,1.428-1.665,3.389-0.101
		s0.465,2.617-0.393,3.48c-0.988,0.995-4.688,0.069-8.355-3.569C7.761,12.972,6.806,9.28,7.794,8.284
		c0.857-0.862,1.898-2.368,3.477-0.417c1.578,1.949,0.809,2.498-0.074,3.388C10.579,11.876,11.878,13.439,13.237,14.788z
		 M15.206,8.355c0,0-0.41-0.064-0.697,0.224c-0.295,0.294-0.309,0.804,0.004,1.115c0.184,0.184,0.441,0.223,0.441,0.223
		c0.506,0.095,1.27,0.256,2.08,1.065c0.811,0.811,0.971,1.573,1.064,2.079c0,0,0.041,0.26,0.225,0.443
		c0.311,0.312,0.818,0.299,1.115,0.003c0.285-0.287,0.223-0.697,0.223-0.697c-0.16-1.023-0.656-2.093-1.51-2.946
		C17.3,9.012,16.229,8.517,15.206,8.355z M19.05,8.967c1.486,1.486,2.119,3.172,1.912,4.539c0,0-0.07,0.434,0.213,0.717
		c0.316,0.317,0.822,0.299,1.119,0.001c0.191-0.191,0.232-0.502,0.232-0.502c0.17-1.182-0.043-3.558-2.359-5.873
		c-2.316-2.316-4.691-2.53-5.871-2.36c0,0-0.313,0.042-0.504,0.233c-0.299,0.298-0.314,0.802,0.002,1.121
		c0.283,0.282,0.717,0.211,0.717,0.211C15.876,6.847,17.563,7.481,19.05,8.967z"/>
</g>
</svg>
