<?xml version="1.0" encoding="utf-8"?>
<!-- Generator: Adobe Illustrator 15.0.0, SVG Export Plug-In . SVG Version: 6.00 Build 0)  -->
<!DOCTYPE svg PUBLIC "-//W3C//DTD SVG 1.1//EN" "http://www.w3.org/Graphics/SVG/1.1/DTD/svg11.dtd">
<svg version="1.1" id="Capa_1" xmlns="http://www.w3.org/2000/svg" xmlns:xlink="http://www.w3.org/1999/xlink" x="0px" y="0px"
	 width="42.585px" height="47.265px" viewBox="0 0 42.585 47.265" enable-background="new 0 0 42.585 47.265" xml:space="preserve">
<g>
	<path fill-rule="evenodd" clip-rule="evenodd" fill="#333333" d="M26.564,9.34l-9.358,3.201c0,0,0,0-0.499-0.623
		c0,0,0,0,6.795-6.793c1.094-1.096,3.296-0.82,4.081,0.51C28.29,6.834,28.017,8.844,26.564,9.34L26.564,9.34z"/>
	<path fill-rule="evenodd" clip-rule="evenodd" fill="#333333" d="M21.179,14.896c7.851,0,14.522,5.691,14.522,13.779
		c0,7.998-7.264,12.167-14.522,12.167c-7.473,0-14.152-4.946-14.152-12.786C7.026,20.432,13.852,14.896,21.179,14.896L21.179,14.896
		L21.179,14.896z M21.179,17.629c4.344,0,7.446,4.841,7.446,10.427c0,5.584-3.103,10.427-7.446,10.427
		c-3.85,0-7.324-4.843-7.324-10.427C13.854,22.47,17.329,17.629,21.179,17.629L21.179,17.629L21.179,17.629z"/>
</g>
</svg>
