<?xml version="1.0" encoding="utf-8"?>
<!-- Generator: Adobe Illustrator 15.0.0, SVG Export Plug-In . SVG Version: 6.00 Build 0)  -->
<!DOCTYPE svg PUBLIC "-//W3C//DTD SVG 1.1//EN" "http://www.w3.org/Graphics/SVG/1.1/DTD/svg11.dtd">
<svg version="1.1" id="Capa_1" xmlns="http://www.w3.org/2000/svg" xmlns:xlink="http://www.w3.org/1999/xlink" x="0px" y="0px"
	 width="24.875px" height="25.75px" viewBox="0 0 24.875 25.75" enable-background="new 0 0 24.875 25.75" xml:space="preserve">
<g>
	<g>
		<g>
			<path fill="#FFFFFF" d="M19.707,23H4.293C3.029,23,2,21.971,2,20.706V5.294C2,4.029,3.029,3,4.293,3h15.414
				C20.971,3,22,4.029,22,5.294v15.412C22,21.971,20.971,23,19.707,23z M4.293,4C3.58,4,3,4.581,3,5.294v15.412
				C3,21.419,3.58,22,4.293,22h15.414C20.42,22,21,21.419,21,20.706V5.294C21,4.581,20.42,4,19.707,4H4.293z"/>
		</g>
	</g>
	<g>
		<g>
			<rect x="5" y="9" fill="#FFFFFF" width="13" height="2"/>
		</g>
		<g>
			<rect x="5" y="12" fill="#FFFFFF" width="13" height="2"/>
		</g>
		<g>
			<rect x="5" y="15" fill="#FFFFFF" width="13" height="2"/>
		</g>
	</g>
</g>
</svg>
