<?xml version="1.0" encoding="utf-8"?>
<!-- Generator: Adobe Illustrator 15.0.0, SVG Export Plug-In . SVG Version: 6.00 Build 0)  -->
<!DOCTYPE svg PUBLIC "-//W3C//DTD SVG 1.1//EN" "http://www.w3.org/Graphics/SVG/1.1/DTD/svg11.dtd">
<svg version="1.1" id="Capa_1" xmlns="http://www.w3.org/2000/svg" xmlns:xlink="http://www.w3.org/1999/xlink" x="0px" y="0px"
	 width="100.25px" height="26px" viewBox="0 0 100.25 26" enable-background="new 0 0 100.25 26" xml:space="preserve">
<g>
	<g>
		<path id="Facebook__x28_alt_x29__7_" fill="#808080" d="M22.343,7.232c0-1.515-1.367-2.884-2.883-2.884H7.925
			c-1.516,0-2.885,1.369-2.885,2.884v11.534c0,1.516,1.369,2.885,2.885,2.885h5.768v-6.537h-2.115v-2.883h2.115v-1.124
			c0-1.938,1.455-3.683,3.244-3.683h2.33v2.883h-2.33c-0.256,0-0.553,0.311-0.553,0.774v1.149h2.883v2.883h-2.883v6.537h3.076
			c1.516,0,2.883-1.369,2.883-2.885V7.232z"/>
	</g>
	<g>
		<g>
			<path fill="#808080" d="M86.62,14.577c-0.27,0-0.525,0.15-0.766,0.45v-1.813h-0.756v5.553h0.756v-0.405
				c0.248,0.308,0.502,0.462,0.766,0.462c0.309,0,0.506-0.157,0.598-0.473c0.051-0.158,0.078-0.432,0.078-0.822v-1.645
				c0-0.398-0.027-0.676-0.078-0.834C87.126,14.734,86.929,14.577,86.62,14.577z M86.552,17.585c0,0.367-0.107,0.551-0.326,0.551
				c-0.127,0-0.252-0.06-0.371-0.18v-2.523c0.119-0.119,0.244-0.18,0.371-0.18c0.217,0,0.326,0.188,0.326,0.563V17.585z"/>
			<path fill="#808080" d="M89.009,14.577c-0.385,0-0.684,0.143-0.902,0.428c-0.15,0.203-0.225,0.525-0.225,0.969v1.453
				c0,0.443,0.078,0.766,0.236,0.969c0.217,0.285,0.521,0.428,0.912,0.428c0.398,0,0.699-0.15,0.9-0.45
				c0.092-0.136,0.146-0.285,0.17-0.45c0.016-0.105,0.023-0.268,0.023-0.484v-0.102h-0.768c0,0.082,0,0.162,0,0.242
				c0,0.078-0.002,0.141-0.006,0.186c-0.002,0.045-0.004,0.071-0.004,0.078c-0.045,0.195-0.158,0.293-0.338,0.293
				c-0.256,0-0.383-0.191-0.383-0.574v-0.732h1.498v-0.855c0-0.436-0.08-0.758-0.236-0.969
				C89.685,14.72,89.392,14.577,89.009,14.577z M89.368,16.21h-0.744v-0.383c0-0.383,0.125-0.574,0.373-0.574
				s0.371,0.191,0.371,0.574V16.21L89.368,16.21z"/>
			<path fill="#808080" d="M83.702,17.787c-0.164,0.233-0.322,0.349-0.473,0.349c-0.105,0-0.162-0.056-0.17-0.169
				c-0.006-0.015-0.01-0.112-0.01-0.292v-3.041h-0.744v3.266c0,0.286,0.023,0.488,0.068,0.608c0.066,0.211,0.225,0.315,0.473,0.315
				c0.277,0,0.563-0.169,0.855-0.507v0.45h0.756v-4.133h-0.756V17.787L83.702,17.787L83.702,17.787z"/>
			<path fill="#808080" d="M84.683,10.386c0.24,0,0.361-0.191,0.361-0.574V8.054c0-0.39-0.121-0.585-0.361-0.585
				s-0.361,0.195-0.361,0.585v1.758C84.321,10.194,84.442,10.386,84.683,10.386z"/>
			<polygon fill="#808080" points="79.579,14.002 80.458,14.002 80.458,18.767 81.292,18.767 81.292,14.002 82.192,14.002 
				82.192,13.214 79.579,13.214 			"/>
			<path fill="#808080" d="M90.259,4.349H79.444c-0.893,0-1.658,0.317-2.293,0.951C76.517,5.936,76.2,6.699,76.2,7.593v10.814
				c0,0.893,0.316,1.657,0.951,2.291c0.635,0.635,1.398,0.953,2.293,0.953h10.814c0.893,0,1.656-0.318,2.291-0.953
				c0.635-0.634,0.953-1.398,0.953-2.291V7.593c0-0.894-0.318-1.657-0.953-2.293C91.917,4.666,91.151,4.349,90.259,4.349z
				 M86.417,6.849h0.754v3.064c0,0.18,0.004,0.277,0.012,0.293c0.008,0.121,0.068,0.18,0.182,0.18c0.148,0,0.307-0.115,0.473-0.349
				V6.849h0.754v4.168h-0.754v-0.45c-0.309,0.338-0.598,0.507-0.867,0.507c-0.24,0-0.402-0.102-0.484-0.304
				c-0.045-0.136-0.068-0.342-0.068-0.62V6.849L86.417,6.849z M83.567,8.2c0-0.435,0.078-0.762,0.236-0.979
				c0.203-0.285,0.496-0.429,0.879-0.429c0.367,0,0.66,0.144,0.879,0.429c0.156,0.217,0.236,0.544,0.236,0.979v1.465
				c0,0.451-0.08,0.777-0.236,0.98c-0.219,0.285-0.512,0.428-0.879,0.428c-0.383,0-0.676-0.143-0.879-0.428
				c-0.158-0.218-0.236-0.545-0.236-0.98V8.2L83.567,8.2z M81.54,5.419l0.598,2.196l0.574-2.196h0.844l-1.014,3.334v2.264h-0.834
				V8.753c-0.082-0.413-0.254-1.006-0.518-1.779c-0.053-0.173-0.139-0.432-0.26-0.777c-0.119-0.346-0.209-0.604-0.27-0.777H81.54
				L81.54,5.419z M90.821,19.015c-0.074,0.324-0.234,0.598-0.479,0.822c-0.244,0.226-0.527,0.357-0.85,0.395
				c-1.029,0.113-2.576,0.169-4.643,0.169c-2.064,0-3.611-0.056-4.641-0.169c-0.322-0.037-0.605-0.169-0.85-0.395
				c-0.244-0.225-0.404-0.498-0.479-0.822c-0.15-0.631-0.227-1.607-0.227-2.929c0-1.299,0.076-2.275,0.227-2.929
				c0.074-0.33,0.234-0.605,0.479-0.828c0.244-0.221,0.531-0.351,0.861-0.389c1.021-0.112,2.564-0.169,4.631-0.169
				c2.072,0,3.619,0.056,4.641,0.169c0.322,0.038,0.607,0.168,0.855,0.389c0.248,0.223,0.41,0.498,0.484,0.828
				c0.143,0.623,0.215,1.6,0.215,2.929C91.046,17.407,90.972,18.384,90.821,19.015z"/>
		</g>
	</g>
	<g>
		<path fill="#808080" d="M65.79,9.007c-0.367,0-0.666-0.299-0.666-0.666v-1.33c0-0.367,0.299-0.666,0.666-0.666h1.33
			c0.367,0,0.666,0.299,0.666,0.666v1.33c0,0.367-0.299,0.666-0.666,0.666H65.79z"/>
		<path fill="#808080" d="M61.132,10.463c-0.484,0-0.93,0.142-1.313,0.374c0.119-0.037,0.242-0.061,0.375-0.061
			c0.711,0,1.285,0.574,1.285,1.286c0,0.71-0.574,1.286-1.285,1.286s-1.287-0.576-1.287-1.286c0-0.132,0.025-0.257,0.063-0.376
			c-0.234,0.385-0.375,0.83-0.375,1.313c0,1.402,1.135,2.538,2.537,2.538c1.4,0,2.537-1.135,2.537-2.538
			C63.669,11.597,62.532,10.463,61.132,10.463z"/>
		<g>
			<path fill="#808080" d="M61.132,9.007c2.205,0,3.992,1.787,3.992,3.992c0,2.206-1.789,3.994-3.992,3.994
				c-2.205,0-3.994-1.788-3.994-3.994C57.138,10.794,58.927,9.007,61.132,9.007 M61.132,7.677c-2.936,0-5.324,2.388-5.324,5.322
				c0,2.936,2.389,5.324,5.324,5.324s5.324-2.389,5.324-5.324C66.456,10.064,64.067,7.677,61.132,7.677L61.132,7.677z"/>
		</g>
		<path fill="#808080" d="M66.538,4.349H55.724c-1.791,0-3.244,1.452-3.244,3.244v10.814c0,1.791,1.453,3.244,3.244,3.244h10.814
			c1.793,0,3.244-1.453,3.244-3.244V7.593C69.782,5.801,68.331,4.349,66.538,4.349z M68.452,10.338h-4.352
			c0.635,0.708,1.023,1.638,1.023,2.661c0,2.206-1.789,3.994-3.992,3.994c-2.205,0-3.994-1.788-3.994-3.994
			c0-1.023,0.389-1.955,1.023-2.661h-4.35V7.593c0-1.055,0.857-1.913,1.912-1.913h10.814c1.057,0,1.914,0.858,1.914,1.913V10.338z"
			/>
	</g>
	<g>
		<g>
			<path fill="#808080" d="M42.819,4.349H32.005c-1.793,0-3.244,1.452-3.244,3.244v10.814c0,1.791,1.451,3.244,3.244,3.244h10.814
				c1.791,0,3.244-1.453,3.244-3.244V7.593C46.063,5.801,44.61,4.349,42.819,4.349z M41.716,11.058l0.006,0.275
				c0,2.816-2.143,6.061-6.061,6.061c-1.201,0-2.32-0.353-3.264-0.957c0.166,0.02,0.336,0.03,0.508,0.03
				c0.998,0,1.916-0.341,2.645-0.911c-0.932-0.018-1.717-0.635-1.988-1.48c0.131,0.024,0.262,0.037,0.4,0.037
				c0.195,0,0.383-0.024,0.561-0.073c-0.973-0.196-1.707-1.057-1.707-2.089v-0.026c0.287,0.16,0.615,0.255,0.965,0.267
				c-0.572-0.381-0.947-1.033-0.947-1.771c0-0.391,0.104-0.756,0.287-1.07c1.049,1.288,2.619,2.137,4.391,2.225
				c-0.037-0.155-0.057-0.318-0.057-0.485c0-1.175,0.955-2.13,2.131-2.13c0.613,0,1.166,0.26,1.555,0.674
				c0.484-0.097,0.941-0.274,1.354-0.518c-0.158,0.498-0.496,0.915-0.938,1.179c0.43-0.051,0.842-0.167,1.225-0.335
				C42.495,10.384,42.132,10.759,41.716,11.058z"/>
		</g>
	</g>
</g>
</svg>
