<?xml version="1.0" encoding="utf-8"?>
<!-- Generator: Adobe Illustrator 15.0.0, SVG Export Plug-In . SVG Version: 6.00 Build 0)  -->
<!DOCTYPE svg PUBLIC "-//W3C//DTD SVG 1.1//EN" "http://www.w3.org/Graphics/SVG/1.1/DTD/svg11.dtd">
<svg version="1.1" id="Capa_1" xmlns="http://www.w3.org/2000/svg" xmlns:xlink="http://www.w3.org/1999/xlink" x="0px" y="0px"
	 width="351.034px" height="93.524px" viewBox="0 0 351.034 93.524" enable-background="new 0 0 351.034 93.524"
	 xml:space="preserve">
<g>
	<g>
		<path fill-rule="evenodd" clip-rule="evenodd" fill="#FFFFFF" d="M97.292,23.571c9.667,0,17.964,6.925,17.964,16.869
			c0,9.631-9.139,15.152-17.964,15.152c-9.263,0-18.117-5.99-18.117-15.934C79.174,29.871,88.119,23.571,97.292,23.571
			L97.292,23.571L97.292,23.571z M97.292,26.855c4.685,0,8.903,5.933,8.903,12.804c0,7.029-4.219,12.969-8.903,12.969
			c-4.843,0-8.902-5.939-8.902-12.969C88.389,32.788,92.449,26.855,97.292,26.855L97.292,26.855L97.292,26.855z"/>
		<path fill-rule="evenodd" clip-rule="evenodd" fill="#FFFFFF" d="M197.574,53.096c-13.277,0-13.277,0-13.277,0
			c0-30.148,0-30.148,0-30.148c13.277,0,13.277,0,13.277,0c0,7.498,0,7.498,0,7.498c4.24-4.891,28.895-8.746,28.895,1.561
			c0,0.314,0,0.781,0,1.096c0,19.994,0,19.994,0,19.994c-14.057,0-14.057,0-14.057,0c0-15.464,0-15.464,0-15.464
			c0-2.614-0.113-4.683-2.365-6.137c-4.51-2.905-13.014-1.907-12.473,4.73V53.096L197.574,53.096z"/>
		<path fill-rule="evenodd" clip-rule="evenodd" fill="#FFFFFF" d="M304.728,53.096c-13.275,0-13.275,0-13.275,0
			c0-30.148,0-30.148,0-30.148c13.275,0,13.275,0,13.275,0c0,7.498,0,7.498,0,7.498c5.094-5.092,29.367-9.086,29.367,2.656
			c0,19.994,0,19.994,0,19.994c-14.842,0-14.842,0-14.842,0c0-15.464,0-15.464,0-15.464c0-2.185-0.328-4.845-2.232-6.214
			c-3.906-2.811-12.826-1.771-12.293,4.808V53.096L304.728,53.096z"/>
		<path fill-rule="evenodd" clip-rule="evenodd" fill="#FFFFFF" d="M239.281,11.702c4.061-1.252,7.965-0.624,8.432,1.561
			c0.625,2.189-2.188,4.999-6.246,6.405c-4.061,1.095-7.969,0.625-8.59-1.717C232.253,15.764,235.214,13.106,239.281,11.702
			L239.281,11.702z M247.404,53.096c-13.592,0-13.592,0-13.592,0c0-30.148,0-30.148,0-30.148c13.592,0,13.592,0,13.592,0V53.096
			L247.404,53.096z"/>
		<path fill-rule="evenodd" clip-rule="evenodd" fill="#FFFFFF" d="M170.865,11.702c4.217-1.252,7.965-0.624,8.588,1.561
			c0.781,2.189-2.182,4.999-6.246,6.405c-4.221,1.095-7.967,0.625-8.438-1.717C163.99,15.764,166.802,13.106,170.865,11.702
			L170.865,11.702z M179.138,53.096c-13.43,0-13.43,0-13.43,0c0-30.148,0-30.148,0-30.148c13.43,0,13.43,0,13.43,0V53.096
			L179.138,53.096z"/>
		<path fill-rule="evenodd" clip-rule="evenodd" fill="#FFFFFF" d="M132.906,32.006c0,17.653,0,17.653,0,17.653
			c1.594,1.484,3.748,3.272,6.25,3.272c5.465,0,9.68-6.085,9.68-12.492c0-5.383-2.471-9.572-6.082-11.24
			C138.986,27.461,135.423,28.804,132.906,32.006L132.906,32.006z M119.003,80.9c0-57.952,0-57.952,0-57.952
			c13.902,0,13.902,0,13.902,0c0,5.156,0,5.156,0,5.156c4.215-3.914,14.02-4.751,19.369-2.969
			c7.186,2.027,11.09,10.31,10.309,16.088c-1.023,15.366-19.463,17.93-29.678,10.467c0,29.21,0,29.21,0,29.21H119.003L119.003,80.9z
			"/>
		<path fill-rule="evenodd" clip-rule="evenodd" fill="#FFFFFF" d="M35.906,28.104c2.686,2.305,0.76,7.808-2.968,7.808
			c-2.655,0-4.845-1.716-4.845-4.058c0-10.623,15.465-9.846,22.026-7.969c6.245,2.188,7.654,5.468,7.654,11.402
			c0,18.745,0,18.745,0,18.745c-12.028,0-12.028,0-12.028,0c0-2.343,0-2.343,0-2.343c-5.936,4.059-19.682,3.122-19.682-6.09
			c0-9.854,13.006-10.368,19.682-7.658c0-3.437-0.625-12.339-4.998-12.339C37.781,25.603,34.966,25.603,35.906,28.104L35.906,28.104
			z M36.997,40.287c4.217,0,6.874,2.346,6.874,5.624c0,3.125-2.657,5.936-6.874,5.936c-4.059,0-6.714-2.811-6.714-5.936
			C30.283,42.632,32.938,40.287,36.997,40.287L36.997,40.287L36.997,40.287z"/>
		<polygon fill-rule="evenodd" clip-rule="evenodd" fill="#FFFFFF" points="23.876,54.033 10.754,54.033 10.754,10.45 23.876,10.45 
			23.876,54.033 		"/>
		<path fill-rule="evenodd" clip-rule="evenodd" fill="#FFFFFF" d="M275.425,16.581l-11.777,4.027c0,0,0,0-0.629-0.782
			c0,0,0,0,8.551-8.55c1.377-1.379,4.148-1.031,5.135,0.643C277.595,13.426,277.251,15.956,275.425,16.581L275.425,16.581z"/>
		<path fill-rule="evenodd" clip-rule="evenodd" fill="#FFFFFF" d="M268.646,23.571c9.881,0,18.275,7.163,18.275,17.341
			c0,10.063-9.141,15.31-18.275,15.31c-9.402,0-17.809-6.225-17.809-16.09C250.837,30.538,259.427,23.571,268.646,23.571
			L268.646,23.571L268.646,23.571z M268.646,27.01c5.467,0,9.371,6.092,9.371,13.121c0,7.027-3.904,13.121-9.371,13.121
			c-4.844,0-9.215-6.094-9.215-13.121C259.431,33.102,263.802,27.01,268.646,27.01L268.646,27.01L268.646,27.01z"/>
	</g>
</g>
</svg>
