<?xml version="1.0" encoding="utf-8"?>
<!-- Generator: Adobe Illustrator 15.0.0, SVG Export Plug-In . SVG Version: 6.00 Build 0)  -->
<!DOCTYPE svg PUBLIC "-//W3C//DTD SVG 1.1//EN" "http://www.w3.org/Graphics/SVG/1.1/DTD/svg11.dtd">
<svg version="1.1" id="Capa_1" xmlns="http://www.w3.org/2000/svg" xmlns:xlink="http://www.w3.org/1999/xlink" x="0px" y="0px"
	 width="66.5px" height="50.484px" viewBox="0 0 66.5 50.484" enable-background="new 0 0 66.5 50.484" xml:space="preserve">
<path fill="#FFFFFF" d="M50.488,23.114c-0.188-6.637-5.622-11.962-12.305-11.962c-6.313,0-11.514,4.747-12.233,10.866
	c-1.074-0.673-2.342-1.063-3.696-1.063c-3.849,0-6.969,3.113-6.969,6.96c0,0.292,0.055,0-1.196,0c-4.13,0-7.482,3.354-7.482,7.48
	c0,3.767,2.782,6.879,6.402,7.402c0.28,0.055,0.573,0.079,0.875,0.079h35.298c0.125,0,0.166-0.01,0.17-0.024
	c0.162,0.007,0.313,0.024,0.471,0.024c5.468,0,9.898-4.433,9.898-9.897C59.721,27.735,55.645,23.46,50.488,23.114z"/>
</svg>
