<?xml version="1.0" encoding="utf-8"?>
<!-- Generator: Adobe Illustrator 15.0.0, SVG Export Plug-In . SVG Version: 6.00 Build 0)  -->
<!DOCTYPE svg PUBLIC "-//W3C//DTD SVG 1.1//EN" "http://www.w3.org/Graphics/SVG/1.1/DTD/svg11.dtd">
<svg version="1.1" id="Capa_1" xmlns="http://www.w3.org/2000/svg" xmlns:xlink="http://www.w3.org/1999/xlink" x="0px" y="0px"
	 width="66.5px" height="55.75px" viewBox="0 0 66.5 55.75" enable-background="new 0 0 66.5 55.75" xml:space="preserve">
<g>
	<path fill="#FFFFFF" d="M8.297,20.949l-4.859,4.149l6.381-0.253c-0.354-0.59-0.666-1.221-0.925-1.883
		C8.635,22.299,8.437,21.629,8.297,20.949z"/>
	<path fill="#FFFFFF" d="M30.359,14.557c0.08,0.197,0.138,0.396,0.201,0.59c0.303-0.893,0.691-1.75,1.153-2.562l-2.279,0.091
		C29.791,13.268,30.1,13.895,30.359,14.557z"/>
	<path fill="#FFFFFF" d="M28.343,11.201l2.131-6.022L25.078,8.59c0.603,0.332,1.183,0.721,1.742,1.164
		C27.376,10.199,27.885,10.686,28.343,11.201z"/>
	<path fill="#FFFFFF" d="M23.395,7.852l-1.164-6.277l-2.968,5.653c0.691-0.014,1.388,0.029,2.091,0.136
		C22.058,7.474,22.739,7.635,23.395,7.852z"/>
	<path fill="#FFFFFF" d="M15.424,8.028c0.662-0.26,1.336-0.458,2.011-0.597l-4.148-4.854l0.254,6.376
		C14.132,8.602,14.763,8.284,15.424,8.028z"/>
	<path fill="#FFFFFF" d="M10.622,11.568c0.445-0.558,0.927-1.065,1.443-1.523l-6.02-2.134l3.411,5.401
		C9.787,12.706,10.176,12.123,10.622,11.568z"/>
	<path fill="#FFFFFF" d="M8.231,17.035c0.105-0.707,0.272-1.387,0.488-2.037l-6.277,1.158l5.653,2.972
		C8.08,18.438,8.125,17.736,8.231,17.035z"/>
	<path fill="#FFFFFF" d="M16.044,24.913c1.466,0,1.399,0.343,1.399,0c0-4.495,3.646-8.137,8.146-8.137
		c1.126,0,2.192,0.237,3.167,0.652c-0.571-3.917-3.632-7.166-7.751-7.79c-5.037-0.759-9.739,2.705-10.502,7.743
		c-0.465,3.067,0.644,6.002,2.719,8.013C14.108,25.087,15.055,24.913,16.044,24.913z"/>
	<path fill="#FFFFFF" d="M54.824,21.493c-0.188-6.637-5.62-11.962-12.305-11.962c-6.313,0-11.513,4.747-12.232,10.866
		c-1.074-0.673-2.342-1.063-3.696-1.063c-3.849,0-6.969,3.114-6.969,6.96c0,0.292,0.055,0-1.196,0c-4.13,0-7.482,3.353-7.482,7.481
		c0,3.766,2.782,6.879,6.402,7.402c0.28,0.055,0.573,0.078,0.875,0.078h35.296c0.125,0,0.166-0.01,0.17-0.023
		c0.162,0.006,0.313,0.023,0.472,0.023c5.467,0,9.899-4.432,9.899-9.896C64.059,26.114,59.98,21.838,54.824,21.493z"/>
	<path fill="#FFFFFF" d="M44.411,44.866c-0.104-0.276-0.201-0.579-0.291-0.911c-0.087,0.32-0.185,0.611-0.281,0.884
		c-0.028,0.083-0.056,0.154-0.09,0.233c-0.071,0.188-0.144,0.363-0.22,0.531c-0.036,0.084-0.075,0.164-0.111,0.242
		c-0.076,0.155-0.154,0.317-0.234,0.469c-0.037,0.066-0.072,0.14-0.113,0.205c-0.096,0.181-0.195,0.353-0.297,0.533
		c-0.39,0.666-0.813,1.362-1.287,2.317c-1.072,2.19,0.522,4.396,2.635,4.396c2.109,0,3.705-2.199,2.629-4.396
		C45.798,47.441,45.018,46.549,44.411,44.866z"/>
	<path fill="#FFFFFF" d="M34.402,44.287c-0.113-0.325-0.229-0.665-0.334-1.051c-0.104,0.367-0.209,0.695-0.321,1.009
		c-0.036,0.104-0.076,0.194-0.115,0.292c-0.075,0.201-0.155,0.402-0.238,0.582c-0.042,0.105-0.094,0.205-0.143,0.302
		c-0.08,0.17-0.163,0.341-0.246,0.5c-0.053,0.095-0.101,0.188-0.15,0.279c-0.105,0.187-0.205,0.366-0.313,0.555
		c-0.447,0.771-0.944,1.581-1.488,2.69c-1.235,2.513,0.59,5.037,3.014,5.037c2.418,0,4.246-2.524,3.015-5.037
		C35.999,47.232,35.1,46.213,34.402,44.287z"/>
	<path fill="#FFFFFF" d="M25.91,41.598c-0.113,0.396-0.233,0.725-0.361,1.033c-0.022,0.042-0.04,0.098-0.059,0.146
		c-0.128,0.285-0.264,0.549-0.406,0.809c-0.035,0.057-0.063,0.114-0.098,0.17c-0.305,0.535-0.646,1.079-1.026,1.852
		c-0.796,1.625,0.385,3.256,1.949,3.256c1.563,0,2.738-1.631,1.949-3.256C27.037,43.936,26.379,43.322,25.91,41.598z"/>
</g>
</svg>
