<?xml version="1.0" encoding="utf-8"?>
<!-- Generator: Adobe Illustrator 15.0.0, SVG Export Plug-In . SVG Version: 6.00 Build 0)  -->
<!DOCTYPE svg PUBLIC "-//W3C//DTD SVG 1.1//EN" "http://www.w3.org/Graphics/SVG/1.1/DTD/svg11.dtd">
<svg version="1.1" id="Capa_1" xmlns="http://www.w3.org/2000/svg" xmlns:xlink="http://www.w3.org/1999/xlink" x="0px" y="0px"
	 width="66.5px" height="55.75px" viewBox="0 0 66.5 55.75" enable-background="new 0 0 66.5 55.75" xml:space="preserve">
<g>
	<path fill="#FFFFFF" d="M51.463,18.328c-0.188-6.637-5.622-11.962-12.306-11.962c-6.313,0-11.512,4.747-12.233,10.866
		c-1.074-0.673-2.341-1.063-3.694-1.063c-3.85,0-6.969,3.114-6.969,6.96c0,0.292,0.053,0-1.197,0c-4.13,0-7.482,3.353-7.482,7.48
		c0,3.767,2.782,6.879,6.402,7.404c0.281,0.053,0.573,0.077,0.875,0.077h35.297c0.125,0,0.166-0.01,0.17-0.024
		c0.162,0.008,0.313,0.024,0.472,0.024c5.466,0,9.897-4.432,9.897-9.898C60.693,22.949,56.62,18.674,51.463,18.328z"/>
	<path fill="#FFFFFF" d="M41.048,41.701c-0.104-0.276-0.2-0.579-0.291-0.911c-0.087,0.319-0.184,0.612-0.28,0.884
		c-0.031,0.083-0.058,0.154-0.09,0.232c-0.072,0.189-0.145,0.365-0.22,0.533c-0.037,0.084-0.076,0.162-0.112,0.242
		C39.979,42.838,39.9,43,39.82,43.15c-0.037,0.068-0.072,0.14-0.112,0.205c-0.097,0.181-0.196,0.353-0.298,0.533
		c-0.389,0.666-0.813,1.362-1.286,2.317c-1.071,2.19,0.522,4.396,2.633,4.396c2.112,0,3.705-2.199,2.63-4.396
		C42.436,44.277,41.654,43.384,41.048,41.701z"/>
	<path fill="#FFFFFF" d="M31.041,41.122c-0.114-0.325-0.23-0.665-0.336-1.052c-0.101,0.367-0.208,0.697-0.32,1.01
		c-0.037,0.105-0.076,0.193-0.114,0.292c-0.076,0.2-0.156,0.403-0.239,0.582c-0.042,0.104-0.094,0.205-0.143,0.302
		c-0.079,0.17-0.162,0.34-0.246,0.5c-0.053,0.094-0.101,0.188-0.15,0.279c-0.105,0.186-0.205,0.367-0.313,0.555
		c-0.447,0.771-0.944,1.581-1.488,2.691c-1.235,2.512,0.59,5.037,3.014,5.037c2.42,0,4.247-2.525,3.016-5.037
		C32.635,44.068,31.736,43.048,31.041,41.122z"/>
	<path fill="#FFFFFF" d="M22.546,38.434c-0.112,0.396-0.231,0.726-0.361,1.033c-0.022,0.042-0.04,0.098-0.059,0.146
		c-0.126,0.285-0.264,0.549-0.406,0.809c-0.035,0.057-0.062,0.114-0.097,0.17c-0.307,0.535-0.648,1.079-1.027,1.852
		C19.8,44.068,20.981,45.7,22.545,45.7c1.563,0,2.74-1.632,1.949-3.257C23.673,40.771,23.017,40.158,22.546,38.434z"/>
</g>
</svg>
