<?xml version="1.0" encoding="utf-8"?>
<!-- Generator: Adobe Illustrator 15.0.0, SVG Export Plug-In . SVG Version: 6.00 Build 0)  -->
<!DOCTYPE svg PUBLIC "-//W3C//DTD SVG 1.1//EN" "http://www.w3.org/Graphics/SVG/1.1/DTD/svg11.dtd">
<svg version="1.1" id="Capa_1" xmlns="http://www.w3.org/2000/svg" xmlns:xlink="http://www.w3.org/1999/xlink" x="0px" y="0px"
	 width="37.143px" height="31.619px" viewBox="0 0 37.143 31.619" enable-background="new 0 0 37.143 31.619" xml:space="preserve">
<g>
	<g>
		<path id="WhatsApp" fill="#F7F7F7" d="M30.73,14.655c0,6.337-5.178,11.474-11.564,11.474c-2.028,0-3.933-0.518-5.59-1.428
			l-6.402,2.035L9.26,20.58c-1.053-1.729-1.66-3.758-1.66-5.925c0-6.337,5.178-11.475,11.565-11.475
			C25.552,3.18,30.73,8.317,30.73,14.655z"/>
	</g>
	<path fill="#88C23F" d="M19.166,5.007c-5.362,0-9.723,4.328-9.723,9.647c0,2.111,0.688,4.066,1.853,5.656l-1.215,3.584l3.736-1.188
		c1.535,1.008,3.374,1.596,5.349,1.596c5.361,0,9.723-4.328,9.723-9.647C28.888,9.335,24.527,5.007,19.166,5.007z"/>
	<path fill="#FFFFFF" d="M25.005,17.297c-0.072-0.116-0.261-0.188-0.544-0.328c-0.284-0.141-1.678-0.82-1.937-0.914
		c-0.26-0.094-0.449-0.141-0.639,0.141c-0.188,0.281-0.732,0.914-0.897,1.102c-0.165,0.188-0.331,0.213-0.614,0.071
		c-0.283-0.141-1.196-0.438-2.279-1.396c-0.842-0.746-1.412-1.666-1.577-1.948c-0.166-0.281-0.018-0.434,0.124-0.573
		c0.128-0.126,0.284-0.329,0.425-0.493c0.142-0.165,0.189-0.281,0.283-0.47c0.095-0.188,0.048-0.352-0.023-0.493
		c-0.071-0.141-0.638-1.524-0.874-2.088c-0.236-0.563-0.472-0.469-0.638-0.469c-0.165,0-0.354-0.024-0.543-0.024
		s-0.496,0.071-0.756,0.352c-0.259,0.282-0.992,0.962-0.992,2.346c0,1.384,1.016,2.721,1.158,2.909
		c0.142,0.188,1.96,3.12,4.842,4.247c2.881,1.125,2.881,0.75,3.401,0.703c0.52-0.048,1.678-0.682,1.914-1.338
		C25.076,17.978,25.076,17.415,25.005,17.297z"/>
</g>
</svg>
