<?xml version="1.0" encoding="utf-8"?>
<!-- Generator: Adobe Illustrator 15.0.0, SVG Export Plug-In . SVG Version: 6.00 Build 0)  -->
<!DOCTYPE svg PUBLIC "-//W3C//DTD SVG 1.1//EN" "http://www.w3.org/Graphics/SVG/1.1/DTD/svg11.dtd">
<svg version="1.1" id="Capa_1" xmlns="http://www.w3.org/2000/svg" xmlns:xlink="http://www.w3.org/1999/xlink" x="0px" y="0px"
	 width="65.204px" height="62.667px" viewBox="0 0 65.204 62.667" enable-background="new 0 0 65.204 62.667" xml:space="preserve">
<g>
	<g>
		<path fill="#FFFFFF" d="M269.539,5555.004l2.408,22.028l30.841-3.37l-2.408-22.029L269.539,5555.004z M300.183,5570.232
			l-5.208-6.862l-4.539,4.706l-4.514-5.947l-12.013,12.46l-1.926-17.623l26.434-2.889L300.183,5570.232z M274.788,5562.232
			c0.198,1.824,1.841,3.143,3.666,2.942c1.824-0.198,3.143-1.84,2.942-3.665c-0.199-1.824-1.84-3.143-3.665-2.943
			C275.906,5558.767,274.588,5560.406,274.788,5562.232z M295.492,5547.709l-30.84,3.371l2.408,22.029l2.203-0.24l-2.167-19.828
			l28.636-3.127L295.492,5547.709L295.492,5547.709z"/>
	</g>
</g>
<g>
	<g>
		<path fill="#FFFFFF" d="M45.73,31.137c0.054,0.023,0.103,0.056,0.152,0.085l0.433-0.992c-0.056-0.016-0.111-0.029-0.167-0.053
			c-0.663-0.291-0.966-1.063-0.677-1.727l-2.444-1.064l2.664,3.738C45.704,31.13,45.717,31.131,45.73,31.137z"/>
		<path fill="#FFFFFF" d="M16.545,31.847l14.827,6.466l-9.052-12.707l-0.336-0.472l0.471-0.336c0.328-0.233,0.406-0.691,0.172-1.02
			l-0.336-0.472l0.472-0.335l0.854-0.609l0.472-0.336l0.336,0.472c0.138,0.192,0.36,0.308,0.597,0.308
			c0.151,0,0.3-0.047,0.423-0.137c0.16-0.113,0.265-0.282,0.298-0.475c0.032-0.191-0.013-0.387-0.126-0.545l-0.336-0.473
			l0.472-0.335l0.854-0.608l0.009-0.006l-4.202-1.832c-0.214,0.492-0.696,0.787-1.202,0.787c-0.174,0-0.352-0.036-0.522-0.11
			l-0.419,0.961c0.663,0.29,0.966,1.062,0.678,1.726c-0.216,0.492-0.697,0.787-1.203,0.787c-0.175,0-0.352-0.036-0.522-0.111
			l-0.42,0.963c0.663,0.288,0.968,1.061,0.678,1.725c-0.215,0.492-0.696,0.785-1.201,0.785c-0.176,0-0.353-0.034-0.523-0.109
			l-0.419,0.961c0.662,0.29,0.966,1.061,0.676,1.725c-0.214,0.493-0.696,0.787-1.201,0.787c-0.175,0-0.353-0.035-0.523-0.109
			l-0.419,0.961C16.532,30.411,16.835,31.183,16.545,31.847z"/>
		<path fill="#FFFFFF" d="M25.78,23.142c-0.229,0.164-0.496,0.242-0.759,0.242c-0.409,0-0.813-0.191-1.068-0.549l-0.854,0.607
			c0.42,0.59,0.282,1.408-0.306,1.828l9.61,13.492l0.653,0.915l0.652,0.916l3.679,5.165c0.23-0.164,0.496-0.243,0.76-0.243
			c0.409,0,0.813,0.191,1.067,0.55c0.035,0.049,0.061,0.102,0.088,0.152l0.882-0.627c-0.04-0.044-0.081-0.085-0.116-0.133
			c-0.42-0.59-0.282-1.408,0.307-1.828c0.23-0.165,0.496-0.242,0.76-0.242c0.409,0,0.813,0.189,1.067,0.549
			c0.034,0.049,0.06,0.101,0.087,0.152l0.883-0.629c-0.04-0.043-0.08-0.082-0.116-0.133c-0.419-0.589-0.282-1.406,0.308-1.826
			c0.229-0.164,0.495-0.243,0.758-0.243c0.41,0,0.813,0.19,1.068,0.551c0.035,0.048,0.06,0.1,0.087,0.151l0.883-0.629
			c-0.04-0.042-0.082-0.083-0.116-0.132c-0.42-0.589-0.282-1.407,0.307-1.827c0.23-0.164,0.496-0.242,0.759-0.242
			c0.409,0,0.813,0.19,1.068,0.549c0.035,0.049,0.06,0.101,0.087,0.152l0.882-0.628c-0.04-0.043-0.081-0.084-0.115-0.132
			c-0.421-0.59-0.282-1.408,0.307-1.828l-2.99-4.197l-0.207-0.29l-0.027-0.04l-0.771-1.082l-0.406-0.569l-2.942-4.13l-0.651-0.916
			l-0.653-0.916l-5.944-8.348c-0.229,0.164-0.496,0.244-0.759,0.244c-0.409,0-0.813-0.191-1.067-0.551l-0.854,0.608
			c0.42,0.589,0.283,1.407-0.307,1.827c-0.23,0.166-0.496,0.243-0.759,0.243c-0.409,0-0.813-0.191-1.067-0.55l-0.854,0.608
			c0.204,0.286,0.274,0.629,0.227,0.952c-0.028,0.191-0.101,0.374-0.212,0.539c-0.084,0.127-0.19,0.242-0.322,0.337
			c-0.052,0.036-0.11,0.054-0.165,0.081c-0.188,0.1-0.39,0.162-0.594,0.162c-0.409,0-0.813-0.191-1.067-0.551l-0.854,0.61
			C26.506,21.903,26.37,22.722,25.78,23.142z"/>
	</g>
</g>
</svg>
