<?xml version="1.0" encoding="utf-8"?>
<!-- Generator: Adobe Illustrator 15.0.0, SVG Export Plug-In . SVG Version: 6.00 Build 0)  -->
<!DOCTYPE svg PUBLIC "-//W3C//DTD SVG 1.1//EN" "http://www.w3.org/Graphics/SVG/1.1/DTD/svg11.dtd">
<svg version="1.1" id="Capa_1" xmlns="http://www.w3.org/2000/svg" xmlns:xlink="http://www.w3.org/1999/xlink" x="0px" y="0px"
	 width="44.585px" height="38px" viewBox="0 0 44.585 38" enable-background="new 0 0 44.585 38" xml:space="preserve">
<g>
	<g>
		<g>
			<path fill="#FFFFFF" d="M25.501,21.94c-0.012-0.049-0.025-0.101-0.04-0.149c0.008-0.093,0.013-0.187,0.013-0.277
				c0-1.749-1.424-3.174-3.174-3.174c-1.365,0-2.558,0.862-2.995,2.13c-0.401-0.417-0.959-0.659-1.544-0.659
				c-0.565,0-1.101,0.219-1.502,0.616c-0.37,0.365-0.592,0.844-0.63,1.358c-1.044,0.207-1.814,1.135-1.814,2.211
				c0,1.243,1.011,2.254,2.254,2.254h8.508c1.244,0,2.255-1.011,2.255-2.254C26.832,23.102,26.313,22.303,25.501,21.94z"/>
			<path fill="#FFFFFF" d="M23.905,14.198h1.285c0.115,0,0.215-0.049,0.272-0.133c0.058-0.085,0.068-0.195,0.025-0.303l-0.706-1.82
				c-0.068-0.174-0.186-0.191-0.234-0.191c-0.047,0-0.166,0.018-0.232,0.191l-0.708,1.82c-0.041,0.107-0.032,0.218,0.027,0.303
				C23.692,14.149,23.791,14.198,23.905,14.198z"/>
			<path fill="#FFFFFF" d="M20.907,15.661c0.055,0.125,0.162,0.2,0.285,0.2c0.083,0,0.167-0.036,0.232-0.104l0.91-0.909
				c0.081-0.08,0.116-0.186,0.098-0.286c-0.02-0.101-0.092-0.186-0.196-0.231l-1.787-0.787c-0.05-0.022-0.098-0.033-0.143-0.033
				c-0.077,0-0.146,0.035-0.186,0.096c-0.032,0.05-0.059,0.137-0.002,0.268L20.907,15.661z"/>
			<path fill="#FFFFFF" d="M28.19,20.284c-0.056-0.125-0.162-0.199-0.285-0.199c-0.085,0-0.167,0.035-0.233,0.102l-0.909,0.909
				c-0.081,0.081-0.116,0.186-0.098,0.287c0.02,0.101,0.09,0.185,0.194,0.231l1.788,0.787c0.05,0.022,0.098,0.033,0.143,0.033
				c0.077,0,0.146-0.034,0.186-0.096c0.033-0.051,0.06-0.138,0.002-0.268L28.19,20.284z"/>
			<path fill="#FFFFFF" d="M27.671,15.757c0.066,0.067,0.148,0.104,0.233,0.104c0.123,0,0.229-0.075,0.284-0.2l0.788-1.787
				c0.058-0.131,0.031-0.218-0.002-0.268c-0.04-0.061-0.108-0.096-0.186-0.096c-0.045,0-0.093,0.011-0.143,0.033l-1.788,0.787
				c-0.104,0.046-0.175,0.131-0.194,0.231c-0.019,0.101,0.017,0.206,0.098,0.286L27.671,15.757z"/>
			<path fill="#FFFFFF" d="M30.578,17.739l-1.819-0.707c-0.045-0.018-0.089-0.026-0.133-0.026c-0.176,0-0.303,0.136-0.303,0.324
				v1.285c0,0.188,0.127,0.323,0.303,0.323c0.044,0,0.088-0.008,0.133-0.025l1.819-0.707c0.174-0.067,0.192-0.186,0.192-0.233
				C30.77,17.923,30.751,17.806,30.578,17.739z"/>
			<path fill="#FFFFFF" d="M18.518,18.206l0.843,0.327l0.005,0.002c0.034,0.012,0.068,0.019,0.102,0.019h0.001
				c0.112,0,0.184-0.065,0.217-0.098c0.004-0.002,0.006-0.005,0.009-0.008c0.262-0.222,0.552-0.41,0.86-0.559
				c0.146-0.07,0.219-0.169,0.219-0.295V17.33c0-0.188-0.127-0.324-0.304-0.324c-0.043,0-0.088,0.009-0.131,0.026l-1.82,0.707
				c-0.174,0.066-0.191,0.185-0.191,0.233C18.327,18.02,18.344,18.138,18.518,18.206z"/>
			<path fill="#FFFFFF" d="M21.422,17.266l-0.003,0.014v0.016c0,0.145,0.099,0.242,0.247,0.242l0,0c0.031,0,0.061-0.004,0.083-0.007
				l0.011-0.002c0.178-0.023,0.36-0.036,0.54-0.036c1.77,0,3.312,1.135,3.839,2.824c0.046,0.144,0.127,0.216,0.241,0.216
				c0.049,0,0.1-0.016,0.151-0.046l0.011-0.008c0.792-0.576,1.21-1.443,1.21-2.507c0-1.767-1.438-3.204-3.205-3.204
				c-0.766,0-1.472,0.237-2.041,0.69C21.936,15.913,21.561,16.538,21.422,17.266z"/>
		</g>
	</g>
</g>
</svg>
