<?xml version="1.0" encoding="utf-8"?>
<!-- Generator: Adobe Illustrator 15.0.0, SVG Export Plug-In . SVG Version: 6.00 Build 0)  -->
<!DOCTYPE svg PUBLIC "-//W3C//DTD SVG 1.1//EN" "http://www.w3.org/Graphics/SVG/1.1/DTD/svg11.dtd">
<svg version="1.1" id="Capa_1" xmlns="http://www.w3.org/2000/svg" xmlns:xlink="http://www.w3.org/1999/xlink" x="0px" y="0px"
	 width="120.333px" height="62.667px" viewBox="0 0 120.333 62.667" enable-background="new 0 0 120.333 62.667"
	 xml:space="preserve">
<g>
	<g>
		<path fill="#FFFFFF" d="M59.331,39.633c0.201,0.136-0.332,1.128-0.795,1.726c-1.262,1.464-2.057,2.062-3.654,2.994
			c-1.461,0.793-5.311,2.786-6.109,0c-0.795-2.994,3.52-9.365,6.373-10.696c1-0.533,2.328-0.533,2.795,0.733
			c1.592,4.447-4.12,6.705-7.041,8.1c-0.268,0.064-0.471,0.133-0.731,0.202c-0.267,0.729-0.333,1.392-0.201,1.925
			c0.399,0.865,3.255-0.264,4.52-1.063c1.793-1.127,2.19-1.529,3.385-2.724C58.271,40.231,59.067,39.502,59.331,39.633z
			 M50.632,41.627c3.055-1.261,7.309-3.453,6.509-6.64c-0.202-0.4-0.929,0-1.593,0.529C53.623,36.847,51.759,39.305,50.632,41.627z"
			/>
		<path fill="#FFFFFF" d="M58.335,44.353c0,0.461,0.267,0.529,0.529,0.529c1.196,0,4.782-2.857,4.782-2.99
			c0.069-0.066,0.468-0.131,0.468,0.068c0.064,0.398-0.468,0.797-0.468,0.797c-3.651,3.187-4.782,2.988-4.913,2.988
			c-1.593,0.066-1.459-1.463-1.459-1.463c0-5.113,11.555-18.928,11.954-18.928c0.263-0.266,0.468-0.332,0.595-0.332
			c0.467,0,0.598,0.668,0.598,0.929c0,0.6-0.33,1.132-0.33,1.132l-4.717,5.777C58.469,42.094,58.335,43.819,58.335,44.353z"/>
		<path fill="#FFFFFF" d="M73.61,39.633c0.201,0.136-0.33,1.128-0.795,1.726c-1.262,1.464-2.057,2.062-3.652,2.994
			c-1.46,0.793-5.316,2.786-6.114,0c-0.796-2.994,3.519-9.365,6.378-10.696c0.994-0.533,2.325-0.533,2.787,0.733
			c1.598,4.447-4.113,6.705-7.039,8.1c-0.262,0.064-0.463,0.133-0.729,0.202c-0.267,0.729-0.331,1.392-0.198,1.925
			c0.396,0.865,3.252-0.264,4.517-1.063c1.79-1.127,2.189-1.529,3.388-2.724C72.552,40.231,73.347,39.502,73.61,39.633z
			 M64.913,41.627c3.052-1.261,7.301-3.453,6.508-6.64c-0.2-0.4-0.936,0-1.598,0.529C67.9,36.847,66.038,39.305,64.913,41.627z
			 M68.896,31.729c-0.33,0-0.533-0.065-0.533-0.065c0-0.066,0-0.066,0.066-0.066c1.924-0.527,1.924-2.789,3.918-2.789
			c0.403,0,0.6,0.198,0.6,0.531C72.946,30.934,69.69,31.729,68.896,31.729z"/>
		<path fill="#FFFFFF" d="M78.259,33.388c0.333,0,0.469,0.136,0.469,0.4c0,0.266-0.202,0.602-0.27,0.664
			c-5.312,7.309-5.78,9.429-5.78,9.429c-0.062,0.202-0.062,0.337-0.062,0.472c0,0.461,0.33,0.529,0.53,0.529
			c0.995,0.132,4.781-2.857,4.781-2.99c0.133-0.066,0.267-0.066,0.331-0.066c0.066,0,0.135,0.066,0.135,0.135
			c0,0.262-0.466,0.797-0.466,0.797c-3.456,3.055-4.781,2.988-4.917,2.988c-1.523-0.066-1.457-1.463-1.457-1.463
			c0-2.391,1.857-5.91,4.581-9.83C76.532,33.987,77.526,33.388,78.259,33.388z M78.325,31.197c0-0.928,1.064-2.39,1.793-2.39
			c0.266,0,0.469,0.198,0.469,0.601c0,1.062-1.064,2.388-1.729,2.388c-0.131,0-0.199,0-0.267-0.067
			C78.394,31.663,78.325,31.464,78.325,31.197z"/>
		<path fill="#FFFFFF" d="M90.147,25.951c0,0.6-0.334,1.132-0.334,1.132l-4.112,5.049h0.46c0.335,0,0.933,0,0.933,0.394
			c0,0.468-0.598,0.468-0.933,0.468h-1.124c-6.778,9.101-6.977,10.76-6.977,11.359c0,0.461,0.331,0.529,0.526,0.529
			c1.262,0.132,4.787-2.857,4.787-2.99c0.131-0.066,0.266-0.066,0.328-0.066c0.069,0,0.135,0.066,0.135,0.135
			c0,0.398-0.463,0.797-0.463,0.797c-3.92,3.453-4.787,2.988-4.916,2.988c-1.594,0-1.46-1.463-1.46-1.463
			c0-2.655,2.522-7.041,5.711-11.289h-2.86c-0.395,0-0.859,0-0.859-0.468c0-0.394,0.465-0.394,0.859-0.394h3.525
			c4.848-6.377,5.775-7.175,6.041-7.175C89.884,24.957,90.147,25.418,90.147,25.951z"/>
		<path fill="#FFFFFF" d="M93.337,39.633c0.197,0.136-0.334,1.128-0.801,1.726c-1.26,1.464-2.059,2.062-3.65,2.994
			c-1.461,0.793-5.311,2.786-6.109,0c-0.801-2.994,3.52-9.365,6.373-10.696c0.998-0.533,2.326-0.533,2.791,0.733
			c1.594,4.447-4.119,6.705-7.043,8.1c-0.262,0.064-0.463,0.133-0.725,0.202c-0.27,0.729-0.336,1.392-0.202,1.925
			c0.397,0.865,3.251-0.264,4.513-1.063c1.797-1.127,2.195-1.529,3.39-2.724C92.272,40.231,93.07,39.502,93.337,39.633z
			 M84.636,41.627c3.053-1.261,7.305-3.453,6.507-6.64c-0.2-0.4-0.933,0-1.595,0.529C87.622,36.847,85.763,39.305,84.636,41.627z"/>
		<path fill="#FFFFFF" d="M89.415,42.162c0-1.199,0.998-2.394,2.391-2.394c0.268,0,0.666,0.065,0.994,0.195
			c0.865-1.127,1.865-2.058,4.254-5.977c0.064-0.065-0.398-0.994,0.995-0.728c1.597,0.33,2.259,7.239,0.464,9.96
			c0.998,0.068,2.594-0.73,2.793-0.73c0.064,0,0.064,0,0.064,0.064c0,0.269-1.33,1.464-2.924,1.464c-0.133,0-0.332,0-0.463-0.067
			c-1.661,1.795-2.79,1.663-4.121,1.729c-1.59,0.066-3.188-0.665-4.049-2.125C89.548,43.087,89.415,42.691,89.415,42.162z
			 M91.87,40.563c-0.728,0-1.59,0.931-1.59,1.863c0,0.127,0,0.195,0.068,0.33c0.46-0.595,1.189-1.398,1.855-2.126
			C92.073,40.631,92.009,40.563,91.87,40.563z M90.478,43.156c0.531,0.927,2.125,1.657,3.453,1.657c1.263,0,2.127-0.596,2.658-1.394
			c-1.263-0.663-2.59-1.659-3.652-2.391C92.073,41.892,91.143,42.691,90.478,43.156z M93.534,40.366
			c1.193,0.795,2.456,1.796,3.584,2.325c1.195-2.061,0.865-7.373,0.334-7.441c-1.13,1.663-2.326,3.451-3.59,4.781
			C93.733,40.166,93.665,40.298,93.534,40.366z"/>
		<path fill="#FFFFFF" d="M110.802,39.633c0.199,0.136-0.328,1.128-0.799,1.726c-1.258,1.464-2.058,2.062-3.657,2.994
			c-1.458,0.793-5.308,2.786-6.104,0c-0.797-2.994,3.52-9.365,6.374-10.696c0.997-0.533,2.325-0.533,2.792,0.733
			c1.594,4.447-4.119,6.705-7.039,8.1c-0.268,0.064-0.469,0.133-0.73,0.202c-0.269,0.729-0.332,1.392-0.201,1.925
			c0.396,0.865,3.256-0.264,4.52-1.063c1.79-1.127,2.188-1.529,3.381-2.724C109.737,40.231,110.535,39.502,110.802,39.633z
			 M102.101,41.627c3.057-1.261,7.307-3.453,6.507-6.64c-0.196-0.4-0.927,0-1.593,0.529
			C105.089,36.847,103.229,39.305,102.101,41.627z"/>
	</g>
	<g>
		<path fill="#F7931E" d="M43.411,46.925c-0.701,0.547-1.414,1.029-2.102,1.449c-2.643,1.606-5.795,2.813-9.04,3.512h78.315v-4.961
			H43.411z"/>
	</g>
	<g>
		<g>
			<g>
				<path fill="#FFFFFF" d="M57.43,20.865c0.069-0.526,0.079-1.055,0.028-1.577c-0.023-0.262-0.064-0.525-0.122-0.781
					c-0.062-0.26-0.136-0.516-0.234-0.766c-0.097-0.248-0.208-0.492-0.341-0.725c-0.066-0.116-0.138-0.229-0.213-0.346
					c-0.032-0.047-0.078-0.107-0.115-0.159c-0.044-0.059-0.082-0.108-0.124-0.157c-0.334-0.416-0.731-0.786-1.179-1.081
					c-0.221-0.144-0.455-0.273-0.699-0.38c-0.119-0.051-0.242-0.094-0.364-0.13c-0.789-0.249-1.394-0.333-2.196-0.17
					c-1.125,0.22-0.653,0.567-1.236-0.568c-0.254-0.485-0.539-0.956-0.895-1.37c-0.713-0.836-1.686-1.412-2.729-1.73
					c-0.462-0.144-0.943-0.241-1.425-0.273c-1.543-0.11-3.106,0.389-4.37,1.28c-1.299,0.917-0.451,0.873-1.7-0.094
					c-0.301-0.229-0.608-0.435-0.951-0.601c-0.537-0.26-1.188-0.425-1.781-0.462c-1.902-0.132-3.775,0.73-5.08,2.062
					c-0.847,0.86-1.422,2.031-1.633,3.194c-0.104,0.583-0.117,1.188-0.035,1.787c0.078,0.594,0.246,1.174,0.479,1.726
					c0.121,0.278,0.262,0.544,0.416,0.801c0.135,0.227,0.293,0.449,0.463,0.655c0.631,0.777,1.451,1.344,2.393,1.679
					c1.327,0.473,2.98,0.357,4.25-0.254c0.785-0.378,1.136-0.668,1.295-0.763c0.18-0.112,0.271-0.014,0.389,0.132
					c0.229,0.292,0.464,0.53,0.746,0.771c0.455,0.399,0.979,0.723,1.535,0.957c0.555,0.241,1.139,0.419,1.734,0.531
					c0.594,0.111,1.116,0.133,1.734,0.096c0.309-0.018,0.714-0.07,1.012-0.137c0.156-0.039,0.241-0.063,0.408-0.113
					c0.117-0.033,0.191-0.039,0.281,0.051c0.061,0.054,0.348,0.428,0.413,0.497c0.064,0.071,0.128,0.136,0.195,0.204
					c0.233,0.233,0.476,0.448,0.723,0.654c0.31,0.272,0.034,0.082,0.368,2.455c0.037,0.252,0.185,1,0.197,1.105
					c0.021,0.112-0.004,0.176-0.118,0.098c-0.06-0.039-0.378-0.303-0.474-0.376c-0.198-0.153-0.398-0.31-0.6-0.458
					s-0.406-0.297-0.613-0.438c-0.882-0.608-1.815-1.156-2.792-1.615c-0.489-0.229-0.988-0.438-1.501-0.616
					c-0.512-0.186-1.021-0.348-1.537-0.494c-0.52-0.139-1.05-0.259-1.59-0.338c-0.539-0.073-1.095-0.104-1.647-0.039
					c-0.278,0.034-0.556,0.088-0.822,0.176c-0.069,0.027-0.132,0.048-0.202,0.075c-0.063,0.023-0.134,0.051-0.198,0.089
					c-0.132,0.064-0.257,0.144-0.375,0.235c-0.232,0.192,1.229-0.515,3.169-0.044c0.652,0.157,1.314,0.278,1.952,0.471
					c0.56,0.173,1.12,0.36,1.673,0.575c1.927,0.739,3.77,1.757,5.295,3.155c0.691,0.633,1.046,1.098,1.228,0.932
					c0.073-0.063,0.042-0.174,0.011-0.256c-0.038-0.104-0.078-0.2-0.112-0.307c-0.11-0.311-0.224-0.614-0.323-0.932
					c-0.106-0.351-0.209-0.707-0.301-1.062c-0.084-0.357-0.16-0.718-0.209-1.086c-0.015-0.093-0.021-0.188-0.03-0.28
					c-0.012-0.15-0.085-0.863,0.247-0.668c0.064,0.043,0.132,0.075,0.201,0.107c0.461,0.228,0.962,0.377,1.475,0.449
					c0.512,0.065,1.037,0.053,1.545-0.034c1.026-0.181,1.988-0.64,2.798-1.295c0.406-0.326,0.77-0.704,1.084-1.125
					c0.31-0.419,0.565-0.885,0.753-1.382C57.235,21.897,57.363,21.384,57.43,20.865z M56.573,22.213
					c-0.309,0.908-0.885,1.729-1.623,2.362c-0.738,0.635-1.631,1.102-2.592,1.303c-0.477,0.101-0.972,0.129-1.461,0.088
					c-0.483-0.047-0.936-0.199-1.385-0.402c-0.229-0.102-0.447-0.219-0.65-0.354c-0.211-0.131-0.418-0.279-0.609-0.431
					c-0.199-0.153-0.372-0.309-0.543-0.487c-0.123-0.136-0.484-0.506-0.268-0.626c0.127-0.071,0.234-0.096,0.359-0.16
					c0.132-0.067,0.264-0.128,0.389-0.201c0.258-0.152,0.504-0.312,0.736-0.5c0.073-0.055,0.138-0.115,0.201-0.172
					c0.176-0.165,0.326-0.343,0.469-0.537c0.145-0.197,0.26-0.401,0.342-0.674c0.035-0.121-0.02-0.131-0.068-0.024
					c-0.027,0.057-0.063,0.128-0.097,0.185c-0.08,0.147-0.166,0.277-0.265,0.406c-0.383,0.509-0.904,0.85-1.483,1.106
					c-0.261,0.116-0.532,0.218-0.8,0.298c-0.361,0.1-0.727,0.174-1.092,0.23c-0.639,0.1-1.297,0.112-1.941,0.051
					c-0.65-0.065-1.307-0.22-1.923-0.454c-0.536-0.194-1.155-0.575-1.606-0.92c-0.227-0.177-0.439-0.364-0.635-0.577
					c-0.193-0.211-0.381-0.437-0.555-0.666c-0.178-0.232-0.313-0.467-0.46-0.72c-0.036-0.062-0.065-0.121-0.097-0.186
					c-0.073-0.128-0.133-0.266-0.188-0.405c-0.015-0.042-0.042-0.158-0.082-0.187c-0.047-0.031-0.081,0.02-0.077,0.068
					c0.007,0.067,0.03,0.132,0.052,0.197c0.031,0.079,0.05,0.135,0.084,0.211c0.121,0.284,0.283,0.559,0.416,0.842
					c0.082,0.16,0.119,0.352,0.014,0.511c-0.109,0.155-0.248,0.253-0.409,0.354c-0.314,0.193-0.655,0.34-1.004,0.455
					c-0.22,0.07-0.444,0.12-0.671,0.164c-0.789,0.146-1.619,0.123-2.402-0.044c-0.529-0.109-1.027-0.313-1.48-0.607
					c-0.904-0.571-1.619-1.438-2.087-2.421c-0.232-0.493-0.404-1.017-0.495-1.554c-0.383-2.241,0.768-4.247,2.513-5.571
					c1.882-1.424,4.69-1.481,6.532,0.125c0.279,0.242,0.395,0.367,0.561,0.543c0.209,0.216,0.313,0.031,0.688-0.284
					c1.226-1.024,2.91-1.575,4.493-1.526c2.102,0.072,3.988,1.07,5.045,3.146c0.562,1.106,0.273,0.945,1.15,0.793
					c0.917-0.166,1.826-0.023,2.643,0.397c0.211,0.108,0.414,0.234,0.601,0.38c0.38,0.278,0.712,0.622,0.998,1.004
					c0.571,0.756,0.897,1.669,1.03,2.621C56.97,20.31,56.888,21.3,56.573,22.213z"/>
			</g>
			<g>
				<path fill="#FFFFFF" d="M57.43,20.865c0.143-1.136,0.024-2.323-0.442-3.372c-0.463-1.046-1.287-1.935-2.307-2.455
					c-0.252-0.132-0.52-0.229-0.796-0.311c-0.276-0.076-0.558-0.14-0.839-0.169c-0.566-0.061-1.146,0.017-1.684,0.205l-0.206,0.071
					c-0.033,0.008-0.07,0.026-0.123,0.008c-0.048-0.018-0.071-0.059-0.09-0.088c-0.071-0.133-0.117-0.264-0.181-0.39
					c-0.12-0.261-0.258-0.519-0.402-0.763c-0.287-0.489-0.633-0.955-1.053-1.339c-0.836-0.775-1.926-1.25-3.04-1.458
					c-1.119-0.208-2.284-0.069-3.343,0.33c-0.531,0.196-1.034,0.461-1.505,0.781c-0.234,0.158-0.458,0.333-0.669,0.516l-0.161,0.146
					c-0.026,0.022-0.053,0.049-0.092,0.077c-0.019,0.013-0.04,0.027-0.075,0.039c-0.031,0.014-0.086,0.019-0.127,0
					c-0.074-0.028-0.1-0.065-0.131-0.092l-0.073-0.083c-0.05-0.053-0.097-0.097-0.145-0.145c-0.2-0.202-0.419-0.38-0.646-0.544
					c-0.232-0.163-0.469-0.314-0.717-0.439c-0.502-0.244-1.051-0.391-1.6-0.453c-1.115-0.119-2.253,0.139-3.25,0.635
					c-0.5,0.251-0.972,0.561-1.398,0.926c-0.426,0.363-0.809,0.771-1.115,1.233c-0.611,0.923-0.982,2.023-1.014,3.124
					c-0.029,1.1,0.281,2.212,0.821,3.17c0.539,0.962,1.362,1.752,2.356,2.212c0.989,0.476,2.129,0.568,3.205,0.371
					c0.543-0.101,1.053-0.278,1.548-0.544c0.247-0.124,0.485-0.266,0.714-0.417l0.174-0.114c0.061-0.042,0.11-0.086,0.206-0.138
					c0.069-0.04,0.138-0.059,0.234-0.063c0.092,0,0.189,0.035,0.251,0.073c0.123,0.085,0.17,0.158,0.217,0.214
					c0.176,0.218,0.352,0.409,0.559,0.597l0.152,0.134l0.168,0.139c0.102,0.079,0.209,0.16,0.322,0.236
					c0.451,0.31,0.954,0.546,1.475,0.727c0.529,0.183,1.057,0.318,1.607,0.39c0.545,0.063,1.104,0.057,1.654-0.009
					c0.134-0.017,0.268-0.04,0.402-0.063c0.129-0.022,0.256-0.059,0.4-0.099c0.067-0.02,0.125-0.037,0.225-0.057
					c0.058-0.014,0.135-0.026,0.228,0c0.087,0.02,0.165,0.069,0.207,0.109c0.097,0.092,0.126,0.135,0.175,0.195l0.138,0.17
					c0.168,0.23,0.351,0.395,0.563,0.595l0.312,0.283l0.163,0.144c0.025,0.023,0.061,0.049,0.094,0.091
					c0.041,0.041,0.09,0.11,0.117,0.185c0.047,0.141,0.04,0.211,0.045,0.289l0.007,0.22c0.009,0.138,0.016,0.28,0.026,0.419
					c0.021,0.279,0.048,0.566,0.086,0.847c0.06,0.57,0.165,1.099,0.267,1.698c0.007,0.033,0.009,0.064,0.005,0.118
					c-0.005,0.022-0.012,0.054-0.027,0.098c-0.02,0.036-0.057,0.099-0.117,0.137c-0.063,0.037-0.138,0.048-0.174,0.044
					c-0.048-0.007-0.072-0.013-0.1-0.021c-0.045-0.018-0.073-0.037-0.1-0.052c-0.049-0.031-0.08-0.059-0.107-0.079l-0.086-0.068
					l-0.329-0.27c-0.226-0.179-0.456-0.348-0.685-0.516c-0.459-0.339-0.926-0.659-1.408-0.959c-0.961-0.592-1.979-1.111-3.032-1.52
					c-0.524-0.204-1.067-0.385-1.612-0.547c-0.545-0.164-1.09-0.296-1.648-0.386c-0.556-0.085-1.116-0.124-1.666-0.067
					c-0.273,0.027-0.545,0.08-0.809,0.159c-0.256,0.085-0.503,0.193-0.707,0.356l-0.015,0.014c-0.013,0.001-0.009,0.011,0.015-0.024
					c0.09-0.199-0.239-0.312-0.143-0.253c-0.006,0,0.002,0,0.002,0l0.099-0.017l0.214-0.051c0.145-0.028,0.285-0.06,0.43-0.082
					c0.293-0.046,0.588-0.069,0.883-0.075c0.586-0.016,1.18,0.061,1.74,0.213c0.557,0.14,1.12,0.252,1.678,0.418
					c0.553,0.168,1.099,0.352,1.637,0.56c1.08,0.415,2.125,0.91,3.113,1.511c0.981,0.598,1.912,1.307,2.725,2.122
					c0.203,0.194,0.397,0.424,0.625,0.568c0.055,0.037,0.109,0.053,0.139,0.03c0.041-0.025,0.044-0.072,0.027-0.135l-0.138-0.401
					c-0.188-0.542-0.373-1.091-0.52-1.645c-0.14-0.559-0.274-1.122-0.321-1.698c-0.012-0.141-0.025-0.289-0.012-0.436
					c0.009-0.072,0.016-0.148,0.055-0.217c0.017-0.041,0.049-0.08,0.097-0.092c0.05-0.011,0.095,0.001,0.129,0.017
					c0.253,0.148,0.507,0.263,0.78,0.354c1.078,0.381,2.279,0.339,3.36-0.04c1.081-0.38,2.058-1.058,2.786-1.944
					C56.851,23.108,57.28,21.999,57.43,20.865z M57.43,20.865c-0.14,1.134-0.567,2.25-1.308,3.136
					c-0.725,0.89-1.699,1.578-2.787,1.965c-1.08,0.387-2.295,0.447-3.396,0.063c-0.271-0.091-0.541-0.213-0.782-0.353
					c-0.13-0.073-0.177,0.105-0.184,0.234c-0.01,0.143,0,0.282,0.011,0.425c0.051,0.569,0.184,1.129,0.333,1.683
					c0.151,0.553,0.334,1.095,0.534,1.63c0.047,0.136,0.098,0.265,0.144,0.411c0.015,0.037,0.021,0.082,0.015,0.131
					c-0.01,0.052-0.039,0.095-0.078,0.12c-0.045,0.035-0.104,0.042-0.15,0.03c-0.044-0.009-0.08-0.03-0.113-0.049
					c-0.258-0.165-0.445-0.379-0.658-0.573c-0.818-0.795-1.744-1.482-2.729-2.058c-0.983-0.581-2.027-1.057-3.098-1.451
					c-0.537-0.194-1.079-0.372-1.628-0.525c-0.545-0.151-1.105-0.256-1.671-0.387c-0.554-0.141-1.107-0.198-1.669-0.183
					c-0.277,0.01-0.557,0.041-0.832,0.088c-0.138,0.022-0.275,0.058-0.411,0.085l-0.206,0.052c-0.037,0.009-0.071,0.017-0.115,0.029
					c-0.012,0.001-0.025,0.001-0.051,0.001c0.083,0.066-0.28-0.049-0.17-0.271c0.037-0.047,0.05-0.052,0.053-0.06l0.028-0.018
					c0.237-0.205,0.525-0.336,0.812-0.429c0.287-0.094,0.582-0.157,0.877-0.191c0.591-0.067,1.188-0.043,1.767,0.045
					c0.575,0.076,1.149,0.213,1.707,0.37c0.563,0.154,1.11,0.329,1.657,0.531c1.096,0.407,2.141,0.918,3.13,1.524
					c0.498,0.306,0.979,0.628,1.447,0.967c0.236,0.173,0.469,0.345,0.694,0.524l0.342,0.271l0.084,0.064l0.061,0.047
					c0.008,0.008,0.014,0.008-0.005,0c-0.009,0-0.056-0.034-0.165,0.028c-0.049,0.023-0.077,0.071-0.09,0.091
					c-0.008,0.027-0.008,0.037-0.009,0.045c0,0.018,0,0.014,0,0.014c-0.101-0.527-0.224-1.134-0.284-1.702
					c-0.034-0.286-0.067-0.572-0.093-0.868c-0.009-0.145-0.022-0.289-0.028-0.436l-0.011-0.213c-0.001-0.067-0.01-0.142-0.01-0.142
					c-0.005,0.014,0.009,0.023-0.005,0.011c-0.013-0.014-0.033-0.034-0.057-0.059l-0.166-0.139l-0.33-0.292
					c-0.202-0.19-0.441-0.418-0.618-0.649l-0.134-0.165c-0.042-0.054-0.099-0.122-0.109-0.128c-0.01-0.012,0,0.006,0.021,0.006
					c0.022,0.006,0.026,0,0.011,0.006c-0.037,0.008-0.117,0.031-0.18,0.053c-0.14,0.035-0.289,0.08-0.443,0.106
					c-0.148,0.032-0.294,0.054-0.446,0.075c-0.589,0.073-1.187,0.08-1.78,0.016c-0.594-0.07-1.18-0.212-1.734-0.405
					c-0.558-0.203-1.107-0.466-1.605-0.804c-0.123-0.083-0.244-0.178-0.364-0.273l-0.167-0.136l-0.17-0.155
					c-0.217-0.2-0.436-0.428-0.617-0.662c-0.038-0.054-0.081-0.095-0.076-0.092c0,0,0.027,0.014,0.048,0.014
					c0.022-0.004,0.021-0.004,0.027-0.007c-0.036,0.014-0.095,0.06-0.153,0.1l-0.182,0.125c-0.25,0.165-0.514,0.312-0.775,0.446
					c-0.525,0.275-1.107,0.473-1.697,0.578c-1.174,0.213-2.436,0.103-3.523-0.431c-0.539-0.257-1.041-0.603-1.477-1.016
					c-0.109-0.106-0.212-0.209-0.314-0.327c-0.055-0.061-0.1-0.109-0.146-0.164c-0.049-0.062-0.094-0.12-0.139-0.18
					c-0.095-0.117-0.174-0.238-0.263-0.369c-0.075-0.121-0.155-0.256-0.228-0.385c-0.295-0.519-0.51-1.068-0.65-1.654
					c-0.145-0.577-0.213-1.17-0.188-1.774c0.053-1.192,0.466-2.347,1.138-3.324c0.334-0.491,0.748-0.923,1.203-1.296
					c0.459-0.371,0.951-0.691,1.484-0.946c1.059-0.508,2.258-0.755,3.432-0.616c0.584,0.076,1.155,0.24,1.685,0.508
					c0.265,0.137,0.511,0.299,0.747,0.472c0.229,0.172,0.457,0.364,0.662,0.573c0.055,0.054,0.104,0.112,0.153,0.165l0.067,0.075
					c0.021,0.02,0.047,0.039,0.037,0.039c-0.004-0.005-0.019-0.005-0.019,0c0,0,0.011-0.008,0.019-0.017
					c0.02-0.014,0.049-0.035,0.075-0.058l0.163-0.141c0.225-0.191,0.457-0.367,0.697-0.525c0.486-0.318,1.01-0.584,1.555-0.779
					c1.093-0.395,2.3-0.514,3.435-0.282c1.134,0.226,2.222,0.733,3.071,1.522c0.426,0.393,0.77,0.865,1.063,1.365
					c0.145,0.249,0.273,0.502,0.397,0.762c0.06,0.132,0.114,0.27,0.174,0.393c0.035,0.064,0.072,0.075,0.142,0.049l0.201-0.07
					c0.552-0.188,1.135-0.26,1.712-0.196c0.288,0.034,0.57,0.099,0.843,0.181c0.277,0.078,0.548,0.182,0.805,0.313
					c1.027,0.53,1.848,1.431,2.307,2.485C57.47,18.54,57.577,19.729,57.43,20.865z"/>
				<path fill="#FFFFFF" d="M56.573,22.213c-0.543,1.604-1.888,2.887-3.47,3.462c-0.793,0.284-1.654,0.408-2.493,0.271
					c-0.838-0.156-1.613-0.553-2.291-1.062c-0.34-0.253-0.656-0.54-0.913-0.887c-0.03-0.047-0.063-0.099-0.072-0.159
					c-0.019-0.055-0.014-0.149,0.048-0.198c0.106-0.071,0.205-0.101,0.301-0.143c0.184-0.092,0.377-0.187,0.551-0.295
					c0.351-0.219,0.702-0.463,0.98-0.766c0.27-0.303,0.527-0.644,0.631-1.031c0.01-0.019,0.012-0.046,0.012-0.052
					c0,0,0,0,0.003,0.01c0,0,0.017,0.042,0.06,0.049c0.043,0.004,0.048-0.008,0.048-0.008c0.007-0.006,0.007-0.006,0.007-0.006
					c-0.012,0.018-0.043,0.079-0.062,0.125c-0.051,0.096-0.099,0.189-0.159,0.281c-0.117,0.189-0.244,0.361-0.395,0.519
					c-0.299,0.319-0.664,0.571-1.048,0.766c-0.761,0.4-1.614,0.604-2.462,0.714c-0.854,0.102-1.713,0.074-2.565-0.107
					c-0.425-0.086-0.835-0.208-1.241-0.368c-0.411-0.167-0.783-0.381-1.145-0.618c-0.174-0.119-0.36-0.252-0.523-0.386
					c-0.174-0.143-0.336-0.286-0.486-0.446c-0.293-0.316-0.58-0.638-0.818-1.013c-0.12-0.191-0.226-0.366-0.332-0.556
					c-0.103-0.179-0.219-0.428-0.272-0.6c0,0-0.004-0.01,0.001,0.003c0.006-0.003,0.023,0.038,0.076,0.063
					c0-0.007-0.029-0.01,0.041,0.01c0.049,0.007,0.084,0,0.12-0.017c0.065-0.03,0.089-0.075,0.097-0.098
					c0.02-0.043,0.005-0.096,0.014-0.044c0.006,0.032,0.008,0.022,0.012,0.041c0.008,0.022,0.014,0.037,0.019,0.062l0.031,0.076
					l0.054,0.133c0.082,0.184,0.176,0.355,0.275,0.546l0.147,0.294c0.056,0.109,0.107,0.25,0.101,0.42
					c-0.004,0.086-0.027,0.173-0.066,0.25c-0.008,0.025-0.02,0.044-0.029,0.061l-0.023,0.034L39.32,21.56
					c-0.015,0.013-0.028,0.038-0.056,0.068c-0.095,0.113-0.191,0.193-0.292,0.257c-0.049,0.033-0.097,0.065-0.146,0.097
					c-0.043,0.023-0.084,0.053-0.135,0.082c-0.105,0.057-0.203,0.104-0.307,0.151c-0.201,0.098-0.401,0.173-0.615,0.247
					c-0.848,0.26-1.746,0.326-2.617,0.22c-0.437-0.055-0.877-0.141-1.295-0.306c-0.42-0.161-0.815-0.392-1.168-0.647
					c-0.717-0.537-1.289-1.236-1.711-2.009c-0.414-0.771-0.69-1.638-0.74-2.523c-0.055-0.894,0.127-1.795,0.5-2.596
					c0.367-0.807,0.92-1.512,1.556-2.107c0.329-0.294,0.657-0.566,1.039-0.802c0.376-0.233,0.784-0.417,1.2-0.555
					c1.67-0.558,3.617-0.288,5.008,0.817c0.174,0.137,0.331,0.279,0.486,0.433c0.078,0.077,0.153,0.157,0.227,0.236
					c0.036,0.034,0.073,0.083,0.098,0.103c0.021,0.018,0.025,0.014,0.008,0.014c-0.014,0.003,0.012-0.002,0.046-0.026
					c0.03-0.023,0.071-0.056,0.106-0.089c0.077-0.068,0.158-0.141,0.242-0.212c0.168-0.131,0.346-0.263,0.527-0.382
					c0.726-0.477,1.537-0.805,2.377-0.987c0.847-0.181,1.715-0.203,2.563-0.058c0.851,0.14,1.672,0.452,2.373,0.941
					c0.709,0.485,1.29,1.152,1.704,1.892c0.106,0.183,0.202,0.378,0.29,0.564c0.093,0.188,0.164,0.394,0.274,0.563
					c0.028,0.037,0.055,0.061,0.09,0.07c0.04,0.006,0.087,0,0.141-0.01l0.308-0.061c0.207-0.043,0.422-0.071,0.632-0.085
					c0.851-0.053,1.714,0.164,2.434,0.61c0.726,0.446,1.307,1.097,1.72,1.831c0.41,0.741,0.628,1.576,0.696,2.417
					C56.949,20.557,56.851,21.417,56.573,22.213z M56.573,22.213c0.273-0.796,0.371-1.656,0.303-2.493
					c-0.078-0.836-0.299-1.673-0.709-2.409c-0.412-0.731-1.004-1.366-1.724-1.798c-0.718-0.433-1.572-0.633-2.406-0.575
					c-0.204,0.021-0.411,0.052-0.619,0.095l-0.312,0.068c-0.046,0.012-0.105,0.022-0.172,0.012
					c-0.068-0.008-0.125-0.059-0.156-0.105c-0.124-0.193-0.195-0.385-0.295-0.572c-0.092-0.188-0.189-0.373-0.295-0.554
					c-0.421-0.718-1.002-1.346-1.696-1.803c-0.69-0.46-1.487-0.741-2.306-0.861c-0.816-0.121-1.662-0.08-2.465,0.111
					c-0.802,0.188-1.574,0.524-2.25,0.988c-0.172,0.116-0.326,0.238-0.482,0.373c-0.078,0.066-0.155,0.132-0.234,0.208
					c-0.039,0.035-0.082,0.078-0.134,0.111c-0.05,0.038-0.116,0.092-0.24,0.099c-0.126,0.009-0.224-0.055-0.276-0.101
					c-0.057-0.051-0.085-0.088-0.125-0.125c-0.072-0.072-0.145-0.149-0.219-0.216c-0.149-0.141-0.302-0.279-0.465-0.397
					c-0.643-0.486-1.419-0.795-2.217-0.898c-0.802-0.109-1.625-0.02-2.383,0.24c-0.385,0.129-0.75,0.301-1.084,0.518
					c-0.336,0.209-0.657,0.479-0.953,0.754c-0.589,0.56-1.078,1.223-1.411,1.952c-0.333,0.726-0.495,1.528-0.442,2.327
					c0.008,0.099,0.015,0.195,0.023,0.289c0.016,0.095,0.033,0.219,0.053,0.299c0.035,0.2,0.083,0.395,0.143,0.588
					c0.113,0.379,0.273,0.752,0.465,1.108c0.381,0.707,0.902,1.349,1.539,1.827c0.639,0.487,1.383,0.768,2.188,0.854
					c0.805,0.098,1.625,0.055,2.396-0.173c0.377-0.117,0.745-0.281,1.072-0.494c0.076-0.047,0.143-0.105,0.19-0.16
					c0.073-0.083,0.065-0.074,0.073-0.127c0.001-0.046-0.01-0.107-0.047-0.185l-0.141-0.272c-0.094-0.186-0.197-0.384-0.283-0.586
					c-0.02-0.051-0.04-0.105-0.061-0.159l-0.023-0.077c-0.01-0.026-0.019-0.059-0.031-0.088c-0.008-0.03-0.02-0.096-0.021-0.112
					c0,0-0.027-0.108,0.017-0.206c0.018-0.042,0.055-0.109,0.144-0.154c0.05-0.02,0.1-0.028,0.165-0.02
					c0.083,0.02,0.063,0.02,0.072,0.023c0.08,0.037,0.114,0.092,0.132,0.117c0.021,0.033,0.026,0.048,0.041,0.073
					c0.066,0.229,0.129,0.366,0.234,0.561c0.096,0.174,0.199,0.363,0.303,0.537c0.104,0.172,0.221,0.329,0.352,0.493
					c0.123,0.166,0.26,0.315,0.395,0.473c0.139,0.15,0.285,0.287,0.436,0.414c0.163,0.138,0.316,0.26,0.488,0.379
					c0.336,0.232,0.699,0.443,1.066,0.604c0.375,0.157,0.769,0.285,1.174,0.378c0.793,0.188,1.644,0.231,2.46,0.151
					c0.825-0.09,1.642-0.267,2.392-0.636c0.365-0.178,0.713-0.407,0.999-0.7c0.142-0.143,0.271-0.306,0.378-0.478
					c0.056-0.082,0.106-0.177,0.154-0.262c0.031-0.05,0.039-0.087,0.086-0.157c0.008-0.009,0.018-0.021,0.034-0.03
					c0.016-0.011,0.03-0.025,0.087-0.024c0.061,0.011,0.086,0.067,0.086,0.076c0.004,0.022,0.004,0.035,0.004,0.049
					c0,0.045-0.01,0.076-0.016,0.103c-0.292,0.855-0.996,1.435-1.727,1.854c-0.186,0.113-0.374,0.201-0.566,0.291
					c-0.097,0.04-0.203,0.077-0.277,0.119c-0.051,0.031-0.018,0.139,0.036,0.223c0.236,0.33,0.548,0.629,0.88,0.875
					c0.665,0.516,1.423,0.914,2.251,1.084c0.823,0.144,1.687,0.032,2.478-0.25C54.675,25.081,56.024,23.817,56.573,22.213z"/>
			</g>
		</g>
	</g>
	<g>
		<g>
			<path fill="#FFFFFF" d="M50.583,51.122c-0.164,0.06-0.496,0.159-0.895,0.159c-0.436,0-0.796-0.114-1.083-0.385
				c-0.247-0.237-0.403-0.632-0.403-1.081c0.008-0.861,0.598-1.5,1.571-1.5c0.341,0,0.599,0.075,0.724,0.139l-0.09,0.305
				c-0.154-0.068-0.35-0.123-0.64-0.123c-0.708,0-1.167,0.436-1.167,1.16c0,0.739,0.441,1.177,1.116,1.177
				c0.245,0,0.413-0.037,0.5-0.079v-0.869h-0.589v-0.296h0.955V51.122z"/>
			<path fill="#FFFFFF" d="M54.897,50.336l-0.301,0.914h-0.388l0.986-2.899h0.45l0.992,2.899h-0.4l-0.31-0.914H54.897z
				 M55.851,50.042l-0.284-0.834c-0.069-0.184-0.112-0.359-0.153-0.525h-0.008c-0.042,0.171-0.09,0.347-0.144,0.522l-0.285,0.837
				H55.851z"/>
			<path fill="#FFFFFF" d="M60.286,50.793c0.168,0.104,0.414,0.19,0.671,0.19c0.383,0,0.607-0.202,0.607-0.496
				c0-0.269-0.157-0.422-0.548-0.578c-0.476-0.166-0.765-0.409-0.765-0.821c0-0.45,0.374-0.787,0.935-0.787
				c0.299,0,0.513,0.07,0.644,0.138l-0.104,0.312c-0.093-0.054-0.289-0.138-0.551-0.138c-0.393,0-0.541,0.236-0.541,0.436
				c0,0.272,0.172,0.405,0.573,0.559c0.489,0.189,0.737,0.424,0.737,0.854c0,0.449-0.33,0.834-1.015,0.834
				c-0.283,0-0.581-0.082-0.741-0.186L60.286,50.793z"/>
			<path fill="#FFFFFF" d="M66.281,48.668h-0.885v-0.317h2.152v0.317h-0.887v2.582h-0.381V48.668z"/>
			<path fill="#FFFFFF" d="M71.146,48.389c0.19-0.038,0.459-0.059,0.719-0.059c0.397,0,0.658,0.069,0.839,0.235
				c0.144,0.129,0.226,0.327,0.226,0.552c0,0.383-0.24,0.634-0.545,0.74v0.012c0.225,0.079,0.357,0.282,0.428,0.585
				c0.094,0.406,0.164,0.686,0.223,0.796h-0.387c-0.049-0.083-0.113-0.331-0.196-0.691c-0.083-0.405-0.239-0.553-0.58-0.564h-0.354
				v1.256h-0.372V48.389z M71.518,49.708h0.386c0.398,0,0.656-0.219,0.656-0.549c0-0.374-0.275-0.536-0.669-0.543
				c-0.185,0-0.312,0.02-0.373,0.034V49.708z"/>
			<path fill="#FFFFFF" d="M79.214,49.77c0,0.999-0.609,1.529-1.35,1.529c-0.768,0-1.305-0.593-1.305-1.476
				c0-0.92,0.572-1.522,1.35-1.522C78.697,48.301,79.214,48.907,79.214,49.77z M76.964,49.815c0,0.619,0.332,1.178,0.923,1.178
				c0.595,0,0.931-0.546,0.931-1.207c0-0.578-0.303-1.18-0.926-1.18S76.964,49.18,76.964,49.815z"/>
			<path fill="#FFFFFF" d="M82.972,51.25v-2.899h0.408l0.936,1.465c0.214,0.338,0.377,0.646,0.518,0.943l0.009-0.003
				c-0.034-0.389-0.042-0.737-0.042-1.192v-1.213h0.35v2.899h-0.379l-0.919-1.475c-0.204-0.32-0.398-0.649-0.54-0.967l-0.013,0.006
				c0.017,0.365,0.026,0.712,0.026,1.199v1.236H82.972z"/>
			<path fill="#FFFFFF" d="M91.558,49.77c0,0.999-0.609,1.529-1.348,1.529c-0.769,0-1.305-0.593-1.305-1.476
				c0-0.92,0.573-1.522,1.348-1.522C91.046,48.301,91.558,48.907,91.558,49.77z M89.307,49.815c0,0.619,0.335,1.178,0.929,1.178
				c0.592,0,0.928-0.546,0.928-1.207c0-0.578-0.303-1.18-0.926-1.18C89.618,48.606,89.307,49.18,89.307,49.815z"/>
			<path fill="#FFFFFF" d="M97.762,49.979c-0.017-0.407-0.05-0.896-0.039-1.257h-0.014c-0.103,0.344-0.226,0.703-0.37,1.102
				l-0.51,1.408h-0.284l-0.471-1.379c-0.139-0.409-0.253-0.785-0.337-1.131h-0.006c-0.01,0.36-0.033,0.85-0.059,1.284l-0.076,1.244
				h-0.355l0.205-2.899h0.475l0.494,1.4c0.119,0.359,0.22,0.677,0.295,0.979h0.012c0.072-0.296,0.176-0.614,0.307-0.979l0.516-1.4
				h0.479L98.2,51.25h-0.363L97.762,49.979z"/>
			<path fill="#FFFFFF" d="M102.868,47.688l-0.549,0.504h-0.309l0.399-0.504H102.868z M102.427,48.351v2.899h-0.377v-2.899H102.427z
				"/>
			<path fill="#FFFFFF" d="M106.821,50.336l-0.299,0.914h-0.391l0.988-2.899h0.453l0.988,2.899h-0.403l-0.305-0.914H106.821z
				 M107.773,50.042l-0.282-0.834c-0.067-0.184-0.109-0.359-0.152-0.525h-0.012c-0.037,0.171-0.087,0.347-0.145,0.522l-0.283,0.837
				H107.773z"/>
		</g>
	</g>
	<g>
		<path fill="#FFFFFF" d="M9.488,44.765c0-0.274,0.14-0.412,0.413-0.486c1.939-0.482,2.08,3.188,2.355,3.323
			c2.842,2.357,8.865,3.468,13.435,3.468c9.143,0,21.329-5.196,21.329-15.585c0-4.567-2.564-8.099-7.342-8.517
			c-2.219,0-3.946,0.07-5.816,1.732c-0.898,0.765-1.105,2.91-1.385,4.641c1.939-3.049,3.533-5.331,3.533-5.331
			c0.207-0.418,0.414-0.488,0.622-0.488c0.487,0,0.761,0.832,0.761,1.179c0,0.557-0.273,1.037-0.273,1.037l-4.363,6.442
			c-6.299,9.001-6.51,12.327-6.51,12.738c0,0.556-0.347,0.694-0.556,0.694c-0.554,0-0.622-0.276-0.622-0.556
			c0-2.978,3.258-9.274,6.576-14.399c0-1.383,0.138-5.266,1.803-6.647c2.008-1.737,4.227-2.012,6.508-1.875
			c4.85,0.279,9.071,3.534,9.071,9.35c0,11.078-13.433,16.618-22.989,16.618c-2.838,0-5.678-0.418-8.309-1.172
			C15.304,50.515,9.488,48.088,9.488,44.765z"/>
	</g>
</g>
</svg>
