<?xml version="1.0" encoding="utf-8"?>
<!-- Generator: Adobe Illustrator 15.0.0, SVG Export Plug-In . SVG Version: 6.00 Build 0)  -->
<!DOCTYPE svg PUBLIC "-//W3C//DTD SVG 1.1//EN" "http://www.w3.org/Graphics/SVG/1.1/DTD/svg11.dtd">
<svg version="1.1" id="Capa_1" xmlns="http://www.w3.org/2000/svg" xmlns:xlink="http://www.w3.org/1999/xlink" x="0px" y="0px"
	 width="36.462px" height="22.095px" viewBox="0 0 36.462 22.095" enable-background="new 0 0 36.462 22.095" xml:space="preserve">
<g>
	<g>
		<line fill="#FFFFFF" x1="7" y1="7" x2="29" y2="7"/>
		<path fill="#FFFFFF" d="M29,8H7C6.172,8,5.5,7.329,5.5,6.5S6.172,5,7,5h22c0.828,0,1.5,0.671,1.5,1.5S29.828,8,29,8z"/>
	</g>
	<g>
		<line fill="#FFFFFF" x1="7" y1="15" x2="29" y2="15"/>
		<path fill="#FFFFFF" d="M29,16H7c-0.828,0-1.5-0.672-1.5-1.5S6.172,13,7,13h22c0.828,0,1.5,0.672,1.5,1.5S29.828,16,29,16z"/>
	</g>
</g>
</svg>
