<?xml version="1.0" encoding="utf-8"?>
<!-- Generator: Adobe Illustrator 16.0.0, SVG Export Plug-In . SVG Version: 6.00 Build 0)  -->
<!DOCTYPE svg PUBLIC "-//W3C//DTD SVG 1.1//EN" "http://www.w3.org/Graphics/SVG/1.1/DTD/svg11.dtd">
<svg version="1.1" xmlns="http://www.w3.org/2000/svg" xmlns:xlink="http://www.w3.org/1999/xlink" x="0px" y="0px" width="96.75px"
	 height="23.75px" viewBox="0 0 96.75 23.75" enable-background="new 0 0 96.75 23.75" xml:space="preserve">
<g id="IMG" display="none">
</g>
<g id="Plantilla" display="none">
</g>
<g id="Marcos">
</g>
<g id="Imagenes">
</g>
<g id="Marcos_cintillos">
</g>
<g id="Publicidad">
</g>
<g id="Logo">
	<g>
		<path fill="#FFFFFF" d="M13.352,17.763H4.867c-1.341,0-2.43-1.09-2.43-2.43V6.85c0-1.34,1.089-2.432,2.43-2.432h8.484
			c1.34,0,2.43,1.091,2.43,2.432v8.483C15.781,16.673,14.691,17.763,13.352,17.763z"/>
		<path fill="#7C181F" d="M10.614,17.778H8.121v-6.042H6.875V9.659h1.246V8.414c0-1.694,0.704-2.702,2.701-2.702h1.662V7.79h-1.037
			c-0.779,0-0.83,0.289-0.83,0.831l-0.003,1.039h1.882l-0.22,2.077h-1.662V17.778z"/>
	</g>
	<g>
		<path fill="#FFFFFF" d="M36.605,17.865h-8.515c-1.348,0-2.44-1.095-2.44-2.44V6.91c0-1.347,1.093-2.439,2.44-2.439h8.515
			c1.346,0,2.439,1.092,2.439,2.439v8.515C39.045,16.771,37.951,17.865,36.605,17.865z"/>
		<path fill="#7C181F" d="M37.667,7.867c-0.389,0.173-0.811,0.291-1.253,0.344c0.451-0.271,0.798-0.698,0.961-1.208
			c-0.425,0.25-0.889,0.434-1.386,0.532c-0.398-0.427-0.969-0.69-1.593-0.69c-1.206,0-2.183,0.976-2.183,2.183
			c0,0.17,0.02,0.337,0.054,0.499c-1.813-0.092-3.422-0.962-4.498-2.281C27.58,7.565,27.475,7.94,27.475,8.34
			c0,0.758,0.383,1.425,0.972,1.818c-0.359-0.013-0.697-0.11-0.99-0.274c0,0.01,0,0.02,0,0.028c0,1.056,0.753,1.939,1.749,2.141
			c-0.18,0.049-0.375,0.077-0.576,0.077c-0.135,0-0.273-0.013-0.407-0.04c0.277,0.867,1.083,1.5,2.039,1.517
			c-0.747,0.587-1.69,0.935-2.709,0.935c-0.18,0-0.352-0.01-0.522-0.032c0.965,0.621,2.113,0.984,3.346,0.984
			c4.017,0,6.21-3.328,6.21-6.213c0-0.095,0-0.188-0.004-0.283C37.006,8.69,37.375,8.304,37.667,7.867z"/>
	</g>
	<g>
		<path fill="#FFFFFF" d="M65.303,17.926h-8.516c-1.348,0-2.438-1.094-2.438-2.438V6.971c0-1.346,1.091-2.439,2.438-2.439h8.516
			c1.344,0,2.443,1.093,2.443,2.439v8.517C67.746,16.832,66.646,17.926,65.303,17.926z"/>
		<polygon fill="#7C181F" points="57.588,7.271 65.443,11.229 57.588,15.187 		"/>
	</g>
	<g>
		<path fill="#FFFFFF" d="M90.241,17.963h-8.516c-1.348,0-2.438-1.094-2.438-2.44V7.009c0-1.347,1.09-2.44,2.438-2.44h8.516
			c1.345,0,2.441,1.094,2.441,2.44v8.514C92.683,16.869,91.586,17.963,90.241,17.963z"/>
		<g>
			<path fill="#7C181F" d="M88.025,16.286h-4.084c-1.565,0-2.845-1.278-2.845-2.844V9.088c0-1.563,1.279-2.842,2.845-2.842h4.084
				c1.565,0,2.846,1.279,2.846,2.842v4.354C90.871,15.008,89.591,16.286,88.025,16.286 M88.025,15.534
				c0.557,0,1.081-0.217,1.478-0.615c0.396-0.396,0.616-0.921,0.616-1.477V9.088c0-0.556-0.22-1.08-0.616-1.476
				c-0.396-0.397-0.921-0.615-1.478-0.615h-4.084c-0.558,0-1.08,0.218-1.479,0.615c-0.396,0.396-0.613,0.92-0.613,1.476v4.354
				c0,0.555,0.217,1.08,0.613,1.477c0.398,0.398,0.921,0.615,1.479,0.615H88.025z"/>
			<path fill="#7C181F" d="M88.69,11.226c0,1.485-1.205,2.69-2.69,2.69c-1.487,0-2.693-1.205-2.693-2.69
				c0-1.485,1.206-2.691,2.693-2.691C87.485,8.534,88.69,9.741,88.69,11.226 M85.985,9.467c-0.972,0-1.761,0.789-1.761,1.761
				c0,0.973,0.789,1.763,1.761,1.763c0.974,0,1.762-0.79,1.762-1.763C87.747,10.256,86.959,9.467,85.985,9.467"/>
			<path fill="#7C181F" d="M89.37,8.493c0,0.352-0.285,0.638-0.637,0.638c-0.353,0-0.637-0.286-0.637-0.638s0.284-0.638,0.637-0.638
				C89.085,7.855,89.37,8.141,89.37,8.493"/>
		</g>
	</g>
	<g id="Insignia_1_-_Roja">
	</g>
	<g id="Icono_2_-_Comentarios1">
	</g>
</g>
<g id="Botones">
	<g id="Viñeta_5_-_Abajo">
	</g>
	<g id="Viñeta_4_-_Siguiente">
	</g>
</g>
<g id="TXT">
</g>
<g id="Guia" display="none">
</g>
</svg>
