<?xml version="1.0" encoding="utf-8"?>
<!-- Generator: Adobe Illustrator 15.0.0, SVG Export Plug-In . SVG Version: 6.00 Build 0)  -->
<!DOCTYPE svg PUBLIC "-//W3C//DTD SVG 1.1//EN" "http://www.w3.org/Graphics/SVG/1.1/DTD/svg11.dtd">
<svg version="1.1" id="Capa_1" xmlns="http://www.w3.org/2000/svg" xmlns:xlink="http://www.w3.org/1999/xlink" x="0px" y="0px"
	 width="39.864px" height="47.782px" viewBox="0 0 39.864 47.782" enable-background="new 0 0 39.864 47.782" xml:space="preserve">
<g>
	<g>
		<circle fill-rule="evenodd" clip-rule="evenodd" fill="#3D9D04" cx="20" cy="16.355" r="12"/>
		<path fill="#FFFFFF" d="M20,28.855c-6.893,0-12.5-5.607-12.5-12.5s5.607-12.5,12.5-12.5s12.5,5.607,12.5,12.5
			S26.893,28.855,20,28.855z M20,4.855c-6.341,0-11.5,5.159-11.5,11.5s5.159,11.5,11.5,11.5s11.5-5.159,11.5-11.5
			S26.341,4.855,20,4.855z"/>
	</g>
	<g>
		<path fill-rule="evenodd" clip-rule="evenodd" fill="#3D9D04" d="M20.303,28.355c-2.109,0-4.094-0.502-5.867-1.373l0.717,1.795
			l5.148,12.921l5.15-12.921l0.715-1.795C24.395,27.854,22.408,28.355,20.303,28.355z"/>
		<path fill="#FFFFFF" d="M20.301,43.049L13.489,25.96l1.167,0.573c3.57,1.756,7.723,1.755,11.289,0.001l1.166-0.573L20.301,43.049z
			 M15.353,27.93l4.948,12.418L25.25,27.93C22.08,29.161,18.525,29.16,15.353,27.93z"/>
	</g>
</g>
</svg>
