<?xml version="1.0" encoding="utf-8"?>
<!-- Generator: Adobe Illustrator 15.0.0, SVG Export Plug-In . SVG Version: 6.00 Build 0)  -->
<!DOCTYPE svg PUBLIC "-//W3C//DTD SVG 1.1//EN" "http://www.w3.org/Graphics/SVG/1.1/DTD/svg11.dtd">
<svg version="1.1" id="Capa_1" xmlns="http://www.w3.org/2000/svg" xmlns:xlink="http://www.w3.org/1999/xlink" x="0px" y="0px"
	 width="65.204px" height="62.667px" viewBox="0 0 65.204 62.667" enable-background="new 0 0 65.204 62.667" xml:space="preserve">
<g>
	<g>
		<path fill="#FFFFFF" d="M269.539,5555.004l2.408,22.028l30.841-3.37l-2.408-22.029L269.539,5555.004z M300.183,5570.232
			l-5.208-6.862l-4.539,4.706l-4.514-5.947l-12.013,12.46l-1.926-17.623l26.434-2.889L300.183,5570.232z M274.788,5562.232
			c0.198,1.824,1.841,3.143,3.666,2.942c1.824-0.198,3.143-1.84,2.942-3.665c-0.199-1.824-1.84-3.143-3.665-2.943
			C275.906,5558.767,274.588,5560.406,274.788,5562.232z M295.492,5547.709l-30.84,3.371l2.408,22.029l2.203-0.24l-2.167-19.828
			l28.636-3.127L295.492,5547.709L295.492,5547.709z"/>
	</g>
</g>
<g>
	<g>
		<g>
			<g>
				<path fill="#FFFFFF" d="M28.372,25.942l-2.037-1.925c0.237-0.432,0.384-0.92,0.384-1.447c0-1.669-1.352-3.021-3.021-3.021
					s-3.025,1.351-3.025,3.021c0,1.67,1.355,3.023,3.025,3.023c0.589,0,1.134-0.175,1.598-0.467l2.035,1.924
					C27.637,26.644,27.985,26.271,28.372,25.942z"/>
				<path fill="#FFFFFF" d="M36.993,25.702l2.708-4.558c0.267,0.076,0.543,0.131,0.833,0.131c1.673,0,3.025-1.352,3.025-3.021
					s-1.353-3.022-3.025-3.022c-1.67,0-3.021,1.351-3.021,3.022c0,0.828,0.334,1.576,0.876,2.124l-2.701,4.544
					C36.152,25.133,36.589,25.395,36.993,25.702z"/>
				<path fill="#FFFFFF" d="M46.332,29.518c-1.3,0-2.4,0.825-2.828,1.978l-3.762-0.371c0,0.028,0.004,0.056,0.004,0.083
					c0,0.491-0.055,0.971-0.152,1.433l3.762,0.371c0.228,1.443,1.469,2.55,2.977,2.55c1.67,0,3.021-1.352,3.021-3.021
					C49.353,30.87,48.001,29.518,46.332,29.518z"/>
				<path fill="#FFFFFF" d="M35.95,41.401l-0.841-3.675c-0.475,0.164-0.969,0.283-1.484,0.342l0.843,3.677
					c-0.966,0.505-1.633,1.503-1.633,2.67c0,1.669,1.353,3.021,3.025,3.021c1.669,0,3.021-1.352,3.021-3.021
					C38.882,42.776,37.577,41.449,35.95,41.401z"/>
				<path fill="#FFFFFF" d="M26.084,32.666l-4.684,1.568c-0.54-0.823-1.47-1.372-2.529-1.372c-1.669,0-3.021,1.353-3.021,3.021
					c0,1.672,1.353,3.025,3.021,3.025s3.024-1.354,3.024-3.025c0-0.068-0.016-0.133-0.021-0.201l4.698-1.573
					C26.362,33.651,26.193,33.17,26.084,32.666z"/>
				<circle fill="#FFFFFF" cx="32.837" cy="31.208" r="5.183"/>
			</g>
		</g>
	</g>
</g>
</svg>
