<?xml version="1.0" encoding="utf-8"?>
<!-- Generator: Adobe Illustrator 15.0.0, SVG Export Plug-In . SVG Version: 6.00 Build 0)  -->
<!DOCTYPE svg PUBLIC "-//W3C//DTD SVG 1.1//EN" "http://www.w3.org/Graphics/SVG/1.1/DTD/svg11.dtd">
<svg version="1.1" id="Capa_1" xmlns="http://www.w3.org/2000/svg" xmlns:xlink="http://www.w3.org/1999/xlink" x="0px" y="0px"
	 width="44.585px" height="38px" viewBox="0 0 44.585 38" enable-background="new 0 0 44.585 38" xml:space="preserve">
<g>
	<g>
		<path fill="#FFFFFF" d="M24.177,21.971c-0.376-0.06-0.385-1.094-0.385-1.094s1.104-1.093,1.345-2.563
			c0.648,0,1.049-1.564,0.4-2.115c0.027-0.578,0.833-4.545-3.245-4.545c-4.077,0-3.273,3.967-3.245,4.545
			c-0.647,0.551-0.248,2.115,0.4,2.115c0.239,1.47,1.345,2.563,1.345,2.563s-0.009,1.034-0.385,1.094
			c-1.211,0.193-5.732,2.188-5.732,4.375h7.617h7.617C29.91,24.158,25.388,22.164,24.177,21.971z"/>
	</g>
</g>
</svg>
