<?xml version="1.0" encoding="utf-8"?>
<!-- Generator: Adobe Illustrator 15.0.0, SVG Export Plug-In . SVG Version: 6.00 Build 0)  -->
<!DOCTYPE svg PUBLIC "-//W3C//DTD SVG 1.1//EN" "http://www.w3.org/Graphics/SVG/1.1/DTD/svg11.dtd">
<svg version="1.1" id="Capa_1" xmlns="http://www.w3.org/2000/svg" xmlns:xlink="http://www.w3.org/1999/xlink" x="0px" y="0px"
	 width="174.83px" height="60.446px" viewBox="0 0 174.83 60.446" enable-background="new 0 0 174.83 60.446" xml:space="preserve">
<g>
	<g>
		<path fill="#333333" d="M40.655,14.152L29.348,18.01l-0.598-0.736l8.207-8.211c1.322-1.322,3.979-0.992,4.926,0.615
			C42.743,11.119,42.407,13.553,40.655,14.152"/>
		<path fill="#333333" d="M34.149,20.855c-8.844,0-17.096,6.701-17.096,15.898c0,9.467,8.076,15.449,17.096,15.449
			c8.771,0,17.539-5.037,17.539-14.689C51.688,27.738,43.637,20.855,34.149,20.855z M34.149,49.357c-4.645,0-8.84-5.848-8.84-12.602
			c0-6.744,4.195-12.6,8.84-12.6c5.242,0,8.998,5.855,8.998,12.6C43.147,43.51,39.393,49.357,34.149,49.357z"/>
		<g>
			<path fill="#333333" d="M146.424,32.504c-1.258,0-2.348,0.398-3.27,1.195c-1.102,0.953-1.652,2.289-1.652,4.008
				c0,1.656,0.508,2.965,1.523,3.928c0.924,0.875,2.063,1.311,3.424,1.311c1.334,0,2.455-0.426,3.361-1.277
				c1.023-0.961,1.535-2.281,1.535-3.961c0-1.453-0.426-2.668-1.277-3.645C149.163,33.023,147.946,32.504,146.424,32.504z"/>
			<path fill="#333333" d="M88.215,32.504c-1.258,0-2.348,0.398-3.27,1.195c-1.102,0.953-1.654,2.289-1.654,4.008
				c0,1.656,0.51,2.965,1.525,3.928c0.92,0.875,2.061,1.311,3.422,1.311c1.334,0,2.457-0.426,3.363-1.277
				c1.021-0.961,1.533-2.281,1.533-3.961c0-1.453-0.424-2.668-1.275-3.645C90.952,33.023,89.739,32.504,88.215,32.504z"/>
			<path fill="#333333" d="M51.786,25.41c3.283,2.885,5.363,7.105,5.363,12.064c0,5.305-2.654,9.291-6.496,11.6h107.123V25.41
				H51.786z M63.698,44.457h-1.732v-3.463h1.732V44.457z M70.192,41.445c0.922,1.018,2.078,1.525,3.469,1.525
				c0.969,0,1.816-0.1,2.541-0.543c0.775-0.477,1.385-1.432,1.83-2.01h1.852c-0.549,1.154-1.377,2.385-2.486,3.156
				c-1.063,0.744-2.262,1.051-3.596,1.051c-1.049,0-2.061-0.268-3.037-0.744c-1.102-0.531-1.973-1.293-2.613-2.254
				c-0.734-1.094-1.102-2.383-1.102-3.852c0-1.055,0.246-2.09,0.738-3.098c0.547-1.117,1.289-2.002,2.227-2.65
				c1.07-0.744,2.309-1.115,3.715-1.115c1.258,0,2.328,0.229,3.211,0.742c1.172,0.689,2.168,1.838,2.99,3.568h-1.9
				c-1.047-1.73-2.422-2.746-4.125-2.746c-1.547,0-2.801,0.547-3.762,1.619c-0.891,0.992-1.336,2.199-1.336,3.605
				C68.809,39.178,69.268,40.43,70.192,41.445z M92.973,42.467c-1.328,1.396-3.016,2.096-5.063,2.096
				c-1.586,0-3.031-0.658-4.336-1.979c-1.361-1.377-2.039-2.98-2.039-4.816c0-1.025,0.238-2.041,0.715-3.049
				c0.537-1.133,1.273-2.027,2.201-2.684c1.086-0.766,2.355-1.146,3.811-1.146c1.631,0,3.107,0.602,4.428,1.805
				c1.455,1.328,2.18,2.975,2.18,4.943C94.873,39.529,94.239,41.137,92.973,42.467z M116.797,44.457h-1.732V36.93
				c0-1.42-0.361-2.492-0.979-3.213c-0.617-0.723-1.546-1.082-2.734-1.082c-1.242,0-2.145,0.318-2.713,0.959
				c-0.721,0.811-1.074,2.252-1.074,4.32v6.543h-1.732v-7.48c0-1.342-0.166-2.35-0.611-3.02c-0.584-0.881-1.561-1.322-2.982-1.322
				c-0.633,0-1.157,0.082-1.604,0.244c-0.67,0.252-1.211,0.688-1.588,1.311c-0.469,0.781-0.719,1.863-0.719,3.244v0.48v6.543h-1.73
				V31.182h1.73v1.557c1.154-1.117,2.486-1.557,4.08-1.557h0.385c0.947,0,1.783,0.152,2.51,0.574
				c0.656,0.383,1.199,0.893,1.629,1.588c0.477-0.664,1.096-1.219,1.863-1.633c0.875-0.477,1.801-0.723,2.777-0.723
				c1.408,0,2.68,0.434,3.563,1.309c1.021,1.016,1.664,2.508,1.664,4.486v7.674H116.797z M121.991,44.457h-1.73v-3.463h1.73V44.457z
				 M128.399,41.445c0.924,1.018,2.08,1.525,3.469,1.525c0.971,0,1.816-0.1,2.543-0.543c0.773-0.477,1.383-1.432,1.83-2.01h1.852
				c-0.547,1.154-1.375,2.385-2.486,3.156c-1.063,0.744-2.262,1.051-3.598,1.051c-1.045,0-2.059-0.268-3.035-0.744
				c-1.101-0.531-1.971-1.293-2.613-2.254c-0.734-1.094-1.102-2.383-1.102-3.852c0-1.055,0.246-2.09,0.739-3.098
				c0.546-1.117,1.288-2.002,2.226-2.65c1.07-0.744,2.309-1.115,3.717-1.115c1.258,0,2.326,0.229,3.209,0.742
				c1.174,0.689,2.17,1.838,2.99,3.568h-1.898c-1.047-1.73-2.422-2.746-4.125-2.746c-1.547,0-2.801,0.547-3.762,1.619
				c-0.891,0.992-1.336,2.199-1.336,3.605C127.018,39.178,127.477,40.43,128.399,41.445z M151.182,42.467
				c-1.33,1.396-3.016,2.096-5.063,2.096c-1.586,0-3.033-0.658-4.338-1.979c-1.359-1.377-2.037-2.98-2.037-4.816
				c0-1.025,0.238-2.041,0.715-3.049c0.54-1.133,1.271-2.027,2.201-2.684c1.087-0.766,2.355-1.146,3.811-1.146
				c1.631,0,3.107,0.602,4.428,1.805c1.453,1.328,2.18,2.975,2.18,4.943C153.082,39.529,152.446,41.137,151.182,42.467z"/>
		</g>
	</g>
</g>
</svg>
