<?xml version="1.0" encoding="utf-8"?>
<!-- Generator: Adobe Illustrator 16.0.0, SVG Export Plug-In . SVG Version: 6.00 Build 0)  -->
<!DOCTYPE svg PUBLIC "-//W3C//DTD SVG 1.1//EN" "http://www.w3.org/Graphics/SVG/1.1/DTD/svg11.dtd">
<svg version="1.1" xmlns="http://www.w3.org/2000/svg" xmlns:xlink="http://www.w3.org/1999/xlink" x="0px" y="0px"
	 width="27.122px" height="27.448px" viewBox="0 0 27.122 27.448" enable-background="new 0 0 27.122 27.448" xml:space="preserve">
<g id="IMG" display="none">
</g>
<g id="Plantilla" display="none">
</g>
<g id="Marcos">
</g>
<g id="Imagenes">
</g>
<g id="Marcos_cintillos">
</g>
<g id="Publicidad">
</g>
<g id="Logo">
	<g id="Insignia_1_-_Roja">
	</g>
	<g id="Icono_2_-_Comentarios1">
	</g>
</g>
<g id="Botones">
	<g id="Viñeta_5_-_Abajo">
	</g>
	<g id="Viñeta_4_-_Siguiente">
	</g>
	<path fill="#7C181F" d="M23.376,21.663l-6.725-6.844c-0.024-0.021-0.055-0.034-0.072-0.051c1.011-1.167,1.646-2.669,1.646-4.332
		c0-3.662-2.978-6.641-6.643-6.641c-3.658,0-6.638,2.979-6.638,6.641c0,3.665,2.979,6.642,6.638,6.642
		c1.519,0,2.9-0.533,4.026-1.394c0.021,0.034,0.032,0.067,0.061,0.099l6.724,6.846c0.135,0.141,0.316,0.207,0.492,0.207
		c0.175,0,0.346-0.066,0.481-0.199C23.638,22.37,23.642,21.935,23.376,21.663z M11.582,15.704c-2.9,0-5.264-2.363-5.264-5.268
		s2.363-5.268,5.264-5.268c2.909,0,5.268,2.363,5.268,5.268S14.491,15.704,11.582,15.704z"/>
</g>
<g id="TXT">
</g>
<g id="Guia" display="none">
</g>
</svg>
