<?xml version="1.0" encoding="utf-8"?>
<!-- Generator: Adobe Illustrator 16.0.0, SVG Export Plug-In . SVG Version: 6.00 Build 0)  -->
<!DOCTYPE svg PUBLIC "-//W3C//DTD SVG 1.1//EN" "http://www.w3.org/Graphics/SVG/1.1/DTD/svg11.dtd">
<svg version="1.1" xmlns="http://www.w3.org/2000/svg" xmlns:xlink="http://www.w3.org/1999/xlink" x="0px" y="0px"
	 width="14.518px" height="15.193px" viewBox="0 0 14.518 15.193" enable-background="new 0 0 14.518 15.193" xml:space="preserve">
<g id="IMG" display="none">
</g>
<g id="Plantilla" display="none">
</g>
<g id="Marcos">
</g>
<g id="Imagenes">
</g>
<g id="Marcos_cintillos">
</g>
<g id="Publicidad">
</g>
<g id="Logo">
</g>
<g id="Botones">
	<path fill="#B92025" d="M13.813,13.29L9.212,8.607C9.196,8.592,9.177,8.586,9.161,8.572c0.693-0.798,1.129-1.826,1.129-2.964
		c0-2.506-2.039-4.544-4.545-4.544c-2.504,0-4.543,2.038-4.543,4.544c0,2.506,2.039,4.544,4.543,4.544
		c1.041,0,1.986-0.365,2.754-0.954c0.016,0.022,0.023,0.047,0.043,0.067l4.602,4.685c0.092,0.094,0.213,0.14,0.334,0.14
		c0.119,0,0.238-0.045,0.33-0.135C13.993,13.774,13.995,13.477,13.813,13.29z M5.745,9.212c-1.986,0-3.602-1.617-3.602-3.604
		c0-1.988,1.615-3.604,3.602-3.604c1.988,0,3.604,1.616,3.604,3.604C9.349,7.596,7.733,9.212,5.745,9.212z"/>
</g>
<g id="TXT">
</g>
<g id="Guia" display="none">
</g>
</svg>
