<?xml version="1.0" encoding="utf-8"?>
<!-- Generator: Adobe Illustrator 15.0.0, SVG Export Plug-In . SVG Version: 6.00 Build 0)  -->
<!DOCTYPE svg PUBLIC "-//W3C//DTD SVG 1.1//EN" "http://www.w3.org/Graphics/SVG/1.1/DTD/svg11.dtd">
<svg version="1.1" id="Capa_1" xmlns="http://www.w3.org/2000/svg" xmlns:xlink="http://www.w3.org/1999/xlink" x="0px" y="0px"
	 width="52px" height="38px" viewBox="0 0 52 38" enable-background="new 0 0 52 38" xml:space="preserve">
<g>
	<rect x="7" y="4.443" fill="#BB0411" width="38.001" height="29.557"/>
	<g>
		<g>
			<path fill="#FFFFFF" d="M32.949,10.215c-2.462,0-4.666,1.077-6.187,2.777c0.527,1.185,0.828,2.493,0.828,3.871
				c0,2.086-0.668,4.056-1.894,5.691c0.412,0.739,0.933,1.407,1.541,1.984l-0.278,4.626l3.946-2.604
				c0.655,0.166,1.336,0.263,2.043,0.263c4.587,0,8.305-3.718,8.305-8.305C41.253,13.934,37.536,10.215,32.949,10.215z
				 M28.03,17.245c0-0.823,0.668-1.491,1.491-1.491c0.822,0,1.492,0.668,1.492,1.491c0,0.822-0.67,1.49-1.492,1.49
				C28.698,18.735,28.03,18.067,28.03,17.245z M32.949,24.126c-2.295,0-4.153-1.82-4.153-2.868c0-1.047,1.858,0.045,4.153,0.045
				c2.293,0,4.151-1.091,4.151-0.045C37.102,22.307,35.244,24.126,32.949,24.126z M36.377,18.735c-0.823,0-1.491-0.668-1.491-1.49
				c0-0.823,0.668-1.491,1.491-1.491s1.491,0.668,1.491,1.491C37.869,18.067,37.201,18.735,36.377,18.735z"/>
			<path fill="#FFFFFF" d="M26.348,16.862c0-4.586-3.719-8.305-8.306-8.305c-4.586,0-8.305,3.719-8.305,8.305
				c0,4.588,3.719,8.306,8.305,8.306c0.707,0,1.39-0.097,2.043-0.263l3.945,2.604l-0.277-4.625
				C25.349,21.369,26.348,19.235,26.348,16.862z M13.125,15.589c0-0.823,0.668-1.491,1.491-1.491c0.821,0,1.489,0.668,1.489,1.491
				c0,0.822-0.668,1.49-1.489,1.49C13.792,17.079,13.125,16.411,13.125,15.589z M18.042,22.47c-2.293,0-4.151-1.82-4.151-2.868
				c0-1.047,1.858,0.045,4.151,0.045c2.294,0,4.154-1.091,4.154-0.045C22.195,20.65,20.336,22.47,18.042,22.47z M21.472,17.079
				c-0.824,0-1.492-0.668-1.492-1.49c0-0.823,0.668-1.491,1.492-1.491c0.822,0,1.49,0.668,1.49,1.491
				C22.962,16.411,22.294,17.079,21.472,17.079z"/>
		</g>
	</g>
</g>
</svg>
