<?xml version="1.0" encoding="utf-8"?>
<!-- Generator: Adobe Illustrator 15.0.0, SVG Export Plug-In . SVG Version: 6.00 Build 0)  -->
<!DOCTYPE svg PUBLIC "-//W3C//DTD SVG 1.1//EN" "http://www.w3.org/Graphics/SVG/1.1/DTD/svg11.dtd">
<svg version="1.1" id="Capa_1" xmlns="http://www.w3.org/2000/svg" xmlns:xlink="http://www.w3.org/1999/xlink" x="0px" y="0px"
	 width="44.585px" height="38px" viewBox="0 0 44.585 38" enable-background="new 0 0 44.585 38" xml:space="preserve">
<g>
	<path fill="#FFFFFF" d="M28.55,17.439c-1.722-1.629-2.994-2.851-3.83-3.615c-0.59-0.54-0.98-0.596-1.183-0.596
		c-0.193,0-5.134,0-5.709,0c-0.576,0-0.891,0.106-1.186,0.596c-0.292,0.489-1.903,2.406-2.266,3.049
		c-2.391,0.498-2.74,0.953-2.74,1.664c0,0.404,0,3.064,0,3.064c0,0.385,0.964,1.395,1.332,1.395h0.597
		c0.367,1.035,1.352,1.776,2.512,1.776c1.159,0,2.143-0.741,2.507-1.776h8.303c0.365,1.035,1.35,1.776,2.51,1.776
		c1.214,0,2.236-0.813,2.557-1.923c0.43-0.295,0.995-0.953,0.995-1.248c0,0,0-2.101,0-2.503
		C32.948,18.417,31.547,18.029,28.55,17.439z M16.017,16.89c0.343-0.477,1.155-1.525,1.346-1.791
		c0.248-0.346,0.409-0.459,0.847-0.459c0.183,0,1.105,0,2.116,0v3.026c-2.045,0-3.875,0-4.106,0
		C15.813,17.667,15.623,17.437,16.017,16.89z M16.076,23.439c-0.735,0-1.332-0.598-1.332-1.331c0-0.734,0.597-1.332,1.332-1.332
		c0.733,0,1.331,0.598,1.331,1.332C17.407,22.841,16.81,23.439,16.076,23.439z M20.707,17.667V14.64c1.297,0,2.61,0,2.61,0
		c0.341,0,0.707,0.154,0.952,0.372c0.339,0.302,1.7,1.585,2.234,2.101c0.478,0.459,0.258,0.554-0.095,0.554
		C26.409,17.667,23.441,17.667,20.707,17.667z M29.396,23.439c-0.735,0-1.332-0.598-1.332-1.331c0-0.734,0.597-1.332,1.332-1.332
		c0.734,0,1.332,0.598,1.332,1.332C30.729,22.841,30.131,23.439,29.396,23.439z"/>
</g>
</svg>
