<?xml version="1.0" encoding="utf-8"?>
<!-- Generator: Adobe Illustrator 16.0.0, SVG Export Plug-In . SVG Version: 6.00 Build 0)  -->
<!DOCTYPE svg PUBLIC "-//W3C//DTD SVG 1.1//EN" "http://www.w3.org/Graphics/SVG/1.1/DTD/svg11.dtd">
<svg version="1.1" id="Capa_1" xmlns="http://www.w3.org/2000/svg" xmlns:xlink="http://www.w3.org/1999/xlink" x="0px" y="0px"
	 width="52px" height="38px" viewBox="0 0 52 38" enable-background="new 0 0 52 38" xml:space="preserve">
<g>
	<rect x="7" y="4.443" fill="#BB0411" width="37.874" height="29.458"/>
	<g>
		<path fill="#FFFFFF" d="M24.461,9.227l-4.552,3.41h-4.156c-0.687,0-1.248,0.559-1.248,1.245v8.688
			c0,0.685,0.561,1.246,1.248,1.246h4.156l4.552,3.411c0.831,0.62,1.995,0.04,1.995-1V10.222
			C26.456,9.183,25.271,8.603,24.461,9.227z"/>
		<path fill="#FFFFFF" d="M30.574,11.264c-0.563-0.562-1.499-0.562-2.061,0c-0.561,0.561-0.561,1.495,0,2.057
			c2.702,2.702,2.702,7.087,0,9.79c-0.561,0.561-0.561,1.495,0,2.058c0.29,0.29,0.666,0.415,1.021,0.415
			c0.352,0,0.746-0.145,1.018-0.438C34.415,21.342,34.415,15.107,30.574,11.264z"/>
		<path fill="#FFFFFF" d="M32.192,8c-0.56,0.56-0.56,1.495,0,2.058c2.185,2.184,3.387,5.07,3.387,8.167s-1.202,5.986-3.387,8.168
			c-0.56,0.56-0.56,1.495,0,2.056c0.29,0.293,0.667,0.438,1.02,0.438c0.375,0,0.749-0.145,1.018-0.414
			c2.724-2.724,4.24-6.359,4.24-10.227c0-3.866-1.496-7.482-4.24-10.225C33.688,7.438,32.774,7.438,32.192,8z"/>
	</g>
</g>
</svg>
