<?xml version="1.0" encoding="utf-8"?>
<!-- Generator: Adobe Illustrator 15.0.0, SVG Export Plug-In . SVG Version: 6.00 Build 0)  -->
<!DOCTYPE svg PUBLIC "-//W3C//DTD SVG 1.1//EN" "http://www.w3.org/Graphics/SVG/1.1/DTD/svg11.dtd">
<svg version="1.1" id="Capa_1" xmlns="http://www.w3.org/2000/svg" xmlns:xlink="http://www.w3.org/1999/xlink" x="0px" y="0px"
	 width="877px" height="64px" viewBox="0 0 877 64" enable-background="new 0 0 877 64" xml:space="preserve">
<g>
	<g>
		<path fill="#1F1600" d="M83.877,39.282c0.248,0.166-0.405,1.379-0.972,2.109c-1.542,1.79-2.513,2.521-4.466,3.66
			c-1.785,0.971-6.492,3.406-7.469,0c-0.972-3.66,4.302-11.447,7.791-13.074c1.223-0.652,2.846-0.652,3.416,0.896
			c1.947,5.437-5.036,8.195-8.607,9.901c-0.327,0.078-0.575,0.161-0.895,0.247c-0.326,0.89-0.405,1.701-0.245,2.353
			c0.487,1.058,3.979-0.323,5.524-1.3c2.192-1.377,2.678-1.869,4.139-3.328C82.582,40.015,83.556,39.122,83.877,39.282z
			 M73.243,41.72c3.734-1.541,8.935-4.221,7.957-8.115c-0.247-0.49-1.135,0-1.948,0.646C76.9,35.878,74.621,38.882,73.243,41.72z"/>
		<path fill="#1F1600" d="M82.66,45.052c0,0.563,0.326,0.648,0.647,0.648c1.462,0,5.846-3.494,5.846-3.656
			c0.085-0.08,0.571-0.16,0.571,0.084c0.079,0.486-0.571,0.974-0.571,0.974c-4.463,3.896-5.846,3.653-6.007,3.653
			c-1.946,0.082-1.783-1.789-1.783-1.789c0-6.25,14.125-23.14,14.613-23.14c0.321-0.324,0.571-0.404,0.729-0.404
			c0.57,0,0.73,0.816,0.73,1.135c0,0.732-0.405,1.383-0.405,1.383l-5.765,7.065C82.824,42.292,82.66,44.401,82.66,45.052z"/>
		<path fill="#1F1600" d="M101.334,39.282c0.245,0.166-0.404,1.379-0.972,2.109c-1.542,1.79-2.515,2.521-4.465,3.66
			c-1.785,0.971-6.499,3.406-7.475,0c-0.974-3.66,4.302-11.447,7.797-13.074c1.216-0.652,2.842-0.652,3.407,0.896
			c1.952,5.437-5.029,8.195-8.604,9.901c-0.319,0.078-0.567,0.161-0.893,0.247c-0.326,0.89-0.405,1.701-0.242,2.353
			c0.483,1.058,3.975-0.323,5.521-1.3c2.189-1.377,2.678-1.869,4.143-3.328C100.039,40.015,101.012,39.122,101.334,39.282z
			 M90.703,41.72c3.729-1.541,8.924-4.221,7.954-8.115c-0.244-0.49-1.143,0-1.952,0.646C94.354,35.878,92.078,38.882,90.703,41.72z
			 M95.57,29.619c-0.404,0-0.652-0.08-0.652-0.08c0-0.08,0-0.08,0.082-0.08c2.352-0.645,2.352-3.41,4.789-3.41
			c0.492,0,0.732,0.242,0.732,0.648C100.521,28.648,96.542,29.619,95.57,29.619z"/>
		<path fill="#1F1600" d="M107.017,31.647c0.407,0,0.573,0.168,0.573,0.49c0,0.325-0.248,0.736-0.329,0.813
			c-6.494,8.934-7.067,11.525-7.067,11.525c-0.076,0.248-0.076,0.412-0.076,0.576c0,0.563,0.404,0.648,0.649,0.648
			c1.217,0.16,5.845-3.494,5.845-3.656c0.162-0.08,0.326-0.08,0.405-0.08c0.081,0,0.164,0.08,0.164,0.164
			c0,0.319-0.569,0.974-0.569,0.974c-4.224,3.735-5.845,3.653-6.011,3.653c-1.862-0.082-1.78-1.789-1.78-1.789
			c0-2.922,2.27-7.224,5.6-12.016C104.905,32.382,106.12,31.647,107.017,31.647z M107.098,28.969c0-1.133,1.301-2.92,2.191-2.92
			c0.325,0,0.572,0.242,0.572,0.734c0,1.297-1.301,2.918-2.111,2.918c-0.16,0-0.245,0-0.326-0.082
			C107.181,29.539,107.098,29.297,107.098,28.969z"/>
		<path fill="#1F1600" d="M121.549,22.557c0,0.732-0.407,1.383-0.407,1.383l-5.027,6.174h0.563c0.409,0,1.14,0,1.14,0.481
			c0,0.572-0.73,0.572-1.14,0.572h-1.374c-8.286,11.125-8.529,13.152-8.529,13.885c0,0.563,0.405,0.648,0.645,0.648
			c1.542,0.16,5.852-3.494,5.852-3.656c0.159-0.08,0.325-0.08,0.401-0.08c0.084,0,0.165,0.08,0.165,0.164
			c0,0.486-0.566,0.974-0.566,0.974c-4.793,4.222-5.852,3.653-6.009,3.653c-1.949,0-1.786-1.789-1.786-1.789
			c0-3.246,3.084-8.607,6.981-13.799h-3.496c-0.483,0-1.051,0-1.051-0.572c0-0.481,0.567-0.481,1.051-0.481h4.31
			c5.926-7.797,7.061-8.771,7.385-8.771C121.227,21.342,121.549,21.904,121.549,22.557z"/>
		<path fill="#1F1600" d="M125.448,39.282c0.241,0.166-0.407,1.379-0.979,2.109c-1.54,1.79-2.517,2.521-4.462,3.66
			c-1.787,0.971-6.493,3.406-7.469,0c-0.979-3.66,4.303-11.447,7.791-13.074c1.219-0.652,2.844-0.652,3.411,0.896
			c1.948,5.437-5.036,8.195-8.61,9.901c-0.32,0.078-0.564,0.161-0.886,0.247c-0.329,0.89-0.41,1.701-0.246,2.353
			c0.485,1.058,3.975-0.323,5.517-1.3c2.197-1.377,2.683-1.869,4.143-3.328C124.146,40.015,125.123,39.122,125.448,39.282z
			 M114.811,41.72c3.733-1.541,8.931-4.221,7.955-8.115c-0.244-0.49-1.139,0-1.949,0.646
			C118.462,35.878,116.189,38.882,114.811,41.72z"/>
		<path fill="#1F1600" d="M120.654,42.376c0-1.467,1.221-2.928,2.923-2.928c0.326,0,0.813,0.08,1.216,0.238
			c1.057-1.376,2.278-2.515,5.2-7.305c0.079-0.08-0.488-1.215,1.215-0.89c1.953,0.403,2.763,8.85,0.567,12.175
			c1.221,0.084,3.171-0.892,3.414-0.892c0.08,0,0.08,0,0.08,0.078c0,0.328-1.627,1.789-3.574,1.789c-0.163,0-0.407,0-0.567-0.081
			c-2.03,2.193-3.41,2.031-5.037,2.111c-1.944,0.082-3.896-0.813-4.949-2.598C120.816,43.506,120.654,43.022,120.654,42.376z
			 M123.656,40.421c-0.891,0-1.943,1.137-1.943,2.277c0,0.155,0,0.238,0.082,0.403c0.563-0.726,1.455-1.71,2.268-2.599
			C123.903,40.503,123.824,40.421,123.656,40.421z M121.953,43.591c0.649,1.133,2.599,2.024,4.221,2.024
			c1.544,0,2.6-0.728,3.25-1.703c-1.544-0.811-3.166-2.028-4.465-2.923C123.903,42.044,122.766,43.022,121.953,43.591z
			 M125.689,40.179c1.458,0.973,3.003,2.197,4.383,2.844c1.46-2.52,1.056-9.014,0.406-9.098c-1.381,2.033-2.842,4.219-4.388,5.845
			C125.934,39.935,125.85,40.095,125.689,40.179z"/>
		<path fill="#1F1600" d="M146.799,39.282c0.243,0.166-0.402,1.379-0.977,2.109c-1.537,1.79-2.516,2.521-4.471,3.66
			c-1.783,0.971-6.488,3.406-7.463,0c-0.974-3.66,4.303-11.447,7.792-13.074c1.219-0.652,2.843-0.652,3.412,0.896
			c1.949,5.437-5.035,8.195-8.604,9.901c-0.328,0.078-0.573,0.161-0.894,0.247c-0.328,0.89-0.406,1.701-0.247,2.353
			c0.486,1.058,3.98-0.323,5.526-1.3c2.188-1.377,2.674-1.869,4.133-3.328C145.497,40.015,146.473,39.122,146.799,39.282z
			 M136.161,41.72c3.737-1.541,8.932-4.221,7.955-8.115c-0.239-0.49-1.132,0-1.947,0.646
			C139.814,35.878,137.543,38.882,136.161,41.72z"/>
	</g>
	<g>
		<path fill="#F7931E" d="M64.417,48.196c-0.857,0.668-1.729,1.26-2.569,1.772c-3.23,1.964-7.084,3.438-11.051,4.293h95.735v-6.065
			H64.417z"/>
	</g>
	<g>
		<g>
			<g>
				<path fill="#1F1600" d="M81.554,16.34c0.085-0.645,0.097-1.289,0.034-1.928c-0.028-0.32-0.079-0.643-0.148-0.955
					c-0.076-0.318-0.166-0.631-0.287-0.936c-0.117-0.305-0.255-0.602-0.416-0.887c-0.082-0.143-0.168-0.281-0.261-0.422
					c-0.039-0.057-0.096-0.131-0.141-0.195c-0.054-0.072-0.101-0.133-0.151-0.191c-0.409-0.51-0.894-0.961-1.441-1.322
					c-0.27-0.174-0.556-0.334-0.854-0.465c-0.146-0.063-0.296-0.113-0.445-0.158c-0.964-0.305-1.704-0.406-2.686-0.207
					c-1.375,0.268-0.798,0.693-1.511-0.695c-0.31-0.594-0.659-1.17-1.094-1.676c-0.872-1.021-2.061-1.725-3.336-2.115
					c-0.565-0.174-1.153-0.295-1.742-0.332c-1.886-0.137-3.798,0.475-5.342,1.563c-1.588,1.121-0.553,1.068-2.079-0.113
					c-0.368-0.281-0.744-0.531-1.163-0.734c-0.656-0.316-1.451-0.52-2.177-0.564c-2.326-0.162-4.615,0.893-6.211,2.52
					c-1.034,1.051-1.737,2.482-1.995,3.904c-0.128,0.715-0.145,1.451-0.043,2.186c0.095,0.727,0.301,1.436,0.584,2.109
					c0.148,0.34,0.32,0.664,0.509,0.979c0.166,0.277,0.358,0.549,0.566,0.801c0.771,0.951,1.772,1.643,2.925,2.053
					c1.622,0.578,3.644,0.438,5.195-0.311c0.961-0.461,1.389-0.816,1.582-0.932c0.22-0.137,0.332-0.018,0.476,0.16
					c0.28,0.357,0.567,0.648,0.913,0.943c0.555,0.488,1.196,0.883,1.876,1.17c0.678,0.295,1.392,0.512,2.12,0.648
					c0.726,0.137,1.365,0.164,2.121,0.119c0.377-0.021,0.872-0.086,1.235-0.168c0.191-0.049,0.296-0.078,0.5-0.139
					c0.144-0.041,0.233-0.047,0.343,0.061c0.075,0.066,0.426,0.525,0.506,0.609c0.079,0.088,0.156,0.166,0.238,0.248
					c0.285,0.287,0.582,0.549,0.884,0.801c0.378,0.334,0.041,0.102,0.45,3.002c0.046,0.309,0.225,1.221,0.241,1.35
					c0.025,0.139-0.005,0.217-0.145,0.121c-0.073-0.047-0.462-0.371-0.579-0.461c-0.242-0.186-0.487-0.377-0.733-0.559
					s-0.497-0.363-0.75-0.537c-1.077-0.744-2.219-1.412-3.413-1.975c-0.598-0.277-1.208-0.533-1.834-0.752
					c-0.627-0.229-1.248-0.426-1.879-0.604c-0.635-0.172-1.283-0.318-1.943-0.414c-0.66-0.09-1.339-0.127-2.015-0.049
					c-0.34,0.043-0.68,0.109-1.005,0.215c-0.084,0.035-0.16,0.061-0.248,0.094c-0.076,0.027-0.162,0.061-0.241,0.107
					c-0.161,0.078-0.313,0.176-0.459,0.289c-0.284,0.234,1.504-0.629,3.874-0.055c0.797,0.193,1.606,0.34,2.387,0.576
					c0.685,0.211,1.369,0.439,2.044,0.703c2.356,0.902,4.608,2.146,6.474,3.855c0.846,0.775,1.278,1.342,1.5,1.139
					c0.09-0.076,0.052-0.211,0.014-0.311c-0.047-0.127-0.095-0.246-0.138-0.377c-0.134-0.379-0.273-0.75-0.396-1.137
					c-0.129-0.43-0.255-0.865-0.367-1.299c-0.102-0.438-0.196-0.877-0.255-1.326c-0.019-0.115-0.026-0.23-0.037-0.344
					c-0.015-0.186-0.104-1.057,0.303-0.818c0.079,0.055,0.16,0.094,0.245,0.133c0.563,0.279,1.176,0.461,1.803,0.549
					c0.626,0.08,1.267,0.064,1.888-0.041c1.255-0.221,2.431-0.783,3.421-1.584c0.497-0.398,0.941-0.859,1.325-1.375
					c0.378-0.512,0.691-1.08,0.92-1.689C81.316,17.602,81.473,16.975,81.554,16.34z M80.506,17.988
					c-0.376,1.109-1.081,2.111-1.984,2.887c-0.901,0.775-1.992,1.348-3.166,1.592c-0.584,0.123-1.189,0.158-1.787,0.107
					c-0.591-0.057-1.143-0.244-1.693-0.492c-0.278-0.123-0.546-0.268-0.795-0.434c-0.258-0.158-0.512-0.34-0.744-0.525
					c-0.244-0.188-0.455-0.377-0.664-0.596c-0.15-0.166-0.592-0.619-0.328-0.766c0.156-0.086,0.287-0.117,0.44-0.195
					c0.161-0.082,0.321-0.156,0.476-0.246c0.314-0.186,0.615-0.381,0.899-0.611c0.09-0.066,0.169-0.141,0.246-0.211
					c0.215-0.201,0.399-0.418,0.573-0.656c0.176-0.24,0.317-0.49,0.417-0.822c0.044-0.148-0.023-0.16-0.083-0.029
					c-0.033,0.068-0.076,0.154-0.118,0.225c-0.099,0.18-0.203,0.34-0.323,0.496c-0.469,0.623-1.105,1.039-1.813,1.354
					c-0.318,0.141-0.651,0.266-0.978,0.363c-0.443,0.123-0.888,0.213-1.335,0.281c-0.781,0.123-1.586,0.139-2.373,0.063
					c-0.796-0.08-1.598-0.27-2.351-0.555c-0.654-0.238-1.412-0.703-1.965-1.125c-0.276-0.217-0.536-0.445-0.775-0.705
					c-0.236-0.258-0.465-0.533-0.679-0.814c-0.216-0.283-0.38-0.57-0.562-0.881c-0.044-0.074-0.081-0.146-0.118-0.227
					c-0.09-0.154-0.162-0.324-0.229-0.494c-0.018-0.051-0.051-0.193-0.1-0.229c-0.058-0.037-0.1,0.023-0.095,0.084
					c0.008,0.082,0.037,0.16,0.064,0.24c0.038,0.098,0.06,0.166,0.102,0.258c0.147,0.348,0.347,0.684,0.509,1.029
					c0.1,0.195,0.146,0.43,0.017,0.625c-0.134,0.189-0.304,0.309-0.5,0.432c-0.385,0.236-0.801,0.416-1.228,0.557
					c-0.269,0.086-0.544,0.146-0.82,0.201c-0.964,0.178-1.979,0.148-2.938-0.055c-0.646-0.133-1.255-0.381-1.81-0.742
					c-1.104-0.699-1.978-1.758-2.551-2.959c-0.284-0.604-0.494-1.244-0.605-1.9c-0.468-2.74,0.939-5.191,3.072-6.811
					c2.301-1.74,5.733-1.811,7.985,0.152c0.342,0.297,0.481,0.449,0.686,0.664c0.256,0.264,0.381,0.039,0.841-0.346
					c1.498-1.254,3.558-1.928,5.493-1.865c2.569,0.086,4.875,1.307,6.166,3.844c0.688,1.354,0.336,1.156,1.408,0.971
					c1.12-0.203,2.232-0.029,3.229,0.486c0.259,0.131,0.506,0.285,0.734,0.465c0.464,0.34,0.87,0.76,1.22,1.227
					c0.699,0.924,1.097,2.039,1.259,3.205C80.991,15.66,80.892,16.871,80.506,17.988z"/>
			</g>
			<g>
				<path fill="#1F1600" d="M81.554,16.34c0.175-1.389,0.03-2.84-0.54-4.123c-0.567-1.277-1.573-2.365-2.82-3
					c-0.308-0.162-0.635-0.281-0.973-0.379c-0.338-0.094-0.682-0.172-1.025-0.207c-0.692-0.074-1.402,0.02-2.06,0.25l-0.251,0.086
					c-0.041,0.01-0.086,0.033-0.15,0.01c-0.059-0.021-0.087-0.07-0.109-0.105c-0.088-0.164-0.144-0.324-0.222-0.477
					c-0.146-0.32-0.315-0.635-0.492-0.934c-0.351-0.598-0.772-1.166-1.286-1.637c-1.022-0.947-2.354-1.527-3.717-1.781
					c-1.367-0.254-2.791-0.086-4.086,0.402c-0.648,0.24-1.265,0.564-1.84,0.957c-0.287,0.191-0.56,0.406-0.817,0.629l-0.197,0.178
					c-0.031,0.027-0.064,0.061-0.112,0.094c-0.022,0.016-0.048,0.033-0.092,0.047c-0.037,0.018-0.104,0.025-0.155,0
					c-0.09-0.033-0.121-0.078-0.16-0.111l-0.089-0.102c-0.062-0.064-0.119-0.117-0.178-0.176c-0.244-0.248-0.511-0.465-0.789-0.666
					c-0.283-0.199-0.572-0.383-0.877-0.535c-0.612-0.299-1.283-0.479-1.955-0.555c-1.362-0.146-2.754,0.168-3.972,0.775
					c-0.612,0.307-1.188,0.686-1.71,1.131c-0.52,0.445-0.988,0.943-1.363,1.51c-0.746,1.127-1.201,2.473-1.239,3.816
					c-0.036,1.346,0.345,2.705,1.004,3.877c0.659,1.176,1.665,2.143,2.882,2.703c1.208,0.582,2.602,0.695,3.918,0.453
					c0.663-0.123,1.287-0.34,1.892-0.664c0.302-0.15,0.593-0.324,0.872-0.51l0.213-0.141c0.074-0.051,0.135-0.104,0.252-0.166
					c0.084-0.049,0.168-0.072,0.286-0.078c0.112,0,0.232,0.043,0.307,0.09c0.151,0.104,0.207,0.193,0.267,0.262
					c0.215,0.268,0.43,0.5,0.682,0.73l0.187,0.162l0.204,0.17c0.126,0.096,0.256,0.195,0.396,0.289
					c0.552,0.379,1.166,0.666,1.802,0.887c0.646,0.225,1.291,0.391,1.966,0.479c0.665,0.076,1.349,0.068,2.022-0.012
					c0.163-0.02,0.327-0.049,0.492-0.076c0.157-0.027,0.312-0.072,0.488-0.121c0.082-0.023,0.153-0.045,0.274-0.068
					c0.071-0.018,0.165-0.033,0.278,0c0.107,0.023,0.202,0.084,0.253,0.133c0.118,0.113,0.154,0.166,0.214,0.24l0.169,0.207
					c0.204,0.281,0.428,0.482,0.688,0.727l0.381,0.346l0.199,0.176c0.031,0.029,0.074,0.061,0.115,0.111
					c0.05,0.051,0.109,0.135,0.144,0.227c0.056,0.17,0.048,0.258,0.054,0.354l0.009,0.268c0.011,0.168,0.019,0.344,0.032,0.512
					c0.025,0.342,0.059,0.691,0.104,1.035c0.073,0.697,0.202,1.344,0.326,2.076c0.009,0.041,0.011,0.08,0.006,0.145
					c-0.006,0.027-0.014,0.064-0.033,0.119c-0.023,0.045-0.068,0.119-0.144,0.168c-0.076,0.045-0.168,0.057-0.211,0.053
					c-0.06-0.008-0.09-0.016-0.124-0.025c-0.054-0.023-0.089-0.047-0.12-0.064c-0.061-0.037-0.1-0.07-0.133-0.096l-0.105-0.084
					l-0.401-0.33c-0.276-0.219-0.558-0.424-0.837-0.629c-0.561-0.414-1.131-0.807-1.721-1.172c-1.176-0.725-2.418-1.361-3.707-1.859
					c-0.641-0.248-1.305-0.469-1.972-0.668c-0.665-0.199-1.331-0.361-2.015-0.471c-0.68-0.105-1.364-0.152-2.036-0.082
					c-0.335,0.031-0.666,0.098-0.989,0.193c-0.312,0.104-0.614,0.236-0.864,0.436l-0.018,0.018c-0.016,0-0.01,0.012,0.018-0.029
					c0.11-0.244-0.292-0.381-0.175-0.311h0.003l0.121-0.02l0.261-0.063c0.178-0.035,0.35-0.072,0.525-0.1
					c0.359-0.057,0.719-0.086,1.079-0.094c0.716-0.018,1.443,0.074,2.128,0.262c0.68,0.17,1.369,0.309,2.052,0.51
					c0.675,0.207,1.343,0.432,2,0.686c1.32,0.508,2.597,1.111,3.806,1.846c1.2,0.73,2.337,1.598,3.331,2.594
					c0.248,0.238,0.485,0.52,0.765,0.695c0.065,0.045,0.134,0.064,0.169,0.037c0.05-0.031,0.054-0.088,0.032-0.164l-0.167-0.49
					c-0.231-0.664-0.456-1.334-0.636-2.012c-0.17-0.684-0.334-1.371-0.394-2.074c-0.014-0.174-0.03-0.355-0.014-0.533
					c0.011-0.09,0.02-0.182,0.067-0.266c0.02-0.049,0.06-0.098,0.117-0.111c0.063-0.014,0.115,0,0.158,0.02
					c0.311,0.182,0.62,0.32,0.955,0.434c1.316,0.465,2.786,0.414,4.106-0.049c1.321-0.465,2.517-1.293,3.406-2.377
					C80.846,19.082,81.372,17.727,81.554,16.34z M81.554,16.34c-0.171,1.387-0.693,2.75-1.598,3.834
					c-0.888,1.086-2.077,1.928-3.407,2.4c-1.322,0.473-2.807,0.547-4.153,0.078c-0.331-0.111-0.66-0.26-0.956-0.43
					c-0.159-0.092-0.216,0.129-0.225,0.285c-0.012,0.174,0,0.346,0.014,0.52c0.063,0.695,0.225,1.381,0.407,2.057
					c0.185,0.676,0.408,1.338,0.653,1.992c0.058,0.166,0.118,0.324,0.176,0.504c0.017,0.045,0.025,0.1,0.017,0.158
					c-0.011,0.064-0.048,0.117-0.095,0.148c-0.056,0.043-0.127,0.051-0.185,0.037c-0.054-0.012-0.097-0.037-0.138-0.061
					c-0.316-0.201-0.545-0.463-0.805-0.701c-1-0.971-2.132-1.813-3.337-2.514c-1.202-0.711-2.478-1.293-3.787-1.775
					c-0.656-0.238-1.319-0.455-1.99-0.643c-0.666-0.184-1.352-0.313-2.042-0.473c-0.678-0.172-1.354-0.242-2.04-0.223
					c-0.34,0.012-0.681,0.051-1.017,0.107c-0.169,0.027-0.338,0.07-0.503,0.104l-0.252,0.064c-0.046,0.01-0.087,0.02-0.141,0.035
					c-0.016,0-0.032,0-0.063,0c0.102,0.082-0.343-0.059-0.208-0.33c0.046-0.057,0.061-0.063,0.064-0.072l0.035-0.021
					c0.289-0.252,0.643-0.41,0.991-0.523c0.351-0.115,0.712-0.193,1.072-0.234c0.723-0.084,1.452-0.053,2.16,0.055
					c0.703,0.094,1.405,0.26,2.087,0.451c0.688,0.189,1.356,0.402,2.025,0.65c1.34,0.498,2.617,1.121,3.826,1.863
					c0.609,0.373,1.197,0.768,1.77,1.182c0.289,0.213,0.572,0.422,0.849,0.641l0.417,0.334l0.103,0.078l0.074,0.057
					c0.011,0.01,0.018,0.01-0.005,0c-0.012,0-0.069-0.041-0.202,0.035c-0.06,0.029-0.095,0.088-0.11,0.109
					c-0.009,0.035-0.009,0.047-0.011,0.057c0,0.021,0,0.016,0,0.016c-0.123-0.645-0.272-1.385-0.348-2.08
					c-0.041-0.35-0.082-0.699-0.112-1.061c-0.012-0.178-0.027-0.354-0.035-0.533l-0.014-0.26c0-0.082-0.012-0.174-0.012-0.174
					c-0.005,0.018,0.012,0.029-0.005,0.014c-0.017-0.018-0.042-0.043-0.069-0.07l-0.203-0.172l-0.404-0.357
					c-0.247-0.232-0.54-0.51-0.756-0.793l-0.163-0.201c-0.052-0.066-0.12-0.148-0.133-0.156c-0.013-0.014,0,0.008,0.024,0.008
					c0.027,0.006,0.033,0,0.014,0.006c-0.045,0.01-0.144,0.039-0.221,0.064c-0.17,0.043-0.353,0.1-0.541,0.131
					c-0.182,0.039-0.359,0.064-0.547,0.092c-0.719,0.09-1.449,0.098-2.176,0.02c-0.725-0.088-1.441-0.26-2.119-0.496
					c-0.683-0.248-1.354-0.57-1.963-0.982c-0.15-0.102-0.3-0.217-0.445-0.334l-0.204-0.166L60.387,18.5
					c-0.265-0.246-0.533-0.523-0.754-0.811c-0.047-0.066-0.1-0.115-0.094-0.111c0,0,0.033,0.018,0.059,0.016
					c0.027-0.004,0.026-0.004,0.033-0.008c-0.043,0.018-0.116,0.074-0.188,0.123l-0.222,0.152c-0.306,0.201-0.627,0.381-0.946,0.545
					c-0.644,0.336-1.355,0.578-2.076,0.707c-1.435,0.26-2.978,0.125-4.308-0.527c-0.658-0.314-1.271-0.736-1.805-1.242
					c-0.133-0.129-0.259-0.254-0.383-0.398c-0.068-0.074-0.123-0.133-0.181-0.201c-0.06-0.074-0.114-0.146-0.169-0.221
					c-0.115-0.143-0.212-0.289-0.321-0.449c-0.092-0.148-0.189-0.313-0.278-0.471c-0.361-0.635-0.624-1.307-0.795-2.021
					c-0.176-0.707-0.26-1.432-0.23-2.17c0.064-1.457,0.57-2.869,1.392-4.064c0.407-0.6,0.915-1.127,1.47-1.584
					c0.562-0.453,1.162-0.846,1.814-1.156c1.295-0.621,2.76-0.924,4.195-0.752c0.715,0.092,1.412,0.293,2.06,0.619
					c0.323,0.168,0.624,0.365,0.913,0.576c0.281,0.211,0.559,0.445,0.811,0.701c0.065,0.066,0.125,0.137,0.187,0.201l0.082,0.092
					c0.025,0.025,0.059,0.049,0.046,0.049h-0.023c0,0,0.014-0.01,0.023-0.021c0.023-0.016,0.059-0.043,0.092-0.07l0.199-0.172
					c0.274-0.232,0.559-0.447,0.852-0.641c0.595-0.391,1.234-0.715,1.9-0.953c1.337-0.484,2.813-0.629,4.199-0.346
					c1.387,0.275,2.717,0.896,3.756,1.861c0.52,0.48,0.939,1.057,1.297,1.668c0.178,0.307,0.336,0.615,0.486,0.932
					c0.073,0.162,0.141,0.33,0.213,0.48c0.043,0.078,0.088,0.092,0.172,0.061l0.247-0.086c0.675-0.23,1.388-0.318,2.093-0.24
					c0.353,0.041,0.697,0.119,1.031,0.221c0.339,0.094,0.668,0.221,0.982,0.383c1.256,0.648,2.259,1.75,2.82,3.039
					C81.602,13.496,81.733,14.951,81.554,16.34z"/>
				<path fill="#1F1600" d="M80.506,17.988c-0.662,1.961-2.307,3.527-4.241,4.23c-0.969,0.348-2.022,0.5-3.047,0.332
					c-1.025-0.191-1.972-0.676-2.8-1.297c-0.416-0.311-0.803-0.662-1.117-1.084c-0.037-0.059-0.078-0.121-0.089-0.195
					c-0.022-0.068-0.017-0.182,0.06-0.242c0.129-0.088,0.25-0.123,0.367-0.174c0.225-0.113,0.461-0.229,0.673-0.361
					c0.429-0.268,0.858-0.564,1.198-0.936c0.331-0.371,0.645-0.787,0.772-1.26c0.012-0.023,0.014-0.057,0.014-0.057
					s0-0.008,0.003,0.006c0,0,0.021,0.051,0.073,0.059c0.054,0.004,0.059-0.01,0.059-0.01c0.009-0.008,0.009-0.008,0.009-0.008
					c-0.014,0.021-0.053,0.098-0.076,0.152c-0.062,0.117-0.12,0.232-0.193,0.346c-0.145,0.23-0.299,0.441-0.483,0.633
					c-0.365,0.391-0.812,0.699-1.28,0.936c-0.931,0.49-1.974,0.738-3.009,0.873c-1.044,0.125-2.096,0.09-3.138-0.131
					c-0.52-0.105-1.02-0.254-1.516-0.449c-0.504-0.205-0.959-0.467-1.4-0.758c-0.213-0.145-0.44-0.307-0.64-0.471
					c-0.212-0.174-0.41-0.35-0.596-0.545c-0.357-0.387-0.708-0.779-0.999-1.238c-0.147-0.234-0.276-0.447-0.406-0.68
					c-0.125-0.219-0.267-0.523-0.333-0.732c0,0-0.005-0.012,0.001,0.004c0.008-0.004,0.028,0.045,0.094,0.076
					c0-0.008-0.036-0.012,0.049,0.012c0.062,0.008,0.104,0,0.147-0.02c0.081-0.039,0.108-0.092,0.118-0.121
					c0.025-0.051,0.006-0.115,0.018-0.053c0.008,0.039,0.008,0.027,0.014,0.051c0.01,0.027,0.018,0.045,0.022,0.074l0.038,0.094
					l0.066,0.162c0.1,0.225,0.215,0.434,0.336,0.668l0.181,0.359c0.067,0.133,0.132,0.305,0.124,0.512
					c-0.006,0.105-0.034,0.211-0.082,0.307c-0.01,0.031-0.024,0.053-0.036,0.074l-0.028,0.041l-0.016,0.02
					c-0.018,0.018-0.035,0.047-0.068,0.084c-0.115,0.139-0.233,0.236-0.356,0.314c-0.06,0.041-0.118,0.08-0.179,0.119
					c-0.052,0.029-0.103,0.064-0.164,0.1c-0.13,0.068-0.249,0.127-0.374,0.184c-0.247,0.121-0.491,0.213-0.753,0.303
					c-1.036,0.318-2.135,0.4-3.199,0.27c-0.534-0.068-1.072-0.172-1.584-0.373c-0.513-0.199-0.996-0.479-1.427-0.793
					c-0.877-0.656-1.577-1.512-2.093-2.455c-0.506-0.941-0.843-2.002-0.904-3.086c-0.067-1.092,0.156-2.193,0.61-3.172
					c0.45-0.986,1.125-1.848,1.903-2.576c0.402-0.359,0.804-0.691,1.27-0.98c0.461-0.285,0.959-0.51,1.468-0.678
					c2.041-0.682,4.422-0.352,6.122,0.998c0.212,0.168,0.404,0.342,0.594,0.529c0.096,0.096,0.188,0.193,0.277,0.289
					c0.044,0.043,0.09,0.102,0.118,0.125c0.027,0.023,0.033,0.02,0.011,0.02c-0.018,0.002,0.015-0.006,0.056-0.033
					c0.037-0.029,0.087-0.068,0.131-0.109c0.094-0.084,0.192-0.172,0.295-0.26c0.206-0.16,0.423-0.32,0.646-0.467
					c0.887-0.582,1.879-0.982,2.906-1.207c1.034-0.221,2.096-0.248,3.132-0.07c1.04,0.17,2.043,0.553,2.901,1.152
					c0.866,0.592,1.576,1.408,2.083,2.313c0.13,0.221,0.247,0.461,0.354,0.689c0.113,0.23,0.201,0.48,0.335,0.688
					c0.034,0.047,0.067,0.074,0.11,0.086c0.049,0.008,0.105,0,0.172-0.012l0.375-0.074C74.437,9.051,74.7,9.018,74.957,9
					c1.039-0.064,2.095,0.201,2.975,0.746c0.887,0.545,1.598,1.34,2.104,2.238c0.501,0.906,0.767,1.928,0.85,2.955
					C80.967,15.963,80.846,17.014,80.506,17.988z M80.506,17.988c0.335-0.975,0.455-2.025,0.37-3.049
					c-0.095-1.021-0.364-2.045-0.866-2.945c-0.504-0.895-1.228-1.67-2.107-2.197c-0.876-0.529-1.921-0.773-2.941-0.703
					c-0.249,0.023-0.502,0.063-0.756,0.115l-0.381,0.082c-0.057,0.016-0.129,0.029-0.211,0.016c-0.084-0.01-0.152-0.072-0.191-0.129
					c-0.15-0.236-0.238-0.471-0.359-0.699c-0.112-0.23-0.231-0.457-0.361-0.676c-0.514-0.879-1.225-1.646-2.073-2.205
					c-0.844-0.561-1.817-0.906-2.819-1.053c-0.997-0.148-2.03-0.098-3.012,0.137c-0.98,0.23-1.925,0.641-2.75,1.207
					c-0.211,0.143-0.4,0.291-0.592,0.457c-0.094,0.08-0.189,0.16-0.286,0.254c-0.048,0.043-0.1,0.096-0.163,0.137
					c-0.062,0.045-0.143,0.111-0.293,0.119c-0.154,0.012-0.274-0.066-0.339-0.123c-0.068-0.061-0.103-0.105-0.153-0.152
					c-0.087-0.088-0.176-0.182-0.268-0.264c-0.182-0.172-0.367-0.342-0.566-0.486c-0.785-0.594-1.735-0.971-2.711-1.098
					c-0.979-0.135-1.986-0.023-2.912,0.293c-0.471,0.158-0.916,0.367-1.326,0.633c-0.41,0.256-0.803,0.586-1.164,0.922
					c-0.721,0.684-1.318,1.494-1.726,2.387c-0.406,0.887-0.605,1.869-0.54,2.844c0.009,0.121,0.018,0.24,0.029,0.355
					c0.019,0.115,0.039,0.268,0.064,0.365c0.041,0.244,0.1,0.482,0.174,0.719c0.138,0.463,0.334,0.918,0.567,1.354
					c0.466,0.865,1.103,1.648,1.882,2.234c0.78,0.596,1.689,0.938,2.674,1.045c0.983,0.119,1.986,0.066,2.93-0.213
					c0.46-0.143,0.91-0.344,1.312-0.604c0.093-0.057,0.173-0.129,0.231-0.195c0.089-0.102,0.08-0.092,0.089-0.156
					c0.002-0.055-0.012-0.129-0.056-0.225l-0.172-0.334c-0.115-0.225-0.242-0.469-0.346-0.717c-0.024-0.061-0.05-0.127-0.075-0.193
					l-0.028-0.094c-0.012-0.033-0.022-0.072-0.038-0.107c-0.01-0.037-0.024-0.117-0.027-0.137c0,0-0.033-0.133,0.021-0.252
					c0.022-0.053,0.067-0.135,0.176-0.189c0.062-0.023,0.122-0.035,0.201-0.023c0.102,0.023,0.078,0.023,0.09,0.027
					c0.098,0.047,0.139,0.113,0.161,0.145c0.026,0.041,0.031,0.059,0.049,0.09c0.082,0.279,0.157,0.445,0.286,0.684
					c0.118,0.213,0.245,0.445,0.371,0.656s0.27,0.402,0.43,0.605c0.15,0.201,0.317,0.385,0.482,0.576
					c0.169,0.184,0.349,0.352,0.531,0.508c0.201,0.166,0.389,0.316,0.599,0.461c0.409,0.285,0.854,0.543,1.304,0.738
					c0.457,0.191,0.938,0.348,1.435,0.463c0.969,0.23,2.009,0.283,3.007,0.184c1.01-0.109,2.007-0.326,2.923-0.775
					c0.447-0.219,0.872-0.498,1.222-0.857c0.173-0.174,0.331-0.373,0.462-0.584c0.069-0.1,0.13-0.215,0.188-0.32
					c0.038-0.061,0.048-0.105,0.105-0.191c0.011-0.012,0.022-0.025,0.042-0.037c0.02-0.014,0.036-0.031,0.105-0.029
					c0.074,0.014,0.104,0.082,0.104,0.094c0.006,0.025,0.006,0.043,0.006,0.059c0,0.055-0.013,0.092-0.019,0.125
					c-0.357,1.047-1.219,1.754-2.11,2.268c-0.227,0.139-0.458,0.246-0.693,0.355c-0.118,0.049-0.248,0.096-0.338,0.146
					c-0.063,0.037-0.022,0.17,0.043,0.271c0.289,0.404,0.67,0.77,1.075,1.07c0.813,0.629,1.74,1.117,2.753,1.324
					c1.006,0.176,2.063,0.039,3.028-0.305C78.187,21.494,79.836,19.949,80.506,17.988z"/>
			</g>
		</g>
	</g>
	<g>
		<g>
			<path fill="#FFFFFF" d="M73.184,53.327c-0.201,0.073-0.607,0.195-1.093,0.195c-0.533,0-0.974-0.139-1.324-0.471
				c-0.302-0.289-0.492-0.771-0.492-1.322c0.008-1.052,0.729-1.832,1.92-1.832c0.417,0,0.731,0.092,0.886,0.168l-0.111,0.374
				c-0.188-0.085-0.427-0.151-0.781-0.151c-0.866,0-1.428,0.533-1.428,1.42c0,0.902,0.541,1.438,1.365,1.438
				c0.301,0,0.505-0.046,0.611-0.096v-1.063h-0.721v-0.362h1.168V53.327z"/>
			<path fill="#FFFFFF" d="M78.459,52.368l-0.368,1.115h-0.475l1.206-3.543h0.551l1.212,3.543h-0.488l-0.379-1.115H78.459z
				 M79.624,52.007l-0.348-1.018c-0.085-0.227-0.138-0.44-0.187-0.645h-0.011c-0.052,0.209-0.11,0.424-0.176,0.639l-0.349,1.023
				H79.624z"/>
			<path fill="#FFFFFF" d="M85.046,52.926c0.204,0.126,0.505,0.233,0.82,0.233c0.468,0,0.742-0.248,0.742-0.607
				c0-0.328-0.192-0.516-0.67-0.707c-0.581-0.203-0.935-0.5-0.935-1.004c0-0.551,0.457-0.962,1.143-0.962
				c0.365,0,0.627,0.087,0.786,0.168l-0.128,0.382c-0.113-0.066-0.353-0.169-0.672-0.169c-0.48,0-0.663,0.289-0.663,0.532
				c0,0.334,0.21,0.496,0.702,0.683c0.598,0.233,0.901,0.519,0.901,1.043c0,0.55-0.404,1.021-1.241,1.021
				c-0.346,0-0.711-0.1-0.906-0.227L85.046,52.926z"/>
			<path fill="#FFFFFF" d="M92.374,50.327h-1.081V49.94h2.631v0.387H92.84v3.156h-0.466V50.327z"/>
			<path fill="#FFFFFF" d="M98.32,49.985c0.232-0.045,0.561-0.07,0.879-0.07c0.486,0,0.805,0.084,1.025,0.287
				c0.176,0.158,0.275,0.4,0.275,0.675c0,0.468-0.293,0.774-0.666,0.905v0.014c0.275,0.096,0.438,0.345,0.523,0.715
				c0.113,0.496,0.2,0.839,0.271,0.973h-0.473c-0.059-0.1-0.139-0.404-0.24-0.844c-0.102-0.495-0.292-0.677-0.708-0.69h-0.433v1.534
				H98.32V49.985z M98.775,51.599h0.473c0.485,0,0.801-0.266,0.801-0.671c0-0.456-0.336-0.655-0.817-0.663
				c-0.226,0-0.381,0.023-0.456,0.041V51.599z"/>
			<path fill="#FFFFFF" d="M108.184,51.675c0,1.221-0.744,1.869-1.649,1.869c-0.938,0-1.596-0.725-1.596-1.804
				c0-1.125,0.7-1.861,1.651-1.861C107.553,49.879,108.184,50.62,108.184,51.675z M105.434,51.729c0,0.758,0.405,1.441,1.128,1.441
				c0.728,0,1.138-0.668,1.138-1.477c0-0.705-0.371-1.441-1.133-1.441C105.806,50.253,105.434,50.954,105.434,51.729z"/>
			<path fill="#FFFFFF" d="M112.777,53.483V49.94h0.5l1.143,1.789c0.262,0.415,0.461,0.792,0.632,1.154l0.013-0.004
				c-0.043-0.475-0.051-0.9-0.051-1.457V49.94h0.426v3.543h-0.463l-1.124-1.801c-0.249-0.393-0.486-0.795-0.659-1.183l-0.016,0.007
				c0.02,0.447,0.032,0.871,0.032,1.467v1.51H112.777z"/>
			<path fill="#FFFFFF" d="M123.273,51.675c0,1.221-0.744,1.869-1.648,1.869c-0.938,0-1.595-0.725-1.595-1.804
				c0-1.125,0.702-1.861,1.647-1.861C122.648,49.879,123.273,50.62,123.273,51.675z M120.521,51.729c0,0.758,0.41,1.441,1.135,1.441
				s1.135-0.668,1.135-1.477c0-0.705-0.369-1.441-1.132-1.441C120.903,50.253,120.521,50.954,120.521,51.729z"/>
			<path fill="#FFFFFF" d="M130.857,51.93c-0.021-0.498-0.062-1.097-0.048-1.536h-0.017c-0.125,0.42-0.275,0.859-0.452,1.347
				l-0.624,1.722h-0.347l-0.575-1.686c-0.17-0.5-0.31-0.961-0.412-1.383h-0.008c-0.011,0.439-0.04,1.038-0.07,1.569l-0.093,1.521
				h-0.436l0.251-3.543h0.58l0.604,1.711c0.146,0.44,0.269,0.828,0.36,1.198h0.015c0.088-0.362,0.216-0.751,0.374-1.198l0.631-1.711
				h0.585l0.219,3.543h-0.445L130.857,51.93z"/>
			<path fill="#FFFFFF" d="M137.1,49.13l-0.67,0.617h-0.378l0.488-0.617H137.1z M136.561,49.94v3.543h-0.46V49.94H136.561z"/>
			<path fill="#FFFFFF" d="M141.934,52.368l-0.365,1.115h-0.479l1.209-3.543h0.553l1.208,3.543h-0.493l-0.372-1.115H141.934z
				 M143.096,52.007l-0.345-1.018c-0.082-0.227-0.132-0.44-0.187-0.645h-0.013c-0.046,0.209-0.107,0.424-0.178,0.639l-0.346,1.023
				H143.096z"/>
		</g>
	</g>
	<g>
		<path fill="#1F1600" d="M22.947,45.556c0-0.334,0.172-0.504,0.506-0.594c2.371-0.59,2.542,3.896,2.879,4.063
			c3.475,2.881,10.838,4.238,16.423,4.238c11.177,0,26.075-6.352,26.075-19.051c0-5.585-3.136-9.901-8.977-10.413
			c-2.712,0-4.823,0.086-7.109,2.119c-1.099,0.934-1.352,3.557-1.692,5.673c2.37-3.728,4.318-6.517,4.318-6.517
			c0.253-0.512,0.506-0.598,0.761-0.598c0.596,0,0.931,1.018,0.931,1.441c0,0.68-0.335,1.268-0.335,1.268l-5.334,7.876
			c-7.7,11.004-7.959,15.068-7.959,15.572c0,0.68-0.423,0.848-0.679,0.848c-0.676,0-0.761-0.337-0.761-0.679
			c0-3.64,3.983-11.337,8.041-17.603c0-1.691,0.167-6.437,2.203-8.126c2.455-2.125,5.166-2.459,7.955-2.293
			c5.929,0.342,11.089,4.32,11.089,11.431c0,13.543-16.421,20.314-28.103,20.314c-3.471,0-6.941-0.512-10.157-1.432
			C30.057,52.586,22.947,49.62,22.947,45.556z"/>
	</g>
</g>
<g>
	<g>
		<g>
			<path fill-rule="evenodd" clip-rule="evenodd" fill="#BB0411" d="M636.802,24.135c1.792,1.611,2.927,3.91,2.927,6.617
				c0,2.896-1.449,5.027-3.546,6.365h58.508V24.135H636.802z"/>
			<g>
				<path fill-rule="evenodd" clip-rule="evenodd" fill="#BB0411" d="M630.724,17.998l-6.175,2.106l-0.325-0.402l4.48-4.483
					c0.723-0.723,2.172-0.542,2.689,0.336C631.864,16.342,631.68,17.67,630.724,17.998"/>
				<path fill-rule="evenodd" clip-rule="evenodd" fill="#BB0411" d="M627.171,21.656c5.181,0,9.576,3.76,9.576,9.096
					c0,5.271-4.787,8.021-9.576,8.021c-4.924,0-9.334-3.266-9.334-8.436C617.837,25.315,622.343,21.656,627.171,21.656
					 M627.171,23.461c2.862,0,4.914,3.195,4.914,6.877c0,3.688-2.052,6.881-4.914,6.881c-2.536,0-4.826-3.192-4.826-6.881
					C622.345,26.656,624.635,23.461,627.171,23.461"/>
			</g>
			<g>
				<path fill="#FFFFFF" d="M642.474,32.684h0.934v1.721h-0.934V32.684z"/>
				<path fill="#FFFFFF" d="M652.167,29.534h-1.036c-0.572-1.011-1.322-1.515-2.252-1.515c-0.846,0-1.53,0.291-2.055,0.876
					c-0.486,0.542-0.729,1.196-0.729,1.964c0,0.807,0.252,1.486,0.756,2.041c0.502,0.555,1.135,0.833,1.894,0.833
					c0.528,0,0.991-0.122,1.388-0.366c0.423-0.258,0.756-0.648,0.999-1.164h1.011c-0.298,0.773-0.75,1.369-1.356,1.792
					c-0.58,0.405-1.235,0.608-1.964,0.608c-0.572,0-1.125-0.131-1.658-0.392c-0.601-0.288-1.076-0.696-1.426-1.222
					c-0.402-0.597-0.602-1.296-0.602-2.098c0-0.577,0.134-1.141,0.402-1.69c0.299-0.609,0.704-1.092,1.216-1.446
					c0.585-0.404,1.261-0.608,2.029-0.608c0.687,0,1.271,0.142,1.753,0.424C651.175,27.945,651.719,28.602,652.167,29.534z"/>
				<path fill="#FFFFFF" d="M653.044,30.893c0-0.561,0.131-1.115,0.391-1.664c0.295-0.619,0.695-1.108,1.203-1.466
					c0.593-0.418,1.287-0.626,2.08-0.626c0.892,0,1.697,0.328,2.418,0.983c0.794,0.726,1.19,1.626,1.19,2.7
					c0,1.033-0.346,1.912-1.037,2.637c-0.725,0.764-1.646,1.146-2.764,1.146c-0.865,0-1.655-0.361-2.367-1.081
					C653.415,32.771,653.044,31.895,653.044,30.893z M654.004,30.859c0,0.904,0.277,1.619,0.832,2.145
					c0.503,0.478,1.127,0.715,1.869,0.715c0.729,0,1.342-0.23,1.836-0.695c0.559-0.525,0.839-1.246,0.839-2.164
					c0-0.795-0.233-1.456-0.698-1.989c-0.495-0.568-1.158-0.851-1.989-0.851c-0.688,0-1.283,0.217-1.786,0.652
					C654.306,29.192,654.004,29.922,654.004,30.859z"/>
				<path fill="#FFFFFF" d="M662.239,34.404h-0.863V27.36h0.863v0.786c0.597-0.61,1.331-0.914,2.201-0.914h0.211
					c0.516,0,0.974,0.113,1.369,0.346c0.358,0.209,0.655,0.502,0.89,0.881c0.261-0.359,0.599-0.656,1.017-0.881
					c0.478-0.26,0.984-0.391,1.518-0.391c0.768,0,1.393,0.237,1.875,0.716c0.559,0.554,0.838,1.37,0.838,2.451v4.05h-0.864v-3.969
					c0-0.775-0.169-1.361-0.505-1.756c-0.338-0.394-0.83-0.591-1.479-0.591c-0.678,0-1.173,0.177-1.484,0.524
					c-0.393,0.443-0.59,1.229-0.59,2.357v3.434h-0.863v-3.943c0-0.732-0.121-1.283-0.365-1.648
					c-0.318-0.482-0.867-0.724-1.644-0.724c-0.345,0-0.64,0.046-0.883,0.134c-0.367,0.139-0.653,0.376-0.857,0.717
					c-0.256,0.426-0.384,1.018-0.384,1.77v0.262V34.404z"/>
				<path fill="#FFFFFF" d="M674.255,32.684h0.934v1.721h-0.934V32.684z"/>
				<path fill="#FFFFFF" d="M683.95,29.534h-1.037c-0.572-1.011-1.322-1.515-2.252-1.515c-0.845,0-1.529,0.291-2.055,0.876
					c-0.486,0.542-0.729,1.196-0.729,1.964c0,0.807,0.252,1.486,0.754,2.041c0.504,0.555,1.136,0.833,1.895,0.833
					c0.528,0,0.992-0.122,1.389-0.366c0.422-0.258,0.756-0.648,0.998-1.164h1.012c-0.299,0.773-0.751,1.369-1.357,1.792
					c-0.58,0.405-1.235,0.608-1.964,0.608c-0.571,0-1.125-0.131-1.658-0.392c-0.601-0.288-1.076-0.696-1.426-1.222
					c-0.402-0.597-0.602-1.296-0.602-2.098c0-0.577,0.134-1.141,0.403-1.69c0.299-0.609,0.703-1.092,1.215-1.446
					c0.585-0.404,1.262-0.608,2.029-0.608c0.687,0,1.271,0.142,1.753,0.424C682.958,27.945,683.501,28.602,683.95,29.534z"/>
				<path fill="#FFFFFF" d="M684.826,30.893c0-0.561,0.13-1.115,0.39-1.664c0.295-0.619,0.695-1.108,1.203-1.466
					c0.594-0.418,1.287-0.626,2.08-0.626c0.892,0,1.698,0.328,2.418,0.983c0.794,0.726,1.19,1.626,1.19,2.7
					c0,1.033-0.346,1.912-1.036,2.637c-0.726,0.764-1.646,1.146-2.765,1.146c-0.866,0-1.655-0.361-2.367-1.081
					C685.198,32.771,684.826,31.895,684.826,30.893z M685.785,30.859c0,0.904,0.278,1.619,0.833,2.145
					c0.503,0.478,1.126,0.715,1.868,0.715c0.729,0,1.341-0.23,1.837-0.695c0.558-0.525,0.838-1.246,0.838-2.164
					c0-0.795-0.232-1.456-0.698-1.989c-0.494-0.568-1.158-0.851-1.989-0.851c-0.688,0-1.282,0.217-1.785,0.652
					C686.087,29.192,685.785,29.922,685.785,30.859z"/>
			</g>
		</g>
		<g>
			<path fill="#BB0411" d="M536.582,25.725h5.327v1.036h-4.167v3.201h3.817V31h-3.817v3.479h4.237v1.036h-5.397V25.725z"/>
			<path fill="#BB0411" d="M548.496,33.025c0-0.393-0.116-0.711-0.35-0.958c-0.232-0.247-0.524-0.466-0.874-0.655
				c-0.35-0.191-0.729-0.371-1.139-0.539c-0.411-0.17-0.791-0.371-1.141-0.608s-0.641-0.533-0.873-0.882
				c-0.234-0.35-0.351-0.795-0.351-1.336c0-0.764,0.266-1.369,0.797-1.818c0.531-0.447,1.287-0.671,2.267-0.671
				c0.568,0,1.085,0.042,1.552,0.126c0.466,0.085,0.829,0.191,1.091,0.322l-0.35,1.035c-0.215-0.107-0.529-0.209-0.944-0.305
				s-0.884-0.143-1.405-0.143c-0.616,0-1.078,0.136-1.385,0.412c-0.307,0.273-0.461,0.6-0.461,0.971
				c0,0.364,0.116,0.668,0.349,0.909c0.233,0.243,0.524,0.46,0.875,0.651c0.35,0.191,0.729,0.381,1.14,0.566
				c0.41,0.188,0.79,0.402,1.14,0.65c0.349,0.246,0.642,0.543,0.874,0.887c0.232,0.347,0.349,0.775,0.349,1.288
				c0,0.419-0.073,0.796-0.223,1.132c-0.149,0.334-0.368,0.624-0.658,0.867c-0.289,0.242-0.638,0.428-1.048,0.558
				c-0.41,0.132-0.877,0.197-1.399,0.197c-0.698,0-1.276-0.056-1.733-0.161c-0.457-0.107-0.812-0.227-1.063-0.355l0.393-1.035
				c0.214,0.117,0.532,0.234,0.951,0.348c0.419,0.111,0.89,0.168,1.411,0.168c0.309,0,0.597-0.027,0.867-0.09
				c0.271-0.061,0.504-0.158,0.7-0.293c0.195-0.135,0.352-0.307,0.468-0.51C548.438,33.548,548.496,33.305,548.496,33.025z"/>
			<path fill="#BB0411" d="M551.504,25.824c0.353-0.084,0.735-0.141,1.146-0.167c0.41-0.028,0.816-0.044,1.217-0.044
				c0.429,0,0.864,0.044,1.309,0.127c0.442,0.084,0.846,0.236,1.209,0.461s0.659,0.531,0.888,0.922
				c0.229,0.393,0.343,0.892,0.343,1.498c0,0.597-0.107,1.101-0.322,1.51c-0.215,0.411-0.498,0.744-0.853,0.999
				c-0.354,0.258-0.761,0.44-1.217,0.554c-0.457,0.111-0.928,0.167-1.413,0.167c-0.046,0-0.123,0-0.23,0
				c-0.106,0-0.22-0.001-0.336-0.006c-0.115-0.005-0.229-0.013-0.342-0.022c-0.112-0.008-0.191-0.017-0.238-0.027v3.721h-1.159
				V25.824z M553.895,26.621c-0.242,0-0.477,0.004-0.699,0.013c-0.224,0.011-0.401,0.032-0.532,0.07v4.056
				c0.047,0.02,0.122,0.029,0.225,0.035c0.102,0.004,0.209,0.01,0.32,0.014c0.112,0.005,0.22,0.006,0.322,0.006
				c0.104,0,0.177,0,0.224,0c0.317,0,0.632-0.027,0.944-0.09c0.313-0.061,0.594-0.17,0.846-0.329
				c0.252-0.157,0.454-0.382,0.608-0.671c0.154-0.287,0.231-0.658,0.231-1.104c0-0.383-0.073-0.701-0.217-0.959
				c-0.146-0.256-0.336-0.461-0.573-0.615s-0.506-0.264-0.805-0.328C554.491,26.654,554.192,26.621,553.895,26.621z"/>
			<path fill="#BB0411" d="M559.32,25.725h5.327v1.036h-4.167v3.201h3.817V31h-3.817v3.479h4.237v1.036h-5.397V25.725z"/>
			<path fill="#BB0411" d="M573.079,35.109c-0.279,0.215-0.634,0.363-1.063,0.446c-0.429,0.085-0.885,0.127-1.37,0.127
				c-0.588,0-1.138-0.101-1.65-0.302c-0.513-0.199-0.96-0.504-1.343-0.916c-0.382-0.408-0.686-0.934-0.908-1.572
				c-0.225-0.639-0.336-1.395-0.336-2.271c0-0.914,0.124-1.69,0.371-2.33c0.246-0.639,0.572-1.16,0.979-1.565
				c0.405-0.403,0.859-0.701,1.363-0.887c0.503-0.187,1.016-0.281,1.538-0.281c0.56,0,1.017,0.03,1.371,0.09
				c0.354,0.062,0.656,0.146,0.908,0.245l-0.279,1.037c-0.448-0.226-1.087-0.336-1.915-0.336c-0.383,0-0.761,0.07-1.133,0.209
				c-0.373,0.14-0.707,0.367-1,0.686c-0.294,0.316-0.53,0.731-0.707,1.244c-0.177,0.514-0.266,1.143-0.266,1.889
				c0,0.671,0.084,1.258,0.251,1.762c0.169,0.502,0.399,0.922,0.693,1.258c0.293,0.335,0.638,0.587,1.035,0.754
				c0.396,0.17,0.826,0.252,1.293,0.252c0.419,0,0.785-0.041,1.098-0.125c0.313-0.083,0.575-0.191,0.79-0.32L573.079,35.109z"/>
			<path fill="#BB0411" d="M575.065,25.725h1.161v9.791h-1.161V25.725z"/>
			<path fill="#BB0411" d="M583.517,32.802h-3.59l-0.974,2.714h-1.161l3.706-9.943h0.531l3.72,9.943h-1.23L583.517,32.802z
				 M580.303,31.795h2.866l-1.085-2.979l-0.349-1.479h-0.014l-0.348,1.509L580.303,31.795z"/>
			<path fill="#BB0411" d="M592.839,35.516h-5.789v-9.791h1.16v8.755h4.629V35.516z"/>
			<path fill="#BB0411" d="M594.28,25.725h5.327v1.036h-4.167v3.201h3.817V31h-3.817v3.479h4.237v1.036h-5.397V25.725z"/>
			<path fill="#BB0411" d="M606.192,33.025c0-0.393-0.115-0.711-0.349-0.958c-0.232-0.247-0.523-0.466-0.874-0.655
				c-0.349-0.191-0.729-0.371-1.14-0.539c-0.411-0.17-0.789-0.371-1.14-0.608c-0.35-0.237-0.641-0.533-0.873-0.882
				c-0.234-0.35-0.351-0.795-0.351-1.336c0-0.764,0.265-1.369,0.797-1.818c0.532-0.447,1.287-0.671,2.266-0.671
				c0.569,0,1.086,0.042,1.553,0.126c0.466,0.085,0.83,0.191,1.091,0.322l-0.35,1.035c-0.215-0.107-0.529-0.209-0.944-0.305
				s-0.884-0.143-1.405-0.143c-0.615,0-1.077,0.136-1.385,0.412c-0.307,0.273-0.461,0.6-0.461,0.971c0,0.364,0.116,0.668,0.35,0.909
				c0.232,0.243,0.524,0.46,0.874,0.651c0.351,0.191,0.729,0.381,1.14,0.566c0.41,0.188,0.79,0.402,1.14,0.65
				c0.349,0.246,0.642,0.543,0.874,0.887c0.232,0.347,0.35,0.775,0.35,1.288c0,0.419-0.075,0.796-0.224,1.132
				c-0.149,0.334-0.368,0.624-0.658,0.867c-0.289,0.242-0.638,0.428-1.048,0.558c-0.41,0.132-0.877,0.197-1.398,0.197
				c-0.699,0-1.277-0.056-1.734-0.161c-0.457-0.107-0.812-0.227-1.063-0.355l0.392-1.035c0.214,0.117,0.532,0.234,0.951,0.348
				c0.419,0.111,0.89,0.168,1.411,0.168c0.309,0,0.597-0.027,0.867-0.09c0.271-0.061,0.504-0.158,0.7-0.293s0.352-0.307,0.468-0.51
				C606.136,33.548,606.192,33.305,606.192,33.025z"/>
		</g>
		<line fill="#BB0411" stroke="#BB0411" stroke-miterlimit="10" x1="613.5" y1="21.5" x2="613.5" y2="39.5"/>
	</g>
</g>
<g>
	<defs>
		<rect id="SVGID_1_" x="377.901" y="5.965" width="48.667" height="46.344"/>
	</defs>
	<clipPath id="SVGID_2_">
		<use xlink:href="#SVGID_1_"  overflow="visible"/>
	</clipPath>
	<g clip-path="url(#SVGID_2_)">
		<defs>
			<rect id="SVGID_3_" x="377.901" y="5.965" width="48.667" height="46.344"/>
		</defs>
		<clipPath id="SVGID_4_">
			<use xlink:href="#SVGID_3_"  overflow="visible"/>
		</clipPath>
		<path clip-path="url(#SVGID_4_)" fill="#B82224" d="M396.54,51.006c16.263,0,29.441-13.183,29.441-29.447
			c0-16.26-13.179-29.444-29.441-29.444c-16.261,0-29.447,13.185-29.447,29.444C367.093,37.823,380.279,51.006,396.54,51.006"/>
	</g>
	<rect x="383.917" y="11.725" clip-path="url(#SVGID_2_)" fill="#1F1600" width="2.323" height="7.561"/>
	<g clip-path="url(#SVGID_2_)">
		<defs>
			<rect id="SVGID_5_" x="377.901" y="5.965" width="48.667" height="46.344"/>
		</defs>
		<clipPath id="SVGID_6_">
			<use xlink:href="#SVGID_5_"  overflow="visible"/>
		</clipPath>
		<path clip-path="url(#SVGID_6_)" fill="#1F1600" d="M388.614,19.285c-1.061,0.025-1.841-0.742-1.856-1.548
			c-0.021-0.964,0.955-1.429,1.655-1.489c0.663-0.055,1.08,0.08,1.188,0.12c0.457,0.183,0.732,0.405,0.732,0.339
			c0-0.201,0.03-0.761-0.004-1.107c-0.012-0.108-0.021-0.156-0.021-0.162c-0.022-0.813-1.106-1.616-1.829-1.063
			c-0.06,0.043-0.123,0.148-0.056,0.201c0.534,0.4,0.369,1.021,0.156,1.229c-0.301,0.291-1.035,0.314-1.308-0.082
			c-0.525-0.752,0.374-1.506,0.672-1.67c0.314-0.178,1.162-0.463,2.582-0.25c1.625,0.246,1.723,1.57,1.723,1.57v3.873h-2.002
			c0,0,0.015-0.55,0.012-0.628C390.259,18.607,389.909,19.262,388.614,19.285 M388.738,16.969c-0.65,0-1.18,0.42-1.18,0.943
			c0,0.521,0.529,0.945,1.18,0.945c0.649,0,1.176-0.424,1.176-0.945C389.914,17.389,389.388,16.969,388.738,16.969"/>
		<g opacity="0.7" clip-path="url(#SVGID_6_)">
			<g>
				<defs>
					<rect id="SVGID_7_" x="396.11" y="10.881" width="15.548" height="12.781"/>
				</defs>
				<clipPath id="SVGID_8_">
					<use xlink:href="#SVGID_7_"  overflow="visible"/>
				</clipPath>
			</g>
		</g>
		<path clip-path="url(#SVGID_6_)" fill="#FFFFFF" d="M396.499,19.366l0.571,0.851l9.603-3.312c0,0,2.227-1.541,0.852-3.771
			c-1.369-2.229-3.713-1.256-3.713-1.086S396.499,19.366,396.499,19.366"/>
		<g opacity="0.7" clip-path="url(#SVGID_6_)">
			<g>
				<defs>
					<rect id="SVGID_9_" x="385.676" y="20.682" width="32.801" height="30.24"/>
				</defs>
				<clipPath id="SVGID_10_">
					<use xlink:href="#SVGID_9_"  overflow="visible"/>
				</clipPath>
			</g>
		</g>
		<path clip-path="url(#SVGID_6_)" fill="#FFFFFF" d="M407.587,34.586c0,5.78-3.296,10.473-7.355,10.473
			c-4.064,0-7.357-4.692-7.357-10.473c0-5.783,3.293-10.47,7.357-10.47C404.291,24.116,407.587,28.803,407.587,34.586
			 M414.932,34.506c0-7.263-6.455-13.148-14.417-13.148c-7.958,0-14.412,5.886-14.412,13.148c0,7.262,6.454,13.15,14.412,13.15
			C408.477,47.656,414.932,41.768,414.932,34.506"/>
	</g>
</g>
<g>
	<g>
		<polygon fill="#F7931E" points="257.38,14.569 232.006,14.569 244.694,31.477 		"/>
		<polygon fill="#F7931E" points="252.321,30.604 244.694,40.796 237.065,30.604 237.065,40.884 252.321,40.884 		"/>
		<g>
			<path fill="#FF7BAC" d="M269.334,27.485c1.099,0,2.039-0.386,2.82-1.166c0.778-0.781,1.169-1.716,1.169-2.817
				c0-1.085-0.391-2.022-1.169-2.803c-0.781-0.777-1.722-1.188-2.82-1.188h-9.294v-4.941h-2.401v25.853h2.401v-7.618v-5.318H269.334
				z"/>
			<path fill="#FF7BAC" d="M271.905,14.569c1.487,0.41,2.826,1.209,4.005,2.374c1.822,1.822,2.735,4.022,2.735,6.559
				c0,2.569-0.913,4.747-2.735,6.573c-1.827,1.807-4.015,2.729-6.576,2.729h-3.967v7.618h14.821V14.569H271.905z"/>
		</g>
		<path fill="#58A99D" d="M213.435,30.146V24.85v-10.28h-2.516v10.28v5.296c0,2.939-1.036,5.44-3.118,7.517
			c-1.401,1.398-2.995,2.3-4.776,2.76h10.41V30.146z"/>
		<path fill="#97C4B2" d="M199.296,40.422v-5.05c0.353,0.054,0.688,0.088,1.001,0.088c1.442,0,2.7-0.533,3.747-1.561
			c1.047-1.043,1.568-2.281,1.568-3.754V29.6v-4.75v-10.28h-8.702v4.941h-10.604v5.339h7.956v5.296h-7.956v5.314h10.604v4.962
			H199.296z"/>
		<polygon fill="#BBCE02" points="231.741,40.422 231.741,14.569 229.368,14.569 229.368,19.511 218.752,19.511 218.752,24.85 
			226.71,24.85 226.71,30.146 218.752,30.146 218.752,35.46 229.368,35.46 229.368,40.422 		"/>
		<polygon fill="#662D91" points="298.724,40.422 309.941,15.455 310.339,14.569 285.965,14.569 285.965,35.46 296.571,35.46 
			296.571,40.422 		"/>
		<path fill="#B92025" d="M336.104,32.186l3.9,5.581V29.33C338.94,30.643,337.655,31.598,336.104,32.186z"/>
		<path fill="#B92025" d="M339.365,16.943c0.222,0.229,0.436,0.458,0.639,0.711v-3.085h-4.642
			C336.852,14.979,338.188,15.778,339.365,16.943z"/>
		<polygon fill="#B92025" points="328.823,31.05 328.823,40.422 335.368,40.422 		"/>
		<path fill="#B92025" d="M328.823,27.485h3.968c1.099,0,2.038-0.386,2.819-1.166c0.778-0.781,1.169-1.716,1.169-2.817
			c0-1.085-0.391-2.022-1.169-2.803c-0.781-0.777-1.721-1.188-2.819-1.188h-3.968v3.991V27.485z"/>
		<polygon fill="#39B54A" points="323.497,32.804 323.497,23.502 323.497,14.569 310.657,14.569 311.073,15.471 322.3,40.422 
			323.497,40.422 		"/>
		<polygon fill="#FBB03B" points="310.518,26.833 304.394,40.422 316.622,40.422 		"/>
	</g>
	<g>
		<g>
			<path fill="#5A5855" d="M191.63,9.521l-0.397,0.305c-0.22-0.285-0.482-0.502-0.79-0.649s-0.646-0.221-1.013-0.221
				c-0.402,0-0.775,0.097-1.118,0.289c-0.343,0.193-0.608,0.453-0.797,0.778c-0.188,0.326-0.282,0.692-0.282,1.099
				c0,0.615,0.211,1.128,0.632,1.539c0.422,0.411,0.954,0.617,1.596,0.617c0.706,0,1.297-0.276,1.772-0.829l0.397,0.301
				c-0.251,0.32-0.565,0.567-0.94,0.742c-0.376,0.175-0.796,0.263-1.26,0.263c-0.883,0-1.578-0.294-2.088-0.881
				c-0.428-0.496-0.641-1.095-0.641-1.796c0-0.738,0.259-1.359,0.776-1.863s1.166-0.756,1.945-0.756
				c0.471,0,0.896,0.093,1.274,0.279C191.077,8.924,191.388,9.185,191.63,9.521z"/>
			<path fill="#5A5855" d="M192.641,8.585h0.504v4.556h1.94v0.486h-2.444V8.585z"/>
			<path fill="#5A5855" d="M195.901,8.585h0.504v3.044c0,0.36,0.007,0.586,0.021,0.675c0.025,0.199,0.083,0.365,0.175,0.499
				c0.091,0.134,0.231,0.245,0.422,0.336c0.189,0.09,0.38,0.135,0.572,0.135c0.167,0,0.326-0.035,0.479-0.105
				c0.153-0.071,0.281-0.169,0.384-0.295c0.104-0.126,0.179-0.278,0.227-0.456c0.034-0.128,0.052-0.391,0.052-0.788V8.585h0.504
				v3.044c0,0.45-0.044,0.813-0.132,1.092c-0.089,0.277-0.265,0.519-0.528,0.725s-0.583,0.309-0.958,0.309
				c-0.407,0-0.756-0.098-1.046-0.291c-0.29-0.194-0.484-0.452-0.582-0.771c-0.063-0.196-0.093-0.551-0.093-1.063V8.585z"/>
			<path fill="#5A5855" d="M200.494,8.585h0.994c0.4,0,0.707,0.047,0.922,0.142s0.385,0.241,0.51,0.438
				c0.124,0.196,0.187,0.415,0.187,0.654c0,0.225-0.055,0.429-0.164,0.612c-0.108,0.184-0.27,0.333-0.48,0.447
				c0.262,0.089,0.464,0.193,0.604,0.313c0.142,0.12,0.251,0.266,0.33,0.436c0.078,0.17,0.118,0.354,0.118,0.554
				c0,0.404-0.148,0.746-0.444,1.026s-0.692,0.42-1.191,0.42h-1.385V8.585z M200.988,9.078v1.614h0.288
				c0.351,0,0.608-0.032,0.773-0.098c0.165-0.064,0.295-0.168,0.392-0.309c0.096-0.14,0.144-0.296,0.144-0.468
				c0-0.23-0.08-0.411-0.242-0.543c-0.161-0.132-0.418-0.197-0.771-0.197H200.988z M200.988,11.2v1.934h0.625
				c0.368,0,0.639-0.036,0.811-0.108c0.171-0.072,0.31-0.185,0.413-0.338c0.104-0.153,0.156-0.318,0.156-0.497
				c0-0.224-0.073-0.419-0.22-0.586s-0.348-0.281-0.604-0.343c-0.172-0.041-0.471-0.062-0.896-0.062H200.988z"/>
			<path fill="#5A5855" d="M206.455,13.627V8.585h1.046c0.754,0,1.301,0.061,1.642,0.182c0.489,0.171,0.871,0.468,1.146,0.891
				s0.413,0.927,0.413,1.512c0,0.505-0.109,0.95-0.327,1.334s-0.502,0.667-0.85,0.85c-0.349,0.183-0.837,0.274-1.466,0.274H206.455z
				 M206.938,13.15h0.583c0.697,0,1.181-0.043,1.45-0.13c0.379-0.123,0.677-0.346,0.895-0.666c0.217-0.321,0.325-0.713,0.325-1.177
				c0-0.486-0.117-0.902-0.353-1.247s-0.563-0.581-0.984-0.709c-0.315-0.096-0.835-0.144-1.56-0.144h-0.356V13.15z"/>
			<path fill="#5A5855" d="M211.683,8.585h2.89v0.493h-2.386v1.58h2.365v0.494h-2.365v1.981h2.365v0.493h-2.869V8.585z"/>
			<path fill="#5A5855" d="M217.383,8.585h1.004c0.576,0,0.965,0.024,1.166,0.075c0.288,0.07,0.522,0.217,0.706,0.437
				c0.183,0.221,0.274,0.498,0.274,0.832c0,0.336-0.09,0.612-0.268,0.831c-0.179,0.218-0.424,0.365-0.737,0.44
				c-0.229,0.055-0.656,0.082-1.282,0.082h-0.359v2.345h-0.504V8.585z M217.887,9.078v1.711l0.854,0.01
				c0.345,0,0.598-0.031,0.757-0.094c0.16-0.063,0.286-0.164,0.378-0.305c0.091-0.14,0.137-0.297,0.137-0.471
				c0-0.168-0.046-0.323-0.137-0.463c-0.092-0.141-0.212-0.24-0.362-0.3c-0.149-0.059-0.395-0.089-0.735-0.089H217.887z"/>
			<path fill="#5A5855" d="M221.568,8.585h1.005c0.56,0,0.939,0.022,1.138,0.068c0.3,0.068,0.543,0.216,0.73,0.441
				c0.188,0.225,0.281,0.502,0.281,0.832c0,0.274-0.065,0.516-0.194,0.724c-0.129,0.209-0.313,0.366-0.554,0.473
				c-0.239,0.106-0.571,0.16-0.993,0.163l1.813,2.341h-0.623l-1.813-2.341h-0.285v2.341h-0.504V8.585z M222.072,9.078v1.714
				l0.869,0.007c0.336,0,0.585-0.031,0.746-0.096c0.162-0.064,0.288-0.166,0.378-0.307c0.091-0.141,0.136-0.298,0.136-0.472
				c0-0.169-0.046-0.322-0.138-0.461c-0.091-0.139-0.211-0.237-0.36-0.297c-0.148-0.059-0.396-0.089-0.741-0.089H222.072z"/>
			<path fill="#5A5855" d="M225.73,8.585h0.504v5.042h-0.504V8.585z"/>
			<path fill="#5A5855" d="M227.005,8.585h0.549l1.671,3.896l1.698-3.896h0.549l-2.194,5.042h-0.109L227.005,8.585z"/>
			<path fill="#5A5855" d="M232.246,8.585h0.504v5.042h-0.504V8.585z"/>
			<path fill="#5A5855" d="M233.904,8.585h0.504v4.556h1.94v0.486h-2.444V8.585z"/>
			<path fill="#5A5855" d="M237.151,8.585h2.89v0.493h-2.386v1.58h2.365v0.494h-2.365v1.981h2.365v0.493h-2.869V8.585z"/>
			<path fill="#5A5855" d="M245.775,9.432l-0.391,0.37c-0.281-0.276-0.589-0.486-0.924-0.629c-0.335-0.144-0.661-0.215-0.979-0.215
				c-0.396,0-0.772,0.098-1.13,0.292s-0.635,0.457-0.831,0.79c-0.196,0.332-0.295,0.684-0.295,1.054c0,0.38,0.102,0.74,0.306,1.081
				c0.203,0.342,0.484,0.61,0.843,0.806s0.752,0.293,1.18,0.293c0.519,0,0.957-0.146,1.315-0.438
				c0.359-0.292,0.571-0.672,0.638-1.138H243.9V11.21h2.173c-0.004,0.779-0.235,1.398-0.693,1.856
				c-0.459,0.458-1.071,0.688-1.839,0.688c-0.933,0-1.671-0.317-2.215-0.953c-0.418-0.489-0.627-1.055-0.627-1.696
				c0-0.478,0.12-0.923,0.359-1.334c0.24-0.411,0.569-0.732,0.987-0.965c0.418-0.231,0.892-0.348,1.419-0.348
				c0.428,0,0.83,0.077,1.207,0.231S245.417,9.091,245.775,9.432z"/>
			<path fill="#5A5855" d="M246.962,8.585h0.504v5.042h-0.504V8.585z"/>
			<path fill="#5A5855" d="M251.021,8.458c0.764,0,1.403,0.255,1.917,0.765c0.515,0.509,0.772,1.137,0.772,1.882
				c0,0.737-0.257,1.364-0.771,1.878c-0.514,0.515-1.139,0.771-1.878,0.771c-0.747,0-1.379-0.256-1.894-0.768
				c-0.514-0.513-0.771-1.132-0.771-1.858c0-0.484,0.117-0.934,0.352-1.347c0.234-0.414,0.554-0.737,0.959-0.972
				C250.112,8.575,250.551,8.458,251.021,8.458z M251.044,8.948c-0.373,0-0.727,0.097-1.061,0.291
				c-0.335,0.194-0.596,0.457-0.783,0.786s-0.281,0.696-0.281,1.101c0,0.6,0.207,1.105,0.623,1.519
				c0.415,0.413,0.916,0.619,1.502,0.619c0.392,0,0.754-0.095,1.087-0.285c0.333-0.189,0.593-0.449,0.779-0.778
				s0.279-0.695,0.279-1.098c0-0.4-0.093-0.763-0.279-1.086s-0.449-0.583-0.788-0.777S251.424,8.948,251.044,8.948z"/>
			<path fill="#5A5855" d="M254.201,12.688l0.429-0.257c0.301,0.556,0.649,0.833,1.045,0.833c0.169,0,0.328-0.039,0.477-0.118
				s0.262-0.185,0.339-0.317c0.078-0.133,0.117-0.272,0.117-0.422c0-0.169-0.058-0.334-0.172-0.497
				c-0.157-0.224-0.445-0.493-0.863-0.809c-0.421-0.317-0.683-0.547-0.785-0.688c-0.179-0.238-0.268-0.495-0.268-0.771
				c0-0.22,0.053-0.42,0.158-0.6c0.104-0.181,0.253-0.323,0.443-0.427c0.191-0.104,0.398-0.156,0.622-0.156
				c0.238,0,0.46,0.059,0.667,0.177c0.207,0.117,0.426,0.334,0.656,0.649l-0.411,0.312c-0.189-0.251-0.352-0.417-0.485-0.497
				s-0.279-0.12-0.437-0.12c-0.204,0-0.37,0.063-0.499,0.186s-0.193,0.275-0.193,0.456c0,0.109,0.022,0.216,0.068,0.318
				s0.129,0.215,0.25,0.336c0.066,0.064,0.283,0.232,0.651,0.504c0.437,0.322,0.736,0.609,0.898,0.86
				c0.162,0.252,0.243,0.504,0.243,0.758c0,0.365-0.139,0.684-0.417,0.953c-0.277,0.27-0.615,0.404-1.013,0.404
				c-0.306,0-0.584-0.082-0.833-0.245S254.411,13.071,254.201,12.688z"/>
		</g>
	</g>
	<g>
		<polygon fill="#B92025" points="307.875,41.752 307.875,41.752 186.287,41.752 186.287,42.444 306.938,42.444 306.938,49.815 
			340.599,49.815 340.599,41.752 		"/>
		<g>
			<path fill-rule="evenodd" clip-rule="evenodd" fill="#FFFFFF" d="M316.532,43.684c0.923,0,1.712,0.654,1.712,1.614
				c0,0.903-0.87,1.434-1.712,1.434c-0.875,0-1.717-0.566-1.717-1.503C314.815,44.284,315.665,43.684,316.532,43.684
				 M316.532,44.003c0.443,0,0.851,0.567,0.851,1.226c0,0.649-0.407,1.221-0.851,1.221c-0.459,0-0.841-0.571-0.841-1.221
				C315.691,44.57,316.073,44.003,316.532,44.003"/>
			<path fill-rule="evenodd" clip-rule="evenodd" fill="#FFFFFF" d="M326.066,46.504h-1.258v-2.87h1.258v0.704
				c0.397-0.458,2.747-0.829,2.747,0.146v0.105v1.915h-1.338V45.03c0-0.248-0.009-0.441-0.221-0.584
				c-0.437-0.281-1.242-0.193-1.188,0.441V46.504z"/>
			<path fill-rule="evenodd" clip-rule="evenodd" fill="#FFFFFF" d="M336.247,46.504h-1.258v-2.87h1.258v0.704
				c0.486-0.478,2.792-0.867,2.792,0.251v1.915h-1.409V45.03c0-0.213-0.026-0.46-0.212-0.604c-0.372-0.261-1.215-0.153-1.171,0.462
				V46.504z"/>
			<path fill-rule="evenodd" clip-rule="evenodd" fill="#FFFFFF" d="M330.025,42.567c0.391-0.123,0.765-0.072,0.808,0.139
				c0.056,0.217-0.214,0.482-0.593,0.604c-0.39,0.11-0.764,0.071-0.817-0.158C329.364,42.938,329.646,42.688,330.025,42.567
				 M330.798,46.504h-1.284v-2.87h1.284V46.504z"/>
			<path fill-rule="evenodd" clip-rule="evenodd" fill="#FFFFFF" d="M323.523,42.567c0.407-0.123,0.762-0.072,0.825,0.139
				c0.069,0.217-0.212,0.482-0.603,0.604c-0.397,0.11-0.756,0.071-0.798-0.158C322.878,42.938,323.143,42.688,323.523,42.567
				 M324.313,46.504h-1.276v-2.87h1.276V46.504z"/>
			<path fill-rule="evenodd" clip-rule="evenodd" fill="#FFFFFF" d="M319.919,44.483v1.682c0.159,0.138,0.354,0.322,0.593,0.322
				c0.522,0,0.921-0.588,0.921-1.189c0-0.516-0.229-0.92-0.574-1.084C320.502,44.061,320.154,44.179,319.919,44.483 M318.598,49.143
				v-5.509h1.321v0.492c0.407-0.389,1.337-0.457,1.843-0.283c0.681,0.193,1.054,0.975,0.983,1.525
				c-0.098,1.451-1.855,1.701-2.826,0.991v2.783H318.598z"/>
			<path fill-rule="evenodd" clip-rule="evenodd" fill="#FFFFFF" d="M310.703,44.126c0.256,0.212,0.069,0.729-0.282,0.729
				c-0.258,0-0.463-0.158-0.463-0.371c0-1.013,1.473-0.943,2.09-0.761c0.595,0.211,0.729,0.509,0.729,1.073v1.796h-1.144v-0.232
				c-0.56,0.386-1.869,0.302-1.869-0.585c0-0.939,1.241-0.979,1.869-0.723c0-0.322-0.052-1.172-0.469-1.172
				C310.881,43.88,310.616,43.88,310.703,44.126 M310.81,45.275c0.399,0,0.646,0.214,0.646,0.535c0,0.296-0.246,0.565-0.646,0.565
				c-0.389,0-0.646-0.27-0.646-0.565C310.163,45.489,310.421,45.275,310.81,45.275"/>
			<rect x="308.31" y="42.444" fill-rule="evenodd" clip-rule="evenodd" fill="#FFFFFF" width="1.249" height="4.147"/>
			<path fill-rule="evenodd" clip-rule="evenodd" fill="#FFFFFF" d="M333.465,43.026l-1.116,0.372l-0.062-0.072l0.813-0.811
				c0.127-0.123,0.391-0.089,0.487,0.067C333.669,42.726,333.644,42.954,333.465,43.026"/>
			<path fill-rule="evenodd" clip-rule="evenodd" fill="#FFFFFF" d="M332.819,43.684c0.938,0,1.735,0.694,1.735,1.649
				c0,0.957-0.868,1.455-1.735,1.455c-0.887,0-1.695-0.587-1.695-1.524C331.124,44.358,331.95,43.684,332.819,43.684 M332.819,44.02
				c0.52,0,0.895,0.569,0.895,1.244c0,0.674-0.375,1.24-0.895,1.24c-0.463,0-0.869-0.566-0.869-1.24
				C331.95,44.589,332.356,44.02,332.819,44.02"/>
		</g>
	</g>
</g>
<g>
	<g>
		<g>
			<path fill="#B92025" d="M713.56,31.775c-0.24,0.17-0.547,0.295-0.921,0.369c-0.372,0.074-0.755,0.111-1.147,0.111
				c-0.473,0-0.924-0.072-1.351-0.219c-0.425-0.148-0.8-0.387-1.124-0.714s-0.582-0.753-0.773-1.276
				c-0.192-0.523-0.288-1.158-0.288-1.904c0-0.776,0.106-1.426,0.322-1.949c0.214-0.523,0.493-0.945,0.836-1.267
				c0.343-0.319,0.725-0.55,1.146-0.688c0.423-0.14,0.846-0.209,1.267-0.209c0.452,0,0.834,0.029,1.147,0.09s0.57,0.132,0.773,0.215
				l-0.304,1.311c-0.174-0.082-0.379-0.143-0.617-0.182c-0.237-0.037-0.525-0.056-0.864-0.056c-0.625,0-1.128,0.224-1.508,0.669
				c-0.381,0.445-0.571,1.136-0.571,2.072c0,0.407,0.045,0.779,0.134,1.115c0.092,0.336,0.229,0.623,0.414,0.861
				c0.184,0.236,0.415,0.422,0.689,0.555c0.275,0.131,0.594,0.197,0.955,0.197c0.34,0,0.625-0.033,0.859-0.102
				c0.234-0.067,0.438-0.154,0.609-0.26L713.56,31.775z"/>
			<path fill="#B92025" d="M719.528,32.098h-5.006v-7.91h1.548v6.531h3.458V32.098z"/>
			<path fill="#B92025" d="M722.851,30.346h-2.43l-0.599,1.752h-1.548l2.849-7.967h1.141l2.848,7.967h-1.628L722.851,30.346z
				 M720.817,29.104h1.695l-0.589-1.764l-0.236-1.242h-0.057l-0.237,1.253L720.817,29.104z"/>
			<path fill="#B92025" d="M729.204,29.973c0-0.24-0.09-0.436-0.267-0.586c-0.177-0.152-0.399-0.289-0.667-0.414
				c-0.268-0.123-0.558-0.252-0.869-0.385c-0.313-0.131-0.604-0.293-0.871-0.484c-0.268-0.192-0.49-0.432-0.667-0.719
				c-0.178-0.285-0.266-0.65-0.266-1.096c0-0.385,0.063-0.718,0.192-1c0.128-0.283,0.311-0.519,0.548-0.707
				c0.237-0.188,0.519-0.327,0.842-0.418c0.324-0.09,0.687-0.135,1.086-0.135c0.459,0,0.892,0.039,1.299,0.119
				c0.407,0.078,0.742,0.193,1.007,0.344l-0.487,1.299c-0.165-0.105-0.414-0.201-0.746-0.287c-0.331-0.087-0.689-0.13-1.072-0.13
				c-0.362,0-0.64,0.071-0.832,0.214c-0.192,0.145-0.287,0.336-0.287,0.576c0,0.227,0.088,0.416,0.265,0.565
				c0.179,0.15,0.4,0.29,0.667,0.419c0.268,0.127,0.558,0.26,0.871,0.395c0.312,0.137,0.601,0.299,0.869,0.492
				c0.268,0.193,0.49,0.43,0.668,0.712c0.176,0.282,0.266,0.636,0.266,1.058c0,0.421-0.071,0.785-0.211,1.09
				c-0.138,0.305-0.334,0.56-0.587,0.763c-0.253,0.202-0.557,0.354-0.914,0.452c-0.359,0.098-0.753,0.146-1.182,0.146
				c-0.565,0-1.063-0.053-1.492-0.158c-0.43-0.105-0.746-0.211-0.949-0.315l0.498-1.323c0.082,0.047,0.188,0.095,0.321,0.148
				c0.131,0.053,0.281,0.101,0.445,0.146c0.167,0.045,0.341,0.082,0.526,0.111c0.186,0.031,0.375,0.046,0.57,0.046
				c0.46,0,0.812-0.077,1.058-0.231C729.08,30.525,729.204,30.29,729.204,29.973z"/>
			<path fill="#B92025" d="M731.938,24.188h1.548v7.91h-1.548V24.188z"/>
			<path fill="#B92025" d="M735.001,24.188h4.688v1.377h-3.142v1.957h2.894V28.9h-2.894v3.197h-1.547V24.188z"/>
			<path fill="#B92025" d="M740.899,24.188h1.548v7.91h-1.548V24.188z"/>
			<path fill="#B92025" d="M749.319,31.775c-0.24,0.17-0.547,0.295-0.92,0.369c-0.375,0.074-0.757,0.111-1.149,0.111
				c-0.473,0-0.924-0.072-1.349-0.219c-0.426-0.148-0.801-0.387-1.124-0.714c-0.325-0.327-0.582-0.753-0.774-1.276
				c-0.193-0.523-0.289-1.158-0.289-1.904c0-0.776,0.107-1.426,0.322-1.949c0.214-0.523,0.494-0.945,0.837-1.267
				c0.342-0.319,0.725-0.55,1.147-0.688c0.421-0.14,0.843-0.209,1.265-0.209c0.452,0,0.835,0.029,1.146,0.09
				c0.313,0.061,0.571,0.132,0.774,0.215l-0.305,1.311c-0.173-0.082-0.379-0.143-0.615-0.182c-0.237-0.037-0.527-0.056-0.865-0.056
				c-0.626,0-1.127,0.224-1.508,0.669c-0.382,0.445-0.572,1.136-0.572,2.072c0,0.407,0.046,0.779,0.136,1.115
				c0.091,0.336,0.229,0.623,0.413,0.861c0.186,0.236,0.415,0.422,0.688,0.555c0.275,0.131,0.594,0.197,0.956,0.197
				c0.339,0,0.625-0.033,0.857-0.102c0.235-0.067,0.438-0.154,0.611-0.26L749.319,31.775z"/>
			<path fill="#B92025" d="M753.681,30.346h-2.428l-0.6,1.752h-1.549l2.849-7.967h1.142l2.848,7.967h-1.628L753.681,30.346z
				 M751.647,29.104h1.695l-0.588-1.764l-0.236-1.242h-0.057l-0.238,1.253L751.647,29.104z"/>
			<path fill="#B92025" d="M756.621,24.188c0.157-0.023,0.336-0.042,0.536-0.057c0.199-0.016,0.406-0.027,0.616-0.035
				c0.211-0.006,0.415-0.012,0.615-0.017c0.2-0.003,0.379-0.005,0.538-0.005c0.7,0,1.3,0.098,1.796,0.293
				c0.497,0.195,0.9,0.471,1.209,0.826c0.31,0.354,0.535,0.775,0.679,1.265s0.216,1.028,0.216,1.616
				c0,0.537-0.068,1.051-0.204,1.549c-0.137,0.496-0.362,0.938-0.679,1.322c-0.315,0.384-0.732,0.693-1.248,0.926
				c-0.517,0.234-1.155,0.352-1.915,0.352c-0.121,0-0.282-0.004-0.482-0.012c-0.199-0.008-0.405-0.018-0.621-0.027
				c-0.215-0.012-0.42-0.023-0.615-0.035c-0.196-0.011-0.343-0.023-0.44-0.039V24.188z M759.05,25.453
				c-0.165,0-0.334,0.004-0.502,0.01c-0.17,0.008-0.297,0.02-0.379,0.035v5.301c0.031,0.007,0.081,0.012,0.152,0.018
				c0.071,0.002,0.15,0.006,0.231,0.01c0.083,0.004,0.162,0.008,0.237,0.012c0.074,0.004,0.133,0.006,0.17,0.006
				c0.437,0,0.8-0.077,1.09-0.23c0.291-0.156,0.52-0.361,0.69-0.617c0.17-0.256,0.288-0.553,0.355-0.887
				c0.069-0.336,0.103-0.68,0.103-1.035c0-0.309-0.03-0.619-0.091-0.932s-0.171-0.594-0.334-0.842
				c-0.161-0.248-0.382-0.453-0.661-0.611C759.834,25.531,759.479,25.453,759.05,25.453z"/>
			<path fill="#B92025" d="M763.685,28.143c0-1.318,0.29-2.334,0.869-3.046c0.581-0.712,1.41-1.067,2.486-1.067
				c0.566,0,1.059,0.098,1.48,0.293s0.773,0.475,1.052,0.837c0.278,0.361,0.485,0.794,0.622,1.299
				c0.136,0.505,0.203,1.067,0.203,1.685c0,1.318-0.292,2.334-0.875,3.045c-0.586,0.713-1.413,1.068-2.482,1.068
				c-0.571,0-1.068-0.098-1.491-0.293c-0.422-0.196-0.771-0.475-1.046-0.836c-0.273-0.363-0.479-0.796-0.615-1.301
				C763.753,29.322,763.685,28.76,763.685,28.143z M765.312,28.143c0,0.398,0.034,0.767,0.103,1.102
				c0.067,0.336,0.172,0.624,0.31,0.865c0.139,0.241,0.319,0.429,0.538,0.564s0.478,0.203,0.778,0.203
				c0.55,0,0.977-0.214,1.279-0.645c0.299-0.428,0.45-1.125,0.45-2.09c0-0.385-0.032-0.742-0.097-1.074
				c-0.063-0.331-0.164-0.621-0.299-0.869s-0.313-0.443-0.531-0.582c-0.218-0.141-0.485-0.21-0.803-0.21
				c-0.549,0-0.975,0.222-1.276,0.663C765.462,26.51,765.312,27.201,765.312,28.143z"/>
			<path fill="#B92025" d="M774.918,29.973c0-0.24-0.088-0.436-0.266-0.586c-0.178-0.152-0.399-0.289-0.666-0.414
				c-0.269-0.123-0.559-0.252-0.871-0.385c-0.313-0.131-0.604-0.293-0.87-0.484c-0.268-0.192-0.489-0.432-0.667-0.719
				c-0.177-0.285-0.266-0.65-0.266-1.096c0-0.385,0.063-0.718,0.192-1c0.128-0.283,0.311-0.519,0.549-0.707
				c0.236-0.188,0.518-0.327,0.842-0.418c0.324-0.09,0.686-0.135,1.084-0.135c0.459,0,0.894,0.039,1.301,0.119
				c0.407,0.078,0.741,0.193,1.005,0.344l-0.485,1.299c-0.166-0.105-0.414-0.201-0.746-0.287c-0.332-0.087-0.689-0.13-1.074-0.13
				c-0.361,0-0.639,0.071-0.83,0.214c-0.191,0.145-0.289,0.336-0.289,0.576c0,0.227,0.09,0.416,0.266,0.565
				c0.178,0.15,0.4,0.29,0.668,0.419c0.268,0.127,0.557,0.26,0.87,0.395c0.312,0.137,0.603,0.299,0.87,0.492s0.489,0.43,0.667,0.712
				c0.177,0.282,0.266,0.636,0.266,1.058c0,0.421-0.069,0.785-0.209,1.09s-0.336,0.56-0.588,0.763
				c-0.254,0.202-0.559,0.354-0.916,0.452s-0.752,0.146-1.181,0.146c-0.564,0-1.063-0.053-1.491-0.158
				c-0.43-0.105-0.746-0.211-0.949-0.315l0.495-1.323c0.084,0.047,0.191,0.095,0.323,0.148c0.132,0.053,0.28,0.101,0.447,0.146
				c0.164,0.045,0.341,0.082,0.524,0.111c0.185,0.031,0.375,0.046,0.57,0.046c0.461,0,0.813-0.077,1.058-0.231
				S774.918,30.29,774.918,29.973z"/>
		</g>
		<g>
			<path fill-rule="evenodd" clip-rule="evenodd" fill="#B92025" d="M806.478,25.682c2.676,0,4.971,1.918,4.971,4.672
				c0,2.664-2.528,4.191-4.971,4.191c-2.563,0-5.012-1.658-5.012-4.408C801.466,27.425,803.939,25.682,806.478,25.682
				 M806.478,26.592c1.297,0,2.464,1.643,2.464,3.545c0,1.943-1.167,3.59-2.464,3.59c-1.341,0-2.463-1.646-2.463-3.59
				C804.015,28.234,805.137,26.592,806.478,26.592"/>
			<path fill-rule="evenodd" clip-rule="evenodd" fill="#B92025" d="M834.224,33.854h-3.673V25.51h3.673v2.078
				c1.173-1.355,7.997-2.42,7.997,0.431v0.304v5.531h-3.891v-4.279c0-0.723-0.03-1.295-0.655-1.697
				c-1.246-0.806-3.599-0.529-3.451,1.313V33.854z"/>
			<path fill-rule="evenodd" clip-rule="evenodd" fill="#B92025" d="M863.875,33.854h-3.676V25.51h3.676v2.078
				c1.407-1.411,8.125-2.515,8.125,0.734v5.531h-4.104v-4.279c0-0.603-0.094-1.34-0.619-1.717c-1.08-0.779-3.55-0.492-3.401,1.332
				V33.854z"/>
			<path fill-rule="evenodd" clip-rule="evenodd" fill="#B92025" d="M845.766,22.398c1.123-0.347,2.202-0.174,2.332,0.433
				c0.173,0.606-0.604,1.384-1.728,1.774c-1.123,0.301-2.206,0.17-2.377-0.479C843.819,23.523,844.641,22.788,845.766,22.398
				 M848.015,33.854h-3.764V25.51h3.764V33.854z"/>
			<path fill-rule="evenodd" clip-rule="evenodd" fill="#B92025" d="M826.834,22.398c1.168-0.347,2.206-0.174,2.376,0.433
				c0.217,0.606-0.604,1.384-1.727,1.774c-1.168,0.301-2.203,0.17-2.335-0.479C824.932,23.523,825.712,22.788,826.834,22.398
				 M829.125,33.854h-3.717V25.51h3.717V33.854z"/>
			<path fill-rule="evenodd" clip-rule="evenodd" fill="#B92025" d="M816.331,28.019v4.887c0.444,0.407,1.039,0.904,1.73,0.904
				c1.512,0,2.681-1.683,2.681-3.456c0-1.49-0.687-2.65-1.687-3.11C818.015,26.761,817.028,27.13,816.331,28.019 M812.483,41.55
				V25.51h3.848v1.429c1.169-1.085,3.88-1.315,5.359-0.822c1.988,0.56,3.07,2.854,2.854,4.454c-0.283,4.25-5.386,4.959-8.213,2.894
				v8.086H812.483z"/>
			<path fill-rule="evenodd" clip-rule="evenodd" fill="#B92025" d="M789.493,26.938c0.743,0.638,0.209,2.159-0.822,2.159
				c-0.734,0-1.341-0.473-1.341-1.121c0-2.942,4.279-2.725,6.095-2.207c1.729,0.605,2.119,1.513,2.119,3.156v5.189h-3.33v-0.651
				c-1.641,1.124-5.443,0.867-5.443-1.685c0-2.727,3.596-2.869,5.443-2.117c0-0.95-0.172-3.415-1.384-3.415
				C790.01,26.247,789.234,26.247,789.493,26.938 M789.796,30.312c1.167,0,1.9,0.646,1.9,1.555c0,0.864-0.733,1.644-1.9,1.644
				c-1.125,0-1.859-0.779-1.859-1.644C787.937,30.958,788.671,30.312,789.796,30.312"/>
			<rect x="782.532" y="22.052" fill-rule="evenodd" clip-rule="evenodd" fill="#B92025" width="3.632" height="12.063"/>
			<path fill-rule="evenodd" clip-rule="evenodd" fill="#B92025" d="M855.767,23.75l-3.261,1.109l-0.172-0.209l2.364-2.367
				c0.383-0.383,1.148-0.287,1.421,0.177C856.368,22.875,856.271,23.576,855.767,23.75"/>
			<path fill-rule="evenodd" clip-rule="evenodd" fill="#B92025" d="M853.89,25.682c2.736,0,5.055,1.986,5.055,4.803
				c0,2.783-2.525,4.235-5.055,4.235c-2.6,0-4.927-1.724-4.927-4.453C848.963,27.614,851.341,25.682,853.89,25.682 M853.89,26.635
				c1.513,0,2.593,1.688,2.593,3.632c0,1.946-1.08,3.632-2.593,3.632c-1.34,0-2.548-1.686-2.548-3.632
				C851.342,28.322,852.55,26.635,853.89,26.635"/>
		</g>
		<rect x="707.526" y="33.958" fill-rule="evenodd" clip-rule="evenodd" fill="#B92025" width="69.775" height="1.003"/>
	</g>
</g>
</svg>
