<?xml version="1.0" encoding="utf-8"?>
<!-- Generator: Adobe Illustrator 15.0.0, SVG Export Plug-In . SVG Version: 6.00 Build 0)  -->
<!DOCTYPE svg PUBLIC "-//W3C//DTD SVG 1.1//EN" "http://www.w3.org/Graphics/SVG/1.1/DTD/svg11.dtd">
<svg version="1.1" id="Capa_1" xmlns="http://www.w3.org/2000/svg" xmlns:xlink="http://www.w3.org/1999/xlink" x="0px" y="0px"
	 width="110.204px" height="211.211px" viewBox="0 0 110.204 211.211" enable-background="new 0 0 110.204 211.211"
	 xml:space="preserve">
<g>
	<g>
		<g>
			<g>
				<g>
					<path fill="#575757" d="M78.785,46.795c-6.506,0-11.799,5.292-11.799,11.798s5.293,11.799,11.799,11.799
						c6.505,0,11.797-5.293,11.797-11.799S85.29,46.795,78.785,46.795z"/>
				</g>
			</g>
			<path fill="#FFFFFF" d="M81.719,59.008h-1.92c0,3.068,0,6.842,0,6.842h-2.846c0,0,0-3.739,0-6.842h-1.351V56.59h1.351v-1.563
				c0-1.121,0.533-2.871,2.872-2.871l2.107,0.01v2.347c0,0-1.281,0-1.529,0c-0.251,0-0.604,0.124-0.604,0.657v1.424h2.168
				L81.719,59.008z"/>
		</g>
		<g>
			<g>
				<path fill="#999999" d="M78.784,78.201c-6.515,0-11.798,5.282-11.798,11.797c0,6.518,5.283,11.8,11.798,11.8
					s11.798-5.282,11.798-11.8C90.582,83.483,85.299,78.201,78.784,78.201z"/>
			</g>
			<path fill="#FFFFFF" d="M85.825,87.449l0.01,0.423c0,4.311-3.279,9.275-9.275,9.275c-1.842,0-3.555-0.54-4.997-1.463
				c0.253,0.029,0.514,0.044,0.777,0.044c1.527,0,2.934-0.52,4.048-1.395c-1.427-0.025-2.63-0.972-3.045-2.265
				c0.201,0.037,0.403,0.058,0.613,0.058c0.298,0,0.586-0.039,0.859-0.112c-1.493-0.304-2.616-1.619-2.616-3.196v-0.042
				c0.439,0.243,0.944,0.391,1.478,0.409c-0.875-0.586-1.45-1.585-1.45-2.713c0-0.599,0.161-1.157,0.44-1.64
				c1.607,1.974,4.011,3.271,6.72,3.406c-0.056-0.239-0.084-0.487-0.084-0.742c0-1.8,1.46-3.261,3.261-3.261
				c0.938,0,1.783,0.397,2.379,1.031c0.742-0.147,1.441-0.418,2.073-0.793c-0.243,0.763-0.761,1.401-1.435,1.806
				c0.658-0.078,1.287-0.255,1.872-0.515C87.017,86.417,86.462,86.992,85.825,87.449z"/>
		</g>
		<g>
			<g>
				<g>
					<g>
						<path d="M78.783,109.607c-6.504,0-11.797,5.291-11.797,11.797s5.293,11.797,11.797,11.797c6.505,0,11.798-5.291,11.798-11.797
							S85.288,109.607,78.783,109.607z"/>
					</g>
				</g>
			</g>
			<g>
				<path fill="#FFFFFF" d="M85.703,121.829c0,0.153-0.126,0.275-0.276,0.275h-1.994v1.993c0,0.154-0.123,0.278-0.273,0.278h-0.568
					c-0.152,0-0.276-0.124-0.276-0.278v-1.993h-1.992c-0.153,0-0.276-0.122-0.276-0.275v-0.567c0-0.151,0.123-0.275,0.276-0.275
					h1.992v-1.993c0-0.154,0.124-0.276,0.276-0.276h0.568c0.15,0,0.273,0.122,0.273,0.276v1.993h1.994
					c0.15,0,0.275,0.121,0.275,0.273L85.703,121.829L85.703,121.829z"/>
				<path fill="#FFFFFF" d="M77.78,127.845c-0.446,0.131-0.928,0.193-1.435,0.193c-0.563,0-1.107-0.063-1.611-0.191
					c-0.978-0.248-1.701-0.714-2.038-1.317c-0.145-0.26-0.219-0.538-0.219-0.825c0-0.296,0.072-0.597,0.211-0.893
					c0.535-1.142,1.948-1.911,3.512-1.911c0.015,0,0.03,0,0.043,0c-0.125-0.225-0.187-0.454-0.187-0.7
					c0-0.119,0.016-0.243,0.048-0.37c-1.64-0.036-2.869-1.237-2.869-2.822c0-1.118,0.895-2.207,2.174-2.647
					c0.382-0.131,0.772-0.197,1.155-0.197h3.509c0.12,0,0.226,0.075,0.263,0.188c0.036,0.115-0.006,0.239-0.101,0.311l-0.784,0.567
					c-0.049,0.032-0.104,0.05-0.162,0.05h-0.281c0.363,0.435,0.575,1.055,0.575,1.753c0,0.767-0.391,1.495-1.097,2.048
					c-0.546,0.425-0.567,0.542-0.567,0.785c0.006,0.134,0.386,0.57,0.808,0.866c0.979,0.691,1.341,1.371,1.341,2.503
					C80.068,126.419,79.171,127.441,77.78,127.845z"/>
				<path d="M77.517,124.088c-0.076-0.051-0.154-0.108-0.236-0.161c-0.238-0.073-0.493-0.112-0.752-0.114h-0.032
					c-1.193,0-2.241,0.721-2.241,1.545c0,0.898,0.898,1.601,2.043,1.601c1.511,0,2.277-0.521,2.277-1.547
					c0-0.097-0.012-0.195-0.036-0.299C78.436,124.715,78.071,124.467,77.517,124.088z"/>
				<path d="M76.672,120.956L76.672,120.956c0.286,0,0.528-0.11,0.714-0.326c0.293-0.333,0.422-0.879,0.347-1.463
					c-0.137-1.038-0.879-1.903-1.653-1.924h-0.032c-0.273,0-0.518,0.112-0.705,0.326c-0.288,0.326-0.41,0.85-0.334,1.431
					c0.135,1.038,0.895,1.934,1.652,1.956H76.672L76.672,120.956z"/>
			</g>
		</g>
		<g>
			<g>
				<g>
					<path fill="#555555" d="M78.783,141.01c-6.516,0-11.797,5.282-11.797,11.797c0,6.518,5.282,11.8,11.797,11.8
						c6.516,0,11.798-5.282,11.798-11.8C90.581,146.292,85.299,141.01,78.783,141.01z"/>
				</g>
			</g>
			<path fill="#FFFFFF" d="M79.927,156.773c-1.072-0.082-1.522-0.613-2.361-1.123c-0.463,2.423-1.027,4.747-2.698,5.962
				c-0.518-3.663,0.758-6.416,1.348-9.337c-1.009-1.697,0.122-5.117,2.25-4.271c2.621,1.035-2.267,6.313,1.014,6.975
				c3.424,0.687,4.821-5.943,2.698-8.101c-3.069-3.114-8.931-0.071-8.21,4.387c0.174,1.089,1.301,1.419,0.449,2.923
				c-1.963-0.434-2.549-1.983-2.473-4.048c0.122-3.381,3.036-5.746,5.96-6.072c3.698-0.416,7.168,1.357,7.647,4.834
				C86.091,152.828,83.882,157.082,79.927,156.773z"/>
		</g>
		<g>
			<g>
				<g>
					<path fill="#B3B3B3" d="M84.108,27.288c-1.174,0-2.209,0.56-2.885,1.415l-6.274-3.208c0.082-0.306,0.141-0.622,0.141-0.956
						c0-0.362-0.07-0.703-0.168-1.036l6.246-3.192c0.672,0.895,1.734,1.479,2.939,1.479c2.043,0,3.695-1.652,3.695-3.693
						c0-2.039-1.652-3.692-3.695-3.692c-2.037,0-3.691,1.653-3.691,3.692c0,0.334,0.059,0.651,0.142,0.958l-6.272,3.209
						c-0.677-0.857-1.714-1.418-2.89-1.418c-2.041,0-3.692,1.654-3.692,3.693c0,2.04,1.651,3.693,3.692,3.693
						c1.208,0,2.269-0.586,2.944-1.482l6.242,3.193c-0.098,0.331-0.168,0.676-0.168,1.039c0,2.04,1.654,3.693,3.691,3.693
						c2.043,0,3.695-1.653,3.695-3.693C87.804,28.94,86.151,27.288,84.108,27.288z"/>
				</g>
			</g>
		</g>
		<g>
			<g>
				<path id="WhatsApp_1_" fill="#F2F2F2" d="M90.799,184.296c0,6.562-5.36,11.884-11.975,11.884c-2.101,0-4.073-0.538-5.789-1.48
					l-6.63,2.107l2.162-6.376c-1.09-1.791-1.719-3.89-1.719-6.135c0-6.563,5.363-11.883,11.977-11.883
					C85.438,172.414,90.799,177.733,90.799,184.296z"/>
			</g>
			<path fill="#7E7E7E" d="M78.824,174.305c-5.553,0-10.068,4.482-10.068,9.991c0,2.187,0.712,4.21,1.918,5.857l-1.258,3.71
				l3.869-1.23c1.59,1.044,3.495,1.653,5.54,1.653c5.552,0,10.067-4.481,10.067-9.99S84.376,174.305,78.824,174.305z"/>
			<path fill="#FFFFFF" d="M84.871,187.033c-0.075-0.122-0.27-0.195-0.563-0.34c-0.293-0.146-1.736-0.851-2.006-0.947
				c-0.27-0.098-0.465-0.146-0.66,0.146s-0.758,0.946-0.93,1.142s-0.342,0.22-0.637,0.072c-0.293-0.145-1.238-0.452-2.359-1.444
				c-0.872-0.771-1.461-1.725-1.633-2.017c-0.171-0.292-0.018-0.449,0.129-0.593c0.132-0.132,0.293-0.341,0.441-0.512
				c0.147-0.171,0.195-0.29,0.293-0.485c0.099-0.194,0.049-0.364-0.025-0.51c-0.073-0.146-0.661-1.579-0.905-2.162
				c-0.244-0.583-0.488-0.486-0.66-0.486c-0.171,0-0.367-0.024-0.563-0.024c-0.195,0-0.514,0.073-0.783,0.365
				c-0.269,0.291-1.026,0.996-1.026,2.429s1.051,2.817,1.198,3.013c0.147,0.193,2.031,3.229,5.015,4.396
				c2.984,1.166,2.984,0.776,3.522,0.727c0.538-0.048,1.736-0.704,1.982-1.384C84.944,187.738,84.944,187.155,84.871,187.033z"/>
		</g>
	</g>
	<g>
		<g>
			<g>
				<g>
					<path fill="#3C5997" d="M31.785,46.795c-6.506,0-11.799,5.292-11.799,11.798s5.293,11.799,11.799,11.799
						c6.505,0,11.797-5.293,11.797-11.799S38.29,46.795,31.785,46.795z"/>
				</g>
			</g>
			<path fill="#FFFFFF" d="M34.719,59.008h-1.92c0,3.068,0,6.842,0,6.842h-2.846c0,0,0-3.739,0-6.842h-1.351V56.59h1.351v-1.563
				c0-1.121,0.533-2.871,2.872-2.871l2.107,0.01v2.347c0,0-1.281,0-1.529,0c-0.251,0-0.604,0.124-0.604,0.657v1.424h2.168
				L34.719,59.008z"/>
		</g>
		<g>
			<g>
				<path fill="#29C1F2" d="M31.784,78.201c-6.515,0-11.798,5.282-11.798,11.797c0,6.518,5.283,11.8,11.798,11.8
					s11.798-5.282,11.798-11.8C43.582,83.483,38.299,78.201,31.784,78.201z"/>
			</g>
			<path fill="#FFFFFF" d="M38.825,87.449l0.01,0.423c0,4.311-3.279,9.275-9.275,9.275c-1.842,0-3.555-0.54-4.997-1.463
				c0.253,0.029,0.514,0.044,0.777,0.044c1.527,0,2.934-0.52,4.048-1.395c-1.427-0.025-2.63-0.972-3.045-2.265
				c0.201,0.037,0.403,0.058,0.613,0.058c0.298,0,0.586-0.039,0.859-0.112c-1.493-0.304-2.616-1.619-2.616-3.196v-0.042
				c0.439,0.243,0.944,0.391,1.478,0.409c-0.875-0.586-1.45-1.585-1.45-2.713c0-0.599,0.161-1.157,0.44-1.64
				c1.607,1.974,4.011,3.271,6.72,3.406c-0.056-0.239-0.084-0.487-0.084-0.742c0-1.8,1.46-3.261,3.261-3.261
				c0.938,0,1.783,0.397,2.379,1.031c0.742-0.147,1.441-0.418,2.073-0.793c-0.243,0.763-0.761,1.401-1.435,1.806
				c0.658-0.078,1.287-0.255,1.872-0.515C40.017,86.417,39.462,86.992,38.825,87.449z"/>
		</g>
		<g>
			<g>
				<g>
					<g>
						<path d="M31.783,109.607c-6.504,0-11.797,5.291-11.797,11.797s5.293,11.797,11.797,11.797c6.505,0,11.798-5.291,11.798-11.797
							S38.288,109.607,31.783,109.607z"/>
					</g>
				</g>
			</g>
			<g>
				<path fill="#FFFFFF" d="M38.703,121.829c0,0.153-0.126,0.275-0.276,0.275h-1.994v1.993c0,0.154-0.123,0.278-0.273,0.278h-0.568
					c-0.152,0-0.276-0.124-0.276-0.278v-1.993h-1.992c-0.153,0-0.276-0.122-0.276-0.275v-0.567c0-0.151,0.123-0.275,0.276-0.275
					h1.992v-1.993c0-0.154,0.124-0.276,0.276-0.276h0.568c0.15,0,0.273,0.122,0.273,0.276v1.993h1.994
					c0.15,0,0.275,0.121,0.275,0.273L38.703,121.829L38.703,121.829z"/>
				<path fill="#FFFFFF" d="M30.78,127.845c-0.446,0.131-0.928,0.193-1.435,0.193c-0.563,0-1.107-0.063-1.611-0.191
					c-0.978-0.248-1.701-0.714-2.038-1.317c-0.145-0.26-0.219-0.538-0.219-0.825c0-0.296,0.072-0.597,0.211-0.893
					c0.535-1.142,1.948-1.911,3.512-1.911c0.015,0,0.03,0,0.043,0c-0.125-0.225-0.187-0.454-0.187-0.7
					c0-0.119,0.016-0.243,0.048-0.37c-1.64-0.036-2.869-1.237-2.869-2.822c0-1.118,0.895-2.207,2.174-2.647
					c0.382-0.131,0.772-0.197,1.155-0.197h3.509c0.12,0,0.226,0.075,0.263,0.188c0.036,0.115-0.006,0.239-0.101,0.311l-0.784,0.567
					c-0.049,0.032-0.104,0.05-0.162,0.05h-0.281c0.363,0.435,0.575,1.055,0.575,1.753c0,0.767-0.391,1.495-1.097,2.048
					c-0.546,0.425-0.567,0.542-0.567,0.785c0.006,0.134,0.386,0.57,0.808,0.866c0.979,0.691,1.341,1.371,1.341,2.503
					C33.068,126.419,32.171,127.441,30.78,127.845z"/>
				<path d="M30.517,124.088c-0.076-0.051-0.154-0.108-0.236-0.161c-0.238-0.073-0.493-0.112-0.752-0.114h-0.032
					c-1.193,0-2.241,0.721-2.241,1.545c0,0.898,0.898,1.601,2.043,1.601c1.511,0,2.277-0.521,2.277-1.547
					c0-0.097-0.012-0.195-0.036-0.299C31.436,124.715,31.071,124.467,30.517,124.088z"/>
				<path d="M29.672,120.956L29.672,120.956c0.286,0,0.528-0.11,0.714-0.326c0.293-0.333,0.422-0.879,0.347-1.463
					c-0.137-1.038-0.879-1.903-1.653-1.924h-0.032c-0.273,0-0.518,0.112-0.705,0.326c-0.288,0.326-0.41,0.85-0.334,1.431
					c0.135,1.038,0.895,1.934,1.652,1.956H29.672L29.672,120.956z"/>
			</g>
		</g>
		<g>
			<g>
				<g>
					<path fill="#CD2129" d="M31.783,141.01c-6.516,0-11.797,5.282-11.797,11.797c0,6.518,5.282,11.8,11.797,11.8
						c6.516,0,11.798-5.282,11.798-11.8C43.581,146.292,38.299,141.01,31.783,141.01z"/>
				</g>
			</g>
			<path fill="#FFFFFF" d="M32.927,156.773c-1.072-0.082-1.522-0.613-2.361-1.123c-0.463,2.423-1.027,4.747-2.698,5.962
				c-0.518-3.663,0.758-6.416,1.348-9.337c-1.009-1.697,0.122-5.117,2.25-4.271c2.621,1.035-2.267,6.313,1.014,6.975
				c3.424,0.687,4.821-5.943,2.698-8.101c-3.069-3.114-8.931-0.071-8.21,4.387c0.174,1.089,1.301,1.419,0.449,2.923
				c-1.963-0.434-2.549-1.983-2.473-4.048c0.122-3.381,3.036-5.746,5.96-6.072c3.698-0.416,7.168,1.357,7.647,4.834
				C39.091,152.828,36.882,157.082,32.927,156.773z"/>
		</g>
		<g>
			<g>
				<g>
					<path fill="#B3B3B3" d="M37.108,27.288c-1.174,0-2.209,0.56-2.885,1.415l-6.274-3.208c0.082-0.306,0.141-0.622,0.141-0.956
						c0-0.362-0.07-0.703-0.168-1.036l6.246-3.192c0.672,0.895,1.734,1.479,2.939,1.479c2.043,0,3.695-1.652,3.695-3.693
						c0-2.039-1.652-3.692-3.695-3.692c-2.037,0-3.691,1.653-3.691,3.692c0,0.334,0.059,0.651,0.142,0.958l-6.272,3.209
						c-0.677-0.857-1.714-1.418-2.89-1.418c-2.041,0-3.692,1.654-3.692,3.693c0,2.04,1.651,3.693,3.692,3.693
						c1.208,0,2.269-0.586,2.944-1.482l6.242,3.193c-0.098,0.331-0.168,0.676-0.168,1.039c0,2.04,1.654,3.693,3.691,3.693
						c2.043,0,3.695-1.653,3.695-3.693C40.804,28.94,39.151,27.288,37.108,27.288z"/>
				</g>
			</g>
		</g>
		<g>
			<g>
				<path id="WhatsApp_2_" fill="#F2F2F2" d="M43.799,184.296c0,6.562-5.36,11.884-11.975,11.884c-2.101,0-4.073-0.538-5.789-1.48
					l-6.63,2.107l2.162-6.376c-1.09-1.791-1.719-3.89-1.719-6.135c0-6.563,5.363-11.883,11.977-11.883
					C38.438,172.414,43.799,177.733,43.799,184.296z"/>
			</g>
			<path fill="#2AB540" d="M31.824,174.305c-5.553,0-10.068,4.482-10.068,9.991c0,2.187,0.712,4.21,1.918,5.857l-1.258,3.71
				l3.869-1.23c1.59,1.044,3.495,1.653,5.54,1.653c5.552,0,10.067-4.481,10.067-9.99S37.376,174.305,31.824,174.305z"/>
			<path fill="#FFFFFF" d="M37.871,187.033c-0.075-0.122-0.27-0.195-0.563-0.34c-0.293-0.146-1.736-0.851-2.006-0.947
				c-0.27-0.098-0.465-0.146-0.66,0.146s-0.758,0.946-0.93,1.142s-0.342,0.22-0.637,0.072c-0.293-0.145-1.238-0.452-2.359-1.444
				c-0.872-0.771-1.461-1.725-1.633-2.017c-0.171-0.292-0.018-0.449,0.129-0.593c0.132-0.132,0.293-0.341,0.441-0.512
				c0.147-0.171,0.195-0.29,0.293-0.485c0.099-0.194,0.049-0.364-0.025-0.51c-0.073-0.146-0.661-1.579-0.905-2.162
				c-0.244-0.583-0.488-0.486-0.66-0.486c-0.171,0-0.367-0.024-0.563-0.024c-0.195,0-0.514,0.073-0.783,0.365
				c-0.269,0.291-1.026,0.996-1.026,2.429s1.051,2.817,1.198,3.013c0.147,0.193,2.031,3.229,5.015,4.396
				c2.984,1.166,2.984,0.776,3.522,0.727c0.538-0.048,1.736-0.704,1.982-1.384C37.944,187.738,37.944,187.155,37.871,187.033z"/>
		</g>
	</g>
</g>
</svg>
