<?xml version="1.0" encoding="utf-8"?>
<!-- Generator: Adobe Illustrator 15.0.0, SVG Export Plug-In . SVG Version: 6.00 Build 0)  -->
<!DOCTYPE svg PUBLIC "-//W3C//DTD SVG 1.1//EN" "http://www.w3.org/Graphics/SVG/1.1/DTD/svg11.dtd">
<svg version="1.1" id="Capa_1" xmlns="http://www.w3.org/2000/svg" xmlns:xlink="http://www.w3.org/1999/xlink" x="0px" y="0px"
	 width="174.83px" height="60.446px" viewBox="0 0 174.83 60.446" enable-background="new 0 0 174.83 60.446" xml:space="preserve">
<g>
	<g>
		<g>
			<g>
				<path fill="#333333" d="M50.773,22.375c0-2.063-1.861-3.924-3.924-3.924H31.154c-2.063,0-3.924,1.861-3.924,3.924v15.693
					c0,2.063,1.861,3.926,3.924,3.926h7.849V33.1h-2.88v-3.924h2.88v-1.529c0-2.637,1.979-5.01,4.413-5.01h3.173v3.922h-3.173
					c-0.346,0-0.752,0.424-0.752,1.053v1.564h3.925V33.1h-3.925v8.895h4.186c2.063,0,3.924-1.863,3.924-3.926V22.375z"/>
			</g>
			<g>
				<g>
					<path fill="#333333" d="M138.234,32.367c-0.365,0-0.715,0.205-1.041,0.613v-2.467h-1.027v7.555h1.027v-0.551
						c0.338,0.418,0.684,0.629,1.041,0.629c0.42,0,0.689-0.215,0.814-0.645c0.07-0.215,0.105-0.586,0.105-1.117v-2.238
						c0-0.543-0.035-0.92-0.105-1.135C138.923,32.582,138.654,32.367,138.234,32.367z M138.142,36.461
						c0,0.5-0.146,0.748-0.445,0.748c-0.172,0-0.34-0.08-0.504-0.244v-3.434c0.164-0.162,0.332-0.244,0.504-0.244
						c0.297,0,0.445,0.256,0.445,0.768V36.461z"/>
					<path fill="#333333" d="M141.484,32.367c-0.521,0-0.93,0.195-1.225,0.584c-0.207,0.275-0.309,0.713-0.309,1.318v1.975
						c0,0.605,0.107,1.043,0.322,1.32c0.295,0.387,0.711,0.582,1.242,0.582c0.541,0,0.951-0.205,1.225-0.613
						c0.123-0.186,0.199-0.389,0.23-0.613c0.021-0.143,0.032-0.363,0.032-0.66v-0.137h-1.044c0,0.111,0,0.223,0,0.33
						s-0.002,0.191-0.008,0.252c-0.004,0.063-0.006,0.098-0.006,0.107c-0.061,0.266-0.217,0.396-0.461,0.396
						c-0.348,0-0.52-0.258-0.52-0.779v-0.996h2.038V34.27c0-0.594-0.108-1.031-0.321-1.318
						C142.404,32.563,142.005,32.367,141.484,32.367z M141.976,34.59h-1.013v-0.52c0-0.523,0.167-0.783,0.505-0.783
						s0.508,0.26,0.508,0.783V34.59L141.976,34.59z"/>
					<path fill="#333333" d="M134.265,36.736c-0.225,0.316-0.439,0.473-0.645,0.473c-0.143,0-0.219-0.074-0.23-0.229
						c-0.008-0.02-0.014-0.152-0.014-0.396v-4.139h-1.012v4.443c0,0.389,0.031,0.666,0.092,0.828c0.092,0.287,0.307,0.43,0.645,0.43
						c0.377,0,0.766-0.23,1.164-0.691v0.613h1.027v-5.623h-1.027V36.736L134.265,36.736L134.265,36.736z"/>
					<path fill="#333333" d="M135.599,26.664c0.326,0,0.49-0.26,0.49-0.779v-2.393c0-0.531-0.164-0.797-0.49-0.797
						c-0.328,0-0.492,0.266-0.492,0.797v2.393C135.107,26.404,135.271,26.664,135.599,26.664z"/>
					<polygon fill="#333333" points="128.656,31.584 129.851,31.584 129.851,38.068 130.984,38.068 130.984,31.584 132.211,31.584 
						132.211,30.514 128.656,30.514 					"/>
					<path fill="#333333" d="M143.185,18.451h-14.713c-1.217,0-2.256,0.432-3.121,1.293c-0.863,0.865-1.295,1.904-1.295,3.123V37.58
						c0,1.215,0.432,2.254,1.295,3.117c0.865,0.863,1.904,1.297,3.121,1.297h14.713c1.217,0,2.256-0.434,3.119-1.297
						s1.295-1.902,1.295-3.117V22.867c0-1.219-0.432-2.258-1.295-3.123C145.443,18.883,144.402,18.451,143.185,18.451z
						 M137.961,21.852h1.024v4.17c0,0.244,0.006,0.377,0.017,0.398c0.009,0.164,0.091,0.244,0.245,0.244
						c0.203,0,0.418-0.156,0.643-0.473v-4.34h1.027v5.672h-1.027V26.91c-0.42,0.461-0.813,0.689-1.179,0.689
						c-0.327,0-0.55-0.137-0.661-0.412c-0.061-0.184-0.089-0.467-0.089-0.844V21.852L137.961,21.852z M134.08,23.691
						c0-0.592,0.107-1.037,0.322-1.332c0.277-0.389,0.676-0.584,1.197-0.584c0.5,0,0.898,0.195,1.196,0.584
						c0.212,0.295,0.319,0.74,0.319,1.332v1.992c0,0.615-0.107,1.061-0.319,1.336c-0.298,0.387-0.696,0.58-1.196,0.58
						c-0.521,0-0.92-0.193-1.197-0.58c-0.215-0.299-0.322-0.742-0.322-1.336V23.691L134.08,23.691z M131.322,19.908l0.813,2.986
						l0.781-2.986h1.15l-1.379,4.533v3.082h-1.135v-3.082c-0.113-0.561-0.348-1.365-0.705-2.42c-0.07-0.234-0.189-0.586-0.354-1.059
						c-0.162-0.469-0.285-0.82-0.367-1.055H131.322L131.322,19.908z M143.953,38.406c-0.104,0.441-0.32,0.813-0.652,1.119
						s-0.717,0.486-1.156,0.537c-1.4,0.154-3.506,0.23-6.316,0.23s-4.914-0.076-6.314-0.23c-0.439-0.051-0.824-0.23-1.158-0.537
						c-0.33-0.307-0.547-0.678-0.65-1.119c-0.205-0.857-0.307-2.188-0.307-3.984c0-1.77,0.102-3.096,0.307-3.986
						c0.104-0.449,0.32-0.822,0.65-1.125c0.334-0.303,0.725-0.479,1.174-0.531c1.389-0.152,3.49-0.229,6.301-0.229
						c2.82,0,4.925,0.076,6.314,0.229c0.439,0.053,0.828,0.229,1.166,0.531c0.336,0.303,0.557,0.676,0.658,1.125
						c0.193,0.85,0.291,2.176,0.291,3.986C144.259,36.219,144.156,37.549,143.953,38.406z"/>
				</g>
			</g>
			<g>
				<path fill="#333333" d="M109.89,24.789c-0.498,0-0.904-0.408-0.904-0.906v-1.811c0-0.5,0.406-0.904,0.904-0.904h1.813
					c0.498,0,0.906,0.404,0.906,0.904v1.811c0,0.498-0.408,0.906-0.906,0.906H109.89z"/>
				<path fill="#333333" d="M103.552,26.77c-0.658,0-1.264,0.193-1.785,0.51c0.16-0.051,0.33-0.082,0.51-0.082
					c0.967,0,1.75,0.779,1.75,1.748c0,0.967-0.783,1.752-1.75,1.752s-1.75-0.785-1.75-1.752c0-0.178,0.035-0.348,0.084-0.51
					c-0.318,0.521-0.512,1.129-0.512,1.785c0,1.908,1.545,3.453,3.455,3.453c1.904,0,3.451-1.543,3.451-3.453
					C107.005,28.313,105.458,26.77,103.552,26.77z"/>
				<g>
					<path fill="#333333" d="M103.552,24.789c3,0,5.434,2.432,5.434,5.432c0,3.002-2.436,5.436-5.434,5.436
						c-3,0-5.434-2.434-5.434-5.436C98.119,27.221,100.552,24.789,103.552,24.789 M103.552,22.979c-3.994,0-7.244,3.25-7.244,7.242
						c0,3.994,3.25,7.244,7.244,7.244s7.246-3.25,7.246-7.244C110.798,26.229,107.546,22.979,103.552,22.979L103.552,22.979z"/>
				</g>
				<path fill="#333333" d="M110.91,18.451H96.195c-2.438,0-4.414,1.975-4.414,4.416V37.58c0,2.438,1.977,4.414,4.414,4.414h14.715
					c2.439,0,4.414-1.977,4.414-4.414V22.867C115.324,20.426,113.349,18.451,110.91,18.451z M113.513,26.6h-5.92
					c0.863,0.963,1.393,2.229,1.393,3.621c0,3.002-2.436,5.436-5.434,5.436c-3,0-5.434-2.434-5.434-5.436
					c0-1.393,0.529-2.66,1.393-3.621h-5.92v-3.732c0-1.438,1.168-2.605,2.604-2.605h14.715c1.438,0,2.604,1.168,2.604,2.605V26.6z"
					/>
			</g>
			<g>
				<g>
					<path fill="#333333" d="M78.634,18.451H63.92c-2.438,0-4.415,1.975-4.415,4.416V37.58c0,2.438,1.977,4.414,4.415,4.414h14.714
						c2.439,0,4.414-1.977,4.414-4.414V22.867C83.048,20.426,81.074,18.451,78.634,18.451z M77.132,27.578l0.01,0.375
						c0,3.834-2.916,8.248-8.246,8.248c-1.637,0-3.158-0.48-4.441-1.303c0.227,0.025,0.457,0.041,0.691,0.041
						c1.358,0,2.608-0.463,3.598-1.238c-1.268-0.025-2.336-0.865-2.707-2.016c0.18,0.033,0.359,0.051,0.547,0.051
						c0.266,0,0.521-0.033,0.764-0.1c-1.326-0.268-2.324-1.439-2.324-2.844v-0.035c0.391,0.217,0.836,0.346,1.313,0.361
						c-0.778-0.518-1.29-1.404-1.29-2.41c0-0.529,0.143-1.027,0.391-1.455c1.428,1.754,3.565,2.908,5.975,3.027
						c-0.051-0.213-0.075-0.434-0.075-0.66c0-1.6,1.298-2.898,2.897-2.898c0.834,0,1.586,0.354,2.117,0.916
						c0.658-0.131,1.281-0.373,1.84-0.703c-0.215,0.676-0.676,1.244-1.273,1.604c0.585-0.07,1.145-0.229,1.664-0.455
						C78.193,26.662,77.699,27.174,77.132,27.578z"/>
				</g>
			</g>
		</g>
	</g>
</g>
</svg>
