<?xml version="1.0" encoding="utf-8"?>
<!-- Generator: Adobe Illustrator 15.0.0, SVG Export Plug-In . SVG Version: 6.00 Build 0)  -->
<!DOCTYPE svg PUBLIC "-//W3C//DTD SVG 1.1//EN" "http://www.w3.org/Graphics/SVG/1.1/DTD/svg11.dtd">
<svg version="1.1" id="Capa_1" xmlns="http://www.w3.org/2000/svg" xmlns:xlink="http://www.w3.org/1999/xlink" x="0px" y="0px"
	 width="65.204px" height="62.667px" viewBox="0 0 65.204 62.667" enable-background="new 0 0 65.204 62.667" xml:space="preserve">
<g>
	<g>
		<path fill="#FFFFFF" d="M269.539,5555.004l2.408,22.028l30.841-3.37l-2.408-22.029L269.539,5555.004z M300.183,5570.232
			l-5.208-6.862l-4.539,4.706l-4.514-5.947l-12.013,12.46l-1.926-17.623l26.434-2.889L300.183,5570.232z M274.788,5562.232
			c0.198,1.824,1.841,3.143,3.666,2.942c1.824-0.198,3.143-1.84,2.942-3.665c-0.199-1.824-1.84-3.143-3.665-2.943
			C275.906,5558.767,274.588,5560.406,274.788,5562.232z M295.492,5547.709l-30.84,3.371l2.408,22.029l2.203-0.24l-2.167-19.828
			l28.636-3.127L295.492,5547.709L295.492,5547.709z"/>
	</g>
</g>
<g>
	<g>
		<g>
			<path fill="#314799" d="M48.737,29.81h-3.748h-0.5c-1.107,0-2.008,0.898-2.008,2.011v0.218c0,1.111,0.9,2.012,2.008,2.012h3.752
				h0.496c1.111,0,2.012-0.902,2.012-2.012l-0.002-0.221C50.749,30.708,49.848,29.81,48.737,29.81z"/>
			<path fill="#314799" d="M48.739,24.794h-0.885v-9.725c0-1.398-1.143-2.543-2.541-2.543h-16.77c-1.396,0-2.541,1.145-2.541,2.543
				v6.977c-3.381,1.912-6.871,3.91-6.879,3.912c-1.895,0.781-4.668,3.297-4.668,9.236c0,0.529,0.033,1.02,0.082,1.492
				c0.016,0.139,0.033,0.273,0.053,0.406c0.049,0.346,0.109,0.678,0.184,0.994c0.027,0.114,0.047,0.229,0.072,0.338
				c0.1,0.365,0.217,0.708,0.344,1.033c0.064,0.162,0.133,0.311,0.203,0.46c0.074,0.159,0.148,0.317,0.232,0.462
				c0.094,0.179,0.188,0.348,0.289,0.508c0.025,0.041,0.053,0.075,0.078,0.111c2.445,3.696,6.957,3.715,6.957,3.715h3.053v2.885
				c0,1.398,1.145,2.541,2.541,2.541h16.77c1.396,0,2.541-1.145,2.541-2.541v-3.521h0.387v-0.001h0.496
				c1.111,0,2.012-0.899,2.01-2.011l0.002-0.219c-0.002-1.111-0.9-2.008-2.012-2.008h-0.496h-3.252h-0.502
				c-1.107,0-2.006,0.9-2.006,2.01v0.221c0,1.107,0.898,2.008,2.008,2.008h1.596v1.361H27.77V27.193
				c0.92-0.582,1.771-1.144,2.258-1.521c2.461-1.9,4.797-3.417,5.113-4.792c0.412-1.784-0.957-3.287-3.332-2.053
				c-0.75,0.389-2.285,1.238-4.039,2.224v-4.495l18.314,0.002v8.236h-1.096l0,0h-0.498c-1.111,0-2.012,0.899-2.012,2.01v0.223
				c0,1.109,0.9,2.008,2.008,2.008h0.498h3.254h0.5c1.109,0,2.008-0.9,2.008-2.008V26.8C50.749,25.694,49.85,24.794,48.739,24.794z
				 M36.924,46.333c0.705,0,1.273,0.565,1.273,1.27c0,0.706-0.568,1.271-1.273,1.271c-0.701,0-1.268-0.565-1.268-1.271
				C35.659,46.902,36.225,46.333,36.924,46.333z M39.61,14.974h-5.365c-0.168,0-0.309-0.136-0.309-0.305
				c0-0.172,0.141-0.311,0.309-0.311h5.365c0.168,0,0.307,0.137,0.307,0.311C39.917,14.838,39.778,14.974,39.61,14.974z"/>
			<path fill="#314799" d="M48.737,34.824h-0.496h-3.752c-1.107,0-2.01,0.902-2.01,2.01v0.222c0,1.111,0.9,2.008,2.01,2.008h0.498
				h3.252h0.498c1.111,0,2.008-0.896,2.01-2.008v-0.222C50.747,35.727,49.85,34.824,48.737,34.824z"/>
		</g>
	</g>
</g>
</svg>
