<?xml version="1.0" encoding="utf-8"?>
<!-- Generator: Adobe Illustrator 15.0.0, SVG Export Plug-In . SVG Version: 6.00 Build 0)  -->
<!DOCTYPE svg PUBLIC "-//W3C//DTD SVG 1.1//EN" "http://www.w3.org/Graphics/SVG/1.1/DTD/svg11.dtd">
<svg version="1.1" id="Capa_1" xmlns="http://www.w3.org/2000/svg" xmlns:xlink="http://www.w3.org/1999/xlink" x="0px" y="0px"
	 width="65.204px" height="62.667px" viewBox="0 0 65.204 62.667" enable-background="new 0 0 65.204 62.667" xml:space="preserve">
<g>
	<g>
		<path fill="#FFFFFF" d="M269.539,5555.004l2.408,22.028l30.841-3.37l-2.408-22.029L269.539,5555.004z M300.183,5570.232
			l-5.208-6.862l-4.539,4.706l-4.514-5.947l-12.013,12.46l-1.926-17.623l26.434-2.889L300.183,5570.232z M274.788,5562.232
			c0.198,1.824,1.841,3.143,3.666,2.942c1.824-0.198,3.143-1.84,2.942-3.665c-0.199-1.824-1.84-3.143-3.665-2.943
			C275.906,5558.767,274.588,5560.406,274.788,5562.232z M295.492,5547.709l-30.84,3.371l2.408,22.029l2.203-0.24l-2.167-19.828
			l28.636-3.127L295.492,5547.709L295.492,5547.709z"/>
	</g>
</g>
<g>
	<g>
		<path fill="#314799" d="M24.763,43.413l4.986-11.736l0.959-1.067l-1.309,0.22h-5.596v-2.657h9.82v0.826l-6.098,14.415H24.763z"/>
	</g>
	<g>
		<path fill="#314799" d="M28.142,24.183c6.402,0,11.611,5.209,11.611,11.611c0,6.403-5.209,11.61-11.611,11.61
			c-6.4,0-11.607-5.212-11.607-11.612C16.535,29.39,21.742,24.183,28.142,24.183 M28.142,21.211c-8.047,0-14.58,6.532-14.58,14.583
			s6.533,14.579,14.58,14.579c8.051,0,14.584-6.532,14.584-14.581S36.193,21.211,28.142,21.211L28.142,21.211z"/>
	</g>
	<path fill="#314799" d="M41.517,12.294c-5.334,0-9.697,4.136-10.086,9.369c2.809,0.67,5.297,2.143,7.215,4.176
		c0.176-0.014,0.828,0.947,0.828,0.947c1.313,1.651,2.268,3.597,2.766,5.721c5.252-0.371,9.402-4.74,9.402-10.088
		C51.642,16.829,47.105,12.294,41.517,12.294z M44.294,24.584c-0.17,0.383-0.406,0.7-0.705,0.957
		c-0.303,0.253-0.658,0.443-1.064,0.572c-0.408,0.127-0.854,0.19-1.338,0.19c-0.379,0-0.744-0.032-1.09-0.096
		c-0.342-0.064-0.633-0.15-0.871-0.26l0.447-1.374c0.193,0.083,0.408,0.149,0.643,0.194c0.234,0.048,0.516,0.071,0.846,0.071
		c0.561,0,0.99-0.136,1.287-0.407s0.445-0.646,0.445-1.12c0-0.511-0.174-0.882-0.523-1.122c-0.348-0.237-1.446-0.355-2.093-0.355
		l-1.611,0.038v-4.54h4v1h-3v2.153l1.342-0.054c0.412,0.019,1.197,0.097,1.533,0.229c0.336,0.136,0.825,0.326,1.063,0.567
		c0.238,0.24,0.522,0.535,0.649,0.878c0.129,0.343,0.243,0.729,0.243,1.153C44.496,23.761,44.464,24.202,44.294,24.584z"/>
</g>
</svg>
