<?xml version="1.0" encoding="utf-8"?>
<!-- Generator: Adobe Illustrator 15.0.0, SVG Export Plug-In . SVG Version: 6.00 Build 0)  -->
<!DOCTYPE svg PUBLIC "-//W3C//DTD SVG 1.1//EN" "http://www.w3.org/Graphics/SVG/1.1/DTD/svg11.dtd">
<svg version="1.1" id="Capa_1" xmlns="http://www.w3.org/2000/svg" xmlns:xlink="http://www.w3.org/1999/xlink" x="0px" y="0px"
	 width="65.204px" height="62.667px" viewBox="0 0 65.204 62.667" enable-background="new 0 0 65.204 62.667" xml:space="preserve">
<g>
	<g>
		<path fill="#FFFFFF" d="M269.539,5555.004l2.408,22.028l30.841-3.37l-2.408-22.029L269.539,5555.004z M300.183,5570.232
			l-5.208-6.862l-4.539,4.706l-4.514-5.947l-12.013,12.46l-1.926-17.623l26.434-2.889L300.183,5570.232z M274.788,5562.232
			c0.198,1.824,1.841,3.143,3.666,2.942c1.824-0.198,3.143-1.84,2.942-3.665c-0.199-1.824-1.84-3.143-3.665-2.943
			C275.906,5558.767,274.588,5560.406,274.788,5562.232z M295.492,5547.709l-30.84,3.371l2.408,22.029l2.203-0.24l-2.167-19.828
			l28.636-3.127L295.492,5547.709L295.492,5547.709z"/>
	</g>
</g>
<g>
	<g>
		<g>
			<g>
				<path fill="#314799" d="M38.272,25.125c0-1.785,0.938-2.322,2.858-2.322c1.13,0,2.137,0.334,3.171,1.002
					c0.906,0.586,2.105,0.412,2.813-0.404l1.07-1.23c0.813-0.939,0.679-2.375-0.306-3.135c-1.426-1.102-3.073-1.902-5.053-2.217
					v-2.383c0-1.199-0.974-2.172-2.17-2.172h-0.659c-1.2,0-2.173,0.973-2.173,2.172v2.473c-4.332,0.938-6.874,4.063-6.874,8.574
					c0,7.814,11.52,8.307,11.52,11.879c0,1.742-0.894,2.502-3.127,2.502c-1.403,0-2.806-0.4-4.436-1.352
					c-1.001-0.584-2.292-0.266-2.917,0.713l-1.025,1.607c-0.654,1.027-0.339,2.4,0.707,3.027c1.961,1.174,4.235,1.842,6.152,2.076
					v2.295c0,1.199,0.973,2.172,2.173,2.172h0.659c1.196,0,2.17-0.973,2.17-2.172v-2.563c4.69-1.115,6.968-4.51,6.968-8.844
					C49.794,28.699,38.272,28.52,38.272,25.125z"/>
				<path fill="#314799" d="M16.278,34.229h1.738c0,0,0,2.574,0,8.652l0,0c0,4.152,3.366,7.521,7.521,7.521h3.534h1.595h3.183
					c0,0-6.35-1.443-6.35-7.521s0-8.652,0-8.652h1.737c0.772,0,1.161-0.934,0.613-1.482l-6.478-6.477c-0.34-0.34-0.891-0.34-1.229,0
					l-6.479,6.477C15.118,33.295,15.506,34.229,16.278,34.229z"/>
			</g>
		</g>
	</g>
</g>
</svg>
