<?xml version="1.0" encoding="utf-8"?>
<!-- Generator: Adobe Illustrator 15.0.0, SVG Export Plug-In . SVG Version: 6.00 Build 0)  -->
<!DOCTYPE svg PUBLIC "-//W3C//DTD SVG 1.1//EN" "http://www.w3.org/Graphics/SVG/1.1/DTD/svg11.dtd">
<svg version="1.1" id="Capa_1" xmlns="http://www.w3.org/2000/svg" xmlns:xlink="http://www.w3.org/1999/xlink" x="0px" y="0px"
	 width="65.204px" height="62.667px" viewBox="0 0 65.204 62.667" enable-background="new 0 0 65.204 62.667" xml:space="preserve">
<g>
	<g>
		<path fill="#FFFFFF" d="M269.539,5555.004l2.408,22.028l30.841-3.37l-2.408-22.029L269.539,5555.004z M300.183,5570.232
			l-5.208-6.862l-4.539,4.706l-4.514-5.947l-12.013,12.46l-1.926-17.623l26.434-2.889L300.183,5570.232z M274.788,5562.232
			c0.198,1.824,1.841,3.143,3.666,2.942c1.824-0.198,3.143-1.84,2.942-3.665c-0.199-1.824-1.84-3.143-3.665-2.943
			C275.906,5558.767,274.588,5560.406,274.788,5562.232z M295.492,5547.709l-30.84,3.371l2.408,22.029l2.203-0.24l-2.167-19.828
			l28.636-3.127L295.492,5547.709L295.492,5547.709z"/>
	</g>
</g>
<g>
	<g>
		<g>
			<path fill="#314799" d="M35.252,37.066h-0.953c-0.492,0-0.895-0.401-0.895-0.896c0-0.186,0.072-0.359,0.207-0.486
				c0.553-0.541,1.02-1.264,1.355-2.047c0.068,0.053,0.141,0.089,0.225,0.089c0.535,0,1.162-1.183,1.162-1.986
				c0-0.807-0.072-1.458-0.605-1.458c-0.068,0-0.135,0.008-0.201,0.027c-0.039-2.18-0.592-4.908-3.926-4.908
				c-3.479,0-3.885,2.72-3.924,4.902c-0.049-0.012-0.1-0.02-0.143-0.02c-0.535,0-0.609,0.652-0.609,1.457
				c0,0.804,0.629,1.986,1.162,1.986c0.066,0,0.129-0.02,0.184-0.052c0.338,0.767,0.799,1.479,1.344,2.01
				c0.131,0.128,0.203,0.306,0.203,0.488c0,0.494-0.398,0.896-0.893,0.896h-0.953c-2.035,0-3.688,1.651-3.688,3.688v1.023
				c0,0.644,0.521,1.164,1.164,1.164h12.309c0.641,0,1.162-0.521,1.162-1.164v-1.023C38.94,38.715,37.29,37.066,35.252,37.066z"/>
			<path fill="#314799" d="M46.292,26.946h-10.32c0.299,0.661,0.512,1.472,0.602,2.476c0.221,0.137,0.385,0.356,0.518,0.621h9.201
				c0.477,0,0.863-0.386,0.863-0.863v-1.368C47.157,27.333,46.768,26.946,46.292,26.946z"/>
			<path fill="#314799" d="M46.292,32.586h-8.988c-0.244,0.925-0.844,1.888-1.676,2.148c-0.025,0.043-0.055,0.083-0.078,0.129v0.819
				h10.74c0.479,0,0.865-0.387,0.865-0.862v-1.368C47.157,32.972,46.768,32.586,46.292,32.586z"/>
			<path fill="#314799" d="M46.292,38.224h-7.016c0.463,0.736,0.736,1.601,0.736,2.529v0.566h6.281c0.477,0,0.863-0.385,0.863-0.862
				v-1.368C47.157,38.612,46.768,38.224,46.292,38.224z"/>
			<path fill="#314799" d="M50,18.345H21.458c-2.928,0-5.301,2.371-5.301,5.301v21.051c0,2.926,2.373,5.301,5.301,5.301H50
				c2.928,0,5.301-2.375,5.301-5.301V23.646C55.301,20.716,52.928,18.345,50,18.345z M52.799,44.696
				c0,1.543-1.256,2.799-2.799,2.799H21.458c-1.543,0-2.799-1.256-2.799-2.799V23.646c0-1.543,1.256-2.799,2.799-2.799H50
				c1.545,0,2.801,1.256,2.801,2.799v21.051H52.799z"/>
			<path fill="#314799" d="M15.204,15.172h18.6h9.041h0.902c1.166,0,2.166,0.718,2.584,1.732h2.611
				c-0.496-2.418-2.633-4.235-5.195-4.235h-2.117h-7.074H15.204c-2.928,0-5.301,2.372-5.301,5.301v21.051
				c0,2.76,2.117,5.004,4.814,5.251v-2.504c-1.311-0.23-2.311-1.371-2.311-2.749V17.97C12.407,16.427,13.661,15.172,15.204,15.172z"
				/>
		</g>
	</g>
</g>
</svg>
