<?xml version="1.0" encoding="utf-8"?>
<!-- Generator: Adobe Illustrator 15.0.0, SVG Export Plug-In . SVG Version: 6.00 Build 0)  -->
<!DOCTYPE svg PUBLIC "-//W3C//DTD SVG 1.1//EN" "http://www.w3.org/Graphics/SVG/1.1/DTD/svg11.dtd">
<svg version="1.1" id="Capa_1" xmlns="http://www.w3.org/2000/svg" xmlns:xlink="http://www.w3.org/1999/xlink" x="0px" y="0px"
	 width="65.204px" height="62.667px" viewBox="0 0 65.204 62.667" enable-background="new 0 0 65.204 62.667" xml:space="preserve">
<g>
	<g>
		<path fill="#FFFFFF" d="M269.539,5555.004l2.408,22.028l30.841-3.37l-2.408-22.029L269.539,5555.004z M300.183,5570.232
			l-5.208-6.862l-4.539,4.706l-4.514-5.947l-12.013,12.46l-1.926-17.623l26.434-2.889L300.183,5570.232z M274.788,5562.232
			c0.198,1.824,1.841,3.143,3.666,2.942c1.824-0.198,3.143-1.84,2.942-3.665c-0.199-1.824-1.84-3.143-3.665-2.943
			C275.906,5558.767,274.588,5560.406,274.788,5562.232z M295.492,5547.709l-30.84,3.371l2.408,22.029l2.203-0.24l-2.167-19.828
			l28.636-3.127L295.492,5547.709L295.492,5547.709z"/>
	</g>
</g>
<g>
	<path fill="#314799" d="M24.694,31.804c0-1.021-0.707-1.631-1.959-1.631c-0.508,0-0.854,0.051-1.035,0.098v3.277
		c0.215,0.049,0.479,0.066,0.84,0.066C23.872,33.614,24.694,32.94,24.694,31.804z"/>
	<path fill="#314799" d="M32.43,30.208c-0.563,0-0.92,0.047-1.137,0.098v7.258c0.213,0.047,0.561,0.047,0.871,0.047
		c2.273,0.018,3.752-1.232,3.752-3.883C35.932,31.423,34.584,30.208,32.43,30.208z"/>
	<path fill="#314799" d="M47.252,25.94h-0.908v-4.385c0-0.027-0.006-0.055-0.01-0.084c-0.002-0.172-0.055-0.344-0.176-0.479
		l-7.303-8.344c0,0-0.004-0.004-0.006-0.006c-0.045-0.051-0.094-0.09-0.146-0.123c-0.016-0.012-0.033-0.021-0.049-0.029
		c-0.049-0.025-0.098-0.047-0.148-0.061c-0.012-0.006-0.025-0.012-0.041-0.016c-0.053-0.014-0.109-0.02-0.168-0.02H20.348
		c-0.818,0-1.484,0.666-1.484,1.484V25.94h-0.91c-1.172,0-2.123,0.953-2.123,2.125v11.041c0,1.172,0.951,2.121,2.123,2.121h0.91
		v7.559c0,0.818,0.666,1.484,1.484,1.484h24.51c0.818,0,1.486-0.666,1.486-1.484v-7.559h0.908c1.172,0,2.121-0.949,2.121-2.121
		V28.065C49.374,26.894,48.424,25.94,47.252,25.94z M20.348,13.882h17.205v7.6c0,0.408,0.334,0.742,0.744,0.742h6.561v3.721h-24.51
		V13.882z M38.584,33.647c0,2.121-0.775,3.584-1.846,4.49c-1.166,0.973-2.945,1.434-5.117,1.434c-1.299,0-2.219-0.084-2.846-0.166
		V28.511c0.922-0.146,2.125-0.229,3.389-0.229c2.107,0,3.473,0.379,4.541,1.184C37.86,30.321,38.584,31.687,38.584,33.647z
		 M19.215,39.454V28.511c0.771-0.131,1.859-0.229,3.391-0.229c1.545,0,2.646,0.295,3.387,0.891c0.709,0.557,1.186,1.479,1.186,2.563
		c0,1.088-0.361,2.012-1.02,2.637c-0.857,0.805-2.123,1.166-3.604,1.166c-0.328,0-0.625-0.016-0.855-0.049v3.965H19.215
		L19.215,39.454z M44.858,48.384h-24.51v-7.156h24.51V48.384L44.858,48.384z M47.01,30.421h-4.264v2.533h3.982v2.041h-3.982v4.459
		h-2.516v-11.09h6.779V30.421z"/>
</g>
</svg>
