<?xml version="1.0" encoding="utf-8"?>
<!-- Generator: Adobe Illustrator 15.0.0, SVG Export Plug-In . SVG Version: 6.00 Build 0)  -->
<!DOCTYPE svg PUBLIC "-//W3C//DTD SVG 1.1//EN" "http://www.w3.org/Graphics/SVG/1.1/DTD/svg11.dtd">
<svg version="1.1" id="Capa_1" xmlns="http://www.w3.org/2000/svg" xmlns:xlink="http://www.w3.org/1999/xlink" x="0px" y="0px"
	 width="52px" height="38px" viewBox="0 0 52 38" enable-background="new 0 0 52 38" xml:space="preserve">
<g>
	<rect x="7" y="4.234" fill="#BB0411" width="38.001" height="29.557"/>
	<path fill="#FFFFFF" d="M39.341,11.479c-0.756-0.313-1.629-0.14-2.207,0.439l-3.854,3.854v-2.35c0-1.672-1.356-3.03-3.031-3.03
		H13.644c-1.673,0-3.031,1.358-3.031,3.03v11.152c0,1.674,1.358,3.031,3.031,3.031H30.25c1.675,0,3.031-1.357,3.031-3.031v-2.351
		l3.854,3.856c0.389,0.385,0.906,0.592,1.433,0.592c0.26,0,0.523-0.051,0.774-0.154c0.754-0.313,1.247-1.051,1.247-1.867V13.348
		C40.588,12.529,40.095,11.792,39.341,11.479z M24.857,19.783l-4.133,3.175c-0.175,0.135-0.388,0.204-0.602,0.204
		c-0.149,0-0.298-0.033-0.437-0.102c-0.34-0.166-0.553-0.512-0.553-0.889v-6.347c0-0.377,0.213-0.721,0.553-0.886
		c0.338-0.17,0.739-0.129,1.038,0.103l4.133,3.172c0.242,0.187,0.386,0.479,0.386,0.783C25.243,19.306,25.099,19.597,24.857,19.783z
		"/>
</g>
</svg>
