<?xml version="1.0" encoding="utf-8"?>
<!-- Generator: Adobe Illustrator 15.0.0, SVG Export Plug-In . SVG Version: 6.00 Build 0)  -->
<!DOCTYPE svg PUBLIC "-//W3C//DTD SVG 1.1//EN" "http://www.w3.org/Graphics/SVG/1.1/DTD/svg11.dtd">
<svg version="1.1" id="Capa_1" xmlns="http://www.w3.org/2000/svg" xmlns:xlink="http://www.w3.org/1999/xlink" x="0px" y="0px"
	 width="322.5px" height="85.5px" viewBox="0 0 322.5 85.5" enable-background="new 0 0 322.5 85.5" xml:space="preserve">
<line fill="none" stroke="#004295" stroke-miterlimit="10" x1="21" y1="43.5" x2="299" y2="43.5"/>
<g>
	<g>
		<defs>
			<path id="SVGID_1_" d="M144.016,43.19c0,8.554,6.93,15.485,15.484,15.485c8.553,0,15.484-6.932,15.484-15.485
				c0-8.553-6.932-15.484-15.484-15.484C150.945,27.706,144.016,34.638,144.016,43.19"/>
		</defs>
		<clipPath id="SVGID_2_">
			<use xlink:href="#SVGID_1_"  overflow="visible"/>
		</clipPath>
		
			<radialGradient id="SVGID_3_" cx="-35.1909" cy="158.0674" r="0.5131" gradientTransform="matrix(-22.4369 27.3699 -26.1961 -21.4747 3512.385 4398.4385)" gradientUnits="userSpaceOnUse">
			<stop  offset="0" style="stop-color:#FFFFFF"/>
			<stop  offset="0.4404" style="stop-color:#FDFDFD"/>
			<stop  offset="0.599" style="stop-color:#F8F7F6"/>
			<stop  offset="0.7121" style="stop-color:#EEEBEB"/>
			<stop  offset="0.8035" style="stop-color:#E0DBDA"/>
			<stop  offset="0.8818" style="stop-color:#CDC6C4"/>
			<stop  offset="0.95" style="stop-color:#B7ACA9"/>
			<stop  offset="1" style="stop-color:#A29490"/>
		</radialGradient>
		<polygon clip-path="url(#SVGID_2_)" fill="url(#SVGID_3_)" points="156.463,12.521 128.831,46.229 162.536,73.862 190.168,40.153 
					"/>
	</g>
	<g>
		<defs>
			<path id="SVGID_4_" d="M144.016,43.19c0,8.554,6.93,15.485,15.484,15.485c8.553,0,15.484-6.932,15.484-15.485
				c0-8.553-6.932-15.484-15.484-15.484C150.945,27.706,144.016,34.638,144.016,43.19"/>
		</defs>
		<clipPath id="SVGID_5_">
			<use xlink:href="#SVGID_4_"  overflow="visible"/>
		</clipPath>
		<g clip-path="url(#SVGID_5_)">
			<g>
				<defs>
					<rect id="SVGID_6_" x="125.164" y="8.912" width="68.676" height="68.683"/>
				</defs>
				<clipPath id="SVGID_7_">
					<use xlink:href="#SVGID_6_"  overflow="visible"/>
				</clipPath>
				<g clip-path="url(#SVGID_7_)">
					<defs>
						<polygon id="SVGID_8_" points="159.643,52.733 159.643,53.885 160.309,53.885 160.309,52.997 160.851,52.477 161.487,53.11 
							159.502,55.097 157.518,53.11 158.15,52.475 158.691,52.997 158.691,53.885 159.338,53.885 159.338,52.733 158.15,51.531 
							156.571,53.11 159.028,55.568 158.5,56.099 158.97,56.568 159.502,56.04 160.031,56.568 160.503,56.099 159.973,55.568 
							162.431,53.11 160.851,51.531 						"/>
					</defs>
					<clipPath id="SVGID_9_">
						<use xlink:href="#SVGID_8_"  overflow="visible"/>
					</clipPath>
					
						<radialGradient id="SVGID_10_" cx="-33.8867" cy="163.2617" r="0.5135" gradientTransform="matrix(0 11.2855 -17.934 0 3087.468 433.5874)" gradientUnits="userSpaceOnUse">
						<stop  offset="0" style="stop-color:#F05B22"/>
						<stop  offset="0.5" style="stop-color:#EC1C24"/>
						<stop  offset="0.7204" style="stop-color:#EA1C23"/>
						<stop  offset="0.801" style="stop-color:#E31A22"/>
						<stop  offset="0.8587" style="stop-color:#D7171E"/>
						<stop  offset="0.9054" style="stop-color:#C61419"/>
						<stop  offset="0.9455" style="stop-color:#B00F13"/>
						<stop  offset="0.9804" style="stop-color:#96090B"/>
						<stop  offset="1" style="stop-color:#830506"/>
					</radialGradient>
					<rect x="156.571" y="51.531" clip-path="url(#SVGID_9_)" fill="url(#SVGID_10_)" width="5.859" height="5.037"/>
				</g>
				<g clip-path="url(#SVGID_7_)">
					<defs>
						<path id="SVGID_11_" d="M160.305,30.496l0.492,0.492l0.492-0.492l-0.492-0.493L160.305,30.496z M157.755,30.401l1.12,1.097
							l0.016,1.518l-1.203,1.219l0.492,0.471h2.185v-0.696h-1.468l1.9-1.901l0.274,0.274l-0.397,0.396l0.495,0.491l0.888-0.888
							l-1.26-1.257l-1.228,1.225l-0.015-1.133l-1.307-1.308L157.755,30.401z M158.85,29.837c0,0.28,0.229,0.511,0.51,0.511
							c0.283,0,0.51-0.23,0.51-0.511c0-0.282-0.227-0.51-0.51-0.51C159.078,29.327,158.85,29.555,158.85,29.837"/>
					</defs>
					<clipPath id="SVGID_12_">
						<use xlink:href="#SVGID_11_"  overflow="visible"/>
					</clipPath>
					
						<radialGradient id="SVGID_13_" cx="-44.0767" cy="152.5566" r="0.5141" gradientTransform="matrix(-0.0186 -13.5392 30.8157 -0.0424 -4542.3818 -555.5283)" gradientUnits="userSpaceOnUse">
						<stop  offset="0" style="stop-color:#0071BB"/>
						<stop  offset="0.3" style="stop-color:#0061A7"/>
						<stop  offset="0.6938" style="stop-color:#0260A5"/>
						<stop  offset="0.8373" style="stop-color:#085A9E"/>
						<stop  offset="0.9395" style="stop-color:#145192"/>
						<stop  offset="1" style="stop-color:#1F4887"/>
					</radialGradient>
					<polygon clip-path="url(#SVGID_12_)" fill="url(#SVGID_13_)" points="162.063,34.705 162.057,29.321 157.68,29.327 
						157.688,34.711 					"/>
				</g>
				<g clip-path="url(#SVGID_7_)">
					<defs>
						<polygon id="SVGID_14_" points="140.359,30.243 144.297,37.973 152.863,36.617 154.221,28.049 146.49,24.111 						"/>
					</defs>
					<clipPath id="SVGID_15_">
						<use xlink:href="#SVGID_14_"  overflow="visible"/>
					</clipPath>
					
						<radialGradient id="SVGID_16_" cx="-36.1777" cy="149.8594" r="0.5136" gradientTransform="matrix(-8.3742 -8.3742 13.9294 -13.9294 -2237.5291 1821.0857)" gradientUnits="userSpaceOnUse">
						<stop  offset="0" style="stop-color:#00B8F1"/>
						<stop  offset="0.5" style="stop-color:#00ADEE"/>
						<stop  offset="0.759" style="stop-color:#00ABEC"/>
						<stop  offset="0.8534" style="stop-color:#00A5E5"/>
						<stop  offset="0.9209" style="stop-color:#009BD9"/>
						<stop  offset="0.9751" style="stop-color:#008CC9"/>
						<stop  offset="1" style="stop-color:#0083BE"/>
					</radialGradient>
					<polygon clip-path="url(#SVGID_15_)" fill="url(#SVGID_16_)" points="161.15,31.042 147.291,17.181 133.43,31.042 
						147.291,44.902 					"/>
				</g>
				<g clip-path="url(#SVGID_7_)">
					<defs>
						<polygon id="SVGID_17_" points="166.139,49.891 164.779,58.459 172.509,62.396 178.643,56.264 174.705,48.534 						"/>
					</defs>
					<clipPath id="SVGID_18_">
						<use xlink:href="#SVGID_17_"  overflow="visible"/>
					</clipPath>
					
						<radialGradient id="SVGID_19_" cx="-42.7769" cy="163.1855" r="0.5136" gradientTransform="matrix(8.2145 8.5387 -14.2031 13.6637 2835.2327 -1814.5891)" gradientUnits="userSpaceOnUse">
						<stop  offset="0" style="stop-color:#F05B22"/>
						<stop  offset="0.5" style="stop-color:#EC1C24"/>
						<stop  offset="0.7204" style="stop-color:#EA1C23"/>
						<stop  offset="0.801" style="stop-color:#E31A22"/>
						<stop  offset="0.8587" style="stop-color:#D7171E"/>
						<stop  offset="0.9054" style="stop-color:#C61419"/>
						<stop  offset="0.9455" style="stop-color:#B00F13"/>
						<stop  offset="0.9804" style="stop-color:#96090B"/>
						<stop  offset="1" style="stop-color:#830506"/>
					</radialGradient>
					<polygon clip-path="url(#SVGID_18_)" fill="url(#SVGID_19_)" points="157.853,55.196 171.442,69.325 185.568,55.733 
						171.979,41.607 					"/>
				</g>
				<g clip-path="url(#SVGID_7_)">
					<defs>
						<polygon id="SVGID_20_" points="140.359,56.264 146.49,62.396 154.221,58.459 152.863,49.891 144.297,48.534 						"/>
					</defs>
					<clipPath id="SVGID_21_">
						<use xlink:href="#SVGID_20_"  overflow="visible"/>
					</clipPath>
					
						<radialGradient id="SVGID_22_" cx="-28.5352" cy="158.4883" r="0.5136" gradientTransform="matrix(-8.3778 8.3778 -14.2849 -14.2849 2177.7905 2552.8489)" gradientUnits="userSpaceOnUse">
						<stop  offset="0" style="stop-color:#FFDD00"/>
						<stop  offset="0.5" style="stop-color:#FCB813"/>
						<stop  offset="0.759" style="stop-color:#FBB613"/>
						<stop  offset="0.8534" style="stop-color:#F5AF14"/>
						<stop  offset="0.9209" style="stop-color:#ECA315"/>
						<stop  offset="0.9751" style="stop-color:#DF9317"/>
						<stop  offset="1" style="stop-color:#D78818"/>
					</radialGradient>
					<polygon clip-path="url(#SVGID_21_)" fill="url(#SVGID_22_)" points="147.291,41.604 133.429,55.466 147.291,69.329 
						161.152,55.466 					"/>
				</g>
				<g clip-path="url(#SVGID_7_)">
					<defs>
						<polygon id="SVGID_23_" points="164.779,28.049 166.139,36.617 174.705,37.973 178.643,30.243 172.509,24.111 						"/>
					</defs>
					<clipPath id="SVGID_24_">
						<use xlink:href="#SVGID_23_"  overflow="visible"/>
					</clipPath>
					
						<radialGradient id="SVGID_25_" cx="-50.5996" cy="154.5107" r="0.5136" gradientTransform="matrix(8.3783 -8.3783 14.2856 14.2856 -1617.0846 -2594.5715)" gradientUnits="userSpaceOnUse">
						<stop  offset="0" style="stop-color:#98C93C"/>
						<stop  offset="0.5" style="stop-color:#77B543"/>
						<stop  offset="0.7475" style="stop-color:#75B343"/>
						<stop  offset="0.8388" style="stop-color:#6EAE41"/>
						<stop  offset="0.9043" style="stop-color:#62A43E"/>
						<stop  offset="0.9571" style="stop-color:#529539"/>
						<stop  offset="1" style="stop-color:#3D8434"/>
					</radialGradient>
					<polygon clip-path="url(#SVGID_24_)" fill="url(#SVGID_25_)" points="171.711,44.904 185.573,31.042 171.711,17.18 
						157.85,31.042 					"/>
				</g>
				<g clip-path="url(#SVGID_7_)">
					<defs>
						<rect id="SVGID_26_" x="130.883" y="14.635" width="57.234" height="57.238"/>
					</defs>
					<clipPath id="SVGID_27_">
						<use xlink:href="#SVGID_26_"  overflow="visible"/>
					</clipPath>
					<polygon clip-path="url(#SVGID_27_)" fill="#FFFFFF" points="144.146,20.655 153.27,25.305 151.668,35.418 141.555,37.022 
						136.906,27.896 					"/>
					<polygon clip-path="url(#SVGID_27_)" fill="#FFFFFF" points="174.856,65.851 165.73,61.2 167.334,51.089 177.448,49.488 
						182.096,58.609 					"/>
					<polygon clip-path="url(#SVGID_27_)" fill="#FFFFFF" points="144.146,65.851 153.27,61.2 151.668,51.089 141.555,49.488 
						136.906,58.609 					"/>
					<polygon clip-path="url(#SVGID_27_)" fill="#FFFFFF" points="174.856,20.655 165.73,25.305 167.334,35.418 177.448,37.022 
						182.096,27.896 					"/>
				</g>
				<g clip-path="url(#SVGID_7_)">
					<defs>
						<polygon id="SVGID_28_" points="134.293,26.117 139.479,36.298 150.762,34.51 152.547,23.228 142.369,18.042 						"/>
					</defs>
					<clipPath id="SVGID_29_">
						<use xlink:href="#SVGID_28_"  overflow="visible"/>
					</clipPath>
					
						<radialGradient id="SVGID_30_" cx="-34.1006" cy="147.1182" r="0.5137" gradientTransform="matrix(-4.3093 -4.3093 9.8079 -9.8079 -1439.1118 1330.4882)" gradientUnits="userSpaceOnUse">
						<stop  offset="0" style="stop-color:#0071BB"/>
						<stop  offset="0.3" style="stop-color:#0061A7"/>
						<stop  offset="0.6938" style="stop-color:#0260A5"/>
						<stop  offset="0.8373" style="stop-color:#085A9E"/>
						<stop  offset="0.9395" style="stop-color:#145192"/>
						<stop  offset="1" style="stop-color:#1F4887"/>
					</radialGradient>
					<polygon clip-path="url(#SVGID_29_)" fill="url(#SVGID_30_)" points="161.676,27.17 143.42,8.913 125.164,27.17 143.42,45.427 
											"/>
				</g>
				<g clip-path="url(#SVGID_7_)">
					<defs>
						<polygon id="SVGID_31_" points="168.242,51.995 166.453,63.277 176.635,68.466 184.711,60.388 179.523,50.208 						"/>
					</defs>
					<clipPath id="SVGID_32_">
						<use xlink:href="#SVGID_31_"  overflow="visible"/>
					</clipPath>
					
						<radialGradient id="SVGID_33_" cx="-46.9917" cy="166.0205" r="0.5137" gradientTransform="matrix(4.2252 4.3919 -9.9962 9.6166 2026.3335 -1338.207)" gradientUnits="userSpaceOnUse">
						<stop  offset="0" style="stop-color:#B01117"/>
						<stop  offset="0.3" style="stop-color:#9D0B0F"/>
						<stop  offset="0.65" style="stop-color:#9B0B0F"/>
						<stop  offset="0.7761" style="stop-color:#94090D"/>
						<stop  offset="0.8659" style="stop-color:#89070A"/>
						<stop  offset="0.9381" style="stop-color:#780406"/>
						<stop  offset="1" style="stop-color:#620000"/>
					</radialGradient>
					<polygon clip-path="url(#SVGID_32_)" fill="url(#SVGID_33_)" points="157.331,58.983 175.229,77.589 193.832,59.689 
						175.935,41.086 					"/>
				</g>
				<g clip-path="url(#SVGID_7_)">
					<defs>
						<polygon id="SVGID_34_" points="134.293,60.388 142.369,68.466 152.547,63.277 150.762,51.995 139.479,50.208 						"/>
					</defs>
					<clipPath id="SVGID_35_">
						<use xlink:href="#SVGID_34_"  overflow="visible"/>
					</clipPath>
					
						<radialGradient id="SVGID_36_" cx="-19.5938" cy="159.3525" r="0.5137" gradientTransform="matrix(-4.3515 4.3515 -10.0961 -10.0961 1674.3156 1746.0347)" gradientUnits="userSpaceOnUse">
						<stop  offset="0" style="stop-color:#F58A1F"/>
						<stop  offset="0.3" style="stop-color:#F37A20"/>
						<stop  offset="0.641" style="stop-color:#F17820"/>
						<stop  offset="0.7653" style="stop-color:#EA731F"/>
						<stop  offset="0.854" style="stop-color:#DE681D"/>
						<stop  offset="0.926" style="stop-color:#CE5A1A"/>
						<stop  offset="0.9869" style="stop-color:#B84716"/>
						<stop  offset="1" style="stop-color:#B24215"/>
					</radialGradient>
					<polygon clip-path="url(#SVGID_35_)" fill="url(#SVGID_36_)" points="143.42,41.08 125.164,59.337 143.42,77.595 
						161.676,59.337 					"/>
				</g>
				<g clip-path="url(#SVGID_7_)">
					<defs>
						<polygon id="SVGID_37_" points="166.453,23.228 168.242,34.51 179.523,36.298 184.711,26.117 176.635,18.042 						"/>
					</defs>
					<clipPath id="SVGID_38_">
						<use xlink:href="#SVGID_37_"  overflow="visible"/>
					</clipPath>
					
						<radialGradient id="SVGID_39_" cx="-61.9502" cy="153.6895" r="0.5136" gradientTransform="matrix(4.3524 -4.3524 10.0983 10.0983 -1114.0994 -1787.1111)" gradientUnits="userSpaceOnUse">
						<stop  offset="0" style="stop-color:#388446"/>
						<stop  offset="0.3" style="stop-color:#007447"/>
						<stop  offset="0.6855" style="stop-color:#007246"/>
						<stop  offset="0.8251" style="stop-color:#006B41"/>
						<stop  offset="0.9245" style="stop-color:#00603A"/>
						<stop  offset="1" style="stop-color:#005030"/>
					</radialGradient>
					<polygon clip-path="url(#SVGID_38_)" fill="url(#SVGID_39_)" points="175.582,45.428 193.84,27.17 175.582,8.912 
						157.324,27.17 					"/>
				</g>
				<g clip-path="url(#SVGID_7_)">
					<defs>
						<rect id="SVGID_40_" x="130.883" y="14.635" width="57.234" height="57.238"/>
					</defs>
					<clipPath id="SVGID_41_">
						<use xlink:href="#SVGID_40_"  overflow="visible"/>
					</clipPath>
					<polygon clip-path="url(#SVGID_41_)" fill="#FFFFFF" points="140.054,14.635 151.607,20.521 149.582,33.329 136.771,35.357 
						130.883,23.805 					"/>
					<polygon clip-path="url(#SVGID_41_)" fill="#FFFFFF" points="178.947,71.873 167.393,65.985 169.42,53.175 182.229,51.148 
						188.117,62.703 					"/>
					<polygon clip-path="url(#SVGID_41_)" fill="#FFFFFF" points="140.054,71.873 151.607,65.986 149.582,53.175 136.771,51.148 
						130.883,62.703 					"/>
					<polygon clip-path="url(#SVGID_41_)" fill="#FFFFFF" points="178.947,14.635 167.393,20.521 169.42,33.329 182.229,35.357 
						188.117,23.805 					"/>
				</g>
				<g clip-path="url(#SVGID_7_)">
					<defs>
						<path id="SVGID_42_" d="M147.928,45.315c0,0.279,0.227,0.509,0.509,0.509c0.279,0,0.507-0.229,0.507-0.509
							c0-0.281-0.228-0.508-0.507-0.508C148.154,44.808,147.928,45.034,147.928,45.315 M145.422,42.379l0.885,0.883l0.449-0.454
							l-0.389-0.392l0.264-0.268l0.653,0.653l-1.966,1.978l0.491,0.489l1.528-1.54l-0.383,1.641h0.697l0.576-2.605l-1.598-1.595
							L145.422,42.379z M148.641,42.764l0.58,2.605h0.695l-0.381-1.641l1.527,1.54l0.49-0.489l-1.965-1.978l0.654-0.653l0.264,0.268
							l-0.391,0.392l0.449,0.454l0.885-0.883l-1.207-1.21L148.641,42.764z M146.838,40.96l0.49,0.491l0.489-0.491l-0.489-0.489
							L146.838,40.96z M149.055,40.96l0.488,0.491l0.49-0.491l-0.49-0.489L149.055,40.96z"/>
					</defs>
					<clipPath id="SVGID_43_">
						<use xlink:href="#SVGID_42_"  overflow="visible"/>
					</clipPath>
					
						<radialGradient id="SVGID_44_" cx="-31.1616" cy="153.6836" r="0.5136" gradientTransform="matrix(-14.8457 0 0 -22.6915 -310.9518 3530.5566)" gradientUnits="userSpaceOnUse">
						<stop  offset="0" style="stop-color:#F58A1F"/>
						<stop  offset="0.3" style="stop-color:#F37A20"/>
						<stop  offset="0.641" style="stop-color:#F17820"/>
						<stop  offset="0.7653" style="stop-color:#EA731F"/>
						<stop  offset="0.854" style="stop-color:#DE681D"/>
						<stop  offset="0.926" style="stop-color:#CE5A1A"/>
						<stop  offset="0.9869" style="stop-color:#B84716"/>
						<stop  offset="1" style="stop-color:#B24215"/>
					</radialGradient>
					<rect x="145.318" y="40.471" clip-path="url(#SVGID_43_)" fill="url(#SVGID_44_)" width="6.234" height="5.354"/>
				</g>
				<g clip-path="url(#SVGID_7_)">
					<defs>
						<polygon id="SVGID_45_" points="154.385,43.192 154.385,43.192 149.973,47.604 154.389,48.304 156.943,45.748 156.941,45.748 
							164.608,38.081 163.91,33.664 						"/>
					</defs>
					<clipPath id="SVGID_46_">
						<use xlink:href="#SVGID_45_"  overflow="visible"/>
					</clipPath>
					
						<linearGradient id="SVGID_47_" gradientUnits="userSpaceOnUse" x1="-41.9897" y1="155.5244" x2="-41.4758" y2="155.5244" gradientTransform="matrix(27.1382 -27.1382 27.1382 27.1382 -2930.7947 -5312.2373)">
						<stop  offset="0" style="stop-color:#00B9F1"/>
						<stop  offset="0.1104" style="stop-color:#00ADEE"/>
						<stop  offset="0.4233" style="stop-color:#32327B"/>
						<stop  offset="0.6135" style="stop-color:#820406"/>
						<stop  offset="0.8834" style="stop-color:#EC1C24"/>
						<stop  offset="1" style="stop-color:#F05B22"/>
					</linearGradient>
					<polygon clip-path="url(#SVGID_46_)" fill="url(#SVGID_47_)" points="157.291,55.621 171.928,40.984 157.291,26.347 
						142.654,40.984 					"/>
				</g>
				<g clip-path="url(#SVGID_7_)">
					<defs>
						<polygon id="SVGID_48_" points="156.943,45.75 156.943,45.748 154.389,48.304 155.087,52.715 159.497,48.306 159.5,48.306 
							169.025,38.778 164.611,38.081 						"/>
					</defs>
					<clipPath id="SVGID_49_">
						<use xlink:href="#SVGID_48_"  overflow="visible"/>
					</clipPath>
					
						<linearGradient id="SVGID_50_" gradientUnits="userSpaceOnUse" x1="-41.9941" y1="155.375" x2="-41.4805" y2="155.375" gradientTransform="matrix(27.0322 -27.0322 27.0322 27.0322 -2910.1655 -5282.9878)">
						<stop  offset="0" style="stop-color:#00ADEE"/>
						<stop  offset="0.3865" style="stop-color:#32327B"/>
						<stop  offset="0.6933" style="stop-color:#820406"/>
						<stop  offset="1" style="stop-color:#D71921"/>
					</linearGradient>
					<polygon clip-path="url(#SVGID_49_)" fill="url(#SVGID_50_)" points="161.707,60.035 176.344,45.398 161.707,30.762 
						147.07,45.398 					"/>
				</g>
				<g clip-path="url(#SVGID_7_)">
					<defs>
						<polygon id="SVGID_51_" points="149.973,38.776 154.385,43.188 154.385,43.19 163.91,52.715 164.608,48.304 156.941,40.635 
							156.943,40.635 154.389,38.077 						"/>
					</defs>
					<clipPath id="SVGID_52_">
						<use xlink:href="#SVGID_51_"  overflow="visible"/>
					</clipPath>
					
						<linearGradient id="SVGID_53_" gradientUnits="userSpaceOnUse" x1="-39.6548" y1="159.8184" x2="-39.1413" y2="159.8184" gradientTransform="matrix(27.1513 27.1513 -27.1513 27.1513 5566.2842 -3224.1316)">
						<stop  offset="0" style="stop-color:#00B9F1"/>
						<stop  offset="0.1104" style="stop-color:#00ADEE"/>
						<stop  offset="0.4233" style="stop-color:#32327B"/>
						<stop  offset="0.6135" style="stop-color:#820406"/>
						<stop  offset="0.8528" style="stop-color:#EC1C24"/>
						<stop  offset="1" style="stop-color:#F05B22"/>
					</linearGradient>
					<polygon clip-path="url(#SVGID_52_)" fill="url(#SVGID_53_)" points="142.654,45.396 157.291,60.034 171.928,45.396 
						157.291,30.759 					"/>
				</g>
				<g clip-path="url(#SVGID_7_)">
					<defs>
						<polygon id="SVGID_54_" points="154.389,38.077 156.943,40.635 156.943,40.633 164.611,48.301 169.025,47.602 159.5,38.075 
							159.497,38.076 155.087,33.664 						"/>
					</defs>
					<clipPath id="SVGID_55_">
						<use xlink:href="#SVGID_54_"  overflow="visible"/>
					</clipPath>
					
						<linearGradient id="SVGID_56_" gradientUnits="userSpaceOnUse" x1="-39.6489" y1="159.9785" x2="-39.1352" y2="159.9785" gradientTransform="matrix(27.1388 27.1388 -27.1388 27.1388 5572.3433 -3231.5754)">
						<stop  offset="0" style="stop-color:#00ADEE"/>
						<stop  offset="0.3865" style="stop-color:#32327B"/>
						<stop  offset="0.6864" style="stop-color:#820406"/>
						<stop  offset="1" style="stop-color:#D71921"/>
					</linearGradient>
					<polygon clip-path="url(#SVGID_55_)" fill="url(#SVGID_56_)" points="147.07,40.983 161.707,55.62 176.345,40.983 
						161.707,26.346 					"/>
				</g>
				<g clip-path="url(#SVGID_7_)">
					<defs>
						<rect id="SVGID_57_" x="130.883" y="14.635" width="57.234" height="57.238"/>
					</defs>
					<clipPath id="SVGID_58_">
						<use xlink:href="#SVGID_57_"  overflow="visible"/>
					</clipPath>
					
						<rect x="157.689" y="43.936" transform="matrix(-0.7071 0.7071 -0.7071 -0.7071 304.6245 -34.6913)" clip-path="url(#SVGID_58_)" fill="#A72C31" width="3.617" height="3.616"/>
					<g opacity="0.15" clip-path="url(#SVGID_58_)">
						<g>
							<defs>
								<rect id="SVGID_59_" x="154.385" y="40.633" width="5.112" height="5.111"/>
							</defs>
							<clipPath id="SVGID_60_">
								<use xlink:href="#SVGID_59_"  overflow="visible"/>
							</clipPath>
							<g clip-path="url(#SVGID_60_)">
								<defs>
									<rect id="SVGID_61_" x="154.385" y="40.634" width="5.112" height="5.11"/>
								</defs>
								<clipPath id="SVGID_62_">
									<use xlink:href="#SVGID_61_"  overflow="visible"/>
								</clipPath>
								
									<rect x="155.134" y="41.381" transform="matrix(-0.7071 0.7071 -0.7071 -0.7071 298.4543 -37.2478)" clip-path="url(#SVGID_62_)" fill="#ED2424" width="3.616" height="3.614"/>
							</g>
						</g>
					</g>
					
						<rect x="157.69" y="38.824" transform="matrix(-0.7075 0.7067 -0.7067 -0.7075 301.0577 -43.3375)" clip-path="url(#SVGID_58_)" fill="#204689" width="3.615" height="3.616"/>
					<g opacity="0.3" clip-path="url(#SVGID_58_)">
						<g>
							<defs>
								<rect id="SVGID_63_" x="159.497" y="40.633" width="5.111" height="5.111"/>
							</defs>
							<clipPath id="SVGID_64_">
								<use xlink:href="#SVGID_63_"  overflow="visible"/>
							</clipPath>
							<g clip-path="url(#SVGID_64_)">
								<defs>
									<rect id="SVGID_65_" x="159.497" y="40.634" width="5.111" height="5.11"/>
								</defs>
								<clipPath id="SVGID_66_">
									<use xlink:href="#SVGID_65_"  overflow="visible"/>
								</clipPath>
								
									<rect x="160.247" y="41.382" transform="matrix(-0.707 0.7072 -0.7072 -0.707 307.1671 -40.8912)" clip-path="url(#SVGID_66_)" fill="#2E3191" width="3.615" height="3.613"/>
							</g>
						</g>
					</g>
					<polygon clip-path="url(#SVGID_58_)" fill="#FFFFFF" points="159.5,39.49 160.334,42.06 163.029,42.06 160.85,43.643 
						161.682,46.208 159.5,44.624 157.314,46.208 158.151,43.643 155.967,42.06 158.664,42.06 					"/>
				</g>
				<g clip-path="url(#SVGID_7_)">
					<defs>
						<path id="SVGID_67_" d="M171.754,40.916v1.133h-2.631v-1.133h-0.659v1.789h1.645v0.659h-0.985l-0.443,2.091l0.754-0.001
							l0.28-1.434h1.446l0.279,1.434h0.755l-0.44-2.09h-0.986v-0.659h1.643v-1.789H171.754z M169.852,41.314l0.586,0.588
							l0.587-0.587l-0.587-0.586L169.852,41.314z"/>
					</defs>
					<clipPath id="SVGID_68_">
						<use xlink:href="#SVGID_67_"  overflow="visible"/>
					</clipPath>
					
						<radialGradient id="SVGID_69_" cx="-51.6992" cy="160.2432" r="0.5135" gradientTransform="matrix(10.0783 0 0 17.1843 689.4436 -2710.7861)" gradientUnits="userSpaceOnUse">
						<stop  offset="0" style="stop-color:#98C93C"/>
						<stop  offset="0.5" style="stop-color:#77B543"/>
						<stop  offset="0.7488" style="stop-color:#75B343"/>
						<stop  offset="0.8397" style="stop-color:#6EAE41"/>
						<stop  offset="0.9048" style="stop-color:#62A43E"/>
						<stop  offset="0.9572" style="stop-color:#529539"/>
						<stop  offset="1" style="stop-color:#3D8434"/>
					</radialGradient>
					<rect x="168.464" y="40.729" clip-path="url(#SVGID_68_)" fill="url(#SVGID_69_)" width="3.946" height="4.726"/>
				</g>
			</g>
		</g>
	</g>
</g>
<circle fill="#004295" cx="23.001" cy="43.289" r="2.667"/>
<circle fill="#004295" cx="299.001" cy="43.289" r="2.667"/>
</svg>
