<?xml version="1.0" encoding="utf-8"?>
<!-- Generator: Adobe Illustrator 15.0.0, SVG Export Plug-In . SVG Version: 6.00 Build 0)  -->
<!DOCTYPE svg PUBLIC "-//W3C//DTD SVG 1.1//EN" "http://www.w3.org/Graphics/SVG/1.1/DTD/svg11.dtd">
<svg version="1.1" id="Capa_1" xmlns="http://www.w3.org/2000/svg" xmlns:xlink="http://www.w3.org/1999/xlink" x="0px" y="0px"
	 width="148px" height="52.408px" viewBox="0 0 148 52.408" enable-background="new 0 0 148 52.408" xml:space="preserve">
<g>
	<g>
		<defs>
			<path id="SVGID_1_" d="M106.677,27.701c0,10.287,8.282,18.623,18.506,18.623c10.222,0,18.507-8.336,18.507-18.623
				s-8.285-18.623-18.507-18.623C114.959,9.078,106.677,17.414,106.677,27.701"/>
		</defs>
		<clipPath id="SVGID_2_">
			<use xlink:href="#SVGID_1_"  overflow="visible"/>
		</clipPath>
		
			<radialGradient id="SVGID_3_" cx="180.8979" cy="182.2407" r="0.6174" gradientTransform="matrix(-22.2977 27.3699 -26.0335 -21.4747 8905.209 -1012.7473)" gradientUnits="userSpaceOnUse">
			<stop  offset="0" style="stop-color:#FFFFFF"/>
			<stop  offset="0.4404" style="stop-color:#FDFDFD"/>
			<stop  offset="0.599" style="stop-color:#F8F7F6"/>
			<stop  offset="0.7121" style="stop-color:#EEEBEB"/>
			<stop  offset="0.8035" style="stop-color:#E0DBDA"/>
			<stop  offset="0.8818" style="stop-color:#CDC6C4"/>
			<stop  offset="0.95" style="stop-color:#B7ACA9"/>
			<stop  offset="1" style="stop-color:#A29490"/>
		</radialGradient>
		<polygon clip-path="url(#SVGID_2_)" fill="url(#SVGID_3_)" points="121.553,-9.182 88.528,31.355 128.813,64.587 161.838,24.048 
					"/>
	</g>
	<g>
		<defs>
			<path id="SVGID_4_" d="M106.677,27.701c0,10.287,8.282,18.623,18.506,18.623c10.222,0,18.507-8.336,18.507-18.623
				s-8.285-18.623-18.507-18.623C114.959,9.078,106.677,17.414,106.677,27.701"/>
		</defs>
		<clipPath id="SVGID_5_">
			<use xlink:href="#SVGID_4_"  overflow="visible"/>
		</clipPath>
		<g clip-path="url(#SVGID_5_)">
			<g>
				<defs>
					<rect id="SVGID_6_" x="84.146" y="-13.524" width="82.081" height="82.602"/>
				</defs>
				<clipPath id="SVGID_7_">
					<use xlink:href="#SVGID_6_"  overflow="visible"/>
				</clipPath>
				<g clip-path="url(#SVGID_7_)">
					<defs>
						<polygon id="SVGID_8_" points="125.354,39.177 125.354,40.562 126.149,40.562 126.149,39.494 126.797,38.869 127.559,39.63 
							125.185,42.019 122.813,39.63 123.569,38.867 124.218,39.494 124.218,40.562 124.99,40.562 124.99,39.177 123.569,37.732 
							121.683,39.63 124.619,42.587 123.986,43.224 124.55,43.791 125.185,43.154 125.819,43.791 126.382,43.224 125.747,42.587 
							128.686,39.63 126.797,37.732 						"/>
					</defs>
					<clipPath id="SVGID_9_">
						<use xlink:href="#SVGID_8_"  overflow="visible"/>
					</clipPath>
					
						<radialGradient id="SVGID_10_" cx="175.3418" cy="195.689" r="0.6171" gradientTransform="matrix(0 11.2855 -17.8227 0 3612.9199 -1941.5308)" gradientUnits="userSpaceOnUse">
						<stop  offset="0" style="stop-color:#F05B22"/>
						<stop  offset="0.5" style="stop-color:#EC1C24"/>
						<stop  offset="0.7204" style="stop-color:#EA1C23"/>
						<stop  offset="0.801" style="stop-color:#E31A22"/>
						<stop  offset="0.8587" style="stop-color:#D7171E"/>
						<stop  offset="0.9054" style="stop-color:#C61419"/>
						<stop  offset="0.9455" style="stop-color:#B00F13"/>
						<stop  offset="0.9804" style="stop-color:#96090B"/>
						<stop  offset="1" style="stop-color:#830506"/>
					</radialGradient>
					<rect x="121.683" y="37.732" clip-path="url(#SVGID_9_)" fill="url(#SVGID_10_)" width="7.003" height="6.059"/>
				</g>
				<g clip-path="url(#SVGID_7_)">
					<defs>
						<path id="SVGID_11_" d="M126.145,12.433l0.589,0.592l0.588-0.592l-0.588-0.592L126.145,12.433z M123.098,12.32l1.34,1.32
							l0.018,1.824l-1.438,1.465l0.588,0.566h2.611v-0.838h-1.753l2.271-2.285l0.328,0.33l-0.475,0.477l0.591,0.59l1.062-1.066
							l-1.506-1.512l-1.468,1.473l-0.018-1.363l-1.561-1.572L123.098,12.32z M124.406,11.642c0,0.336,0.273,0.613,0.609,0.613
							c0.339,0,0.609-0.277,0.609-0.613c0-0.34-0.271-0.613-0.609-0.613C124.68,11.029,124.406,11.302,124.406,11.642"/>
					</defs>
					<clipPath id="SVGID_12_">
						<use xlink:href="#SVGID_11_"  overflow="visible"/>
					</clipPath>
					
						<radialGradient id="SVGID_13_" cx="170.5078" cy="161.2261" r="0.6172" gradientTransform="matrix(-0.0185 -13.5392 30.6245 -0.0424 -4809.0269 2332.9277)" gradientUnits="userSpaceOnUse">
						<stop  offset="0" style="stop-color:#0071BB"/>
						<stop  offset="0.3" style="stop-color:#0061A7"/>
						<stop  offset="0.6938" style="stop-color:#0260A5"/>
						<stop  offset="0.8373" style="stop-color:#085A9E"/>
						<stop  offset="0.9395" style="stop-color:#145192"/>
						<stop  offset="1" style="stop-color:#1F4887"/>
					</radialGradient>
					<polygon clip-path="url(#SVGID_12_)" fill="url(#SVGID_13_)" points="128.247,17.496 128.239,11.021 123.008,11.029 
						123.017,17.503 					"/>
				</g>
				<g clip-path="url(#SVGID_7_)">
					<defs>
						<polygon id="SVGID_14_" points="102.308,12.13 107.013,21.425 117.252,19.794 118.874,9.49 109.635,4.755 						"/>
					</defs>
					<clipPath id="SVGID_15_">
						<use xlink:href="#SVGID_14_"  overflow="visible"/>
					</clipPath>
					
						<radialGradient id="SVGID_16_" cx="194.0293" cy="158.7788" r="0.6176" gradientTransform="matrix(-8.3222 -8.3742 13.843 -13.9294 -465.9491 3856.3027)" gradientUnits="userSpaceOnUse">
						<stop  offset="0" style="stop-color:#00B8F1"/>
						<stop  offset="0.5" style="stop-color:#00ADEE"/>
						<stop  offset="0.759" style="stop-color:#00ABEC"/>
						<stop  offset="0.8534" style="stop-color:#00A5E5"/>
						<stop  offset="0.9209" style="stop-color:#009BD9"/>
						<stop  offset="0.9751" style="stop-color:#008CC9"/>
						<stop  offset="1" style="stop-color:#0083BE"/>
					</radialGradient>
					<polygon clip-path="url(#SVGID_15_)" fill="url(#SVGID_16_)" points="127.156,13.091 110.591,-3.581 94.024,13.091 
						110.591,29.759 					"/>
				</g>
				<g clip-path="url(#SVGID_7_)">
					<defs>
						<polygon id="SVGID_17_" points="133.117,35.759 131.492,46.062 140.73,50.798 148.063,43.423 143.355,34.128 						"/>
					</defs>
					<clipPath id="SVGID_18_">
						<use xlink:href="#SVGID_17_"  overflow="visible"/>
					</clipPath>
					
						<radialGradient id="SVGID_19_" cx="151.6226" cy="189.2817" r="0.6179" gradientTransform="matrix(8.1635 8.5387 -14.115 13.6637 1567.0314 -3845.2395)" gradientUnits="userSpaceOnUse">
						<stop  offset="0" style="stop-color:#F05B22"/>
						<stop  offset="0.5" style="stop-color:#EC1C24"/>
						<stop  offset="0.7204" style="stop-color:#EA1C23"/>
						<stop  offset="0.801" style="stop-color:#E31A22"/>
						<stop  offset="0.8587" style="stop-color:#D7171E"/>
						<stop  offset="0.9054" style="stop-color:#C61419"/>
						<stop  offset="0.9455" style="stop-color:#B00F13"/>
						<stop  offset="0.9804" style="stop-color:#96090B"/>
						<stop  offset="1" style="stop-color:#830506"/>
					</radialGradient>
					<polygon clip-path="url(#SVGID_18_)" fill="url(#SVGID_19_)" points="123.215,42.14 139.457,59.13 156.34,42.785 
						140.098,25.796 					"/>
				</g>
				<g clip-path="url(#SVGID_7_)">
					<defs>
						<polygon id="SVGID_20_" points="102.308,43.423 109.635,50.798 118.874,46.062 117.252,35.759 107.013,34.128 						"/>
					</defs>
					<clipPath id="SVGID_21_">
						<use xlink:href="#SVGID_20_"  overflow="visible"/>
					</clipPath>
					
						<radialGradient id="SVGID_22_" cx="197.7373" cy="186.4761" r="0.6178" gradientTransform="matrix(-8.3258 8.3778 -14.1962 -14.2849 4410.8359 1042.8304)" gradientUnits="userSpaceOnUse">
						<stop  offset="0" style="stop-color:#FFDD00"/>
						<stop  offset="0.5" style="stop-color:#FCB813"/>
						<stop  offset="0.759" style="stop-color:#FBB613"/>
						<stop  offset="0.8534" style="stop-color:#F5AF14"/>
						<stop  offset="0.9209" style="stop-color:#ECA315"/>
						<stop  offset="0.9751" style="stop-color:#DF9317"/>
						<stop  offset="1" style="stop-color:#D78818"/>
					</radialGradient>
					<polygon clip-path="url(#SVGID_21_)" fill="url(#SVGID_22_)" points="110.591,25.792 94.023,42.462 110.591,59.136 
						127.157,42.462 					"/>
				</g>
				<g clip-path="url(#SVGID_7_)">
					<defs>
						<polygon id="SVGID_23_" points="131.492,9.49 133.117,19.794 143.355,21.425 148.063,12.13 140.73,4.755 						"/>
					</defs>
					<clipPath id="SVGID_24_">
						<use xlink:href="#SVGID_23_"  overflow="visible"/>
					</clipPath>
					
						<radialGradient id="SVGID_25_" cx="147.4502" cy="161.3413" r="0.6176" gradientTransform="matrix(8.3263 -8.3783 14.1969 14.2856 -3385.0049 -1049.644)" gradientUnits="userSpaceOnUse">
						<stop  offset="0" style="stop-color:#98C93C"/>
						<stop  offset="0.5" style="stop-color:#77B543"/>
						<stop  offset="0.7475" style="stop-color:#75B343"/>
						<stop  offset="0.8388" style="stop-color:#6EAE41"/>
						<stop  offset="0.9043" style="stop-color:#62A43E"/>
						<stop  offset="0.9571" style="stop-color:#529539"/>
						<stop  offset="1" style="stop-color:#3D8434"/>
					</radialGradient>
					<polygon clip-path="url(#SVGID_24_)" fill="url(#SVGID_25_)" points="139.777,29.761 156.346,13.091 139.777,-3.581 
						123.211,13.091 					"/>
				</g>
				<g clip-path="url(#SVGID_7_)">
					<defs>
						<rect id="SVGID_26_" x="90.98" y="-6.641" width="68.404" height="68.836"/>
					</defs>
					<clipPath id="SVGID_27_">
						<use xlink:href="#SVGID_26_"  overflow="visible"/>
					</clipPath>
					<polygon clip-path="url(#SVGID_27_)" fill="#FFFFFF" points="106.832,0.599 117.736,6.191 115.822,18.353 103.736,20.283 
						98.18,9.308 					"/>
					<polygon clip-path="url(#SVGID_27_)" fill="#FFFFFF" points="143.537,54.953 132.63,49.359 134.546,37.199 146.635,35.275 
						152.189,46.244 					"/>
					<polygon clip-path="url(#SVGID_27_)" fill="#FFFFFF" points="106.832,54.953 117.736,49.359 115.822,37.199 103.736,35.275 
						98.18,46.244 					"/>
					<polygon clip-path="url(#SVGID_27_)" fill="#FFFFFF" points="143.537,0.599 132.63,6.191 134.546,18.353 146.635,20.283 
						152.189,9.308 					"/>
				</g>
				<g clip-path="url(#SVGID_7_)">
					<defs>
						<polygon id="SVGID_28_" points="95.057,7.167 101.254,19.412 114.74,17.261 116.874,3.693 104.709,-2.543 						"/>
					</defs>
					<clipPath id="SVGID_29_">
						<use xlink:href="#SVGID_28_"  overflow="visible"/>
					</clipPath>
					
						<radialGradient id="SVGID_30_" cx="213.3804" cy="152.4712" r="0.6177" gradientTransform="matrix(-4.2826 -4.3093 9.747 -9.8079 -457.5965 2432.2007)" gradientUnits="userSpaceOnUse">
						<stop  offset="0" style="stop-color:#0071BB"/>
						<stop  offset="0.3" style="stop-color:#0061A7"/>
						<stop  offset="0.6938" style="stop-color:#0260A5"/>
						<stop  offset="0.8373" style="stop-color:#085A9E"/>
						<stop  offset="0.9395" style="stop-color:#145192"/>
						<stop  offset="1" style="stop-color:#1F4887"/>
					</radialGradient>
					<polygon clip-path="url(#SVGID_29_)" fill="url(#SVGID_30_)" points="127.783,8.433 105.965,-13.522 84.146,8.433 
						105.965,30.39 					"/>
				</g>
				<g clip-path="url(#SVGID_7_)">
					<defs>
						<polygon id="SVGID_31_" points="135.631,38.289 133.493,51.859 145.662,58.097 155.314,48.382 149.115,36.14 						"/>
					</defs>
					<clipPath id="SVGID_32_">
						<use xlink:href="#SVGID_31_"  overflow="visible"/>
					</clipPath>
					
						<radialGradient id="SVGID_33_" cx="130.8882" cy="195.7769" r="0.6177" gradientTransform="matrix(4.199 4.3919 -9.9342 9.6166 1530.8623 -2419.2852)" gradientUnits="userSpaceOnUse">
						<stop  offset="0" style="stop-color:#B01117"/>
						<stop  offset="0.3" style="stop-color:#9D0B0F"/>
						<stop  offset="0.65" style="stop-color:#9B0B0F"/>
						<stop  offset="0.7761" style="stop-color:#94090D"/>
						<stop  offset="0.8659" style="stop-color:#89070A"/>
						<stop  offset="0.9381" style="stop-color:#780406"/>
						<stop  offset="1" style="stop-color:#620000"/>
					</radialGradient>
					<polygon clip-path="url(#SVGID_32_)" fill="url(#SVGID_33_)" points="122.592,46.693 143.981,69.07 166.217,47.542 
						144.825,25.169 					"/>
				</g>
				<g clip-path="url(#SVGID_7_)">
					<defs>
						<polygon id="SVGID_34_" points="95.057,48.382 104.709,58.097 116.874,51.859 114.74,38.289 101.254,36.14 						"/>
					</defs>
					<clipPath id="SVGID_35_">
						<use xlink:href="#SVGID_34_"  overflow="visible"/>
					</clipPath>
					
						<radialGradient id="SVGID_36_" cx="219.9829" cy="191.729" r="0.6178" gradientTransform="matrix(-4.3245 4.3515 -10.0334 -10.0961 2989.731 1016.6743)" gradientUnits="userSpaceOnUse">
						<stop  offset="0" style="stop-color:#F58A1F"/>
						<stop  offset="0.3" style="stop-color:#F37A20"/>
						<stop  offset="0.641" style="stop-color:#F17820"/>
						<stop  offset="0.7653" style="stop-color:#EA731F"/>
						<stop  offset="0.854" style="stop-color:#DE681D"/>
						<stop  offset="0.926" style="stop-color:#CE5A1A"/>
						<stop  offset="0.9869" style="stop-color:#B84716"/>
						<stop  offset="1" style="stop-color:#B24215"/>
					</radialGradient>
					<polygon clip-path="url(#SVGID_35_)" fill="url(#SVGID_36_)" points="105.965,25.162 84.146,47.119 105.965,69.078 
						127.783,47.119 					"/>
				</g>
				<g clip-path="url(#SVGID_7_)">
					<defs>
						<polygon id="SVGID_37_" points="133.493,3.693 135.631,17.261 149.115,19.412 155.314,7.167 145.662,-2.543 						"/>
					</defs>
					<clipPath id="SVGID_38_">
						<use xlink:href="#SVGID_37_"  overflow="visible"/>
					</clipPath>
					
						<radialGradient id="SVGID_39_" cx="123.2925" cy="156.1323" r="0.6177" gradientTransform="matrix(4.3254 -4.3524 10.0356 10.0983 -1964.5144 -1022.7829)" gradientUnits="userSpaceOnUse">
						<stop  offset="0" style="stop-color:#388446"/>
						<stop  offset="0.3" style="stop-color:#007447"/>
						<stop  offset="0.6855" style="stop-color:#007246"/>
						<stop  offset="0.8251" style="stop-color:#006B41"/>
						<stop  offset="0.9245" style="stop-color:#00603A"/>
						<stop  offset="1" style="stop-color:#005030"/>
					</radialGradient>
					<polygon clip-path="url(#SVGID_38_)" fill="url(#SVGID_39_)" points="144.404,30.39 166.225,8.433 144.404,-13.524 
						122.584,8.433 					"/>
				</g>
				<g clip-path="url(#SVGID_7_)">
					<defs>
						<rect id="SVGID_40_" x="90.98" y="-6.641" width="68.404" height="68.836"/>
					</defs>
					<clipPath id="SVGID_41_">
						<use xlink:href="#SVGID_40_"  overflow="visible"/>
					</clipPath>
					<polygon clip-path="url(#SVGID_41_)" fill="#FFFFFF" points="101.941,-6.641 115.751,0.439 113.329,15.841 98.02,18.281 
						90.98,4.386 					"/>
					<polygon clip-path="url(#SVGID_41_)" fill="#FFFFFF" points="148.426,62.195 134.617,55.115 137.04,39.708 152.349,37.271 
						159.385,51.167 					"/>
					<polygon clip-path="url(#SVGID_41_)" fill="#FFFFFF" points="101.941,62.195 115.751,55.115 113.329,39.708 98.02,37.271 
						90.98,51.167 					"/>
					<polygon clip-path="url(#SVGID_41_)" fill="#FFFFFF" points="148.426,-6.641 134.617,0.439 137.04,15.841 152.349,18.281 
						159.385,4.386 					"/>
				</g>
				<g clip-path="url(#SVGID_7_)">
					<defs>
						<path id="SVGID_42_" d="M111.353,30.257c0,0.336,0.271,0.611,0.608,0.611c0.333,0,0.605-0.275,0.605-0.611
							c0-0.34-0.272-0.611-0.605-0.611C111.623,29.646,111.353,29.917,111.353,30.257 M108.357,26.724l1.059,1.063l0.536-0.547
							l-0.466-0.471l0.316-0.32l0.78,0.785l-2.35,2.377l0.587,0.588l1.828-1.852l-0.458,1.973h0.833l0.688-3.133l-1.909-1.918
							L108.357,26.724z M112.205,27.187l0.691,3.133h0.833l-0.455-1.973l1.825,1.852l0.586-0.588l-2.349-2.377l0.781-0.785
							l0.315,0.32l-0.467,0.471l0.537,0.547l1.057-1.063l-1.442-1.455L112.205,27.187z M110.051,25.019l0.586,0.59l0.584-0.59
							l-0.584-0.59L110.051,25.019z M112.7,25.019l0.583,0.59l0.586-0.59l-0.586-0.59L112.7,25.019z"/>
					</defs>
					<clipPath id="SVGID_43_">
						<use xlink:href="#SVGID_42_"  overflow="visible"/>
					</clipPath>
					
						<radialGradient id="SVGID_44_" cx="199.0894" cy="172.5415" r="0.6174" gradientTransform="matrix(-14.7536 0 0 -22.6915 3053.0857 3942.9712)" gradientUnits="userSpaceOnUse">
						<stop  offset="0" style="stop-color:#F58A1F"/>
						<stop  offset="0.3" style="stop-color:#F37A20"/>
						<stop  offset="0.641" style="stop-color:#F17820"/>
						<stop  offset="0.7653" style="stop-color:#EA731F"/>
						<stop  offset="0.854" style="stop-color:#DE681D"/>
						<stop  offset="0.926" style="stop-color:#CE5A1A"/>
						<stop  offset="0.9869" style="stop-color:#B84716"/>
						<stop  offset="1" style="stop-color:#B24215"/>
					</radialGradient>
					<rect x="108.233" y="24.429" clip-path="url(#SVGID_43_)" fill="url(#SVGID_44_)" width="7.452" height="6.439"/>
				</g>
				<g clip-path="url(#SVGID_7_)">
					<defs>
						<polygon id="SVGID_45_" points="119.069,27.703 119.07,27.703 113.797,33.007 119.074,33.851 122.127,30.777 122.125,30.777 
							131.289,21.556 130.454,16.244 						"/>
					</defs>
					<clipPath id="SVGID_46_">
						<use xlink:href="#SVGID_45_"  overflow="visible"/>
					</clipPath>
					
						<linearGradient id="SVGID_47_" gradientUnits="userSpaceOnUse" x1="166.0264" y1="167.771" x2="166.644" y2="167.771" gradientTransform="matrix(27.1382 -27.1382 27.1382 27.1382 -8944.5068 -13.9454)">
						<stop  offset="0" style="stop-color:#00B9F1"/>
						<stop  offset="0.1104" style="stop-color:#00ADEE"/>
						<stop  offset="0.4233" style="stop-color:#32327B"/>
						<stop  offset="0.6135" style="stop-color:#820406"/>
						<stop  offset="0.8834" style="stop-color:#EC1C24"/>
						<stop  offset="1" style="stop-color:#F05B22"/>
					</linearGradient>
					<polygon clip-path="url(#SVGID_46_)" fill="url(#SVGID_47_)" points="122.543,42.65 140.037,25.046 122.543,7.443 
						105.05,25.046 					"/>
				</g>
				<g clip-path="url(#SVGID_7_)">
					<defs>
						<polygon id="SVGID_48_" points="122.127,30.779 122.127,30.777 119.074,33.851 119.908,39.156 125.18,33.853 125.183,33.853 
							136.568,22.394 131.293,21.556 						"/>
					</defs>
					<clipPath id="SVGID_49_">
						<use xlink:href="#SVGID_48_"  overflow="visible"/>
					</clipPath>
					
						<linearGradient id="SVGID_50_" gradientUnits="userSpaceOnUse" x1="166.0054" y1="167.6343" x2="166.6232" y2="167.6343" gradientTransform="matrix(27.0322 -27.0322 27.0322 27.0322 -8899.5605 -5.3225)">
						<stop  offset="0" style="stop-color:#00ADEE"/>
						<stop  offset="0.3865" style="stop-color:#32327B"/>
						<stop  offset="0.6933" style="stop-color:#820406"/>
						<stop  offset="1" style="stop-color:#D71921"/>
					</linearGradient>
					<polygon clip-path="url(#SVGID_49_)" fill="url(#SVGID_50_)" points="127.82,47.958 145.313,30.357 127.82,12.753 
						110.328,30.357 					"/>
				</g>
				<g clip-path="url(#SVGID_7_)">
					<defs>
						<polygon id="SVGID_51_" points="113.797,22.392 119.07,27.699 119.069,27.701 130.454,39.156 131.289,33.851 122.125,24.626 
							122.127,24.626 119.074,21.552 						"/>
					</defs>
					<clipPath id="SVGID_52_">
						<use xlink:href="#SVGID_51_"  overflow="visible"/>
					</clipPath>
					
						<linearGradient id="SVGID_53_" gradientUnits="userSpaceOnUse" x1="167.1514" y1="181.1724" x2="167.769" y2="181.1724" gradientTransform="matrix(27.1513 27.1513 -27.1513 27.1513 494.851 -9435.4414)">
						<stop  offset="0" style="stop-color:#00B9F1"/>
						<stop  offset="0.1104" style="stop-color:#00ADEE"/>
						<stop  offset="0.4233" style="stop-color:#32327B"/>
						<stop  offset="0.6135" style="stop-color:#820406"/>
						<stop  offset="0.8528" style="stop-color:#EC1C24"/>
						<stop  offset="1" style="stop-color:#F05B22"/>
					</linearGradient>
					<polygon clip-path="url(#SVGID_52_)" fill="url(#SVGID_53_)" points="105.051,30.353 122.543,47.957 140.037,30.353 
						122.543,12.75 					"/>
				</g>
				<g clip-path="url(#SVGID_7_)">
					<defs>
						<polygon id="SVGID_54_" points="119.074,21.552 122.127,24.626 122.127,24.625 131.293,33.847 136.568,33.005 125.183,21.548 
							125.18,21.55 119.908,16.244 						"/>
					</defs>
					<clipPath id="SVGID_55_">
						<use xlink:href="#SVGID_54_"  overflow="visible"/>
					</clipPath>
					
						<linearGradient id="SVGID_56_" gradientUnits="userSpaceOnUse" x1="167.1548" y1="181.3013" x2="167.7722" y2="181.3013" gradientTransform="matrix(27.1388 27.1388 -27.1388 27.1388 503.3424 -9440.0176)">
						<stop  offset="0" style="stop-color:#00ADEE"/>
						<stop  offset="0.3865" style="stop-color:#32327B"/>
						<stop  offset="0.6864" style="stop-color:#820406"/>
						<stop  offset="1" style="stop-color:#D71921"/>
					</linearGradient>
					<polygon clip-path="url(#SVGID_55_)" fill="url(#SVGID_56_)" points="110.328,25.046 127.82,42.648 145.315,25.046 
						127.82,7.443 					"/>
				</g>
				<g clip-path="url(#SVGID_7_)">
					<defs>
						<rect id="SVGID_57_" x="90.98" y="-6.641" width="68.404" height="68.836"/>
					</defs>
					<clipPath id="SVGID_58_">
						<use xlink:href="#SVGID_57_"  overflow="visible"/>
					</clipPath>
					<polygon clip-path="url(#SVGID_58_)" fill="#A72C31" points="125.18,33.847 128.236,30.771 125.18,27.697 122.125,30.771 					
						"/>
					<g opacity="0.15" clip-path="url(#SVGID_58_)">
						<g>
							<defs>
								<rect id="SVGID_59_" x="119.07" y="24.625" width="6.109" height="6.146"/>
							</defs>
							<clipPath id="SVGID_60_">
								<use xlink:href="#SVGID_59_"  overflow="visible"/>
							</clipPath>
							<g clip-path="url(#SVGID_60_)">
								<defs>
									<rect id="SVGID_61_" x="119.07" y="24.626" width="6.109" height="6.145"/>
								</defs>
								<clipPath id="SVGID_62_">
									<use xlink:href="#SVGID_61_"  overflow="visible"/>
								</clipPath>
								<polygon clip-path="url(#SVGID_62_)" fill="#ED2424" points="122.125,30.771 125.181,27.697 122.125,24.625 119.07,27.697 
																	"/>
							</g>
						</g>
					</g>
					<polygon clip-path="url(#SVGID_58_)" fill="#204689" points="125.18,27.697 128.236,24.625 125.18,21.55 122.125,24.625 					
						"/>
					<g opacity="0.3" clip-path="url(#SVGID_58_)">
						<g>
							<defs>
								<rect id="SVGID_63_" x="125.18" y="24.625" width="6.109" height="6.146"/>
							</defs>
							<clipPath id="SVGID_64_">
								<use xlink:href="#SVGID_63_"  overflow="visible"/>
							</clipPath>
							<g clip-path="url(#SVGID_64_)">
								<defs>
									<rect id="SVGID_65_" x="125.18" y="24.626" width="6.109" height="6.145"/>
								</defs>
								<clipPath id="SVGID_66_">
									<use xlink:href="#SVGID_65_"  overflow="visible"/>
								</clipPath>
								<polygon clip-path="url(#SVGID_66_)" fill="#2E3191" points="128.236,30.771 131.291,27.697 128.236,24.625 125.18,27.697 
																	"/>
							</g>
						</g>
					</g>
					<polygon clip-path="url(#SVGID_58_)" fill="#FFFFFF" points="125.183,23.251 126.18,26.339 129.401,26.339 126.795,28.246 
						127.791,31.33 125.183,29.425 122.572,31.33 123.571,28.246 120.961,26.339 124.185,26.339 					"/>
				</g>
				<g clip-path="url(#SVGID_7_)">
					<defs>
						<path id="SVGID_67_" d="M139.828,24.964v1.363h-3.144v-1.363h-0.788v2.152h1.966v0.793h-1.178l-0.529,2.516l0.9-0.002
							l0.335-1.725h1.729l0.334,1.725h0.902l-0.527-2.514h-1.179v-0.793h1.964v-2.152H139.828z M137.555,25.445l0.7,0.707
							l0.702-0.707l-0.702-0.703L137.555,25.445z"/>
					</defs>
					<clipPath id="SVGID_68_">
						<use xlink:href="#SVGID_67_"  overflow="visible"/>
					</clipPath>
					
						<radialGradient id="SVGID_69_" cx="133.7544" cy="175.7329" r="0.6176" gradientTransform="matrix(10.0158 0 0 17.1843 -1203.8243 -2992.5178)" gradientUnits="userSpaceOnUse">
						<stop  offset="0" style="stop-color:#98C93C"/>
						<stop  offset="0.5" style="stop-color:#77B543"/>
						<stop  offset="0.7488" style="stop-color:#75B343"/>
						<stop  offset="0.8397" style="stop-color:#6EAE41"/>
						<stop  offset="0.9048" style="stop-color:#62A43E"/>
						<stop  offset="0.9572" style="stop-color:#529539"/>
						<stop  offset="1" style="stop-color:#3D8434"/>
					</radialGradient>
					<rect x="135.896" y="24.742" clip-path="url(#SVGID_68_)" fill="url(#SVGID_69_)" width="4.717" height="5.684"/>
				</g>
			</g>
		</g>
	</g>
	<g>
		<path fill="#004295" d="M90.978,45.777c-3.006,0-6.019-0.635-8.955-1.887l0.824-1.57c1.93,0.797,3.761,1.17,5.911,1.217h0.322
			c3.298,0,5.604-1.061,7.051-3.248c0.799-1.207,1.259-3.227,0.547-4.594c-0.469-0.906-1.482-1.385-2.928-1.385l-0.09,0.002
			c-0.655,0.01-1.138,0.066-1.803,0.221l-1.48-1.559c0.071-2.666,0.254-4.928,0.541-6.73c0.369,0.021,0.753,0.031,1.142,0.031
			c1.801,0,3.723-0.238,5.574-0.684l0.926,3.43c-1.816-0.051-4.338-0.279-5.821-0.635l-0.156-0.035l-0.021,0.158
			c-0.109,0.824-0.174,1.799-0.245,2.93l-0.071,1.141l0.209-0.084c0.883-0.346,1.76-0.516,2.686-0.527h0.115
			c1.722,0,3.048,0.492,3.945,1.473c1.027,1.121,1.514,2.592,1.405,4.25c-0.158,2.424-1.163,4.42-2.912,5.781
			c-1.795,1.391-4.263,2.275-6.44,2.303L90.978,45.777z M24.505,45.72c-0.081-1.211-0.233-3.525-0.433-5.488L24.037,39.9
			l-0.219,0.252c-1.126,1.279-2.163,2.361-4.37,3.627c-1.235,0.709-2.665,1.125-3.921,1.139h-0.081
			c-3.226,0-5.642-2.383-5.876-5.797c-0.195-2.805,0.671-5.428,2.314-7.006c1.396-1.342,2.937-2.01,4.702-2.029l0.065-0.004
			c1.499,0,2.847,0.713,3.706,1.955c0.694,1.002,0.82,2.955,0.313,4.682l-3.343-0.672c0.858-0.938,1.389-2.164,1.252-2.945
			c-0.121-0.668-0.882-1.189-1.73-1.189c-0.713,0.01-1.377,0.281-2.116,0.861c-1.848,1.449-2.583,3.922-2.018,6.781
			c0.351,1.805,1.577,2.922,3.202,2.922c0.686-0.008,1.405-0.16,2.239-0.461c2.313-0.836,3.995-2.055,5.616-4.08l0.035-0.047
			l-0.064-0.646c-0.08-0.875-0.181-1.705-0.273-2.496c-0.224-1.893-0.416-3.529-0.35-5.086c0.106-2.58,0.848-4.318,2.205-5.158
			c0.516-0.32,1.189-0.5,1.897-0.5c0.656,0,1.288,0.156,1.773,0.438c1.474,0.859,1.729,2.516,1.773,3.004
			c0.391,4.322-1.963,7.129-4.944,10.688l-0.508,0.611l0.008,0.063c0.014,0.096,0.03,0.307,0.045,0.508l0.071,0.793l0.229-0.42
			c0.794-1.463,2.25-2.266,3.223-2.277l0.069-0.002c1.409,0,2.297,0.576,3.168,2.059c0.303,0.512,0.829,1.33,1.145,1.752
			c0.148,0.199,0.629,0.727,1.065,0.727c0.507-0.008,0.771-0.697,0.946-1.297c0.244-0.836,0.405-1.709,0.537-2.902l2.178-0.043
			c0.087,2.27,0.977,4.326,1.938,4.434c0.054,0.01,0.106,0.01,0.161,0.01c0.974,0,2.128-0.977,3.164-2.688l0.038-0.063l-0.03-0.072
			c-1.495-3.307-2.497-8.822-1.602-11.25c0.585-1.586,1.349-2.275,2.726-2.469c0.134-0.016,0.266-0.023,0.394-0.023
			c0.918,0,1.859,0.441,2.52,1.182c1.046,1.176,1.647,3.498,1.468,5.65c-0.202,2.42-1.376,5.279-3.217,7.842l-0.051,0.07l0.037,0.08
			c0.727,1.518,2.099,1.838,3.119,1.838h0.063c1.164-0.016,2.553-0.447,3.803-1.193l0.15-0.09l-0.114-0.133
			c-1.397-1.592-2.108-4.467-1.595-6.404c0.391-1.438,1.705-2.9,3.471-2.924h0.003c0.263,0,0.577,0.027,0.801,0.064
			c2.282,0.398,3.468,2.211,3.167,4.846c-0.236,2.066-1.879,4.338-2.706,5.094l-0.144,0.135l0.167,0.098
			c0.493,0.299,1.157,0.469,1.828,0.469c1.476-0.018,2.279-0.605,3.37-1.828l1.75,2.631c-1.316,1.096-2.56,1.584-4.02,1.584
			c-0.368,0-0.761-0.033-1.165-0.096c-1.204-0.184-2.223-0.727-3.208-1.709l-0.089-0.09l-0.101,0.08
			c-1.92,1.555-2.951,2.105-4.901,2.105c-0.182,0-0.371,0-0.567-0.014c-1.914-0.082-3.208-1.014-4.198-3.018l-0.104-0.207
			l-0.143,0.182c-1.539,2.035-2.557,2.684-4.183,2.684c-0.07,0-0.139,0-0.212-0.002c-1.636-0.059-2.743-1.729-2.973-2.605
			l-0.282,0.008c-0.204,1.137-1.316,2.221-2.433,2.373c-0.122,0.016-0.244,0.023-0.369,0.023c-0.482,0-0.97-0.123-1.412-0.359
			c-1.119-0.596-1.698-1.563-2.336-2.77c-0.456-0.855-0.831-1.209-1.29-1.209c-0.124,0-0.256,0.025-0.42,0.076
			c-0.771,0.258-1.234,1.521-1.569,2.447c-0.341,0.941-0.652,2.027-0.919,3.227L24.505,45.72z M54.104,33.812
			c-0.08,0-0.164,0.006-0.249,0.02c-1.229,0.156-1.536,1.35-1.603,1.709c-0.207,1.207,0.688,3.641,1.48,4.508l0.088,0.1l0.105-0.078
			c1.285-0.949,1.982-2.656,1.862-4.561c-0.051-0.846-0.583-1.697-1.659-1.697H54.104z M44.393,27.603
			c-0.55,0.006-0.986,0.65-1.159,1.248c-0.538,1.867,0.128,6.221,1.054,8.717l0.105,0.275l0.156-0.252
			c1.308-2.1,1.588-4.391,1.592-5.938c0.009-2.301-0.637-3.295-1.019-3.682c-0.239-0.24-0.491-0.369-0.718-0.369H44.393z
			 M26.889,26.531c-0.276,0-0.536,0.096-0.756,0.279c-0.652,0.555-1.02,1.404-1.188,2.746c-0.231,1.791-0.209,2.697,0.148,6.473
			l0.033,0.375l0.227-0.303c2.144-2.859,3.164-6.18,2.659-8.66C27.907,26.914,27.434,26.531,26.889,26.531 M74.015,44.435
			c-1.599,0-3.329-1.131-4.521-2.951l-0.092-0.143l-0.127,0.113c-1.024,0.908-1.966,1.352-3.143,1.475l-0.18,0.014l-0.096,0.002
			c-1.365,0-2.608-1.061-2.836-2.414c-0.236-1.436,0.59-3.27,2.34-3.725c0.276-0.072,0.537-0.105,0.789-0.105
			c0.975,0,1.877,0.533,2.93,1.723l0.118,0.137l0.106-0.148c1.363-1.949,2.376-6.211,0.98-8.105
			c-0.472-0.641-1.303-1.041-2.169-1.041c-0.39,0-0.767,0.084-1.09,0.238c-0.892,0.43-1.451,1.57-1.517,3.08l-3.379-0.984
			c0.549-1.594,1.683-3.588,4.008-4.344c0.524-0.168,1.078-0.254,1.654-0.254c1.836,0,3.545,0.875,4.464,2.287
			c1.887,2.896,1.226,7.102-1.688,10.707l-0.082,0.1l0.087,0.094c1.108,1.164,2.135,1.719,3.227,1.746
			c0.054,0.002,0.114,0.004,0.17,0.004c1.118,0,1.883-0.381,2.612-1.307l1.847,0.727c-0.674,2.172-2.644,3.018-4.284,3.074
			L74.015,44.435z M66.143,38.269c-0.052,0-0.112,0.006-0.168,0.01c-0.625,0.066-1.304,0.549-1.311,1.215
			c-0.012,0.689,0.385,1.137,1.03,1.176c0.049,0.002,0.097,0.002,0.147,0.002c0.803,0,1.715-0.367,2.316-0.934l0.098-0.088
			l-0.08-0.107C67.567,38.72,66.846,38.269,66.143,38.269 M87.771,41.353c-1.254-0.09-2.462-0.514-3.536-0.889
			c-0.128-0.047-0.255-0.09-0.377-0.131c1.609-3.242,2.396-8.176,2.899-12.133l-0.264-0.1c-0.605,0.936-1.254,1.578-1.938,2.26
			c-0.149,0.15-0.3,0.297-0.452,0.457l-2.364-1.604c1.862-1.205,3.09-2.121,4.768-3.832c0.3,0.092,1.31,0.389,2.151,0.525
			C88.023,30.185,87.428,36.707,87.771,41.353 M78.764,39.679c-1.034,0-2.048-0.463-2.783-1.264
			c-0.688-0.738-1.07-1.715-1.078-2.746c-0.023-1.99,0.827-3.838,2.168-4.715c0.532-0.348,1.155-0.535,1.801-0.541h0.003
			c0.989,0,1.944,0.381,2.679,1.045c0.998,0.98,1.49,2.404,1.347,3.895c-0.152,1.59-0.991,3-2.245,3.777
			c-0.573,0.355-1.192,0.537-1.846,0.549H78.764z M78.53,33.007c-0.433,0.006-0.891,0.238-1.219,0.617
			c-0.433,0.494-0.685,1.197-0.645,1.799c0.059,0.832,0.786,1.762,1.739,1.762c0.114,0,0.223-0.016,0.334-0.037
			c0.986-0.193,1.692-1.398,1.657-2.346c-0.032-0.939-0.912-1.797-1.844-1.797H78.55L78.53,33.007z M36.832,35.648
			c-0.066,0-0.136,0-0.215-0.008c-0.764-0.076-1.582-0.645-1.674-1.582c-0.049-0.494,0.118-0.975,0.471-1.354
			c0.336-0.357,0.801-0.59,1.282-0.637c0.06-0.006,0.116-0.01,0.175-0.014c0.881,0,1.828,0.6,1.925,1.6
			c0.098,0.98-0.62,1.74-1.37,1.91C37.167,35.623,37.009,35.648,36.832,35.648"/>
		<path fill="#C1272D" d="M21.738,21.052c-2.674,0-4.336-1.693-4.336-4.418c0-2.697,1.727-4.436,4.396-4.436
			c2.674,0,4.335,1.695,4.335,4.436C26.133,19.359,24.449,21.052,21.738,21.052 M21.738,13.75c-1.917,0-2.201,1.807-2.201,2.885
			c0,1.08,0.291,2.893,2.261,2.893c1.921,0,2.206-1.813,2.206-2.893C24.004,15.556,23.709,13.75,21.738,13.75"/>
		<path fill="#C1272D" d="M89.445,21.044c-2.633,0-4.205-1.654-4.205-4.422c0-2.73,1.62-4.424,4.219-4.424
			c0.766,0,1.525,0.129,2.463,0.42c0.206,0.063,0.716,0.229,0.967,0.311l-0.595,1.564c-0.198-0.064-0.566-0.178-0.72-0.223
			c-0.7-0.205-1.286-0.342-1.896-0.342c-1.49,0-2.244,0.906-2.244,2.693c0,1.777,0.758,2.68,2.252,2.68
			c0.578,0,1.179-0.104,1.838-0.311l0.163-0.055l-0.696,1.918l-0.049,0.016c-0.561,0.115-1.012,0.174-1.419,0.174H89.445z"/>
		<path fill="#C1272D" d="M13.744,21.044c-2.63,0-4.199-1.654-4.199-4.422c0-2.73,1.616-4.424,4.219-4.424
			c0.731,0,1.488,0.129,2.457,0.42l0.666,0.195l-0.56,1.596l-0.431-0.129c-0.792-0.227-1.332-0.352-1.92-0.352
			c-1.49,0-2.244,0.906-2.244,2.693c0,1.777,0.758,2.68,2.251,2.68c0.605,0,1.229-0.109,1.911-0.332l0.432-0.143l0.561,1.596
			l-0.666,0.207c-0.952,0.279-1.714,0.414-2.405,0.414H13.744z"/>
		<path fill="#C1272D" d="M58.723,21.019c-0.598,0-0.986-0.244-1.149-0.732l-1.306-3.9l-0.402,0.053v4.521H54.02v-7.51
			c0-0.791,0.572-1.262,1.529-1.262c0.895,0,1.436,0.371,1.696,1.166l1.516,4.66l1.579-4.66c0.188-0.578,0.529-1.166,1.646-1.166
			c0.951,0,1.497,0.459,1.497,1.262v7.51H61.58V16.41l-0.399-0.066l-1.354,3.943C59.695,20.777,59.324,21.019,58.723,21.019"/>
		<path fill="#C1272D" d="M98.403,20.964l-0.534-1.563h-3.16l-0.291,0.836c-0.145,0.434-0.552,0.727-1.014,0.727h-1.37l2.86-7.873
			c0.219-0.625,0.697-0.928,1.458-0.928c0.725,0,1.233,0.326,1.437,0.916l2.764,7.885H98.403z M95.142,17.863h2.306l-1.129-3.457
			L95.142,17.863z"/>
		<rect x="81.675" y="12.255" fill="#C1272D" width="2.136" height="8.705"/>
		<path fill="#C1272D" d="M78.218,20.964l-1.373-3.148h-1.806v3.148h-2.104v-7.631c0-0.652,0.468-1.078,1.19-1.078h3.037
			c1.781,0,2.979,1.078,2.979,2.678c0,0.967-0.431,1.77-1.207,2.262l-0.169,0.102l1.685,3.668H78.218z M75.039,16.298l1.828-0.008
			c0.764,0,1.236-0.703,1.236-1.357c0-0.693-0.496-1.164-1.236-1.164h-1.828V16.298z"/>
		<path fill="#C1272D" d="M66.349,20.962c-0.741,0-1.203-0.414-1.203-1.082v-6.533c0-0.674,0.462-1.092,1.203-1.092h5.2v0.525
			c0,0.566-0.49,1.047-1.069,1.047h-3.229v1.941h3.737v1.518h-3.737V19.4h4.298v1.563H66.349z"/>
		<path fill="#C1272D" d="M51.063,20.964l-0.536-1.563h-3.164l-0.285,0.834c-0.138,0.426-0.555,0.729-1.015,0.729h-1.37l2.858-7.873
			c0.226-0.625,0.703-0.928,1.458-0.928c0.726,0,1.234,0.326,1.438,0.916l2.765,7.885H51.063z M47.805,17.863h2.302l-1.132-3.455
			L47.805,17.863z"/>
		<path fill="#C1272D" d="M39.986,20.964l-0.538-1.563h-3.156l-0.295,0.838c-0.13,0.426-0.547,0.725-1.009,0.725h-1.373l2.859-7.873
			c0.222-0.625,0.699-0.928,1.465-0.928c0.723,0,1.233,0.326,1.436,0.916l2.77,7.885H39.986z M36.727,17.863h2.311l-1.136-3.455
			L36.727,17.863z"/>
		<path fill="#C1272D" d="M27.385,20.964v-7.615c0-0.674,0.462-1.094,1.205-1.094h2.656c1.791,0,2.949,1.104,2.949,2.814
			c0,1.715-1.203,2.82-3.062,2.82H29.46v3.074H27.385z M29.46,16.343h1.516c0.81,0,1.295-0.477,1.295-1.273
			c0-0.871-0.496-1.279-1.555-1.279H29.46V16.343z"/>
		<path fill="#C1272D" d="M68.141,11.177l0.947-1.289c0.1-0.143,0.182-0.264,0.396-0.264h1.083c0.165,0,0.268,0.041,0.299,0.113
			c0.04,0.092-0.043,0.199-0.119,0.273l-1.265,1.166H68.141z"/>
	</g>
</g>
</svg>
