<?xml version="1.0" encoding="utf-8"?>
<!-- Generator: Adobe Illustrator 15.0.0, SVG Export Plug-In . SVG Version: 6.00 Build 0)  -->
<!DOCTYPE svg PUBLIC "-//W3C//DTD SVG 1.1//EN" "http://www.w3.org/Graphics/SVG/1.1/DTD/svg11.dtd">
<svg version="1.1" id="Capa_1" xmlns="http://www.w3.org/2000/svg" xmlns:xlink="http://www.w3.org/1999/xlink" x="0px" y="0px"
	 width="257.823px" height="102.041px" viewBox="0 0 257.823 102.041" enable-background="new 0 0 257.823 102.041"
	 xml:space="preserve">
<g>
	<g opacity="0.3">
		<defs>
			<path id="SVGID_1_" opacity="0.3" d="M222.96,25.707l8.01,7.983l7.974-7.983l-7.974-8.01L222.96,25.707z M181.574,24.159
				l18.191,17.82l0.25,24.643l-19.553,19.784l7.992,7.642h35.49V82.734h-23.836l30.861-30.859l4.445,4.455l-6.437,6.432L237,70.732
				l14.426-14.395L230.97,35.922l-19.943,19.882l-0.229-18.397l-21.217-21.24L181.574,24.159z M199.357,15.002
				c0,4.559,3.705,8.281,8.262,8.281c4.608,0,8.29-3.723,8.29-8.281c0-4.58-3.682-8.285-8.29-8.285
				C203.062,6.717,199.357,10.422,199.357,15.002"/>
		</defs>
		<use xlink:href="#SVGID_1_"  overflow="visible" fill="#FFFFFF"/>
		<clipPath id="SVGID_2_">
			<use xlink:href="#SVGID_1_"  overflow="visible"/>
		</clipPath>
		<polygon clip-path="url(#SVGID_2_)" fill="#FFFFFF" points="251.536,94.047 251.425,6.626 180.343,6.717 180.462,94.143 		"/>
	</g>
	<g opacity="0.3">
		<defs>
			<path id="SVGID_3_" opacity="0.3" d="M27.345,17.697l-7.973,8.01l7.973,7.983l8.01-7.983L27.345,17.697z M68.734,16.167
				l-21.216,21.24l-0.229,18.397L27.345,35.922L6.891,56.338l14.427,14.395l8.02-7.971L22.9,56.33l4.445-4.455l30.861,30.859H34.373
				v11.313h35.489l7.993-7.642L58.302,66.621l0.248-24.643l18.192-17.82L68.734,16.167z M58.959,15.002
				c0-4.58-3.704-8.285-8.261-8.285c-4.609,0-8.291,3.705-8.291,8.285c0,4.559,3.682,8.281,8.291,8.281
				C55.255,23.283,58.959,19.561,58.959,15.002"/>
		</defs>
		<use xlink:href="#SVGID_3_"  overflow="visible" fill="#FFFFFF"/>
		<clipPath id="SVGID_4_">
			<use xlink:href="#SVGID_3_"  overflow="visible"/>
		</clipPath>
		<polygon clip-path="url(#SVGID_4_)" fill="#FFFFFF" points="6.781,94.047 6.891,6.626 77.973,6.717 77.855,94.143 		"/>
	</g>
</g>
</svg>
