<?xml version="1.0" encoding="utf-8"?>
<!-- Generator: Adobe Illustrator 15.0.0, SVG Export Plug-In . SVG Version: 6.00 Build 0)  -->
<!DOCTYPE svg PUBLIC "-//W3C//DTD SVG 1.1//EN" "http://www.w3.org/Graphics/SVG/1.1/DTD/svg11.dtd">
<svg version="1.1" id="Capa_1" xmlns="http://www.w3.org/2000/svg" xmlns:xlink="http://www.w3.org/1999/xlink" x="0px" y="0px"
	 width="322.5px" height="85.5px" viewBox="0 0 322.5 85.5" enable-background="new 0 0 322.5 85.5" xml:space="preserve">
<g>
	<rect x="8" y="10" fill-rule="evenodd" clip-rule="evenodd" fill="#004295" width="301" height="52"/>
	<g>
		<g>
			<defs>
				<rect id="XMLID_8_" x="8.194" y="10" width="105.104" height="52"/>
			</defs>
			<use xlink:href="#XMLID_8_"  overflow="visible" fill="#004892"/>
			<clipPath id="XMLID_2_">
				<use xlink:href="#XMLID_8_"  overflow="visible"/>
			</clipPath>
			
				<linearGradient id="SVGID_1_" gradientUnits="userSpaceOnUse" x1="1985.1426" y1="-1232.7744" x2="1973.0033" y2="-1232.7744" gradientTransform="matrix(1.9105 0.9105 0.9105 1.9105 -2628.8381 563.8492)">
				<stop  offset="0" style="stop-color:#24294F"/>
				<stop  offset="0.9448" style="stop-color:#19317D"/>
			</linearGradient>
			<polygon opacity="0.49" clip-path="url(#XMLID_2_)" fill="url(#SVGID_1_)" points="44.824,17.769 39.386,23.208 24.043,7.865 
				29.481,2.426 			"/>
			
				<linearGradient id="SVGID_2_" gradientUnits="userSpaceOnUse" x1="2335.9609" y1="888.6387" x2="2346.8379" y2="888.6387" gradientTransform="matrix(1.7574 -0.7574 -0.7574 1.7574 -3418.0237 225.3313)">
				<stop  offset="0" style="stop-color:#008AC1"/>
				<stop  offset="1" style="stop-color:#8BF8FF"/>
			</linearGradient>
			<polygon opacity="0.25" clip-path="url(#XMLID_2_)" fill="url(#SVGID_2_)" points="33.255,9.531 19.578,23.208 14.14,17.769 
				27.816,4.092 			"/>
			
				<linearGradient id="SVGID_3_" gradientUnits="userSpaceOnUse" x1="3222.126" y1="57.833" x2="3222.126" y2="20.1822" gradientTransform="matrix(1 0 0 1 -3192.6914 0)">
				<stop  offset="0" style="stop-color:#24294F"/>
				<stop  offset="0.9448" style="stop-color:#19317D"/>
			</linearGradient>
			<polygon clip-path="url(#XMLID_2_)" fill="url(#SVGID_3_)" points="19.365,18.526 29.541,29.378 39.504,18.526 39.336,60.433 
				29.541,51.361 19.365,60.945 			"/>
			<polygon clip-path="url(#XMLID_2_)" fill="#E31B21" points="18.551,38.865 18.508,39.088 18.639,38.953 			"/>
			<polygon clip-path="url(#XMLID_2_)" fill="#21B9E9" points="33.815,45.17 31.929,36.092 42.746,25.748 48.299,32.008 			"/>
			
				<linearGradient id="SVGID_4_" gradientUnits="userSpaceOnUse" x1="3235.0156" y1="30.2461" x2="3254.5762" y2="30.2461" gradientTransform="matrix(1 0 0 1 -3192.6914 0)">
				<stop  offset="0.2822" style="stop-color:#038562"/>
				<stop  offset="0.7914" style="stop-color:#00A79E"/>
			</linearGradient>
			<polygon clip-path="url(#XMLID_2_)" fill="url(#SVGID_4_)" points="61.885,34.58 56.189,40.133 42.324,25.912 48.02,20.359 			
				"/>
			
				<linearGradient id="SVGID_5_" gradientUnits="userSpaceOnUse" x1="3206.8311" y1="17.769" x2="3217.708" y2="17.769" gradientTransform="matrix(1 0 0 1 -3192.6914 0)">
				<stop  offset="0" style="stop-color:#008AC1"/>
				<stop  offset="1" style="stop-color:#8BF8FF"/>
			</linearGradient>
			<polygon clip-path="url(#XMLID_2_)" fill="url(#SVGID_5_)" points="25.017,17.769 19.578,23.208 14.14,17.769 19.578,12.33 			
				"/>
			
				<linearGradient id="SVGID_6_" gradientUnits="userSpaceOnUse" x1="3235.6895" y1="17.769" x2="3223.55" y2="17.769" gradientTransform="matrix(1 0 0 1 -3192.6914 0)">
				<stop  offset="0" style="stop-color:#008AC1"/>
				<stop  offset="1" style="stop-color:#8BF8FF"/>
			</linearGradient>
			<polygon clip-path="url(#XMLID_2_)" fill="url(#SVGID_6_)" points="44.824,17.769 39.386,23.208 33.947,17.769 39.386,12.33 			
				"/>
			<polygon clip-path="url(#XMLID_2_)" fill="#333D84" points="6.801,35.765 11.123,31.662 18.554,38.912 6.801,51.008 			"/>
			
				<rect x="2.955" y="35.935" transform="matrix(0.7071 -0.7071 0.7071 0.7071 -26.137 16.4603)" clip-path="url(#XMLID_2_)" fill="#01B0E4" width="7.691" height="7.691"/>
			<polygon clip-path="url(#XMLID_2_)" fill="#F1931C" points="25.987,41.136 21.277,64.117 12.813,64.117 18.424,39.52 			"/>
			<g clip-path="url(#XMLID_2_)">
				<polygon fill="#FBD800" points="6.977,51.031 7.383,61.201 15.866,52.855 18.534,39.088 				"/>
				<g>
					<rect x="10.919" y="48.156" fill="#F8D100" width="8.74" height="0.788"/>
					<rect x="10.919" y="46.315" fill="#F8D100" width="8.74" height="0.788"/>
					<rect x="15.815" y="43.26" fill="#F8D100" width="0.788" height="8.74"/>
					<rect x="13.975" y="43.26" fill="#F8D100" width="0.789" height="8.74"/>
					<g>
						<circle fill="#F8D100" cx="7.141" cy="50.068" r="0.789"/>
						<circle fill="#F8D100" cx="9.704" cy="49.346" r="0.559"/>
						<polygon fill="#F8D100" points="13.056,51.975 12.267,51.975 12.267,50.988 11.313,50.988 11.313,55.654 13.056,54.274 
							13.056,55.654 10.427,57.889 10.427,54.438 8.259,52.631 5.695,52.631 5.695,51.711 8.587,51.711 10.229,52.96 10.229,50.068 
							13.056,50.068 						"/>
					</g>
				</g>
			</g>
			<polygon clip-path="url(#XMLID_2_)" fill="#E31B21" points="24.248,44.515 18.642,38.953 18.51,39.088 15.843,52.855 
				22.096,46.705 			"/>
			<g clip-path="url(#XMLID_2_)">
				<polygon fill="#D2108D" points="32.951,41.136 37.663,64.117 46.127,64.117 40.517,39.52 				"/>
				<g>
					<g>
						<polygon fill="#E01B23" points="63.918,63.479 54.537,64.52 43.073,52.855 40.406,39.088 						"/>
					</g>
					<polygon fill="#F68C1F" points="34.692,44.515 40.299,38.953 40.43,39.088 43.096,52.855 36.845,46.705 					"/>
				</g>
			</g>
			
				<linearGradient id="SVGID_7_" gradientUnits="userSpaceOnUse" x1="3222.2676" y1="70.0059" x2="3222.2676" y2="56.7221" gradientTransform="matrix(1 0 0 1 -3192.6914 0)">
				<stop  offset="0.3374" style="stop-color:#B84616"/>
				<stop  offset="0.8282" style="stop-color:#EE781E"/>
			</linearGradient>
			<ellipse clip-path="url(#XMLID_2_)" fill="url(#SVGID_7_)" cx="29.576" cy="63.551" rx="6.166" ry="6.032"/>
			<g clip-path="url(#XMLID_2_)">
				
					<linearGradient id="SVGID_8_" gradientUnits="userSpaceOnUse" x1="3202.2646" y1="32.1006" x2="3212.0105" y2="47.563" gradientTransform="matrix(1 0 0 1 -3192.6914 0)">
					<stop  offset="0" style="stop-color:#D0DA1E"/>
					<stop  offset="0.546" style="stop-color:#7AAC37"/>
				</linearGradient>
				<polygon fill="url(#SVGID_8_)" points="5.845,26.559 6.226,26.93 6.118,26.248 				"/>
				
					<linearGradient id="SVGID_9_" gradientUnits="userSpaceOnUse" x1="3207.7852" y1="28.6729" x2="3217.6238" y2="44.2821" gradientTransform="matrix(1 0 0 1 -3192.6914 0)">
					<stop  offset="0" style="stop-color:#D0DA1E"/>
					<stop  offset="0.546" style="stop-color:#7AAC37"/>
				</linearGradient>
				<polygon fill="url(#SVGID_9_)" points="26.983,36.234 19.4,28.563 7.899,28.563 25.133,45.307 				"/>
				<polygon fill="#88BB3C" points="11.294,20.359 6.118,26.248 6.226,26.93 7.899,28.563 19.4,28.563 				"/>
			</g>
			<polygon opacity="0.56" clip-path="url(#XMLID_2_)" fill="#21367D" points="29.544,32.164 31.231,37.354 36.68,37.354 
				32.273,40.557 33.955,45.741 29.544,42.541 25.131,45.741 26.819,40.557 22.405,37.354 27.858,37.354 			"/>
			<polygon opacity="0.47" clip-path="url(#XMLID_2_)" fill="#243378" points="7.063,64.52 62.164,64.52 63.714,62.969 
				50.326,49.44 39.336,49.44 39.336,60.433 29.575,51.272 19.659,60.669 19.4,49.44 6.977,49.44 			"/>
			<g clip-path="url(#XMLID_2_)">
				<g>
					<path fill="#B91419" d="M58.569,61.583c-0.972-0.026-1.782,0.739-1.81,1.712c-0.026,0.973,0.74,1.783,1.712,1.811
						c0.973,0.026,1.783-0.74,1.81-1.713C60.309,62.421,59.543,61.61,58.569,61.583z M58.483,64.684
						c-0.739-0.021-1.321-0.637-1.302-1.377c0.021-0.74,0.637-1.322,1.377-1.302c0.739,0.021,1.321,0.637,1.302,1.376
						C59.84,64.121,59.224,64.703,58.483,64.684z"/>
					<circle fill="#B91419" cx="58.537" cy="63.397" r="0.405"/>
					
						<rect x="58.362" y="60.262" transform="matrix(0.696 0.7181 -0.7181 0.696 63.2831 -22.7762)" fill="#B91419" width="0.354" height="6.165"/>
				</g>
				<g>
					
						<rect x="52.635" y="55.761" transform="matrix(0.9996 0.0277 -0.0277 0.9996 1.6299 -1.4417)" fill="#B91419" width="0.423" height="4.685"/>
					
						<rect x="53.622" y="55.787" transform="matrix(0.9996 0.0277 -0.0277 0.9996 1.631 -1.469)" fill="#B91419" width="0.423" height="4.686"/>
					
						<rect x="53.114" y="56.267" transform="matrix(0.0277 -0.9996 0.9996 0.0277 -6.739 110.2914)" fill="#B91419" width="0.423" height="4.686"/>
					
						<rect x="53.141" y="55.28" transform="matrix(0.0276 -0.9996 0.9996 0.0276 -5.7226 109.363)" fill="#B91419" width="0.424" height="4.686"/>
					<g>
						<circle fill="#B91419" cx="57.74" cy="59.561" r="0.423"/>
						<circle fill="#B91419" cx="56.377" cy="59.135" r="0.299"/>
						<polygon fill="#B91419" points="54.543,60.494 54.965,60.506 54.979,59.977 55.49,59.991 55.42,62.492 54.508,61.727 
							54.486,62.466 55.863,63.702 55.914,61.854 57.104,60.917 58.477,60.955 58.49,60.463 56.941,60.42 56.041,61.064 
							56.086,59.514 54.57,59.473 						"/>
					</g>
					<g>
						<circle fill="#B91419" cx="52.154" cy="53.713" r="0.423"/>
						<circle fill="#B91419" cx="52.502" cy="55.098" r="0.299"/>
						<polygon fill="#B91419" points="51.045,56.855 51.057,56.432 51.584,56.447 51.599,55.936 49.099,55.867 49.812,56.82 
							49.072,56.801 47.914,55.358 49.764,55.409 50.764,54.273 50.802,52.9 51.295,52.914 51.252,54.464 50.559,55.326 
							52.107,55.369 52.065,56.883 						"/>
					</g>
					<g>
						<path fill="#B91419" d="M48.324,50.875c-0.972-0.026-1.781,0.74-1.81,1.713c-0.027,0.972,0.739,1.783,1.712,1.81
							s1.782-0.739,1.811-1.712C50.063,51.713,49.297,50.902,48.324,50.875z M48.238,53.976c-0.738-0.021-1.322-0.637-1.302-1.376
							c0.021-0.74,0.637-1.322,1.376-1.303c0.739,0.021,1.323,0.637,1.302,1.377C49.594,53.413,48.978,53.996,48.238,53.976z"/>
						<circle fill="#B91419" cx="48.292" cy="52.69" r="0.405"/>
						
							<rect x="48.117" y="49.554" transform="matrix(0.6973 0.7168 -0.7168 0.6973 52.3456 -18.6824)" fill="#B91419" width="0.352" height="6.165"/>
					</g>
					
						<rect x="55.511" y="49.603" transform="matrix(0.7198 -0.6942 0.6942 0.7198 -23.3155 54.4127)" fill="#B91419" width="0.459" height="12.965"/>
					
						<rect x="51.032" y="53.657" transform="matrix(0.7208 -0.6931 0.6931 0.7208 -27.3723 52.318)" fill="#B91419" width="0.458" height="12.964"/>
				</g>
			</g>
			<g clip-path="url(#XMLID_2_)">
				<polygon fill="#00539F" points="27.755,37.203 29.529,31.844 31.168,37.066 29.632,38.67 				"/>
				<polygon fill="#4C9138" points="22.123,37.236 26.799,37.236 26.185,40.206 				"/>
				<polygon fill="#17428E" points="29.632,38.67 26.082,42.186 26.629,40.615 26.185,40.206 26.799,37.236 27.755,37.203 				"/>
				<polygon fill="#243A85" points="29.461,42.663 25.024,45.939 26.082,42.186 29.632,38.67 32.908,42.186 34.035,45.939 				"/>
				<polygon fill="#0168A9" points="32.191,37.105 32.908,40.206 32.43,40.548 32.908,42.186 29.632,38.67 31.168,37.066 				"/>
				<polygon fill="#008FC6" points="36.901,37.236 32.908,40.206 32.191,37.105 				"/>
			</g>
			
				<rect x="48.176" y="36.759" transform="matrix(0.707 0.7072 -0.7072 0.707 43.3779 -24.7593)" clip-path="url(#XMLID_2_)" fill="#C4178D" width="6.791" height="6.432"/>
		</g>
	</g>
	<g>
		<g>
			<defs>
				<rect id="XMLID_7_" x="203.796" y="10" width="105.104" height="52"/>
			</defs>
			<use xlink:href="#XMLID_7_"  overflow="visible" fill="#004892"/>
			<clipPath id="XMLID_3_">
				<use xlink:href="#XMLID_7_"  overflow="visible"/>
			</clipPath>
			
				<linearGradient id="SVGID_10_" gradientUnits="userSpaceOnUse" x1="254.5322" y1="-408.0054" x2="242.3918" y2="-408.0054" gradientTransform="matrix(-1.9105 0.9105 -0.9105 1.9105 390.5531 563.8492)">
				<stop  offset="0" style="stop-color:#24294F"/>
				<stop  offset="0.9448" style="stop-color:#19317D"/>
			</linearGradient>
			<polygon opacity="0.49" clip-path="url(#XMLID_3_)" fill="url(#SVGID_10_)" points="272.271,17.769 277.709,23.208 
				293.052,7.865 287.613,2.426 			"/>
			
				<linearGradient id="SVGID_11_" gradientUnits="userSpaceOnUse" x1="550.2031" y1="119.0176" x2="561.0801" y2="119.0176" gradientTransform="matrix(-1.7574 -0.7574 0.7574 1.7574 1179.7385 225.3313)">
				<stop  offset="0" style="stop-color:#008AC1"/>
				<stop  offset="1" style="stop-color:#8BF8FF"/>
			</linearGradient>
			<polygon opacity="0.25" clip-path="url(#XMLID_3_)" fill="url(#SVGID_11_)" points="283.84,9.531 297.517,23.208 302.955,17.769 
				289.278,4.092 			"/>
			
				<linearGradient id="SVGID_12_" gradientUnits="userSpaceOnUse" x1="666.7461" y1="57.833" x2="666.7461" y2="20.1822" gradientTransform="matrix(-1 0 0 1 954.4063 0)">
				<stop  offset="0" style="stop-color:#24294F"/>
				<stop  offset="0.9448" style="stop-color:#19317D"/>
			</linearGradient>
			<polygon clip-path="url(#XMLID_3_)" fill="url(#SVGID_12_)" points="297.729,18.526 287.554,29.378 277.591,18.526 
				277.76,60.433 287.554,51.361 297.729,60.945 			"/>
			<polygon clip-path="url(#XMLID_3_)" fill="#E31B21" points="298.544,38.865 298.587,39.088 298.456,38.953 			"/>
			<polygon clip-path="url(#XMLID_3_)" fill="#21B9E9" points="283.279,45.17 285.166,36.092 274.349,25.748 268.796,32.008 			"/>
			
				<linearGradient id="SVGID_13_" gradientUnits="userSpaceOnUse" x1="679.6357" y1="30.2461" x2="699.1963" y2="30.2461" gradientTransform="matrix(-1 0 0 1 954.4063 0)">
				<stop  offset="0.2822" style="stop-color:#038562"/>
				<stop  offset="0.7914" style="stop-color:#00A79E"/>
			</linearGradient>
			<polygon clip-path="url(#XMLID_3_)" fill="url(#SVGID_13_)" points="255.21,34.58 260.905,40.133 274.771,25.912 269.075,20.359 
							"/>
			
				<linearGradient id="SVGID_14_" gradientUnits="userSpaceOnUse" x1="651.4512" y1="17.769" x2="662.3281" y2="17.769" gradientTransform="matrix(-1 0 0 1 954.4063 0)">
				<stop  offset="0" style="stop-color:#008AC1"/>
				<stop  offset="1" style="stop-color:#8BF8FF"/>
			</linearGradient>
			<polygon clip-path="url(#XMLID_3_)" fill="url(#SVGID_14_)" points="292.078,17.769 297.517,23.208 302.955,17.769 
				297.517,12.33 			"/>
			
				<linearGradient id="SVGID_15_" gradientUnits="userSpaceOnUse" x1="680.3105" y1="17.7681" x2="668.1712" y2="17.7681" gradientTransform="matrix(-1 0 0 1 954.4063 0)">
				<stop  offset="0" style="stop-color:#008AC1"/>
				<stop  offset="1" style="stop-color:#8BF8FF"/>
			</linearGradient>
			<polygon clip-path="url(#XMLID_3_)" fill="url(#SVGID_15_)" points="272.271,17.769 277.709,23.208 283.147,17.769 
				277.709,12.33 			"/>
			<polygon clip-path="url(#XMLID_3_)" fill="#333D84" points="310.294,35.765 305.972,31.662 298.541,38.912 310.294,51.008 			"/>
			
				<rect x="306.448" y="35.935" transform="matrix(-0.7071 -0.7071 0.7071 -0.7071 501.576 287.3201)" clip-path="url(#XMLID_3_)" fill="#01B0E4" width="7.691" height="7.691"/>
			<polygon clip-path="url(#XMLID_3_)" fill="#F1931C" points="291.107,41.136 295.817,64.117 304.281,64.117 298.671,39.52 			"/>
			<g clip-path="url(#XMLID_3_)">
				<polygon fill="#FBD800" points="310.118,51.031 309.712,61.201 301.229,52.855 298.561,39.088 				"/>
				<g>
					<rect x="297.436" y="48.156" fill="#F8D100" width="8.74" height="0.788"/>
					<rect x="297.436" y="46.315" fill="#F8D100" width="8.74" height="0.788"/>
					<rect x="300.491" y="43.26" fill="#F8D100" width="0.788" height="8.74"/>
					<rect x="302.331" y="43.26" fill="#F8D100" width="0.789" height="8.74"/>
					<g>
						<circle fill="#F8D100" cx="309.954" cy="50.068" r="0.788"/>
						<circle fill="#F8D100" cx="307.391" cy="49.346" r="0.559"/>
						<polygon fill="#F8D100" points="304.039,51.975 304.828,51.975 304.828,50.988 305.781,50.988 305.781,55.654 304.039,54.274 
							304.039,55.654 306.668,57.889 306.668,54.438 308.836,52.631 311.399,52.631 311.399,51.711 308.508,51.711 306.865,52.96 
							306.865,50.068 304.039,50.068 						"/>
					</g>
				</g>
			</g>
			<polygon clip-path="url(#XMLID_3_)" fill="#E31B21" points="292.847,44.515 298.453,38.953 298.586,39.088 301.252,52.855 
				295,46.705 			"/>
			<g clip-path="url(#XMLID_3_)">
				<polygon fill="#D2108D" points="284.144,41.136 279.432,64.117 270.969,64.117 276.578,39.52 				"/>
				<g>
					<g>
						<polygon fill="#E01B23" points="253.178,63.479 262.558,64.52 274.021,52.855 276.688,39.088 						"/>
					</g>
					<polygon fill="#F68C1F" points="282.402,44.515 276.796,38.953 276.666,39.088 274,52.855 280.25,46.705 					"/>
				</g>
			</g>
			
				<linearGradient id="SVGID_16_" gradientUnits="userSpaceOnUse" x1="666.8867" y1="70.0059" x2="666.8867" y2="56.7221" gradientTransform="matrix(-1 0 0 1 954.4063 0)">
				<stop  offset="0.3374" style="stop-color:#B84616"/>
				<stop  offset="0.8282" style="stop-color:#EE781E"/>
			</linearGradient>
			<ellipse clip-path="url(#XMLID_3_)" fill="url(#SVGID_16_)" cx="287.519" cy="63.551" rx="6.166" ry="6.032"/>
			<g clip-path="url(#XMLID_3_)">
				
					<linearGradient id="SVGID_17_" gradientUnits="userSpaceOnUse" x1="646.8896" y1="32.1084" x2="656.6506" y2="47.5947" gradientTransform="matrix(-1 0 0 1 954.4063 0)">
					<stop  offset="0" style="stop-color:#D0DA1E"/>
					<stop  offset="0.546" style="stop-color:#7AAC37"/>
				</linearGradient>
				<polygon fill="url(#SVGID_17_)" points="311.25,26.559 310.869,26.93 310.977,26.248 				"/>
				
					<linearGradient id="SVGID_18_" gradientUnits="userSpaceOnUse" x1="652.4053" y1="28.6729" x2="662.2438" y2="44.2821" gradientTransform="matrix(-1 0 0 1 954.4063 0)">
					<stop  offset="0" style="stop-color:#D0DA1E"/>
					<stop  offset="0.546" style="stop-color:#7AAC37"/>
				</linearGradient>
				<polygon fill="url(#SVGID_18_)" points="290.111,36.234 297.694,28.563 309.195,28.563 291.962,45.307 				"/>
				<polygon fill="#88BB3C" points="305.801,20.359 310.977,26.248 310.869,26.93 309.195,28.563 297.694,28.563 				"/>
			</g>
			<polygon opacity="0.56" clip-path="url(#XMLID_3_)" fill="#21367D" points="287.551,32.164 285.863,37.354 280.416,37.354 
				284.821,40.557 283.14,45.741 287.551,42.541 291.964,45.741 290.275,40.557 294.689,37.354 289.236,37.354 			"/>
			<polygon opacity="0.47" clip-path="url(#XMLID_3_)" fill="#243378" points="310.032,64.52 254.931,64.52 253.381,62.969 
				266.769,49.44 277.76,49.44 277.76,60.433 287.52,51.272 297.436,60.669 297.694,49.44 310.118,49.44 			"/>
			<g clip-path="url(#XMLID_3_)">
				<g>
					<path fill="#B91419" d="M256.813,63.393c0.026,0.973,0.837,1.739,1.81,1.713c0.973-0.027,1.738-0.838,1.713-1.811
						c-0.028-0.973-0.839-1.738-1.811-1.712C257.552,61.61,256.786,62.421,256.813,63.393z M257.234,63.381
						c-0.02-0.739,0.563-1.355,1.302-1.376c0.74-0.021,1.356,0.562,1.377,1.302c0.02,0.74-0.563,1.355-1.302,1.377
						C257.871,64.703,257.255,64.121,257.234,63.381z"/>
					<circle fill="#B91419" cx="258.558" cy="63.397" r="0.405"/>
					
						<rect x="258.379" y="60.262" transform="matrix(-0.696 0.7181 -0.7181 -0.696 483.9901 -78.2299)" fill="#B91419" width="0.354" height="6.165"/>
				</g>
				<g>
					
						<rect x="264.037" y="55.761" transform="matrix(-0.9996 0.0277 -0.0277 -0.9996 530.0052 108.8643)" fill="#B91419" width="0.423" height="4.685"/>
					
						<rect x="263.05" y="55.787" transform="matrix(-0.9996 0.0277 -0.0277 -0.9996 528.0328 108.9453)" fill="#B91419" width="0.423" height="4.686"/>
					
						<rect x="263.558" y="56.267" transform="matrix(-0.0277 -0.9996 0.9996 -0.0277 212.4889 323.9013)" fill="#B91419" width="0.423" height="4.686"/>
					
						<rect x="263.53" y="55.28" transform="matrix(-0.0276 -0.9996 0.9996 -0.0276 213.4303 322.8566)" fill="#B91419" width="0.424" height="4.686"/>
					<g>
						<circle fill="#B91419" cx="259.355" cy="59.561" r="0.423"/>
						<circle fill="#B91419" cx="260.717" cy="59.135" r="0.299"/>
						<polygon fill="#B91419" points="262.553,60.494 262.13,60.506 262.116,59.977 261.604,59.991 261.675,62.492 262.587,61.727 
							262.608,62.466 261.231,63.702 261.181,61.854 259.991,60.917 258.618,60.955 258.604,60.463 260.153,60.42 261.054,61.064 
							261.01,59.514 262.524,59.473 						"/>
					</g>
					<g>
						<circle fill="#B91419" cx="264.941" cy="53.713" r="0.423"/>
						<circle fill="#B91419" cx="264.592" cy="55.098" r="0.299"/>
						<polygon fill="#B91419" points="266.05,56.855 266.038,56.432 265.511,56.447 265.496,55.936 267.996,55.867 267.283,56.82 
							268.022,56.801 269.181,55.358 267.331,55.409 266.331,54.273 266.293,52.9 265.8,52.914 265.843,54.464 266.536,55.326 
							264.987,55.369 265.029,56.883 						"/>
					</g>
					<g>
						<path fill="#B91419" d="M267.058,52.686c0.028,0.973,0.838,1.738,1.811,1.712s1.739-0.838,1.712-1.81
							c-0.027-0.973-0.838-1.739-1.81-1.713C267.798,50.902,267.031,51.713,267.058,52.686z M267.48,52.674
							c-0.021-0.74,0.563-1.355,1.302-1.377c0.739-0.02,1.355,0.563,1.376,1.303c0.021,0.739-0.563,1.355-1.302,1.376
							S267.502,53.413,267.48,52.674z"/>
						<circle fill="#B91419" cx="268.804" cy="52.69" r="0.405"/>
						
							<rect x="268.626" y="49.554" transform="matrix(-0.6987 0.7154 -0.7154 -0.6987 494.2792 -102.8783)" fill="#B91419" width="0.352" height="6.166"/>
					</g>
					
						<rect x="261.125" y="49.603" transform="matrix(-0.7198 -0.6942 0.6942 -0.7198 410.5335 277.8909)" fill="#B91419" width="0.459" height="12.965"/>
					
						<rect x="265.605" y="53.657" transform="matrix(-0.7208 -0.6931 0.6931 -0.7208 415.7733 287.7405)" fill="#B91419" width="0.458" height="12.964"/>
				</g>
			</g>
			<g clip-path="url(#XMLID_3_)">
				<polygon fill="#00539F" points="289.34,37.203 287.565,31.844 285.928,37.066 287.463,38.67 				"/>
				<polygon fill="#4C9138" points="294.972,37.236 290.296,37.236 290.91,40.206 				"/>
				<polygon fill="#17428E" points="287.463,38.67 291.013,42.186 290.466,40.615 290.91,40.206 290.296,37.236 289.34,37.203 				
					"/>
				<polygon fill="#243A85" points="287.634,42.663 292.07,45.939 291.013,42.186 287.463,38.67 284.187,42.186 283.06,45.939 				
					"/>
				<polygon fill="#0168A9" points="284.903,37.105 284.187,40.206 284.666,40.548 284.187,42.186 287.463,38.67 285.928,37.066 
									"/>
				<polygon fill="#008FC6" points="280.193,37.236 284.187,40.206 284.903,37.105 				"/>
			</g>
			
				<rect x="262.127" y="36.759" transform="matrix(-0.707 0.7072 -0.7072 -0.707 481.5261 -119.5341)" clip-path="url(#XMLID_3_)" fill="#C4178D" width="6.791" height="6.432"/>
		</g>
	</g>
	
		<radialGradient id="SVGID_19_" cx="150.2983" cy="69" r="105.8272" gradientTransform="matrix(1.0067 0 0 1 7.1947 0)" gradientUnits="userSpaceOnUse">
		<stop  offset="0" style="stop-color:#C1272D"/>
		<stop  offset="0.2148" style="stop-color:#BB272D"/>
		<stop  offset="0.5056" style="stop-color:#AA272D"/>
		<stop  offset="0.8384" style="stop-color:#8D272D"/>
		<stop  offset="1" style="stop-color:#7D272D"/>
	</radialGradient>
	<rect x="8" y="62" fill="url(#SVGID_19_)" width="301" height="14"/>
	<g>
		<g>
			<g>
				<path fill="#B91419" d="M39.729,66.463c-1.38,1.367-1.396,3.598-0.033,4.986c1.364,1.385,3.587,1.4,4.968,0.031
					c1.381-1.367,1.396-3.601,0.033-4.986C43.336,65.108,41.111,65.092,39.729,66.463z M44.073,70.879
					c-1.049,1.042-2.739,1.029-3.776-0.024c-1.038-1.054-1.026-2.751,0.024-3.792c1.049-1.041,2.74-1.029,3.778,0.023
					C45.136,68.141,45.125,69.838,44.073,70.879z"/>
				<circle fill="#B91419" cx="42.296" cy="69.022" r="0.81"/>
				
					<rect x="41.872" y="62.774" transform="matrix(1 -0.0083 0.0083 1 -0.5731 0.3542)" fill="#B91419" width="0.703" height="12.344"/>
			</g>
			<g>
				<polygon fill="#B91419" points="30.403,72.955 29.804,73.549 23.24,66.873 23.841,66.277 				"/>
				<polygon fill="#B91419" points="31.805,71.565 31.204,72.16 24.642,65.484 25.24,64.891 				"/>
				<polygon fill="#B91419" points="31.243,66.326 31.836,66.928 25.185,73.52 24.594,72.916 				"/>
				<polygon fill="#B91419" points="29.86,64.92 30.452,65.522 23.802,72.113 23.211,71.51 				"/>
				<g>
					<circle fill="#B91419" cx="35.672" cy="64.859" r="0.843"/>
					<circle fill="#B91419" cx="33.181" cy="66.239" r="0.598"/>
					<polygon fill="#B91419" points="32.603,70.773 33.204,70.179 32.463,69.427 33.189,68.706 36.691,72.273 34.331,72.529 
						35.366,73.586 39.046,73.309 36.454,70.674 36.748,67.658 38.697,65.725 38.008,65.023 35.808,67.204 35.494,69.396 
						33.322,67.188 31.172,69.318 					"/>
				</g>
				<g>
					<path fill="#B91419" d="M18.956,64.23c-0.333,0.328-0.336,0.865-0.008,1.197c0.327,0.333,0.859,0.338,1.19,0.008
						c0.333-0.328,0.337-0.865,0.01-1.197C19.821,63.907,19.288,63.902,18.956,64.23z"/>
					<path fill="#B91419" d="M21.602,65.819c-0.234,0.233-0.237,0.612-0.005,0.849c0.231,0.236,0.609,0.238,0.845,0.004
						c0.235-0.23,0.237-0.61,0.006-0.846C22.216,65.59,21.836,65.588,21.602,65.819z"/>
					<polygon fill="#B91419" points="22.539,70.787 21.947,70.186 22.697,69.441 21.98,68.715 18.432,72.232 20.789,72.521 
						19.739,73.563 16.065,73.24 18.69,70.637 18.435,67.619 16.513,65.661 17.212,64.967 19.382,67.176 19.668,69.373 
						21.866,67.192 23.988,69.352 					"/>
				</g>
				<g>
					<path fill="#B91419" d="M10.178,66.438c-1.38,1.367-1.396,3.602-0.032,4.988c1.362,1.385,3.588,1.4,4.967,0.032
						c1.381-1.369,1.396-3.601,0.034-4.989C13.783,65.084,11.559,65.068,10.178,66.438z M14.521,70.856
						c-1.049,1.038-2.739,1.028-3.776-0.024c-1.036-1.057-1.026-2.754,0.023-3.795c1.051-1.038,2.742-1.029,3.778,0.025
						C15.582,68.117,15.572,69.815,14.521,70.856z"/>
					<path fill="#B91419" d="M13.319,68.428c0.313,0.318,0.311,0.832-0.009,1.146c-0.315,0.315-0.828,0.313-1.142-0.006
						c-0.313-0.322-0.309-0.834,0.008-1.146C12.495,68.105,13.006,68.107,13.319,68.428z"/>
					
						<rect x="12.319" y="62.751" transform="matrix(1 -0.0084 0.0084 1 -0.5755 0.1083)" fill="#B91419" width="0.701" height="12.344"/>
				</g>
				<rect x="14.985" y="62.477" fill="#B91419" width="25.853" height="0.918"/>
				<rect x="14.638" y="74.566" fill="#B91419" width="25.853" height="0.916"/>
			</g>
		</g>
		<g>
			<g>
				<path fill="#B91419" d="M68.618,66.463c-1.38,1.367-1.396,3.598-0.032,4.986c1.363,1.385,3.586,1.4,4.968,0.031
					c1.381-1.367,1.396-3.601,0.033-4.986C72.226,65.108,70.002,65.092,68.618,66.463z M72.963,70.879
					c-1.05,1.042-2.74,1.029-3.777-0.024s-1.025-2.751,0.024-3.792s2.74-1.029,3.778,0.023
					C74.024,68.141,74.013,69.838,72.963,70.879z"/>
				<circle fill="#B91419" cx="71.185" cy="69.022" r="0.81"/>
				
					<rect x="70.76" y="62.774" transform="matrix(1 -0.0083 0.0083 1 -0.5721 0.595)" fill="#B91419" width="0.703" height="12.344"/>
			</g>
			<g>
				<polygon fill="#B91419" points="59.293,72.955 58.692,73.549 52.129,66.873 52.729,66.277 				"/>
				<polygon fill="#B91419" points="60.693,71.565 60.093,72.16 53.53,65.484 54.13,64.891 				"/>
				<polygon fill="#B91419" points="60.132,66.326 60.724,66.928 54.073,73.52 53.482,72.916 				"/>
				<polygon fill="#B91419" points="58.75,64.92 59.341,65.522 52.69,72.113 52.1,71.51 				"/>
				<g>
					<circle fill="#B91419" cx="64.562" cy="64.859" r="0.843"/>
					<circle fill="#B91419" cx="62.07" cy="66.239" r="0.598"/>
					<polygon fill="#B91419" points="61.492,70.773 62.093,70.179 61.352,69.427 62.078,68.706 65.58,72.273 63.22,72.529 
						64.255,73.586 67.935,73.309 65.343,70.674 65.637,67.658 67.586,65.725 66.896,65.023 64.697,67.204 64.383,69.396 
						62.211,67.188 60.061,69.318 					"/>
				</g>
				<g>
					<path fill="#B91419" d="M47.846,64.23c-0.334,0.328-0.337,0.865-0.009,1.197c0.327,0.333,0.86,0.338,1.19,0.008
						c0.333-0.328,0.337-0.865,0.01-1.197C48.71,63.907,48.177,63.902,47.846,64.23z"/>
					<path fill="#B91419" d="M50.49,65.819c-0.234,0.233-0.237,0.612-0.005,0.849c0.231,0.236,0.609,0.238,0.845,0.004
						c0.235-0.23,0.237-0.61,0.006-0.846C51.104,65.59,50.725,65.588,50.49,65.819z"/>
					<polygon fill="#B91419" points="51.428,70.787 50.836,70.186 51.586,69.441 50.869,68.715 47.32,72.232 49.678,72.521 
						48.628,73.563 44.954,73.24 47.579,70.637 47.324,67.619 45.401,65.661 46.101,64.967 48.271,67.176 48.556,69.373 
						50.755,67.192 52.877,69.352 					"/>
				</g>
				<rect x="43.876" y="62.477" fill="#B91419" width="25.851" height="0.918"/>
				<rect x="43.528" y="74.566" fill="#B91419" width="25.853" height="0.916"/>
			</g>
		</g>
		<g>
			<g>
				<path fill="#B91419" d="M97.881,66.463c-1.379,1.367-1.395,3.598-0.033,4.986c1.364,1.385,3.587,1.4,4.969,0.031
					c1.381-1.367,1.396-3.601,0.033-4.986C101.488,65.108,99.264,65.092,97.881,66.463z M102.226,70.879
					c-1.05,1.042-2.74,1.029-3.777-0.024s-1.025-2.751,0.024-3.792s2.74-1.029,3.779,0.023
					C103.287,68.141,103.275,69.838,102.226,70.879z"/>
				<circle fill="#B91419" cx="100.448" cy="69.022" r="0.81"/>
				
					<rect x="100.023" y="62.774" transform="matrix(1 -0.0083 0.0083 1 -0.571 0.8388)" fill="#B91419" width="0.703" height="12.344"/>
			</g>
			<g>
				<polygon fill="#B91419" points="88.556,72.955 87.955,73.549 81.392,66.873 81.992,66.277 				"/>
				<polygon fill="#B91419" points="89.957,71.565 89.355,72.16 82.793,65.484 83.393,64.891 				"/>
				<polygon fill="#B91419" points="89.395,66.326 89.986,66.928 83.336,73.52 82.745,72.916 				"/>
				<polygon fill="#B91419" points="88.012,64.92 88.604,65.522 81.953,72.113 81.362,71.51 				"/>
				<g>
					<circle fill="#B91419" cx="93.824" cy="64.859" r="0.843"/>
					<circle fill="#B91419" cx="91.333" cy="66.239" r="0.598"/>
					<polygon fill="#B91419" points="90.755,70.773 91.355,70.179 90.614,69.427 91.341,68.706 94.843,72.273 92.482,72.529 
						93.519,73.586 97.198,73.309 94.606,70.674 94.899,67.658 96.849,65.725 96.159,65.023 93.96,67.204 93.646,69.396 
						91.474,67.188 89.324,69.318 					"/>
				</g>
				<g>
					<path fill="#B91419" d="M77.108,64.23c-0.333,0.328-0.337,0.865-0.009,1.197c0.327,0.333,0.86,0.338,1.19,0.008
						c0.333-0.328,0.337-0.865,0.01-1.197C77.973,63.907,77.439,63.902,77.108,64.23z"/>
					<path fill="#B91419" d="M79.753,65.819c-0.234,0.233-0.237,0.612-0.005,0.849s0.609,0.238,0.846,0.004
						c0.234-0.23,0.236-0.61,0.005-0.846C80.367,65.59,79.988,65.588,79.753,65.819z"/>
					<polygon fill="#B91419" points="80.691,70.787 80.1,70.186 80.849,69.441 80.132,68.715 76.584,72.232 78.94,72.521 
						77.891,73.563 74.217,73.24 76.842,70.637 76.587,67.619 74.664,65.661 75.363,64.967 77.533,67.176 77.818,69.373 
						80.018,67.192 82.14,69.352 					"/>
				</g>
				<rect x="73.138" y="62.477" fill="#B91419" width="25.852" height="0.918"/>
				<rect x="72.791" y="74.566" fill="#B91419" width="25.852" height="0.916"/>
			</g>
		</g>
		<g>
			<g>
				<path fill="#B91419" d="M127.144,66.463c-1.379,1.367-1.394,3.598-0.032,4.986c1.364,1.385,3.587,1.4,4.968,0.031
					c1.381-1.367,1.396-3.601,0.033-4.986C130.752,65.108,128.526,65.092,127.144,66.463z M131.488,70.879
					c-1.049,1.042-2.74,1.029-3.777-0.024s-1.025-2.751,0.025-3.792c1.049-1.041,2.739-1.029,3.777,0.023
					C132.551,68.141,132.539,69.838,131.488,70.879z"/>
				<circle fill="#B91419" cx="129.711" cy="69.022" r="0.81"/>
				
					<rect x="129.286" y="62.774" transform="matrix(1 -0.0083 0.0083 1 -0.57 1.0827)" fill="#B91419" width="0.703" height="12.344"/>
			</g>
			<g>
				<polygon fill="#B91419" points="117.818,72.955 117.218,73.549 110.654,66.873 111.255,66.277 				"/>
				<polygon fill="#B91419" points="119.22,71.565 118.619,72.16 112.056,65.484 112.655,64.891 				"/>
				<polygon fill="#B91419" points="118.657,66.326 119.25,66.928 112.6,73.52 112.008,72.916 				"/>
				<polygon fill="#B91419" points="117.274,64.92 117.867,65.522 111.216,72.113 110.625,71.51 				"/>
				<g>
					<circle fill="#B91419" cx="123.087" cy="64.859" r="0.843"/>
					<circle fill="#B91419" cx="120.595" cy="66.239" r="0.598"/>
					<polygon fill="#B91419" points="120.018,70.773 120.618,70.179 119.877,69.427 120.604,68.706 124.105,72.273 121.745,72.529 
						122.781,73.586 126.461,73.309 123.869,70.674 124.163,67.658 126.111,65.725 125.422,65.023 123.223,67.204 122.909,69.396 
						120.737,67.188 118.587,69.318 					"/>
				</g>
				<g>
					<path fill="#B91419" d="M106.371,64.23c-0.333,0.328-0.337,0.865-0.009,1.197c0.327,0.333,0.86,0.338,1.19,0.008
						c0.333-0.328,0.337-0.865,0.011-1.197C107.235,63.907,106.703,63.902,106.371,64.23z"/>
					<path fill="#B91419" d="M109.017,65.819c-0.235,0.233-0.237,0.612-0.005,0.849c0.231,0.236,0.608,0.238,0.845,0.004
						c0.234-0.23,0.236-0.61,0.005-0.846C109.63,65.59,109.252,65.588,109.017,65.819z"/>
					<polygon fill="#B91419" points="109.954,70.787 109.362,70.186 110.111,69.441 109.395,68.715 105.847,72.232 108.203,72.521 
						107.153,73.563 103.48,73.24 106.104,70.637 105.85,67.619 103.927,65.661 104.627,64.967 106.797,67.176 107.081,69.373 
						109.281,67.192 111.402,69.352 					"/>
				</g>
				<rect x="102.4" y="62.477" fill="#B91419" width="25.853" height="0.918"/>
				<rect x="102.053" y="74.566" fill="#B91419" width="25.853" height="0.916"/>
			</g>
		</g>
		<g>
			<g>
				<path fill="#B91419" d="M156.406,66.463c-1.379,1.367-1.395,3.598-0.031,4.986c1.363,1.385,3.586,1.4,4.967,0.031
					c1.381-1.367,1.396-3.601,0.033-4.986C160.014,65.108,157.789,65.092,156.406,66.463z M160.752,70.879
					c-1.05,1.042-2.741,1.029-3.778-0.024s-1.025-2.751,0.026-3.792c1.048-1.041,2.739-1.029,3.776,0.023
					C161.813,68.141,161.802,69.838,160.752,70.879z"/>
				<circle fill="#B91419" cx="158.974" cy="69.022" r="0.81"/>
				
					<rect x="158.549" y="62.774" transform="matrix(1 -0.0083 0.0083 1 -0.5682 1.3247)" fill="#B91419" width="0.704" height="12.344"/>
			</g>
			<g>
				<polygon fill="#B91419" points="147.081,72.955 146.48,73.549 139.918,66.873 140.518,66.277 				"/>
				<polygon fill="#B91419" points="148.482,71.565 147.882,72.16 141.318,65.484 141.918,64.891 				"/>
				<polygon fill="#B91419" points="147.921,66.326 148.512,66.928 141.862,73.52 141.271,72.916 				"/>
				<polygon fill="#B91419" points="146.537,64.92 147.13,65.522 140.479,72.113 139.888,71.51 				"/>
				<g>
					<path fill="#B91419" d="M152.948,64.266c0.33,0.332,0.326,0.867-0.006,1.195c-0.332,0.33-0.865,0.324-1.19-0.008
						c-0.328-0.332-0.325-0.869,0.007-1.195C152.09,63.928,152.623,63.933,152.948,64.266z"/>
					<circle fill="#B91419" cx="149.858" cy="66.239" r="0.598"/>
					<polygon fill="#B91419" points="149.28,70.773 149.881,70.179 149.14,69.427 149.867,68.706 153.369,72.273 151.009,72.529 
						152.044,73.586 155.724,73.309 153.132,70.674 153.426,67.658 155.375,65.725 154.685,65.023 152.485,67.204 152.172,69.396 
						150,67.188 147.85,69.318 					"/>
				</g>
				<g>
					<path fill="#B91419" d="M135.634,64.23c-0.333,0.328-0.337,0.865-0.007,1.197c0.325,0.333,0.858,0.338,1.188,0.008
						c0.333-0.328,0.337-0.865,0.011-1.197C136.5,63.907,135.966,63.902,135.634,64.23z"/>
					<path fill="#B91419" d="M138.279,65.819c-0.235,0.233-0.236,0.612-0.005,0.849s0.608,0.238,0.845,0.004
						c0.234-0.23,0.236-0.61,0.006-0.846C138.893,65.59,138.514,65.588,138.279,65.819z"/>
					<polygon fill="#B91419" points="139.217,70.787 138.625,70.186 139.375,69.441 138.657,68.715 135.109,72.232 137.467,72.521 
						136.416,73.563 132.743,73.24 135.368,70.637 135.112,67.619 133.189,65.661 133.89,64.967 136.06,67.176 136.345,69.373 
						138.544,67.192 140.666,69.352 					"/>
				</g>
				<rect x="131.663" y="62.477" fill="#B91419" width="25.853" height="0.918"/>
				<rect x="131.316" y="74.566" fill="#B91419" width="25.853" height="0.916"/>
			</g>
		</g>
		<g>
			<g>
				<path fill="#B91419" d="M185.669,66.463c-1.379,1.367-1.395,3.598-0.032,4.986c1.365,1.385,3.587,1.4,4.968,0.031
					c1.381-1.367,1.397-3.601,0.033-4.986C189.276,65.108,187.052,65.092,185.669,66.463z M190.014,70.879
					c-1.049,1.042-2.74,1.029-3.776-0.024c-1.038-1.054-1.026-2.751,0.024-3.792c1.049-1.041,2.74-1.029,3.778,0.023
					C191.076,68.141,191.064,69.838,190.014,70.879z"/>
				<circle fill="#B91419" cx="188.237" cy="69.022" r="0.81"/>
				
					<rect x="187.812" y="62.774" transform="matrix(1 -0.0083 0.0083 1 -0.5672 1.5682)" fill="#B91419" width="0.704" height="12.344"/>
			</g>
			<g>
				<polygon fill="#B91419" points="176.344,72.955 175.744,73.549 169.181,66.873 169.78,66.277 				"/>
				<polygon fill="#B91419" points="177.745,71.565 177.145,72.16 170.582,65.484 171.181,64.891 				"/>
				<polygon fill="#B91419" points="177.184,66.326 177.774,66.928 171.125,73.52 170.534,72.916 				"/>
				<polygon fill="#B91419" points="175.8,64.92 176.393,65.522 169.742,72.113 169.15,71.51 				"/>
				<g>
					<path fill="#B91419" d="M182.211,64.266c0.33,0.332,0.326,0.867-0.006,1.195c-0.332,0.33-0.865,0.324-1.191-0.008
						c-0.327-0.332-0.324-0.869,0.008-1.195C181.353,63.928,181.886,63.933,182.211,64.266z"/>
					<circle fill="#B91419" cx="179.121" cy="66.239" r="0.598"/>
					<polygon fill="#B91419" points="178.543,70.773 179.144,70.179 178.402,69.427 179.13,68.706 182.632,72.273 180.271,72.529 
						181.307,73.586 184.986,73.309 182.395,70.674 182.688,67.658 184.638,65.725 183.947,65.023 181.748,67.204 181.435,69.396 
						179.263,67.188 177.112,69.318 					"/>
				</g>
				<g>
					<path fill="#B91419" d="M164.896,64.23c-0.333,0.328-0.336,0.865-0.008,1.197c0.326,0.333,0.859,0.338,1.189,0.008
						c0.334-0.328,0.338-0.865,0.011-1.197C165.762,63.907,165.229,63.902,164.896,64.23z"/>
					<path fill="#B91419" d="M167.543,65.819c-0.236,0.233-0.238,0.612-0.006,0.849c0.231,0.236,0.609,0.238,0.845,0.004
						c0.235-0.23,0.237-0.61,0.006-0.846C168.155,65.59,167.776,65.588,167.543,65.819z"/>
					<polygon fill="#B91419" points="168.479,70.787 167.888,70.186 168.638,69.441 167.92,68.715 164.372,72.232 166.729,72.521 
						165.68,73.563 162.006,73.24 164.631,70.637 164.375,67.619 162.453,65.661 163.152,64.967 165.322,67.176 165.607,69.373 
						167.807,67.192 169.929,69.352 					"/>
				</g>
				<rect x="160.926" y="62.477" fill="#B91419" width="25.853" height="0.918"/>
				<rect x="160.579" y="74.566" fill="#B91419" width="25.853" height="0.916"/>
			</g>
		</g>
		<g>
			<g>
				<path fill="#B91419" d="M214.933,66.463c-1.38,1.367-1.396,3.598-0.033,4.986c1.364,1.385,3.587,1.4,4.968,0.031
					c1.381-1.367,1.396-3.601,0.033-4.986C218.539,65.108,216.314,65.092,214.933,66.463z M219.276,70.879
					c-1.049,1.042-2.74,1.029-3.776-0.024c-1.038-1.054-1.026-2.751,0.024-3.792c1.049-1.041,2.74-1.029,3.778,0.023
					C220.339,68.141,220.327,69.838,219.276,70.879z"/>
				<circle fill="#B91419" cx="217.5" cy="69.022" r="0.81"/>
				
					<rect x="217.075" y="62.774" transform="matrix(1 -0.0083 0.0083 1 -0.567 1.8142)" fill="#B91419" width="0.703" height="12.344"/>
			</g>
			<g>
				<polygon fill="#B91419" points="205.606,72.955 205.007,73.549 198.443,66.873 199.044,66.277 				"/>
				<polygon fill="#B91419" points="207.008,71.565 206.407,72.16 199.845,65.484 200.443,64.891 				"/>
				<polygon fill="#B91419" points="206.446,66.326 207.038,66.928 200.388,73.52 199.797,72.916 				"/>
				<polygon fill="#B91419" points="205.063,64.92 205.655,65.522 199.005,72.113 198.414,71.51 				"/>
				<g>
					<circle fill="#B91419" cx="210.875" cy="64.859" r="0.843"/>
					<circle fill="#B91419" cx="208.384" cy="66.239" r="0.598"/>
					<polygon fill="#B91419" points="207.806,70.773 208.407,70.179 207.666,69.427 208.393,68.706 211.895,72.273 209.534,72.529 
						210.569,73.586 214.25,73.309 211.657,70.674 211.951,67.658 213.9,65.725 213.21,65.023 211.011,67.204 210.697,69.396 
						208.525,67.188 206.375,69.318 					"/>
				</g>
				<g>
					<path fill="#B91419" d="M194.159,64.23c-0.333,0.328-0.336,0.865-0.008,1.197c0.327,0.333,0.859,0.338,1.19,0.008
						c0.333-0.328,0.337-0.865,0.01-1.197C195.024,63.907,194.491,63.902,194.159,64.23z"/>
					<path fill="#B91419" d="M196.805,65.819c-0.234,0.233-0.237,0.612-0.005,0.849c0.231,0.236,0.609,0.238,0.845,0.004
						c0.235-0.23,0.237-0.61,0.006-0.846C197.419,65.59,197.039,65.588,196.805,65.819z"/>
					<polygon fill="#B91419" points="197.742,70.787 197.15,70.186 197.9,69.441 197.184,68.715 193.635,72.232 195.992,72.521 
						194.942,73.563 191.269,73.24 193.894,70.637 193.638,67.619 191.716,65.661 192.415,64.967 194.586,67.176 194.87,69.373 
						197.069,67.192 199.191,69.352 					"/>
				</g>
				<rect x="190.188" y="62.477" fill="#B91419" width="25.854" height="0.918"/>
				<rect x="189.841" y="74.566" fill="#B91419" width="25.853" height="0.916"/>
			</g>
		</g>
		<g>
			<g>
				<path fill="#B91419" d="M244.195,66.463c-1.38,1.367-1.396,3.598-0.033,4.986c1.364,1.385,3.588,1.4,4.969,0.031
					c1.381-1.367,1.396-3.601,0.032-4.986C247.803,65.108,245.578,65.092,244.195,66.463z M248.54,70.879
					c-1.05,1.042-2.74,1.029-3.777-0.024s-1.025-2.751,0.024-3.792s2.74-1.029,3.778,0.023
					C249.602,68.141,249.59,69.838,248.54,70.879z"/>
				<circle fill="#B91419" cx="246.762" cy="69.022" r="0.81"/>
				
					<rect x="246.337" y="62.774" transform="matrix(1 -0.0083 0.0083 1 -0.566 2.0581)" fill="#B91419" width="0.703" height="12.344"/>
			</g>
			<g>
				<polygon fill="#B91419" points="234.87,72.955 234.27,73.549 227.706,66.873 228.307,66.277 				"/>
				<polygon fill="#B91419" points="236.271,71.565 235.67,72.16 229.107,65.484 229.707,64.891 				"/>
				<polygon fill="#B91419" points="235.709,66.326 236.301,66.928 229.65,73.52 229.06,72.916 				"/>
				<polygon fill="#B91419" points="234.326,64.92 234.918,65.522 228.268,72.113 227.677,71.51 				"/>
				<g>
					<circle fill="#B91419" cx="240.139" cy="64.859" r="0.843"/>
					<circle fill="#B91419" cx="237.647" cy="66.239" r="0.598"/>
					<polygon fill="#B91419" points="237.069,70.773 237.67,70.179 236.929,69.427 237.655,68.706 241.157,72.273 238.797,72.529 
						239.832,73.586 243.512,73.309 240.92,70.674 241.214,67.658 243.163,65.725 242.474,65.023 240.274,67.204 239.96,69.396 
						237.788,67.188 235.638,69.318 					"/>
				</g>
				<g>
					<path fill="#B91419" d="M223.423,64.23c-0.334,0.328-0.337,0.865-0.009,1.197c0.327,0.333,0.86,0.338,1.19,0.008
						c0.333-0.328,0.337-0.865,0.01-1.197C224.287,63.907,223.754,63.902,223.423,64.23z"/>
					<path fill="#B91419" d="M226.067,65.819c-0.233,0.233-0.237,0.612-0.005,0.849c0.231,0.236,0.609,0.238,0.845,0.004
						c0.235-0.23,0.237-0.61,0.006-0.846C226.682,65.59,226.302,65.588,226.067,65.819z"/>
					<polygon fill="#B91419" points="227.005,70.787 226.413,70.186 227.163,69.441 226.446,68.715 222.897,72.232 225.255,72.521 
						224.205,73.563 220.531,73.24 223.156,70.637 222.901,67.619 220.979,65.661 221.678,64.967 223.848,67.176 224.133,69.373 
						226.332,67.192 228.454,69.352 					"/>
				</g>
				<rect x="219.452" y="62.477" fill="#B91419" width="25.852" height="0.918"/>
				<rect x="219.105" y="74.566" fill="#B91419" width="25.853" height="0.916"/>
			</g>
		</g>
		<g>
			<g>
				<path fill="#B91419" d="M273.459,66.463c-1.381,1.367-1.396,3.598-0.034,4.986c1.364,1.385,3.587,1.4,4.969,0.031
					c1.381-1.367,1.396-3.601,0.033-4.986C277.065,65.108,274.841,65.092,273.459,66.463z M277.803,70.879
					c-1.05,1.042-2.74,1.029-3.777-0.024s-1.025-2.751,0.024-3.792s2.74-1.029,3.778,0.023
					C278.864,68.141,278.853,69.838,277.803,70.879z"/>
				<circle fill="#B91419" cx="276.025" cy="69.022" r="0.81"/>
				
					<rect x="275.6" y="62.774" transform="matrix(1 -0.0083 0.0083 1 -0.5649 2.3019)" fill="#B91419" width="0.703" height="12.344"/>
			</g>
			<g>
				<polygon fill="#B91419" points="264.133,72.955 263.532,73.549 256.969,66.873 257.569,66.277 				"/>
				<polygon fill="#B91419" points="265.534,71.565 264.933,72.16 258.37,65.484 258.97,64.891 				"/>
				<polygon fill="#B91419" points="264.972,66.326 265.563,66.928 258.913,73.52 258.322,72.916 				"/>
				<polygon fill="#B91419" points="263.589,64.92 264.182,65.522 257.53,72.113 256.939,71.51 				"/>
				<g>
					<circle fill="#B91419" cx="269.401" cy="64.859" r="0.843"/>
					<circle fill="#B91419" cx="266.91" cy="66.239" r="0.599"/>
					<polygon fill="#B91419" points="266.332,70.773 266.933,70.179 266.191,69.427 266.918,68.706 270.42,72.273 268.06,72.529 
						269.096,73.586 272.775,73.309 270.184,70.674 270.477,67.658 272.426,65.725 271.736,65.023 269.537,67.204 269.224,69.396 
						267.051,67.188 264.901,69.318 					"/>
				</g>
				<g>
					<path fill="#B91419" d="M252.686,64.23c-0.333,0.328-0.337,0.865-0.009,1.197c0.327,0.333,0.86,0.338,1.19,0.008
						c0.333-0.328,0.337-0.865,0.01-1.197C253.55,63.907,253.017,63.902,252.686,64.23z"/>
					<path fill="#B91419" d="M255.33,65.819c-0.234,0.233-0.237,0.612-0.005,0.849s0.609,0.238,0.846,0.004
						c0.234-0.23,0.236-0.61,0.005-0.846C255.944,65.59,255.564,65.588,255.33,65.819z"/>
					<polygon fill="#B91419" points="256.269,70.787 255.677,70.186 256.426,69.441 255.709,68.715 252.16,72.232 254.518,72.521 
						253.468,73.563 249.794,73.24 252.419,70.637 252.164,67.619 250.241,65.661 250.94,64.967 253.11,67.176 253.396,69.373 
						255.595,67.192 257.717,69.352 					"/>
				</g>
				<rect x="248.715" y="62.477" fill="#B91419" width="25.852" height="0.918"/>
				<rect x="248.368" y="74.566" fill="#B91419" width="25.853" height="0.916"/>
			</g>
		</g>
		<g>
			<g>
				<path fill="#B91419" d="M302.721,66.463c-1.379,1.367-1.395,3.598-0.032,4.986c1.364,1.385,3.587,1.4,4.968,0.031
					c1.381-1.367,1.396-3.601,0.033-4.986C306.328,65.108,304.104,65.092,302.721,66.463z M307.065,70.879
					c-1.049,1.042-2.74,1.029-3.777-0.024c-1.036-1.054-1.025-2.751,0.025-3.792c1.049-1.041,2.739-1.029,3.777,0.023
					C308.128,68.141,308.116,69.838,307.065,70.879z"/>
				<circle fill="#B91419" cx="305.288" cy="69.022" r="0.81"/>
				
					<rect x="304.863" y="62.774" transform="matrix(1 -0.0083 0.0083 1 -0.5639 2.5458)" fill="#B91419" width="0.703" height="12.344"/>
			</g>
			<g>
				<polygon fill="#B91419" points="293.396,72.955 292.795,73.549 286.231,66.873 286.832,66.277 				"/>
				<polygon fill="#B91419" points="294.797,71.565 294.196,72.16 287.633,65.484 288.232,64.891 				"/>
				<polygon fill="#B91419" points="294.234,66.326 294.826,66.928 288.177,73.52 287.586,72.916 				"/>
				<polygon fill="#B91419" points="292.852,64.92 293.444,65.522 286.793,72.113 286.202,71.51 				"/>
				<g>
					<circle fill="#B91419" cx="298.664" cy="64.859" r="0.843"/>
					<circle fill="#B91419" cx="296.172" cy="66.239" r="0.598"/>
					<polygon fill="#B91419" points="295.595,70.773 296.195,70.179 295.454,69.427 296.182,68.706 299.683,72.273 297.322,72.529 
						298.358,73.586 302.038,73.309 299.446,70.674 299.74,67.658 301.688,65.725 301,65.023 298.8,67.204 298.486,69.396 
						296.314,67.188 294.164,69.318 					"/>
				</g>
				<g>
					<path fill="#B91419" d="M281.948,64.23c-0.333,0.328-0.337,0.865-0.009,1.197c0.327,0.333,0.86,0.338,1.19,0.008
						c0.333-0.328,0.337-0.865,0.011-1.197C282.813,63.907,282.28,63.902,281.948,64.23z"/>
					<path fill="#B91419" d="M284.594,65.819c-0.235,0.233-0.237,0.612-0.005,0.849c0.231,0.236,0.608,0.238,0.845,0.004
						c0.234-0.23,0.236-0.61,0.005-0.846C285.207,65.59,284.828,65.588,284.594,65.819z"/>
					<polygon fill="#B91419" points="285.531,70.787 284.939,70.186 285.688,69.441 284.972,68.715 281.423,72.232 283.78,72.521 
						282.73,73.563 279.058,73.24 281.682,70.637 281.427,67.619 279.504,65.661 280.203,64.967 282.375,67.176 282.658,69.373 
						284.858,67.192 286.979,69.352 					"/>
				</g>
				<rect x="277.977" y="62.477" fill="#B91419" width="25.852" height="0.918"/>
				<rect x="277.63" y="74.566" fill="#B91419" width="25.853" height="0.916"/>
			</g>
		</g>
	</g>
</g>
<g>
	<g>
		<path fill="#FFFFFF" d="M203.812,58.748c-3.778,0-7.563-0.793-11.255-2.357l1.035-1.962c2.426,0.997,4.727,1.461,7.43,1.52h0.406
			c4.145,0,7.042-1.324,8.861-4.058c1.004-1.507,1.582-4.031,0.688-5.736c-0.588-1.131-1.863-1.73-3.68-1.73l-0.113,0.002
			c-0.824,0.014-1.43,0.084-2.266,0.276l-1.861-1.948c0.09-3.329,0.32-6.152,0.681-8.406c0.464,0.027,0.946,0.039,1.435,0.039
			c2.264,0,4.679-0.297,7.006-0.854l1.164,4.285c-2.283-0.063-5.452-0.349-7.316-0.794l-0.195-0.044l-0.029,0.199
			c-0.137,1.027-0.217,2.245-0.307,3.658l-0.091,1.425l0.265-0.106c1.109-0.43,2.211-0.644,3.375-0.658h0.145
			c2.164,0,3.83,0.616,4.958,1.842c1.291,1.4,1.901,3.235,1.767,5.307c-0.199,3.029-1.463,5.521-3.66,7.222
			c-2.256,1.737-5.357,2.842-8.096,2.877L203.812,58.748z M120.263,58.676c-0.101-1.512-0.292-4.403-0.544-6.855l-0.044-0.414
			l-0.274,0.314c-1.415,1.598-2.719,2.949-5.493,4.531c-1.553,0.885-3.349,1.403-4.927,1.421h-0.103
			c-4.054,0-7.093-2.975-7.386-7.241c-0.246-3.503,0.844-6.777,2.908-8.748c1.756-1.678,3.691-2.512,5.91-2.537l0.082-0.005
			c1.885,0,3.578,0.892,4.658,2.443c0.873,1.251,1.031,3.691,0.394,5.848l-4.201-0.839c1.078-1.173,1.744-2.705,1.573-3.68
			c-0.152-0.834-1.107-1.486-2.176-1.486c-0.895,0.012-1.729,0.354-2.659,1.077c-2.321,1.81-3.247,4.899-2.536,8.47
			c0.44,2.254,1.982,3.65,4.024,3.65c0.862-0.011,1.767-0.201,2.815-0.576c2.908-1.045,5.021-2.566,7.058-5.098l0.045-0.057
			l-0.081-0.809c-0.1-1.094-0.227-2.131-0.344-3.117c-0.281-2.364-0.521-4.408-0.438-6.354c0.134-3.224,1.065-5.393,2.771-6.442
			c0.648-0.4,1.495-0.624,2.386-0.624c0.825,0,1.618,0.193,2.229,0.545c1.852,1.073,2.172,3.143,2.228,3.754
			c0.491,5.396-2.466,8.904-6.214,13.35l-0.639,0.762l0.01,0.079c0.018,0.12,0.039,0.384,0.058,0.635l0.088,0.991l0.288-0.526
			c0.998-1.827,2.828-2.831,4.051-2.843l0.086-0.004c1.772,0,2.889,0.721,3.982,2.57c0.381,0.641,1.042,1.662,1.439,2.189
			c0.186,0.249,0.791,0.906,1.338,0.906c0.639-0.009,0.971-0.869,1.189-1.619c0.309-1.043,0.51-2.135,0.678-3.625l2.735-0.055
			c0.109,2.837,1.228,5.405,2.435,5.539c0.067,0.012,0.135,0.013,0.203,0.013c1.225,0,2.674-1.22,3.977-3.356l0.049-0.08
			l-0.039-0.088c-1.879-4.131-3.139-11.021-2.014-14.055c0.736-1.979,1.696-2.842,3.426-3.083c0.169-0.02,0.335-0.029,0.496-0.029
			c1.152,0,2.336,0.552,3.166,1.476c1.315,1.469,2.071,4.371,1.845,7.059c-0.255,3.021-1.729,6.594-4.042,9.797l-0.064,0.086
			l0.047,0.1c0.914,1.896,2.637,2.296,3.92,2.296h0.078c1.464-0.02,3.209-0.558,4.779-1.489l0.191-0.113l-0.145-0.164
			c-1.757-1.991-2.65-5.58-2.006-8.002c0.492-1.795,2.145-3.621,4.364-3.651h0.003c0.331,0,0.725,0.034,1.006,0.079
			c2.868,0.498,4.359,2.762,3.98,6.054c-0.297,2.581-2.361,5.42-3.4,6.364l-0.182,0.167l0.211,0.122
			c0.619,0.373,1.455,0.585,2.298,0.585c1.854-0.022,2.864-0.755,4.235-2.284l2.199,3.288c-1.654,1.368-3.217,1.978-5.051,1.978
			c-0.463,0-0.957-0.042-1.465-0.119c-1.515-0.229-2.794-0.907-4.031-2.134l-0.113-0.113l-0.127,0.101
			c-2.412,1.941-3.707,2.628-6.16,2.628c-0.229,0-0.465,0-0.711-0.015c-2.408-0.104-4.033-1.268-5.278-3.77l-0.13-0.26l-0.18,0.228
			c-1.935,2.541-3.213,3.353-5.256,3.353c-0.09,0-0.174,0-0.268-0.004c-2.057-0.071-3.448-2.158-3.736-3.255l-0.354,0.011
			c-0.256,1.421-1.653,2.774-3.058,2.964c-0.152,0.021-0.307,0.029-0.465,0.029c-0.605,0-1.218-0.154-1.774-0.448
			c-1.407-0.744-2.136-1.951-2.937-3.459c-0.572-1.067-1.045-1.511-1.621-1.511c-0.154,0-0.322,0.031-0.527,0.096
			c-0.97,0.322-1.551,1.9-1.973,3.058c-0.428,1.175-0.82,2.531-1.152,4.029L120.263,58.676z M157.465,43.802
			c-0.1,0-0.205,0.007-0.313,0.025c-1.544,0.196-1.932,1.685-2.014,2.134c-0.26,1.509,0.865,4.549,1.859,5.631l0.111,0.125
			l0.133-0.098c1.615-1.188,2.49-3.317,2.34-5.697c-0.063-1.057-0.732-2.12-2.084-2.12H157.465z M145.262,36.047
			c-0.693,0.006-1.242,0.812-1.459,1.559c-0.676,2.334,0.16,7.771,1.324,10.888l0.135,0.343l0.195-0.313
			c1.643-2.623,1.995-5.484,2-7.418c0.012-2.875-0.8-4.115-1.279-4.598c-0.301-0.301-0.619-0.461-0.904-0.461H145.262z
			 M123.259,34.708c-0.347,0-0.673,0.118-0.949,0.35c-0.819,0.692-1.281,1.751-1.493,3.43c-0.291,2.235-0.264,3.368,0.186,8.083
			l0.041,0.469l0.285-0.377c2.695-3.573,3.978-7.719,3.344-10.818C124.539,35.186,123.944,34.708,123.259,34.708 M182.492,57.07
			c-2.009,0-4.186-1.411-5.683-3.687l-0.116-0.177l-0.158,0.141c-1.289,1.135-2.471,1.69-3.949,1.844l-0.227,0.017l-0.121,0.003
			c-1.716,0-3.277-1.327-3.564-3.016c-0.297-1.796,0.742-4.086,2.94-4.652c0.348-0.091,0.677-0.134,0.991-0.134
			c1.227,0,2.361,0.666,3.684,2.153l0.148,0.17l0.135-0.186c1.713-2.434,2.985-7.757,1.232-10.124
			c-0.594-0.802-1.637-1.301-2.727-1.301c-0.489,0-0.963,0.106-1.369,0.299c-1.121,0.537-1.824,1.962-1.906,3.848l-4.248-1.229
			c0.689-1.992,2.115-4.482,5.038-5.427c0.659-0.21,1.354-0.317,2.079-0.317c2.309,0,4.455,1.094,5.611,2.855
			c2.371,3.619,1.539,8.871-2.121,13.375l-0.104,0.123l0.11,0.12c1.393,1.452,2.684,2.146,4.053,2.18
			c0.07,0.002,0.146,0.005,0.216,0.005c1.405,0,2.366-0.475,3.283-1.631l2.321,0.906c-0.847,2.714-3.324,3.77-5.385,3.84
			L182.492,57.07z M172.598,49.37c-0.066,0-0.141,0.006-0.213,0.012c-0.785,0.082-1.638,0.686-1.646,1.518
			c-0.014,0.86,0.483,1.42,1.296,1.468c0.062,0.002,0.12,0.004,0.186,0.004c1.009,0,2.153-0.461,2.911-1.168l0.123-0.109
			l-0.102-0.135C174.389,49.932,173.48,49.37,172.598,49.37 M199.782,53.221c-1.575-0.112-3.095-0.641-4.444-1.109
			c-0.16-0.058-0.32-0.113-0.475-0.164c2.023-4.048,3.012-10.211,3.646-15.155l-0.333-0.124c-0.761,1.17-1.575,1.971-2.437,2.824
			c-0.188,0.187-0.375,0.37-0.57,0.569l-2.969-2.004c2.34-1.505,3.883-2.646,5.992-4.784c0.377,0.114,1.645,0.482,2.702,0.654
			C200.1,39.271,199.35,47.418,199.782,53.221 M188.461,51.131c-1.3,0-2.574-0.578-3.499-1.578c-0.864-0.924-1.345-2.144-1.354-3.43
			c-0.029-2.488,1.039-4.795,2.727-5.892c0.668-0.433,1.45-0.667,2.262-0.675h0.004c1.242,0,2.443,0.477,3.366,1.306
			c1.254,1.226,1.874,3.003,1.693,4.865c-0.192,1.985-1.247,3.747-2.822,4.718c-0.72,0.445-1.498,0.672-2.321,0.686H188.461z
			 M188.168,42.797c-0.545,0.008-1.121,0.299-1.533,0.771c-0.543,0.616-0.861,1.496-0.81,2.248c0.073,1.039,0.989,2.198,2.187,2.198
			c0.144,0,0.279-0.019,0.42-0.046c1.24-0.241,2.126-1.746,2.082-2.929c-0.039-1.175-1.146-2.244-2.316-2.244h-0.005L188.168,42.797
			z M135.756,46.097c-0.082,0-0.17-0.002-0.269-0.013c-0.96-0.092-1.989-0.803-2.104-1.975c-0.061-0.616,0.149-1.217,0.592-1.69
			c0.422-0.446,1.006-0.735,1.611-0.796c0.076-0.007,0.146-0.011,0.219-0.018c1.109,0,2.299,0.75,2.422,1.999
			c0.121,1.226-0.78,2.175-1.724,2.388C136.178,46.064,135.979,46.097,135.756,46.097"/>
		<path fill="#FFFFFF" d="M116.785,27.865c-3.36,0-5.449-2.117-5.449-5.52c0-3.369,2.17-5.541,5.524-5.541
			c3.36,0,5.449,2.119,5.449,5.541C122.31,25.748,120.192,27.865,116.785,27.865 M116.785,18.742c-2.408,0-2.767,2.258-2.767,3.604
			c0,1.349,0.367,3.613,2.842,3.613c2.414,0,2.773-2.265,2.773-3.613C119.634,21,119.262,18.742,116.785,18.742"/>
		<path fill="#FFFFFF" d="M201.885,27.854c-3.307,0-5.283-2.064-5.283-5.521c0-3.412,2.035-5.527,5.303-5.527
			c0.963,0,1.916,0.161,3.094,0.524c0.261,0.078,0.9,0.285,1.216,0.387l-0.747,1.956c-0.25-0.082-0.712-0.222-0.904-0.279
			c-0.881-0.254-1.617-0.426-2.385-0.426c-1.873,0-2.82,1.133-2.82,3.365c0,2.218,0.953,3.346,2.83,3.346
			c0.727,0,1.482-0.131,2.311-0.388l0.205-0.067l-0.875,2.395l-0.063,0.021c-0.704,0.144-1.271,0.216-1.782,0.216H201.885z"/>
		<path fill="#FFFFFF" d="M106.738,27.854c-3.306,0-5.277-2.064-5.277-5.521c0-3.412,2.03-5.527,5.301-5.527
			c0.92,0,1.871,0.161,3.089,0.526l0.838,0.242l-0.704,1.994l-0.541-0.161c-0.996-0.283-1.674-0.438-2.412-0.438
			c-1.875,0-2.82,1.133-2.82,3.365c0,2.218,0.952,3.346,2.828,3.346c0.761,0,1.545-0.137,2.401-0.414l0.543-0.178l0.705,1.993
			l-0.838,0.257c-1.197,0.352-2.154,0.518-3.022,0.518H106.738z"/>
		<path fill="#FFFFFF" d="M163.271,27.822c-0.752,0-1.24-0.306-1.445-0.914l-1.641-4.874l-0.506,0.067v5.647h-2.32v-9.38
			c0-0.987,0.721-1.575,1.924-1.575c1.123,0,1.803,0.461,2.131,1.454l1.904,5.822l1.984-5.822c0.236-0.721,0.666-1.454,2.069-1.454
			c1.196,0,1.882,0.572,1.882,1.575v9.38h-2.393v-5.685l-0.5-0.082l-1.703,4.926C164.492,27.52,164.027,27.822,163.271,27.822"/>
		<path fill="#FFFFFF" d="M213.146,27.754l-0.672-1.951h-3.972l-0.366,1.043c-0.181,0.543-0.692,0.908-1.273,0.908h-1.722
			l3.594-9.834c0.276-0.779,0.878-1.159,1.834-1.159c0.91,0,1.551,0.408,1.807,1.145l3.473,9.848H213.146z M209.047,23.879h2.897
			l-1.42-4.317L209.047,23.879z"/>
		<rect x="192.119" y="16.876" fill="#FFFFFF" width="2.684" height="10.873"/>
		<path fill="#FFFFFF" d="M187.775,27.754l-1.727-3.934h-2.271v3.934h-2.643v-9.531c0-0.815,0.586-1.346,1.494-1.346h3.818
			c2.24,0,3.745,1.346,3.745,3.345c0,1.206-0.542,2.21-1.519,2.823l-0.212,0.127l2.118,4.582H187.775z M183.777,21.928l2.299-0.012
			c0.961,0,1.555-0.879,1.555-1.694c0-0.868-0.623-1.455-1.555-1.455h-2.299V21.928z"/>
		<path fill="#FFFFFF" d="M172.856,27.751c-0.933,0-1.513-0.517-1.513-1.351v-8.161c0-0.841,0.58-1.363,1.513-1.363h6.536v0.657
			c0,0.706-0.617,1.307-1.345,1.307h-4.058v2.426h4.698v1.896h-4.698v2.637h5.402v1.952H172.856z"/>
		<path fill="#FFFFFF" d="M153.645,27.754l-0.674-1.951h-3.977l-0.358,1.041c-0.174,0.533-0.698,0.91-1.276,0.91h-1.721l3.592-9.834
			c0.283-0.779,0.885-1.159,1.832-1.159c0.912,0,1.552,0.408,1.809,1.145l3.476,9.848H153.645z M149.547,23.879h2.895l-1.422-4.314
			L149.547,23.879z"/>
		<path fill="#FFFFFF" d="M139.721,27.754l-0.676-1.951h-3.967l-0.371,1.047c-0.162,0.531-0.688,0.904-1.268,0.904h-1.725
			l3.594-9.834c0.277-0.779,0.878-1.159,1.84-1.159c0.909,0,1.551,0.408,1.805,1.145l3.48,9.848H139.721z M135.625,23.879h2.902
			l-1.426-4.314L135.625,23.879z"/>
		<path fill="#FFFFFF" d="M123.883,27.754v-9.512c0-0.843,0.58-1.366,1.516-1.366h3.338c2.252,0,3.706,1.379,3.706,3.515
			c0,2.14-1.511,3.522-3.847,3.522h-2.104v3.84H123.883z M126.491,21.982h1.905c1.018,0,1.627-0.594,1.627-1.591
			c0-1.089-0.623-1.599-1.953-1.599h-1.579V21.982z"/>
		<path fill="#FFFFFF" d="M175.108,15.531l1.19-1.613c0.125-0.176,0.229-0.329,0.497-0.329h1.362c0.207,0,0.337,0.052,0.375,0.143
			c0.051,0.114-0.053,0.248-0.15,0.34l-1.589,1.458H175.108z"/>
	</g>
</g>
</svg>
