<?xml version="1.0" encoding="utf-8"?>
<!-- Generator: Adobe Illustrator 16.0.0, SVG Export Plug-In . SVG Version: 6.00 Build 0)  -->
<!DOCTYPE svg PUBLIC "-//W3C//DTD SVG 1.1//EN" "http://www.w3.org/Graphics/SVG/1.1/DTD/svg11.dtd">
<svg version="1.1" xmlns="http://www.w3.org/2000/svg" xmlns:xlink="http://www.w3.org/1999/xlink" x="0px" y="0px" width="777px"
	 height="75px" viewBox="0 0 777 75" enable-background="new 0 0 777 75" xml:space="preserve">
<g id="Marcos_y_Cintillos">
</g>
<g id="Imagenes">
	<g id="Capa_2">
	</g>
</g>
<g id="Botones">
</g>
<g id="Logo">
</g>
<g id="Iconos">
	<path fill="#FFFFFF" d="M742.195,39.384c0.027-0.062,0.355-0.963-0.02-1.319C743.68,34.975,748.9,22,748.9,22h-6.207
		c-0.961,3-2.705,6.621-4.183,10.027L734.362,22h-6.153c0,0,6.182,14.778,6.693,15.948c-0.115,0.137-0.169,0.467,0.104,1.159
		c-2.677,1.268-4.527,4.024-4.527,7.184c0,4.37,3.543,7.932,7.913,7.932s7.913-3.538,7.913-7.907
		C746.305,43.325,744.645,40.729,742.195,39.384z M741.758,39.161c-1.021-0.481-2.162-0.752-3.366-0.752
		c-1.021,0-1.995,0.195-2.891,0.547c-0.024-0.049-0.134-0.278-0.118-0.466c0.031,0.005,0.05,0.005,0.05,0.005
		c0.098,0,0.653-0.127,0.653-0.127l0.005-0.01c0.72-0.127,1.91-0.289,2.936-0.207c1.598,0.127,2.759,0.703,2.759,0.703
		c0.015,0.005,0.043-0.025,0.082-0.085C741.889,38.866,741.838,39.033,741.758,39.161z"/>
	<path fill="#FFFFFF" d="M50.911,39.795c0.038-0.086,0.493-1.163-0.027-1.657C52.972,33.847,60.224,16,60.224,16h-8.622
		c-1.335,5-3.757,9.196-5.81,13.928L40.031,16h-8.547c0,0,8.586,20.351,9.297,21.976c-0.16,0.189-0.234,0.561,0.144,1.522
		c-3.718,1.762-6.289,5.546-6.289,9.933c0,6.072,4.921,10.996,10.991,10.996c6.07,0,10.991-4.927,10.991-10.993
		C56.618,45.279,54.313,41.663,50.911,39.795z M50.303,39.486c-1.419-0.669-3.003-1.045-4.676-1.045
		c-1.417,0-2.771,0.271-4.015,0.759c-0.034-0.067-0.186-0.386-0.164-0.646c0.043,0.007,0.069,0.007,0.069,0.007
		c0.136,0,0.908-0.176,0.908-0.176l0.007-0.015c1-0.176,2.653-0.401,4.077-0.286c2.219,0.175,3.832,0.976,3.832,0.976
		c0.02,0.008,0.06-0.035,0.114-0.118C50.484,39.076,50.414,39.308,50.303,39.486z"/>
	<rect x="631" y="31" fill="#FFFFFF" width="14" height="14"/>
	<circle fill="#FFFFFF" cx="533.982" cy="38.152" r="8"/>
	<g>
		<circle opacity="0.75" fill="#FFFFFF" cx="412.295" cy="38.152" r="17.315"/>
		<polygon opacity="0.9" fill="#333333" points="409.03,44.18 409.03,32.251 416.486,38.215 		"/>
	</g>
	<g opacity="0.85">
		<polygon opacity="0.75" fill="#333333" points="274.5,28.618 307.063,23.993 309.938,45.055 277.563,49.493 		"/>
		<path fill="#FFFFFF" d="M273.241,27.335l3.645,26.383l34.383-4.749l-3.646-26.384L273.241,27.335z M309.66,44.854l-32,4.422
			l-2.822-20.426l31.999-4.421L309.66,44.854z"/>
		<g>
			<path fill="#CCCCCC" d="M305.102,41.596c-2.502-2.9-8.794-6.438-8.794-6.438s-0.76,0.041-1.77,0.131l-0.647-1.751l-3.667,0.506
				l-0.157,1.674c-0.136,0.019-0.256,0.032-0.349,0.049c-1.205,0.212-3.844,1.953-3.844,1.953
				c-2.309-0.504-7.699,11.108-7.699,11.108l29.612-4.084L305.102,41.596z"/>
			<path fill="#CCCCCC" d="M287.878,30.238l1.805,0.025l0.692-0.336l0.172,4.039l2.716-0.409l-1.258-3.889l1.226,0.26l1.112-0.788
				l-0.21-0.416l0.308-0.142l-0.005-0.166l-0.42,0.058l-0.369,0.064l-0.387-0.077l-0.83,0.327l-1.022,0.126L291.391,29h-0.002
				c-0.094-1,0.02-0.446,0.002-0.578c-0.054-0.389-0.325-0.78-0.594-0.743s-0.449,0.331-0.395,0.721
				c0.035,0.25,0.152,0.429,0.304,0.537l0.021,0.125l-0.148,0.068l-0.227,0.047l-0.507,0.156l-1.36,0.067l-0.509-0.084l-0.25,0.24
				l0.078,0.145L287.878,30.238z"/>
		</g>
	</g>
	<g>
		<rect x="153" y="36" fill="#FFFFFF" width="6" height="5"/>
		<rect x="160" y="36" fill="#FFFFFF" width="6" height="5"/>
		<rect x="167" y="36" fill="#FFFFFF" width="6" height="5"/>
		<rect x="174" y="36" fill="#FFFFFF" width="6" height="5"/>
		<rect x="153" y="42" fill="#FFFFFF" width="6" height="5"/>
		<rect x="160" y="42" fill="#FFFFFF" width="6" height="5"/>
		<rect x="174" y="42" fill="#FFFFFF" width="6" height="5"/>
		<rect x="153" y="48" fill="#FFFFFF" width="6" height="5"/>
		<rect x="160" y="48" fill="#FFFFFF" width="6" height="5"/>
		<rect x="167" y="48" fill="#FFFFFF" width="6" height="5"/>
		<rect x="174" y="48" fill="#FFFFFF" width="6" height="5"/>
		<g>
			<polygon fill="#FFFFFF" points="169.468,46.97 166.826,44.557 168.174,43.08 169.365,44.167 171.607,41.798 173.06,43.172 			"/>
		</g>
		<g>
			<path fill="#FFFFFF" d="M157.958,27.319c-0.852,0-1.542-0.746-1.542-1.667v-5.333c0-0.921,0.69-1.667,1.542-1.667
				c0.852,0,1.542,0.746,1.542,1.667v5.333C159.5,26.573,158.81,27.319,157.958,27.319z"/>
		</g>
		<g>
			<path fill="#FFFFFF" d="M177.021,27.319c-0.817,0-1.479-0.746-1.479-1.667v-5.333c0-0.921,0.662-1.667,1.479-1.667
				c0.817,0,1.479,0.746,1.479,1.667v5.333C178.5,26.573,177.838,27.319,177.021,27.319z"/>
		</g>
		<path fill="none" d="M180.92,34h-28.693c-1.106,0-2.227-0.097-2.227,0.68v19.504c0,0.777,1.121,1.816,2.227,1.816h28.693
			c1.106,0,2.08-1.039,2.08-1.816V34.68C183,33.903,182.026,34,180.92,34z"/>
		<path fill="#FFFFFF" d="M182.89,23H179v2.652c0,1.197-0.804,2.167-2,2.167s-2-0.97-2-2.167V23h-15v2.652
			c0,1.197-0.804,2.167-2,2.167s-2-0.97-2-2.167V23h-5.723C149.02,23,148,23.802,148,25.015v30.44c0,1.213,1.02,2.544,2.277,2.544
			h32.613c1.257,0,2.11-1.332,2.11-2.544v-30.44C185,23.802,184.147,23,182.89,23z M183,54.184c0,0.777-0.974,1.816-2.08,1.816
			h-28.693c-1.106,0-2.227-1.039-2.227-1.816V34.68c0-0.777,1.121-0.68,2.227-0.68h28.693c1.106,0,2.08-0.097,2.08,0.68V54.184z"/>
	</g>
</g>
<g id="TXT">
</g>
<g id="Guias">
</g>
</svg>
