<?xml version="1.0" encoding="utf-8"?>
<!-- Generator: Adobe Illustrator 16.0.0, SVG Export Plug-In . SVG Version: 6.00 Build 0)  -->
<!DOCTYPE svg PUBLIC "-//W3C//DTD SVG 1.1//EN" "http://www.w3.org/Graphics/SVG/1.1/DTD/svg11.dtd">
<svg version="1.1" xmlns="http://www.w3.org/2000/svg" xmlns:xlink="http://www.w3.org/1999/xlink" x="0px" y="0px" width="147px"
	 height="42px" viewBox="0 0 147 42" enable-background="new 0 0 147 42" xml:space="preserve">
<g id="Marcos_y_Cintillos">
</g>
<g id="Imagenes">
	<g id="Capa_2">
	</g>
</g>
<g id="Botones">
</g>
<g id="Logo">
	<g>
		<path fill="#B72025" d="M108.262,11.771c-0.076-0.095,0.035-0.305,0.248-0.509c0.322-0.311,2.537-2.538,3.422-3.422
			c0.223-0.223,0.975-0.674,1.713,0.349c0.893,1.241,0.088,1.851,0,1.886c-1.18,0.465-4.889,1.682-4.889,1.682
			S108.361,11.896,108.262,11.771z"/>
		<rect x="11.24" y="7.233" fill="#B72025" width="5.109" height="17.103"/>
		<path fill="#B72025" d="M29.467,16.511c-0.107-2.167-1.435-4.513-6.338-4.575c-3.645-0.046-4.761,1.781-5.104,2.846
			c-0.08,0.183-0.123,0.381-0.141,0.589c-0.014,0.1-0.016,0.157-0.016,0.157c0,1.027,0.817,1.86,1.826,1.86
			c1.008,0,1.825-0.833,1.825-1.86c0-0.439-0.155-0.836-0.405-1.154h0.002c0,0-0.683-0.898,1.563-0.706
			c1.805,0.154,2.033,2.089,2.054,2.843h-0.002v2.287c-0.808-0.667-1.944-1.089-3.211-1.089c-2.446,0-4.429,1.549-4.429,3.462
			c0,1.913,1.982,3.463,4.429,3.463c1.267,0,2.403-0.421,3.211-1.089v0.791h4.745v-7.825H29.467z M21.521,23.608
			c-1.349,0-2.441-1.019-2.441-2.276c0-1.257,1.093-2.276,2.441-2.276s2.44,1.019,2.44,2.276
			C23.961,22.589,22.869,23.608,21.521,23.608z"/>
		<path fill="#B72025" d="M44.547,12.579c-3.941,0-7.139,2.813-7.139,6.284s3.197,6.285,7.139,6.285
			c3.943,0,7.141-2.813,7.141-6.285S48.49,12.579,44.547,12.579z M44.547,23.78c-1.795,0-3.25-2.202-3.25-4.917
			s1.455-4.917,3.25-4.917s3.25,2.202,3.25,4.917S46.342,23.78,44.547,23.78z"/>
		<path fill="#B72025" d="M110.75,12.579c-3.943,0-7.141,2.813-7.141,6.284s3.197,6.285,7.141,6.285
			c3.941,0,7.139-2.813,7.139-6.285S114.691,12.579,110.75,12.579z M110.75,23.78c-1.795,0-3.25-2.202-3.25-4.917
			s1.455-4.917,3.25-4.917c1.793,0,3.248,2.202,3.248,4.917S112.543,23.78,110.75,23.78z"/>
		<path fill="#B72025" d="M62.951,12.749c-1.654,0-3.172,0.496-4.381,1.32v-2.003h-5.9v22.701h5.9v-10.94
			c1.209,0.825,2.727,1.321,4.381,1.321c3.932,0,7.119-2.775,7.119-6.2C70.07,15.524,66.883,12.749,62.951,12.749z M60.75,23.608
			c-0.82,0-1.57-0.346-2.18-0.909v-7.074c0.609-0.563,1.359-0.909,2.18-0.909c2.008,0,3.635,1.99,3.635,4.445
			C64.385,21.617,62.758,23.608,60.75,23.608z"/>
		<rect x="70.797" y="12.194" fill="#B72025" width="5.516" height="12.013"/>
		<path fill="#B72025" d="M76.377,8.474c0.512,1.232-0.707,2.166-2.334,2.759c-1.84,0.671-3.289,0.197-3.523-0.563
			c-0.213-0.694,0.529-1.844,2.229-2.597C74.332,7.371,75.938,7.416,76.377,8.474z"/>
		<rect x="96.963" y="12.194" fill="#B72025" width="5.516" height="12.013"/>
		<path fill="#B72025" d="M102.541,8.474c0.512,1.232-0.705,2.166-2.334,2.759c-1.84,0.671-3.289,0.197-3.523-0.563
			c-0.213-0.694,0.529-1.844,2.229-2.597C100.498,7.371,102.104,7.416,102.541,8.474z"/>
		<path fill="#B72025" d="M94.391,15.502c-0.178-2.237-2.42-2.371-5.125-2.411c-2.262-0.034-4.826,1.146-5.855,1.673v-2.57h-5.516
			v12.013h5.516V16.81c0.596-0.595,1.711-1.513,3.076-1.667c2.096-0.234,2.367,1.686,2.396,2.417v6.646h5.514v-8.705H94.391z"/>
		<path fill="#B72025" d="M135.754,15.502c-0.178-2.237-2.42-2.371-5.125-2.411c-2.262-0.034-4.826,1.146-5.857,1.673v-2.57h-5.514
			v12.013h5.514V16.81c0.596-0.595,1.713-1.513,3.078-1.667c2.096-0.234,2.367,1.686,2.396,2.417v6.646h5.514v-8.705H135.754z"/>
	</g>
</g>
<g id="Iconos">
</g>
<g id="TXT">
</g>
<g id="Guias">
</g>
</svg>
