<?xml version="1.0" encoding="utf-8"?>
<!-- Generator: Adobe Illustrator 16.0.0, SVG Export Plug-In . SVG Version: 6.00 Build 0)  -->
<!DOCTYPE svg PUBLIC "-//W3C//DTD SVG 1.1//EN" "http://www.w3.org/Graphics/SVG/1.1/DTD/svg11.dtd">
<svg version="1.1" xmlns="http://www.w3.org/2000/svg" xmlns:xlink="http://www.w3.org/1999/xlink" x="0px" y="0px" width="91px"
	 height="98px" viewBox="0 0 91 98" enable-background="new 0 0 91 98" xml:space="preserve">
<g id="Marcos_y_Cintillos">
</g>
<g id="Imagenes">
	<g id="Capa_2">
	</g>
</g>
<g id="Botones">
</g>
<g id="Logo">
	<g>
		<g>
			<radialGradient id="SVGID_2_" cx="47.4189" cy="28.77" r="41.9981" gradientUnits="userSpaceOnUse">
				<stop  offset="0" style="stop-color:#E7C54D"/>
				<stop  offset="0.62" style="stop-color:#B8633A"/>
				<stop  offset="1" style="stop-color:#B14B34"/>
			</radialGradient>
			<path fill-rule="evenodd" clip-rule="evenodd" fill="url(#SVGID_2_)" d="M71.637,51.856c-1.262,3.566-3.944,6.015-8.05,7.346
				c-2.21-2.168-5.466-5.19-9.768-9.065c-3.956-3.511-8.25-4.212-12.884-2.102c-1.247-1.868-2.474-3.98-3.685-6.338
				c-0.093-0.168-0.186-0.334-0.278-0.498c1.62-3.086,2.857-5.556,3.826-8.541c1.616-4.981,3.486-14.233,0.711-18.807
				c-1.99-3.283-5.34-2.289-8.294-0.742c1.683-1.377,3.307-2.274,4.871-2.691c1.367-0.379,2.683-0.429,4.009,0.018
				c3.016,1.911,4.422,7.121,4.221,15.629c0.915-0.623,1.247-1.273,1.606-1.865c2.198-3.616,6.193-0.45,3.864,3.585
				c11.359-0.187,22.95,2.036,25.321,13.833c-3.707-10.62-23.803-13.624-26.783-5.638C46.563,46.061,64.313,51.505,71.637,51.856
				L71.637,51.856z M37.67,49.947c-1.207-1.05-2.443-2.2-3.706-3.449c-5.345,8.605-9.994,11.591-13.95,8.957l0.011,0.016
				c0.809,1.247,1.889,2.075,3.156,2.504c1.314,0.443,2.922,0.48,4.828-0.043C32.152,55.393,35.372,52.732,37.67,49.947
				L37.67,49.947z"/>
			<radialGradient id="SVGID_4_" cx="33.3618" cy="36.1904" r="27.6585" gradientUnits="userSpaceOnUse">
				<stop  offset="0" style="stop-color:#7CA251"/>
				<stop  offset="0.51" style="stop-color:#50834B"/>
				<stop  offset="1" style="stop-color:#004728"/>
			</radialGradient>
			<path fill-rule="evenodd" clip-rule="evenodd" fill="url(#SVGID_4_)" d="M37.251,41.696c4.674,9.107,9.617,14.558,14.829,16.353
				c-5.441-0.89-11.938-4.782-18.99-12.425c-0.7-0.81-1.388-1.503-2.066-2.082c-2.104-1.796-4.182-2.503-6.937-1.643
				c-8.134,2.543-7.327,19.119,3.922,16.033c-11.597,6.723-17.716-4.751-16.458-15.263c1.421-11.866,10.283-25.176,18.812-30.404
				c3.405-2.088,7.928-4.146,11.733-1.828c-3.654-1.079-7.679,0.849-12.073,5.783c-4.064,4.771-6.107,8.561-6.136,11.371
				c2-2.137,3.68-2.411,5.04-0.821c0.607,1.41,0.32,3-0.858,4.768C31.711,33.787,34.771,37.173,37.251,41.696z"/>
			<radialGradient id="SVGID_6_" cx="59.5571" cy="48.7803" r="25.4473" gradientUnits="userSpaceOnUse">
				<stop  offset="0" style="stop-color:#2794C5"/>
				<stop  offset="1" style="stop-color:#364378"/>
			</radialGradient>
			<path fill-rule="evenodd" clip-rule="evenodd" fill="url(#SVGID_6_)" d="M52.08,58.049c-0.107-0.038-0.216-0.078-0.323-0.117
				C51.864,57.972,51.973,58.012,52.08,58.049L52.08,58.049z M35.035,47.704c5.366,4.669,12.806,9.614,17.045,10.345
				c3.455,1.467,7.292,1.851,11.507,1.153c4.105-1.331,6.788-3.78,8.05-7.346c-0.161-1.815-0.546-5.597,0.557-7.176
				c0.991-1.422,2.859-1.27,4.367,0.533c0.652-0.807,0.893-1.971,0.548-3.595c-0.231-1.049-0.558-2.049-0.978-3
				c-1.49-3.556-3.854-5.998-6.778-7.648c7.055,3.575,11.542,8.896,13.461,15.962c2.676,13.979-12.882,21.756-24.94,18.033
				c-7.695-2.377-17.004-10.338-22.374-16.854L35.035,47.704z"/>
		</g>
		<path fill-rule="evenodd" clip-rule="evenodd" fill="#324978" d="M11.828,75.846c-1.867,2.144-2.227,5.595-1.074,10.355
			c0.542,1.266,0.302,2.262-0.723,2.989C8.9,89.878,8.204,89.5,7.94,88.057C7.272,84.206,7.063,79.79,8.922,76.23
			c2.029-3.88,5.198-5.598,9.512-5.152c3.166,0.542,4.56,2.365,4.18,5.471c-0.787,3.25-3.249,5.348-7.385,6.291
			c1.818,4.649,3.824,5.665,6.018,3.048c1.688-1.889,3.135-3.673,4.337-5.353c1.416-0.343,2.016,0.1,1.798,1.329
			c-0.622,5.164,0.029,6.687,1.954,4.572c1.509-2.456,2.798-4.568,3.868-6.338c0.653-1.079,0.766-1.375,1.906-2.053
			c5.328-3.17,10.749,4.055,6.495,9.758c-2.885,3.069-5.647,2.86-8.284-0.625c-0.347-0.557-0.736-1.377-1.172-2.461
			c-4.464,7.046-7.044,7.021-7.737-0.079c-4.61,6.851-8.296,7.085-11.059,0.704c-1.367-2.924-1.093-4.552,0.82-4.885
			c2.354-0.292,4.024-0.817,5.012-1.577c2.104-1.617,0.993-3.882-1.104-4.87C15.899,72.983,13.815,73.595,11.828,75.846
			L11.828,75.846z M69.778,88.936c-0.052-6.069-0.077-9.104-0.077-9.104c-0.967,0.503-1.501,0.412-1.603-0.273
			c-0.123-0.556,0.149-1.024,0.819-1.407c1.354-0.912,2.032-1.368,2.032-1.368c0.964-0.484,1.433-0.224,1.407,0.781
			c0,5.575,0,8.363,0,8.363c1.205-1.501,2.299-2.699,3.282-3.595c0.272-4.263,2.943-7.806,8.01-10.628
			c1.115-0.585,1.838,0.945,0.605,1.641c-3.887,2.563-5.612,4.66-6.075,7.307c4.037-2.246,6.812-1.933,8.323,0.938
			c1.112,2.765,0.514,5.135-1.798,7.112c-3.379,2.716-7.741,1.127-9.104-3.829c-2.917,2.996-4.377,4.494-4.377,4.494
			C70.248,89.916,69.767,89.773,69.778,88.936L69.778,88.936z M78.043,82.762c0.907,3.491,2.932,5.088,4.829,4.406
			c1.405-0.504,2.469-1.971,1.688-3.444C83.69,82.085,80.799,81.169,78.043,82.762L78.043,82.762z M61.563,77.135
			c-3.138,0-5.898,2.929-6.165,6.543c-0.006,0.075-0.01,0.149-0.013,0.223c-0.82,1.544-2.492,2.768-4.272,3.172
			c-2.318,0.526-4.83-0.28-2.475-2.787c2.944-2.19,5.067-4.144,6.214-6.722c1.383-2.632,0.407-5.186-2.423-6.213
			c-2.945-0.903-6.905,0.869-7.542,3.204c-0.182,1.018,1.174,1.148,2.305,0.157c1.296-1.136,2.729-1.306,4.3-0.508
			c1.546,1.406,1.414,3.24-0.395,5.499c-1.938,2.423-6.18,4.063-6.288,7.239c0,3.916,6.629,4.176,10.864-0.508l0.031-0.054
			c0.726,2.265,2.593,3.84,4.892,3.84c3.14,0,5.9-2.929,6.166-6.543C67.029,80.064,64.701,77.135,61.563,77.135L61.563,77.135z
			 M60.517,79.983c1.862,0,3.635,1.654,3.959,3.695c0.325,2.04-0.922,3.694-2.784,3.694c-1.861,0-3.634-1.654-3.959-3.694
			C57.408,81.638,58.654,79.983,60.517,79.983L60.517,79.983z M27.146,75.181c-1.014,0-1.837,0.822-1.837,1.836
			s0.823,1.836,1.837,1.836s1.836-0.822,1.836-1.836S28.16,75.181,27.146,75.181L27.146,75.181z M36.388,79.831
			c-1.435,0-2.073,1.635-1.426,3.653c0.648,2.018,2.338,3.654,3.773,3.654c1.435,0,2.073-1.637,1.425-3.654
			C39.512,81.466,37.823,79.831,36.388,79.831z"/>
	</g>
</g>
<g id="Iconos">
</g>
<g id="TXT">
</g>
<g id="Guias">
</g>
</svg>
