<?xml version="1.0" encoding="utf-8"?>
<!-- Generator: Adobe Illustrator 15.0.0, SVG Export Plug-In . SVG Version: 6.00 Build 0)  -->
<!DOCTYPE svg PUBLIC "-//W3C//DTD SVG 1.1//EN" "http://www.w3.org/Graphics/SVG/1.1/DTD/svg11.dtd">
<svg version="1.1" id="Capa_1" xmlns="http://www.w3.org/2000/svg" xmlns:xlink="http://www.w3.org/1999/xlink" x="0px" y="0px"
	 width="65.204px" height="62.667px" viewBox="0 0 65.204 62.667" enable-background="new 0 0 65.204 62.667" xml:space="preserve">
<g>
	<rect x="4.667" y="6.333" fill="#FF0000" width="54" height="51"/>
	<g>
		<defs>
			<rect id="SVGID_1_" x="6.128" y="4.249" width="57.075" height="54.351"/>
		</defs>
		<clipPath id="SVGID_2_">
			<use xlink:href="#SVGID_1_"  overflow="visible"/>
		</clipPath>
		<rect x="13.183" y="11.004" clip-path="url(#SVGID_2_)" fill="#1F1600" width="2.725" height="8.867"/>
		<g clip-path="url(#SVGID_2_)">
			<defs>
				<rect id="SVGID_3_" x="6.128" y="4.249" width="57.075" height="54.351"/>
			</defs>
			<clipPath id="SVGID_4_">
				<use xlink:href="#SVGID_3_"  overflow="visible"/>
			</clipPath>
			<path clip-path="url(#SVGID_4_)" fill="#1F1600" d="M18.692,19.871C17.449,19.9,16.534,19,16.515,18.055
				c-0.025-1.13,1.12-1.675,1.941-1.746c0.777-0.063,1.267,0.095,1.393,0.14c0.536,0.216,0.859,0.477,0.859,0.398
				c0-0.235,0.035-0.893-0.005-1.298c-0.014-0.129-0.024-0.184-0.024-0.184c-0.026-0.96-1.298-1.903-2.145-1.253
				c-0.07,0.051-0.145,0.174-0.065,0.236c0.626,0.469,0.433,1.197,0.183,1.44c-0.353,0.341-1.214,0.368-1.533-0.097
				c-0.616-0.881,0.438-1.766,0.788-1.958c0.368-0.208,1.362-0.543,3.028-0.293c1.905,0.288,2.02,1.841,2.02,1.841v4.543h-2.348
				c0,0,0.018-0.646,0.014-0.738C20.621,19.076,20.21,19.843,18.692,19.871 M18.837,17.154c-0.763,0-1.383,0.492-1.383,1.106
				c0,0.611,0.62,1.108,1.383,1.108c0.762,0,1.379-0.497,1.379-1.108C20.216,17.646,19.599,17.154,18.837,17.154"/>
			<g opacity="0.7" clip-path="url(#SVGID_4_)">
				<g>
					<defs>
						<rect id="SVGID_5_" x="27.484" y="10.015" width="18.233" height="14.989"/>
					</defs>
					<clipPath id="SVGID_6_">
						<use xlink:href="#SVGID_5_"  overflow="visible"/>
					</clipPath>
					<g clip-path="url(#SVGID_6_)">
						<defs>
							<rect id="SVGID_7_" x="27.484" y="10.015" width="18.233" height="14.989"/>
						</defs>
						<clipPath id="SVGID_8_">
							<use xlink:href="#SVGID_7_"  overflow="visible"/>
						</clipPath>
						<g transform="matrix(1 0 0 1 -6.821888e-007 -1.537819e-007)" clip-path="url(#SVGID_8_)">
							
								<image overflow="visible" width="73" height="60" xlink:href="F5C2DC63.png"  transform="matrix(0.2498 0 0 0.2498 27.4839 10.0146)">
							</image>
						</g>
					</g>
				</g>
			</g>
			<path clip-path="url(#SVGID_4_)" fill="#FFFFFF" d="M27.939,19.965l0.67,0.999l11.262-3.885c0,0,2.611-1.808,0.999-4.422
				c-1.605-2.613-4.354-1.473-4.354-1.273S27.939,19.965,27.939,19.965"/>
			<g opacity="0.7" clip-path="url(#SVGID_4_)">
				<g>
					<defs>
						<rect id="SVGID_9_" x="15.246" y="21.509" width="38.469" height="35.465"/>
					</defs>
					<clipPath id="SVGID_10_">
						<use xlink:href="#SVGID_9_"  overflow="visible"/>
					</clipPath>
					<g clip-path="url(#SVGID_10_)">
						<defs>
							<rect id="SVGID_11_" x="15.246" y="21.509" width="38.469" height="35.465"/>
						</defs>
						<clipPath id="SVGID_12_">
							<use xlink:href="#SVGID_11_"  overflow="visible"/>
						</clipPath>
						<g transform="matrix(1 0 0 1 1.425860e-009 -7.567501e-007)" clip-path="url(#SVGID_12_)">
							
								<image overflow="visible" width="154" height="142" xlink:href="F5C2DC61.png"  transform="matrix(0.2498 0 0 0.2498 15.2456 21.5088)">
							</image>
						</g>
					</g>
				</g>
			</g>
			<path clip-path="url(#SVGID_4_)" fill="#FFFFFF" d="M40.943,37.815c0,6.777-3.865,12.281-8.627,12.281
				c-4.766,0-8.628-5.504-8.628-12.281c0-6.783,3.862-12.28,8.628-12.28C37.078,25.535,40.943,31.032,40.943,37.815 M49.556,37.722
				c0-8.52-7.57-15.421-16.907-15.421c-9.333,0-16.902,6.901-16.902,15.421c0,8.516,7.569,15.422,16.902,15.422
				C41.986,53.144,49.556,46.237,49.556,37.722"/>
		</g>
	</g>
</g>
</svg>
