<?xml version="1.0" encoding="utf-8"?>
<!-- Generator: Adobe Illustrator 15.0.0, SVG Export Plug-In . SVG Version: 6.00 Build 0)  -->
<!DOCTYPE svg PUBLIC "-//W3C//DTD SVG 1.1//EN" "http://www.w3.org/Graphics/SVG/1.1/DTD/svg11.dtd">
<svg version="1.1" id="Capa_1" xmlns="http://www.w3.org/2000/svg" xmlns:xlink="http://www.w3.org/1999/xlink" x="0px" y="0px"
	 width="119.003px" height="38px" viewBox="0 0 119.003 38" enable-background="new 0 0 119.003 38" xml:space="preserve">
<g>
	<g>
		<g>
			<path fill="#B92025" d="M33.383,13.231c0-1.514-1.368-2.883-2.884-2.883H18.964c-1.516,0-2.884,1.369-2.884,2.883v11.535
				c0,1.516,1.368,2.885,2.884,2.885h5.768v-6.537h-2.115v-2.883h2.115v-1.125c0-1.938,1.455-3.682,3.244-3.682h2.331v2.883h-2.331
				c-0.255,0-0.553,0.311-0.553,0.773v1.15h2.884v2.883h-2.884v6.537H30.5c1.516,0,2.884-1.369,2.884-2.885V13.231z"/>
		</g>
		<g>
			<g>
				<path fill="#B92025" d="M96.04,20.577c-0.27,0-0.526,0.15-0.766,0.449v-1.813h-0.755v5.553h0.755V24.36
					c0.248,0.309,0.503,0.463,0.766,0.463c0.308,0,0.507-0.158,0.598-0.473c0.052-0.158,0.078-0.432,0.078-0.822v-1.645
					c0-0.398-0.026-0.676-0.078-0.834C96.546,20.733,96.347,20.577,96.04,20.577z M95.972,23.585c0,0.367-0.108,0.55-0.327,0.55
					c-0.127,0-0.251-0.06-0.371-0.179v-2.523c0.12-0.119,0.244-0.18,0.371-0.18c0.218,0,0.327,0.188,0.327,0.563V23.585z"/>
				<path fill="#B92025" d="M98.428,20.577c-0.384,0-0.684,0.142-0.901,0.428c-0.15,0.203-0.226,0.525-0.226,0.969v1.452
					c0,0.444,0.079,0.767,0.236,0.97c0.218,0.285,0.522,0.428,0.913,0.428c0.396,0,0.698-0.15,0.9-0.451
					c0.091-0.135,0.146-0.285,0.169-0.449c0.016-0.105,0.023-0.268,0.023-0.484v-0.102h-0.767c0,0.082,0,0.162,0,0.242
					c0,0.078-0.002,0.14-0.006,0.186c-0.003,0.045-0.005,0.07-0.005,0.078c-0.046,0.195-0.158,0.292-0.338,0.292
					c-0.256,0-0.383-0.19-0.383-0.573v-0.732h1.498v-0.855c0-0.436-0.079-0.758-0.237-0.969
					C99.104,20.719,98.811,20.577,98.428,20.577z M98.789,22.21h-0.744v-0.383c0-0.383,0.124-0.574,0.372-0.574
					s0.372,0.191,0.372,0.574V22.21L98.789,22.21z"/>
				<path fill="#B92025" d="M93.122,23.786c-0.164,0.234-0.322,0.349-0.473,0.349c-0.105,0-0.161-0.056-0.169-0.169
					c-0.008-0.014-0.011-0.111-0.011-0.291v-3.041h-0.743v3.266c0,0.285,0.022,0.487,0.067,0.607
					c0.067,0.211,0.225,0.316,0.473,0.316c0.278,0,0.563-0.17,0.856-0.508v0.451h0.755v-4.133h-0.755L93.122,23.786L93.122,23.786
					L93.122,23.786z"/>
				<path fill="#B92025" d="M94.102,16.385c0.24,0,0.361-0.19,0.361-0.573v-1.759c0-0.39-0.121-0.585-0.361-0.585
					s-0.36,0.195-0.36,0.585v1.759C93.742,16.194,93.862,16.385,94.102,16.385z"/>
				<polygon fill="#B92025" points="89,20.001 89.878,20.001 89.878,24.767 90.711,24.767 90.711,20.001 91.613,20.001 
					91.613,19.214 89,19.214 				"/>
				<path fill="#B92025" d="M99.678,10.349H88.865c-0.895,0-1.658,0.316-2.293,0.951s-0.952,1.398-0.952,2.293v10.814
					c0,0.893,0.317,1.656,0.952,2.291s1.398,0.953,2.293,0.953h10.813c0.894,0,1.657-0.318,2.292-0.953s0.952-1.398,0.952-2.291
					V13.593c0-0.895-0.317-1.658-0.952-2.293C101.336,10.665,100.572,10.349,99.678,10.349z M95.837,12.849h0.754v3.064
					c0,0.18,0.004,0.277,0.012,0.293c0.008,0.121,0.067,0.179,0.181,0.179c0.149,0,0.308-0.114,0.473-0.349v-3.188h0.755v4.168
					h-0.755v-0.451c-0.309,0.338-0.598,0.508-0.868,0.508c-0.239,0-0.401-0.102-0.483-0.305c-0.045-0.135-0.067-0.343-0.067-0.619
					V12.849L95.837,12.849z M92.987,14.2c0-0.436,0.079-0.762,0.235-0.979c0.204-0.285,0.497-0.43,0.88-0.43
					c0.368,0,0.661,0.145,0.879,0.43c0.157,0.217,0.236,0.543,0.236,0.979v1.465c0,0.451-0.079,0.777-0.236,0.98
					c-0.218,0.285-0.511,0.428-0.879,0.428c-0.383,0-0.676-0.143-0.88-0.428c-0.156-0.22-0.235-0.545-0.235-0.98V14.2L92.987,14.2z
					 M90.959,11.419l0.597,2.195l0.575-2.195h0.845l-1.014,3.334v2.264h-0.834v-2.264c-0.083-0.414-0.255-1.006-0.518-1.779
					c-0.053-0.174-0.141-0.432-0.26-0.777c-0.12-0.346-0.21-0.605-0.271-0.777H90.959L90.959,11.419z M100.242,25.015
					c-0.075,0.324-0.235,0.598-0.479,0.822c-0.243,0.225-0.527,0.357-0.85,0.395c-1.029,0.112-2.576,0.168-4.642,0.168
					s-3.611-0.056-4.641-0.168c-0.324-0.037-0.606-0.17-0.851-0.395s-0.403-0.498-0.479-0.822c-0.15-0.631-0.226-1.607-0.226-2.93
					c0-1.299,0.075-2.275,0.226-2.928c0.075-0.33,0.235-0.605,0.479-0.828c0.244-0.221,0.531-0.352,0.862-0.389
					c1.021-0.113,2.564-0.17,4.63-0.17c2.072,0,3.619,0.057,4.641,0.17c0.323,0.037,0.608,0.168,0.856,0.389
					c0.247,0.223,0.409,0.498,0.484,0.828c0.143,0.623,0.214,1.6,0.214,2.928C100.466,23.407,100.391,24.384,100.242,25.015z"/>
			</g>
		</g>
		<g>
			<path fill="#B92025" d="M75.75,15.007c-0.366,0-0.665-0.299-0.665-0.666V13.01c0-0.366,0.299-0.666,0.665-0.666h1.331
				c0.366,0,0.666,0.3,0.666,0.666v1.331c0,0.367-0.3,0.666-0.666,0.666H75.75z"/>
			<path fill="#B92025" d="M71.091,16.462c-0.483,0-0.929,0.143-1.313,0.375c0.119-0.037,0.243-0.061,0.375-0.061
				c0.711,0,1.286,0.574,1.286,1.285s-0.575,1.287-1.286,1.287s-1.286-0.576-1.286-1.287c0-0.131,0.025-0.256,0.063-0.375
				c-0.234,0.385-0.377,0.83-0.377,1.313c0,1.402,1.136,2.537,2.539,2.537c1.4,0,2.537-1.135,2.537-2.537
				C73.629,17.596,72.493,16.462,71.091,16.462z"/>
			<g>
				<path fill="#B92025" d="M71.091,15.007c2.205,0,3.993,1.787,3.993,3.992s-1.789,3.994-3.993,3.994
					c-2.205,0-3.993-1.789-3.993-3.994S68.886,15.007,71.091,15.007 M71.091,13.676c-2.936,0-5.324,2.388-5.324,5.323
					s2.389,5.324,5.324,5.324s5.324-2.389,5.324-5.324S74.027,13.676,71.091,13.676L71.091,13.676z"/>
			</g>
			<path fill="#B92025" d="M76.499,10.349H65.684c-1.792,0-3.244,1.451-3.244,3.244v10.814c0,1.791,1.452,3.244,3.244,3.244h10.814
				c1.792,0,3.244-1.453,3.244-3.244V13.593C79.743,11.8,78.291,10.349,76.499,10.349z M78.412,16.337h-4.351
				c0.635,0.709,1.023,1.639,1.023,2.662c0,2.205-1.789,3.994-3.993,3.994c-2.205,0-3.993-1.789-3.993-3.994
				c0-1.023,0.389-1.955,1.023-2.662h-4.351v-2.744c0-1.055,0.858-1.915,1.913-1.915h10.814c1.055,0,1.913,0.86,1.913,1.915V16.337z
				"/>
		</g>
		<g>
			<g>
				<path fill="#B92025" d="M53.319,10.349H42.504c-1.791,0-3.244,1.451-3.244,3.244v10.814c0,1.791,1.453,3.244,3.244,3.244h10.814
					c1.793,0,3.244-1.453,3.244-3.244V13.593C56.563,11.8,55.112,10.349,53.319,10.349z M52.215,17.058l0.008,0.275
					c0,2.816-2.143,6.061-6.061,6.061c-1.203,0-2.322-0.354-3.266-0.957c0.168,0.02,0.338,0.029,0.51,0.029
					c0.998,0,1.916-0.34,2.645-0.91c-0.932-0.018-1.719-0.635-1.99-1.48c0.131,0.023,0.264,0.037,0.402,0.037
					c0.193,0,0.383-0.025,0.561-0.074c-0.975-0.195-1.709-1.057-1.709-2.088v-0.027c0.287,0.16,0.615,0.255,0.965,0.268
					c-0.57-0.381-0.947-1.033-0.947-1.771c0-0.391,0.105-0.756,0.287-1.07c1.051,1.286,2.621,2.137,4.391,2.225
					c-0.037-0.156-0.055-0.318-0.055-0.486c0-1.174,0.953-2.129,2.131-2.129c0.611,0,1.164,0.26,1.555,0.674
					c0.484-0.098,0.941-0.275,1.352-0.518c-0.158,0.498-0.496,0.914-0.936,1.178c0.43-0.051,0.842-0.166,1.223-0.334
					C52.995,16.384,52.631,16.759,52.215,17.058z"/>
			</g>
		</g>
	</g>
</g>
</svg>
