<?xml version="1.0" encoding="utf-8"?>
<!-- Generator: Adobe Illustrator 15.0.0, SVG Export Plug-In . SVG Version: 6.00 Build 0)  -->
<!DOCTYPE svg PUBLIC "-//W3C//DTD SVG 1.1//EN" "http://www.w3.org/Graphics/SVG/1.1/DTD/svg11.dtd">
<svg version="1.1" id="Capa_1" xmlns="http://www.w3.org/2000/svg" xmlns:xlink="http://www.w3.org/1999/xlink" x="0px" y="0px"
	 width="65.204px" height="62.667px" viewBox="0 0 65.204 62.667" enable-background="new 0 0 65.204 62.667" xml:space="preserve">
<g>
	<g>
		<path fill="#FFFFFF" d="M269.539,5555.004l2.408,22.028l30.841-3.37l-2.408-22.029L269.539,5555.004z M300.183,5570.232
			l-5.208-6.862l-4.539,4.706l-4.514-5.947l-12.013,12.46l-1.926-17.623l26.434-2.889L300.183,5570.232z M274.788,5562.232
			c0.198,1.824,1.841,3.143,3.666,2.942c1.824-0.198,3.143-1.84,2.942-3.665c-0.199-1.824-1.84-3.143-3.665-2.943
			C275.906,5558.767,274.588,5560.406,274.788,5562.232z M295.492,5547.709l-30.84,3.371l2.408,22.029l2.203-0.24l-2.167-19.828
			l28.636-3.127L295.492,5547.709L295.492,5547.709z"/>
	</g>
</g>
<g>
	<g>
		<path fill="#314799" d="M29.208,22.412c0.379-0.082,0.77-0.126,1.172-0.126c0.404,0,0.795,0.044,1.174,0.126v-4.421l4.072-4.07
			l-1.66-1.66l-2.412,2.412v-2.596h-2.346v2.596l-2.412-2.412l-1.658,1.66l4.072,4.07v4.421H29.208L29.208,22.412z"/>
		<path fill="#314799" d="M36.881,29.034v-2.348h-1.051c0.08,0.379,0.125,0.771,0.125,1.174c0,0.404-0.045,0.796-0.125,1.174H36.881
			z"/>
		<path fill="#314799" d="M31.553,43.644v-2.597l1.758,1.757c-0.018-0.244-0.029-0.492-0.029-0.742c0-0.848,0.098-1.62,0.277-2.328
			l-2.006-2.004v-4.422c-0.379,0.082-0.77,0.127-1.174,0.127c-0.402,0-0.793-0.045-1.172-0.127v4.422l-4.072,4.072l1.66,1.656
			l2.412-2.411v2.597H31.553z"/>
		<path fill="#314799" d="M14.782,31.447l1.658,1.656l4.072-4.07h4.42c-0.082-0.377-0.127-0.769-0.127-1.173
			c0-0.402,0.045-0.795,0.127-1.174h-4.42l-4.072-4.072l-1.658,1.661l2.412,2.411h-2.598v2.346h2.598L14.782,31.447z"/>
		<path fill="#314799" d="M16.788,21.772l5.758-0.023l3.143,3.114c0.426-0.666,0.99-1.235,1.65-1.668l-3.143-3.114l-0.025-5.758
			l-2.348,0.012l0.016,3.411l-1.846-1.827l-1.648,1.665l1.844,1.827l-3.412,0.016L16.788,21.772z"/>
		<path fill="#314799" d="M35.075,24.863l1.807-1.791v-4.675c0-1.803,0.828-3.042,2.055-3.652v-0.41l-2.346-0.012l-0.025,5.758
			l-3.143,3.116C34.084,23.628,34.647,24.197,35.075,24.863z"/>
		<path fill="#314799" d="M33.422,32.526l2.914,2.888c0.178-0.152,0.352-0.308,0.543-0.448v-2.316l-1.809-1.791
			C34.647,31.524,34.084,32.096,33.422,32.526z"/>
		<path fill="#314799" d="M22.545,33.974l-5.758-0.025l-0.012,2.346l3.412,0.015l-1.844,1.827l1.648,1.668l1.846-1.828l-0.014,3.412
			l2.346,0.011l0.025-5.759l3.143-3.113c-0.66-0.431-1.223-1.002-1.65-1.668L22.545,33.974z"/>
		<circle fill="#314799" cx="30.379" cy="27.861" r="4.255"/>
		<path fill="#314799" d="M41.358,20.668v1.093v3.818v3.678h2.434h0.008v-0.225v-2.346v-0.23v-3.318v-1.365v-1.105
			c0-0.563-0.074-0.959-0.186-1.242c-0.273-0.691-0.777-0.692-1.035-0.692s-0.76,0.001-1.033,0.685
			C41.432,19.699,41.358,20.099,41.358,20.668z"/>
		<path fill="#314799" d="M38.399,19.163v2.586v4.938v2.348v4.939v1.924c-0.693,0.439-1.299,0.988-1.826,1.61
			c-0.844,0.995-1.441,2.197-1.715,3.526c-0.105,0.517-0.176,1.045-0.176,1.592c0,0.041,0.004,0.074,0.004,0.112
			c0.061,4.347,3.6,7.852,7.957,7.852c0.559,0,1.098-0.056,1.621-0.165c3.623-0.748,6.344-3.955,6.344-7.797
			c0-2.926-1.58-5.479-3.932-6.861V19.163c0-1.968-1.375-3.614-3.217-4.033c-0.297-0.066-0.604-0.106-0.92-0.106
			c-1.555,0-2.906,0.857-3.615,2.124C38.59,17.743,38.399,18.43,38.399,19.163z M42.579,18.072c1.432,0,1.881,1.161,1.881,2.596
			v2.086v3.043v0.89v2.348v0.223v0.668v3.041v5.277c1.969,0.505,3.012,2.211,3.154,3.911c0.018,0.128,0.027,0.259,0.027,0.393
			c0,2.759-2.236,4.999-4.996,4.999s-4.994-2.24-4.994-4.999c0-0.134,0.01-0.267,0.029-0.397c0.02-0.262,0.061-0.514,0.121-0.759
			c0.195-0.79,0.58-1.481,1.125-2.019c0.238-0.232,0.51-0.427,0.797-0.602c0.303-0.183,0.623-0.338,0.973-0.444V36.43v-0.122v-2.346
			v-4.48v-0.225V26.24v-4.481v-1.091c0-0.458,0.053-0.88,0.162-1.253c0.049-0.17,0.109-0.329,0.188-0.47
			c0.162-0.306,0.389-0.545,0.701-0.695C41.977,18.139,42.25,18.072,42.579,18.072z"/>
		<path fill="#314799" d="M45.112,45.742c0.965-1.106,1.414-2.472,1.287-3.821c-0.084-0.915-1.84-0.922-1.754,0
			c0.105,1.132-0.244,2.176-1.049,3.098C42.938,45.773,44.459,46.486,45.112,45.742z"/>
	</g>
</g>
</svg>
